<?xml version="1.0" encoding="UTF-8"?>
<svg version="1.1" xmlns="http://www.w3.org/2000/svg" width="593" height="623">
<path d="M0 0 C9.41797881 1.62966089 18.43373973 4.41499796 27.55859375 7.1953125 C29.33419035 7.7324252 31.10992585 8.26907892 32.88578796 8.80531311 C36.71738214 9.96314465 40.54812766 11.12372761 44.37823486 12.28646851 C53.77272452 15.13814234 63.17167406 17.97506788 72.57009125 20.81376457 C75.89809988 21.819112 79.22594175 22.82501008 82.55377197 23.83094788 C105.14383499 30.65738375 127.75403453 37.41606893 150.36621094 44.16882324 C184.39784125 54.33223024 218.42694046 64.50440638 252.44158936 74.72451782 C256.0780119 75.81699176 259.71494577 76.9077368 263.35235596 77.99691772 C267.53931726 79.25072627 271.72523273 80.50796281 275.91031456 81.76803017 C277.42697477 82.22404738 278.94400613 82.67883235 280.46143532 83.13228416 C282.51691213 83.74674995 284.57098504 84.36570003 286.62475586 84.98583984 C288.33906044 85.50058365 288.33906044 85.50058365 290.08799744 86.02572632 C294.9718596 87.65972844 294.9718596 87.65972844 297 89 C297.88825625 91.91459082 298.49644626 94.57673604 299 97.5625 C299.15952148 98.42842773 299.31904297 99.29435547 299.48339844 100.18652344 C300.01394907 103.12058219 300.51124263 106.05869503 301 109 C301.18626953 110.11938965 301.37253906 111.2387793 301.56445312 112.39208984 C302.75093386 119.58839716 303.89285243 126.79108094 305 134 C306.27431885 134.27021973 307.5486377 134.54043945 308.86157227 134.81884766 C316.99888643 136.63022758 324.95611999 139.10308132 332.94067383 141.48535156 C334.94910979 142.08158298 336.95956927 142.67103744 338.97192383 143.25390625 C341.89088968 144.09961231 344.80321235 144.96536219 347.71484375 145.8359375 C348.6168602 146.09337738 349.51887665 146.35081726 350.44822693 146.61605835 C351.27991898 146.86957062 352.11161102 147.12308289 352.96850586 147.38427734 C353.70080917 147.60030609 354.43311249 147.81633484 355.18760681 148.03890991 C357.67342683 149.35711006 357.94586712 150.36838419 359 153 C359.61112397 155.8179928 360.14758424 158.60752475 360.62930298 161.44760132 C360.78054229 162.30877741 360.9317816 163.16995349 361.08760393 164.05722582 C361.59388083 166.94908262 362.09109212 169.8424246 362.58837891 172.73583984 C362.94953033 174.80964459 363.31123851 176.88335244 363.67346191 178.95697021 C364.65885777 184.60742803 365.63641784 190.25921706 366.61264086 195.91126585 C367.642691 201.86697668 368.67993465 207.82143441 369.71640015 213.77603149 C371.68808121 225.10999739 373.65331036 236.44507218 375.61624181 247.78055632 C377.81784502 260.49256631 380.02637451 273.20336937 382.23562741 285.91405177 C384.9433934 301.49339327 387.64994084 317.07294537 390.35122681 332.65341187 C390.54246821 333.75627309 390.7337096 334.85913431 390.9307462 335.99541557 C391.86689851 341.39475844 392.80226451 346.79423553 393.73612404 352.19397545 C395.39512935 361.78160165 397.06120803 371.36780874 398.75566304 380.94924247 C399.51396537 385.23795028 400.26883464 389.52725967 401.02362514 393.81658673 C401.37993313 395.83495957 401.73807544 397.85300957 402.09817624 399.87070918 C402.5923866 402.6400484 403.08043838 405.41040946 403.56723022 408.18106079 C403.71353811 408.99087284 403.859846 409.8006849 404.01058745 410.63503671 C405.91945745 421.59731756 405.91945745 421.59731756 403.73413086 424.93115234 C403.15026611 425.47723145 402.56640137 426.02331055 401.96484375 426.5859375 C401.32369629 427.20259277 400.68254883 427.81924805 400.02197266 428.45458984 C398.99015869 429.40519287 398.99015869 429.40519287 397.9375 430.375 C396.54645422 431.7065358 395.15710645 433.03984795 393.76953125 434.375 C393.10775879 435.00535156 392.44598633 435.63570313 391.76416016 436.28515625 C389.20100732 438.77665716 386.90458659 441.45148973 384.6015625 444.1796875 C381.94932172 447.19418555 379.04863578 449.95879076 376.19140625 452.77734375 C373.57898932 455.4270144 371.16697379 458.21172803 368.74609375 461.03515625 C366.27396582 463.81699148 363.61569453 466.39375951 360.96484375 469.00390625 C359.07769256 470.92107177 357.31314625 472.89575322 355.5625 474.9375 C352.99334729 477.92801716 350.30682744 480.73116684 347.5 483.5 C344.71378859 486.2485599 342.04691608 489.02859791 339.5 492 C336.24835372 495.79358733 332.74286906 499.27392647 329.1875 502.78125 C327.20279658 504.79430632 325.33903084 506.85446403 323.5 509 C320.24835372 512.79358733 316.74286906 516.27392647 313.1875 519.78125 C311.20279658 521.79430632 309.33903084 523.85446403 307.5 526 C304.24955349 529.79218759 300.74550431 533.27135531 297.19140625 536.77734375 C294.57898932 539.4270144 292.16697379 542.21172803 289.74609375 545.03515625 C287.27396582 547.81699148 284.61569453 550.39375951 281.96484375 553.00390625 C280.07769256 554.92107177 278.31314625 556.89575322 276.5625 558.9375 C273.99334729 561.92801716 271.30682744 564.73116684 268.5 567.5 C265.71378859 570.2485599 263.04691608 573.02859791 260.5 576 C257.24835372 579.79358733 253.74286906 583.27392647 250.1875 586.78125 C248.20279658 588.79430632 246.33903084 590.85446403 244.5 593 C241.24835372 596.79358733 237.74286906 600.27392647 234.1875 603.78125 C231.64263963 606.36246552 229.29311562 609.07188598 226.93945312 611.82617188 C224.80046683 614.22364594 222.56134662 616.48654642 220.28125 618.75 C219.0756543 619.94882813 219.0756543 619.94882813 217.84570312 621.171875 C216.93208008 622.07679688 216.93208008 622.07679688 216 623 C193.39504173 616.89773987 171.021573 610.02037923 148.61761475 603.22607422 C136.74336793 599.62522453 124.86590984 596.03498856 112.98828125 592.4453125 C111.79327499 592.08409554 110.59826874 591.72287857 109.36705017 591.35071564 C88.41262546 585.01790138 67.44167834 578.74224582 46.4571228 572.5100708 C41.40262252 571.00871669 36.34932907 569.50332746 31.29614258 567.99755859 C16.46474051 563.57991342 1.62958529 559.17674113 -13.22466469 554.83643341 C-20.80576813 552.62086116 -28.38296404 550.39226016 -35.95764732 548.15483856 C-41.33173373 546.56853139 -46.71050667 544.9997037 -52.09354782 543.44407272 C-55.38301192 542.48889407 -58.66735504 541.51700493 -61.95045471 540.54019928 C-63.47432656 540.09055555 -65.00029187 539.6479398 -66.52836609 539.21279144 C-68.61230164 538.61833366 -70.68741847 537.99953493 -72.76220703 537.37402344 C-73.92559601 537.03417419 -75.08898499 536.69432495 -76.28762817 536.34417725 C-79 535 -79 535 -80.33551025 532.61659241 C-80.916247 530.32979812 -81.47106695 528.0854428 -81.86962891 525.76049805 C-82.00962311 524.96004562 -82.14961731 524.1595932 -82.29385376 523.33488464 C-82.43664764 522.4857399 -82.57944153 521.63659515 -82.7265625 520.76171875 C-82.87910492 519.88095169 -83.03164734 519.00018463 -83.18881226 518.09272766 C-83.67269247 515.29184329 -84.14894648 512.48972414 -84.625 509.6875 C-84.95262194 507.78311651 -85.28074139 505.87881854 -85.609375 503.97460938 C-86.41201676 499.31737724 -87.20782358 494.65902318 -88 490 C-91.60234057 488.82764901 -95.20715961 487.66309067 -98.8125 486.5 C-99.91859619 486.14123779 -101.02469238 485.78247559 -102.16430664 485.4128418 C-108.28148991 483.44665024 -114.4092938 481.57964254 -120.6015625 479.86328125 C-122.44077271 479.34701172 -122.44077271 479.34701172 -124.31713867 478.8203125 C-126.70323474 478.15608669 -129.09404014 477.50851969 -131.48950195 476.87890625 C-132.57448975 476.5746875 -133.65947754 476.27046875 -134.77734375 475.95703125 C-136.21968384 475.56994995 -136.21968384 475.56994995 -137.69116211 475.17504883 C-140.81236038 473.58656122 -140.9212587 472.30317739 -142 469 C-142.53939502 466.48433874 -143.02059982 463.99393571 -143.45053101 461.46008301 C-143.58261385 460.70820221 -143.71469669 459.95632142 -143.85078204 459.18165636 C-144.29163378 456.6643 -144.7246509 454.14565999 -145.15771484 451.62695312 C-145.47304065 449.81692956 -145.78884904 448.00699 -146.10510254 446.1971283 C-146.9660474 441.26197511 -147.8201987 436.32566714 -148.67319822 431.38913536 C-149.5791791 426.15298317 -150.49143116 420.91792365 -151.40298462 415.68273926 C-153.14256345 405.68648133 -154.87655082 395.68926183 -156.60854399 385.69168711 C-158.53122289 374.59488004 -160.45978727 363.49909901 -162.38903761 352.40343285 C-164.82226122 338.40918135 -167.25441909 324.41474801 -169.68011475 310.41918945 C-170.40488172 306.23778855 -171.1296661 302.05639066 -171.85449219 297.875 C-172.11895999 296.34929917 -172.11895999 296.34929917 -172.38877058 294.79277611 C-174.68917352 281.5245684 -177.00184408 268.25858093 -179.32961059 254.99514675 C-179.77060731 252.48146413 -180.21105525 249.96768608 -180.65126228 247.45386505 C-180.79172065 246.65177219 -180.93217901 245.84967933 -181.07689369 245.02328062 C-181.35329359 243.44474513 -181.62966552 241.86620473 -181.90600789 240.28765917 C-182.68743314 235.82591001 -183.4725335 231.36482844 -184.26054859 226.9042387 C-184.619964 224.86605458 -184.97748673 222.8275497 -185.33413315 220.78887939 C-185.759551 218.35731092 -186.18802592 215.92627431 -186.62027359 213.49591064 C-186.80436657 212.438255 -186.98845955 211.38059937 -187.1781311 210.29089355 C-187.3381492 209.38236382 -187.4981673 208.47383408 -187.66303444 207.53777313 C-188.55548113 200.81653069 -188.55548113 200.81653069 -186.82592773 198.27416992 C-186.28395752 197.76474854 -185.7419873 197.25532715 -185.18359375 196.73046875 C-184.28954834 195.86832764 -184.28954834 195.86832764 -183.37744141 194.98876953 C-182.41717041 194.09714111 -182.41717041 194.09714111 -181.4375 193.1875 C-180.14013253 191.94066669 -178.84453926 190.69198447 -177.55078125 189.44140625 C-176.93025879 188.84602051 -176.30973633 188.25063477 -175.67041016 187.63720703 C-173.13849081 185.15561522 -170.85903925 182.49183028 -168.5703125 179.7890625 C-166.17052913 177.05498094 -163.55590322 174.54736728 -160.96484375 171.99609375 C-159.07769256 170.07892823 -157.31314625 168.10424678 -155.5625 166.0625 C-152.99334729 163.07198284 -150.30682744 160.26883316 -147.5 157.5 C-144.71378859 154.7514401 -142.04691608 151.97140209 -139.5 149 C-136.24835372 145.20641267 -132.74286906 141.72607353 -129.1875 138.21875 C-127.20279658 136.20569368 -125.33903084 134.14553597 -123.5 132 C-120.24835372 128.20641267 -116.74286906 124.72607353 -113.1875 121.21875 C-111.20279658 119.20569368 -109.33903084 117.14553597 -107.5 115 C-104.24955349 111.20781241 -100.74550431 107.72864469 -97.19140625 104.22265625 C-94.57898932 101.5729856 -92.16697379 98.78827197 -89.74609375 95.96484375 C-87.27396582 93.18300852 -84.61569453 90.60624049 -81.96484375 87.99609375 C-80.07769256 86.07892823 -78.31314625 84.10424678 -76.5625 82.0625 C-73.99334729 79.07198284 -71.30682744 76.26883316 -68.5 73.5 C-65.71378859 70.7514401 -63.04691608 67.97140209 -60.5 65 C-57.24835372 61.20641267 -53.74286906 57.72607353 -50.1875 54.21875 C-48.20279658 52.20569368 -46.33903084 50.14553597 -44.5 48 C-41.24835372 44.20641267 -37.74286906 40.72607353 -34.1875 37.21875 C-32.20279658 35.20569368 -30.33903084 33.14553597 -28.5 31 C-25.24955349 27.20781241 -21.74550431 23.72864469 -18.19140625 20.22265625 C-15.58664308 17.5807485 -13.18054747 14.80583885 -10.76953125 11.98828125 C-8.17931928 9.07786647 -5.39843912 6.3745491 -2.6015625 3.6640625 C-0.91371276 2.07577267 -0.91371276 2.07577267 0 0 Z " fill="#67EAF1" transform="translate(188,0)"/>
<path d="M0 0 C6.11461891 0.67190719 11.7915493 2.25800919 17.67578125 4.01953125 C18.68215134 4.31937424 19.68852142 4.61921722 20.72538757 4.92814636 C22.84163871 5.56158676 24.95700783 6.19798056 27.0715332 6.8371582 C30.31493803 7.8132337 33.56439429 8.76705485 36.81445312 9.72070312 C38.87280619 10.33978309 40.93076368 10.96018013 42.98828125 11.58203125 C44.44914909 12.00570732 44.44914909 12.00570732 45.93952942 12.4379425 C47.28684395 12.85308357 47.28684395 12.85308357 48.66137695 13.27661133 C49.84882256 13.6318261 49.84882256 13.6318261 51.06025696 13.99421692 C53.65628157 15.3402909 53.91354137 16.26876317 55 19 C55.61112397 21.8179928 56.14758424 24.60752475 56.62930298 27.44760132 C56.78054229 28.30877741 56.9317816 29.16995349 57.08760393 30.05722582 C57.59388083 32.94908262 58.09109212 35.8424246 58.58837891 38.73583984 C58.94953033 40.80964459 59.31123851 42.88335244 59.67346191 44.95697021 C60.65885777 50.60742803 61.63641784 56.25921706 62.61264086 61.91126585 C63.642691 67.86697668 64.67993465 73.82143441 65.71640015 79.77603149 C67.68808121 91.10999739 69.65331036 102.44507218 71.61624181 113.78055632 C73.81784502 126.49256631 76.02637451 139.20336937 78.23562741 151.91405177 C80.9433934 167.49339327 83.64994084 183.07294537 86.35122681 198.65341187 C86.54246821 199.75627309 86.7337096 200.85913431 86.9307462 201.99541557 C87.86689851 207.39475844 88.80226451 212.79423553 89.73612404 218.19397545 C91.39512935 227.78160165 93.06120803 237.36780874 94.75566304 246.94924247 C95.51396537 251.23795028 96.26883464 255.52725967 97.02362514 259.81658673 C97.37993313 261.83495957 97.73807544 263.85300957 98.09817624 265.87070918 C98.5923866 268.6400484 99.08043838 271.41040946 99.56723022 274.18106079 C99.71353811 274.99087284 99.859846 275.8006849 100.01058745 276.63503671 C101.91945745 287.59731756 101.91945745 287.59731756 99.73413086 290.93115234 C98.85833374 291.750271 98.85833374 291.750271 97.96484375 292.5859375 C97.32369629 293.20259277 96.68254883 293.81924805 96.02197266 294.45458984 C94.99015869 295.40519287 94.99015869 295.40519287 93.9375 296.375 C92.54645422 297.7065358 91.15710645 299.03984795 89.76953125 300.375 C89.10775879 301.00535156 88.44598633 301.63570313 87.76416016 302.28515625 C85.20100732 304.77665716 82.90458659 307.45148973 80.6015625 310.1796875 C77.94932172 313.19418555 75.04863578 315.95879076 72.19140625 318.77734375 C69.57898932 321.4270144 67.16697379 324.21172803 64.74609375 327.03515625 C62.27396582 329.81699148 59.61569453 332.39375951 56.96484375 335.00390625 C55.07769256 336.92107177 53.31314625 338.89575322 51.5625 340.9375 C48.99334729 343.92801716 46.30682744 346.73116684 43.5 349.5 C40.71378859 352.2485599 38.04691608 355.02859791 35.5 358 C32.24835372 361.79358733 28.74286906 365.27392647 25.1875 368.78125 C23.20279658 370.79430632 21.33903084 372.85446403 19.5 375 C16.24835372 378.79358733 12.74286906 382.27392647 9.1875 385.78125 C7.20279658 387.79430632 5.33903084 389.85446403 3.5 392 C0.24955349 395.79218759 -3.25449569 399.27135531 -6.80859375 402.77734375 C-9.42101068 405.4270144 -11.83302621 408.21172803 -14.25390625 411.03515625 C-16.72603418 413.81699148 -19.38430547 416.39375951 -22.03515625 419.00390625 C-23.92230744 420.92107177 -25.68685375 422.89575322 -27.4375 424.9375 C-30.00665271 427.92801716 -32.69317256 430.73116684 -35.5 433.5 C-38.28621141 436.2485599 -40.95308392 439.02859791 -43.5 442 C-46.75164628 445.79358733 -50.25713094 449.27392647 -53.8125 452.78125 C-55.79720342 454.79430632 -57.66096916 456.85446403 -59.5 459 C-62.75164628 462.79358733 -66.25713094 466.27392647 -69.8125 469.78125 C-72.35736037 472.36246552 -74.70688438 475.07188598 -77.06054688 477.82617188 C-79.19953317 480.22364594 -81.43865338 482.48654642 -83.71875 484.75 C-84.52248047 485.54921875 -85.32621094 486.3484375 -86.15429688 487.171875 C-87.06791992 488.07679688 -87.06791992 488.07679688 -88 489 C-110.60495827 482.89773987 -132.978427 476.02037923 -155.38238525 469.22607422 C-167.25663207 465.62522453 -179.13409016 462.03498856 -191.01171875 458.4453125 C-192.20672501 458.08409554 -193.40173126 457.72287857 -194.63294983 457.35071564 C-215.58737454 451.01790138 -236.55832166 444.74224582 -257.5428772 438.5100708 C-262.59737748 437.00871669 -267.65067093 435.50332746 -272.70385742 433.99755859 C-287.53525949 429.57991342 -302.37041471 425.17674113 -317.22466469 420.83643341 C-324.80576813 418.62086116 -332.38296404 416.39226016 -339.95764732 414.15483856 C-345.33173373 412.56853139 -350.71050667 410.9997037 -356.09354782 409.44407272 C-359.38301192 408.48889407 -362.66735504 407.51700493 -365.95045471 406.54019928 C-367.47432656 406.09055555 -369.00029187 405.6479398 -370.52836609 405.21279144 C-372.61230164 404.61833366 -374.68741847 403.99953493 -376.76220703 403.37402344 C-377.92559601 403.03417419 -379.08898499 402.69432495 -380.28762817 402.34417725 C-383 401 -383 401 -384.34124756 398.57522583 C-385.21006218 395.17881509 -385.90802505 391.77232481 -386.5078125 388.3203125 C-386.63815887 387.58932343 -386.76850525 386.85833435 -386.90280151 386.10519409 C-387.17600336 384.56425516 -387.44647011 383.02282909 -387.71435547 381.48095703 C-388.12272313 379.13806292 -388.54318357 376.79756504 -388.96484375 374.45703125 C-389.22990037 372.95325414 -389.49424657 371.4493516 -389.7578125 369.9453125 C-389.94526535 368.90747116 -389.94526535 368.90747116 -390.13650513 367.84866333 C-390.87749075 363.51993392 -391.1134172 359.38760505 -391 355 C-384.85784943 356.28308277 -378.85913298 357.84215494 -372.85400391 359.65673828 C-371.97876131 359.91839185 -371.10351871 360.18004541 -370.20175362 360.44962788 C-367.29244631 361.32018254 -364.38451788 362.19525355 -361.4765625 363.0703125 C-359.38194158 363.69804368 -357.28723304 364.32548256 -355.19244385 364.95265198 C-350.69233722 366.30060933 -346.19283057 367.65054471 -341.69378662 369.00204468 C-334.56909091 371.14226298 -327.44310377 373.27815759 -320.31689453 375.41333008 C-311.60220732 378.02474609 -302.887826 380.63717823 -294.17383385 383.25091267 C-271.60888629 390.01903516 -249.03896414 396.77051339 -226.46832085 403.51961517 C-219.47563064 405.61058983 -212.48313317 407.70220712 -205.4908371 409.7944994 C-201.12137986 411.10191588 -196.75182739 412.40901387 -192.38225555 413.71604729 C-190.37343265 414.31699774 -188.36464696 414.91807264 -186.35590363 415.51928902 C-185.41573143 415.8006716 -184.47555923 416.08205418 -183.50689697 416.3719635 C-182.59345772 416.64546977 -181.68001846 416.91897604 -180.73889923 417.20077038 C-178.9783281 417.72664988 -177.2171715 418.25057416 -175.45537567 418.77233601 C-171.30537918 420.00207115 -167.16760833 421.25779315 -163.04449463 422.57510376 C-162.26268892 422.81957906 -161.48088322 423.06405436 -160.67538643 423.315938 C-159.21656708 423.77277351 -157.76119027 424.24081944 -156.31031609 424.7222929 C-153.49165854 425.59390726 -151.57336885 426.17966046 -148.70944214 425.28227234 C-145.96245471 423.22172526 -143.57880423 420.82656705 -141.1875 418.375 C-140.65342529 417.83447998 -140.11935059 417.29395996 -139.5690918 416.73706055 C-136.14339178 413.2447916 -132.87765366 409.65184116 -129.70703125 405.92578125 C-127.009003 402.88201025 -124.08202267 400.0741575 -121.1875 397.21875 C-119.20279658 395.20569368 -117.33903084 393.14553597 -115.5 391 C-112.24955349 387.20781241 -108.74550431 383.72864469 -105.19140625 380.22265625 C-102.57898932 377.5729856 -100.16697379 374.78827197 -97.74609375 371.96484375 C-95.27396582 369.18300852 -92.61569453 366.60624049 -89.96484375 363.99609375 C-88.07769256 362.07892823 -86.31314625 360.10424678 -84.5625 358.0625 C-81.99334729 355.07198284 -79.30682744 352.26883316 -76.5 349.5 C-73.71378859 346.7514401 -71.04691608 343.97140209 -68.5 341 C-65.24835372 337.20641267 -61.74286906 333.72607353 -58.1875 330.21875 C-56.20279658 328.20569368 -54.33903084 326.14553597 -52.5 324 C-49.24835372 320.20641267 -45.74286906 316.72607353 -42.1875 313.21875 C-40.20279658 311.20569368 -38.33903084 309.14553597 -36.5 307 C-33.24955349 303.20781241 -29.74550431 299.72864469 -26.19140625 296.22265625 C-23.57898932 293.5729856 -21.16697379 290.78827197 -18.74609375 287.96484375 C-16.27396582 285.18300852 -13.61569453 282.60624049 -10.96484375 279.99609375 C-9.07769256 278.07892823 -7.31314625 276.10424678 -5.5625 274.0625 C-2.99334729 271.07198284 -0.30682744 268.26883316 2.5 265.5 C5.28621141 262.7514401 7.95308392 259.97140209 10.5 257 C13.75164628 253.20641267 17.25713094 249.72607353 20.8125 246.21875 C23.36633987 243.6284267 25.73195108 240.92337228 28.05728245 238.12778664 C30 236 30 236 32.33992672 234.0549984 C37.19852045 230.00224343 37.19852045 230.00224343 39.49473763 224.32048416 C39.29898197 221.19673192 38.80192686 218.27789672 38.16430664 215.21337891 C37.96669204 214.05931864 37.76907743 212.90525837 37.56547451 211.71622658 C37.01165692 208.54259617 36.41296433 205.38149432 35.79375458 202.22010136 C35.1430875 198.83862126 34.5520051 195.44671271 33.95397949 192.05560303 C32.9221668 186.25081477 31.85405705 180.45371352 30.76004028 174.66033936 C29.19634806 166.37867556 27.68965092 158.08747353 26.19892395 149.7924006 C24.01953417 137.66911843 21.81001212 125.55166352 19.57273209 113.4389379 C15.62382215 92.05787242 11.84645952 70.64800749 8.11041927 49.2287426 C6.92639937 42.44301984 5.72956654 35.65965755 4.52563477 28.87744141 C4.06005385 26.24917319 3.59465852 23.62087217 3.12931824 20.99256134 C2.84133419 19.36879153 2.552539 17.74516533 2.26286316 16.12169647 C1.87420392 13.94269507 1.48861563 11.76317192 1.10375977 9.58349609 C0.78146141 7.77031387 0.78146141 7.77031387 0.45265198 5.92050171 C0 3 0 3 0 0 Z " fill="#08AAB8" transform="translate(492,134)"/>
<path d="M0 0 C9.41797881 1.62966089 18.43373973 4.41499796 27.55859375 7.1953125 C29.33419035 7.7324252 31.10992585 8.26907892 32.88578796 8.80531311 C36.71738214 9.96314465 40.54812766 11.12372761 44.37823486 12.28646851 C53.77272452 15.13814234 63.17167406 17.97506788 72.57009125 20.81376457 C75.89809988 21.819112 79.22594175 22.82501008 82.55377197 23.83094788 C105.14383499 30.65738375 127.75403453 37.41606893 150.36621094 44.16882324 C184.39784125 54.33223024 218.42694046 64.50440638 252.44158936 74.72451782 C256.0780119 75.81699176 259.71494577 76.9077368 263.35235596 77.99691772 C267.53931726 79.25072627 271.72523273 80.50796281 275.91031456 81.76803017 C277.42697477 82.22404738 278.94400613 82.67883235 280.46143532 83.13228416 C282.51691213 83.74674995 284.57098504 84.36570003 286.62475586 84.98583984 C288.33906044 85.50058365 288.33906044 85.50058365 290.08799744 86.02572632 C294.9718596 87.65972844 294.9718596 87.65972844 297 89 C297.88825625 91.91459082 298.49644626 94.57673604 299 97.5625 C299.15952148 98.42842773 299.31904297 99.29435547 299.48339844 100.18652344 C300.01394907 103.12058219 300.51124263 106.05869503 301 109 C301.18626953 110.11938965 301.37253906 111.2387793 301.56445312 112.39208984 C302.75093386 119.58839716 303.89285243 126.79108094 305 134 C298.7641725 132.67839719 292.68472999 131.10573357 286.58422852 129.26391602 C285.682016 128.99433012 284.77980349 128.72474422 283.8502512 128.44698906 C280.85888789 127.55231931 277.86890439 126.6531269 274.87890625 125.75390625 C272.73810869 125.11260645 270.59722733 124.47158636 268.45626831 123.83082581 C262.68921131 122.10396309 256.92333623 120.37318458 251.15766525 118.64170074 C245.13389426 116.8334784 239.10899909 115.02900954 233.08422852 113.22412109 C219.56611386 109.1735964 206.04957726 105.1178233 192.53346252 101.0606308 C187.99954231 99.69969506 183.46555728 98.33897537 178.93156719 96.97827244 C175.72490306 96.01591273 172.51825023 95.05351537 169.31159973 94.09111023 C165.19418105 92.85536623 161.07673747 91.61970522 156.95927429 90.3841095 C154.9616986 89.78464358 152.96412473 89.1851716 150.96655273 88.58569336 C149.9962144 88.29449395 149.02587606 88.00329454 148.02613354 87.70327091 C140.66166711 85.49295692 133.29801193 83.27994981 125.93451023 81.06642437 C119.33336804 79.08276857 112.72967138 77.10773884 106.12502956 75.13576984 C101.26837355 73.68398276 96.41681163 72.21630482 91.56816387 70.73800087 C88.39383261 69.77215826 85.21681007 68.81539749 82.03917122 67.86050034 C80.55458563 67.41208942 79.07119955 66.95968482 77.58913994 66.50299454 C75.56381314 65.87934885 73.53472015 65.26989198 71.50415039 64.66357422 C69.79286705 64.14305984 69.79286705 64.14305984 68.04701233 63.61203003 C64.89330414 62.97856882 63.038313 63.00622829 60 64 C57.73156389 66.0018865 57.73156389 66.0018865 55.6875 68.5625 C52.84602495 71.87519811 49.99760817 75.07515164 46.875 78.125 C44.31671251 80.64292003 41.89980342 83.21333257 39.5625 85.9375 C36.28869347 89.74824063 32.76636029 93.25078165 29.19140625 96.77734375 C26.57898932 99.4270144 24.16697379 102.21172803 21.74609375 105.03515625 C19.27396582 107.81699148 16.61569453 110.39375951 13.96484375 113.00390625 C12.07769256 114.92107177 10.31314625 116.89575322 8.5625 118.9375 C5.99334729 121.92801716 3.30682744 124.73116684 0.5 127.5 C-2.28621141 130.2485599 -4.95308392 133.02859791 -7.5 136 C-10.75164628 139.79358733 -14.25713094 143.27392647 -17.8125 146.78125 C-19.79720342 148.79430632 -21.66096916 150.85446403 -23.5 153 C-26.75164628 156.79358733 -30.25713094 160.27392647 -33.8125 163.78125 C-35.79720342 165.79430632 -37.66096916 167.85446403 -39.5 170 C-42.75044651 173.79218759 -46.25449569 177.27135531 -49.80859375 180.77734375 C-52.42101068 183.4270144 -54.83302621 186.21172803 -57.25390625 189.03515625 C-59.72603418 191.81699148 -62.38430547 194.39375951 -65.03515625 197.00390625 C-66.92230744 198.92107177 -68.68685375 200.89575322 -70.4375 202.9375 C-73.00665271 205.92801716 -75.69317256 208.73116684 -78.5 211.5 C-81.28621141 214.2485599 -83.95308392 217.02859791 -86.5 220 C-89.75164628 223.79358733 -93.25713094 227.27392647 -96.8125 230.78125 C-98.79720342 232.79430632 -100.66096916 234.85446403 -102.5 237 C-105.74564737 240.7865886 -109.24395347 244.26107165 -112.79296875 247.76171875 C-115.45631958 250.46278074 -117.94018915 253.28511166 -120.39453125 256.17578125 C-122 258 -122 258 -124.14073277 259.69630623 C-126.31420742 261.90150461 -126.31420742 261.90150461 -126.0277319 265.04455376 C-125.80531606 266.24534632 -125.58290022 267.44613888 -125.35374451 268.68331909 C-125.23648471 269.35292514 -125.1192249 270.02253119 -124.99841177 270.71242833 C-124.59999659 272.95831239 -124.16974952 275.19693151 -123.73999023 277.43701172 C-123.4485932 279.04734826 -123.15950405 280.65810388 -122.87255764 282.26923943 C-122.25420495 285.72444317 -121.62370391 289.17712739 -120.9846611 292.62856293 C-120.00614935 297.93413307 -119.07635423 303.24737665 -118.16018677 308.56402588 C-117.93056935 309.89547966 -117.93056935 309.89547966 -117.6963132 311.25383151 C-117.38227622 313.07490261 -117.06828442 314.8959815 -116.75433648 316.71706796 C-115.93105467 321.47791338 -115.09700668 326.23686884 -114.26319885 330.99588013 C-112.8258523 339.20300089 -111.39095943 347.41054341 -109.95909119 355.61862183 C-109.58353153 357.77129557 -109.20797172 359.92396929 -108.83241177 362.07664299 C-108.64486572 363.15166376 -108.45731968 364.22668453 -108.26409042 365.33428168 C-105.74484233 379.77353789 -103.22308258 394.21234914 -100.6940918 408.64990234 C-98.97121328 418.48565805 -97.25292366 428.32220318 -95.53997701 438.1596936 C-94.63759384 443.34096979 -93.73281574 448.52180251 -92.82234383 453.70166397 C-91.97212678 458.5388422 -91.12789397 463.37702523 -90.28837967 468.21607208 C-89.97902988 469.99270249 -89.6674186 471.76894076 -89.35343361 473.54475784 C-88.92701045 475.95837464 -88.50856479 478.37323947 -88.09217834 480.78860474 C-87.96495693 481.49750292 -87.83773551 482.2064011 -87.7066589 482.93678105 C-86.88588115 487.7717623 -86.88588115 487.7717623 -88 490 C-88.61593018 489.79955078 -89.23186035 489.59910156 -89.86645508 489.39257812 C-92.84732896 488.42482962 -95.82983509 487.46221421 -98.8125 486.5 C-99.91859619 486.14123779 -101.02469238 485.78247559 -102.16430664 485.4128418 C-108.28148991 483.44665024 -114.4092938 481.57964254 -120.6015625 479.86328125 C-122.44077271 479.34701172 -122.44077271 479.34701172 -124.31713867 478.8203125 C-126.70323474 478.15608669 -129.09404014 477.50851969 -131.48950195 476.87890625 C-132.57448975 476.5746875 -133.65947754 476.27046875 -134.77734375 475.95703125 C-136.21968384 475.56994995 -136.21968384 475.56994995 -137.69116211 475.17504883 C-140.81236038 473.58656122 -140.9212587 472.30317739 -142 469 C-142.53939502 466.48433874 -143.02059982 463.99393571 -143.45053101 461.46008301 C-143.58261385 460.70820221 -143.71469669 459.95632142 -143.85078204 459.18165636 C-144.29163378 456.6643 -144.7246509 454.14565999 -145.15771484 451.62695312 C-145.47304065 449.81692956 -145.78884904 448.00699 -146.10510254 446.1971283 C-146.9660474 441.26197511 -147.8201987 436.32566714 -148.67319822 431.38913536 C-149.5791791 426.15298317 -150.49143116 420.91792365 -151.40298462 415.68273926 C-153.14256345 405.68648133 -154.87655082 395.68926183 -156.60854399 385.69168711 C-158.53122289 374.59488004 -160.45978727 363.49909901 -162.38903761 352.40343285 C-164.82226122 338.40918135 -167.25441909 324.41474801 -169.68011475 310.41918945 C-170.40488172 306.23778855 -171.1296661 302.05639066 -171.85449219 297.875 C-172.11895999 296.34929917 -172.11895999 296.34929917 -172.38877058 294.79277611 C-174.68917352 281.5245684 -177.00184408 268.25858093 -179.32961059 254.99514675 C-179.77060731 252.48146413 -180.21105525 249.96768608 -180.65126228 247.45386505 C-180.79172065 246.65177219 -180.93217901 245.84967933 -181.07689369 245.02328062 C-181.35329359 243.44474513 -181.62966552 241.86620473 -181.90600789 240.28765917 C-182.68743314 235.82591001 -183.4725335 231.36482844 -184.26054859 226.9042387 C-184.619964 224.86605458 -184.97748673 222.8275497 -185.33413315 220.78887939 C-185.759551 218.35731092 -186.18802592 215.92627431 -186.62027359 213.49591064 C-186.80436657 212.438255 -186.98845955 211.38059937 -187.1781311 210.29089355 C-187.3381492 209.38236382 -187.4981673 208.47383408 -187.66303444 207.53777313 C-188.55548113 200.81653069 -188.55548113 200.81653069 -186.82592773 198.27416992 C-186.28395752 197.76474854 -185.7419873 197.25532715 -185.18359375 196.73046875 C-184.28954834 195.86832764 -184.28954834 195.86832764 -183.37744141 194.98876953 C-182.41717041 194.09714111 -182.41717041 194.09714111 -181.4375 193.1875 C-180.14013253 191.94066669 -178.84453926 190.69198447 -177.55078125 189.44140625 C-176.93025879 188.84602051 -176.30973633 188.25063477 -175.67041016 187.63720703 C-173.13849081 185.15561522 -170.85903925 182.49183028 -168.5703125 179.7890625 C-166.17052913 177.05498094 -163.55590322 174.54736728 -160.96484375 171.99609375 C-159.07769256 170.07892823 -157.31314625 168.10424678 -155.5625 166.0625 C-152.99334729 163.07198284 -150.30682744 160.26883316 -147.5 157.5 C-144.71378859 154.7514401 -142.04691608 151.97140209 -139.5 149 C-136.24835372 145.20641267 -132.74286906 141.72607353 -129.1875 138.21875 C-127.20279658 136.20569368 -125.33903084 134.14553597 -123.5 132 C-120.24835372 128.20641267 -116.74286906 124.72607353 -113.1875 121.21875 C-111.20279658 119.20569368 -109.33903084 117.14553597 -107.5 115 C-104.24955349 111.20781241 -100.74550431 107.72864469 -97.19140625 104.22265625 C-94.57898932 101.5729856 -92.16697379 98.78827197 -89.74609375 95.96484375 C-87.27396582 93.18300852 -84.61569453 90.60624049 -81.96484375 87.99609375 C-80.07769256 86.07892823 -78.31314625 84.10424678 -76.5625 82.0625 C-73.99334729 79.07198284 -71.30682744 76.26883316 -68.5 73.5 C-65.71378859 70.7514401 -63.04691608 67.97140209 -60.5 65 C-57.24835372 61.20641267 -53.74286906 57.72607353 -50.1875 54.21875 C-48.20279658 52.20569368 -46.33903084 50.14553597 -44.5 48 C-41.24835372 44.20641267 -37.74286906 40.72607353 -34.1875 37.21875 C-32.20279658 35.20569368 -30.33903084 33.14553597 -28.5 31 C-25.24955349 27.20781241 -21.74550431 23.72864469 -18.19140625 20.22265625 C-15.58664308 17.5807485 -13.18054747 14.80583885 -10.76953125 11.98828125 C-8.17931928 9.07786647 -5.39843912 6.3745491 -2.6015625 3.6640625 C-0.91371276 2.07577267 -0.91371276 2.07577267 0 0 Z " fill="#48B9C9" transform="translate(188,0)"/>
<path d="M0 0 C18.15 0 36.3 0 55 0 C56.32 7.26 57.64 14.52 59 22 C60.85566184 30.24471517 60.85566184 30.24471517 62.80639648 38.46337891 C63.04075409 39.42350891 63.27511169 40.38363892 63.51657104 41.37286377 C63.87961838 42.8589212 63.87961838 42.8589212 64.25 44.375 C64.76340326 46.49781133 65.27649586 48.62069781 65.78930664 50.74365234 C68.8542607 63.39134939 71.99753528 76.01905452 75.16796875 88.640625 C75.52562915 90.06560148 75.88328499 91.4905791 76.24093628 92.91555786 C77.81281478 99.1753733 79.38785141 105.4343232 80.97698402 111.6897831 C85.04660411 127.72221004 88.78741928 143.77335534 92 160 C92.37785238 161.890201 92.75601428 163.78034017 93.13452148 165.67041016 C93.42304927 167.11359978 93.71155579 168.55679367 94 170 C94.10615631 169.36483459 94.21231262 168.72966919 94.32168579 168.07525635 C99.68730333 136.24189354 109.07200672 105.23394028 117.75 74.1875 C127.63184742 39.44459489 127.63184742 39.44459489 134.4921875 4.015625 C135 1 135 1 136 0 C137.49870048 -0.09831146 139.00198539 -0.12798456 140.50390625 -0.12939453 C141.94044556 -0.13412277 141.94044556 -0.13412277 143.40600586 -0.13894653 C144.44764893 -0.1369223 145.48929199 -0.13489807 146.5625 -0.1328125 C147.62412354 -0.13376923 148.68574707 -0.13472595 149.77954102 -0.13571167 C152.02913472 -0.13639364 154.27873037 -0.13453819 156.52832031 -0.13037109 C159.98507071 -0.1250231 163.44169117 -0.13031554 166.8984375 -0.13671875 C169.07812529 -0.13605797 171.257813 -0.13477682 173.4375 -0.1328125 C174.9999646 -0.13584885 174.9999646 -0.13584885 176.59399414 -0.13894653 C177.55168701 -0.13579437 178.50937988 -0.13264221 179.49609375 -0.12939453 C180.34357178 -0.12859894 181.1910498 -0.12780334 182.06420898 -0.12698364 C184 0 184 0 185 1 C185.29783756 2.34530062 185.54340888 3.70225302 185.76611328 5.06201172 C185.91281464 5.92649933 186.05951599 6.79098694 186.21066284 7.68167114 C186.37059723 8.62976654 186.53053162 9.57786194 186.6953125 10.5546875 C188.86357972 22.89543636 191.78771311 34.98681014 194.875 47.125 C195.4438225 49.38351027 196.01250418 51.64205601 196.58105469 53.90063477 C200.91734615 71.05261965 205.49761599 88.13564704 210.13894653 105.20718384 C214.03285295 119.5361065 217.80818561 133.88298095 221.3125 148.3125 C221.49985718 149.08012665 221.68721436 149.8477533 221.88024902 150.63864136 C223.52665775 157.40521144 225.04444781 164.09374965 226 171 C226.15706421 170.18507584 226.31412842 169.37015167 226.47595215 168.53053284 C229.85105155 151.19441972 233.60702643 134.00278084 238.03125 116.90234375 C238.25190125 116.04911152 238.47255249 115.19587929 238.69989014 114.31679153 C240.28831383 108.1873109 241.89289844 102.06210499 243.5 95.9375 C251.17275985 66.73344394 251.17275985 66.73344394 257.96875 37.31640625 C258.37136047 35.46848732 258.37136047 35.46848732 258.78210449 33.58323669 C261.11538531 22.40265273 262.44458331 11.40638904 264 0 C280.17 0 296.34 0 313 0 C313 6.31237412 312.33682163 10.89225788 310.8125 16.875 C310.55041748 17.90488037 310.28833496 18.93476074 310.01831055 19.99584961 C301.3748666 52.88062227 289.63503493 84.95864875 278.46360779 117.04071045 C272.55967085 133.99878027 266.72768842 150.98155132 261 168 C260.77074829 168.68090698 260.54149658 169.36181396 260.30529785 170.06335449 C254.76012059 186.56381015 250.028361 203.06022552 246 220 C230.82 220 215.64 220 200 220 C198.68 213.4 197.36 206.8 196 200 C194.88291292 195.60130839 193.72987215 191.28040017 192.4375 186.9375 C192.07454834 185.69766357 191.71159668 184.45782715 191.33764648 183.18041992 C186.83754264 167.98225083 181.82791753 152.9395216 176.93008423 137.86621094 C171.65650665 121.63338835 166.46243439 105.39767151 161.9375 88.9375 C161.73971954 88.22091217 161.54193909 87.50432434 161.33816528 86.76602173 C155.83657865 66.72144716 155.83657865 66.72144716 156 59 C155.34 59 154.68 59 154 59 C153.90130615 59.74411133 153.8026123 60.48822266 153.70092773 61.25488281 C152.3757711 70.57294608 150.34714398 79.63284881 148.0625 88.75 C147.85901947 89.56915894 147.65553894 90.38831787 147.44589233 91.2322998 C142.39126037 111.46419276 136.43626307 131.44897504 130.47007275 151.42703629 C126.44484168 164.90970603 122.5278922 178.39554515 119.10546875 192.046875 C118.69606804 193.67801239 118.69606804 193.67801239 118.27839661 195.34210205 C116.26795107 203.53303578 114.65802359 211.70988204 113 220 C97.49 220 81.98 220 66 220 C64.02 210.1 64.02 210.1 62 200 C60.72159289 195.07983193 59.40065544 190.23658544 57.9375 185.375 C57.73668823 184.69978302 57.53587646 184.02456604 57.32897949 183.32888794 C47.62618419 150.75594227 36.66861517 118.51388739 25.625 86.375 C0 11.79542619 0 11.79542619 0 0 Z " fill="#E36F33" transform="translate(131,236)"/>
</svg>
