<?xml version="1.0" encoding="UTF-8"?>
<svg xmlns="http://www.w3.org/2000/svg" xmlns:xlink="http://www.w3.org/1999/xlink" width="80px" height="80px" viewBox="0 0 80 80" version="1.1">
<g id="surface1">
<path style=" stroke:none;fill-rule:evenodd;fill:rgb(92.54902%,51.372552%,20.392157%);fill-opacity:1;" d="M 53.414062 18.027344 C 53.304688 18.660156 51.964844 26.605469 50.4375 35.6875 C 48.914062 44.769531 47.613281 52.25 47.546875 52.3125 C 47.484375 52.371094 40.992188 55.125 33.121094 58.433594 C 25.246094 61.742188 18.742188 64.507812 18.660156 64.582031 C 18.535156 64.695312 29.902344 74.035156 30.953125 74.683594 C 31.226562 74.851562 32.992188 74.214844 40.917969 71.085938 C 46.214844 68.992188 50.675781 67.289062 50.824219 67.296875 C 50.976562 67.304688 57.125 69.136719 64.484375 71.367188 C 71.84375 73.597656 77.921875 75.398438 77.992188 75.371094 C 78.058594 75.34375 74.414062 70.421875 69.890625 64.4375 C 62.78125 55.03125 61.679688 53.484375 61.761719 53.0625 C 61.980469 51.925781 66.386719 25.960938 66.359375 25.949219 C 66.34375 25.941406 63.503906 23.898438 60.046875 21.40625 C 56.589844 18.917969 53.730469 16.878906 53.691406 16.878906 C 53.648438 16.878906 53.527344 17.398438 53.414062 18.027344 "/>
<path style=" stroke:none;fill-rule:evenodd;fill:rgb(10.588235%,42.352942%,76.078433%);fill-opacity:1;" d="M 22.292969 10.34375 L 5.78125 16.804688 L 5.644531 17.4375 C 5.484375 18.191406 3.25 51.820312 3.335938 52.191406 C 3.367188 52.332031 6.242188 54.605469 9.722656 57.242188 C 15.03125 61.269531 16.070312 61.988281 16.171875 61.707031 C 16.242188 61.527344 16.808594 53.53125 17.4375 43.945312 C 18.0625 34.359375 18.585938 26.5 18.597656 26.484375 C 18.613281 26.46875 26.117188 23.585938 35.273438 20.078125 C 44.433594 16.574219 51.925781 13.648438 51.925781 13.578125 C 51.925781 13.367188 39.304688 3.851562 39.046875 3.871094 C 38.914062 3.878906 31.375 6.792969 22.292969 10.34375 "/>
</g>
</svg>
