<?xml version="1.0" encoding="UTF-8"?>
<svg version="1.1" xmlns="http://www.w3.org/2000/svg" width="772" height="772">
<path d="M0 0 C6.19908426 0.31509158 12.03389109 1.92663143 18 3.5625 C18.87011719 3.79646484 19.74023438 4.03042969 20.63671875 4.27148438 C22.75914728 4.84290744 24.88013594 5.41914957 27 6 C27 6.66 27 7.32 27 8 C28.010625 8.0825 29.02125 8.165 30.0625 8.25 C38.13917194 9.25778438 46.3306978 11.54862529 53.91015625 14.4765625 C58.17944076 16.11700273 62.52098231 17.32478928 66.9375 18.5 C71.48209221 19.71555098 75.98445043 20.96704705 80.4375 22.48828125 C85.25459618 24.12455307 90.13680566 25.42263978 95.0625 26.6875 C95.92810547 26.91244141 96.79371094 27.13738281 97.68554688 27.36914062 C99.78965238 27.91551056 101.89472496 28.45815403 104 29 C104 29.66 104 30.32 104 31 C104.99128906 31.12632813 105.98257812 31.25265625 107.00390625 31.3828125 C111.04380367 31.96182722 114.98325636 32.87595291 118.9375 33.875 C119.60201172 34.03613281 120.26652344 34.19726562 120.95117188 34.36328125 C125.07736351 35.39582969 128.98010796 36.71563684 132.9440918 38.25048828 C136.54299725 39.56252245 140.23815515 40.51562498 143.9375 41.5 C148.48209221 42.71555098 152.98445043 43.96704705 157.4375 45.48828125 C162.25459618 47.12455307 167.13680566 48.42263978 172.0625 49.6875 C172.92810547 49.91244141 173.79371094 50.13738281 174.68554688 50.36914062 C176.78965238 50.91551056 178.89472496 51.45815403 181 52 C181 52.66 181 53.32 181 54 C181.99 54.12632813 182.98 54.25265625 184 54.3828125 C188.06828712 54.9660428 192.01631631 55.87526329 196 56.875 C196.67289062 57.03613281 197.34578125 57.19726562 198.0390625 57.36328125 C201.33557965 58.18422857 204.280805 59.12144655 207.4140625 60.4765625 C211.66064046 62.28066425 215.9059828 63.39345421 220.375 64.5 C225.91252029 65.88438007 231.33098418 67.40306404 236.73242188 69.25048828 C240.63494511 70.54040498 244.5977738 71.60739764 248.5625 72.6875 C249.38041016 72.91244141 250.19832031 73.13738281 251.04101562 73.36914062 C253.02674949 73.91492713 255.01328927 74.45778014 257 75 C257 75.66 257 76.32 257 77 C258.010625 77.0825 259.02125 77.165 260.0625 77.25 C268.12517871 78.25603834 276.31602451 80.53361142 283.875 83.4765625 C288.329025 85.18840285 292.8744621 86.34918399 297.5 87.5 C302.8277976 88.82553552 307.94957019 90.2919966 313.06640625 92.28613281 C316.2422323 93.45862213 319.47256348 94.27554196 322.75 95.125 C324.02359375 95.45757812 325.2971875 95.79015625 326.609375 96.1328125 C329.07124446 96.76246114 331.53331673 97.38955818 334 98 C334 98.66 334 99.32 334 100 C335.11375 100.0825 336.2275 100.165 337.375 100.25 C341 101 341 101 342.375 102.625 C343.18968168 105.72079039 343.56274707 108.82991627 344 112 C344.3182373 112.93593994 344.63647461 113.87187988 344.96435547 114.83618164 C345.99800132 117.99389418 346.58150522 120.9630635 347.0703125 124.24609375 C347.24433594 125.41333984 347.41835938 126.58058594 347.59765625 127.78320312 C347.77167969 128.98912109 347.94570313 130.19503906 348.125 131.4375 C348.39763672 133.24057617 348.39763672 133.24057617 348.67578125 135.08007812 C349.51019131 140.76724143 350.25406204 146.24972918 350 152 C354.10883347 153.76886074 358.30254414 154.952338 362.625 156.0625 C369.69377729 157.89792576 369.69377729 157.89792576 373 159 C373 159.66 373 160.32 373 161 C374.010625 161.0825 375.02125 161.165 376.0625 161.25 C385.58867454 162.43864923 395.12375003 165.41835528 404 169 C405.49860787 169.56619847 406.99860963 170.12872167 408.5 170.6875 C409.655 171.120625 410.81 171.55375 412 172 C412 173.32 412 174.64 412 176 C412.66 176 413.32 176 414 176 C414.17128418 177.14476807 414.34256836 178.28953613 414.51904297 179.46899414 C415.1592475 183.73939719 415.80553656 188.00886133 416.45361328 192.27807617 C416.73260352 194.12157775 417.00997049 195.96532578 417.28564453 197.80932617 C417.68349588 200.46861056 418.0872879 203.12693702 418.4921875 205.78515625 C418.6131076 206.60210464 418.73402771 207.41905304 418.85861206 208.26075745 C419.58366038 212.97631033 420.6704248 217.41033273 422 222 C422.47210549 224.56600257 422.90611261 227.11298728 423.2890625 229.69140625 C423.39721283 230.39974106 423.50536316 231.10807587 423.61679077 231.83787537 C423.8424812 233.32411266 424.06589214 234.81069775 424.28710938 236.29760742 C424.62474841 238.5608136 424.97203585 240.82239357 425.3203125 243.08398438 C425.53964153 244.53637101 425.75841063 245.98884234 425.9765625 247.44140625 C426.07965729 248.11031387 426.18275208 248.7792215 426.28897095 249.46839905 C426.85849659 253.34621397 427.09914305 257.0823358 427 261 C427.66 261 428.32 261 429 261 C429.83649977 266.56839303 430.67267104 272.13683525 431.50854492 277.70532227 C431.79263544 279.59758826 432.07681394 281.48984105 432.36108398 283.38208008 C432.77090509 286.11015365 433.18040428 288.83827538 433.58984375 291.56640625 C433.71592514 292.40522842 433.84200653 293.2440506 433.97190857 294.10829163 C434.09195755 294.90859299 434.21200653 295.70889435 434.33569336 296.53344727 C434.50885574 297.67766647 434.50885574 297.67766647 434.68551636 298.84500122 C434.97051351 300.79794388 435.21895418 302.75613484 435.46313477 304.71459961 C435.90815713 307.98546831 435.90815713 307.98546831 436.98413086 310.9519043 C438.17228931 314.51695075 438.73701325 318.06308253 439.25390625 321.76953125 C439.35968491 322.49113937 439.46546356 323.2127475 439.57444763 323.95622253 C439.90897472 326.2409325 440.23642061 328.5265702 440.5625 330.8125 C440.89262922 333.11620169 441.22437582 335.41961237 441.56126404 337.72233582 C441.77013684 339.15071192 441.97505614 340.57967274 442.17567444 342.00923157 C442.42511588 345.28949753 442.42511588 345.28949753 444 348 C443.979375 348.70125 443.95875 349.4025 443.9375 350.125 C443.87839771 353.09286467 443.87839771 353.09286467 444.92553711 356.18798828 C446.01751459 360.06213879 446.69530649 363.89173559 447.25390625 367.8671875 C447.35968491 368.58738068 447.46546356 369.30757385 447.57444763 370.04959106 C447.90829289 372.32410009 448.23607232 374.59941543 448.5625 376.875 C448.89273128 379.17196868 449.22438695 381.46867503 449.56126404 383.76467896 C449.77001608 385.18750611 449.97493668 386.61090165 450.17567444 388.03488159 C450.42802821 391.30151143 450.42802821 391.30151143 452 394 C452 395.66666667 452 397.33333333 452 399 C452.33 399.33 452.66 399.66 453 400 C453.49315005 402.79293084 453.93285227 405.57699514 454.33984375 408.3828125 C454.46686172 409.23044159 454.5938797 410.07807068 454.7247467 410.9513855 C455.26970566 414.58807785 455.80523445 418.22613901 456.34057617 421.86425781 C456.7323401 424.51686099 457.12968056 427.1685883 457.52734375 429.8203125 C457.70401833 431.04102951 457.70401833 431.04102951 457.88426208 432.28640747 C458.5921109 436.99780765 459.66858465 441.41715591 461 446 C461.47007195 448.5332027 461.8977237 451.0745397 462.2890625 453.62109375 C462.39721283 454.32468521 462.50536316 455.02827667 462.61679077 455.75318909 C462.84252732 457.23102507 463.06593677 458.70921824 463.28710938 460.18774414 C463.62374722 462.42915868 463.97157095 464.66864382 464.3203125 466.90820312 C464.53974192 468.35406372 464.75851368 469.80002431 464.9765625 471.24609375 C465.17330566 472.54216553 465.37004883 473.8382373 465.57275391 475.17358398 C466.76825989 485.88053559 466.76825989 485.88053559 463.8125 490.1875 C462.884375 491.115625 461.95625 492.04375 461 493 C460.21625 493.825 459.4325 494.65 458.625 495.5 C456.58889227 497.43915022 454.54072185 499.21646436 452.375 501 C449.51085643 503.41353477 447.84836181 505.72335861 446 509 C443.53817974 511.66142731 441.05001144 513.96110221 438.1875 516.1875 C435.54152219 518.34693781 433.57577909 520.72880745 431.5 523.4375 C427.41195592 528.70705971 422.81630554 533.29477077 418.07104492 537.95996094 C414.46069529 541.5163522 411.04359936 545.14085848 407.76953125 549.01171875 C405.00069444 552.12284002 402.00956889 555.01071079 399.04614258 557.93432617 C395.82671196 561.12720934 392.83050187 564.4326039 389.8984375 567.88671875 C386.53498087 571.63081347 382.87656463 575.08653362 379.2578125 578.58203125 C376.81465629 580.86214236 376.81465629 580.86214236 376 584 C374.3603279 585.36639342 372.68889872 586.6949419 371 588 C368.31164749 590.55393489 365.87488743 593.15013508 363.5 596 C360.3908959 599.73092493 356.97392535 603.05042278 353.5 606.4375 C350.92746981 609.0074975 350.92746981 609.0074975 348.5 612 C346.12629001 614.84845198 343.62066306 617.37933694 341 620 C338.7444176 622.48607987 336.50944576 624.98935689 334.28125 627.5 C331.92636019 630.08070116 329.47025706 632.52974294 327 635 C324.73262994 637.40057805 322.49257929 639.82627636 320.25 642.25 C315.57592858 647.28544667 310.82810727 652.2124888 305.93359375 657.03515625 C304.07744347 658.92130492 302.34443143 660.86427665 300.625 662.875 C297.73785181 666.24557765 294.65752622 669.38503521 291.5 672.5 C287.8052381 676.14515945 284.30987661 679.88126505 280.94921875 683.8359375 C278.37187136 686.69736125 275.62395669 689.36707016 272.875 692.0625 C269.69733072 695.18149417 266.61989528 698.22755832 264.125 701.9375 C261.77751507 705.32064005 259.21748952 707.4528208 256 710 C255.13375 710.886875 254.2675 711.77375 253.375 712.6875 C251.15125466 714.85272572 249.87348574 715.96936278 247 717 C244.43457031 716.67626953 244.43457031 716.67626953 241.578125 715.8828125 C240.55332031 715.60566406 239.52851562 715.32851563 238.47265625 715.04296875 C237.40917969 714.74003906 236.34570312 714.43710937 235.25 714.125 C233.63158203 713.68220703 233.63158203 713.68220703 231.98046875 713.23046875 C229.31652403 712.49965206 226.65694979 711.75577995 224 711 C224 710.34 224 709.68 224 709 C222.989375 708.9175 221.97875 708.835 220.9375 708.75 C212.87638342 707.74415658 204.68559114 705.46806562 197.12890625 702.5234375 C191.87160365 700.5023789 186.43943078 699.2391569 180.97851562 697.89453125 C177.3429794 696.97317663 174.01520816 696.00658444 170.5625 694.51171875 C165.99798011 692.57480077 161.37606114 691.45957613 156.5625 690.3125 C155.64017578 690.08755859 154.71785156 689.86261719 153.76757812 689.63085938 C151.51297361 689.08181061 149.25718159 688.53833701 147 688 C147 687.34 147 686.68 147 686 C146.34515625 685.89042969 145.6903125 685.78085937 145.015625 685.66796875 C136.6120018 684.20801726 128.17673852 682.64265593 120.19921875 679.55859375 C115.87281504 677.90074579 111.47563982 676.68382964 107 675.5 C102.59988467 674.33614697 98.27542142 673.1545075 94.03125 671.5 C89.61113643 669.78884712 85.09445067 668.64308163 80.5 667.5 C75.17325846 666.17472723 70.06637757 664.69944812 64.95166016 662.70507812 C61.0374769 661.29099741 56.9642129 660.46123842 52.91210938 659.5390625 C49.61739783 658.75780923 46.71871743 657.87885195 43.58984375 656.53125 C39.34224224 654.71943304 35.09762468 653.60743902 30.625 652.5 C25.07504074 651.11251018 19.645901 649.58818319 14.23242188 647.73632812 C9.76536347 646.26294141 5.20628925 645.10371216 0.66210938 643.89453125 C-2.98531799 642.90465036 -6.53083586 641.83920848 -10.0546875 640.46875 C-14.63330932 638.6973302 -19.30980748 637.62645654 -24.08789062 636.5390625 C-27.38181072 635.7579969 -30.27865071 634.87984786 -33.40625 633.53125 C-37.67440179 631.7126462 -41.94262362 630.60676067 -46.4375 629.5 C-51.74407728 628.18711975 -56.83304237 626.73679993 -61.92602539 624.74951172 C-65.86973946 623.32429663 -69.93932861 622.34482122 -74 621.3125 C-74.87011719 621.08755859 -75.74023438 620.86261719 -76.63671875 620.63085938 C-78.75681493 620.08336201 -80.87826892 619.54112698 -83 619 C-83 618.34 -83 617.68 -83 617 C-85.64 616.67 -88.28 616.34 -91 616 C-91.66666667 614 -92.33333333 612 -93 610 C-93.32210449 609.13294434 -93.64420898 608.26588867 -93.97607422 607.37255859 C-95.25194227 603.1701644 -95.8859582 599.00440557 -96.5078125 594.6640625 C-96.63815887 593.78471039 -96.76850525 592.90535828 -96.90280151 591.99935913 C-97.31528629 589.20862679 -97.72024958 586.41686348 -98.125 583.625 C-98.4044509 581.72518724 -98.68439356 579.82544675 -98.96484375 577.92578125 C-99.64984744 573.28477989 -100.32465618 568.64245785 -101 564 C-111.89 561.03 -111.89 561.03 -123 558 C-123 557.34 -123 556.68 -123 556 C-124.485 555.81050781 -124.485 555.81050781 -126 555.6171875 C-130.06828712 555.0339572 -134.01631631 554.12473671 -138 553.125 C-138.67289062 552.96386719 -139.34578125 552.80273438 -140.0390625 552.63671875 C-144.58439321 551.50477346 -148.70906327 549.90989746 -153 548 C-154.63759187 547.41393987 -156.28243086 546.84721465 -157.9375 546.3125 C-159.09572266 545.93544922 -159.09572266 545.93544922 -160.27734375 545.55078125 C-160.84582031 545.36902344 -161.41429687 545.18726563 -162 545 C-162 543.35 -162 541.7 -162 540 C-162.66 540 -163.32 540 -164 540 C-164.17128418 538.85523193 -164.34256836 537.71046387 -164.51904297 536.53100586 C-165.1592475 532.26060281 -165.80553656 527.99113867 -166.45361328 523.72192383 C-166.73260352 521.87842225 -167.00997049 520.03467422 -167.28564453 518.19067383 C-167.68349588 515.53138944 -168.0872879 512.87306298 -168.4921875 510.21484375 C-168.6131076 509.39789536 -168.73402771 508.58094696 -168.85861206 507.73924255 C-169.39876275 504.22622269 -170.02589674 500.9093614 -171.00439453 497.48461914 C-172.1835268 493.35765621 -172.82580664 489.27291145 -173.4375 485.03125 C-173.56310303 484.1921106 -173.68870605 483.35297119 -173.81811523 482.48840332 C-174.35079394 478.92865948 -174.87265652 475.36735062 -175.39550781 471.80615234 C-175.78074851 469.19311151 -176.17150613 466.58093516 -176.5625 463.96875 C-176.677146 463.17376099 -176.79179199 462.37877197 -176.90991211 461.55969238 C-177.60795119 456.9005664 -178.68967639 452.53331013 -180 448 C-180.43672074 445.52530479 -180.82925526 443.04251499 -181.18359375 440.5546875 C-181.39127444 439.13281227 -181.59895678 437.71093727 -181.80664062 436.2890625 C-182.121678 434.09135395 -182.43488563 431.89339331 -182.74731445 429.6953125 C-183.92262445 421.47278066 -185.29953408 413.43902364 -187.25708008 405.35888672 C-188.73504766 398.67670532 -189.63936351 391.89404811 -190.625 385.125 C-190.84327752 383.65357567 -191.06202549 382.18222104 -191.28125 380.7109375 C-192.8956034 369.84633756 -192.8956034 369.84633756 -193.44287109 365.40966797 C-193.9015139 362.03443828 -193.9015139 362.03443828 -194.98413086 359.0480957 C-196.17228931 355.48304925 -196.73701325 351.93691747 -197.25390625 348.23046875 C-197.35968491 347.50886063 -197.46546356 346.7872525 -197.57444763 346.04377747 C-197.90897472 343.7590675 -198.23642061 341.4734298 -198.5625 339.1875 C-198.89262922 336.88379831 -199.22437582 334.58038763 -199.56126404 332.27766418 C-199.77013684 330.84928808 -199.97505614 329.42032726 -200.17567444 327.99076843 C-200.42511588 324.71050247 -200.42511588 324.71050247 -202 322 C-202.48161622 319.28895447 -202.90940253 316.58726723 -203.3046875 313.86328125 C-203.4293338 313.03225388 -203.5539801 312.2012265 -203.68240356 311.34501648 C-204.21622508 307.78553422 -204.74064002 304.22468485 -205.26513672 300.66381836 C-206.66601351 291.18890954 -208.17600681 281.82040969 -210.27246094 272.46948242 C-211.54300691 266.41051301 -212.45033279 260.29593021 -213.36254883 254.17431641 C-213.69150025 251.97323346 -214.02994782 249.77374429 -214.36914062 247.57421875 C-214.58389509 246.15373065 -214.79810809 244.73316055 -215.01171875 243.3125 C-215.20209717 242.05050781 -215.39247559 240.78851563 -215.58862305 239.48828125 C-216.60731663 230.85024329 -216.60731663 230.85024329 -213.8125 226.9375 C-212.89086959 225.9433818 -211.95330749 224.9637834 -211 224 C-210.195625 223.154375 -209.39125 222.30875 -208.5625 221.4375 C-206.69987497 219.66573473 -204.87899016 218.08834775 -202.875 216.5 C-200.09188544 214.07990038 -198.81005675 212.14792478 -197 209 C-195.37660195 207.29115995 -193.70680947 205.62553283 -192 204 C-190.6696875 202.6078125 -190.6696875 202.6078125 -189.3125 201.1875 C-187 199 -187 199 -185 199 C-184.59587891 198.12021484 -184.59587891 198.12021484 -184.18359375 197.22265625 C-180.63744219 190.56338154 -174.35318313 185.30268779 -169.046875 180.06591797 C-166.44005378 177.48141542 -163.94014759 174.85870658 -161.5625 172.0625 C-158.06289503 167.95573465 -154.24017991 164.21275194 -150.40478516 160.42431641 C-147.05662297 157.10135206 -143.9123246 153.67947645 -140.86328125 150.078125 C-137.51475872 146.34350448 -133.86425597 142.90157695 -130.2578125 139.41796875 C-127.81465629 137.13785764 -127.81465629 137.13785764 -127 134 C-125.55492459 132.75198033 -124.10461682 131.50876285 -122.61328125 130.31640625 C-119.20199437 127.53286224 -116.31307901 124.37569481 -113.5 121 C-110.3908959 117.26907507 -106.97392535 113.94957722 -103.5 110.5625 C-101.68427065 108.70137741 -100.06223511 106.8872866 -98.4375 104.875 C-96 102 -96 102 -93.875 100.4375 C-91.80619037 99.03873408 -91.80619037 99.03873408 -90.5 96.4375 C-88.82652367 93.71810096 -87.77822857 93.34430415 -85 92 C-84.690625 91.38125 -84.38125 90.7625 -84.0625 90.125 C-83 88 -83 88 -80.64453125 86.13671875 C-78.1420072 84.11473847 -76.51934033 82.262202 -74.625 79.6875 C-70.31193614 74.14213219 -65.42523347 69.31587988 -60.42919922 64.39819336 C-56.68856222 60.70957474 -53.12298404 56.97054809 -49.734375 52.953125 C-46.97936009 49.85063073 -43.99596427 46.97590104 -41.04370117 44.06323242 C-37.84018026 40.88610057 -34.86513484 37.59482649 -31.9453125 34.16015625 C-29.38908103 31.32161006 -26.66441553 28.67343847 -23.9375 26 C-19.99653867 22.13206414 -16.54099099 18.26349894 -13.359375 13.734375 C-11.41837729 11.25792965 -9.10540464 9.40436546 -6.6484375 7.45703125 C-4.94939181 5.95526812 -3.83936921 4.42638626 -2.5625 2.5625 C-1.716875 1.716875 -0.87125 0.87125 0 0 Z " fill="#68EAF1" transform="translate(282,24)"/>
<path d="M0 0 C6.19908426 0.31509158 12.03389109 1.92663143 18 3.5625 C18.87011719 3.79646484 19.74023438 4.03042969 20.63671875 4.27148438 C22.75914728 4.84290744 24.88013594 5.41914957 27 6 C27 6.66 27 7.32 27 8 C28.010625 8.0825 29.02125 8.165 30.0625 8.25 C38.13917194 9.25778438 46.3306978 11.54862529 53.91015625 14.4765625 C58.17944076 16.11700273 62.52098231 17.32478928 66.9375 18.5 C71.48209221 19.71555098 75.98445043 20.96704705 80.4375 22.48828125 C85.25459618 24.12455307 90.13680566 25.42263978 95.0625 26.6875 C95.92810547 26.91244141 96.79371094 27.13738281 97.68554688 27.36914062 C99.78965238 27.91551056 101.89472496 28.45815403 104 29 C104 29.66 104 30.32 104 31 C104.99128906 31.12632813 105.98257812 31.25265625 107.00390625 31.3828125 C111.04380367 31.96182722 114.98325636 32.87595291 118.9375 33.875 C119.60201172 34.03613281 120.26652344 34.19726562 120.95117188 34.36328125 C125.07736351 35.39582969 128.98010796 36.71563684 132.9440918 38.25048828 C136.54299725 39.56252245 140.23815515 40.51562498 143.9375 41.5 C148.48209221 42.71555098 152.98445043 43.96704705 157.4375 45.48828125 C162.25459618 47.12455307 167.13680566 48.42263978 172.0625 49.6875 C172.92810547 49.91244141 173.79371094 50.13738281 174.68554688 50.36914062 C176.78965238 50.91551056 178.89472496 51.45815403 181 52 C181 52.66 181 53.32 181 54 C181.99 54.12632813 182.98 54.25265625 184 54.3828125 C188.06828712 54.9660428 192.01631631 55.87526329 196 56.875 C196.67289062 57.03613281 197.34578125 57.19726562 198.0390625 57.36328125 C201.33557965 58.18422857 204.280805 59.12144655 207.4140625 60.4765625 C211.66064046 62.28066425 215.9059828 63.39345421 220.375 64.5 C225.91252029 65.88438007 231.33098418 67.40306404 236.73242188 69.25048828 C240.63494511 70.54040498 244.5977738 71.60739764 248.5625 72.6875 C249.38041016 72.91244141 250.19832031 73.13738281 251.04101562 73.36914062 C253.02674949 73.91492713 255.01328927 74.45778014 257 75 C257 75.66 257 76.32 257 77 C258.010625 77.0825 259.02125 77.165 260.0625 77.25 C268.12517871 78.25603834 276.31602451 80.53361142 283.875 83.4765625 C288.329025 85.18840285 292.8744621 86.34918399 297.5 87.5 C302.8277976 88.82553552 307.94957019 90.2919966 313.06640625 92.28613281 C316.2422323 93.45862213 319.47256348 94.27554196 322.75 95.125 C324.02359375 95.45757812 325.2971875 95.79015625 326.609375 96.1328125 C329.07124446 96.76246114 331.53331673 97.38955818 334 98 C334 98.66 334 99.32 334 100 C335.11375 100.0825 336.2275 100.165 337.375 100.25 C341 101 341 101 342.375 102.625 C343.18968168 105.72079039 343.56274707 108.82991627 344 112 C344.3182373 112.93593994 344.63647461 113.87187988 344.96435547 114.83618164 C345.99800132 117.99389418 346.58150522 120.9630635 347.0703125 124.24609375 C347.24433594 125.41333984 347.41835938 126.58058594 347.59765625 127.78320312 C347.77167969 128.98912109 347.94570313 130.19503906 348.125 131.4375 C348.39763672 133.24057617 348.39763672 133.24057617 348.67578125 135.08007812 C349.51019131 140.76724143 350.25406204 146.24972918 350 152 C354.10883347 153.76886074 358.30254414 154.952338 362.625 156.0625 C369.69377729 157.89792576 369.69377729 157.89792576 373 159 C373 159.66 373 160.32 373 161 C374.010625 161.0825 375.02125 161.165 376.0625 161.25 C385.58867454 162.43864923 395.12375003 165.41835528 404 169 C405.49860787 169.56619847 406.99860963 170.12872167 408.5 170.6875 C409.655 171.120625 410.81 171.55375 412 172 C412 173.32 412 174.64 412 176 C412.66 176 413.32 176 414 176 C414.17128418 177.14476807 414.34256836 178.28953613 414.51904297 179.46899414 C415.1592475 183.73939719 415.80553656 188.00886133 416.45361328 192.27807617 C416.73260352 194.12157775 417.00997049 195.96532578 417.28564453 197.80932617 C417.68349588 200.46861056 418.0872879 203.12693702 418.4921875 205.78515625 C418.6131076 206.60210464 418.73402771 207.41905304 418.85861206 208.26075745 C419.58366038 212.97631033 420.6704248 217.41033273 422 222 C422.47210549 224.56600257 422.90611261 227.11298728 423.2890625 229.69140625 C423.39721283 230.39974106 423.50536316 231.10807587 423.61679077 231.83787537 C423.8424812 233.32411266 424.06589214 234.81069775 424.28710938 236.29760742 C424.62474841 238.5608136 424.97203585 240.82239357 425.3203125 243.08398438 C425.53964153 244.53637101 425.75841063 245.98884234 425.9765625 247.44140625 C426.07965729 248.11031387 426.18275208 248.7792215 426.28897095 249.46839905 C426.85849659 253.34621397 427.09914305 257.0823358 427 261 C427.66 261 428.32 261 429 261 C429.83649977 266.56839303 430.67267104 272.13683525 431.50854492 277.70532227 C431.79263544 279.59758826 432.07681394 281.48984105 432.36108398 283.38208008 C432.77090509 286.11015365 433.18040428 288.83827538 433.58984375 291.56640625 C433.71592514 292.40522842 433.84200653 293.2440506 433.97190857 294.10829163 C434.09195755 294.90859299 434.21200653 295.70889435 434.33569336 296.53344727 C434.50885574 297.67766647 434.50885574 297.67766647 434.68551636 298.84500122 C434.97051351 300.79794388 435.21895418 302.75613484 435.46313477 304.71459961 C435.90815713 307.98546831 435.90815713 307.98546831 436.98413086 310.9519043 C438.17228931 314.51695075 438.73701325 318.06308253 439.25390625 321.76953125 C439.35968491 322.49113937 439.46546356 323.2127475 439.57444763 323.95622253 C439.90897472 326.2409325 440.23642061 328.5265702 440.5625 330.8125 C440.89262922 333.11620169 441.22437582 335.41961237 441.56126404 337.72233582 C441.77013684 339.15071192 441.97505614 340.57967274 442.17567444 342.00923157 C442.42511588 345.28949753 442.42511588 345.28949753 444 348 C443.979375 348.70125 443.95875 349.4025 443.9375 350.125 C443.87839771 353.09286467 443.87839771 353.09286467 444.92553711 356.18798828 C446.01751459 360.06213879 446.69530649 363.89173559 447.25390625 367.8671875 C447.35968491 368.58738068 447.46546356 369.30757385 447.57444763 370.04959106 C447.90829289 372.32410009 448.23607232 374.59941543 448.5625 376.875 C448.89273128 379.17196868 449.22438695 381.46867503 449.56126404 383.76467896 C449.77001608 385.18750611 449.97493668 386.61090165 450.17567444 388.03488159 C450.42802821 391.30151143 450.42802821 391.30151143 452 394 C452 395.66666667 452 397.33333333 452 399 C452.33 399.33 452.66 399.66 453 400 C453.49315005 402.79293084 453.93285227 405.57699514 454.33984375 408.3828125 C454.46686172 409.23044159 454.5938797 410.07807068 454.7247467 410.9513855 C455.26970566 414.58807785 455.80523445 418.22613901 456.34057617 421.86425781 C456.7323401 424.51686099 457.12968056 427.1685883 457.52734375 429.8203125 C457.70401833 431.04102951 457.70401833 431.04102951 457.88426208 432.28640747 C458.5921109 436.99780765 459.66858465 441.41715591 461 446 C461.47007195 448.5332027 461.8977237 451.0745397 462.2890625 453.62109375 C462.39721283 454.32468521 462.50536316 455.02827667 462.61679077 455.75318909 C462.84252732 457.23102507 463.06593677 458.70921824 463.28710938 460.18774414 C463.62374722 462.42915868 463.97157095 464.66864382 464.3203125 466.90820312 C464.53974192 468.35406372 464.75851368 469.80002431 464.9765625 471.24609375 C465.17330566 472.54216553 465.37004883 473.8382373 465.57275391 475.17358398 C466.76825989 485.88053559 466.76825989 485.88053559 463.8125 490.1875 C462.884375 491.115625 461.95625 492.04375 461 493 C460.21625 493.825 459.4325 494.65 458.625 495.5 C456.58889227 497.43915022 454.54072185 499.21646436 452.375 501 C449.51085643 503.41353477 447.84836181 505.72335861 446 509 C443.53817974 511.66142731 441.05001144 513.96110221 438.1875 516.1875 C435.54152219 518.34693781 433.57577909 520.72880745 431.5 523.4375 C427.41195592 528.70705971 422.81630554 533.29477077 418.07104492 537.95996094 C414.46069529 541.5163522 411.04359936 545.14085848 407.76953125 549.01171875 C405.00069444 552.12284002 402.00956889 555.01071079 399.04614258 557.93432617 C395.82671196 561.12720934 392.83050187 564.4326039 389.8984375 567.88671875 C386.53498087 571.63081347 382.87656463 575.08653362 379.2578125 578.58203125 C376.81465629 580.86214236 376.81465629 580.86214236 376 584 C374.3603279 585.36639342 372.68889872 586.6949419 371 588 C368.31164749 590.55393489 365.87488743 593.15013508 363.5 596 C360.3908959 599.73092493 356.97392535 603.05042278 353.5 606.4375 C350.92746981 609.0074975 350.92746981 609.0074975 348.5 612 C346.12629001 614.84845198 343.62066306 617.37933694 341 620 C338.7444176 622.48607987 336.50944576 624.98935689 334.28125 627.5 C331.92636019 630.08070116 329.47025706 632.52974294 327 635 C324.73262994 637.40057805 322.49257929 639.82627636 320.25 642.25 C315.57592858 647.28544667 310.82810727 652.2124888 305.93359375 657.03515625 C304.07744347 658.92130492 302.34443143 660.86427665 300.625 662.875 C297.73785181 666.24557765 294.65752622 669.38503521 291.5 672.5 C287.8052381 676.14515945 284.30987661 679.88126505 280.94921875 683.8359375 C278.37187136 686.69736125 275.62395669 689.36707016 272.875 692.0625 C269.69733072 695.18149417 266.61989528 698.22755832 264.125 701.9375 C261.77751507 705.32064005 259.21748952 707.4528208 256 710 C255.13375 710.886875 254.2675 711.77375 253.375 712.6875 C251.15125466 714.85272572 249.87348574 715.96936278 247 717 C244.43457031 716.67626953 244.43457031 716.67626953 241.578125 715.8828125 C240.55332031 715.60566406 239.52851562 715.32851563 238.47265625 715.04296875 C237.40917969 714.74003906 236.34570312 714.43710937 235.25 714.125 C233.63158203 713.68220703 233.63158203 713.68220703 231.98046875 713.23046875 C229.31652403 712.49965206 226.65694979 711.75577995 224 711 C224 710.34 224 709.68 224 709 C222.989375 708.9175 221.97875 708.835 220.9375 708.75 C212.87638342 707.74415658 204.68559114 705.46806562 197.12890625 702.5234375 C191.87160365 700.5023789 186.43943078 699.2391569 180.97851562 697.89453125 C177.3429794 696.97317663 174.01520816 696.00658444 170.5625 694.51171875 C165.99798011 692.57480077 161.37606114 691.45957613 156.5625 690.3125 C155.64017578 690.08755859 154.71785156 689.86261719 153.76757812 689.63085938 C151.51297361 689.08181061 149.25718159 688.53833701 147 688 C147 687.34 147 686.68 147 686 C146.34515625 685.89042969 145.6903125 685.78085937 145.015625 685.66796875 C136.6120018 684.20801726 128.17673852 682.64265593 120.19921875 679.55859375 C115.87281504 677.90074579 111.47563982 676.68382964 107 675.5 C102.59988467 674.33614697 98.27542142 673.1545075 94.03125 671.5 C89.61113643 669.78884712 85.09445067 668.64308163 80.5 667.5 C75.17325846 666.17472723 70.06637757 664.69944812 64.95166016 662.70507812 C61.0374769 661.29099741 56.9642129 660.46123842 52.91210938 659.5390625 C49.61739783 658.75780923 46.71871743 657.87885195 43.58984375 656.53125 C39.34224224 654.71943304 35.09762468 653.60743902 30.625 652.5 C25.07504074 651.11251018 19.645901 649.58818319 14.23242188 647.73632812 C9.76536347 646.26294141 5.20628925 645.10371216 0.66210938 643.89453125 C-2.98531799 642.90465036 -6.53083586 641.83920848 -10.0546875 640.46875 C-14.63330932 638.6973302 -19.30980748 637.62645654 -24.08789062 636.5390625 C-27.38181072 635.7579969 -30.27865071 634.87984786 -33.40625 633.53125 C-37.67440179 631.7126462 -41.94262362 630.60676067 -46.4375 629.5 C-51.74407728 628.18711975 -56.83304237 626.73679993 -61.92602539 624.74951172 C-65.86973946 623.32429663 -69.93932861 622.34482122 -74 621.3125 C-74.87011719 621.08755859 -75.74023438 620.86261719 -76.63671875 620.63085938 C-78.75681493 620.08336201 -80.87826892 619.54112698 -83 619 C-83 618.34 -83 617.68 -83 617 C-85.64 616.67 -88.28 616.34 -91 616 C-91.66666667 614 -92.33333333 612 -93 610 C-93.48992432 608.64334229 -93.48992432 608.64334229 -93.98974609 607.25927734 C-95.10206786 603.67070906 -95.72068076 600.19014328 -96.2890625 596.4765625 C-96.39721283 595.77155609 -96.50536316 595.06654968 -96.61679077 594.34017944 C-96.84286999 592.85641787 -97.06626721 591.3722454 -97.28710938 589.88769531 C-97.62316115 587.63731389 -97.97115452 585.38900567 -98.3203125 583.140625 C-98.53978648 581.69021353 -98.75855936 580.23969577 -98.9765625 578.7890625 C-99.17330566 577.48662598 -99.37004883 576.18418945 -99.57275391 574.84228516 C-100.01872681 570.83158709 -100.07337344 567.02993806 -100 563 C-94.87475334 563.63315791 -90.03469229 564.68160656 -85.0625 566.0625 C-84.37865234 566.24876953 -83.69480469 566.43503906 -82.99023438 566.62695312 C-81.32579707 567.08089057 -79.66274688 567.53990916 -78 568 C-78 568.66 -78 569.32 -78 570 C-76.989375 570.0825 -75.97875 570.165 -74.9375 570.25 C-68.15059716 571.07228298 -61.56902694 573.16101459 -55 575 C-55 575.66 -55 576.32 -55 577 C-53.8965625 577.11214844 -52.793125 577.22429688 -51.65625 577.33984375 C-46.49279439 577.9852757 -41.53023952 579.25741605 -36.5 580.5625 C-35.5821875 580.79646484 -34.664375 581.03042969 -33.71875 581.27148438 C-31.47802077 581.84333715 -29.23852312 582.41958293 -27 583 C-27 583.66 -27 584.32 -27 585 C-26.37996094 585.09796875 -25.75992188 585.1959375 -25.12109375 585.296875 C-16.92620955 586.68058179 -8.99748229 588.77667834 -1 591 C-1 591.66 -1 592.32 -1 593 C0.010625 593.0825 1.02125 593.165 2.0625 593.25 C8.84940284 594.07228298 15.43097306 596.16101459 22 598 C22 598.66 22 599.32 22 600 C23.1034375 600.11214844 24.206875 600.22429688 25.34375 600.33984375 C30.50720561 600.9852757 35.46976048 602.25741605 40.5 603.5625 C41.4178125 603.79646484 42.335625 604.03042969 43.28125 604.27148438 C45.52197923 604.84333715 47.76147688 605.41958293 50 606 C50 606.66 50 607.32 50 608 C50.62003906 608.09796875 51.24007813 608.1959375 51.87890625 608.296875 C60.07379045 609.68058179 68.00251771 611.77667834 76 614 C76 614.66 76 615.32 76 616 C77.010625 616.0825 78.02125 616.165 79.0625 616.25 C85.84940284 617.07228298 92.43097306 619.16101459 99 621 C99 621.66 99 622.32 99 623 C100.11375 623.11214844 101.2275 623.22429688 102.375 623.33984375 C107.37696551 623.96508944 112.14605923 625.23158076 117 626.5625 C117.87011719 626.79646484 118.74023438 627.03042969 119.63671875 627.27148438 C121.75914728 627.84290744 123.88013594 628.41914957 126 629 C126 629.66 126 630.32 126 631 C127.11375 631.11214844 128.2275 631.22429688 129.375 631.33984375 C134.37696551 631.96508944 139.14605923 633.23158076 144 634.5625 C144.87011719 634.79646484 145.74023438 635.03042969 146.63671875 635.27148438 C148.75914728 635.84290744 150.88013594 636.41914957 153 637 C153 637.66 153 638.32 153 639 C154.47146484 639.18369141 154.47146484 639.18369141 155.97265625 639.37109375 C160.20736792 639.97605256 164.30010373 640.99124369 168.4375 642.0625 C169.53481445 642.3419043 169.53481445 642.3419043 170.65429688 642.62695312 C172.43703198 643.0813758 174.21863787 643.54022466 176 644 C176 644.66 176 645.32 176 646 C184.69347065 638.7014702 192.76148111 630.7552953 200.109375 622.10546875 C203.40758566 618.43246142 206.99614973 615.04002868 210.546875 611.61328125 C212.82875813 609.18242167 214.34660837 606.87142275 216 604 C217.63260714 602.62517293 219.30225062 601.29352333 221 600 C222.68762851 598.3545622 224.3540349 596.68711423 226 595 C226.9075 594.13375 227.815 593.2675 228.75 592.375 C231.19004674 590.13466888 231.19004674 590.13466888 232 587 C235.39337594 583.31576326 239.15829289 580.20142259 243 577 C246.64594897 573.61447596 249.28780591 570.15869761 252 566 C253.625 564.125 253.625 564.125 255 563 C255.66 563 256.32 563 257 563 C257.25394531 562.41734375 257.50789063 561.8346875 257.76953125 561.234375 C259.13320333 558.75811967 260.64225203 557.19479374 262.6875 555.25 C265.35930255 552.6500201 267.89803704 550.02770159 270.3125 547.1875 C274.18883153 542.65462043 278.45584993 538.5583139 282.7421875 534.41796875 C285.18534371 532.13785764 285.18534371 532.13785764 286 529 C287.49609375 527.52734375 287.49609375 527.52734375 289.4375 525.9375 C296.55327036 519.89292087 303.01943201 513.25399476 309.06640625 506.1484375 C312.44467792 502.39480231 316.1111498 498.9253335 319.7421875 495.41796875 C322.18534371 493.13785764 322.18534371 493.13785764 323 490 C324.44924057 488.74838314 325.90384293 487.50177983 327.3984375 486.3046875 C333.90042937 481.0079429 339.38649783 474.22157048 344.6875 467.75 C347.88024573 463.95322129 351.24145793 460.57806668 355.125 457.5 C357.90811456 455.07990038 359.18994325 453.14792478 361 450 C363.46182026 447.33857269 365.94998856 445.03889779 368.8125 442.8125 C371.45847781 440.65306219 373.42422091 438.27119255 375.5 435.5625 C378.00906173 432.2953397 380.6218524 429.33130253 383.58984375 426.484375 C384.22277344 425.87650146 384.85570312 425.26862793 385.5078125 424.64233398 C386.77231667 423.44326278 388.04936439 422.25725191 389.33984375 421.08618164 C393.4694029 417.16434566 394.83237164 414.73580531 395 409 C394.34 409 393.68 409 393 409 C392.87511703 408.13675613 392.87511703 408.13675613 392.74771118 407.256073 C391.87812415 401.25274728 391.00084447 395.25058127 390.11914062 389.24902344 C389.79132881 387.01070364 389.46546274 384.77209796 389.14160156 382.53320312 C388.67507096 379.31042119 388.20149429 376.08874074 387.7265625 372.8671875 C387.51237167 371.37153763 387.51237167 371.37153763 387.29385376 369.84567261 C386.57445963 365.01257163 385.63429342 360.62037383 384 356 C383.59585572 353.92664355 383.24076831 351.84325263 382.9296875 349.75390625 C382.75566406 348.58666016 382.58164062 347.41941406 382.40234375 346.21679688 C382.22832031 345.01087891 382.05429687 343.80496094 381.875 342.5625 C381.69324219 341.36044922 381.51148438 340.15839844 381.32421875 338.91992188 C380.48980869 333.23275857 379.74593796 327.75027082 380 322 C379.34 322 378.68 322 378 322 C377.13866358 316.57503136 376.28440087 311.14901231 375.43652344 305.72192383 C375.14742529 303.8778722 374.85643495 302.03411613 374.56347656 300.19067383 C374.14143694 297.53282909 373.72633248 294.87397718 373.3125 292.21484375 C373.18125732 291.39789536 373.05001465 290.58094696 372.91479492 289.73924255 C372.20009915 285.09686569 371.86822848 280.69710562 372 276 C371.34 276 370.68 276 370 276 C369.13981044 270.41410589 368.28549369 264.8273564 367.43652344 259.23974609 C367.14710744 257.34041312 366.85610938 255.44132049 366.56347656 253.54248047 C366.14228317 250.80758867 365.72685244 248.07187305 365.3125 245.3359375 C365.18125732 244.49195404 365.05001465 243.64797058 364.91479492 242.77841187 C364.26871804 238.47367007 363.85169606 234.36878694 364 230 C363.34 230 362.68 230 362 230 C361.138832 224.43256413 360.28456071 218.86412884 359.43652344 213.29467773 C359.14737874 211.40213834 358.85638719 209.50988012 358.56347656 207.61791992 C358.14156132 204.89053922 357.72640838 202.16219962 357.3125 199.43359375 C357.18125732 198.59477158 357.05001465 197.7559494 356.91479492 196.89170837 C356.21061302 192.20026174 355.86628846 187.74397394 356 183 C355.34 183 354.68 183 354 183 C353.32952258 178.89644637 352.66427038 174.7920626 352 170.6875 C351.80921875 169.52025391 351.6184375 168.35300781 351.421875 167.15039062 C351.24140625 166.03212891 351.0609375 164.91386719 350.875 163.76171875 C350.62363281 162.2142395 350.62363281 162.2142395 350.3671875 160.63549805 C350 158 350 158 350 155 C343.03359344 152.86927695 336.03645577 150.88619822 329 149 C329 148.34 329 147.68 329 147 C328.41347656 147.19078125 327.82695313 147.3815625 327.22265625 147.578125 C324.19730771 148.15235636 322.15116828 147.0427524 319.37109375 145.90234375 C315.02327575 144.24773756 310.49888627 143.16607162 306 142 C306 141.34 306 140.68 306 140 C304.8553125 140.2784375 304.8553125 140.2784375 303.6875 140.5625 C301 141 301 141 298 140 C298 139.34 298 138.68 298 138 C296.824375 137.87625 295.64875 137.7525 294.4375 137.625 C290.45879574 137.13564065 286.82233441 136.1944795 283 135 C283 134.34 283 133.68 283 133 C282.236875 133.185625 281.47375 133.37125 280.6875 133.5625 C278 134 278 134 275 133 C275 132.34 275 131.68 275 131 C273.989375 130.9175 272.97875 130.835 271.9375 130.75 C265.15059716 129.92771702 258.56902694 127.83898541 252 126 C252 125.34 252 124.68 252 124 C250.515 124.495 250.515 124.495 249 125 C247.125 124.546875 247.125 124.546875 245 123.75 C239.74067681 121.86981362 234.39834246 120.42274072 229 119 C229 118.34 229 117.68 229 117 C227.515 117.495 227.515 117.495 226 118 C223.3125 117.5625 223.3125 117.5625 221 117 C221 116.34 221 115.68 221 115 C219.515 114.814375 219.515 114.814375 218 114.625 C213.91119976 114.04805273 209.99138113 113.05036346 206 112 C206 111.34 206 110.68 206 110 C204.68 110.33 203.36 110.66 202 111 C202 110.34 202 109.68 202 109 C201.484375 109.226875 200.96875 109.45375 200.4375 109.6875 C197.47466938 110.06735008 195.84416876 109.14919477 193.19921875 107.8984375 C188.64841708 106.03931781 183.77585934 105.11818427 179 104 C177.66602068 103.66926133 176.33239281 103.33707312 175 103 C175 102.34 175 101.68 175 101 C173.515 101.495 173.515 101.495 172 102 C170.01953125 101.546875 170.01953125 101.546875 167.8125 100.75 C167.02230469 100.47027344 166.23210937 100.19054687 165.41796875 99.90234375 C163.14720269 99.05493348 160.88585781 98.18591827 158.625 97.3125 C155.17241585 95.82977946 155.17241585 95.82977946 152 96 C152 95.34 152 94.68 152 94 C150.515 94.495 150.515 94.495 149 95 C147.125 94.546875 147.125 94.546875 145 93.75 C139.74067681 91.86981362 134.39834246 90.42274072 129 89 C129 88.34 129 87.68 129 87 C128.401875 87.185625 127.80375 87.37125 127.1875 87.5625 C125 88 125 88 122 87 C122 86.34 122 85.68 122 85 C120.9275 84.896875 119.855 84.79375 118.75 84.6875 C111.03113017 83.7157983 103.54730517 81.71094511 96.3359375 78.8203125 C91.8141207 77.23238352 87.13000638 76.14542552 82.48828125 74.96484375 C79 74 79 74 76.35546875 72.75390625 C73.98997758 71.77694053 73.98997758 71.77694053 71.46875 72.57421875 C68.50959682 74.28322335 66.7135522 76.213135 64.5 78.8125 C63.72140625 79.7096875 62.9428125 80.606875 62.140625 81.53125 C61.43421875 82.3459375 60.7278125 83.160625 60 84 C57.4613511 86.59634547 54.87652582 89.11786171 52.25 91.625 C49.80995326 93.86533112 49.80995326 93.86533112 49 97 C44.84354491 101.47385711 40.20599117 105.48781415 35.640625 109.5390625 C33.19950715 111.75309962 31.22779492 113.61506312 29.5390625 116.46875 C26.89872128 120.81124013 22.87636202 123.84280321 19.09375 127.18359375 C15.69329736 130.245442 13.22420045 132.94853333 11 137 C9.38671875 138.84375 9.38671875 138.84375 7.6875 140.5 C7.07390625 141.09941406 6.4603125 141.69882813 5.828125 142.31640625 C4.25999276 143.76056222 2.60548185 145.10992261 0.9375 146.4375 C-1.44152488 148.51281958 -2.85424043 150.05349372 -4.625 152.5625 C-7.47256185 156.53389959 -10.73695754 159.93322574 -14.1875 163.375 C-14.71102051 163.89908447 -15.23454102 164.42316895 -15.77392578 164.96313477 C-18.08882968 167.24567019 -20.28628002 169.19085335 -23 171 C-23.40734375 171.71542969 -23.8146875 172.43085938 -24.234375 173.16796875 C-26.69964235 177.12221394 -29.91642324 180.08264172 -33.25 183.3125 C-37.76492583 187.75050328 -42.1687295 192.17545005 -46.2421875 197.02734375 C-49.54401625 200.73272935 -53.17388841 204.13526823 -56.7421875 207.58203125 C-59.18534371 209.86214236 -59.18534371 209.86214236 -60 213 C-63.95641265 217.25420716 -68.3501791 221.06606619 -72.71484375 224.89453125 C-75.83027975 227.69448006 -77.95334487 230.36748636 -80 234 C-81.578125 235.80859375 -81.578125 235.80859375 -83.25 237.4375 C-83.85972656 238.03304687 -84.46945313 238.62859375 -85.09765625 239.2421875 C-86.91234516 240.91900477 -88.7787584 242.49445851 -90.6875 244.0625 C-93.82620002 246.6931621 -95.7553507 249.56288076 -98 253 C-100.24133752 255.43036599 -102.61769962 257.70891382 -105 260 C-105.886875 260.9075 -106.77375 261.815 -107.6875 262.75 C-110 265 -110 265 -112.125 266.5 C-114.14294959 267.92713927 -114.14294959 267.92713927 -115.3125 270.28125 C-117.19428094 273.31300818 -119.31955997 275.51446562 -121.875 278 C-123.13957031 279.2375 -123.13957031 279.2375 -124.4296875 280.5 C-125.70199219 281.7375 -125.70199219 281.7375 -127 283 C-130.60120504 286.54721396 -133.96327603 290.1846315 -137.21484375 294.05078125 C-139 296 -139 296 -140.81640625 297.35546875 C-142.7834571 298.83874375 -143.86231883 299.79411436 -145 302 C-145.20241201 306.75135572 -144.70748937 311.30484327 -144 316 C-143.34 316 -142.68 316 -142 316 C-141.3248677 320.35289756 -140.66140624 324.70749743 -140 329.0625 C-139.80921875 330.29162109 -139.6184375 331.52074219 -139.421875 332.78710938 C-139.24140625 333.98271484 -139.0609375 335.17832031 -138.875 336.41015625 C-138.70742187 337.50465088 -138.53984375 338.59914551 -138.3671875 339.72680664 C-137.9800951 343.17743681 -137.93856147 346.53064309 -138 350 C-137.34 350 -136.68 350 -136 350 C-136 353.96 -136 357.92 -136 362 C-135.34 362 -134.68 362 -134 362 C-133.3248677 366.35289756 -132.66140624 370.70749743 -132 375.0625 C-131.80921875 376.29162109 -131.6184375 377.52074219 -131.421875 378.78710938 C-131.24140625 379.98271484 -131.0609375 381.17832031 -130.875 382.41015625 C-130.70742187 383.50465088 -130.53984375 384.59914551 -130.3671875 385.72680664 C-129.9800951 389.17743681 -129.93856147 392.53064309 -130 396 C-129.34 396.33 -128.68 396.66 -128 397 C-128.020625 397.804375 -128.04125 398.60875 -128.0625 399.4375 C-128.29633621 401.93354885 -128.29633621 401.93354885 -127 403 C-126.55513072 405.36814638 -126.16428203 407.72351743 -125.80859375 410.10546875 C-125.69902847 410.82229324 -125.5894632 411.53911774 -125.47657776 412.27766418 C-125.24510802 413.79978878 -125.01575455 415.32223644 -124.78833008 416.8449707 C-124.44141858 419.16133522 -124.08546143 421.47617882 -123.72851562 423.79101562 C-123.50465665 425.27074998 -123.2813326 426.75056537 -123.05859375 428.23046875 C-122.89924599 429.26206367 -122.89924599 429.26206367 -122.73667908 430.3144989 C-122.15714472 434.24484373 -121.89550163 438.02867652 -122 442 C-121.34 442.33 -120.68 442.66 -120 443 C-120.020625 443.804375 -120.04125 444.60875 -120.0625 445.4375 C-120.29633621 447.93354885 -120.29633621 447.93354885 -119 449 C-118.55513072 451.36814638 -118.16428203 453.72351743 -117.80859375 456.10546875 C-117.69902847 456.82229324 -117.5894632 457.53911774 -117.47657776 458.27766418 C-117.24510802 459.79978878 -117.01575455 461.32223644 -116.78833008 462.8449707 C-116.44141858 465.16133522 -116.08546143 467.47617882 -115.72851562 469.79101562 C-115.50465665 471.27074998 -115.2813326 472.75056537 -115.05859375 474.23046875 C-114.89924599 475.26206367 -114.89924599 475.26206367 -114.73667908 476.3144989 C-114.15714472 480.24484373 -113.89550163 484.02867652 -114 488 C-113.34 488 -112.68 488 -112 488 C-111.28113931 492.570501 -110.5693103 497.14202346 -109.86376953 501.71459961 C-109.62315253 503.26762893 -109.38066926 504.82037036 -109.13623047 506.37280273 C-108.78373364 508.61367541 -108.43812392 510.85552265 -108.09375 513.09765625 C-107.9843811 513.78336197 -107.87501221 514.46906769 -107.7623291 515.17555237 C-107.10851988 519.48723999 -106.90090438 523.64226997 -107 528 C-106.34 528 -105.68 528 -105 528 C-105.33 530.31 -105.66 532.62 -106 535 C-105.34 535 -104.68 535 -104 535 C-103.4926043 538.20720862 -102.995421 541.41592163 -102.5 544.625 C-102.35691406 545.52863281 -102.21382813 546.43226563 -102.06640625 547.36328125 C-101.36265833 551.95439866 -100.81415222 556.33831815 -101 561 C-108.87690257 561.41136629 -115.50298299 560.436168 -123 558 C-123 557.34 -123 556.68 -123 556 C-124.485 555.81050781 -124.485 555.81050781 -126 555.6171875 C-130.06828712 555.0339572 -134.01631631 554.12473671 -138 553.125 C-138.67289062 552.96386719 -139.34578125 552.80273438 -140.0390625 552.63671875 C-144.58439321 551.50477346 -148.70906327 549.90989746 -153 548 C-154.63759187 547.41393987 -156.28243086 546.84721465 -157.9375 546.3125 C-159.09572266 545.93544922 -159.09572266 545.93544922 -160.27734375 545.55078125 C-160.84582031 545.36902344 -161.41429687 545.18726563 -162 545 C-162 543.35 -162 541.7 -162 540 C-162.66 540 -163.32 540 -164 540 C-164.17128418 538.85523193 -164.34256836 537.71046387 -164.51904297 536.53100586 C-165.1592475 532.26060281 -165.80553656 527.99113867 -166.45361328 523.72192383 C-166.73260352 521.87842225 -167.00997049 520.03467422 -167.28564453 518.19067383 C-167.68349588 515.53138944 -168.0872879 512.87306298 -168.4921875 510.21484375 C-168.6131076 509.39789536 -168.73402771 508.58094696 -168.85861206 507.73924255 C-169.39876275 504.22622269 -170.02589674 500.9093614 -171.00439453 497.48461914 C-172.1835268 493.35765621 -172.82580664 489.27291145 -173.4375 485.03125 C-173.56310303 484.1921106 -173.68870605 483.35297119 -173.81811523 482.48840332 C-174.35079394 478.92865948 -174.87265652 475.36735062 -175.39550781 471.80615234 C-175.78074851 469.19311151 -176.17150613 466.58093516 -176.5625 463.96875 C-176.677146 463.17376099 -176.79179199 462.37877197 -176.90991211 461.55969238 C-177.60795119 456.9005664 -178.68967639 452.53331013 -180 448 C-180.43672074 445.52530479 -180.82925526 443.04251499 -181.18359375 440.5546875 C-181.39127444 439.13281227 -181.59895678 437.71093727 -181.80664062 436.2890625 C-182.121678 434.09135395 -182.43488563 431.89339331 -182.74731445 429.6953125 C-183.92262445 421.47278066 -185.29953408 413.43902364 -187.25708008 405.35888672 C-188.73504766 398.67670532 -189.63936351 391.89404811 -190.625 385.125 C-190.84327752 383.65357567 -191.06202549 382.18222104 -191.28125 380.7109375 C-192.8956034 369.84633756 -192.8956034 369.84633756 -193.44287109 365.40966797 C-193.9015139 362.03443828 -193.9015139 362.03443828 -194.98413086 359.0480957 C-196.17228931 355.48304925 -196.73701325 351.93691747 -197.25390625 348.23046875 C-197.35968491 347.50886063 -197.46546356 346.7872525 -197.57444763 346.04377747 C-197.90897472 343.7590675 -198.23642061 341.4734298 -198.5625 339.1875 C-198.89262922 336.88379831 -199.22437582 334.58038763 -199.56126404 332.27766418 C-199.77013684 330.84928808 -199.97505614 329.42032726 -200.17567444 327.99076843 C-200.42511588 324.71050247 -200.42511588 324.71050247 -202 322 C-202.48161622 319.28895447 -202.90940253 316.58726723 -203.3046875 313.86328125 C-203.4293338 313.03225388 -203.5539801 312.2012265 -203.68240356 311.34501648 C-204.21622508 307.78553422 -204.74064002 304.22468485 -205.26513672 300.66381836 C-206.66601351 291.18890954 -208.17600681 281.82040969 -210.27246094 272.46948242 C-211.54300691 266.41051301 -212.45033279 260.29593021 -213.36254883 254.17431641 C-213.69150025 251.97323346 -214.02994782 249.77374429 -214.36914062 247.57421875 C-214.58389509 246.15373065 -214.79810809 244.73316055 -215.01171875 243.3125 C-215.20209717 242.05050781 -215.39247559 240.78851563 -215.58862305 239.48828125 C-216.60731663 230.85024329 -216.60731663 230.85024329 -213.8125 226.9375 C-212.89086959 225.9433818 -211.95330749 224.9637834 -211 224 C-210.195625 223.154375 -209.39125 222.30875 -208.5625 221.4375 C-206.69987497 219.66573473 -204.87899016 218.08834775 -202.875 216.5 C-200.09188544 214.07990038 -198.81005675 212.14792478 -197 209 C-195.37660195 207.29115995 -193.70680947 205.62553283 -192 204 C-190.6696875 202.6078125 -190.6696875 202.6078125 -189.3125 201.1875 C-187 199 -187 199 -185 199 C-184.59587891 198.12021484 -184.59587891 198.12021484 -184.18359375 197.22265625 C-180.63744219 190.56338154 -174.35318313 185.30268779 -169.046875 180.06591797 C-166.44005378 177.48141542 -163.94014759 174.85870658 -161.5625 172.0625 C-158.06289503 167.95573465 -154.24017991 164.21275194 -150.40478516 160.42431641 C-147.05662297 157.10135206 -143.9123246 153.67947645 -140.86328125 150.078125 C-137.51475872 146.34350448 -133.86425597 142.90157695 -130.2578125 139.41796875 C-127.81465629 137.13785764 -127.81465629 137.13785764 -127 134 C-125.55492459 132.75198033 -124.10461682 131.50876285 -122.61328125 130.31640625 C-119.20199437 127.53286224 -116.31307901 124.37569481 -113.5 121 C-110.3908959 117.26907507 -106.97392535 113.94957722 -103.5 110.5625 C-101.68427065 108.70137741 -100.06223511 106.8872866 -98.4375 104.875 C-96 102 -96 102 -93.875 100.4375 C-91.80619037 99.03873408 -91.80619037 99.03873408 -90.5 96.4375 C-88.82652367 93.71810096 -87.77822857 93.34430415 -85 92 C-84.690625 91.38125 -84.38125 90.7625 -84.0625 90.125 C-83 88 -83 88 -80.64453125 86.13671875 C-78.1420072 84.11473847 -76.51934033 82.262202 -74.625 79.6875 C-70.31193614 74.14213219 -65.42523347 69.31587988 -60.42919922 64.39819336 C-56.68856222 60.70957474 -53.12298404 56.97054809 -49.734375 52.953125 C-46.97936009 49.85063073 -43.99596427 46.97590104 -41.04370117 44.06323242 C-37.84018026 40.88610057 -34.86513484 37.59482649 -31.9453125 34.16015625 C-29.38908103 31.32161006 -26.66441553 28.67343847 -23.9375 26 C-19.99653867 22.13206414 -16.54099099 18.26349894 -13.359375 13.734375 C-11.41837729 11.25792965 -9.10540464 9.40436546 -6.6484375 7.45703125 C-4.94939181 5.95526812 -3.83936921 4.42638626 -2.5625 2.5625 C-1.716875 1.716875 -0.87125 0.87125 0 0 Z " fill="#08ABB9" transform="translate(282,24)"/>
<path d="M0 0 C6.19908426 0.31509158 12.03389109 1.92663143 18 3.5625 C18.87011719 3.79646484 19.74023438 4.03042969 20.63671875 4.27148438 C22.75914728 4.84290744 24.88013594 5.41914957 27 6 C27 6.66 27 7.32 27 8 C28.010625 8.0825 29.02125 8.165 30.0625 8.25 C38.13917194 9.25778438 46.3306978 11.54862529 53.91015625 14.4765625 C58.17944076 16.11700273 62.52098231 17.32478928 66.9375 18.5 C71.48209221 19.71555098 75.98445043 20.96704705 80.4375 22.48828125 C85.25459618 24.12455307 90.13680566 25.42263978 95.0625 26.6875 C95.92810547 26.91244141 96.79371094 27.13738281 97.68554688 27.36914062 C99.78965238 27.91551056 101.89472496 28.45815403 104 29 C104 29.66 104 30.32 104 31 C104.99128906 31.12632813 105.98257812 31.25265625 107.00390625 31.3828125 C111.04380367 31.96182722 114.98325636 32.87595291 118.9375 33.875 C119.60201172 34.03613281 120.26652344 34.19726562 120.95117188 34.36328125 C125.07736351 35.39582969 128.98010796 36.71563684 132.9440918 38.25048828 C136.54299725 39.56252245 140.23815515 40.51562498 143.9375 41.5 C148.48209221 42.71555098 152.98445043 43.96704705 157.4375 45.48828125 C162.25459618 47.12455307 167.13680566 48.42263978 172.0625 49.6875 C172.92810547 49.91244141 173.79371094 50.13738281 174.68554688 50.36914062 C176.78965238 50.91551056 178.89472496 51.45815403 181 52 C181 52.66 181 53.32 181 54 C181.99 54.12632813 182.98 54.25265625 184 54.3828125 C188.06828712 54.9660428 192.01631631 55.87526329 196 56.875 C196.67289062 57.03613281 197.34578125 57.19726562 198.0390625 57.36328125 C201.33557965 58.18422857 204.280805 59.12144655 207.4140625 60.4765625 C211.66064046 62.28066425 215.9059828 63.39345421 220.375 64.5 C225.91252029 65.88438007 231.33098418 67.40306404 236.73242188 69.25048828 C240.63494511 70.54040498 244.5977738 71.60739764 248.5625 72.6875 C249.38041016 72.91244141 250.19832031 73.13738281 251.04101562 73.36914062 C253.02674949 73.91492713 255.01328927 74.45778014 257 75 C257 75.66 257 76.32 257 77 C258.010625 77.0825 259.02125 77.165 260.0625 77.25 C268.12517871 78.25603834 276.31602451 80.53361142 283.875 83.4765625 C288.329025 85.18840285 292.8744621 86.34918399 297.5 87.5 C302.8277976 88.82553552 307.94957019 90.2919966 313.06640625 92.28613281 C316.2422323 93.45862213 319.47256348 94.27554196 322.75 95.125 C324.02359375 95.45757812 325.2971875 95.79015625 326.609375 96.1328125 C329.07124446 96.76246114 331.53331673 97.38955818 334 98 C334 98.66 334 99.32 334 100 C335.11375 100.0825 336.2275 100.165 337.375 100.25 C341 101 341 101 342.375 102.625 C343.18968168 105.72079039 343.56274707 108.82991627 344 112 C344.3182373 112.93593994 344.63647461 113.87187988 344.96435547 114.83618164 C345.99800132 117.99389418 346.58150522 120.9630635 347.0703125 124.24609375 C347.24433594 125.41333984 347.41835938 126.58058594 347.59765625 127.78320312 C347.77167969 128.98912109 347.94570313 130.19503906 348.125 131.4375 C348.39763672 133.24057617 348.39763672 133.24057617 348.67578125 135.08007812 C349.51019131 140.76724143 350.25406204 146.24972918 350 152 C350.66 152.33 351.32 152.66 352 153 C350.5 154.1875 350.5 154.1875 348 155 C346.10425498 154.36808499 344.21121392 153.71668132 342.37109375 152.9375 C338.04019119 151.22511678 333.50275224 150.16707365 329 149 C329 148.34 329 147.68 329 147 C328.41347656 147.19078125 327.82695313 147.3815625 327.22265625 147.578125 C324.19730771 148.15235636 322.15116828 147.0427524 319.37109375 145.90234375 C315.02327575 144.24773756 310.49888627 143.16607162 306 142 C306 141.34 306 140.68 306 140 C304.8553125 140.2784375 304.8553125 140.2784375 303.6875 140.5625 C301 141 301 141 298 140 C298 139.34 298 138.68 298 138 C296.824375 137.87625 295.64875 137.7525 294.4375 137.625 C290.45879574 137.13564065 286.82233441 136.1944795 283 135 C283 134.34 283 133.68 283 133 C282.236875 133.185625 281.47375 133.37125 280.6875 133.5625 C278 134 278 134 275 133 C275 132.34 275 131.68 275 131 C273.989375 130.9175 272.97875 130.835 271.9375 130.75 C265.15059716 129.92771702 258.56902694 127.83898541 252 126 C252 125.34 252 124.68 252 124 C250.515 124.495 250.515 124.495 249 125 C247.125 124.546875 247.125 124.546875 245 123.75 C239.74067681 121.86981362 234.39834246 120.42274072 229 119 C229 118.34 229 117.68 229 117 C227.515 117.495 227.515 117.495 226 118 C223.3125 117.5625 223.3125 117.5625 221 117 C221 116.34 221 115.68 221 115 C219.515 114.814375 219.515 114.814375 218 114.625 C213.91119976 114.04805273 209.99138113 113.05036346 206 112 C206 111.34 206 110.68 206 110 C204.68 110.33 203.36 110.66 202 111 C202 110.34 202 109.68 202 109 C201.484375 109.226875 200.96875 109.45375 200.4375 109.6875 C197.47466938 110.06735008 195.84416876 109.14919477 193.19921875 107.8984375 C188.64841708 106.03931781 183.77585934 105.11818427 179 104 C177.66602068 103.66926133 176.33239281 103.33707312 175 103 C175 102.34 175 101.68 175 101 C173.515 101.495 173.515 101.495 172 102 C170.01953125 101.546875 170.01953125 101.546875 167.8125 100.75 C167.02230469 100.47027344 166.23210937 100.19054687 165.41796875 99.90234375 C163.14720269 99.05493348 160.88585781 98.18591827 158.625 97.3125 C155.17241585 95.82977946 155.17241585 95.82977946 152 96 C152 95.34 152 94.68 152 94 C150.515 94.495 150.515 94.495 149 95 C147.125 94.546875 147.125 94.546875 145 93.75 C139.74067681 91.86981362 134.39834246 90.42274072 129 89 C129 88.34 129 87.68 129 87 C128.401875 87.185625 127.80375 87.37125 127.1875 87.5625 C125 88 125 88 122 87 C122 86.34 122 85.68 122 85 C120.9275 84.896875 119.855 84.79375 118.75 84.6875 C111.03113017 83.7157983 103.54730517 81.71094511 96.3359375 78.8203125 C91.8141207 77.23238352 87.13000638 76.14542552 82.48828125 74.96484375 C79 74 79 74 76.35546875 72.75390625 C73.98997758 71.77694053 73.98997758 71.77694053 71.46875 72.57421875 C68.50959682 74.28322335 66.7135522 76.213135 64.5 78.8125 C63.72140625 79.7096875 62.9428125 80.606875 62.140625 81.53125 C61.43421875 82.3459375 60.7278125 83.160625 60 84 C57.4613511 86.59634547 54.87652582 89.11786171 52.25 91.625 C49.80995326 93.86533112 49.80995326 93.86533112 49 97 C44.84354491 101.47385711 40.20599117 105.48781415 35.640625 109.5390625 C33.19950715 111.75309962 31.22779492 113.61506312 29.5390625 116.46875 C26.89872128 120.81124013 22.87636202 123.84280321 19.09375 127.18359375 C15.69329736 130.245442 13.22420045 132.94853333 11 137 C9.38671875 138.84375 9.38671875 138.84375 7.6875 140.5 C7.07390625 141.09941406 6.4603125 141.69882813 5.828125 142.31640625 C4.25999276 143.76056222 2.60548185 145.10992261 0.9375 146.4375 C-1.44152488 148.51281958 -2.85424043 150.05349372 -4.625 152.5625 C-7.47256185 156.53389959 -10.73695754 159.93322574 -14.1875 163.375 C-14.71102051 163.89908447 -15.23454102 164.42316895 -15.77392578 164.96313477 C-18.08882968 167.24567019 -20.28628002 169.19085335 -23 171 C-23.40734375 171.71542969 -23.8146875 172.43085938 -24.234375 173.16796875 C-26.69964235 177.12221394 -29.91642324 180.08264172 -33.25 183.3125 C-37.76492583 187.75050328 -42.1687295 192.17545005 -46.2421875 197.02734375 C-49.54401625 200.73272935 -53.17388841 204.13526823 -56.7421875 207.58203125 C-59.18534371 209.86214236 -59.18534371 209.86214236 -60 213 C-63.95641265 217.25420716 -68.3501791 221.06606619 -72.71484375 224.89453125 C-75.83027975 227.69448006 -77.95334487 230.36748636 -80 234 C-81.578125 235.80859375 -81.578125 235.80859375 -83.25 237.4375 C-83.85972656 238.03304687 -84.46945313 238.62859375 -85.09765625 239.2421875 C-86.91234516 240.91900477 -88.7787584 242.49445851 -90.6875 244.0625 C-93.82620002 246.6931621 -95.7553507 249.56288076 -98 253 C-100.24133752 255.43036599 -102.61769962 257.70891382 -105 260 C-105.886875 260.9075 -106.77375 261.815 -107.6875 262.75 C-110 265 -110 265 -112.125 266.5 C-114.14294959 267.92713927 -114.14294959 267.92713927 -115.3125 270.28125 C-117.19428094 273.31300818 -119.31955997 275.51446562 -121.875 278 C-123.13957031 279.2375 -123.13957031 279.2375 -124.4296875 280.5 C-125.70199219 281.7375 -125.70199219 281.7375 -127 283 C-130.60120504 286.54721396 -133.96327603 290.1846315 -137.21484375 294.05078125 C-139 296 -139 296 -140.81640625 297.35546875 C-142.7834571 298.83874375 -143.86231883 299.79411436 -145 302 C-145.20241201 306.75135572 -144.70748937 311.30484327 -144 316 C-143.34 316 -142.68 316 -142 316 C-141.3248677 320.35289756 -140.66140624 324.70749743 -140 329.0625 C-139.80921875 330.29162109 -139.6184375 331.52074219 -139.421875 332.78710938 C-139.24140625 333.98271484 -139.0609375 335.17832031 -138.875 336.41015625 C-138.70742187 337.50465088 -138.53984375 338.59914551 -138.3671875 339.72680664 C-137.9800951 343.17743681 -137.93856147 346.53064309 -138 350 C-137.34 350 -136.68 350 -136 350 C-136 353.96 -136 357.92 -136 362 C-135.34 362 -134.68 362 -134 362 C-133.3248677 366.35289756 -132.66140624 370.70749743 -132 375.0625 C-131.80921875 376.29162109 -131.6184375 377.52074219 -131.421875 378.78710938 C-131.24140625 379.98271484 -131.0609375 381.17832031 -130.875 382.41015625 C-130.70742187 383.50465088 -130.53984375 384.59914551 -130.3671875 385.72680664 C-129.9800951 389.17743681 -129.93856147 392.53064309 -130 396 C-129.34 396.33 -128.68 396.66 -128 397 C-128.020625 397.804375 -128.04125 398.60875 -128.0625 399.4375 C-128.29633621 401.93354885 -128.29633621 401.93354885 -127 403 C-126.55513072 405.36814638 -126.16428203 407.72351743 -125.80859375 410.10546875 C-125.69902847 410.82229324 -125.5894632 411.53911774 -125.47657776 412.27766418 C-125.24510802 413.79978878 -125.01575455 415.32223644 -124.78833008 416.8449707 C-124.44141858 419.16133522 -124.08546143 421.47617882 -123.72851562 423.79101562 C-123.50465665 425.27074998 -123.2813326 426.75056537 -123.05859375 428.23046875 C-122.89924599 429.26206367 -122.89924599 429.26206367 -122.73667908 430.3144989 C-122.15714472 434.24484373 -121.89550163 438.02867652 -122 442 C-121.34 442.33 -120.68 442.66 -120 443 C-120.020625 443.804375 -120.04125 444.60875 -120.0625 445.4375 C-120.29633621 447.93354885 -120.29633621 447.93354885 -119 449 C-118.55513072 451.36814638 -118.16428203 453.72351743 -117.80859375 456.10546875 C-117.69902847 456.82229324 -117.5894632 457.53911774 -117.47657776 458.27766418 C-117.24510802 459.79978878 -117.01575455 461.32223644 -116.78833008 462.8449707 C-116.44141858 465.16133522 -116.08546143 467.47617882 -115.72851562 469.79101562 C-115.50465665 471.27074998 -115.2813326 472.75056537 -115.05859375 474.23046875 C-114.89924599 475.26206367 -114.89924599 475.26206367 -114.73667908 476.3144989 C-114.15714472 480.24484373 -113.89550163 484.02867652 -114 488 C-113.34 488 -112.68 488 -112 488 C-111.28113931 492.570501 -110.5693103 497.14202346 -109.86376953 501.71459961 C-109.62315253 503.26762893 -109.38066926 504.82037036 -109.13623047 506.37280273 C-108.78373364 508.61367541 -108.43812392 510.85552265 -108.09375 513.09765625 C-107.9843811 513.78336197 -107.87501221 514.46906769 -107.7623291 515.17555237 C-107.10851988 519.48723999 -106.90090438 523.64226997 -107 528 C-106.34 528 -105.68 528 -105 528 C-105.33 530.31 -105.66 532.62 -106 535 C-105.34 535 -104.68 535 -104 535 C-103.4926043 538.20720862 -102.995421 541.41592163 -102.5 544.625 C-102.35691406 545.52863281 -102.21382813 546.43226563 -102.06640625 547.36328125 C-101.36265833 551.95439866 -100.81415222 556.33831815 -101 561 C-108.87690257 561.41136629 -115.50298299 560.436168 -123 558 C-123 557.34 -123 556.68 -123 556 C-124.485 555.81050781 -124.485 555.81050781 -126 555.6171875 C-130.06828712 555.0339572 -134.01631631 554.12473671 -138 553.125 C-138.67289062 552.96386719 -139.34578125 552.80273438 -140.0390625 552.63671875 C-144.58439321 551.50477346 -148.70906327 549.90989746 -153 548 C-154.63759187 547.41393987 -156.28243086 546.84721465 -157.9375 546.3125 C-159.09572266 545.93544922 -159.09572266 545.93544922 -160.27734375 545.55078125 C-160.84582031 545.36902344 -161.41429687 545.18726563 -162 545 C-162 543.35 -162 541.7 -162 540 C-162.66 540 -163.32 540 -164 540 C-164.17128418 538.85523193 -164.34256836 537.71046387 -164.51904297 536.53100586 C-165.1592475 532.26060281 -165.80553656 527.99113867 -166.45361328 523.72192383 C-166.73260352 521.87842225 -167.00997049 520.03467422 -167.28564453 518.19067383 C-167.68349588 515.53138944 -168.0872879 512.87306298 -168.4921875 510.21484375 C-168.6131076 509.39789536 -168.73402771 508.58094696 -168.85861206 507.73924255 C-169.39876275 504.22622269 -170.02589674 500.9093614 -171.00439453 497.48461914 C-172.1835268 493.35765621 -172.82580664 489.27291145 -173.4375 485.03125 C-173.56310303 484.1921106 -173.68870605 483.35297119 -173.81811523 482.48840332 C-174.35079394 478.92865948 -174.87265652 475.36735062 -175.39550781 471.80615234 C-175.78074851 469.19311151 -176.17150613 466.58093516 -176.5625 463.96875 C-176.677146 463.17376099 -176.79179199 462.37877197 -176.90991211 461.55969238 C-177.60795119 456.9005664 -178.68967639 452.53331013 -180 448 C-180.43672074 445.52530479 -180.82925526 443.04251499 -181.18359375 440.5546875 C-181.39127444 439.13281227 -181.59895678 437.71093727 -181.80664062 436.2890625 C-182.121678 434.09135395 -182.43488563 431.89339331 -182.74731445 429.6953125 C-183.92262445 421.47278066 -185.29953408 413.43902364 -187.25708008 405.35888672 C-188.73504766 398.67670532 -189.63936351 391.89404811 -190.625 385.125 C-190.84327752 383.65357567 -191.06202549 382.18222104 -191.28125 380.7109375 C-192.8956034 369.84633756 -192.8956034 369.84633756 -193.44287109 365.40966797 C-193.9015139 362.03443828 -193.9015139 362.03443828 -194.98413086 359.0480957 C-196.17228931 355.48304925 -196.73701325 351.93691747 -197.25390625 348.23046875 C-197.35968491 347.50886063 -197.46546356 346.7872525 -197.57444763 346.04377747 C-197.90897472 343.7590675 -198.23642061 341.4734298 -198.5625 339.1875 C-198.89262922 336.88379831 -199.22437582 334.58038763 -199.56126404 332.27766418 C-199.77013684 330.84928808 -199.97505614 329.42032726 -200.17567444 327.99076843 C-200.42511588 324.71050247 -200.42511588 324.71050247 -202 322 C-202.48161622 319.28895447 -202.90940253 316.58726723 -203.3046875 313.86328125 C-203.4293338 313.03225388 -203.5539801 312.2012265 -203.68240356 311.34501648 C-204.21622508 307.78553422 -204.74064002 304.22468485 -205.26513672 300.66381836 C-206.66601351 291.18890954 -208.17600681 281.82040969 -210.27246094 272.46948242 C-211.54300691 266.41051301 -212.45033279 260.29593021 -213.36254883 254.17431641 C-213.69150025 251.97323346 -214.02994782 249.77374429 -214.36914062 247.57421875 C-214.58389509 246.15373065 -214.79810809 244.73316055 -215.01171875 243.3125 C-215.20209717 242.05050781 -215.39247559 240.78851563 -215.58862305 239.48828125 C-216.60731663 230.85024329 -216.60731663 230.85024329 -213.8125 226.9375 C-212.89086959 225.9433818 -211.95330749 224.9637834 -211 224 C-210.195625 223.154375 -209.39125 222.30875 -208.5625 221.4375 C-206.69987497 219.66573473 -204.87899016 218.08834775 -202.875 216.5 C-200.09188544 214.07990038 -198.81005675 212.14792478 -197 209 C-195.37660195 207.29115995 -193.70680947 205.62553283 -192 204 C-190.6696875 202.6078125 -190.6696875 202.6078125 -189.3125 201.1875 C-187 199 -187 199 -185 199 C-184.59587891 198.12021484 -184.59587891 198.12021484 -184.18359375 197.22265625 C-180.63744219 190.56338154 -174.35318313 185.30268779 -169.046875 180.06591797 C-166.44005378 177.48141542 -163.94014759 174.85870658 -161.5625 172.0625 C-158.06289503 167.95573465 -154.24017991 164.21275194 -150.40478516 160.42431641 C-147.05662297 157.10135206 -143.9123246 153.67947645 -140.86328125 150.078125 C-137.51475872 146.34350448 -133.86425597 142.90157695 -130.2578125 139.41796875 C-127.81465629 137.13785764 -127.81465629 137.13785764 -127 134 C-125.55492459 132.75198033 -124.10461682 131.50876285 -122.61328125 130.31640625 C-119.20199437 127.53286224 -116.31307901 124.37569481 -113.5 121 C-110.3908959 117.26907507 -106.97392535 113.94957722 -103.5 110.5625 C-101.68427065 108.70137741 -100.06223511 106.8872866 -98.4375 104.875 C-96 102 -96 102 -93.875 100.4375 C-91.80619037 99.03873408 -91.80619037 99.03873408 -90.5 96.4375 C-88.82652367 93.71810096 -87.77822857 93.34430415 -85 92 C-84.690625 91.38125 -84.38125 90.7625 -84.0625 90.125 C-83 88 -83 88 -80.64453125 86.13671875 C-78.1420072 84.11473847 -76.51934033 82.262202 -74.625 79.6875 C-70.31193614 74.14213219 -65.42523347 69.31587988 -60.42919922 64.39819336 C-56.68856222 60.70957474 -53.12298404 56.97054809 -49.734375 52.953125 C-46.97936009 49.85063073 -43.99596427 46.97590104 -41.04370117 44.06323242 C-37.84018026 40.88610057 -34.86513484 37.59482649 -31.9453125 34.16015625 C-29.38908103 31.32161006 -26.66441553 28.67343847 -23.9375 26 C-19.99653867 22.13206414 -16.54099099 18.26349894 -13.359375 13.734375 C-11.41837729 11.25792965 -9.10540464 9.40436546 -6.6484375 7.45703125 C-4.94939181 5.95526812 -3.83936921 4.42638626 -2.5625 2.5625 C-1.716875 1.716875 -0.87125 0.87125 0 0 Z " fill="#49BAC9" transform="translate(282,24)"/>
<path d="M0 0 C6.63181355 6.43723712 9.8831776 13.97112872 10.09765625 23.11328125 C10.10583357 32.03371907 7.57164902 38.78025834 1.8046875 45.703125 C-4.74835345 52.09402885 -12.82325475 54.69043854 -21.83984375 55.17578125 C-30.74410675 54.85814999 -38.29877773 51.21845028 -44.40234375 44.73828125 C-45.44765719 43.37605127 -46.45049319 41.97988279 -47.40234375 40.55078125 C-47.83417969 39.90753906 -48.26601563 39.26429688 -48.7109375 38.6015625 C-52.6109703 31.51672783 -52.31252727 23.36580523 -51.40234375 15.55078125 C-49.49269045 9.38354026 -46.33175087 4.7407773 -41.40234375 0.55078125 C-40.19578125 -0.50109375 -40.19578125 -0.50109375 -38.96484375 -1.57421875 C-26.65525554 -10.58123451 -11.88573491 -9.0758685 0 0 Z " fill="#E77233" transform="translate(427.40234375,254.44921875)"/>
<path d="M0 0 C8.22739277 4.87818864 13.24374335 11.12672724 16.20703125 20.30859375 C17.60867796 30.06621125 16.11553829 38.23353267 10.8046875 46.48828125 C5.9550158 52.7726969 -0.83197426 57.29939604 -8.73974609 58.63818359 C-18.93814267 59.70821944 -26.81246415 57.89188312 -35 51.6171875 C-41.36012118 45.96505755 -44.93947309 38.84498594 -46.234375 30.4453125 C-46.61477616 21.76971191 -43.59307668 13.78075522 -38.34375 6.90625 C-28.32714815 -3.41312067 -13.03163064 -6.24567372 0 0 Z " fill="#E77233" transform="translate(314.79296875,356.69140625)"/>
<path d="M0 0 C2.69141724 1.90381258 4.88026872 3.91359739 7.015625 6.42578125 C7.69625 7.14765625 8.376875 7.86953125 9.078125 8.61328125 C14.12323106 15.9368223 16.38148178 23.56584303 15.015625 32.42578125 C12.48773474 41.61705046 8.02972858 48.68197449 -0.13671875 53.765625 C-7.82482289 57.78863666 -15.36291408 58.35175672 -23.984375 57.42578125 C-33.15364014 54.51949955 -39.48531458 49.42118628 -44.29296875 41.18359375 C-48.04771917 33.25834199 -48.60792838 24.45642657 -45.9140625 16.109375 C-41.87180174 7.28487679 -36.03929801 1.13006794 -26.984375 -2.57421875 C-18.18698272 -5.36072309 -7.90936114 -4.64871392 0 0 Z " fill="#E87233" transform="translate(528.984375,357.57421875)"/>
<path d="M0 0 C7.69095155 4.52094195 13.01764033 10.606198 15.8515625 19.14453125 C17.39730625 27.66907847 17.34456516 36.54161833 12.8515625 44.10546875 C7.65200395 51.27858237 2.0898696 56.41586548 -6.75390625 58.3203125 C-16.78938657 59.35958554 -25.77729554 58.90308467 -33.96484375 52.625 C-40.02530303 47.06019167 -44.18769676 40.96523463 -45.1953125 32.69921875 C-45.50755245 22.69746818 -43.88845224 15.03472306 -37.75390625 7.0703125 C-27.72839628 -3.40219473 -13.1656444 -6.18288062 0 0 Z " fill="#E87133" transform="translate(420.75390625,462.6796875)"/>
<path d="M0 0 C5.36891879 0.49869404 10.69235173 1.02227532 16 2 C12.20942114 17.16231546 1.74235231 29.15007049 -9 40 C-9.60199219 40.66257812 -10.20398438 41.32515625 -10.82421875 42.0078125 C-19.17853452 51.05656761 -30.65796392 58.31855558 -42 63 C-42.66 63 -43.32 63 -44 63 C-44.66 57.72 -45.32 52.44 -46 47 C-43.7725 45.741875 -41.545 44.48375 -39.25 43.1875 C-31.5405937 38.6579927 -25.26726421 33.33961358 -19 27 C-18.19949219 26.20980469 -17.39898437 25.41960937 -16.57421875 24.60546875 C-9.67238282 17.41754635 -4.44779782 8.89559564 0 0 Z " fill="#E77335" transform="translate(497,429)"/>
<path d="M0 0 C0.4846875 0.89460938 0.969375 1.78921875 1.46875 2.7109375 C5.69735759 10.39281908 10.1240191 17.43707889 16 24 C16.79921875 24.89332031 17.5984375 25.78664063 18.421875 26.70703125 C26.40365136 35.1492947 35.59954 41.79977 46 47 C45.34 52.28 44.68 57.56 44 63 C19.10710468 54.70236823 -1.51127938 33.36663473 -13.125 10.25 C-16 4.34101382 -16 4.34101382 -16 2 C-14.45998293 1.65912666 -12.91787594 1.32769047 -11.375 1 C-10.08722656 0.7215625 -10.08722656 0.7215625 -8.7734375 0.4375 C-5.80730995 -0.03039618 -2.99792667 -0.07033259 0 0 Z " fill="#E77335" transform="translate(316,429)"/>
<path d="M0 0 C10.73349604 4.93272347 19.93352826 10.42968791 29 18 C29.69738281 18.556875 30.39476562 19.11375 31.11328125 19.6875 C43.41180816 29.72266164 52.39592402 43.74909921 59 58 C53.72 58.99 48.44 59.98 43 61 C41.741875 58.958125 40.48375 56.91625 39.1875 54.8125 C28.28971486 37.71667488 14.87128797 25.59026992 -3 16 C-2.30834212 10.58201328 -1.24200752 5.3177215 0 0 Z " fill="#E67336" transform="translate(453,280)"/>
<path d="M0 0 C0.53469802 1.72492978 1.05219175 3.455198 1.5625 5.1875 C1.85253906 6.15042969 2.14257812 7.11335938 2.44140625 8.10546875 C3.04769026 11.24712228 3.1594618 13.01564615 2 16 C-0.15234375 17.51953125 -0.15234375 17.51953125 -2.9375 18.8125 C-8.97810401 21.86410047 -13.86333671 25.62910393 -19 30 C-19.67675781 30.53109375 -20.35351562 31.0621875 -21.05078125 31.609375 C-30.35293086 39.14057428 -37.23726184 49.62238616 -43 60 C-43.56847656 59.86722656 -44.13695312 59.73445313 -44.72265625 59.59765625 C-45.49480469 59.42105469 -46.26695312 59.24445313 -47.0625 59.0625 C-47.81660156 58.88847656 -48.57070313 58.71445312 -49.34765625 58.53515625 C-52.54958413 57.88911189 -55.76394014 57.43966052 -59 57 C-50.30182269 37.78912494 -24.32903715 0 0 0 Z " fill="#E67335" transform="translate(360,281)"/>
<path d="M0 0 C0.66 0 1.32 0 2 0 C2.67415121 4.20716969 3.33799542 8.41590334 4 12.625 C4.19078125 13.81480469 4.3815625 15.00460937 4.578125 16.23046875 C4.75859375 17.38417969 4.9390625 18.53789062 5.125 19.7265625 C5.29257813 20.78439941 5.46015625 21.84223633 5.6328125 22.93212891 C5.99844148 25.9869785 6.06444822 28.92662562 6 32 C6.66 32 7.32 32 8 32 C10.31 48.17 12.62 64.34 15 81 C14.34 81 13.68 81 13 81 C12.82871582 79.85523193 12.65743164 78.71046387 12.48095703 77.53100586 C11.8407525 73.26060281 11.19446344 68.99113867 10.54638672 64.72192383 C10.26739648 62.87842225 9.99002951 61.03467422 9.71435547 59.19067383 C9.31650412 56.53138944 8.9127121 53.87306298 8.5078125 51.21484375 C8.3868924 50.39789536 8.26597229 49.58094696 8.14138794 48.73924255 C7.41616915 44.022581 6.31518938 39.59404767 5 35 C4.47862924 32.2319223 4.08986811 29.45089257 3.7109375 26.66015625 C3.54871201 25.50972084 3.54871201 25.50972084 3.38320923 24.33604431 C3.04248843 21.9121533 2.70863433 19.4873755 2.375 17.0625 C2.14368433 15.40813942 1.91191786 13.7538418 1.6796875 12.09960938 C1.11457863 8.06711528 0.55562146 4.03381181 0 0 Z " fill="#C7E2F1" transform="translate(105,483)"/>
<path d="M0 0 C0.99 0.33 1.98 0.66 3 1 C3.8817376 6.92523106 4.75432522 12.85170958 5.6184082 18.77954102 C5.91373727 20.79651354 6.21157677 22.81312012 6.51196289 24.8293457 C6.94294994 27.72515123 7.36493307 30.62214672 7.78515625 33.51953125 C7.92156021 34.42274612 8.05796417 35.325961 8.19850159 36.25654602 C8.31870163 37.09719101 8.43890167 37.937836 8.56274414 38.80395508 C8.67155411 39.54341873 8.78036407 40.28288239 8.89247131 41.04475403 C9 43 9 43 8 46 C6.51461055 41.1338248 5.47087662 36.34820728 4.74609375 31.30859375 C4.64031509 30.60025894 4.53453644 29.89192413 4.42555237 29.16212463 C4.09182219 26.92120609 3.76447092 24.67941372 3.4375 22.4375 C3.10550522 20.19224949 2.77220946 17.947195 2.43873596 15.7021637 C2.23275847 14.31214958 2.02788701 12.92197094 1.82432556 11.53160095 C1.25908948 7.67988646 0.65279987 3.83784044 0 0 Z " fill="#BBDBED" transform="translate(88,387)"/>
<path d="M0 0 C0.33 0.66 0.66 1.32 1 2 C0.67 2.99 0.34 3.98 0 5 C-0.66 5 -1.32 5 -2 5 C-2.21398437 5.56203125 -2.42796875 6.1240625 -2.6484375 6.703125 C-4.4681962 9.7956629 -6.81852388 11.53092586 -9.625 13.75 C-10.62789062 14.54921875 -11.63078125 15.3484375 -12.6640625 16.171875 C-13.43492187 16.77515625 -14.20578125 17.3784375 -15 18 C-15 15 -15 15 -13.62304688 13.2824707 C-12.99462891 12.66976318 -12.36621094 12.05705566 -11.71875 11.42578125 C-11.04199219 10.75869141 -10.36523438 10.09160156 -9.66796875 9.40429688 C-8.95253906 8.71400391 -8.23710937 8.02371094 -7.5 7.3125 C-6.42685547 6.2596582 -6.42685547 6.2596582 -5.33203125 5.18554688 C-3.56120423 3.45013639 -1.78376544 1.7220927 0 0 Z " fill="#A7D5E7" transform="translate(225,85)"/>
<path d="M0 0 C2.73044334 0.45156174 5.45916982 0.91098309 8.1875 1.375 C8.95642578 1.50132812 9.72535156 1.62765625 10.51757812 1.7578125 C14.57661938 2.45464362 18.22954016 3.2621127 22 5 C22 5.66 22 6.32 22 7 C14.59225491 5.60695059 7.29829463 3.88100377 0 2 C0 1.34 0 0.68 0 0 Z " fill="#A7D0DC" transform="translate(252,657)"/>
<path d="M0 0 C8.22338785 0.97958852 15.47115666 2.49900287 23 6 C19.84944088 7.0149482 17.88207228 6.95658521 14.70703125 6.07421875 C13.91232422 5.85443359 13.11761719 5.63464844 12.29882812 5.40820312 C11.47833984 5.17037109 10.65785156 4.93253906 9.8125 4.6875 C8.98041016 4.46126953 8.14832031 4.23503906 7.29101562 4.00195312 C2.72069186 2.70944918 2.72069186 2.70944918 1 2 C0.67 1.34 0.34 0.68 0 0 Z " fill="#A9CFDC" transform="translate(379,695)"/>
<path d="M0 0 C0.99966797 0.27263672 0.99966797 0.27263672 2.01953125 0.55078125 C3.40205078 0.92783203 3.40205078 0.92783203 4.8125 1.3125 C13.40625 3.65625 13.40625 3.65625 22 6 C22 6.33 22 6.66 22 7 C14.3299717 6.5697663 7.34103058 5.25768639 0 3 C0 2.01 0 1.02 0 0 Z " fill="#A9D3E8" transform="translate(410,61)"/>
<path d="M0 0 C0.89138672 0.27263672 0.89138672 0.27263672 1.80078125 0.55078125 C8.17086777 2.48261153 14.57058358 4.27652526 21 6 C21 6.33 21 6.66 21 7 C13.76410027 6.39700836 7.00629124 4.8849413 0 3 C0 2.01 0 1.02 0 0 Z " fill="#A8D4E8" transform="translate(360,46)"/>
<path d="M0 0 C13.6332574 1.74259681 13.6332574 1.74259681 20 5 C15.93812384 6.63936904 12.33508236 5.31657878 8.3125 4.1875 C7.62349609 4.00896484 6.93449219 3.83042969 6.22460938 3.64648438 C4.46282106 3.16662659 2.72805182 2.58991395 1 2 C0.67 1.34 0.34 0.68 0 0 Z " fill="#ABD1DD" transform="translate(302,672)"/>
<path d="M0 0 C7.02952752 0.4535179 12.5849443 2.12059087 19 5 C14.90913548 6.67641098 11.28488982 5.2409319 7.25 4.0625 C6.20392578 3.76956055 6.20392578 3.76956055 5.13671875 3.47070312 C3.42201027 2.9891754 1.71065123 2.49574843 0 2 C0 1.34 0 0.68 0 0 Z " fill="#ACD0DD" transform="translate(406,703)"/>
<path d="M0 0 C0.66 0 1.32 0 2 0 C4.29612756 13.6332574 4.29612756 13.6332574 4 20 C-0.01984912 13.97022631 -0.25729264 7.07554765 0 0 Z " fill="#93C8E0" transform="translate(111,515)"/>
<path d="M0 0 C0 4.17691418 -2.22986516 6.13681153 -5 9 C-6.94771005 10.75157063 -8.94324501 12.37372861 -11 14 C-11.66 13.67 -12.32 13.34 -13 13 C-8.71 8.71 -4.42 4.42 0 0 Z " fill="#197FA2" transform="translate(600,521)"/>
<path d="M0 0 C0 3.72055546 -0.81297638 5.01106771 -3 8 C-6.1875 10.3125 -6.1875 10.3125 -9 12 C-9.66 11.67 -10.32 11.34 -11 11 C-10.54109375 10.62488281 -10.0821875 10.24976562 -9.609375 9.86328125 C-5.96703891 6.82545052 -2.82808093 3.84619007 0 0 Z " fill="#A6D2E6" transform="translate(208,103)"/>
<path d="M0 0 C0 3.98056148 -1.442233 5.0159385 -4 8 C-4.7425 8.928125 -5.485 9.85625 -6.25 10.8125 C-6.8275 11.534375 -7.405 12.25625 -8 13 C-8.99 12.67 -9.98 12.34 -11 12 C-7.37 8.04 -3.74 4.08 0 0 Z " fill="#A4D2E8" transform="translate(143,172)"/>
<path d="M0 0 C0.66 0 1.32 0 2 0 C2 0.66 2 1.32 2 2 C3.11375 2.0825 4.2275 2.165 5.375 2.25 C9 3 9 3 10.4375 4.875 C11 7 11 7 11 10 C10.34 10 9.68 10 9 10 C8.67 8.02 8.34 6.04 8 4 C5.36 3.67 2.72 3.34 0 3 C0 2.01 0 1.02 0 0 Z " fill="#95CAE1" transform="translate(614,122)"/>
<path d="M0 0 C0 4.02197773 -1.2932859 5.07959795 -4 8 C-5.95851344 9.39355764 -7.95127113 10.74282547 -10 12 C-10 11.01 -10 10.02 -10 9 C-8.56196351 7.72537675 -7.11529986 6.45716576 -5.6015625 5.2734375 C-3.5766874 3.66341486 -1.79266285 1.86161142 0 0 Z " fill="#B7DBEE" transform="translate(165,149)"/>
<path d="M0 0 C0.66 0.33 1.32 0.66 2 1 C-1 4 -4 7 -7 10 C-7.66 9.67 -8.32 9.34 -9 9 C-6.03 6.03 -3.06 3.06 0 0 Z " fill="#1E7FA2" transform="translate(581,541)"/>
<path d="M0 0 C-1.5830577 4.2742558 -4.50568404 6.26531794 -8 9 C-8.66 8.67 -9.32 8.34 -10 8 C-8.71451591 6.66070495 -7.42141845 5.32871357 -6.125 4 C-5.04605469 2.88625 -5.04605469 2.88625 -3.9453125 1.75 C-2 0 -2 0 0 0 Z " fill="#1E81A3" transform="translate(475,656)"/>
<path d="M0 0 C0.33 0.66 0.66 1.32 1 2 C0.67 2.66 0.34 3.32 0 4 C-0.99 4 -1.98 4 -3 4 C-3.66 5.32 -4.32 6.64 -5 8 C-5.99 8 -6.98 8 -8 8 C-7.04578192 6.85073734 -6.08647955 5.70569459 -5.125 4.5625 C-4.59132813 3.92441406 -4.05765625 3.28632812 -3.5078125 2.62890625 C-2 1 -2 1 0 0 Z " fill="#2085A6" transform="translate(508,619)"/>
<path d="M0 0 C0 3 0 3 -1.53125 4.82421875 C-2.1809375 5.43910156 -2.830625 6.05398438 -3.5 6.6875 C-4.1496875 7.31011719 -4.799375 7.93273437 -5.46875 8.57421875 C-5.9740625 9.04472656 -6.479375 9.51523437 -7 10 C-7.33 9.34 -7.66 8.68 -8 8 C-5.33333333 5.33333333 -2.66666667 2.66666667 0 0 Z " fill="#C9DCE6" transform="translate(711,548)"/>
<path d="M0 0 C0.66 0 1.32 0 2 0 C2 0.66 2 1.32 2 2 C4.64 2.33 7.28 2.66 10 3 C10 3.33 10 3.66 10 4 C2.57142857 4.14285714 2.57142857 4.14285714 -1 3 C-0.67 2.01 -0.34 1.02 0 0 Z " fill="#86C2D0" transform="translate(653,183)"/>
<path d="M0 0 C0 4.31618166 -2.13270348 5.92789659 -5 9 C-5.66 9 -6.32 9 -7 9 C-5.44499019 5.18315774 -2.96404505 2.80804268 0 0 Z " fill="#ADD8EA" transform="translate(181,132)"/>
<path d="M0 0 C3.3 0.33 6.6 0.66 10 1 C10 1.99 10 2.98 10 4 C6.58978257 3.21302675 3.31114834 2.12880057 0 1 C0 0.67 0 0.34 0 0 Z " fill="#9DC9D5" transform="translate(472,723)"/>
<path d="M0 0 C0 3 0 3 -1.53125 4.60546875 C-2.1809375 5.12753906 -2.830625 5.64960937 -3.5 6.1875 C-4.1496875 6.71730469 -4.799375 7.24710938 -5.46875 7.79296875 C-5.9740625 8.19128906 -6.479375 8.58960938 -7 9 C-5.64978174 4.58110387 -3.73884332 2.65654657 0 0 Z " fill="#CEE2E9" transform="translate(603,663)"/>
<path d="M0 0 C0 3 0 3 -2.5 5.6875 C-3.325 6.450625 -4.15 7.21375 -5 8 C-5.66 7.67 -6.32 7.34 -7 7 C-4.78071806 4.09197539 -3.07030857 2.04687238 0 0 Z " fill="#AFD6EC" transform="translate(74,246)"/>
<path d="M0 0 C0.33 0.66 0.66 1.32 1 2 C-0.32 3.65 -1.64 5.3 -3 7 C-3.99 6.67 -4.98 6.34 -6 6 C-4.02 4.02 -2.04 2.04 0 0 Z " fill="#92C6E1" transform="translate(245,64)"/>
</svg>
