<svg xmlns="http://www.w3.org/2000/svg" width="436" height="436" viewBox="0 0 436 436" version="1.1"><path d="M 291.109 98.250 C 290.501 101.688, 283.203 145, 274.891 194.500 C 266.578 244, 259.490 284.768, 259.139 285.095 C 258.787 285.422, 223.400 300.439, 180.500 318.466 C 137.600 336.492, 102.136 351.574, 101.691 351.980 C 101.019 352.593, 162.970 403.493, 168.685 407.023 C 170.178 407.945, 179.815 404.466, 223 387.413 C 251.875 376.011, 276.175 366.721, 277 366.769 C 277.825 366.817, 311.321 376.798, 351.435 388.950 C 391.550 401.101, 424.677 410.921, 425.052 410.772 C 425.426 410.622, 405.560 383.806, 380.905 351.180 C 342.165 299.916, 336.149 291.497, 336.599 289.180 C 337.800 283.004, 361.797 141.493, 361.655 141.424 C 361.570 141.382, 346.090 130.245, 327.256 116.674 C 308.421 103.103, 292.832 92, 292.612 92 C 292.393 92, 291.716 94.813, 291.109 98.250" stroke="none" fill="#ec8334" fill-rule="evenodd"/><path d="M 121.500 56.383 L 31.500 91.585 30.764 95.043 C 29.894 99.133, 17.718 282.418, 18.182 284.439 C 18.357 285.200, 34.017 297.591, 52.983 311.973 C 81.913 333.912, 87.576 337.831, 88.146 336.311 C 88.520 335.315, 91.617 291.750, 95.028 239.500 C 98.439 187.250, 101.291 144.429, 101.365 144.341 C 101.439 144.254, 142.338 128.546, 192.250 109.434 C 242.162 90.322, 283 74.378, 283 74.003 C 283 72.853, 214.207 20.994, 212.808 21.090 C 212.089 21.139, 171 37.021, 121.500 56.383" stroke="none" fill="#1b6cc2" fill-rule="evenodd"/></svg>