<?xml version="1.0" encoding="UTF-8"?>
<svg version="1.1" xmlns="http://www.w3.org/2000/svg" width="593" height="623">
<path d="M0 0 C9.41797881 1.62966089 18.43373973 4.41499796 27.55859375 7.1953125 C29.33419035 7.7324252 31.10992585 8.26907892 32.88578796 8.80531311 C36.71738214 9.96314465 40.54812766 11.12372761 44.37823486 12.28646851 C53.77272452 15.13814234 63.17167406 17.97506788 72.57009125 20.81376457 C75.89809988 21.819112 79.22594175 22.82501008 82.55377197 23.83094788 C105.14383499 30.65738375 127.75403453 37.41606893 150.36621094 44.16882324 C184.39784125 54.33223024 218.42694046 64.50440638 252.44158936 74.72451782 C256.0780119 75.81699176 259.71494577 76.9077368 263.35235596 77.99691772 C267.53931726 79.25072627 271.72523273 80.50796281 275.91031456 81.76803017 C277.42697477 82.22404738 278.94400613 82.67883235 280.46143532 83.13228416 C282.51691213 83.74674995 284.57098504 84.36570003 286.62475586 84.98583984 C288.33906044 85.50058365 288.33906044 85.50058365 290.08799744 86.02572632 C294.9718596 87.65972844 294.9718596 87.65972844 297 89 C297.88825625 91.91459082 298.49644626 94.57673604 299 97.5625 C299.15952148 98.42842773 299.31904297 99.29435547 299.48339844 100.18652344 C300.01394907 103.12058219 300.51124263 106.05869503 301 109 C301.18626953 110.11938965 301.37253906 111.2387793 301.56445312 112.39208984 C302.75093386 119.58839716 303.89285243 126.79108094 305 134 C306.27431885 134.27021973 307.5486377 134.54043945 308.86157227 134.81884766 C316.99888643 136.63022758 324.95611999 139.10308132 332.94067383 141.48535156 C334.94910979 142.08158298 336.95956927 142.67103744 338.97192383 143.25390625 C341.89088968 144.09961231 344.80321235 144.96536219 347.71484375 145.8359375 C348.6168602 146.09337738 349.51887665 146.35081726 350.44822693 146.61605835 C351.27991898 146.86957062 352.11161102 147.12308289 352.96850586 147.38427734 C353.70080917 147.60030609 354.43311249 147.81633484 355.18760681 148.03890991 C357.67342683 149.35711006 357.94586712 150.36838419 359 153 C359.61112397 155.8179928 360.14758424 158.60752475 360.62930298 161.44760132 C360.78054229 162.30877741 360.9317816 163.16995349 361.08760393 164.05722582 C361.59388083 166.94908262 362.09109212 169.8424246 362.58837891 172.73583984 C362.94953033 174.80964459 363.31123851 176.88335244 363.67346191 178.95697021 C364.65885777 184.60742803 365.63641784 190.25921706 366.61264086 195.91126585 C367.642691 201.86697668 368.67993465 207.82143441 369.71640015 213.77603149 C371.68808121 225.10999739 373.65331036 236.44507218 375.61624181 247.78055632 C377.81784502 260.49256631 380.02637451 273.20336937 382.23562741 285.91405177 C384.9433934 301.49339327 387.64994084 317.07294537 390.35122681 332.65341187 C390.54246821 333.75627309 390.7337096 334.85913431 390.9307462 335.99541557 C391.86689851 341.39475844 392.80226451 346.79423553 393.73612404 352.19397545 C395.39512935 361.78160165 397.06120803 371.36780874 398.75566304 380.94924247 C399.51396537 385.23795028 400.26883464 389.52725967 401.02362514 393.81658673 C401.37993313 395.83495957 401.73807544 397.85300957 402.09817624 399.87070918 C402.5923866 402.6400484 403.08043838 405.41040946 403.56723022 408.18106079 C403.71353811 408.99087284 403.859846 409.8006849 404.01058745 410.63503671 C405.91945745 421.59731756 405.91945745 421.59731756 403.73413086 424.93115234 C403.15026611 425.47723145 402.56640137 426.02331055 401.96484375 426.5859375 C401.32369629 427.20259277 400.68254883 427.81924805 400.02197266 428.45458984 C398.99015869 429.40519287 398.99015869 429.40519287 397.9375 430.375 C396.54645422 431.7065358 395.15710645 433.03984795 393.76953125 434.375 C393.10775879 435.00535156 392.44598633 435.63570313 391.76416016 436.28515625 C389.20100732 438.77665716 386.90458659 441.45148973 384.6015625 444.1796875 C381.94932172 447.19418555 379.04863578 449.95879076 376.19140625 452.77734375 C373.57898932 455.4270144 371.16697379 458.21172803 368.74609375 461.03515625 C366.27396582 463.81699148 363.61569453 466.39375951 360.96484375 469.00390625 C359.07769256 470.92107177 357.31314625 472.89575322 355.5625 474.9375 C352.99334729 477.92801716 350.30682744 480.73116684 347.5 483.5 C344.71378859 486.2485599 342.04691608 489.02859791 339.5 492 C336.24835372 495.79358733 332.74286906 499.27392647 329.1875 502.78125 C327.20279658 504.79430632 325.33903084 506.85446403 323.5 509 C320.24835372 512.79358733 316.74286906 516.27392647 313.1875 519.78125 C311.20279658 521.79430632 309.33903084 523.85446403 307.5 526 C304.24955349 529.79218759 300.74550431 533.27135531 297.19140625 536.77734375 C294.57898932 539.4270144 292.16697379 542.21172803 289.74609375 545.03515625 C287.27396582 547.81699148 284.61569453 550.39375951 281.96484375 553.00390625 C280.07769256 554.92107177 278.31314625 556.89575322 276.5625 558.9375 C273.99334729 561.92801716 271.30682744 564.73116684 268.5 567.5 C265.71378859 570.2485599 263.04691608 573.02859791 260.5 576 C257.24835372 579.79358733 253.74286906 583.27392647 250.1875 586.78125 C248.20279658 588.79430632 246.33903084 590.85446403 244.5 593 C241.24835372 596.79358733 237.74286906 600.27392647 234.1875 603.78125 C231.64263963 606.36246552 229.29311562 609.07188598 226.93945312 611.82617188 C224.80046683 614.22364594 222.56134662 616.48654642 220.28125 618.75 C219.0756543 619.94882813 219.0756543 619.94882813 217.84570312 621.171875 C216.93208008 622.07679688 216.93208008 622.07679688 216 623 C193.39504173 616.89773987 171.021573 610.02037923 148.61761475 603.22607422 C136.74336793 599.62522453 124.86590984 596.03498856 112.98828125 592.4453125 C111.79327499 592.08409554 110.59826874 591.72287857 109.36705017 591.35071564 C88.41262546 585.01790138 67.44167834 578.74224582 46.4571228 572.5100708 C41.40262252 571.00871669 36.34932907 569.50332746 31.29614258 567.99755859 C16.46474051 563.57991342 1.62958529 559.17674113 -13.22466469 554.83643341 C-20.80576813 552.62086116 -28.38296404 550.39226016 -35.95764732 548.15483856 C-41.33173373 546.56853139 -46.71050667 544.9997037 -52.09354782 543.44407272 C-55.38301192 542.48889407 -58.66735504 541.51700493 -61.95045471 540.54019928 C-63.47432656 540.09055555 -65.00029187 539.6479398 -66.52836609 539.21279144 C-68.61230164 538.61833366 -70.68741847 537.99953493 -72.76220703 537.37402344 C-73.92559601 537.03417419 -75.08898499 536.69432495 -76.28762817 536.34417725 C-79 535 -79 535 -80.33551025 532.61659241 C-80.916247 530.32979812 -81.47106695 528.0854428 -81.86962891 525.76049805 C-82.00962311 524.96004562 -82.14961731 524.1595932 -82.29385376 523.33488464 C-82.43664764 522.4857399 -82.57944153 521.63659515 -82.7265625 520.76171875 C-82.87910492 519.88095169 -83.03164734 519.00018463 -83.18881226 518.09272766 C-83.67269247 515.29184329 -84.14894648 512.48972414 -84.625 509.6875 C-84.95262194 507.78311651 -85.28074139 505.87881854 -85.609375 503.97460938 C-86.41201676 499.31737724 -87.20782358 494.65902318 -88 490 C-91.60234057 488.82764901 -95.20715961 487.66309067 -98.8125 486.5 C-99.91859619 486.14123779 -101.02469238 485.78247559 -102.16430664 485.4128418 C-108.28148991 483.44665024 -114.4092938 481.57964254 -120.6015625 479.86328125 C-122.44077271 479.34701172 -122.44077271 479.34701172 -124.31713867 478.8203125 C-126.70323474 478.15608669 -129.09404014 477.50851969 -131.48950195 476.87890625 C-132.57448975 476.5746875 -133.65947754 476.27046875 -134.77734375 475.95703125 C-136.21968384 475.56994995 -136.21968384 475.56994995 -137.69116211 475.17504883 C-140.81236038 473.58656122 -140.9212587 472.30317739 -142 469 C-142.53939502 466.48433874 -143.02059982 463.99393571 -143.45053101 461.46008301 C-143.58261385 460.70820221 -143.71469669 459.95632142 -143.85078204 459.18165636 C-144.29163378 456.6643 -144.7246509 454.14565999 -145.15771484 451.62695312 C-145.47304065 449.81692956 -145.78884904 448.00699 -146.10510254 446.1971283 C-146.9660474 441.26197511 -147.8201987 436.32566714 -148.67319822 431.38913536 C-149.5791791 426.15298317 -150.49143116 420.91792365 -151.40298462 415.68273926 C-153.14256345 405.68648133 -154.87655082 395.68926183 -156.60854399 385.69168711 C-158.53122289 374.59488004 -160.45978727 363.49909901 -162.38903761 352.40343285 C-164.82226122 338.40918135 -167.25441909 324.41474801 -169.68011475 310.41918945 C-170.40488172 306.23778855 -171.1296661 302.05639066 -171.85449219 297.875 C-172.11895999 296.34929917 -172.11895999 296.34929917 -172.38877058 294.79277611 C-174.68917352 281.5245684 -177.00184408 268.25858093 -179.32961059 254.99514675 C-179.77060731 252.48146413 -180.21105525 249.96768608 -180.65126228 247.45386505 C-180.79172065 246.65177219 -180.93217901 245.84967933 -181.07689369 245.02328062 C-181.35329359 243.44474513 -181.62966552 241.86620473 -181.90600789 240.28765917 C-182.68743314 235.82591001 -183.4725335 231.36482844 -184.26054859 226.9042387 C-184.619964 224.86605458 -184.97748673 222.8275497 -185.33413315 220.78887939 C-185.759551 218.35731092 -186.18802592 215.92627431 -186.62027359 213.49591064 C-186.80436657 212.438255 -186.98845955 211.38059937 -187.1781311 210.29089355 C-187.3381492 209.38236382 -187.4981673 208.47383408 -187.66303444 207.53777313 C-188.55548113 200.81653069 -188.55548113 200.81653069 -186.82592773 198.27416992 C-186.28395752 197.76474854 -185.7419873 197.25532715 -185.18359375 196.73046875 C-184.28954834 195.86832764 -184.28954834 195.86832764 -183.37744141 194.98876953 C-182.41717041 194.09714111 -182.41717041 194.09714111 -181.4375 193.1875 C-180.14013253 191.94066669 -178.84453926 190.69198447 -177.55078125 189.44140625 C-176.93025879 188.84602051 -176.30973633 188.25063477 -175.67041016 187.63720703 C-173.13849081 185.15561522 -170.85903925 182.49183028 -168.5703125 179.7890625 C-166.17052913 177.05498094 -163.55590322 174.54736728 -160.96484375 171.99609375 C-159.07769256 170.07892823 -157.31314625 168.10424678 -155.5625 166.0625 C-152.99334729 163.07198284 -150.30682744 160.26883316 -147.5 157.5 C-144.71378859 154.7514401 -142.04691608 151.97140209 -139.5 149 C-136.24835372 145.20641267 -132.74286906 141.72607353 -129.1875 138.21875 C-127.20279658 136.20569368 -125.33903084 134.14553597 -123.5 132 C-120.24835372 128.20641267 -116.74286906 124.72607353 -113.1875 121.21875 C-111.20279658 119.20569368 -109.33903084 117.14553597 -107.5 115 C-104.24955349 111.20781241 -100.74550431 107.72864469 -97.19140625 104.22265625 C-94.57898932 101.5729856 -92.16697379 98.78827197 -89.74609375 95.96484375 C-87.27396582 93.18300852 -84.61569453 90.60624049 -81.96484375 87.99609375 C-80.07769256 86.07892823 -78.31314625 84.10424678 -76.5625 82.0625 C-73.99334729 79.07198284 -71.30682744 76.26883316 -68.5 73.5 C-65.71378859 70.7514401 -63.04691608 67.97140209 -60.5 65 C-57.24835372 61.20641267 -53.74286906 57.72607353 -50.1875 54.21875 C-48.20279658 52.20569368 -46.33903084 50.14553597 -44.5 48 C-41.24835372 44.20641267 -37.74286906 40.72607353 -34.1875 37.21875 C-32.20279658 35.20569368 -30.33903084 33.14553597 -28.5 31 C-25.24955349 27.20781241 -21.74550431 23.72864469 -18.19140625 20.22265625 C-15.58664308 17.5807485 -13.18054747 14.80583885 -10.76953125 11.98828125 C-8.17931928 9.07786647 -5.39843912 6.3745491 -2.6015625 3.6640625 C-0.91371276 2.07577267 -0.91371276 2.07577267 0 0 Z " fill="#68EAF1" transform="translate(188,0)"/>
<path d="M0 0 C9.41797881 1.62966089 18.43373973 4.41499796 27.55859375 7.1953125 C29.33419035 7.7324252 31.10992585 8.26907892 32.88578796 8.80531311 C36.71738214 9.96314465 40.54812766 11.12372761 44.37823486 12.28646851 C53.77272452 15.13814234 63.17167406 17.97506788 72.57009125 20.81376457 C75.89809988 21.819112 79.22594175 22.82501008 82.55377197 23.83094788 C105.14383499 30.65738375 127.75403453 37.41606893 150.36621094 44.16882324 C184.39784125 54.33223024 218.42694046 64.50440638 252.44158936 74.72451782 C256.0780119 75.81699176 259.71494577 76.9077368 263.35235596 77.99691772 C267.53931726 79.25072627 271.72523273 80.50796281 275.91031456 81.76803017 C277.42697477 82.22404738 278.94400613 82.67883235 280.46143532 83.13228416 C282.51691213 83.74674995 284.57098504 84.36570003 286.62475586 84.98583984 C288.33906044 85.50058365 288.33906044 85.50058365 290.08799744 86.02572632 C294.9718596 87.65972844 294.9718596 87.65972844 297 89 C297.88825625 91.91459082 298.49644626 94.57673604 299 97.5625 C299.15952148 98.42842773 299.31904297 99.29435547 299.48339844 100.18652344 C300.01394907 103.12058219 300.51124263 106.05869503 301 109 C301.18626953 110.11938965 301.37253906 111.2387793 301.56445312 112.39208984 C302.75093386 119.58839716 303.89285243 126.79108094 305 134 C306.27431885 134.27021973 307.5486377 134.54043945 308.86157227 134.81884766 C316.99888643 136.63022758 324.95611999 139.10308132 332.94067383 141.48535156 C334.94910979 142.08158298 336.95956927 142.67103744 338.97192383 143.25390625 C341.89088968 144.09961231 344.80321235 144.96536219 347.71484375 145.8359375 C348.6168602 146.09337738 349.51887665 146.35081726 350.44822693 146.61605835 C351.27991898 146.86957062 352.11161102 147.12308289 352.96850586 147.38427734 C353.70080917 147.60030609 354.43311249 147.81633484 355.18760681 148.03890991 C357.67342683 149.35711006 357.94586712 150.36838419 359 153 C359.61112397 155.8179928 360.14758424 158.60752475 360.62930298 161.44760132 C360.78054229 162.30877741 360.9317816 163.16995349 361.08760393 164.05722582 C361.59388083 166.94908262 362.09109212 169.8424246 362.58837891 172.73583984 C362.94953033 174.80964459 363.31123851 176.88335244 363.67346191 178.95697021 C364.65885777 184.60742803 365.63641784 190.25921706 366.61264086 195.91126585 C367.642691 201.86697668 368.67993465 207.82143441 369.71640015 213.77603149 C371.68808121 225.10999739 373.65331036 236.44507218 375.61624181 247.78055632 C377.81784502 260.49256631 380.02637451 273.20336937 382.23562741 285.91405177 C384.9433934 301.49339327 387.64994084 317.07294537 390.35122681 332.65341187 C390.54246821 333.75627309 390.7337096 334.85913431 390.9307462 335.99541557 C391.86689851 341.39475844 392.80226451 346.79423553 393.73612404 352.19397545 C395.39512935 361.78160165 397.06120803 371.36780874 398.75566304 380.94924247 C399.51396537 385.23795028 400.26883464 389.52725967 401.02362514 393.81658673 C401.37993313 395.83495957 401.73807544 397.85300957 402.09817624 399.87070918 C402.5923866 402.6400484 403.08043838 405.41040946 403.56723022 408.18106079 C403.71353811 408.99087284 403.859846 409.8006849 404.01058745 410.63503671 C405.91945745 421.59731756 405.91945745 421.59731756 403.73413086 424.93115234 C403.15026611 425.47723145 402.56640137 426.02331055 401.96484375 426.5859375 C401.32369629 427.20259277 400.68254883 427.81924805 400.02197266 428.45458984 C398.99015869 429.40519287 398.99015869 429.40519287 397.9375 430.375 C396.54645422 431.7065358 395.15710645 433.03984795 393.76953125 434.375 C393.10775879 435.00535156 392.44598633 435.63570313 391.76416016 436.28515625 C389.20100732 438.77665716 386.90458659 441.45148973 384.6015625 444.1796875 C381.94932172 447.19418555 379.04863578 449.95879076 376.19140625 452.77734375 C373.57898932 455.4270144 371.16697379 458.21172803 368.74609375 461.03515625 C366.27396582 463.81699148 363.61569453 466.39375951 360.96484375 469.00390625 C359.07769256 470.92107177 357.31314625 472.89575322 355.5625 474.9375 C352.99334729 477.92801716 350.30682744 480.73116684 347.5 483.5 C344.71378859 486.2485599 342.04691608 489.02859791 339.5 492 C336.24835372 495.79358733 332.74286906 499.27392647 329.1875 502.78125 C327.20279658 504.79430632 325.33903084 506.85446403 323.5 509 C320.24835372 512.79358733 316.74286906 516.27392647 313.1875 519.78125 C311.20279658 521.79430632 309.33903084 523.85446403 307.5 526 C304.24955349 529.79218759 300.74550431 533.27135531 297.19140625 536.77734375 C294.57898932 539.4270144 292.16697379 542.21172803 289.74609375 545.03515625 C287.27396582 547.81699148 284.61569453 550.39375951 281.96484375 553.00390625 C280.07769256 554.92107177 278.31314625 556.89575322 276.5625 558.9375 C273.99334729 561.92801716 271.30682744 564.73116684 268.5 567.5 C265.71378859 570.2485599 263.04691608 573.02859791 260.5 576 C257.24835372 579.79358733 253.74286906 583.27392647 250.1875 586.78125 C248.20279658 588.79430632 246.33903084 590.85446403 244.5 593 C241.24835372 596.79358733 237.74286906 600.27392647 234.1875 603.78125 C231.64263963 606.36246552 229.29311562 609.07188598 226.93945312 611.82617188 C224.80046683 614.22364594 222.56134662 616.48654642 220.28125 618.75 C219.0756543 619.94882813 219.0756543 619.94882813 217.84570312 621.171875 C216.93208008 622.07679688 216.93208008 622.07679688 216 623 C193.39504173 616.89773987 171.021573 610.02037923 148.61761475 603.22607422 C136.74336793 599.62522453 124.86590984 596.03498856 112.98828125 592.4453125 C111.79327499 592.08409554 110.59826874 591.72287857 109.36705017 591.35071564 C88.41262546 585.01790138 67.44167834 578.74224582 46.4571228 572.5100708 C41.40262252 571.00871669 36.34932907 569.50332746 31.29614258 567.99755859 C16.46474051 563.57991342 1.62958529 559.17674113 -13.22466469 554.83643341 C-20.80576813 552.62086116 -28.38296404 550.39226016 -35.95764732 548.15483856 C-41.33173373 546.56853139 -46.71050667 544.9997037 -52.09354782 543.44407272 C-55.38301192 542.48889407 -58.66735504 541.51700493 -61.95045471 540.54019928 C-63.47432656 540.09055555 -65.00029187 539.6479398 -66.52836609 539.21279144 C-68.61230164 538.61833366 -70.68741847 537.99953493 -72.76220703 537.37402344 C-73.92559601 537.03417419 -75.08898499 536.69432495 -76.28762817 536.34417725 C-79 535 -79 535 -80.33551025 532.61659241 C-80.916247 530.32979812 -81.47106695 528.0854428 -81.86962891 525.76049805 C-82.00962311 524.96004562 -82.14961731 524.1595932 -82.29385376 523.33488464 C-82.43664764 522.4857399 -82.57944153 521.63659515 -82.7265625 520.76171875 C-82.87910492 519.88095169 -83.03164734 519.00018463 -83.18881226 518.09272766 C-83.67269247 515.29184329 -84.14894648 512.48972414 -84.625 509.6875 C-84.95262194 507.78311651 -85.28074139 505.87881854 -85.609375 503.97460938 C-86.41201676 499.31737724 -87.20782358 494.65902318 -88 490 C-91.60234057 488.82764901 -95.20715961 487.66309067 -98.8125 486.5 C-99.91859619 486.14123779 -101.02469238 485.78247559 -102.16430664 485.4128418 C-108.28148991 483.44665024 -114.4092938 481.57964254 -120.6015625 479.86328125 C-122.44077271 479.34701172 -122.44077271 479.34701172 -124.31713867 478.8203125 C-126.70323474 478.15608669 -129.09404014 477.50851969 -131.48950195 476.87890625 C-132.57448975 476.5746875 -133.65947754 476.27046875 -134.77734375 475.95703125 C-136.21968384 475.56994995 -136.21968384 475.56994995 -137.69116211 475.17504883 C-140.81236038 473.58656122 -140.9212587 472.30317739 -142 469 C-142.53939502 466.48433874 -143.02059982 463.99393571 -143.45053101 461.46008301 C-143.58261385 460.70820221 -143.71469669 459.95632142 -143.85078204 459.18165636 C-144.29163378 456.6643 -144.7246509 454.14565999 -145.15771484 451.62695312 C-145.47304065 449.81692956 -145.78884904 448.00699 -146.10510254 446.1971283 C-146.9660474 441.26197511 -147.8201987 436.32566714 -148.67319822 431.38913536 C-149.5791791 426.15298317 -150.49143116 420.91792365 -151.40298462 415.68273926 C-153.14256345 405.68648133 -154.87655082 395.68926183 -156.60854399 385.69168711 C-158.53122289 374.59488004 -160.45978727 363.49909901 -162.38903761 352.40343285 C-164.82226122 338.40918135 -167.25441909 324.41474801 -169.68011475 310.41918945 C-170.40488172 306.23778855 -171.1296661 302.05639066 -171.85449219 297.875 C-172.11895999 296.34929917 -172.11895999 296.34929917 -172.38877058 294.79277611 C-174.68917352 281.5245684 -177.00184408 268.25858093 -179.32961059 254.99514675 C-179.77060731 252.48146413 -180.21105525 249.96768608 -180.65126228 247.45386505 C-180.79172065 246.65177219 -180.93217901 245.84967933 -181.07689369 245.02328062 C-181.35329359 243.44474513 -181.62966552 241.86620473 -181.90600789 240.28765917 C-182.68743314 235.82591001 -183.4725335 231.36482844 -184.26054859 226.9042387 C-184.619964 224.86605458 -184.97748673 222.8275497 -185.33413315 220.78887939 C-185.759551 218.35731092 -186.18802592 215.92627431 -186.62027359 213.49591064 C-186.80436657 212.438255 -186.98845955 211.38059937 -187.1781311 210.29089355 C-187.3381492 209.38236382 -187.4981673 208.47383408 -187.66303444 207.53777313 C-188.55548113 200.81653069 -188.55548113 200.81653069 -186.82592773 198.27416992 C-186.28395752 197.76474854 -185.7419873 197.25532715 -185.18359375 196.73046875 C-184.28954834 195.86832764 -184.28954834 195.86832764 -183.37744141 194.98876953 C-182.41717041 194.09714111 -182.41717041 194.09714111 -181.4375 193.1875 C-180.14013253 191.94066669 -178.84453926 190.69198447 -177.55078125 189.44140625 C-176.93025879 188.84602051 -176.30973633 188.25063477 -175.67041016 187.63720703 C-173.13849081 185.15561522 -170.85903925 182.49183028 -168.5703125 179.7890625 C-166.17052913 177.05498094 -163.55590322 174.54736728 -160.96484375 171.99609375 C-159.07769256 170.07892823 -157.31314625 168.10424678 -155.5625 166.0625 C-152.99334729 163.07198284 -150.30682744 160.26883316 -147.5 157.5 C-144.71378859 154.7514401 -142.04691608 151.97140209 -139.5 149 C-136.24835372 145.20641267 -132.74286906 141.72607353 -129.1875 138.21875 C-127.20279658 136.20569368 -125.33903084 134.14553597 -123.5 132 C-120.24835372 128.20641267 -116.74286906 124.72607353 -113.1875 121.21875 C-111.20279658 119.20569368 -109.33903084 117.14553597 -107.5 115 C-104.24955349 111.20781241 -100.74550431 107.72864469 -97.19140625 104.22265625 C-94.57898932 101.5729856 -92.16697379 98.78827197 -89.74609375 95.96484375 C-87.27396582 93.18300852 -84.61569453 90.60624049 -81.96484375 87.99609375 C-80.07769256 86.07892823 -78.31314625 84.10424678 -76.5625 82.0625 C-73.99334729 79.07198284 -71.30682744 76.26883316 -68.5 73.5 C-65.71378859 70.7514401 -63.04691608 67.97140209 -60.5 65 C-57.24835372 61.20641267 -53.74286906 57.72607353 -50.1875 54.21875 C-48.20279658 52.20569368 -46.33903084 50.14553597 -44.5 48 C-41.24835372 44.20641267 -37.74286906 40.72607353 -34.1875 37.21875 C-32.20279658 35.20569368 -30.33903084 33.14553597 -28.5 31 C-25.24955349 27.20781241 -21.74550431 23.72864469 -18.19140625 20.22265625 C-15.58664308 17.5807485 -13.18054747 14.80583885 -10.76953125 11.98828125 C-8.17931928 9.07786647 -5.39843912 6.3745491 -2.6015625 3.6640625 C-0.91371276 2.07577267 -0.91371276 2.07577267 0 0 Z M58.23046875 64.59765625 C57.20555057 65.74321218 56.19173862 66.89877303 55.1875 68.0625 C54.11568663 69.26660799 53.04277772 70.46974173 51.96875 71.671875 C51.45570313 72.25130859 50.94265625 72.83074219 50.4140625 73.42773438 C48.73676126 75.29268948 46.98524348 77.06378589 45.1875 78.8125 C42.87825144 81.07723293 40.73283834 83.42145697 38.625 85.875 C36.03365795 88.8846753 33.32745217 91.71088616 30.5 94.5 C27.0711721 97.88241399 23.87951482 101.38070442 20.74609375 105.03515625 C18.27396582 107.81699148 15.61569453 110.39375951 12.96484375 113.00390625 C11.07769256 114.92107177 9.31314625 116.89575322 7.5625 118.9375 C4.99334729 121.92801716 2.30682744 124.73116684 -0.5 127.5 C-3.28621141 130.2485599 -5.95308392 133.02859791 -8.5 136 C-11.75164628 139.79358733 -15.25713094 143.27392647 -18.8125 146.78125 C-20.79720342 148.79430632 -22.66096916 150.85446403 -24.5 153 C-27.75164628 156.79358733 -31.25713094 160.27392647 -34.8125 163.78125 C-36.79720342 165.79430632 -38.66096916 167.85446403 -40.5 170 C-43.75044651 173.79218759 -47.25449569 177.27135531 -50.80859375 180.77734375 C-53.42101068 183.4270144 -55.83302621 186.21172803 -58.25390625 189.03515625 C-60.72603418 191.81699148 -63.38430547 194.39375951 -66.03515625 197.00390625 C-67.92230744 198.92107177 -69.68685375 200.89575322 -71.4375 202.9375 C-74.00665271 205.92801716 -76.69317256 208.73116684 -79.5 211.5 C-82.28621141 214.2485599 -84.95308392 217.02859791 -87.5 220 C-90.75164628 223.79358733 -94.25713094 227.27392647 -97.8125 230.78125 C-99.79720342 232.79430632 -101.66096916 234.85446403 -103.5 237 C-106.74564737 240.7865886 -110.24395347 244.26107165 -113.79296875 247.76171875 C-116.45631958 250.46278074 -118.94018915 253.28511166 -121.39453125 256.17578125 C-123 258 -123 258 -125.14158249 259.69615173 C-127.31521402 261.90178536 -127.31521402 261.90178536 -127.021595 265.04566956 C-126.7967178 266.24690964 -126.57184059 267.44814972 -126.34014893 268.68579102 C-126.22181812 269.35559179 -126.10348731 270.02539257 -125.98157072 270.71549034 C-125.58018844 272.96171778 -125.14752626 275.2008259 -124.71582031 277.44140625 C-124.4233713 279.05183664 -124.13350147 280.66273723 -123.84602737 282.27406311 C-123.22839294 285.72819855 -122.60081209 289.1803289 -121.96766663 292.63165283 C-120.51161428 300.63417556 -119.21458607 308.66292182 -117.9027667 316.69008064 C-117.1242418 321.44278835 -116.33502104 326.19371366 -115.54534912 330.94458008 C-115.30292162 332.40341755 -115.30292162 332.40341755 -115.05559659 333.89172649 C-112.77089851 347.62194793 -110.44617734 361.34545914 -108.11733627 375.06825256 C-106.22806366 386.2078581 -104.3565259 397.34994227 -102.52392578 408.49902344 C-100.90808883 418.32907021 -99.26074818 428.1532162 -97.57495046 437.97151661 C-96.68848618 443.14090357 -95.81787355 448.31182809 -94.98537445 453.49020386 C-94.20672265 458.33065504 -93.38617438 463.16207862 -92.53256416 467.98985672 C-92.22738772 469.75935359 -91.93769104 471.53160061 -91.66469383 473.30634689 C-90.61703361 482.46484759 -90.61703361 482.46484759 -85.84403133 489.84841537 C-83.21584696 490.94793519 -80.80282726 491.51435239 -78 492 C-76.47911743 492.47471293 -74.96383465 492.96781876 -73.45533752 493.48052979 C-71.88512799 493.95299497 -70.31343105 494.42053788 -68.74047852 494.88378906 C-67.86508989 495.14573468 -66.98970127 495.4076803 -66.08778572 495.67756367 C-63.18611781 496.54464979 -60.28253292 497.40512319 -57.37890625 498.265625 C-55.28550495 498.88979621 -53.1922313 499.51439566 -51.09907532 500.13938904 C-46.6062982 501.47993316 -42.11267286 502.81758052 -37.61834717 504.15292358 C-30.50026029 506.26783464 -23.38401227 508.38888434 -16.26806641 510.51098633 C-8.831926 512.72823977 -1.39563909 514.94499666 6.0413208 517.15950012 C23.79573219 522.44632075 41.54581458 527.74745389 59.29296875 533.05859375 C60.51471487 533.42419781 61.73646099 533.78980186 62.99522972 534.16648483 C69.02658363 535.97137829 75.05788221 537.77645656 81.08914185 539.58166504 C91.26509851 542.62738776 101.44122463 545.67254299 111.61780739 548.71617317 C113.62661031 549.31704777 115.63536958 549.91806829 117.64407921 550.51925468 C118.58425203 550.80063852 119.52442486 551.08202236 120.49308777 551.37193298 C121.40652923 551.64544366 122.31997068 551.91895433 123.26109219 552.20075321 C125.02166535 552.72664289 126.78282509 553.25057368 128.54462528 553.77233791 C132.69462206 555.00207048 136.83239211 556.25779329 140.95550537 557.57510376 C142.12821393 557.94181671 142.12821393 557.94181671 143.32461357 558.315938 C144.78343292 558.77277351 146.23880973 559.24081944 147.68968391 559.7222929 C150.58348451 560.61714377 152.4449081 561.18652362 155.36763 560.204422 C157.04108219 558.96968807 158.5235592 557.71947064 159.98828125 556.2421875 C160.79507324 555.43346191 160.79507324 555.43346191 161.61816406 554.60839844 C162.17729492 554.03637695 162.73642578 553.46435547 163.3125 552.875 C163.89354492 552.28750977 164.47458984 551.70001953 165.07324219 551.09472656 C168.63190877 547.47226315 172.04166316 543.76279291 175.328125 539.890625 C178.01142844 536.85623513 180.92996621 534.06233063 183.8125 531.21875 C185.79720342 529.20569368 187.66096916 527.14553597 189.5 525 C192.75044651 521.20781241 196.25449569 517.72864469 199.80859375 514.22265625 C202.42101068 511.5729856 204.83302621 508.78827197 207.25390625 505.96484375 C209.72603418 503.18300852 212.38430547 500.60624049 215.03515625 497.99609375 C216.92230744 496.07892823 218.68685375 494.10424678 220.4375 492.0625 C223.00665271 489.07198284 225.69317256 486.26883316 228.5 483.5 C231.28621141 480.7514401 233.95308392 477.97140209 236.5 475 C239.75164628 471.20641267 243.25713094 467.72607353 246.8125 464.21875 C248.79720342 462.20569368 250.66096916 460.14553597 252.5 458 C255.75164628 454.20641267 259.25713094 450.72607353 262.8125 447.21875 C264.79720342 445.20569368 266.66096916 443.14553597 268.5 441 C271.75044651 437.20781241 275.25449569 433.72864469 278.80859375 430.22265625 C281.42101068 427.5729856 283.83302621 424.78827197 286.25390625 421.96484375 C288.72603418 419.18300852 291.38430547 416.60624049 294.03515625 413.99609375 C295.92230744 412.07892823 297.68685375 410.10424678 299.4375 408.0625 C302.00665271 405.07198284 304.69317256 402.26883316 307.5 399.5 C310.28621141 396.7514401 312.95308392 393.97140209 315.5 391 C318.75164628 387.20641267 322.25713094 383.72607353 325.8125 380.21875 C328.36633987 377.6284267 330.73195108 374.92337228 333.05728245 372.12778664 C335 370 335 370 337.33992672 368.0549984 C342.19852045 364.00224343 342.19852045 364.00224343 344.49473763 358.32048416 C344.29898195 355.19673167 343.80192778 352.27789681 343.16430664 349.21337891 C342.96668921 348.05931864 342.76907177 346.90525837 342.56546593 345.71622658 C342.01164278 342.54259724 341.41294467 339.38149558 340.79374194 336.22010136 C340.14309712 332.83862558 339.55208233 329.44671461 338.95411682 326.05560303 C337.92239054 320.25080711 336.85435849 314.45370088 335.76031494 308.66033936 C334.19651446 300.37857293 332.68883449 292.08740165 331.19701719 283.7924006 C329.0160975 271.66923694 326.8051982 259.55187511 324.56822062 247.4389379 C321.59267181 231.3234926 318.71460335 215.19311353 315.91015625 199.046875 C315.72163401 197.96270168 315.53311176 196.87852837 315.33887672 195.76150131 C314.61257886 191.58404499 313.88682941 187.40649429 313.1622324 183.2287426 C311.52937245 173.81436341 309.88457975 164.40212634 308.22419548 154.99256134 C307.93809307 153.36909836 307.65286674 151.7454807 307.36859322 150.12169647 C306.98695366 147.94191473 306.60251795 145.76264522 306.21728516 143.58349609 C306.0046402 142.37470795 305.79199524 141.1659198 305.57290649 139.92050171 C305.05540211 136.95338375 305.05540211 136.95338375 304 134 C301.43682745 132.92054266 298.98326026 132.0486193 296.33447266 131.23388672 C295.53136972 130.9770857 294.72826679 130.72028469 293.90082741 130.45570183 C291.27182921 129.62149104 288.63712278 128.80813689 286 128 C285.14122002 127.73545265 284.28244003 127.4709053 283.39763641 127.19834137 C276.82566595 125.18073423 270.23799039 123.21707017 263.6484375 121.2578125 C261.49272406 120.61448137 259.33709161 119.97087879 257.18153381 119.32702637 C252.61384576 117.96323807 248.04565102 116.60116647 243.47702026 115.24053955 C236.2977434 113.10239602 229.1195792 110.96053523 221.94165039 108.81787109 C219.51503071 108.09353369 217.08841022 107.36919898 214.66178894 106.64486694 C213.45934225 106.28593731 212.25689556 105.92700768 211.01801109 105.55720139 C207.36746508 104.46766699 203.71680456 103.37851701 200.06611633 102.28945923 C185.1561309 97.84111756 170.24963059 93.3813551 155.34765625 88.90625 C154.43961243 88.63359188 153.5315686 88.36093376 152.5960083 88.08001328 C144.94657572 85.78299538 137.29741148 83.48508559 129.64886475 81.18511963 C120.88555323 78.55010338 112.1207901 75.92005296 103.35272217 73.30090332 C100.31622599 72.39385036 97.28040741 71.48456659 94.24493408 70.57409668 C90.27022786 69.38243615 86.29378997 68.19671797 82.31611824 67.01499557 C80.81041942 66.56673868 79.30527232 66.11662385 77.80071831 65.66453934 C75.72939089 65.04254869 73.6561425 64.42742533 71.58227539 63.81396484 C70.40435928 63.46264496 69.22644318 63.11132507 68.01283264 62.74935913 C63.43779272 61.61144397 61.76868406 61.27901989 58.23046875 64.59765625 Z " fill="#08AAB8" transform="translate(188,0)"/>
<path d="M0 0 C9.41797881 1.62966089 18.43373973 4.41499796 27.55859375 7.1953125 C29.33419035 7.7324252 31.10992585 8.26907892 32.88578796 8.80531311 C36.71738214 9.96314465 40.54812766 11.12372761 44.37823486 12.28646851 C53.77272452 15.13814234 63.17167406 17.97506788 72.57009125 20.81376457 C75.89809988 21.819112 79.22594175 22.82501008 82.55377197 23.83094788 C105.14383499 30.65738375 127.75403453 37.41606893 150.36621094 44.16882324 C184.39784125 54.33223024 218.42694046 64.50440638 252.44158936 74.72451782 C256.0780119 75.81699176 259.71494577 76.9077368 263.35235596 77.99691772 C267.53931726 79.25072627 271.72523273 80.50796281 275.91031456 81.76803017 C277.42697477 82.22404738 278.94400613 82.67883235 280.46143532 83.13228416 C282.51691213 83.74674995 284.57098504 84.36570003 286.62475586 84.98583984 C288.33906044 85.50058365 288.33906044 85.50058365 290.08799744 86.02572632 C294.9718596 87.65972844 294.9718596 87.65972844 297 89 C297.88825625 91.91459082 298.49644626 94.57673604 299 97.5625 C299.15952148 98.42842773 299.31904297 99.29435547 299.48339844 100.18652344 C300.01394907 103.12058219 300.51124263 106.05869503 301 109 C301.18626953 110.11938965 301.37253906 111.2387793 301.56445312 112.39208984 C302.75093386 119.58839716 303.89285243 126.79108094 305 134 C298.7641725 132.67839719 292.68472999 131.10573357 286.58422852 129.26391602 C285.682016 128.99433012 284.77980349 128.72474422 283.8502512 128.44698906 C280.85888789 127.55231931 277.86890439 126.6531269 274.87890625 125.75390625 C272.73810869 125.11260645 270.59722733 124.47158636 268.45626831 123.83082581 C262.68921131 122.10396309 256.92333623 120.37318458 251.15766525 118.64170074 C245.13389426 116.8334784 239.10899909 115.02900954 233.08422852 113.22412109 C219.56611386 109.1735964 206.04957726 105.1178233 192.53346252 101.0606308 C187.99954231 99.69969506 183.46555728 98.33897537 178.93156719 96.97827244 C175.72490306 96.01591273 172.51825023 95.05351537 169.31159973 94.09111023 C165.19418105 92.85536623 161.07673747 91.61970522 156.95927429 90.3841095 C154.9616986 89.78464358 152.96412473 89.1851716 150.96655273 88.58569336 C149.9962144 88.29449395 149.02587606 88.00329454 148.02613354 87.70327091 C140.66166711 85.49295692 133.29801193 83.27994981 125.93451023 81.06642437 C119.33336804 79.08276857 112.72967138 77.10773884 106.12502956 75.13576984 C101.26837355 73.68398276 96.41681163 72.21630482 91.56816387 70.73800087 C88.39383261 69.77215826 85.21681007 68.81539749 82.03917122 67.86050034 C80.55458563 67.41208942 79.07119955 66.95968482 77.58913994 66.50299454 C75.56381314 65.87934885 73.53472015 65.26989198 71.50415039 64.66357422 C69.79286705 64.14305984 69.79286705 64.14305984 68.04701233 63.61203003 C64.89330414 62.97856882 63.038313 63.00622829 60 64 C57.73156389 66.0018865 57.73156389 66.0018865 55.6875 68.5625 C52.84602495 71.87519811 49.99760817 75.07515164 46.875 78.125 C44.31671251 80.64292003 41.89980342 83.21333257 39.5625 85.9375 C36.28869347 89.74824063 32.76636029 93.25078165 29.19140625 96.77734375 C26.57898932 99.4270144 24.16697379 102.21172803 21.74609375 105.03515625 C19.27396582 107.81699148 16.61569453 110.39375951 13.96484375 113.00390625 C12.07769256 114.92107177 10.31314625 116.89575322 8.5625 118.9375 C5.99334729 121.92801716 3.30682744 124.73116684 0.5 127.5 C-2.28621141 130.2485599 -4.95308392 133.02859791 -7.5 136 C-10.75164628 139.79358733 -14.25713094 143.27392647 -17.8125 146.78125 C-19.79720342 148.79430632 -21.66096916 150.85446403 -23.5 153 C-26.75164628 156.79358733 -30.25713094 160.27392647 -33.8125 163.78125 C-35.79720342 165.79430632 -37.66096916 167.85446403 -39.5 170 C-42.75044651 173.79218759 -46.25449569 177.27135531 -49.80859375 180.77734375 C-52.42101068 183.4270144 -54.83302621 186.21172803 -57.25390625 189.03515625 C-59.72603418 191.81699148 -62.38430547 194.39375951 -65.03515625 197.00390625 C-66.92230744 198.92107177 -68.68685375 200.89575322 -70.4375 202.9375 C-73.00665271 205.92801716 -75.69317256 208.73116684 -78.5 211.5 C-81.28621141 214.2485599 -83.95308392 217.02859791 -86.5 220 C-89.75164628 223.79358733 -93.25713094 227.27392647 -96.8125 230.78125 C-98.79720342 232.79430632 -100.66096916 234.85446403 -102.5 237 C-105.74564737 240.7865886 -109.24395347 244.26107165 -112.79296875 247.76171875 C-115.45631958 250.46278074 -117.94018915 253.28511166 -120.39453125 256.17578125 C-122 258 -122 258 -124.14073277 259.69630623 C-126.31420742 261.90150461 -126.31420742 261.90150461 -126.0277319 265.04455376 C-125.80531606 266.24534632 -125.58290022 267.44613888 -125.35374451 268.68331909 C-125.23648471 269.35292514 -125.1192249 270.02253119 -124.99841177 270.71242833 C-124.59999659 272.95831239 -124.16974952 275.19693151 -123.73999023 277.43701172 C-123.4485932 279.04734826 -123.15950405 280.65810388 -122.87255764 282.26923943 C-122.25420495 285.72444317 -121.62370391 289.17712739 -120.9846611 292.62856293 C-120.00614935 297.93413307 -119.07635423 303.24737665 -118.16018677 308.56402588 C-117.93056935 309.89547966 -117.93056935 309.89547966 -117.6963132 311.25383151 C-117.38227622 313.07490261 -117.06828442 314.8959815 -116.75433648 316.71706796 C-115.93105467 321.47791338 -115.09700668 326.23686884 -114.26319885 330.99588013 C-112.8258523 339.20300089 -111.39095943 347.41054341 -109.95909119 355.61862183 C-109.58353153 357.77129557 -109.20797172 359.92396929 -108.83241177 362.07664299 C-108.64486572 363.15166376 -108.45731968 364.22668453 -108.26409042 365.33428168 C-105.74484233 379.77353789 -103.22308258 394.21234914 -100.6940918 408.64990234 C-98.97121328 418.48565805 -97.25292366 428.32220318 -95.53997701 438.1596936 C-94.63759384 443.34096979 -93.73281574 448.52180251 -92.82234383 453.70166397 C-91.97212678 458.5388422 -91.12789397 463.37702523 -90.28837967 468.21607208 C-89.97902988 469.99270249 -89.6674186 471.76894076 -89.35343361 473.54475784 C-88.92701045 475.95837464 -88.50856479 478.37323947 -88.09217834 480.78860474 C-87.96495693 481.49750292 -87.83773551 482.2064011 -87.7066589 482.93678105 C-86.88588115 487.7717623 -86.88588115 487.7717623 -88 490 C-88.61593018 489.79955078 -89.23186035 489.59910156 -89.86645508 489.39257812 C-92.84732896 488.42482962 -95.82983509 487.46221421 -98.8125 486.5 C-99.91859619 486.14123779 -101.02469238 485.78247559 -102.16430664 485.4128418 C-108.28148991 483.44665024 -114.4092938 481.57964254 -120.6015625 479.86328125 C-122.44077271 479.34701172 -122.44077271 479.34701172 -124.31713867 478.8203125 C-126.70323474 478.15608669 -129.09404014 477.50851969 -131.48950195 476.87890625 C-132.57448975 476.5746875 -133.65947754 476.27046875 -134.77734375 475.95703125 C-136.21968384 475.56994995 -136.21968384 475.56994995 -137.69116211 475.17504883 C-140.81236038 473.58656122 -140.9212587 472.30317739 -142 469 C-142.53939502 466.48433874 -143.02059982 463.99393571 -143.45053101 461.46008301 C-143.58261385 460.70820221 -143.71469669 459.95632142 -143.85078204 459.18165636 C-144.29163378 456.6643 -144.7246509 454.14565999 -145.15771484 451.62695312 C-145.47304065 449.81692956 -145.78884904 448.00699 -146.10510254 446.1971283 C-146.9660474 441.26197511 -147.8201987 436.32566714 -148.67319822 431.38913536 C-149.5791791 426.15298317 -150.49143116 420.91792365 -151.40298462 415.68273926 C-153.14256345 405.68648133 -154.87655082 395.68926183 -156.60854399 385.69168711 C-158.53122289 374.59488004 -160.45978727 363.49909901 -162.38903761 352.40343285 C-164.82226122 338.40918135 -167.25441909 324.41474801 -169.68011475 310.41918945 C-170.40488172 306.23778855 -171.1296661 302.05639066 -171.85449219 297.875 C-172.11895999 296.34929917 -172.11895999 296.34929917 -172.38877058 294.79277611 C-174.68917352 281.5245684 -177.00184408 268.25858093 -179.32961059 254.99514675 C-179.77060731 252.48146413 -180.21105525 249.96768608 -180.65126228 247.45386505 C-180.79172065 246.65177219 -180.93217901 245.84967933 -181.07689369 245.02328062 C-181.35329359 243.44474513 -181.62966552 241.86620473 -181.90600789 240.28765917 C-182.68743314 235.82591001 -183.4725335 231.36482844 -184.26054859 226.9042387 C-184.619964 224.86605458 -184.97748673 222.8275497 -185.33413315 220.78887939 C-185.759551 218.35731092 -186.18802592 215.92627431 -186.62027359 213.49591064 C-186.80436657 212.438255 -186.98845955 211.38059937 -187.1781311 210.29089355 C-187.3381492 209.38236382 -187.4981673 208.47383408 -187.66303444 207.53777313 C-188.55548113 200.81653069 -188.55548113 200.81653069 -186.82592773 198.27416992 C-186.28395752 197.76474854 -185.7419873 197.25532715 -185.18359375 196.73046875 C-184.28954834 195.86832764 -184.28954834 195.86832764 -183.37744141 194.98876953 C-182.41717041 194.09714111 -182.41717041 194.09714111 -181.4375 193.1875 C-180.14013253 191.94066669 -178.84453926 190.69198447 -177.55078125 189.44140625 C-176.93025879 188.84602051 -176.30973633 188.25063477 -175.67041016 187.63720703 C-173.13849081 185.15561522 -170.85903925 182.49183028 -168.5703125 179.7890625 C-166.17052913 177.05498094 -163.55590322 174.54736728 -160.96484375 171.99609375 C-159.07769256 170.07892823 -157.31314625 168.10424678 -155.5625 166.0625 C-152.99334729 163.07198284 -150.30682744 160.26883316 -147.5 157.5 C-144.71378859 154.7514401 -142.04691608 151.97140209 -139.5 149 C-136.24835372 145.20641267 -132.74286906 141.72607353 -129.1875 138.21875 C-127.20279658 136.20569368 -125.33903084 134.14553597 -123.5 132 C-120.24835372 128.20641267 -116.74286906 124.72607353 -113.1875 121.21875 C-111.20279658 119.20569368 -109.33903084 117.14553597 -107.5 115 C-104.24955349 111.20781241 -100.74550431 107.72864469 -97.19140625 104.22265625 C-94.57898932 101.5729856 -92.16697379 98.78827197 -89.74609375 95.96484375 C-87.27396582 93.18300852 -84.61569453 90.60624049 -81.96484375 87.99609375 C-80.07769256 86.07892823 -78.31314625 84.10424678 -76.5625 82.0625 C-73.99334729 79.07198284 -71.30682744 76.26883316 -68.5 73.5 C-65.71378859 70.7514401 -63.04691608 67.97140209 -60.5 65 C-57.24835372 61.20641267 -53.74286906 57.72607353 -50.1875 54.21875 C-48.20279658 52.20569368 -46.33903084 50.14553597 -44.5 48 C-41.24835372 44.20641267 -37.74286906 40.72607353 -34.1875 37.21875 C-32.20279658 35.20569368 -30.33903084 33.14553597 -28.5 31 C-25.24955349 27.20781241 -21.74550431 23.72864469 -18.19140625 20.22265625 C-15.58664308 17.5807485 -13.18054747 14.80583885 -10.76953125 11.98828125 C-8.17931928 9.07786647 -5.39843912 6.3745491 -2.6015625 3.6640625 C-0.91371276 2.07577267 -0.91371276 2.07577267 0 0 Z " fill="#48B9C9" transform="translate(188,0)"/>
<path d="M0 0 C18.81 0 37.62 0 57 0 C57 0.99 57 1.98 57 3 C55.35 3.66 53.7 4.32 52 5 C53.33803458 8.00874098 54.77584376 9.98385643 57.1953125 12.20703125 C57.82526123 12.79073486 58.45520996 13.37443848 59.10424805 13.97583008 C59.77109619 14.58193115 60.43794434 15.18803223 61.125 15.8125 C61.80280518 16.43471436 62.48061035 17.05692871 63.17895508 17.69799805 C64.516211 18.92268008 65.85606175 20.14453593 67.19873047 21.36328125 C68.68357049 22.71247717 70.15772017 24.0734285 71.62890625 25.4375 C72.30824219 26.05625 72.98757813 26.675 73.6875 27.3125 C74.52861328 28.08013672 74.52861328 28.08013672 75.38671875 28.86328125 C77.31407725 30.22129898 78.66020588 30.69578046 81 31 C82.70085368 30.06327165 82.70085368 30.06327165 84.171875 28.5 C85.0393335 27.66843384 85.0393335 27.66843384 85.92431641 26.82006836 C86.82802979 25.91913452 86.82802979 25.91913452 87.75 25 C89.00180966 23.79214479 90.2544088 22.58510723 91.5078125 21.37890625 C92.10883789 20.79383301 92.70986328 20.20875977 93.32910156 19.60595703 C95.36884143 17.64549402 97.47861826 15.78014847 99.625 13.9375 C103.46502504 10.6277653 103.46502504 10.6277653 107 7 C107 6.34 107 5.68 107 5 C105.35 4.34 103.7 3.68 102 3 C102 2.01 102 1.02 102 0 C121.8 0 141.6 0 162 0 C162 0.99 162 1.98 162 3 C160.02 3.66 158.04 4.32 156 5 C156 43.61 156 82.22 156 122 C158.97 122.495 158.97 122.495 162 123 C162 123.99 162 124.98 162 126 C146.16 126 130.32 126 114 126 C114 125.01 114 124.02 114 123 C115.98 122.34 117.96 121.68 120 121 C120 90.64 120 60.28 120 29 C116.535 32.465 116.535 32.465 113 36 C111.68311247 37.18519877 110.35336926 38.35663631 109 39.5 C106.39352391 41.7455794 103.91065479 44.04551512 101.5 46.5 C98.4647467 49.59043973 95.26092815 52.41677022 91.9765625 55.23828125 C89.46330215 57.47836113 87.14139964 59.87247095 84.8359375 62.32421875 C82.41743913 64.53174173 79.74990244 66.23220557 77 68 C76.15405273 67.14619751 76.15405273 67.14619751 75.29101562 66.27514648 C72.69673231 63.65988156 70.09840077 61.04867381 67.5 58.4375 C66.613125 57.54224609 65.72625 56.64699219 64.8125 55.72460938 C61.02026992 51.91843728 57.24933311 48.14379132 53.15625 44.66015625 C47.17386298 39.39183235 41.63667416 33.63667416 36 28 C36 58.69 36 89.38 36 121 C38.97 121.99 38.97 121.99 42 123 C42 123.99 42 124.98 42 126 C28.14 126 14.28 126 0 126 C0 125.01 0 124.02 0 123 C2.475 122.01 2.475 122.01 5 121 C5 82.72 5 44.44 5 5 C2.525 4.01 2.525 4.01 0 3 C0 2.01 0 1.02 0 0 Z " fill="#F27902" transform="translate(186,240)"/>
<path d="M0 0 C13.53 0 27.06 0 41 0 C41 25.74 41 51.48 41 78 C51.56 78 62.12 78 73 78 C69.02153274 82.64154514 65.04369945 87.22392806 60.875 91.6875 C60.26825439 92.3374292 59.66150879 92.9873584 59.03637695 93.65698242 C50.68952606 102.50339546 42.01484809 111.03437193 33.37255859 119.59057617 C32.76993698 120.1889328 32.16731537 120.78728943 31.5464325 121.40377808 C30.40393007 122.53799869 29.25934516 123.67012667 28.11238098 124.79983521 C25.78851823 127.10892566 23.8245259 129.26321115 22 132 C18.36130901 131.44311561 16.98901026 130.22056489 14.70117188 127.39257812 C11.25657679 123.27472752 7.60087692 119.48725333 3.78125 115.71875 C3.11967896 115.06096558 2.45810791 114.40318115 1.77648926 113.72546387 C-0.31322735 111.64782726 -2.40617315 109.57349373 -4.5 107.5 C-7.263417 104.7634185 -10.02333722 102.02337737 -12.78125 99.28125 C-13.40124878 98.66954956 -14.02124756 98.05784912 -14.66003418 97.4276123 C-20.84509294 91.27674587 -26.41672888 84.69992534 -32 78 C-21.44 78 -10.88 78 0 78 C0 52.26 0 26.52 0 0 Z " fill="#F27901" transform="translate(383,237)"/>
</svg>
