<?xml version="1.0" encoding="UTF-8"?>
<svg version="1.1" xmlns="http://www.w3.org/2000/svg" width="256" height="256">
<path d="M0 0 C46.86 0 93.72 0 142 0 C142 0.99 142 1.98 142 3 C142.66 3 143.32 3 144 3 C154 23 154 23 155.4453125 25.90234375 C156.5949678 28.19298861 157.75654108 30.47536175 158.9296875 32.75390625 C159.25324219 33.38748047 159.57679688 34.02105469 159.91015625 34.67382812 C160.82945281 36.47334184 161.75442408 38.26995324 162.6796875 40.06640625 C164 43 164 43 164 46 C164.66 46 165.32 46 166 46 C167.25664978 48.90600261 168 50.79604584 168 54 C168.66 54 169.32 54 170 54 C173 60.625 173 60.625 173 64 C173.66 64 174.32 64 175 64 C176.25664978 66.90600261 177 68.79604584 177 72 C177.66 72 178.32 72 179 72 C180.25664978 74.90600261 181 76.79604584 181 80 C181.66 80 182.32 80 183 80 C183.99 83.3 184.98 86.6 186 90 C186.66 90 187.32 90 188 90 C189.25664978 92.90600261 190 94.79604584 190 98 C190.66 98 191.32 98 192 98 C193.25664978 100.90600261 194 102.79604584 194 106 C194.66 106 195.32 106 196 106 C200.28265135 116.34974075 200.28265135 116.34974075 198.33789062 121.88427734 C197.44826742 123.91391771 196.49407856 125.89451915 195.5 127.875 C194.99919922 128.90753906 194.99919922 128.90753906 194.48828125 129.9609375 C193.66928273 131.64573446 192.83606409 133.32360619 192 135 C191.34 135 190.68 135 190 135 C189.7834375 136.423125 189.7834375 136.423125 189.5625 137.875 C189 141 189 141 188 143 C187.34 143 186.68 143 186 143 C185.814375 144.3303125 185.814375 144.3303125 185.625 145.6875 C185.05587264 148.70387502 184.23385564 151.20326054 183 154 C182.34 154 181.68 154 181 154 C180.75378906 154.98484375 180.50757813 155.9696875 180.25390625 156.984375 C179.00546589 161.3533663 177.03199985 165.23335629 174.9375 169.25 C172.1879199 174.50067562 172.1879199 174.50067562 170 180 C169.34 180 168.68 180 168 180 C167.01 183.96 167.01 183.96 166 188 C165.34 188 164.68 188 164 188 C163.82984375 188.54527344 163.6596875 189.09054688 163.484375 189.65234375 C161.67459186 195.28384978 159.49654622 200.63939569 157 206 C156.34 206 155.68 206 155 206 C154.855625 206.763125 154.71125 207.52625 154.5625 208.3125 C154 211 154 211 153 214 C152.34 214 151.68 214 151 214 C150.82984375 214.54527344 150.6596875 215.09054688 150.484375 215.65234375 C148.69508334 221.22008643 146.83230011 226.86287268 144 232 C141.3430158 233.3284921 139.3450849 233.12287926 136.36862183 233.12025452 C135.17106262 233.12162918 133.97350342 233.12300385 132.73965454 233.12442017 C131.40570044 233.12088081 130.07174658 233.117246 128.73779297 233.11352539 C127.338501 233.11324344 125.93920888 233.11340142 124.53991699 233.1139679 C120.73435878 233.11425554 116.92883191 233.10836406 113.123281 233.10139394 C109.14876812 233.095155 105.17425457 233.09455617 101.19973755 233.09336853 C93.67036256 233.09025681 86.14100203 233.08204556 78.61163342 233.07201904 C70.04101449 233.06085297 61.47039489 233.0553462 52.8997705 233.05032361 C35.26650545 233.03986283 17.63325389 233.02226646 0 233 C-1.27046633 230.631652 -2.5393535 228.26247988 -3.80737305 225.89282227 C-4.1631115 225.23005531 -4.51884995 224.56728836 -4.88536835 223.88443756 C-8.03960908 217.9848999 -10.96544952 211.9910979 -13.8125 205.9375 C-14.73523732 203.98807303 -15.65840143 202.03884801 -16.58203125 200.08984375 C-17.00049316 199.20151855 -17.41895508 198.31319336 -17.85009766 197.39794922 C-18.80163188 195.41366703 -19.80620543 193.45491678 -20.82421875 191.50390625 C-22 189 -22 189 -22 186 C-22.66 186 -23.32 186 -24 186 C-24.54269531 184.84242188 -25.08539062 183.68484375 -25.64453125 182.4921875 C-26.36714847 180.95310667 -27.0898069 179.4140452 -27.8125 177.875 C-28.16892578 177.11445313 -28.52535156 176.35390625 -28.89257812 175.5703125 C-29.41948242 174.44882812 -29.41948242 174.44882812 -29.95703125 173.3046875 C-30.3020166 172.56959961 -30.64700195 171.83451172 -31.00244141 171.07714844 C-31.88323118 169.24313978 -32.81853477 167.43552777 -33.76171875 165.6328125 C-35 163 -35 163 -35 160 C-35.66 160 -36.32 160 -37 160 C-38.25664978 157.09399739 -39 155.20395416 -39 152 C-39.66 152 -40.32 152 -41 152 C-44 145.375 -44 145.375 -44 142 C-44.66 142 -45.32 142 -46 142 C-47.25664978 139.09399739 -48 137.20395416 -48 134 C-48.66 134 -49.32 134 -50 134 C-51.25664978 131.09399739 -52 129.20395416 -52 126 C-52.66 126 -53.32 126 -54 126 C-56.81500636 119.46918524 -57.45804479 115.94529768 -54.9375 109.125 C-54.628125 108.42375 -54.31875 107.7225 -54 107 C-53.34 107 -52.68 107 -52 107 C-51.855625 106.236875 -51.71125 105.47375 -51.5625 104.6875 C-51 102 -51 102 -50 99 C-49.34 99 -48.68 99 -48 99 C-47.7525 98.01 -47.505 97.02 -47.25 96 C-46.21925165 92.35159577 -44.67375083 89.13915251 -42.90234375 85.796875 C-41.86945308 83.84692807 -41.86945308 83.84692807 -41 81 C-40.34 81 -39.68 81 -39 81 C-38.90847656 80.32710938 -38.81695312 79.65421875 -38.72265625 78.9609375 C-37.81244455 75.23152955 -36.18664271 72.01458163 -34.4375 68.625 C-34.08107422 67.92310547 -33.72464844 67.22121094 -33.35742188 66.49804688 C-30.64510693 61.18305362 -27.83931623 55.91938166 -25.01269531 50.66455078 C-22.49963175 45.97819381 -20.07091245 41.25355916 -17.6875 36.5 C-17.36201172 35.85353516 -17.03652344 35.20707031 -16.70117188 34.54101562 C-14.64631936 30.41849447 -12.77946177 26.24880718 -11 22 C-10.34 22 -9.68 22 -9 22 C-8.89816406 21.14148438 -8.79632813 20.28296875 -8.69140625 19.3984375 C-7.94202588 15.71504245 -6.67376769 12.94976792 -4.9375 9.625 C-4.38964844 8.56539062 -3.84179688 7.50578125 -3.27734375 6.4140625 C-2.85582031 5.61742187 -2.43429688 4.82078125 -2 4 C-1.34 4 -0.68 4 0 4 C0 2.68 0 1.36 0 0 Z " fill="#71D3E1" transform="translate(57,10)"/>
<path d="M0 0 C3.96 0 7.92 0 12 0 C15 8.625 15 8.625 15 12 C15.66 12 16.32 12 17 12 C17.39058594 13.87945312 17.39058594 13.87945312 17.7890625 15.796875 C19.02952525 21.37350718 20.68217367 26.79664533 22.375 32.25 C22.68590576 33.26489502 22.99681152 34.27979004 23.31713867 35.32543945 C24.61220272 39.54680146 25.91530368 43.76456734 27.27734375 47.96484375 C30.01060626 56.47405722 32.19558593 65.00304707 32 74 C32.66 74 33.32 74 34 74 C34.50471197 75.76949612 35.00360685 77.54065223 35.5 79.3125 C35.7784375 80.29863281 36.056875 81.28476563 36.34375 82.30078125 C37 85 37 85 37 88 C37.66 88 38.32 88 39 88 C39.1546875 86.700625 39.1546875 86.700625 39.3125 85.375 C40.04049159 81.80122313 41.32174416 79.22225122 43 76 C43.69971973 74.01132287 44.37664397 72.01391949 45 70 C45.66 70 46.32 70 47 70 C47.12375 68.88625 47.2475 67.7725 47.375 66.625 C48 63 48 63 50 61 C50.52234392 58.97376481 50.97012839 56.92793721 51.375 54.875 C52.57609633 49.32531901 54.2016826 44.92117888 57 40 C57.66 40 58.32 40 59 40 C59.19916016 38.96939453 59.19916016 38.96939453 59.40234375 37.91796875 C59.57894531 37.01691406 59.75554687 36.11585937 59.9375 35.1875 C60.11152344 34.29417969 60.28554687 33.40085938 60.46484375 32.48046875 C61 30 61 30 62 27 C62.66 27 63.32 27 64 27 C64.66 23.04 65.32 19.08 66 15 C66.99 14.67 67.98 14.34 69 14 C69.103125 12.80375 69.20625 11.6075 69.3125 10.375 C69.78891352 6.4375824 71.01130716 3.45859625 73 0 C73.99 0 74.98 0 76 0 C78.52156536 3.42932889 79.71313328 6.97854149 81 11 C81.68696253 12.60291256 82.37470508 14.20550755 83.0703125 15.8046875 C84.31757228 18.74989758 85.50995743 21.71370605 86.6875 24.6875 C87.12449219 25.78449219 87.56148438 26.88148437 88.01171875 28.01171875 C89 31 89 31 89 35 C89.66 35 90.32 35 91 35 C91.99 39.455 91.99 39.455 93 44 C93.66 44 94.32 44 95 44 C97.450902 50.67510367 99.86084689 57.36507286 102.25 64.0625 C102.52021973 64.81265381 102.79043945 65.56280762 103.06884766 66.33569336 C105 71.77086264 105 71.77086264 105 74 C105.66 74 106.32 74 107 74 C107.50310058 75.7907985 108.00238628 77.58266911 108.5 79.375 C108.7784375 80.37273437 109.056875 81.37046875 109.34375 82.3984375 C110 85 110 85 110 87 C110.99 87 111.98 87 113 87 C113.1340625 86.31035156 113.268125 85.62070313 113.40625 84.91015625 C114.05315646 81.7394634 114.76942164 78.58994564 115.5 75.4375 C115.7578125 74.32246094 116.015625 73.20742187 116.28125 72.05859375 C116.83544857 69.70023786 117.40300943 67.34778023 118 65 C118.66 65 119.32 65 120 65 C120.09796875 64.22398437 120.1959375 63.44796875 120.296875 62.6484375 C121.65810087 52.81475405 123.82537782 43.22479108 127.5625 34 C129.85745091 28.25001311 130.80173778 22.05079929 132 16 C132.66 16 133.32 16 134 16 C134.07347656 15.02160156 134.07347656 15.02160156 134.1484375 14.0234375 C134.22320312 13.14945313 134.29796875 12.27546875 134.375 11.375 C134.44460937 10.51648438 134.51421875 9.65796875 134.5859375 8.7734375 C135 6 135 6 137 0 C141.29 0 145.58 0 150 0 C145.50219293 21.1648079 145.50219293 21.1648079 142 29.33203125 C140.87778077 32.32607708 140.24640508 35.23873201 139.625 38.375 C138.04864822 46.00615937 136.07239765 53.4888735 134 61 C133.34 61 132.68 61 132 61 C131.87625 61.94875 131.7525 62.8975 131.625 63.875 C130.95234946 68.62254802 129.97271759 73.30640153 129 78 C128.34 78 127.68 78 127 78 C126.9071875 79.7015625 126.9071875 79.7015625 126.8125 81.4375 C125.79351075 90.83318031 122.52342282 100.26803909 119 109 C118.5219615 110.97589245 118.04423224 112.95187075 117.57421875 114.9296875 C116.69248465 118.10872882 115.37328816 121.00373493 114 124 C113.34 124 112.68 124 112 124 C111.67 122.35 111.34 120.7 111 119 C110.34 119 109.68 119 109 119 C108.67 117.02 108.34 115.04 108 113 C107.34 113 106.68 113 106 113 C105.79842285 112.40461426 105.5968457 111.80922852 105.38916016 111.19580078 C104.47382801 108.50343093 103.54953499 105.81422282 102.625 103.125 C102.30789062 102.18785156 101.99078125 101.25070313 101.6640625 100.28515625 C101.3546875 99.38925781 101.0453125 98.49335938 100.7265625 97.5703125 C100.30238037 96.32918701 100.30238037 96.32918701 99.86962891 95.06298828 C99.08073272 92.82945622 99.08073272 92.82945622 97 91 C96.15971912 87.77525714 95.53093402 84.52930933 94.87890625 81.26171875 C94.00058605 78.00217491 92.79365879 75.83040274 91 73 C90.28644828 71.26858775 89.62002258 69.51706436 89 67.75 C88.49339844 66.31720703 88.49339844 66.31720703 87.9765625 64.85546875 C86.8536295 61.57201267 85.76183123 58.27988064 84.7109375 54.97265625 C84.03771205 52.94988835 84.03771205 52.94988835 82.9140625 50.99609375 C82 49 82 49 82 45 C81.34 45 80.68 45 80 45 C79.60167969 43.60974609 79.60167969 43.60974609 79.1953125 42.19140625 C78.84210938 40.99386719 78.48890625 39.79632813 78.125 38.5625 C77.77695313 37.36753906 77.42890625 36.17257813 77.0703125 34.94140625 C76.3391709 31.88308969 76.3391709 31.88308969 74 31 C73.896875 31.845625 73.79375 32.69125 73.6875 33.5625 C72.92685571 37.36572147 71.58529986 40.46356184 70 44 C69.54625 45.2375 69.0925 46.475 68.625 47.75 C67.39320125 51.10648866 65.94887376 54.32257561 64.4375 57.5625 C62.53675362 61.67315031 61.07425788 65.60530868 60 70 C59.34 70 58.68 70 58 70 C57.88269531 70.85078125 57.76539063 71.7015625 57.64453125 72.578125 C56.97157403 76.15091606 55.93460969 79.3368577 54.6875 82.75 C54.02041016 84.57917969 54.02041016 84.57917969 53.33984375 86.4453125 C51.88855581 90.29566826 50.37852302 94.11551438 48.796875 97.9140625 C47.94502361 99.98885112 47.94502361 99.98885112 47.515625 102.2109375 C47.34546875 102.80132812 47.1753125 103.39171875 47 104 C46.01 104.495 46.01 104.495 45 105 C44.19318445 106.80779605 44.19318445 106.80779605 43.5625 109 C43.18158203 110.20849609 43.18158203 110.20849609 42.79296875 111.44140625 C42.53128906 112.28574219 42.26960938 113.13007813 42 114 C41.46278436 115.64729156 40.92132138 117.2932059 40.375 118.9375 C40.13523438 119.66839844 39.89546875 120.39929688 39.6484375 121.15234375 C39 123 39 123 38 125 C37.01 125 36.02 125 35 125 C33.64560332 122.29120665 33.93498549 119.99066732 34 117 C33.34 117 32.68 117 32 117 C31.70867187 115.77667969 31.41734375 114.55335938 31.1171875 113.29296875 C28.81434256 103.77562326 26.2719511 94.4162617 23.24072266 85.10522461 C20.67642065 77.15986149 18.59281496 69.10800426 16.52929688 61.02099609 C16.0419528 59.16018692 15.51497578 57.30987715 14.984375 55.4609375 C13.69620382 50.93189123 12.59550672 46.36403197 11.5 41.78515625 C10.78200358 38.85146776 10.02261462 36.05512314 8.875 33.2578125 C8 31 8 31 8 27 C7.34 27 6.68 27 6 27 C5.73445313 25.84242187 5.46890625 24.68484375 5.1953125 23.4921875 C4.83869236 21.95309007 4.48191309 20.41402952 4.125 18.875 C3.95097656 18.11445312 3.77695312 17.35390625 3.59765625 16.5703125 C2.81464027 13.20624386 1.988734 9.96713437 0.8671875 6.6953125 C0 4 0 4 0 0 Z " fill="#040708" transform="translate(52,71)"/>
<path d="M0 0 C46.53 0 93.06 0 141 0 C144 10 144 10 143 13 C142.60685608 12.02594208 142.21371216 11.05188416 141.80865479 10.04830933 C140.18108366 7.6472474 139.32655402 7.0731589 136.45830536 6.43057632 C132.9815142 6.21757275 129.54486813 6.1931933 126.06152344 6.22705078 C124.7210309 6.21887881 123.3805522 6.2080757 122.0401001 6.19483948 C118.40380289 6.16638883 114.7684107 6.17475924 111.13206768 6.18970728 C107.33097042 6.19908206 103.53009484 6.17464164 99.72906494 6.15377808 C92.53258958 6.11942027 85.33643191 6.11550292 78.13989091 6.12250316 C69.94638706 6.12899244 61.75310666 6.10157549 53.55966902 6.07130075 C36.70641032 6.0097881 19.85336541 5.99088645 3 6 C2.55648193 7.13151489 2.55648193 7.13151489 2.10400391 8.28588867 C0.70680898 11.72078827 -0.95137093 15.00684027 -2.625 18.3125 C-2.97691406 19.0125415 -3.32882813 19.71258301 -3.69140625 20.43383789 C-5.1331478 23.30160806 -6.57935419 26.16711329 -8.02636719 29.03222656 C-11.75094153 36.41206387 -15.39914192 43.81191837 -18.875 51.3125 C-22.1822125 58.44253897 -25.76982096 65.39969917 -29.49951172 72.31762695 C-31.46415138 75.98189911 -33.32065776 79.64383938 -34.98046875 83.45703125 C-37.1029134 88.3317732 -39.5558957 93.00123978 -42.0625 97.6875 C-43.33778691 100.08458461 -44.61165298 102.48233162 -45.87915039 104.88354492 C-46.84609797 106.709393 -47.82791152 108.52735402 -48.8125 110.34375 C-50.81553476 114.82422249 -49.80781081 118.76359767 -48.20703125 123.1953125 C-46.17582004 127.95415018 -43.70488928 132.42216653 -41.05078125 136.859375 C-39.88814013 139.22787811 -39.41308152 141.40348759 -39 144 C-38.34 144 -37.68 144 -37 144 C-36.69707031 144.76183594 -36.39414062 145.52367187 -36.08203125 146.30859375 C-33.76605409 152.01658669 -31.32137811 157.46454016 -28.24609375 162.80078125 C-25.99216731 166.77871411 -24.02234148 170.90098547 -22 175 C-21.04273341 176.91719967 -20.08435108 178.83384254 -19.125 180.75 C-12.41666667 194.16666667 -5.70833333 207.58333333 1 221 C1.36609375 221.6496875 1.7321875 222.299375 2.109375 222.96875 C3 225 3 225 3 229 C47.88 229 92.76 229 139 229 C139.33 227.35 139.66 225.7 140 224 C140.66 224 141.32 224 142 224 C142.14308594 222.71416016 142.14308594 222.71416016 142.2890625 221.40234375 C143.08712627 217.58303856 144.45304841 214.9553329 146.375 211.5625 C150.00305644 205.00970028 153.29564872 198.33186546 156.5 191.5625 C161.22277528 181.60061223 166.07080927 171.71378152 171.07470703 161.89013672 C171.43290527 161.18260254 171.79110352 160.47506836 172.16015625 159.74609375 C172.48765869 159.10212646 172.81516113 158.45815918 173.15258789 157.79467773 C174.12043379 155.83721776 174.12043379 155.83721776 175 153 C175.66 153 176.32 153 177 153 C177.16508057 152.44965088 177.33016113 151.89930176 177.50024414 151.33227539 C179.27960826 145.67427032 181.57537865 140.62180996 184.4375 135.4375 C185.96443016 132.62825749 187.48466368 129.81551199 189 127 C189.38526855 126.29633301 189.77053711 125.59266602 190.16748047 124.86767578 C192.13946878 121.14125568 193.52015931 118.32254893 193.25 114 C193.21390625 113.236875 193.1778125 112.47375 193.140625 111.6875 C193.09421875 111.130625 193.0478125 110.57375 193 110 C193.99 110.66 194.98 111.32 196 112 C196 112.66 196 113.32 196 114 C196.99 114 197.98 114 199 114 C199.4820659 119.52654117 197.91119925 123.0712208 195.5 127.875 C194.99919922 128.90753906 194.99919922 128.90753906 194.48828125 129.9609375 C193.66928273 131.64573446 192.83606409 133.32360619 192 135 C191.34 135 190.68 135 190 135 C189.7834375 136.423125 189.7834375 136.423125 189.5625 137.875 C189 141 189 141 188 143 C187.34 143 186.68 143 186 143 C185.814375 144.3303125 185.814375 144.3303125 185.625 145.6875 C185.05587264 148.70387502 184.23385564 151.20326054 183 154 C182.34 154 181.68 154 181 154 C180.75378906 154.98484375 180.50757813 155.9696875 180.25390625 156.984375 C179.00546589 161.3533663 177.03199985 165.23335629 174.9375 169.25 C172.1879199 174.50067562 172.1879199 174.50067562 170 180 C169.34 180 168.68 180 168 180 C167.01 183.96 167.01 183.96 166 188 C165.34 188 164.68 188 164 188 C163.82984375 188.54527344 163.6596875 189.09054688 163.484375 189.65234375 C161.67459186 195.28384978 159.49654622 200.63939569 157 206 C156.34 206 155.68 206 155 206 C154.855625 206.763125 154.71125 207.52625 154.5625 208.3125 C154 211 154 211 153 214 C152.34 214 151.68 214 151 214 C150.82984375 214.54527344 150.6596875 215.09054688 150.484375 215.65234375 C148.69508334 221.22008643 146.83230011 226.86287268 144 232 C141.3430158 233.3284921 139.3450849 233.12287926 136.36862183 233.12025452 C135.17106262 233.12162918 133.97350342 233.12300385 132.73965454 233.12442017 C131.40570044 233.12088081 130.07174658 233.117246 128.73779297 233.11352539 C127.338501 233.11324344 125.93920888 233.11340142 124.53991699 233.1139679 C120.73435878 233.11425554 116.92883191 233.10836406 113.123281 233.10139394 C109.14876812 233.095155 105.17425457 233.09455617 101.19973755 233.09336853 C93.67036256 233.09025681 86.14100203 233.08204556 78.61163342 233.07201904 C70.04101449 233.06085297 61.47039489 233.0553462 52.8997705 233.05032361 C35.26650545 233.03986283 17.63325389 233.02226646 0 233 C-1.27046633 230.631652 -2.5393535 228.26247988 -3.80737305 225.89282227 C-4.1631115 225.23005531 -4.51884995 224.56728836 -4.88536835 223.88443756 C-8.03960908 217.9848999 -10.96544952 211.9910979 -13.8125 205.9375 C-14.73523732 203.98807303 -15.65840143 202.03884801 -16.58203125 200.08984375 C-17.00049316 199.20151855 -17.41895508 198.31319336 -17.85009766 197.39794922 C-18.80163188 195.41366703 -19.80620543 193.45491678 -20.82421875 191.50390625 C-22 189 -22 189 -22 186 C-22.66 186 -23.32 186 -24 186 C-24.54269531 184.84242188 -25.08539062 183.68484375 -25.64453125 182.4921875 C-26.36714847 180.95310667 -27.0898069 179.4140452 -27.8125 177.875 C-28.16892578 177.11445313 -28.52535156 176.35390625 -28.89257812 175.5703125 C-29.41948242 174.44882812 -29.41948242 174.44882812 -29.95703125 173.3046875 C-30.3020166 172.56959961 -30.64700195 171.83451172 -31.00244141 171.07714844 C-31.88323118 169.24313978 -32.81853477 167.43552777 -33.76171875 165.6328125 C-35 163 -35 163 -35 160 C-35.66 160 -36.32 160 -37 160 C-38.25664978 157.09399739 -39 155.20395416 -39 152 C-39.66 152 -40.32 152 -41 152 C-44 145.375 -44 145.375 -44 142 C-44.66 142 -45.32 142 -46 142 C-47.25664978 139.09399739 -48 137.20395416 -48 134 C-48.66 134 -49.32 134 -50 134 C-51.25664978 131.09399739 -52 129.20395416 -52 126 C-52.66 126 -53.32 126 -54 126 C-56.81500636 119.46918524 -57.45804479 115.94529768 -54.9375 109.125 C-54.628125 108.42375 -54.31875 107.7225 -54 107 C-53.34 107 -52.68 107 -52 107 C-51.855625 106.236875 -51.71125 105.47375 -51.5625 104.6875 C-51 102 -51 102 -50 99 C-49.34 99 -48.68 99 -48 99 C-47.7525 98.01 -47.505 97.02 -47.25 96 C-46.21925165 92.35159577 -44.67375083 89.13915251 -42.90234375 85.796875 C-41.86945308 83.84692807 -41.86945308 83.84692807 -41 81 C-40.34 81 -39.68 81 -39 81 C-38.90847656 80.32710938 -38.81695312 79.65421875 -38.72265625 78.9609375 C-37.81244455 75.23152955 -36.18664271 72.01458163 -34.4375 68.625 C-34.08107422 67.92310547 -33.72464844 67.22121094 -33.35742188 66.49804688 C-30.64510693 61.18305362 -27.83931623 55.91938166 -25.01269531 50.66455078 C-22.49963175 45.97819381 -20.07091245 41.25355916 -17.6875 36.5 C-17.36201172 35.85353516 -17.03652344 35.20707031 -16.70117188 34.54101562 C-14.64631936 30.41849447 -12.77946177 26.24880718 -11 22 C-10.34 22 -9.68 22 -9 22 C-8.89816406 21.14148438 -8.79632813 20.28296875 -8.69140625 19.3984375 C-7.94202588 15.71504245 -6.67376769 12.94976792 -4.9375 9.625 C-4.38964844 8.56539062 -3.84179688 7.50578125 -3.27734375 6.4140625 C-2.85582031 5.61742187 -2.43429688 4.82078125 -2 4 C-1.34 4 -0.68 4 0 4 C0 2.68 0 1.36 0 0 Z " fill="#6AAFB9" transform="translate(57,10)"/>
<path d="M0 0 C4.62 0 9.24 0 14 0 C14.28875 1.134375 14.5775 2.26875 14.875 3.4375 C15.24625 4.613125 15.6175 5.78875 16 7 C16.66 7.33 17.32 7.66 18 8 C17.43500879 11.38994728 16.52565402 13.94869196 15 17 C13.00859291 23.55540446 11.44949344 30.2197683 9.85546875 36.88085938 C9.64535156 37.73873047 9.43523437 38.59660156 9.21875 39.48046875 C9.03248047 40.25285889 8.84621094 41.02524902 8.65429688 41.82104492 C7.98753217 44.04152065 7.04148495 45.93509365 6 48 C5.6802814 50.52537225 5.56152735 53.02058253 5.44140625 55.5625 C4.92189647 58.43129735 3.76646248 59.72619843 2 62 C1.74176242 63.96906155 1.48865686 65.93987401 1.3125 67.91796875 C0.82256724 71.18214578 -0.66642428 73.99945463 -2 77 C-2.36628677 78.99422795 -2.70131344 80.99453311 -3 83 C-3.83485702 85.78285674 -4.62864971 88.34467595 -6.0625 90.875 C-7.23048912 93.52244199 -7.33548003 96.03392974 -7.4609375 98.90234375 C-8 101 -8 101 -9.88671875 103.18359375 C-13.13562482 107.51346672 -13.82941771 112.36338442 -14.97851562 117.58203125 C-16.43883488 123.53148006 -16.43883488 123.53148006 -19.484375 126.07421875 C-22.44418386 127.16346518 -24.02533437 126.93489491 -27 126 C-27.495 123.03 -27.495 123.03 -28 120 C-26 122 -26 122 -26 125 C-25.34 125 -24.68 125 -24 125 C-23.73058594 124.04738281 -23.46117187 123.09476562 -23.18359375 122.11328125 C-21.85342337 117.45826986 -20.45781529 112.82332084 -19.0625 108.1875 C-18.81048828 107.34896484 -18.55847656 106.51042969 -18.29882812 105.64648438 C-18.04681641 104.80794922 -17.79480469 103.96941406 -17.53515625 103.10546875 C-17.15798462 101.84911621 -17.15798462 101.84911621 -16.77319336 100.56738281 C-16.24569939 98.81584299 -15.71513056 97.06522698 -15.18188477 95.31542969 C-13.92949679 91.19054658 -12.69788287 87.09759521 -11.8125 82.875 C-11.4103125 80.956875 -11.4103125 80.956875 -11 79 C-10.34 79 -9.68 79 -9 79 C-8.95101562 78.35933594 -8.90203125 77.71867187 -8.8515625 77.05859375 C-8.3959855 71.78803915 -7.6402621 67.03013712 -6 62 C-5.34 62 -4.68 62 -4 62 C-3.9175 60.80375 -3.835 59.6075 -3.75 58.375 C-3.14765741 52.84043186 -1.56381535 47.68066873 0.0234375 42.359375 C0.80833161 39.65933925 1.48726879 36.99941019 2.0625 34.25 C3.5691147 27.11340404 5.90492453 20.21771 8.23828125 13.31640625 C9.57970312 9.23710794 10.78210988 5.11762851 12 1 C8.04 1 4.08 1 0 1 C0 0.67 0 0.34 0 0 Z " fill="#64BCC9" transform="translate(190,70)"/>
<path d="M0 0 C0.99 0.33 1.98 0.66 3 1 C3.94921875 3.94140625 3.94921875 3.94140625 4.6875 7.5625 C5.06455078 9.35880859 5.06455078 9.35880859 5.44921875 11.19140625 C5.63097656 12.11824219 5.81273437 13.04507813 6 14 C5.36964844 14.226875 4.73929688 14.45375 4.08984375 14.6875 C1.80796243 15.83030792 1.80796243 15.83030792 1.12890625 18.25 C0.84853516 19.61125 0.84853516 19.61125 0.5625 21 C-0.63223838 26.00214642 -2.38966729 30.19009669 -4.81640625 34.7109375 C-7.06243542 39.05474308 -8.64306993 43.68299968 -10.375 48.25 C-12.17029464 52.93683114 -14.09116868 57.52644467 -16.16796875 62.09375 C-17.2937754 64.6730629 -18.12672333 67.3255902 -19 70 C-19.95386918 72.46201369 -20.93997249 74.90850432 -21.94140625 77.3515625 C-22.63294502 79.08168532 -23.28848903 80.82675211 -23.90234375 82.5859375 C-26.11101578 88.74746892 -29.04133312 93.62757945 -34 98 C-34.66 98 -35.32 98 -36 98 C-36 97.01 -36 96.02 -36 95 C-36.99 94.67 -37.98 94.34 -39 94 C-38.01 94 -37.02 94 -36 94 C-35.89042969 93.33613281 -35.78085938 92.67226562 -35.66796875 91.98828125 C-34.77276765 87.00281171 -33.84095722 83.26143584 -31 79 C-30.28856912 77.01548229 -29.61008664 75.01797888 -29 73 C-28.34 73 -27.68 73 -27 73 C-26.896875 71.80375 -26.79375 70.6075 -26.6875 69.375 C-26.34369026 65.38680702 -24.81207951 62.54537294 -23 59 C-22.11138038 56.67956894 -21.25788415 54.34542427 -20.4375 52 C-20.02371094 50.824375 -19.60992187 49.64875 -19.18359375 48.4375 C-18.10258108 45.29792524 -17.04280633 42.15244679 -16 39 C-15.34 39 -14.68 39 -14 39 C-13.90203125 38.3709375 -13.8040625 37.741875 -13.703125 37.09375 C-12.79118833 31.87369874 -11.53490228 27.58531087 -9.0078125 22.93359375 C-7.66118162 20.34994149 -6.70437175 17.67864927 -5.71875 14.94140625 C-5.02254694 13.06090124 -4.23123386 11.21646256 -3.4375 9.375 C-2.12118252 6.28451549 -1.01470019 3.2002083 0 0 Z " fill="#5AAAB5" transform="translate(126,102)"/>
<path d="M0 0 C45.54 0 91.08 0 138 0 C141 10 141 10 140 13 C136 7.25 136 7.25 136 5 C90.79 5 45.58 5 -1 5 C-0.67 3.35 -0.34 1.7 0 0 Z " fill="#519EA7" transform="translate(60,10)"/>
<path d="M0 0 C0.99 0 1.98 0 3 0 C2.67 1.65 2.34 3.3 2 5 C47.21 5 92.42 5 139 5 C139 5.33 139 5.66 139 6 C94.12 6 49.24 6 3 6 C2.34 7.65 1.68 9.3 1 11 C-0.18962543 13.44906455 -1.39536567 15.88379416 -2.625 18.3125 C-2.97691406 19.0125415 -3.32882813 19.71258301 -3.69140625 20.43383789 C-5.1331478 23.30160806 -6.57935419 26.16711329 -8.02636719 29.03222656 C-11.75094153 36.41206387 -15.39914192 43.81191837 -18.875 51.3125 C-22.1822125 58.44253897 -25.76982096 65.39969917 -29.49951172 72.31762695 C-31.46141078 75.97678757 -33.31579874 79.63326259 -34.97265625 83.44140625 C-37.13409379 88.40634589 -39.6374294 93.16313874 -42.1875 97.9375 C-43.0769016 99.61323949 -43.96622828 101.28901875 -44.85546875 102.96484375 C-45.43784302 104.05720337 -45.43784302 104.05720337 -46.03198242 105.17163086 C-46.70336863 106.43972955 -47.35830946 107.71661893 -48 109 C-48.66 108.67 -49.32 108.34 -50 108 C-46.9925803 99.61088189 -43.3618473 91.60245965 -39.25317383 83.6940918 C-35.93166894 77.39661162 -35.93166894 77.39661162 -34.0625 70.5625 C-33.21147894 65.66241029 -30.83751996 61.65834787 -28.4543457 57.3671875 C-24.84958888 50.84727951 -21.67211481 44.14887397 -18.50195312 37.40917969 C-16.06841959 32.23644188 -13.57786611 27.10251938 -11 22 C-10.34 22 -9.68 22 -9 22 C-8.89816406 21.14148438 -8.79632813 20.28296875 -8.69140625 19.3984375 C-7.94202588 15.71504245 -6.67376769 12.94976792 -4.9375 9.625 C-4.38964844 8.56539062 -3.84179688 7.50578125 -3.27734375 6.4140625 C-2.85582031 5.61742187 -2.43429688 4.82078125 -2 4 C-1.34 4 -0.68 4 0 4 C0 2.68 0 1.36 0 0 Z " fill="#5FB2BE" transform="translate(57,10)"/>
<path d="M0 0 C0.33 0 0.66 0 1 0 C1 2.31 1 4.62 1 7 C-44.87 7 -90.74 7 -138 7 C-137.67 5.68 -137.34 4.36 -137 3 C-91.79 2.67 -46.58 2.34 0 2 C0 1.34 0 0.68 0 0 Z " fill="#539DA9" transform="translate(198,236)"/>
<path d="M0 0 C0.33 0.99 0.66 1.98 1 3 C1.66 3 2.32 3 3 3 C13 23 13 23 14.4453125 25.90234375 C15.5949678 28.19298861 16.75654108 30.47536175 17.9296875 32.75390625 C18.25324219 33.38748047 18.57679688 34.02105469 18.91015625 34.67382812 C19.82945281 36.47334184 20.75442408 38.26995324 21.6796875 40.06640625 C23 43 23 43 23 46 C23.66 46 24.32 46 25 46 C26.25664978 48.90600261 27 50.79604584 27 54 C27.66 54 28.32 54 29 54 C32 60.625 32 60.625 32 64 C32.66 64 33.32 64 34 64 C35.25664978 66.90600261 36 68.79604584 36 72 C36.66 72 37.32 72 38 72 C39.25664978 74.90600261 40 76.79604584 40 80 C40.66 80 41.32 80 42 80 C44.23891142 85.45126259 45.47606294 90.13190493 46 96 C46.66 96 47.32 96 48 96 C48.50336767 97.62395997 49.00258976 99.24920541 49.5 100.875 C49.7784375 101.77992187 50.056875 102.68484375 50.34375 103.6171875 C51 106 51 106 51 108 C50.34 108 49.68 108 49 108 C49 107.34 49 106.68 49 106 C48.34 106 47.68 106 47 106 C46.01 102.7 45.02 99.4 44 96 C43.34 96 42.68 96 42 96 C41.34 93.36 40.68 90.72 40 88 C39.34 88 38.68 88 38 88 C37.01 84.7 36.02 81.4 35 78 C34.34 78 33.68 78 33 78 C32.4121875 76.63875 32.4121875 76.63875 31.8125 75.25 C31.54179687 74.62351562 31.27109375 73.99703125 30.9921875 73.3515625 C30.22855329 71.5416893 29.48815581 69.72199909 28.7578125 67.8984375 C28.10425781 66.27808594 28.10425781 66.27808594 27.4375 64.625 C27.02371094 63.58601563 26.60992187 62.54703125 26.18359375 61.4765625 C25.24847943 58.86833934 25.24847943 58.86833934 23 58 C23 56.68 23 55.36 23 54 C22.34 54 21.68 54 21 54 C19.515 49.05 19.515 49.05 18 44 C17.34 44 16.68 44 16 44 C15.73445312 43.30132812 15.46890625 42.60265625 15.1953125 41.8828125 C14.84210938 40.97273438 14.48890625 40.06265625 14.125 39.125 C13.77695313 38.22007813 13.42890625 37.31515625 13.0703125 36.3828125 C12.11469105 33.87782993 12.11469105 33.87782993 10 32 C10 30.68 10 29.36 10 28 C9.34 28 8.68 28 8 28 C7.73445312 27.37351562 7.46890625 26.74703125 7.1953125 26.1015625 C6.84210938 25.28429687 6.48890625 24.46703125 6.125 23.625 C5.77695313 22.81289063 5.42890625 22.00078125 5.0703125 21.1640625 C4.07553933 18.86197701 4.07553933 18.86197701 2 17 C2 14.66666667 2 12.33333333 2 10 C1.36893571 7.98848259 0.70626239 5.98636298 0 4 C0 2.68 0 1.36 0 0 Z " fill="#59A4AF" transform="translate(198,10)"/>
<path d="M0 0 C0.99 0.33 1.98 0.66 3 1 C3.73046875 3.06640625 3.73046875 3.06640625 4.1875 5.5625 C4.34605469 6.38878906 4.50460938 7.21507813 4.66796875 8.06640625 C4.77753906 8.70449219 4.88710937 9.34257813 5 10 C4.195625 10.309375 3.39125 10.61875 2.5625 10.9375 C0.10919595 11.76335345 0.10919595 11.76335345 -1 13 C-1.25170266 14.39194606 -1.4753269 15.7889827 -1.6875 17.1875 C-2.79877731 23.08320788 -5.10606223 28.27439752 -7.5625 33.703125 C-8.89770669 36.76539251 -9.94876539 39.83270261 -11 43 C-11.495 43.804375 -11.99 44.60875 -12.5 45.4375 C-14.1992599 48.08006836 -14.1992599 48.08006836 -15 51.75 C-15.33 52.8225 -15.66 53.895 -16 55 C-17.485 55.495 -17.485 55.495 -19 56 C-19.9201297 57.8610544 -19.9201297 57.8610544 -20.5 60.125 C-22.10357248 65.40342608 -24.26044671 70.3360051 -26.5 75.375 C-27.96008845 78.90354709 -29.05207518 82.40412376 -30.05859375 86.08203125 C-31.25971363 88.52912611 -32.50835285 89.03301579 -35 90 C-34.48164329 85.54213227 -33.3590115 82.7744184 -31 79 C-30.28856912 77.01548229 -29.61008664 75.01797888 -29 73 C-28.34 73 -27.68 73 -27 73 C-26.896875 71.80375 -26.79375 70.6075 -26.6875 69.375 C-26.34369026 65.38680702 -24.81207951 62.54537294 -23 59 C-22.11138038 56.67956894 -21.25788415 54.34542427 -20.4375 52 C-20.02371094 50.824375 -19.60992187 49.64875 -19.18359375 48.4375 C-18.10258108 45.29792524 -17.04280633 42.15244679 -16 39 C-15.34 39 -14.68 39 -14 39 C-13.90203125 38.3709375 -13.8040625 37.741875 -13.703125 37.09375 C-12.79118833 31.87369874 -11.53490228 27.58531087 -9.0078125 22.93359375 C-7.66118162 20.34994149 -6.70437175 17.67864927 -5.71875 14.94140625 C-5.02254694 13.06090124 -4.23123386 11.21646256 -3.4375 9.375 C-2.12118252 6.28451549 -1.01470019 3.2002083 0 0 Z " fill="#5199A3" transform="translate(126,102)"/>
<path d="M0 0 C0.99 0 1.98 0 3 0 C3.66 0.66 4.32 1.32 5 2 C5.66 2 6.32 2 7 2 C7 4.97 7 7.94 7 11 C7.66 11 8.32 11 9 11 C9.33 10.34 9.66 9.68 10 9 C10.33 11.64 10.66 14.28 11 17 C11.66 17 12.32 17 13 17 C13.309375 18.11375 13.61875 19.2275 13.9375 20.375 C14.82326483 23.7945155 14.82326483 23.7945155 16 26 C16.66 25.67 17.32 25.34 18 25 C18.33 27.97 18.66 30.94 19 34 C20.485 34.495 20.485 34.495 22 35 C22.66 39.95 23.32 44.9 24 50 C24.66 50 25.32 50 26 50 C26.66 52.97 27.32 55.94 28 59 C28.99 59 29.98 59 31 59 C31.66 61.97 32.32 64.94 33 68 C33.66 68 34.32 68 35 68 C35.99 72.95 36.98 77.9 38 83 C38.99 81.02 39.98 79.04 41 77 C41.95465783 79.16967689 42.14401212 80.56328793 41.3984375 82.82421875 C40.64129615 84.5684743 39.82390802 86.28627131 39 88 C38.01 88 37.02 88 36 88 C35.01 83.71 34.02 79.42 33 75 C32.34 75 31.68 75 31 75 C30.80365967 74.46632813 30.60731934 73.93265625 30.4050293 73.3828125 C29.49944013 70.92178147 28.59347212 68.46089007 27.6875 66 C27.37876953 65.16082031 27.07003906 64.32164062 26.75195312 63.45703125 C26.29272461 62.20986328 26.29272461 62.20986328 25.82421875 60.9375 C25.5204834 60.10992187 25.21674805 59.28234375 24.90380859 58.4296875 C24.31502492 56.84687412 23.71434282 55.26842003 23.10009766 53.6953125 C21.91557024 50.65356307 21 48.29579231 21 45 C20.34 45 19.68 45 19 45 C17.50178941 41.62902617 17 39.79557881 17 36 C16.34 36 15.68 36 15 36 C14.75765625 35.17757812 14.5153125 34.35515625 14.265625 33.5078125 C11.29034053 21.38652575 11.29034053 21.38652575 5 11 C4.2833793 8.68152126 3.61757973 6.34680297 3 4 C2.67 3.01 2.34 2.02 2 1 C1.34 0.67 0.68 0.34 0 0 Z " fill="#55A0AA" transform="translate(126,70)"/>
<path d="M0 0 C0.95537629 2.55346025 1.15729668 3.62899221 0.07421875 6.18359375 C-0.38339844 6.92738281 -0.84101563 7.67117187 -1.3125 8.4375 C-3.21062342 11.56478071 -4.68124417 14.58798094 -6 18 C-6.80382727 19.77478694 -7.61665872 21.54551768 -8.4375 23.3125 C-10.4931534 27.82639766 -12.45650833 32.28377547 -14 37 C-13.67 37.66 -13.34 38.32 -13 39 C-13.66 39.99 -14.32 40.98 -15 42 C-14.80436914 47.67329502 -13.38906811 51.92711955 -10.9375 57.01953125 C-10 59 -10 59 -9 62 C-9.66 62 -10.32 62 -11 62 C-9.12396739 66.50247826 -7.10026336 70.81936589 -4.76953125 75.10546875 C-4 77 -4 77 -4 81 C-4.66 81 -5.32 81 -6 81 C-9 74.375 -9 74.375 -9 71 C-9.66 71 -10.32 71 -11 71 C-12.25664978 68.09399739 -13 66.20395416 -13 63 C-13.66 63 -14.32 63 -15 63 C-16.25664978 60.09399739 -17 58.20395416 -17 55 C-17.66 55 -18.32 55 -19 55 C-21.81500636 48.46918524 -22.45804479 44.94529768 -19.9375 38.125 C-19.628125 37.42375 -19.31875 36.7225 -19 36 C-18.34 36 -17.68 36 -17 36 C-16.855625 35.236875 -16.71125 34.47375 -16.5625 33.6875 C-16 31 -16 31 -15 28 C-14.34 28 -13.68 28 -13 28 C-12.7525 27.01 -12.505 26.02 -12.25 25 C-11.21925165 21.35159577 -9.67375083 18.13915251 -7.90234375 14.796875 C-6.86945308 12.84692807 -6.86945308 12.84692807 -6 10 C-5.34 10 -4.68 10 -4 10 C-3.896875 9.278125 -3.79375 8.55625 -3.6875 7.8125 C-2.94013068 4.75508007 -1.71954811 2.61670365 0 0 Z " fill="#6AAEB8" transform="translate(22,81)"/>
<path d="M0 0 C0.598125 0.33 1.19625 0.66 1.8125 1 C4.05386471 2.20787988 4.05386471 2.20787988 7 2 C7.50789063 3.17175781 8.01578125 4.34351563 8.5390625 5.55078125 C12.34424776 14.26187121 16.31139925 22.72190669 21 31 C23.53619835 35.62673884 25.61652726 39.63138166 26 45 C25.67 45.66 25.34 46.32 25 47 C24.01 47 23.02 47 22 47 C15.57891285 35.35373019 9.81640365 23.42699107 4.14990234 11.39794922 C3.19836812 9.41366703 2.19379457 7.45491678 1.17578125 5.50390625 C0 3 0 3 0 0 Z " fill="#83BCC5" transform="translate(35,196)"/>
<path d="M0 0 C0.66 0 1.32 0 2 0 C3.08540083 3.24173049 2.91871063 4.86660913 1.625 8 C-0.12402561 12.78597008 -0.51421488 17.33338845 -0.7890625 22.3984375 C-1 25 -1 25 -2 28 C-2.66 28 -3.32 28 -4 28 C-4.66 31.96 -5.32 35.92 -6 40 C-6.66 40 -7.32 40 -8 40 C-8.66 42.97 -9.32 45.94 -10 49 C-10.66 49 -11.32 49 -12 49 C-12.02578125 49.58007812 -12.0515625 50.16015625 -12.078125 50.7578125 C-12.47023099 56.15818137 -13.25005062 59.82148497 -17 64 C-18.32 64 -19.64 64 -21 64 C-21.33 62.02 -21.66 60.04 -22 58 C-20 60 -20 60 -20 63 C-19.34 63 -18.68 63 -18 63 C-17.73058594 62.04738281 -17.46117187 61.09476563 -17.18359375 60.11328125 C-15.85342337 55.45826986 -14.45781529 50.82332084 -13.0625 46.1875 C-12.81048828 45.34896484 -12.55847656 44.51042969 -12.29882812 43.64648438 C-12.04681641 42.80794922 -11.79480469 41.96941406 -11.53515625 41.10546875 C-11.15798462 39.84911621 -11.15798462 39.84911621 -10.77319336 38.56738281 C-10.24569939 36.81584299 -9.71513056 35.06522698 -9.18188477 33.31542969 C-7.92949679 29.19054658 -6.69788287 25.09759521 -5.8125 20.875 C-5.544375 19.59625 -5.27625 18.3175 -5 17 C-4.34 17 -3.68 17 -3 17 C-2.95101562 16.35933594 -2.90203125 15.71867188 -2.8515625 15.05859375 C-2.3959855 9.78803915 -1.6402621 5.03013712 0 0 Z " fill="#4C8F98" transform="translate(184,132)"/>
<path d="M0 0 C0.66 0 1.32 0 2 0 C1.47446778 4.2042578 -0.1082931 7.43993622 -2.0625 11.1328125 C-3.12637293 13.1406578 -3.12637293 13.1406578 -4 16 C-4.66 16 -5.32 16 -6 16 C-6.2165625 17.1446875 -6.2165625 17.1446875 -6.4375 18.3125 C-7 21 -7 21 -8 24 C-8.66 24 -9.32 24 -10 24 C-10.17015625 24.54527344 -10.3403125 25.09054688 -10.515625 25.65234375 C-12.32540814 31.28384978 -14.50345378 36.63939569 -17 42 C-17.66 42 -18.32 42 -19 42 C-19.33 40.68 -19.66 39.36 -20 38 C-20.66 38 -21.32 38 -22 38 C-21.67 36.68 -21.34 35.36 -21 34 C-20.34 34 -19.68 34 -19 34 C-18.90460938 33.15050781 -18.80921875 32.30101562 -18.7109375 31.42578125 C-17.90654785 27.54968386 -16.5080211 24.66354105 -14.625 21.1875 C-14.01914063 20.04667969 -13.41328125 18.90585938 -12.7890625 17.73046875 C-11 15 -11 15 -8 14 C-7.34 14.33 -6.68 14.66 -6 15 C-5.34 12.36 -4.68 9.72 -4 7 C-3.34 7 -2.68 7 -2 7 C-1.34 4.69 -0.68 2.38 0 0 Z " fill="#5EA9B3" transform="translate(218,200)"/>
<path d="M0 0 C5.26056484 7.89084725 6.75427782 17.7554301 8 27 C8.66 27 9.32 27 10 27 C10.33 28.32 10.66 29.64 11 31 C11.66 31 12.32 31 13 31 C14.1577506 34.47325181 14.06866652 37.36067448 14 41 C14.99 41 15.98 41 17 41 C16.01 44.3 15.02 47.6 14 51 C13.34 51 12.68 51 12 51 C11.49528803 49.23050388 10.99639315 47.45934777 10.5 45.6875 C10.2215625 44.70136719 9.943125 43.71523437 9.65625 42.69921875 C9 40 9 40 9 37 C8.34 37 7.68 37 7 37 C6.89453857 36.44650879 6.78907715 35.89301758 6.68041992 35.32275391 C4.18379467 21.98764845 4.18379467 21.98764845 0.59765625 8.91796875 C-0.21706523 6.30340503 -0.72080669 3.72213477 -1 1 C-0.67 0.67 -0.34 0.34 0 0 Z " fill="#57A4AE" transform="translate(77,108)"/>
<path d="M0 0 C0.99 0.99 1.98 1.98 3 3 C2 5 2 5 0.0625 6.5625 C-2.46160408 9.5455321 -2.68203108 11.73027776 -3.37109375 15.4921875 C-4.29325026 19.16935817 -5.99792937 22.31320968 -7.78125 25.640625 C-10.04853463 30.02985551 -11.63826948 34.69412425 -13.375 39.3125 C-15.31833952 44.38709578 -17.45883163 49.2000153 -20 54 C-20.33 54 -20.66 54 -21 54 C-21.25 47.375 -21.25 47.375 -19 44 C-18.690625 43.05125 -18.38125 42.1025 -18.0625 41.125 C-17 38 -17 38 -15.5625 35.75 C-14.11690996 33.20576154 -13.40480671 31.16820596 -12.625 28.375 C-11.5379963 24.48953997 -10.13048392 21.0070357 -8.375 17.375 C-6.77244643 14.0077297 -5.70190121 11.21850131 -5.375 7.5 C-5 4 -5 4 -3.5625 2.0625 C-2 1 -2 1 0 0 Z " fill="#67C1CE" transform="translate(129,111)"/>
<path d="M0 0 C4.29 0 8.58 0 13 0 C14.69595581 8.47977905 14.05122011 14.07802485 11 22 C10.64035156 22.97066406 10.64035156 22.97066406 10.2734375 23.9609375 C9.79682817 25.24411646 9.31499248 26.52536551 8.828125 27.8046875 C7.17503505 32.1869354 5.59473949 36.59625237 4 41 C3.01 41 2.02 41 1 41 C2.54718654 31.42564563 5.13857817 22.48431113 8.23828125 13.31640625 C9.57970312 9.23710794 10.78210988 5.11762851 12 1 C8.04 1 4.08 1 0 1 C0 0.67 0 0.34 0 0 Z " fill="#4D9099" transform="translate(190,70)"/>
<path d="M0 0 C0.33 0.99 0.66 1.98 1 3 C1.66 3 2.32 3 3 3 C13.0625 23.125 13.0625 23.125 14.51171875 26.03125 C15.56863778 28.13953993 16.63470019 30.24325712 17.70703125 32.34375 C18.25746094 33.4265625 18.80789062 34.509375 19.375 35.625 C19.87773437 36.60726562 20.38046875 37.58953125 20.8984375 38.6015625 C22 41 22 41 22 43 C20.515 42.505 20.515 42.505 19 42 C18.6278958 40.67696283 18.29369827 39.34262065 18 38 C17.34 37.67 16.68 37.34 16 37 C15.05790983 35.22144796 14.19286047 33.40149035 13.375 31.5625 C12.70597656 30.07943359 12.70597656 30.07943359 12.0234375 28.56640625 C11 26 11 26 11 24 C10.34 24 9.68 24 9 24 C8.67 25.32 8.34 26.64 8 28 C7.73445312 27.37351562 7.46890625 26.74703125 7.1953125 26.1015625 C6.84210938 25.28429687 6.48890625 24.46703125 6.125 23.625 C5.77695313 22.81289063 5.42890625 22.00078125 5.0703125 21.1640625 C4.07553933 18.86197701 4.07553933 18.86197701 2 17 C2 14.66666667 2 12.33333333 2 10 C1.36893571 7.98848259 0.70626239 5.98636298 0 4 C0 2.68 0 1.36 0 0 Z " fill="#62ADB8" transform="translate(198,10)"/>
<path d="M0 0 C1.32026859 3.68611902 0.6716794 6.26851412 -0.3125 10 C-0.70888672 11.546875 -0.70888672 11.546875 -1.11328125 13.125 C-2 16 -2 16 -3.046875 18.0859375 C-4.13704213 20.27520756 -4.52580885 22.21758697 -4.9375 24.625 C-6.50741112 32.97741775 -9.26449416 40.96808923 -12 49 C-12.33 49 -12.66 49 -13 49 C-13.25186199 44.38253022 -13.12937236 40.90749297 -11.5 36.5625 C-10.35500898 33.4636711 -9.88747698 31.22531867 -10.125 27.9375 C-10.45930242 20.73714017 -7.30625261 13.71284242 -5 7 C-4.01 7 -3.02 7 -2 7 C-1.34 4.69 -0.68 2.38 0 0 Z " fill="#59A7B2" transform="translate(196,104)"/>
<path d="M0 0 C0.66 0 1.32 0 2 0 C2.84069415 1.60032137 3.67231505 3.20541171 4.5 4.8125 C4.9640625 5.70582031 5.428125 6.59914063 5.90625 7.51953125 C7 10 7 10 7 13 C7.99 13.33 8.98 13.66 10 14 C10.3721042 15.32303717 10.70630173 16.65737935 11 18 C11.66 18.33 12.32 18.66 13 19 C13.9296875 21.15234375 13.9296875 21.15234375 14.875 23.9375 C16.50589425 28.66401617 18.33784413 33.2381836 20.36328125 37.80859375 C21.08637485 40.29727784 20.85207152 41.58671356 20 44 C19.73445313 43.36191406 19.46890625 42.72382812 19.1953125 42.06640625 C18.84210938 41.24011719 18.48890625 40.41382813 18.125 39.5625 C17.77695313 38.73878906 17.42890625 37.91507813 17.0703125 37.06640625 C16.1755063 34.84253285 16.1755063 34.84253285 14 34 C14 32.68 14 31.36 14 30 C13.34 30 12.68 30 12 30 C11.01 26.7 10.02 23.4 9 20 C8.34 20 7.68 20 7 20 C6.73445312 19.30132812 6.46890625 18.60265625 6.1953125 17.8828125 C5.84210938 16.97273438 5.48890625 16.06265625 5.125 15.125 C4.77695313 14.22007813 4.42890625 13.31515625 4.0703125 12.3828125 C3.11469105 9.87782993 3.11469105 9.87782993 1 8 C0.43479997 5.34462628 0.26211802 2.70855287 0 0 Z " fill="#57A3AE" transform="translate(207,34)"/>
<path d="M0 0 C2.10388569 -0.05402274 4.20816714 -0.09280256 6.3125 -0.125 C8.07013672 -0.15980469 8.07013672 -0.15980469 9.86328125 -0.1953125 C13 0 13 0 16 2 C16.33 2.99 16.66 3.98 17 5 C17.66 5.33 18.32 5.66 19 6 C19.57836914 7.71826172 19.57836914 7.71826172 20.03515625 9.9296875 C20.20466797 10.72503906 20.37417969 11.52039063 20.54882812 12.33984375 C20.71833984 13.17644531 20.88785156 14.01304688 21.0625 14.875 C21.40627947 16.51849588 21.75128286 18.16173634 22.09765625 19.8046875 C22.24726807 20.53671387 22.39687988 21.26874023 22.55102539 22.02294922 C23.00986399 24.19340167 23.00986399 24.19340167 24 27 C24.0685495 28.89470816 24.08480372 30.7916834 24.0625 32.6875 C24.05347656 33.68136719 24.04445313 34.67523438 24.03515625 35.69921875 C24.02355469 36.45847656 24.01195313 37.21773437 24 38 C18.33646724 32.33646724 17.53456553 20.75120016 17 13 C16.34 13 15.68 13 15 13 C14.01 9.37 13.02 5.74 12 2 C8.04 1.67 4.08 1.34 0 1 C0 0.67 0 0.34 0 0 Z " fill="#55A0AB" transform="translate(52,70)"/>
<path d="M0 0 C1.4858532 4.4575596 -0.5259107 6.87212772 -2.48046875 10.98046875 C-4.35646407 14.70834635 -6.34577244 18.36154423 -8.375 22.0078125 C-11.40715813 27.59106521 -14.18895264 33.3030549 -17 39 C-17.66 38.67 -18.32 38.34 -19 38 C-15.60568032 28.53163458 -11.30649463 19.51940691 -6.875 10.5 C-6.53831299 9.80519531 -6.20162598 9.11039063 -5.85473633 8.39453125 C-4.24872695 5.16107257 -2.82425658 2.31553955 0 0 Z " fill="#58A1AC" transform="translate(26,80)"/>
<path d="M0 0 C0.99 0.33 1.98 0.66 3 1 C3.73046875 3.06640625 3.73046875 3.06640625 4.1875 5.5625 C4.34605469 6.38878906 4.50460938 7.21507813 4.66796875 8.06640625 C4.77753906 8.70449219 4.88710937 9.34257813 5 10 C4.195625 10.309375 3.39125 10.61875 2.5625 10.9375 C0.10919595 11.76335345 0.10919595 11.76335345 -1 13 C-1.27520267 14.45378802 -1.51947348 15.91346189 -1.75 17.375 C-2.87785754 23.37867244 -5.29000501 28.55932303 -8 34 C-9.06966012 30.78384072 -8.93622227 29.12476474 -7.6875 26 C-5.97551121 21.32108041 -5.25120311 16.72822447 -4.625 11.796875 C-3.93378153 8.70367234 -2.71320562 6.6443939 -1 4 C-0.30420546 1.80869466 -0.30420546 1.80869466 0 0 Z " fill="#58A5B0" transform="translate(126,102)"/>
<path d="M0 0 C0.33 0.99 0.66 1.98 1 3 C1.66 3 2.32 3 3 3 C4.25664978 5.90600261 5 7.79604584 5 11 C5.66 11 6.32 11 7 11 C10 17.625 10 17.625 10 21 C10.66 21 11.32 21 12 21 C13.25664978 23.90600261 14 25.79604584 14 29 C14.66 29 15.32 29 16 29 C17.25664978 31.90600261 18 33.79604584 18 37 C18.66 37 19.32 37 20 37 C21.485 41.95 21.485 41.95 23 47 C19.53514726 44.69009817 18.92231504 42.74392632 17.35546875 39.00390625 C15.637361 35.19634182 13.66860063 31.55082679 11.6875 27.875 C8.65214035 22.20060746 5.69967957 16.50041277 2.9375 10.6875 C2.4892688 9.76396729 2.4892688 9.76396729 2.03198242 8.82177734 C0.49978554 5.54497266 0 3.71331371 0 0 Z " fill="#B4D4DA" transform="translate(220,53)"/>
<path d="M0 0 C1.39460991 2.78921982 0.58060045 4.12077103 -0.3125 7.0625 C-0.70888672 8.41021484 -0.70888672 8.41021484 -1.11328125 9.78515625 C-2 12 -2 12 -4 13 C-4.72693904 14.97888961 -5.39816251 16.97954558 -6 19 C-6.66 19 -7.32 19 -8 19 C-8.66 21.64 -9.32 24.28 -10 27 C-11.32 27 -12.64 27 -14 27 C-12.08524445 20.61936702 -9.6024078 14.85482129 -6.4375 9 C-6.03853516 8.23816406 -5.63957031 7.47632813 -5.22851562 6.69140625 C-2.25926102 1.12963051 -2.25926102 1.12963051 0 0 Z " fill="#5CA9B4" transform="translate(222,188)"/>
<path d="M0 0 C0.33 0 0.66 0 1 0 C2.32 5.61 3.64 11.22 5 17 C5.33 17 5.66 17 6 17 C6.19335938 18.03640625 6.38671875 19.0728125 6.5859375 20.140625 C6.84864867 21.51047609 7.11168671 22.88026452 7.375 24.25 C7.50132813 24.93191406 7.62765625 25.61382812 7.7578125 26.31640625 C8.44543807 29.85767793 9.29717933 32.82923048 11 36 C11.125 38.75 11.125 38.75 11 41 C10.67 40.34 10.34 39.68 10 39 C9.34 39 8.68 39 8 39 C7.75092896 38.03175293 7.75092896 38.03175293 7.49682617 37.04394531 C6.73646265 34.11009729 5.96214716 31.18010745 5.1875 28.25 C4.92646484 27.23421875 4.66542969 26.2184375 4.39648438 25.171875 C4.13544922 24.1921875 3.87441406 23.2125 3.60546875 22.203125 C3.36981201 21.30239258 3.13415527 20.40166016 2.89135742 19.47363281 C1.95266796 16.86864742 0.66725825 15.18489077 -1 13 C-1.328125 10.01953125 -1.328125 10.01953125 -1.25 6.8125 C-1.23453125 5.74644531 -1.2190625 4.68039063 -1.203125 3.58203125 C-1 1 -1 1 0 0 Z " fill="#65BECA" transform="translate(77,96)"/>
<path d="M0 0 C0.66 0 1.32 0 2 0 C3.08540083 3.24173049 2.91871063 4.86660913 1.625 8 C-0.12402561 12.78597008 -0.51421488 17.33338845 -0.7890625 22.3984375 C-1 25 -1 25 -2 28 C-2.66 28 -3.32 28 -4 28 C-4 28.66 -4 29.32 -4 30 C-4.99 30 -5.98 30 -7 30 C-6.85769192 28.58297487 -6.71099254 27.1663904 -6.5625 25.75 C-6.48128906 24.96109375 -6.40007812 24.1721875 -6.31640625 23.359375 C-6.02365007 21.17635361 -5.57935581 19.1226818 -5 17 C-4.34 17 -3.68 17 -3 17 C-2.95101562 16.35933594 -2.90203125 15.71867188 -2.8515625 15.05859375 C-2.3959855 9.78803915 -1.6402621 5.03013712 0 0 Z " fill="#4B8E97" transform="translate(184,132)"/>
<path d="M0 0 C0.99 0 1.98 0 3 0 C3.66 0.66 4.32 1.32 5 2 C5.66 2 6.32 2 7 2 C7 4.97 7 7.94 7 11 C7.66 11 8.32 11 9 11 C9.33 10.34 9.66 9.68 10 9 C10.33 11.64 10.66 14.28 11 17 C11.66 17 12.32 17 13 17 C13.28875 18.03125 13.5775 19.0625 13.875 20.125 C14.5417167 22.4918443 15.27500965 24.74863738 16.125 27.0625 C17.0554939 30.18630095 17.15432577 32.7591588 17 36 C16.34 36 15.68 36 15 36 C14.75765625 35.17757812 14.5153125 34.35515625 14.265625 33.5078125 C11.29034053 21.38652575 11.29034053 21.38652575 5 11 C4.2833793 8.68152126 3.61757973 6.34680297 3 4 C2.67 3.01 2.34 2.02 2 1 C1.34 0.67 0.68 0.34 0 0 Z " fill="#549DA8" transform="translate(126,70)"/>
<path d="M0 0 C0.99 0.33 1.98 0.66 3 1 C-0.875 10.6875 -0.875 10.6875 -1.94140625 13.31640625 C-2.62958881 15.06098712 -3.28530097 16.81885084 -3.90234375 18.58984375 C-6.11358116 24.7490415 -9.04211002 29.6282645 -14 34 C-14.66 34 -15.32 34 -16 34 C-16 33.01 -16 32.02 -16 31 C-16.99 30.67 -17.98 30.34 -19 30 C-17.9275 29.814375 -16.855 29.62875 -15.75 29.4375 C-12.34442977 28.4536686 -11.97243309 27.96274742 -9.6875 24.875 C-7.8137666 21.05515722 -6.87381093 17.15060192 -6 13 C-5.34 13 -4.68 13 -4 13 C-3.87882812 12.39671875 -3.75765625 11.7934375 -3.6328125 11.171875 C-3.46523437 10.37265625 -3.29765625 9.5734375 -3.125 8.75 C-2.96257812 7.96109375 -2.80015625 7.1721875 -2.6328125 6.359375 C-2.00849925 4.03168856 -1.15161458 2.10968048 0 0 Z " fill="#65BECB" transform="translate(106,166)"/>
<path d="M0 0 C0.66 0 1.32 0 2 0 C2.33 1.32 2.66 2.64 3 4 C3.66 4 4.32 4 5 4 C6.1577506 7.47325181 6.06866652 10.36067448 6 14 C6.99 14 7.98 14 9 14 C8.01 17.3 7.02 20.6 6 24 C5.34 24 4.68 24 4 24 C2.41100069 19.73479134 1.68931809 15.97558343 1.4375 11.4375 C1.21177272 7.52642941 0.86179402 3.82465609 0 0 Z " fill="#61B7C3" transform="translate(85,135)"/>
<path d="M0 0 C5 2 5 2 6.2578125 4.171875 C6.54398438 5.02265625 6.83015625 5.8734375 7.125 6.75 C8.21833237 9.85972403 9.26278088 12.47300558 10.875 15.375 C12 18 12 18 11.1875 20.375 C10.795625 20.91125 10.40375 21.4475 10 22 C9.67 21.01 9.34 20.02 9 19 C7.68 18.67 6.36 18.34 5 18 C3.35 12.06 1.7 6.12 0 0 Z " fill="#70B2BB" transform="translate(28,178)"/>
<path d="M0 0 C0.99 0 1.98 0 3 0 C2.67 1.65 2.34 3.3 2 5 C2.66 5.33 3.32 5.66 4 6 C2.68 8.64 1.36 11.28 0 14 C-1.32 14 -2.64 14 -4 14 C-4.0825 14.78375 -4.165 15.5675 -4.25 16.375 C-5 19 -5 19 -7.046875 20.1640625 C-8.01367188 20.57785156 -8.01367188 20.57785156 -9 21 C-7.1668733 15.00067626 -4.92678249 9.55079437 -2 4 C-1.34 4 -0.68 4 0 4 C0 2.68 0 1.36 0 0 Z " fill="#68AAB4" transform="translate(57,10)"/>
<path d="M0 0 C0.66 0 1.32 0 2 0 C1.57994678 5.25066525 0.56182345 10.20802569 -0.75 15.3125 C-1.20632812 17.10107422 -1.20632812 17.10107422 -1.671875 18.92578125 C-3.22490566 22.52059046 -4.4382936 23.48863629 -8 25 C-10.3125 24.6875 -10.3125 24.6875 -12 24 C-11.01 24 -10.02 24 -9 24 C-6.98283374 19.10116765 -5.1927034 14.16838138 -4 9 C-3.34 9 -2.68 9 -2 9 C-1.34 6.03 -0.68 3.06 0 0 Z " fill="#5BAAB6" transform="translate(176,172)"/>
<path d="M0 0 C0.99 0.99 1.98 1.98 3 3 C2 5 2 5 0 6.8125 C-2.24250739 9.26524246 -2.63882309 10.74940783 -3 14 C-3.66 14 -4.32 14 -5 14 C-5.12632813 14.56589844 -5.25265625 15.13179687 -5.3828125 15.71484375 C-6.03072239 18.11375061 -6.88113319 20.2858516 -7.875 22.5625 C-8.20242187 23.32691406 -8.52984375 24.09132812 -8.8671875 24.87890625 C-10.00823633 27.01542181 -11.20432259 28.39415134 -13 30 C-11.54453006 25.33588042 -9.98183192 20.8510822 -7.875 16.4375 C-6.48039526 13.43252149 -5.73302774 10.9240546 -5.4375 7.625 C-5 4 -5 4 -3.5625 2.0625 C-2 1 -2 1 0 0 Z " fill="#63B9C6" transform="translate(129,111)"/>
<path d="M0 0 C3.1744176 1.09462676 3.98914157 1.98177335 5.75 4.9375 C7 8 7 8 7 11 C7.66 11 8.32 11 9 11 C9.50833591 12.24663331 10.00631145 13.49749387 10.5 14.75 C10.7784375 15.44609375 11.056875 16.1421875 11.34375 16.859375 C12 19 12 19 12 23 C11.34 23 10.68 23 10 23 C9.67 22.01 9.34 21.02 9 20 C8.34 19.67 7.68 19.34 7 19 C6.26598743 17.2137116 5.60998969 15.39485184 5 13.5625 C3.66663135 9.37786705 3.66663135 9.37786705 1 6 C0.60235737 4.01178687 0.26224651 2.01055661 0 0 Z " fill="#59A7B2" transform="translate(11,143)"/>
<path d="M0 0 C0.598125 0.33 1.19625 0.66 1.8125 1 C4.05386471 2.20787988 4.05386471 2.20787988 7 2 C9.125 8.75 9.125 8.75 8 11 C8.32046309 13.45393363 8.32046309 13.45393363 8.9375 16.125 C9.13214844 17.03507812 9.32679687 17.94515625 9.52734375 18.8828125 C9.68332031 19.58148438 9.83929688 20.28015625 10 21 C6.85365982 17.34750945 4.74491029 13.75775745 2.75 9.375 C2.22921875 8.24835938 1.7084375 7.12171875 1.171875 5.9609375 C0 3 0 3 0 0 Z " fill="#7AB7C0" transform="translate(35,196)"/>
<path d="M0 0 C0.95537629 2.55346025 1.15729668 3.62899221 0.07421875 6.18359375 C-0.38339844 6.92738281 -0.84101563 7.67117187 -1.3125 8.4375 C-3.21055021 11.56466008 -4.6969396 14.5807695 -6 18 C-10.80337079 29.88202247 -10.80337079 29.88202247 -16 33 C-15.67 31.35 -15.34 29.7 -15 28 C-14.34 28 -13.68 28 -13 28 C-12.62875 26.515 -12.62875 26.515 -12.25 25 C-11.21925165 21.35159577 -9.67375083 18.13915251 -7.90234375 14.796875 C-6.86945308 12.84692807 -6.86945308 12.84692807 -6 10 C-5.34 10 -4.68 10 -4 10 C-3.896875 9.278125 -3.79375 8.55625 -3.6875 7.8125 C-2.94013068 4.75508007 -1.71954811 2.61670365 0 0 Z " fill="#A8CED4" transform="translate(22,81)"/>
<path d="M0 0 C0.66 0 1.32 0 2 0 C3.25664978 2.90600261 4 4.79604584 4 8 C4.66 8 5.32 8 6 8 C7.25664978 10.90600261 8 12.79604584 8 16 C8.66 16 9.32 16 10 16 C11.25664978 18.90600261 12 20.79604584 12 24 C11.34 24 10.68 24 10 24 C9.34 23.01 8.68 22.02 8 21 C7.34 21.99 6.68 22.98 6 24 C5.34 22.02 4.68 20.04 4 18 C4.66 18 5.32 18 6 18 C5.7834375 17.38511719 5.566875 16.77023438 5.34375 16.13671875 C5.0653125 15.32847656 4.786875 14.52023438 4.5 13.6875 C4.2215625 12.88699219 3.943125 12.08648437 3.65625 11.26171875 C3 9 3 9 3 6 C2.34 6 1.68 6 1 6 C0.67 4.02 0.34 2.04 0 0 Z " fill="#66AEB8" transform="translate(243,100)"/>
<path d="M0 0 C4.29 0 8.58 0 13 0 C13.55239521 12.15269461 13.55239521 12.15269461 10.0234375 18.109375 C8.32542492 21.2461616 7.74392459 24.52835192 7 28 C6.34 28 5.68 28 5 28 C5.47254097 22.80204932 6.42704477 18.30075541 8.16796875 13.38671875 C9.59177707 9.30246107 10.77339897 5.14707967 12 1 C8.04 1 4.08 1 0 1 C0 0.67 0 0.34 0 0 Z " fill="#407981" transform="translate(190,70)"/>
<path d="M0 0 C1.07600031 3.2352712 0.93045298 5.01069271 -0.25 8.1875 C-1.13349321 10.59919767 -1.99260658 12.97399843 -2.6953125 15.4453125 C-4.13009379 20.44230941 -5.38803394 23.13310218 -10 26 C-10 24.68 -10 23.36 -10 22 C-9.34 22 -8.68 22 -8 22 C-7.90203125 21.3709375 -7.8040625 20.741875 -7.703125 20.09375 C-6.65475735 14.09274894 -4.96099932 9.29741284 -2 4 C-1.32773703 2.66947953 -0.65959026 1.33684812 0 0 Z " fill="#437E86" transform="translate(120,119)"/>
<path d="M0 0 C1 3 1 3 -0.546875 6.65234375 C-1.27100046 8.08595243 -2.00584874 9.51418329 -2.75 10.9375 C-3.29140625 12.01161133 -3.29140625 12.01161133 -3.84375 13.10742188 C-5.64981961 16.63776446 -7.46361085 19.92583214 -10 23 C-10.66 22.67 -11.32 22.34 -12 22 C-9.9775431 15.42701507 -7.9398907 8.88604993 -3 4 C-2.67 3.01 -2.34 2.02 -2 1 C-1.34 0.67 -0.68 0.34 0 0 Z " fill="#5BA4AF" transform="translate(55,23)"/>
<path d="M0 0 C1.77632708 3.55265417 0.09670541 7.36749769 -1 11 C-5.36740026 22.194258 -5.36740026 22.194258 -9 25 C-9.99 25 -10.98 25 -12 25 C-12.33 24.01 -12.66 23.02 -13 22 C-8.25 19 -8.25 19 -6 19 C-5.87882813 18.3709375 -5.75765625 17.741875 -5.6328125 17.09375 C-3.47380541 6.0662061 -3.47380541 6.0662061 -2 1 C-1.34 0.67 -0.68 0.34 0 0 Z " fill="#66C0CD" transform="translate(179,175)"/>
<path d="M0 0 C0.33 0 0.66 0 1 0 C1.33 2.97 1.66 5.94 2 9 C2.99 9.33 3.98 9.66 5 10 C6.61729417 13.67566856 6.06546005 18.07239675 6 22 C3.34408418 21.0261642 2.21984491 20.42944616 0.91015625 17.87109375 C-0.17226737 14.45658148 -0.4595392 11.32263148 -0.6875 7.75 C-0.77386719 6.50734375 -0.86023438 5.2646875 -0.94921875 3.984375 C-0.96597656 2.99953125 -0.98273438 2.0146875 -1 1 C-0.67 0.67 -0.34 0.34 0 0 Z " fill="#58A6B1" transform="translate(143,95)"/>
<path d="M0 0 C0.66 0 1.32 0 2 0 C1.47446778 4.2042578 -0.1082931 7.43993622 -2.0625 11.1328125 C-3.12637293 13.1406578 -3.12637293 13.1406578 -4 16 C-4.66 16 -5.32 16 -6 16 C-6.144375 16.763125 -6.28875 17.52625 -6.4375 18.3125 C-7 21 -7 21 -8 24 C-8.66 24 -9.32 24 -10 24 C-10.25 18.375 -10.25 18.375 -8 15 C-7.34 15 -6.68 15 -6 15 C-5.34 12.36 -4.68 9.72 -4 7 C-3.34 7 -2.68 7 -2 7 C-1.34 4.69 -0.68 2.38 0 0 Z " fill="#A8CED5" transform="translate(218,200)"/>
<path d="M0 0 C0.33 0.99 0.66 1.98 1 3 C0.67 3.66 0.34 4.32 0 5 C1.65 4.34 3.3 3.68 5 3 C4.34 5.31 3.68 7.62 3 10 C2.34 10 1.68 10 1 10 C0.34 12.64 -0.32 15.28 -1 18 C-1.66 18 -2.32 18 -3 18 C-3.33 18.66 -3.66 19.32 -4 20 C-3.855625 19.29875 -3.71125 18.5975 -3.5625 17.875 C-3.376875 16.92625 -3.19125 15.9775 -3 15 C-2.79375 13.948125 -2.5875 12.89625 -2.375 11.8125 C-1.73925894 9.05356428 -1.73925894 9.05356428 -3 7 C-2.06421005 4.64018187 -1.06652192 2.30368736 0 0 Z " fill="#7DB9C3" transform="translate(224,180)"/>
<path d="M0 0 C0.93045933 2.55144824 1.08564091 3.74006478 0.22265625 6.359375 C-0.16019531 7.14828125 -0.54304688 7.9371875 -0.9375 8.75 C-1.31777344 9.54921875 -1.69804688 10.3484375 -2.08984375 11.171875 C-2.39019531 11.77515625 -2.69054688 12.3784375 -3 13 C-3.66 13 -4.32 13 -5 13 C-5.061875 14.051875 -5.12375 15.10375 -5.1875 16.1875 C-6.13408616 20.6291735 -7.59156258 22.11593757 -11 25 C-11.33 24.34 -11.66 23.68 -12 23 C-11.33496094 21.30761719 -11.33496094 21.30761719 -10.234375 19.296875 C-9.83863281 18.56339844 -9.44289063 17.82992187 -9.03515625 17.07421875 C-8.61105469 16.30722656 -8.18695312 15.54023437 -7.75 14.75 C-6.93172621 13.24509899 -6.11400765 11.73989593 -5.296875 10.234375 C-4.90435547 9.51572266 -4.51183594 8.79707031 -4.10742188 8.05664062 C-2.67734154 5.40077714 -1.32815413 2.70805453 0 0 Z " fill="#B0D3D9" transform="translate(35,55)"/>
<path d="M0 0 C2.10388569 -0.05402274 4.20816714 -0.09280256 6.3125 -0.125 C8.07013672 -0.15980469 8.07013672 -0.15980469 9.86328125 -0.1953125 C13 0 13 0 16 2 C16.33 2.99 16.66 3.98 17 5 C17.66 5.33 18.32 5.66 19 6 C19.40729228 8.32156597 19.74438677 10.6568787 20 13 C19.67 12.34 19.34 11.68 19 11 C18.01 11 17.02 11 16 11 C15.67 11.66 15.34 12.32 15 13 C14.01 9.37 13.02 5.74 12 2 C8.04 1.67 4.08 1.34 0 1 C0 0.67 0 0.34 0 0 Z " fill="#4E929C" transform="translate(52,70)"/>
<path d="M0 0 C0.66 0.33 1.32 0.66 2 1 C2.73075648 3.3140622 3.40138258 5.64828869 4 8 C3.34 8 2.68 8 2 8 C2.22816406 8.61488281 2.45632812 9.22976562 2.69140625 9.86328125 C3.12259766 11.07564453 3.12259766 11.07564453 3.5625 12.3125 C3.85253906 13.11300781 4.14257812 13.91351563 4.44140625 14.73828125 C5 17 5 17 4 20 C2.66180502 17.3773768 1.3292849 14.75213401 0 12.125 C-0.3815625 11.37863281 -0.763125 10.63226563 -1.15625 9.86328125 C-1.5171875 9.14785156 -1.878125 8.43242187 -2.25 7.6953125 C-2.58515625 7.03547363 -2.9203125 6.37563477 -3.265625 5.69580078 C-4 4 -4 4 -4 2 C-2 2 -2 2 -0.375 3.5 C0.07875 3.995 0.5325 4.49 1 5 C0.67 3.35 0.34 1.7 0 0 Z " fill="#8CC1C8" transform="translate(27,171)"/>
<path d="M0 0 C0.66 0 1.32 0 2 0 C1.5577181 4.53338949 0.29986978 7.53730845 -2.0234375 11.33984375 C-3.274468 13.46659561 -4.09526036 15.70799292 -5 18 C-6.5 20.8125 -6.5 20.8125 -8 23 C-8.66 23 -9.32 23 -10 23 C-9.40477108 18.18236592 -7.32726383 14.5412905 -5 10.375 C-2.17716709 5.3375344 -2.17716709 5.3375344 0 0 Z " fill="#A7CED4" transform="translate(46,32)"/>
<path d="M0 0 C2.99548794 2.56756109 4.28773896 5.48315011 6 9 C6.52980469 10.03640625 7.05960938 11.0728125 7.60546875 12.140625 C8.12753906 13.16671875 8.64960938 14.1928125 9.1875 15.25 C9.71730469 16.28640625 10.24710938 17.3228125 10.79296875 18.390625 C12 21 12 21 12 23 C11.01 22.67 10.02 22.34 9 22 C8.6278958 20.67696283 8.29369827 19.34262065 8 18 C7.34 17.67 6.68 17.34 6 17 C4.88703778 14.93265825 3.8570969 12.82012104 2.875 10.6875 C2.33617187 9.53636719 1.79734375 8.38523437 1.2421875 7.19921875 C0 4 0 4 0 0 Z " fill="#9AC5CD" transform="translate(208,30)"/>
<path d="M0 0 C0.66 0 1.32 0 2 0 C1.63102969 2.12982862 1.22889176 4.2539326 0.8125 6.375 C0.48185547 8.15003906 0.48185547 8.15003906 0.14453125 9.9609375 C-1 13 -1 13 -3.61328125 14.4140625 C-4.79470703 14.70410156 -4.79470703 14.70410156 -6 15 C-5.00581033 9.11335061 -3.82567192 4.66253765 0 0 Z " fill="#5CA6B1" transform="translate(230,170)"/>
<path d="M0 0 C1.81355964 5.55810363 0.39321816 11.7777994 -1.88671875 17.05078125 C-2.875 18.6875 -2.875 18.6875 -5 21 C-6.32 21 -7.64 21 -9 21 C-9.33 19.02 -9.66 17.04 -10 15 C-8 17 -8 17 -8 20 C-7.34 20 -6.68 20 -6 20 C-5.7525 19.113125 -5.505 18.22625 -5.25 17.3125 C-3.59640626 11.51293934 -1.78439831 5.76031493 0 0 Z " fill="#335F66" transform="translate(172,175)"/>
<path d="M0 0 C0.99 0.33 1.98 0.66 3 1 C3.33 2.98 3.66 4.96 4 7 C2.824375 7.5259375 2.824375 7.5259375 1.625 8.0625 C-1.83547272 10.61665844 -2.14536744 12.88222494 -3 17 C-3.66 17 -4.32 17 -5 17 C-4.5513763 11.70624037 -3.98776666 8.48164999 -1 4 C-0.30420546 1.80869466 -0.30420546 1.80869466 0 0 Z " fill="#3E757D" transform="translate(126,102)"/>
<path d="M0 0 C1.8125 0.5 1.8125 0.5 4 2 C5.81213892 5.31738334 7.28916393 8.46663529 6.57421875 12.2578125 C6.38472656 12.83273438 6.19523437 13.40765625 6 14 C5.01 13.67 4.02 13.34 3 13 C2.05078125 10.8203125 2.05078125 10.8203125 1.3125 8.125 C1.06113281 7.24070313 0.80976562 6.35640625 0.55078125 5.4453125 C0 3 0 3 0 0 Z " fill="#5CA7B2" transform="translate(42,204)"/>
<path d="M0 0 C2 1 2 1 2.66796875 2.99609375 C2.83941406 3.80175781 3.01085938 4.60742188 3.1875 5.4375 C3.45626953 6.64212891 3.45626953 6.64212891 3.73046875 7.87109375 C4 10 4 10 3 12 C2.01 12 1.02 12 0 12 C-3.22265625 6.7265625 -3.22265625 6.7265625 -4 5 C-3.67 4.34 -3.34 3.68 -3 3 C-2.01 3.33 -1.02 3.66 0 4 C0 2.68 0 1.36 0 0 Z " fill="#84BDC5" transform="translate(57,231)"/>
<path d="M0 0 C0.33 0.99 0.66 1.98 1 3 C1.66 3 2.32 3 3 3 C4.25664978 5.90600261 5 7.79604584 5 11 C5.66 11 6.32 11 7 11 C9.09230769 15.43076923 9.09230769 15.43076923 8.625 18.3125 C8.315625 19.1478125 8.315625 19.1478125 8 20 C5.87392255 16.56460799 4.01031226 13.10334689 2.3125 9.4375 C1.87550781 8.50808594 1.43851563 7.57867187 0.98828125 6.62109375 C0 4 0 4 0 0 Z " fill="#ABCFD5" transform="translate(220,53)"/>
<path d="M0 0 C1 2 1 2 1 4 C1.99 4 2.98 4 4 4 C3.67 5.32 3.34 6.64 3 8 C2.34 8 1.68 8 1 8 C0.855625 8.94875 0.71125 9.8975 0.5625 10.875 C0 14 0 14 -1 16 C-1.66 16 -2.32 16 -3 16 C-2.51421457 12.87709365 -2.0013988 10.00419641 -1 7 C-1.66 7 -2.32 7 -3 7 C-1.125 1.125 -1.125 1.125 0 0 Z " fill="#85BDC6" transform="translate(246,137)"/>
<path d="M0 0 C2.31 0 4.62 0 7 0 C6.01 3.3 5.02 6.6 4 10 C3.34 10 2.68 10 2 10 C0.68373308 6.38026598 0 3.90432869 0 0 Z " fill="#5197A1" transform="translate(87,149)"/>
<path d="M0 0 C1.07257764 3.30200687 0.92468991 5.67371657 0.25 9.0625 C0.09015625 9.91972656 -0.0696875 10.77695313 -0.234375 11.66015625 C-1.07255016 14.22172218 -1.87834403 15.36589629 -4 17 C-4.66 17 -5.32 17 -6 17 C-5.48164329 12.54213227 -4.3590115 9.7744184 -2 6 C-1.28856912 4.01548229 -0.61008664 2.01797888 0 0 Z " fill="#417982" transform="translate(97,175)"/>
<path d="M0 0 C3.68745585 1.22915195 4.30706729 2.83464906 6.08203125 6.16015625 C8.04126591 10.08696275 9 12.54178224 9 17 C8.34 17 7.68 17 7 17 C4 10.375 4 10.375 4 7 C3.34 7 2.68 7 2 7 C1.34 4.69 0.68 2.38 0 0 Z " fill="#9AC6CD" transform="translate(9,145)"/>
<path d="M0 0 C0.99 0 1.98 0 3 0 C4.59162079 5.57067277 5.20674944 10.21101581 5 16 C4.67 15.01 4.34 14.02 4 13 C3.34 13 2.68 13 2 13 C1.34 8.71 0.68 4.42 0 0 Z " fill="#46838C" transform="translate(82,132)"/>
<path d="M0 0 C0.66 0 1.32 0 2 0 C1.45276317 3.37462715 0.9451 5.08235 -1 8 C-1.28875 9.175625 -1.5775 10.35125 -1.875 11.5625 C-3 15 -3 15 -5.0703125 16.21484375 C-6.02550781 16.60349609 -6.02550781 16.60349609 -7 17 C-5.1668733 11.00067626 -2.92678249 5.55079437 0 0 Z " fill="#AED1D6" transform="translate(55,14)"/>
<path d="M0 0 C1.33453734 4.04900444 0.51356885 6.37881926 -1.03125 10.2265625 C-2 12 -2 12 -4.1875 13.5 C-4.785625 13.665 -5.38375 13.83 -6 14 C-5.62257767 7.83543524 -3.84129692 4.82624485 0 0 Z " fill="#59A2AC" transform="translate(239,154)"/>
<path d="M0 0 C0.33 0 0.66 0 1 0 C1.46450943 6.50313209 0.32575612 10.4174808 -3 16 C-3.33 16 -3.66 16 -4 16 C-4.25 9.375 -4.25 9.375 -2 6 C-1.29835358 4.01200182 -0.62627128 2.01301483 0 0 Z " fill="#63BAC6" transform="translate(112,149)"/>
<path d="M0 0 C2 2 2 2 2.5 4.5625 C2.665 5.366875 2.83 6.17125 3 7 C3.66 7.33 4.32 7.66 5 8 C4.44271087 11.34373475 3.64826111 14.03312999 2 17 C1.67 17 1.34 17 1 17 C0.67 11.39 0.34 5.78 0 0 Z " fill="#66BECB" transform="translate(203,70)"/>
<path d="M0 0 C2.5178998 1.2589499 2.92708464 2.39057117 4.1875 4.875 C4.55230469 5.57367188 4.91710938 6.27234375 5.29296875 6.9921875 C6 9 6 9 5 12 C3.046875 11.3203125 3.046875 11.3203125 1 10 C0.390625 7.6171875 0.390625 7.6171875 0.25 4.875 C0.19328125 3.96492187 0.1365625 3.05484375 0.078125 2.1171875 C0.05234375 1.41851562 0.0265625 0.71984375 0 0 Z " fill="#5FA4AF" transform="translate(52,224)"/>
<path d="M0 0 C3.47733117 1.15911039 3.71562011 1.68261541 5.3125 4.8125 C5.67988281 5.49957031 6.04726563 6.18664062 6.42578125 6.89453125 C7 9 7 9 6.10546875 11.26171875 C5.74066406 11.83535156 5.37585937 12.40898437 5 13 C4.67 12.01 4.34 11.02 4 10 C3.34 9.67 2.68 9.34 2 9 C1.3671875 6.93359375 1.3671875 6.93359375 0.875 4.4375 C0.70742188 3.61121094 0.53984375 2.78492188 0.3671875 1.93359375 C0.24601562 1.29550781 0.12484375 0.65742188 0 0 Z " fill="#58A3AF" transform="translate(33,187)"/>
<path d="M0 0 C0.66 0 1.32 0 2 0 C3.47177418 3.82661288 2.57016757 6.31010622 1 10 C0.03284082 11.03179606 -0.96225307 12.0392288 -2 13 C-1.85769192 11.58297487 -1.71099254 10.1663904 -1.5625 8.75 C-1.48128906 7.96109375 -1.40007812 7.1721875 -1.31640625 6.359375 C-1.02365007 4.17635361 -0.57935581 2.1226818 0 0 Z " fill="#427C84" transform="translate(184,132)"/>
<path d="M0 0 C0.70703125 1.61328125 0.70703125 1.61328125 1 4 C-0.36328125 6.98046875 -0.36328125 6.98046875 -2.3125 10.1875 C-2.94800781 11.25355469 -3.58351563 12.31960937 -4.23828125 13.41796875 C-6 16 -6 16 -8 17 C-7.34 14.69 -6.68 12.38 -6 10 C-5.34 10 -4.68 10 -4 10 C-3.8453125 8.9171875 -3.8453125 8.9171875 -3.6875 7.8125 C-2.94013068 4.75508007 -1.71954811 2.61670365 0 0 Z " fill="#CBE0E5" transform="translate(22,81)"/>
<path d="M0 0 C0.33 0 0.66 0 1 0 C1.125 7.625 1.125 7.625 0 11 C-0.99 11 -1.98 11 -3 11 C-3.33 11.99 -3.66 12.98 -4 14 C-4.33 13.34 -4.66 12.68 -5 12 C-4.26821134 9.92803369 -3.44100997 7.8891448 -2.5625 5.875 C-2.08941406 4.77929688 -1.61632812 3.68359375 -1.12890625 2.5546875 C-0.75636719 1.71164063 -0.38382812 0.86859375 0 0 Z " fill="#407880" transform="translate(109,145)"/>
<path d="M0 0 C0.99 0 1.98 0 3 0 C3.66 0.66 4.32 1.32 5 2 C5.66 2 6.32 2 7 2 C7.33 5.63 7.66 9.26 8 13 C4.10883256 10.40588837 4.08961414 8.43628613 3 4 C2.67 3.01 2.34 2.02 2 1 C1.34 0.67 0.68 0.34 0 0 Z " fill="#46848C" transform="translate(126,70)"/>
<path d="M0 0 C1.07257764 3.30200687 0.92468991 5.67371657 0.25 9.0625 C0.01023438 10.34833984 0.01023438 10.34833984 -0.234375 11.66015625 C-1.06374096 14.19480017 -1.97882865 15.3064361 -4 17 C-3.45018084 10.95198929 -2.09570426 5.69398894 0 0 Z " fill="#45828A" transform="translate(190,114)"/>
<path d="M0 0 C1.12377697 3.30435084 0.89554742 5.0506862 -0.4375 8.25 C-0.72496094 8.95640625 -1.01242188 9.6628125 -1.30859375 10.390625 C-1.53675781 10.92171875 -1.76492188 11.4528125 -2 12 C-2.66 12 -3.32 12 -4 12 C-4.33 12.66 -4.66 13.32 -5 14 C-4.44894091 10.0507432 -3.61064629 6.65079826 -2 3 C-1.34 3 -0.68 3 0 3 C0 2.01 0 1.02 0 0 Z " fill="#B0D2D8" transform="translate(5,114)"/>
<path d="M0 0 C1 3 1 3 0.00390625 5.48046875 C-0.47175781 6.37378906 -0.94742187 7.26710938 -1.4375 8.1875 C-1.91058594 9.08855469 -2.38367188 9.98960938 -2.87109375 10.91796875 C-3.24363281 11.60503906 -3.61617187 12.29210937 -4 13 C-4.66 12.67 -5.32 12.34 -6 12 C-3 3.42857143 -3 3.42857143 0 0 Z " fill="#549FAA" transform="translate(13,106)"/>
<path d="M0 0 C0.33 0.99 0.66 1.98 1 3 C1.66 3 2.32 3 3 3 C3.84114171 4.43294498 4.67265687 5.87154405 5.5 7.3125 C5.9640625 8.11300781 6.428125 8.91351563 6.90625 9.73828125 C8 12 8 12 8 15 C7.34 15 6.68 15 6 15 C4.98965502 13.25595212 3.99207578 11.50450439 3 9.75 C2.1646875 8.28820312 2.1646875 8.28820312 1.3125 6.796875 C0 4 0 4 0 0 Z " fill="#A8CDD3" transform="translate(198,10)"/>
<path d="M0 0 C0.66 0 1.32 0 2 0 C1.42365861 4.75481646 -0.55068521 7.97048212 -3 12 C-3.66 12 -4.32 12 -5 12 C-4.67 10.35 -4.34 8.7 -4 7 C-3.34 7 -2.68 7 -2 7 C-1.34 4.69 -0.68 2.38 0 0 Z " fill="#9AC5CD" transform="translate(218,200)"/>
<path d="M0 0 C0.66 0.99 1.32 1.98 2 3 C1.1025444 6.06630664 0.26961192 7.73038808 -2 10 C-3.31747324 10.69748583 -4.64914193 11.36959957 -6 12 C-5.67 10.68 -5.34 9.36 -5 8 C-4.34 8 -3.68 8 -3 8 C-1.58622659 5.36095629 -0.62759865 2.92879371 0 0 Z " fill="#62A7B2" transform="translate(29,71)"/>
<path d="M0 0 C0.99 0.33 1.98 0.66 3 1 C3.3721042 2.32303717 3.70630173 3.65737935 4 5 C4.66 5.33 5.32 5.66 6 6 C5.67 7.32 5.34 8.64 5 10 C4.54625 9.505 4.0925 9.01 3.625 8.5 C2.12364481 6.77390663 2.12364481 6.77390663 0 7 C-1.125 2.25 -1.125 2.25 0 0 Z " fill="#62AAB4" transform="translate(214,47)"/>
<path d="M0 0 C1.26041675 2.5208335 0.66225891 3.35096436 0 6 C0.33 6.66 0.66 7.32 1 8 C-0.32 9.65 -1.64 11.3 -3 13 C-4.15019009 9.54942972 -3.80497206 8.69840756 -2.625 5.375 C-2.34914063 4.57835938 -2.07328125 3.78171875 -1.7890625 2.9609375 C-1 1 -1 1 0 0 Z " fill="#66AAB5" transform="translate(8,112)"/>
<path d="M0 0 C3 1 3 1 3.984375 2.9609375 C4.23703125 3.75757813 4.4896875 4.55421875 4.75 5.375 C5.14445312 6.56222656 5.14445312 6.56222656 5.546875 7.7734375 C6 10 6 10 5 13 C4.15930585 11.39967863 3.32768495 9.79458829 2.5 8.1875 C1.80390625 6.84751953 1.80390625 6.84751953 1.09375 5.48046875 C0 3 0 3 0 0 Z " fill="#A1CAD0" transform="translate(35,196)"/>
<path d="M0 0 C0.33 0 0.66 0 1 0 C1.82200425 6.24723226 -1.07448606 10.71317837 -4 16 C-5.13643966 12.59068103 -4.86747764 11.99664544 -3.5625 8.8125 C-3.27503906 8.09707031 -2.98757812 7.38164062 -2.69140625 6.64453125 C-2.46324219 6.10183594 -2.23507813 5.55914062 -2 5 C-1.34 5 -0.68 5 0 5 C0 3.35 0 1.7 0 0 Z " fill="#9CC6CE" transform="translate(255,124)"/>
<path d="M0 0 C1.13643966 3.40931897 0.86747764 4.00335456 -0.4375 7.1875 C-0.72496094 7.90292969 -1.01242188 8.61835938 -1.30859375 9.35546875 C-1.53675781 9.89816406 -1.76492187 10.44085938 -2 11 C-2.66 11 -3.32 11 -4 11 C-4.33 11.66 -4.66 12.32 -5 13 C-4.32829194 9.1936543 -3.27253436 5.64793184 -2 2 C-1.34 2 -0.68 2 0 2 C0 1.34 0 0.68 0 0 Z " fill="#9EC7CE" transform="translate(242,153)"/>
<path d="M0 0 C0.95465783 2.16967689 1.14401212 3.56328793 0.3984375 5.82421875 C-0.35870385 7.5684743 -1.17609198 9.28627131 -2 11 C-2.99 11 -3.98 11 -5 11 C-5.33 9.68 -5.66 8.36 -6 7 C-5.01 6.67 -4.02 6.34 -3 6 C-1.29144978 2.99992729 -1.29144978 2.99992729 0 0 Z " fill="#407880" transform="translate(167,147)"/>
<path d="M0 0 C0.66 0 1.32 0 2 0 C3.25664978 2.90600261 4 4.79604584 4 8 C4.66 8 5.32 8 6 8 C6.33 9.65 6.66 11.3 7 13 C5 11.1875 5 11.1875 3 9 C3 8.01 3 7.02 3 6 C2.34 6 1.68 6 1 6 C0.67 4.02 0.34 2.04 0 0 Z " fill="#B5D3DA" transform="translate(243,100)"/>
<path d="M0 0 C0.99 0.33 1.98 0.66 3 1 C3.33 3.97 3.66 6.94 4 10 C3.34 10 2.68 10 2 10 C0.68373308 6.38026598 0 3.90432869 0 0 Z " fill="#45828A" transform="translate(139,96)"/>
<path d="M0 0 C3.2542015 2.83430453 4.5206753 4.68607774 5 9 C4.34 8.67 3.68 8.34 3 8 C2.34 8.66 1.68 9.32 1 10 C0.34 8.02 -0.32 6.04 -1 4 C-0.34 4 0.32 4 1 4 C0.67 2.68 0.34 1.36 0 0 Z " fill="#63ACB7" transform="translate(235,88)"/>
<path d="M0 0 C2 2 2 2 2.25 5.375 C2.02515633 8.63523324 1.7239511 10.30632641 0 13 C-0.66 11.02 -1.32 9.04 -2 7 C-1.67 7 -1.34 7 -1 7 C-0.67 4.69 -0.34 2.38 0 0 Z " fill="#7BBAC4" transform="translate(206,25)"/>
<path d="M0 0 C0.33 0 0.66 0 1 0 C1.36923077 7.38461538 1.36923077 7.38461538 -0.5 10.5 C-0.995 10.995 -1.49 11.49 -2 12 C-2.28571429 3.42857143 -2.28571429 3.42857143 0 0 Z " fill="#5EB0BB" transform="translate(180,160)"/>
<path d="M0 0 C0.598125 0.226875 1.19625 0.45375 1.8125 0.6875 C0.8125 2.6875 0.8125 2.6875 -1.625 4.0625 C-4.31157748 5.76618328 -5.08239103 6.77403091 -6.1875 9.6875 C-5.58414218 3.29190714 -5.58414218 3.29190714 -3.875 0.6875 C-2.1875 -0.3125 -2.1875 -0.3125 0 0 Z " fill="#549EA9" transform="translate(129.1875,109.3125)"/>
<path d="M0 0 C1 3 1 3 0.22265625 5.04296875 C-0.16019531 5.75066406 -0.54304688 6.45835938 -0.9375 7.1875 C-1.31777344 7.90292969 -1.69804688 8.61835938 -2.08984375 9.35546875 C-2.54037109 10.16951172 -2.54037109 10.16951172 -3 11 C-3.66 11 -4.32 11 -5 11 C-4.39102647 7.44765442 -3.54266151 4.2668126 -2 1 C-1.34 0.67 -0.68 0.34 0 0 Z " fill="#549FAA" transform="translate(55,23)"/>
<path d="M0 0 C0.99 0.33 1.98 0.66 3 1 C3 2.65 3 4.3 3 6 C3.66 6 4.32 6 5 6 C5 7.65 5 9.3 5 11 C4.67 10.01 4.34 9.02 4 8 C3.34 8 2.68 8 2 8 C0.74335022 5.09399739 0 3.20395416 0 0 Z " fill="#9CC7CE" transform="translate(18,162)"/>
<path d="M0 0 C0.66 0 1.32 0 2 0 C2.33 3.63 2.66 7.26 3 11 C2.34 11 1.68 11 1 11 C0.7834375 9.63875 0.7834375 9.63875 0.5625 8.25 C0.07533901 5.13728293 0.07533901 5.13728293 -0.625 2.6875 C-0.74875 2.130625 -0.8725 1.57375 -1 1 C-0.67 0.67 -0.34 0.34 0 0 Z " fill="#60B3BF" transform="translate(155,129)"/>
<path d="M0 0 C0.33 0.99 0.66 1.98 1 3 C1.66 3 2.32 3 3 3 C4.25664978 5.90600261 5 7.79604584 5 11 C4.34 11 3.68 11 3 11 C0 4.5 0 4.5 0 0 Z " fill="#B3D3DA" transform="translate(250,113)"/>
<path d="M0 0 C0.33 0 0.66 0 1 0 C3.29612756 9.41002278 3.29612756 9.41002278 3 14 C2.01 13.34 1.02 12.68 0 12 C-0.29296875 9.1796875 -0.29296875 9.1796875 -0.1875 5.875 C-0.16042969 4.77929688 -0.13335937 3.68359375 -0.10546875 2.5546875 C-0.07066406 1.71164063 -0.03585938 0.86859375 0 0 Z " fill="#5FB3BF" transform="translate(76,97)"/>
<path d="M0 0 C0.93045933 2.55144824 1.08564091 3.74006478 0.22265625 6.359375 C-0.16019531 7.14828125 -0.54304688 7.9371875 -0.9375 8.75 C-1.50791016 9.94882813 -1.50791016 9.94882813 -2.08984375 11.171875 C-2.39019531 11.77515625 -2.69054688 12.3784375 -3 13 C-4 11 -4 11 -3.4765625 8.90625 C-3.19554688 8.1121875 -2.91453125 7.318125 -2.625 6.5 C-2.21121094 5.30890625 -2.21121094 5.30890625 -1.7890625 4.09375 C-1 2 -1 2 0 0 Z " fill="#94C2C9" transform="translate(35,55)"/>
<path d="M0 0 C1.32 0 2.64 0 4 0 C4 2.64 4 5.28 4 8 C1.10067643 5.60490662 0.49831724 3.68754757 0 0 Z " fill="#5EA5B0" transform="translate(202,25)"/>
<path d="M0 0 C1 2 1 2 0.44140625 3.9453125 C0.15136719 4.66460937 -0.13867188 5.38390625 -0.4375 6.125 C-0.72496094 6.84945312 -1.01242188 7.57390625 -1.30859375 8.3203125 C-1.53675781 8.87460938 -1.76492187 9.42890625 -2 10 C-2.66 10 -3.32 10 -4 10 C-3.51421457 6.87709365 -3.0013988 4.00419641 -2 1 C-1.34 0.67 -0.68 0.34 0 0 Z " fill="#57A0AB" transform="translate(245,143)"/>
<path d="M0 0 C0.33 1.32 0.66 2.64 1 4 C0.34 4 -0.32 4 -1 4 C-1.33 5.32 -1.66 6.64 -2 8 C-2.66 8 -3.32 8 -4 8 C-3.40138258 5.64828869 -2.73075648 3.3140622 -2 1 C-1.34 0.67 -0.68 0.34 0 0 Z " fill="#56A0AC" transform="translate(215,203)"/>
<path d="M0 0 C0.66 0 1.32 0 2 0 C1.57630928 1.6286551 1.1355377 3.25287378 0.6875 4.875 C0.44386719 5.77992188 0.20023437 6.68484375 -0.05078125 7.6171875 C-1 10 -1 10 -4 12 C-3.71640113 10.5608866 -3.42278601 9.12374482 -3.125 7.6875 C-2.96257812 6.88699219 -2.80015625 6.08648437 -2.6328125 5.26171875 C-2 3 -2 3 0 0 Z " fill="#5199A3" transform="translate(106,156)"/>
<path d="M0 0 C0.99 0.33 1.98 0.66 3 1 C3.33 3.31 3.66 5.62 4 8 C3.34 8 2.68 8 2 8 C0.74335022 5.09399739 0 3.20395416 0 0 Z " fill="#97C3CA" transform="translate(5,136)"/>
<path d="M0 0 C0.66 0.66 1.32 1.32 2 2 C-2.75 6.875 -2.75 6.875 -5 8 C-4.25 3.25 -4.25 3.25 -2 1 C-1.34 0.67 -0.68 0.34 0 0 Z " fill="#5CADB9" transform="translate(129,111)"/>
<path d="M0 0 C1.35439668 2.70879335 1.06501451 5.00933268 1 8 C0.01 8.495 0.01 8.495 -1 9 C-1 8.34 -1 7.68 -1 7 C-1.66 7 -2.32 7 -3 7 C-1.125 1.125 -1.125 1.125 0 0 Z " fill="#62A9B4" transform="translate(20,89)"/>
<path d="M0 0 C2.91227269 3.28804981 4.49701212 5.59885603 5 10 C2 9 2 9 0.8125 6.6875 C0 4 0 4 0 0 Z " fill="#BCDBDF" transform="translate(215,43)"/>
<path d="M0 0 C0.66 0 1.32 0 2 0 C1.47731534 2.76276177 0.89130413 5.3260876 0 8 C-0.66 8 -1.32 8 -2 8 C-1.125 1.125 -1.125 1.125 0 0 Z " fill="#ABD0D6" transform="translate(201,234)"/>
<path d="M0 0 C0.33 0.66 0.66 1.32 1 2 C0.0625 4.625 0.0625 4.625 -1 7 C-1.66 7 -2.32 7 -3 7 C-3.33 7.66 -3.66 8.32 -4 9 C-3.47731534 6.23723823 -2.89130413 3.6739124 -2 1 C-1.34 0.67 -0.68 0.34 0 0 Z " fill="#A6CBD1" transform="translate(228,183)"/>
<path d="M0 0 C2.89932357 2.39509338 3.50168276 4.31245243 4 8 C3.01 8.33 2.02 8.66 1 9 C-0.06546953 5.8035914 -0.07427838 3.34252724 0 0 Z " fill="#5FA9B4" transform="translate(227,72)"/>
<path d="M0 0 C2.76223278 2.76223278 2.57856291 5.20706617 3 9 C0.65941363 6.87219421 -0.70700306 4.88437779 -2 2 C-1.34 2 -0.68 2 0 2 C0 1.34 0 0.68 0 0 Z " fill="#55A1AC" transform="translate(198,14)"/>
<path d="M0 0 C0.66 0 1.32 0 2 0 C1.6875 2.875 1.6875 2.875 1 6 C0.01 6.66 -0.98 7.32 -2 8 C-1.125 1.125 -1.125 1.125 0 0 Z " fill="#A8CFD4" transform="translate(205,226)"/>
<path d="M0 0 C0.99 0.33 1.98 0.66 3 1 C3.33 2.98 3.66 4.96 4 7 C3.01 6.67 2.02 6.34 1 6 C0.67 4.02 0.34 2.04 0 0 Z " fill="#56A0AC" transform="translate(24,169)"/>
<path d="M0 0 C0.99 0.33 1.98 0.66 3 1 C3.33 2.98 3.66 4.96 4 7 C3.01 6.67 2.02 6.34 1 6 C0.67 4.02 0.34 2.04 0 0 Z " fill="#56A1AC" transform="translate(11,143)"/>
<path d="M0 0 C1.32 0.33 2.64 0.66 4 1 C4 1.66 4 2.32 4 3 C3.34 3 2.68 3 2 3 C2.33 3.99 2.66 4.98 3 6 C2.01 5.67 1.02 5.34 0 5 C0 3.35 0 1.7 0 0 Z " fill="#61A8B2" transform="translate(9,140)"/>
<path d="M0 0 C0.6875 1.6875 0.6875 1.6875 1 4 C-0.4375 6.75 -0.4375 6.75 -2 9 C-2.6875 7.3125 -2.6875 7.3125 -3 5 C-1.5625 2.25 -1.5625 2.25 0 0 Z " fill="#ABCFD5" transform="translate(22,81)"/>
<path d="M0 0 C0.66 0 1.32 0 2 0 C1.38461538 5.53846154 1.38461538 5.53846154 -0.5625 7.875 C-1.036875 8.24625 -1.51125 8.6175 -2 9 C-1.51421457 5.87709365 -1.0013988 3.00419641 0 0 Z " fill="#93C1C8" transform="translate(46,32)"/>
<path d="M0 0 C0.75 1.75 0.75 1.75 1 4 C-0.9375 6.25 -0.9375 6.25 -3 8 C-3.33 7.34 -3.66 6.68 -4 6 C-3.67 5.01 -3.34 4.02 -3 3 C-2.01 3 -1.02 3 0 3 C0 2.01 0 1.02 0 0 Z " fill="#93C3CA" transform="translate(52,23)"/>
</svg>
