<?xml version="1.0" encoding="UTF-8"?>
<svg version="1.1" xmlns="http://www.w3.org/2000/svg" width="300" height="300">
<path d="M0 0 C1.24911163 0.33130417 2.49822327 0.66260834 3.78518677 1.00395203 C7.16327815 1.90026351 10.53485604 2.81901187 13.9054451 3.74308014 C17.45652819 4.71328093 21.01249483 5.66524091 24.56811523 6.61865234 C29.01282483 7.81143435 33.45697689 9.00613001 37.89875793 10.20977783 C47.761063 12.87931281 57.6437195 15.45644082 67.54578209 17.97426796 C71.9529872 19.09727065 76.35687582 20.2332156 80.76077747 21.36909389 C84.27753545 22.27510316 87.7959014 23.17335457 91.31906128 24.0541687 C95.24289779 25.03571156 99.1564572 26.05360682 103.0703125 27.07421875 C104.79883957 27.49691292 104.79883957 27.49691292 106.56228638 27.92814636 C113.63869343 29.81083915 118.71910211 32.27457756 123.56640625 37.87890625 C126.96424607 43.99501793 128.56640625 50.90419726 128.56640625 57.87890625 C129.78328125 58.12640625 131.00015625 58.37390625 132.25390625 58.62890625 C136.31426024 59.54264677 140.31798487 60.59850349 144.31640625 61.75390625 C145.38375 62.06070313 146.45109375 62.3675 147.55078125 62.68359375 C153.71150903 65.12554025 156.8062017 68.98526515 159.56640625 74.87890625 C160.58523822 77.92991536 161.30519355 81.02260645 162.00830078 84.15966797 C162.32622589 85.51476974 162.32622589 85.51476974 162.65057373 86.89724731 C163.34413381 89.86532791 164.02175886 92.83680085 164.69921875 95.80859375 C165.18098853 97.88475639 165.66374135 99.96069114 166.14743042 102.03640747 C167.4158635 107.49193593 168.67074353 112.95049514 169.92285156 118.40979004 C171.1954303 123.94700329 172.48117643 129.48115556 173.765625 135.015625 C175.64496019 143.12198008 177.51930253 151.22945913 179.38330078 159.33935547 C179.5755423 160.17497009 179.76778381 161.01058472 179.96585083 161.871521 C180.50191336 164.20674338 181.03452068 166.54272942 181.56640625 168.87890625 C181.753027 169.68962711 181.93964775 170.50034798 182.13192368 171.33563614 C182.40196402 172.52326868 182.40196402 172.52326868 182.67745972 173.7348938 C182.83867247 174.43953325 182.99988522 175.14417271 183.1659832 175.87016487 C183.79884317 179.04493716 183.98353761 182.1470292 184.06640625 185.37890625 C184.14375 187.18875 184.14375 187.18875 184.22265625 189.03515625 C182.75490592 197.63197963 176.01823239 203.88432718 170.12890625 209.94140625 C168.85802003 211.26432466 167.58848478 212.58854224 166.3203125 213.9140625 C165.69527832 214.56713379 165.07024414 215.22020508 164.42626953 215.89306641 C161.97960656 218.50545241 159.64032965 221.20338666 157.29663086 223.90795898 C154.46264933 227.13622664 151.51253594 230.25328375 148.56640625 233.37890625 C144.42970864 237.7879968 140.33767059 242.21331993 136.3984375 246.80078125 C133.36066154 250.24661666 130.19614293 253.57615303 127.06054688 256.93286133 C123.15226333 261.15427694 119.55365725 265.55194237 116.08984375 270.1484375 C115.58710938 270.71949219 115.084375 271.29054688 114.56640625 271.87890625 C113.90640625 271.87890625 113.24640625 271.87890625 112.56640625 271.87890625 C112.30754639 272.45705078 112.04868652 273.03519531 111.78198242 273.63085938 C109.54206461 277.77329023 106.08872165 280.96938187 102.87890625 284.37890625 C102.18345703 285.13816406 101.48800781 285.89742188 100.77148438 286.6796875 C91.59011347 296.46972072 91.59011347 296.46972072 84.87712097 297.15238953 C75.97643443 297.29388621 68.15303904 295.60624482 59.63671875 293.1796875 C58.21324817 292.7874719 56.7893674 292.39674241 55.3651123 292.00738525 C51.58166589 290.96873925 47.80410102 289.91010702 44.02747345 288.84697342 C40.10656014 287.74665317 36.18075321 286.6640813 32.25537109 285.57983398 C26.74438581 284.0558668 21.23520388 282.52566461 15.7282505 280.9871912 C7.09066187 278.57421682 -1.55733999 276.2039734 -10.21484375 273.86328125 C-13.41868612 272.99330919 -16.62228105 272.12243383 -19.82574463 271.25106812 C-21.79630173 270.71618188 -23.767444 270.18344628 -25.73919678 269.65298462 C-28.43907967 268.92513922 -31.13583011 268.1866614 -33.83203125 267.4453125 C-34.97883362 267.14019745 -34.97883362 267.14019745 -36.14880371 266.82891846 C-44.3974026 264.53589045 -51.91942511 261.52375136 -56.43359375 253.87890625 C-57.60257842 250.61350612 -58.24230063 247.35734872 -58.80859375 243.94140625 C-58.97230469 243.06677734 -59.13601562 242.19214844 -59.3046875 241.29101562 C-59.70111787 239.15728747 -60.07022404 237.0185126 -60.43359375 234.87890625 C-61.43132813 234.76160156 -62.4290625 234.64429688 -63.45703125 234.5234375 C-67.45680345 233.94873445 -71.23293765 232.84551281 -75.05859375 231.56640625 C-75.70054688 231.36595703 -76.3425 231.16550781 -77.00390625 230.95898438 C-81.80842005 229.36896598 -85.87417525 227.77139284 -88.37077332 223.14057922 C-92.12739761 214.18808864 -93.94261655 204.72263765 -96.0234375 195.27734375 C-96.45346618 193.35357686 -96.88418952 191.42996513 -97.31556702 189.50650024 C-98.44725647 184.45071069 -99.56861808 179.39268309 -100.68804932 174.33416748 C-101.58949706 170.26899339 -102.4983873 166.20550139 -103.40762234 162.14206314 C-107.18048546 145.2803553 -110.94612101 128.41536029 -114.52734375 111.51171875 C-114.7225914 110.60376556 -114.91783905 109.69581238 -115.1190033 108.76034546 C-116.97912112 99.83241348 -118.29556306 91.40521343 -113.87573242 83.05126953 C-110.96845083 78.67189055 -107.09611883 75.1774195 -103.30859375 71.56640625 C-101.67896997 69.98906305 -100.05127577 68.40972318 -98.42578125 66.828125 C-97.7076123 66.14065186 -96.98944336 65.45317871 -96.24951172 64.74487305 C-94.25520477 62.80932358 -94.25520477 62.80932358 -92.43359375 59.87890625 C-91.77359375 59.87890625 -91.11359375 59.87890625 -90.43359375 59.87890625 C-90.19729248 59.3159082 -89.96099121 58.75291016 -89.7175293 58.17285156 C-88.13552269 55.34635715 -86.20495366 53.44286026 -83.890625 51.17578125 C-82.98119141 50.27730469 -82.07175781 49.37882812 -81.13476562 48.453125 C-80.17224844 47.51133694 -79.20935556 46.5699327 -78.24609375 45.62890625 C-72.62979811 40.11726208 -67.09275206 34.63149769 -61.9777832 28.64794922 C-59.65125603 25.98265026 -57.15098138 23.53968101 -54.62109375 21.06640625 C-51.88673677 18.3923937 -49.55604032 16.06257611 -47.43359375 12.87890625 C-46.77359375 12.87890625 -46.11359375 12.87890625 -45.43359375 12.87890625 C-45.07007812 12.03005859 -45.07007812 12.03005859 -44.69921875 11.1640625 C-43.18722378 8.43407159 -41.38376451 6.52780237 -39.18359375 4.31640625 C-38.4359375 3.55199219 -37.68828125 2.78757812 -36.91796875 2 C-26.4293131 -6.95493714 -12.17092692 -3.38996544 0 0 Z " fill="#4CDFFC" transform="translate(116.43359375,3.12109375)"/>
<path d="M0 0 C1.155 0.4125 2.31 0.825 3.5 1.25 C6.62933513 2.33457084 9.6996803 3.1648749 12.94921875 3.7734375 C13.99529297 3.98564941 13.99529297 3.98564941 15.0625 4.20214844 C16.44872283 4.47799149 17.84110842 4.72490872 19.23828125 4.93847656 C23.58820412 5.84044586 25.58746123 7.30300796 28.06878662 11.00878906 C31.04267533 15.69411332 32.49780785 20.12147937 33.66894531 25.5078125 C33.88118744 26.41150574 34.09342957 27.31519897 34.31210327 28.24627686 C35.00173825 31.20208848 35.6650714 34.16312324 36.328125 37.125 C36.80639548 39.19845105 37.2863018 41.27152539 37.76776123 43.34423828 C39.02620418 48.78189546 40.26232372 54.22438881 41.49377441 59.66821289 C42.7478438 65.19340575 44.02333919 70.71364309 45.296875 76.234375 C47.15869363 84.31777256 49.01157013 92.40312609 50.84863281 100.4921875 C51.03773224 101.32466003 51.22683167 102.15713257 51.42166138 103.01483154 C51.77637572 104.57925876 52.13011964 106.14390642 52.4827652 107.70880127 C52.84004984 109.29146761 53.20051699 110.87341768 53.56356049 112.45477295 C53.74357857 113.24651917 53.92359665 114.03826538 54.10906982 114.85400391 C54.27056896 115.55892975 54.4320681 116.26385559 54.59846115 116.99014282 C55.23279585 120.16523325 55.41711683 123.2675565 55.5 126.5 C55.5515625 127.7065625 55.603125 128.913125 55.65625 130.15625 C54.18849967 138.75307338 47.45182614 145.00542093 41.5625 151.0625 C40.29161378 152.38541841 39.02207853 153.70963599 37.75390625 155.03515625 C36.81635498 156.01476318 36.81635498 156.01476318 35.85986328 157.01416016 C33.41320031 159.62654616 31.0739234 162.32448041 28.73022461 165.02905273 C25.89624308 168.25732039 22.94612969 171.3743775 20 174.5 C15.86330239 178.90909055 11.77126434 183.33441368 7.83203125 187.921875 C4.79425529 191.36771041 1.62973668 194.69724678 -1.50585938 198.05395508 C-5.41414292 202.27537069 -9.012749 206.67303612 -12.4765625 211.26953125 C-12.97929687 211.84058594 -13.48203125 212.41164063 -14 213 C-14.66 213 -15.32 213 -16 213 C-16.25885986 213.57814453 -16.51771973 214.15628906 -16.78442383 214.75195312 C-19.02434164 218.89438398 -22.4776846 222.09047562 -25.6875 225.5 C-26.38294922 226.25925781 -27.07839844 227.01851562 -27.79492188 227.80078125 C-36.97629278 237.59081447 -36.97629278 237.59081447 -43.68928528 238.27348328 C-52.58997182 238.41497996 -60.41336721 236.72733857 -68.9296875 234.30078125 C-70.35315808 233.90856565 -71.77703885 233.51783616 -73.20129395 233.128479 C-76.98474036 232.089833 -80.76230523 231.03120077 -84.5389328 229.96806717 C-88.45984611 228.86774692 -92.38565304 227.78517505 -96.31103516 226.70092773 C-101.82202044 225.17696055 -107.33120237 223.64675836 -112.83815575 222.10828495 C-121.47574438 219.69531057 -130.12374624 217.32506715 -138.78125 214.984375 C-141.98509237 214.11440294 -145.1886873 213.24352758 -148.39215088 212.37216187 C-150.36270798 211.83727563 -152.33385025 211.30454003 -154.30560303 210.77407837 C-157.00548592 210.04623297 -159.70223636 209.30775515 -162.3984375 208.56640625 C-163.16297241 208.36299622 -163.92750732 208.15958618 -164.71520996 207.95001221 C-171.71013677 206.0054925 -179.15607686 203.33202102 -183.87890625 197.546875 C-186.51245822 191.5640322 -185.98552177 184.43557333 -186 178 C-180.62804814 178.55858791 -175.66245139 179.5130332 -170.5 181.125 C-163.73286569 183.19331413 -156.94539325 185.18456311 -150.1484375 187.15234375 C-141.14462144 189.76707655 -132.16513322 192.45470535 -123.1953125 195.18359375 C-119.68637456 196.24486098 -116.17701471 197.30472015 -112.66748047 198.36401367 C-110.27938719 199.08768329 -107.89269027 199.81597493 -105.50732422 200.54858398 C-101.9904098 201.62728542 -98.46854781 202.68824832 -94.9453125 203.74609375 C-93.89103058 204.07411484 -92.83674866 204.40213593 -91.7505188 204.74009705 C-84.47298388 206.90063007 -76.91362947 208.91844582 -69.8125 205.4375 C-64.42297612 200.7665793 -59.66184571 195.68789066 -55.0078125 190.29296875 C-52.58927388 187.53094118 -50.11108624 184.82602288 -47.625 182.125 C-42.01137226 176.02235695 -36.45346586 169.87127647 -30.93359375 163.68359375 C-26.31258613 158.51793698 -21.61378097 153.43231266 -16.875 148.375 C-12.78358174 144.00827537 -8.73891043 139.62289588 -4.8359375 135.0859375 C-2.27507211 132.17635852 0.36440797 129.3418243 3 126.5 C8.82942832 120.23893192 8.82942832 120.23893192 14.46484375 113.8046875 C15.51950729 112.56485403 16.61946792 111.36259648 17.75390625 110.1953125 C21.99723138 105.44987697 22.8878888 101.52021468 22.59375 95.2109375 C21.5404881 86.29837809 18.99839922 77.55030023 16.74755859 68.88330078 C16.1343351 66.51812462 15.53695474 64.15083287 14.95703125 61.77734375 C13.2017918 54.61075474 11.34318745 47.47248742 9.48046875 40.33325195 C6.93038318 30.55272428 4.41189951 20.76844897 2.0625 10.9375 C1.85117432 10.05747314 1.63984863 9.17744629 1.42211914 8.27075195 C0 2.25288528 0 2.25288528 0 0 Z " fill="#0889BA" transform="translate(245,62)"/>
<path d="M0 0 C1.24911163 0.33130417 2.49822327 0.66260834 3.78518677 1.00395203 C7.16327815 1.90026351 10.53485604 2.81901187 13.9054451 3.74308014 C17.45652819 4.71328093 21.01249483 5.66524091 24.56811523 6.61865234 C29.01282483 7.81143435 33.45697689 9.00613001 37.89875793 10.20977783 C47.761063 12.87931281 57.6437195 15.45644082 67.54578209 17.97426796 C71.9529872 19.09727065 76.35687582 20.2332156 80.76077747 21.36909389 C84.27753545 22.27510316 87.7959014 23.17335457 91.31906128 24.0541687 C95.24289779 25.03571156 99.1564572 26.05360682 103.0703125 27.07421875 C104.79883957 27.49691292 104.79883957 27.49691292 106.56228638 27.92814636 C114.9604275 30.16248924 120.8539513 33.50397891 125.50390625 41.00390625 C127.41381006 46.32959957 127.32235174 52.28248389 127.56640625 57.87890625 C120.95849223 56.79564166 114.73686713 55.05674055 108.37890625 53.00390625 C100.16975051 50.35753892 91.92319134 48.01768936 83.56640625 45.87890625 C79.77377815 44.90343606 75.98220388 43.92396569 72.19140625 42.94140625 C70.69480469 42.55359985 70.69480469 42.55359985 69.16796875 42.15795898 C62.85906145 40.51105754 56.60447975 38.73935971 50.36450195 36.85058594 C42.24951301 34.42912344 34.03557234 32.37478873 25.82910156 30.28930664 C24.71760742 30.00563232 23.60611328 29.72195801 22.4609375 29.4296875 C21.46940674 29.17872314 20.47787598 28.92775879 19.45629883 28.66918945 C17.41422169 28.11075373 15.39093961 27.48131001 13.38549805 26.80297852 C7.57568733 24.8985762 1.05545974 24.78372271 -4.55859375 27.25390625 C-11.0306436 33.16316915 -17.09172523 39.3576126 -22.7890625 46.015625 C-24.97633117 48.49383677 -27.32639254 50.78254792 -29.68359375 53.09765625 C-31.51601862 54.96280299 -33.2271251 56.89818371 -34.93359375 58.87890625 C-37.68725741 62.075123 -40.58086292 65.05168361 -43.59082031 68.00488281 C-45.36367523 69.80780204 -47.02039923 71.66462668 -48.66796875 73.58203125 C-52.39733107 77.87119215 -56.27164643 82.0066238 -60.18359375 86.12890625 C-61.58770176 87.61675147 -62.99134508 89.10503536 -64.39453125 90.59375 C-65.07741211 91.31804199 -65.76029297 92.04233398 -66.46386719 92.78857422 C-69.25340341 95.74891248 -72.04029813 98.71118369 -74.80859375 101.69140625 C-75.66195312 102.60535156 -76.5153125 103.51929687 -77.39453125 104.4609375 C-81.98218828 109.90109018 -82.1018621 114.68380558 -81.65744019 121.65496826 C-80.76666766 130.5048874 -78.64470838 139.24472511 -76.83984375 147.94140625 C-76.36777907 150.26472246 -75.89697466 152.58829505 -75.42736816 154.91210938 C-74.19527973 160.99501243 -72.94901114 167.07491454 -71.6987915 173.15411377 C-69.69453613 182.9103308 -67.71049743 192.67066561 -65.72941589 202.43161011 C-65.0363998 205.83443945 -64.33636524 209.23576827 -63.63537598 212.63696289 C-63.21051031 214.71757331 -62.78581822 216.79821918 -62.36132812 218.87890625 C-62.16496262 219.82233383 -61.96859711 220.76576141 -61.76628113 221.73777771 C-61.58958389 222.60935013 -61.41288666 223.48092255 -61.23083496 224.37890625 C-61.07597374 225.13171875 -60.92111252 225.88453125 -60.76155853 226.66015625 C-60.40184877 229.09366764 -60.37842729 231.42242351 -60.43359375 233.87890625 C-61.41199219 233.61335937 -62.39039063 233.3478125 -63.3984375 233.07421875 C-64.7226522 232.71743289 -66.04687124 232.36066313 -67.37109375 232.00390625 C-68.05534424 231.81755615 -68.73959473 231.63120605 -69.44458008 231.43920898 C-73.15717606 230.43991688 -76.82960621 229.59664655 -80.62109375 228.94140625 C-85.06254903 227.70362363 -86.19044619 226.84755193 -88.43359375 222.87890625 C-90.66016657 217.37321571 -92.25714143 211.97395052 -93.53076172 206.18164062 C-93.71823975 205.35095566 -93.90571777 204.52027069 -94.09887695 203.66441345 C-94.71338067 200.93503661 -95.3196914 198.20391271 -95.92578125 195.47265625 C-96.35747154 193.54608265 -96.78961908 191.61961146 -97.22219849 189.6932373 C-98.12834402 185.65254433 -99.03075443 181.6110426 -99.93017578 177.56884766 C-101.06697789 172.45998326 -102.21018613 167.35258214 -103.35580921 162.24568939 C-111.05799967 127.907051 -111.05799967 127.907051 -114.53125 111.50390625 C-114.72625092 110.59644653 -114.92125183 109.68898682 -115.12216187 108.75402832 C-116.97980465 99.82833726 -118.29409086 91.40243083 -113.87573242 83.05126953 C-110.96845083 78.67189055 -107.09611883 75.1774195 -103.30859375 71.56640625 C-101.67896997 69.98906305 -100.05127577 68.40972318 -98.42578125 66.828125 C-97.7076123 66.14065186 -96.98944336 65.45317871 -96.24951172 64.74487305 C-94.25520477 62.80932358 -94.25520477 62.80932358 -92.43359375 59.87890625 C-91.77359375 59.87890625 -91.11359375 59.87890625 -90.43359375 59.87890625 C-90.19729248 59.3159082 -89.96099121 58.75291016 -89.7175293 58.17285156 C-88.13552269 55.34635715 -86.20495366 53.44286026 -83.890625 51.17578125 C-82.98119141 50.27730469 -82.07175781 49.37882812 -81.13476562 48.453125 C-80.17224844 47.51133694 -79.20935556 46.5699327 -78.24609375 45.62890625 C-72.62979811 40.11726208 -67.09275206 34.63149769 -61.9777832 28.64794922 C-59.65125603 25.98265026 -57.15098138 23.53968101 -54.62109375 21.06640625 C-51.88673677 18.3923937 -49.55604032 16.06257611 -47.43359375 12.87890625 C-46.77359375 12.87890625 -46.11359375 12.87890625 -45.43359375 12.87890625 C-45.07007812 12.03005859 -45.07007812 12.03005859 -44.69921875 11.1640625 C-43.18722378 8.43407159 -41.38376451 6.52780237 -39.18359375 4.31640625 C-38.4359375 3.55199219 -37.68828125 2.78757812 -36.91796875 2 C-26.4293131 -6.95493714 -12.17092692 -3.38996544 0 0 Z " fill="#0654BC" transform="translate(116.43359375,3.12109375)"/>
<path d="M0 0 C1.16273437 -0.020625 2.32546875 -0.04125 3.5234375 -0.0625 C5.1940625 -0.07023437 5.1940625 -0.07023437 6.8984375 -0.078125 C7.92372559 -0.0874707 8.94901367 -0.09681641 10.00537109 -0.10644531 C13.09306465 0.3136882 13.68466934 0.90135661 15.625 3.25 C16.51574024 6.01719612 17.26039407 8.69908651 17.9296875 11.51953125 C18.13409454 12.34460678 18.33850159 13.16968231 18.54910278 14.01976013 C19.20971624 16.69826253 19.85499713 19.38019996 20.5 22.0625 C20.94842924 23.89244626 21.39764873 25.72219904 21.84765625 27.55175781 C24.41672601 38.03972709 26.93189277 48.54239603 29.17919922 59.10473633 C29.97294829 62.77191804 30.85959793 65.94444944 32.625 69.25 C35.04031163 62.28051645 37.00697525 55.2584794 38.875 48.125 C42.16266039 35.73965076 45.7549994 23.46559416 49.625 11.25 C49.88861328 10.39937988 50.15222656 9.54875977 50.42382812 8.67236328 C50.68099609 7.86395996 50.93816406 7.05555664 51.203125 6.22265625 C51.5419873 5.14576538 51.5419873 5.14576538 51.88769531 4.04711914 C52.625 2.25 52.625 2.25 54.625 0.25 C57.11523438 -0.00878906 57.11523438 -0.00878906 60.21875 -0.015625 C61.33121094 -0.01820312 62.44367188 -0.02078125 63.58984375 -0.0234375 C64.75644531 -0.01570313 65.92304688 -0.00796875 67.125 0 C68.29160156 -0.00773437 69.45820313 -0.01546875 70.66015625 -0.0234375 C71.77261719 -0.02085938 72.88507813 -0.01828125 74.03125 -0.015625 C75.05541016 -0.01336914 76.07957031 -0.01111328 77.13476562 -0.00878906 C79.625 0.25 79.625 0.25 81.625 2.25 C82.30761719 3.97973633 82.30761719 3.97973633 82.921875 6.08203125 C83.15535645 6.8699707 83.38883789 7.65791016 83.62939453 8.46972656 C83.87544434 9.3253418 84.12149414 10.18095703 84.375 11.0625 C84.63522949 11.9503418 84.89545898 12.83818359 85.16357422 13.75292969 C85.99066212 16.58340827 86.80798081 19.41660071 87.625 22.25 C88.15338255 24.06127474 88.68202355 25.87247411 89.2109375 27.68359375 C91.91142817 36.98263768 94.45402575 46.2990032 96.74609375 55.70703125 C97.7785588 59.8690126 98.9230863 63.99282103 100.109375 68.11328125 C100.625 70.25 100.625 70.25 100.625 73.25 C101.285 73.25 101.945 73.25 102.625 73.25 C102.64860596 72.65533936 102.67221191 72.06067871 102.6965332 71.44799805 C103.27301061 62.37713021 105.53739407 53.8176533 107.8125 45.0625 C108.22154232 43.4658515 108.6298203 41.86900701 109.03735352 40.27197266 C109.6496353 37.87391841 110.26272973 35.47609773 110.87937927 33.0791626 C112.11588373 28.2703082 113.31684853 23.45498436 114.484375 18.62890625 C114.75483643 17.51604248 115.02529785 16.40317871 115.30395508 15.2565918 C115.79817502 13.21624444 116.28782667 11.17478341 116.7722168 9.13208008 C116.99047119 8.24029053 117.20872559 7.34850098 117.43359375 6.4296875 C117.61720459 5.66382324 117.80081543 4.89795898 117.98999023 4.10888672 C118.625 2.25 118.625 2.25 120.625 0.25 C123.03930664 0.00708008 123.03930664 0.00708008 126.03515625 0.01953125 C127.10701172 0.02146484 128.17886719 0.02339844 129.28320312 0.02539062 C130.40662109 0.03763672 131.53003906 0.04988281 132.6875 0.0625 C134.37842773 0.0634668 134.37842773 0.0634668 136.10351562 0.06445312 C144.48486683 0.10986683 144.48486683 0.10986683 145.625 1.25 C146.25427447 9.58788677 144.1288184 17.38679314 141.1640625 25.140625 C139.67521992 29.03700683 138.45627338 32.99024763 137.3125 37 C136.88084811 38.4923727 136.44852757 39.98455211 136.015625 41.4765625 C135.79068359 42.25290039 135.56574219 43.02923828 135.33398438 43.82910156 C134.35676831 47.16590407 133.34628084 50.49231483 132.3371582 53.81958008 C130.32431785 60.45947921 128.36734154 67.09617098 126.625 73.8125 C125.09640063 79.65827333 123.37907454 85.4247855 121.5625 91.1875 C121.31693359 91.96875244 121.07136719 92.75000488 120.81835938 93.55493164 C116.37081434 107.50418566 116.37081434 107.50418566 114.625 109.25 C110.52928912 109.58686742 106.42028035 109.57504358 102.3125 109.625 C100.5809668 109.68107422 100.5809668 109.68107422 98.81445312 109.73828125 C97.70392578 109.74988281 96.59339844 109.76148438 95.44921875 109.7734375 C94.42916748 109.79325684 93.40911621 109.81307617 92.3581543 109.83349609 C89.625 109.25 89.625 109.25 87.37451172 107.08569336 C85.55708089 104.13991341 84.64654174 101.70486124 83.80859375 98.35546875 C83.51919922 97.23462891 83.22980469 96.11378906 82.93164062 94.95898438 C82.50141602 93.21584961 82.50141602 93.21584961 82.0625 91.4375 C80.23326833 84.19763631 78.32440827 77.21163186 75.625 70.25 C74.92388922 67.80126749 74.25637718 65.34263248 73.625 62.875 C72.27917799 57.68784324 70.85337015 52.53860846 69.28515625 47.4140625 C68.35680454 44.37082672 67.49026206 41.31169651 66.625 38.25 C64.7734289 41.02735665 64.00249428 42.90221587 63.08447266 46.05004883 C62.79722321 47.0256929 62.50997375 48.00133698 62.21401978 49.00654602 C61.90878387 50.06270615 61.60354797 51.11886627 61.2890625 52.20703125 C60.96843842 53.30158127 60.64781433 54.39613129 60.31747437 55.52384949 C59.29016014 59.03534495 58.27004263 62.54888617 57.25 66.0625 C56.57077422 68.38750473 55.89109178 70.7123761 55.2109375 73.03710938 C54.54934968 75.30204552 53.88788926 77.56701887 53.2265625 79.83203125 C52.90552551 80.93032257 52.58448853 82.02861389 52.25372314 83.16018677 C50.92140677 87.73245235 49.59705044 92.3041187 48.36230469 96.90380859 C47.85425293 98.78253662 47.85425293 98.78253662 47.3359375 100.69921875 C47.0682959 101.72748779 46.8006543 102.75575684 46.52490234 103.81518555 C45.55058343 106.45134466 44.95041947 107.67577489 42.625 109.25 C38.48978496 109.92099716 34.3085939 109.75934881 30.125 109.75 C28.97128906 109.77835937 27.81757812 109.80671875 26.62890625 109.8359375 C25.52417969 109.83851563 24.41945312 109.84109375 23.28125 109.84375 C22.26869141 109.85083984 21.25613281 109.85792969 20.21289062 109.86523438 C17.625 109.25 17.625 109.25 15.82421875 106.84008789 C12.8628488 100.44408346 11.22608354 93.74949912 9.5625 86.921875 C5.06895818 69.32216954 -0.12256205 51.771082 -5.9375 34.5625 C-14.28226923 9.71784615 -14.28226923 9.71784615 -13.375 1.25 C-10.78082925 -1.34417075 -3.48863124 0.01536842 0 0 Z " fill="#FC671A" transform="translate(84.375,101.75)"/>
<path d="M0 0 C1.64630328 0.14042877 3.29204179 0.28749329 4.9375 0.4375 C6.31228516 0.55931641 6.31228516 0.55931641 7.71484375 0.68359375 C10 1 10 1 11 2 C12.35052814 2.15958101 13.70609162 2.27728276 15.0625 2.375 C19.82008877 2.85456495 23.63360676 4.05071731 28 6 C28.33 6.66 28.66 7.32 29 8 C22.39867961 7.3850185 16.34537846 5.82360905 10 3.9375 C9.03449219 3.65583984 8.06898437 3.37417969 7.07421875 3.08398438 C4.71449184 2.39475721 2.35654915 1.69999989 0 1 C0 0.67 0 0.34 0 0 Z " fill="#65ADCD" transform="translate(96,273)"/>
<path d="M0 0 C2.39763185 2.39763185 2.34280586 3.33273498 2.625 6.625 C2.69976562 7.44226563 2.77453125 8.25953125 2.8515625 9.1015625 C2.92503906 10.04128906 2.92503906 10.04128906 3 11 C1.02 11.33 -0.96 11.66 -3 12 C-2.69106068 10.3743193 -2.3777305 8.74947252 -2.0625 7.125 C-1.88847656 6.22007812 -1.71445313 5.31515625 -1.53515625 4.3828125 C-1 2 -1 2 0 0 Z " fill="#66CEDD" transform="translate(150,138)"/>
<path d="M0 0 C7.44136929 1.51349884 14.89382597 3.29288608 22 6 C22.33 6.66 22.66 7.32 23 8 C14.5356735 7.01027945 7.57482359 4.90670036 0 1 C0 0.67 0 0.34 0 0 Z " fill="#68AECF" transform="translate(245,61)"/>
<path d="M0 0 C0 3.45140758 -0.29880523 5.26510937 -2.70703125 7.7890625 C-3.74923828 8.69785156 -3.74923828 8.69785156 -4.8125 9.625 C-5.49957031 10.23601562 -6.18664062 10.84703125 -6.89453125 11.4765625 C-8.99520438 12.99653007 -10.46771872 13.57890154 -13 14 C-8.88380164 9.08064098 -4.59589638 4.47352044 0 0 Z " fill="#4678CA" transform="translate(19,69)"/>
<path d="M0 0 C0.84098656 4.01804691 1.05404945 7.01803543 0 11 C-0.66 11 -1.32 11 -2 11 C-2.66 7.7 -3.32 4.4 -4 1 C-2 0 -2 0 0 0 Z " fill="#6ACFE1" transform="translate(187,164)"/>
<path d="M0 0 C1.52519276 0.08937803 3.04681929 0.24537146 4.5625 0.4375 C5.80193359 0.59025391 5.80193359 0.59025391 7.06640625 0.74609375 C7.70449219 0.82988281 8.34257813 0.91367188 9 1 C8.67 1.66 8.34 2.32 8 3 C5.69 3 3.38 3 1 3 C0.67 5.31 0.34 7.62 0 10 C-0.33 10 -0.66 10 -1 10 C-1.02689216 8.52093108 -1.04634621 7.04172517 -1.0625 5.5625 C-1.07410156 4.73878906 -1.08570312 3.91507812 -1.09765625 3.06640625 C-1 1 -1 1 0 0 Z " fill="#F76B27" transform="translate(72,102)"/>
<path d="M0 0 C0.66 0.99 1.32 1.98 2 3 C-0.69770258 4.34885129 -2.65273375 4.01578483 -5.6640625 3.87890625 C-6.78554687 3.83056641 -7.90703125 3.78222656 -9.0625 3.73242188 C-10.8259375 3.64831055 -10.8259375 3.64831055 -12.625 3.5625 C-14.40003906 3.48418945 -14.40003906 3.48418945 -16.2109375 3.40429688 C-19.14087561 3.27433994 -22.07049673 3.13936472 -25 3 C-25 2.67 -25 2.34 -25 2 C-24.27820557 1.97494385 -23.55641113 1.9498877 -22.81274414 1.92407227 C-19.562465 1.80848698 -16.31250312 1.68559226 -13.0625 1.5625 C-11.92619141 1.52318359 -10.78988281 1.48386719 -9.61914062 1.44335938 C-7.99975586 1.38051758 -7.99975586 1.38051758 -6.34765625 1.31640625 C-5.34742432 1.27974854 -4.34719238 1.24309082 -3.31665039 1.20532227 C-1.03930812 1.25328159 -1.03930812 1.25328159 0 0 Z " fill="#FA6D2E" transform="translate(199,206)"/>
<path d="M0 0 C0.8125 1.6875 0.8125 1.6875 1 4 C-1.40123201 7.03685225 -3.06049508 8.72858747 -6.8125 9.8125 C-7.534375 9.874375 -8.25625 9.93625 -9 10 C-8.06409496 8.8944811 -7.12620142 7.79064547 -6.1875 6.6875 C-5.66542969 6.07261719 -5.14335938 5.45773438 -4.60546875 4.82421875 C-3.12827531 3.14575321 -1.59960869 1.56117966 0 0 Z " fill="#326AC4" transform="translate(46,41)"/>
<path d="M0 0 C0 3 0 3 -2.40625 5.69921875 C-3.4299968 6.70302243 -4.4616054 7.69885649 -5.5 8.6875 C-6.02464844 9.19861328 -6.54929687 9.70972656 -7.08984375 10.23632812 C-8.38660904 11.49772708 -9.69246117 12.74977212 -11 14 C-11 11 -11 11 -8.59375 8.30078125 C-7.5700032 7.29697757 -6.5383946 6.30114351 -5.5 5.3125 C-4.97535156 4.80138672 -4.45070313 4.29027344 -3.91015625 3.76367188 C-2.61339096 2.50227292 -1.30753883 1.25022788 0 0 Z " fill="#5C87B4" transform="translate(42,42)"/>
<path d="M0 0 C5.23880078 0.55145271 9.97350697 1.42922093 15 3 C15 3.33 15 3.66 15 4 C13.06215735 3.85879286 11.12473045 3.71187127 9.1875 3.5625 C8.10855469 3.48128906 7.02960938 3.40007813 5.91796875 3.31640625 C3 3 3 3 0 2 C0 1.34 0 0.68 0 0 Z " fill="#688DD0" transform="translate(145,12)"/>
<path d="M0 0 C2.625 -0.1875 2.625 -0.1875 5 0 C6.43088528 2.86177057 5.59991697 4.93375773 5 8 C4.67 8 4.34 8 4 8 C4 6.35 4 4.7 4 3 C2.02 3 0.04 3 -2 3 C-1.34 2.01 -0.68 1.02 0 0 Z " fill="#FA6C24" transform="translate(224,102)"/>
<path d="M0 0 C-0.66 0.66 -1.32 1.32 -2 2 C-4.3828125 1.9765625 -4.3828125 1.9765625 -7.125 1.625 C-8.03507813 1.51414062 -8.94515625 1.40328125 -9.8828125 1.2890625 C-10.58148438 1.19367188 -11.28015625 1.09828125 -12 1 C-7.62136392 -1.91909072 -4.60643295 -2.90034667 0 0 Z " fill="#F76E2E" transform="translate(166,104)"/>
<path d="M0 0 C6.57534861 0.62031591 12.66692592 2.14897283 19 4 C14.90913548 5.67641098 11.28488982 4.2409319 7.25 3.0625 C6.20392578 2.76956055 6.20392578 2.76956055 5.13671875 2.47070312 C3.42201027 1.9891754 1.71065123 1.49574843 0 1 C0 0.67 0 0.34 0 0 Z " fill="#657CB4" transform="translate(176,18)"/>
<path d="M0 0 C1.7704101 3.36668151 2.68100753 6.17209033 3 10 C2.0625 12.375 2.0625 12.375 1 14 C0.06380187 10.84493858 -0.1057123 8.03413498 -0.0625 4.75 C-0.05347656 3.85796875 -0.04445313 2.9659375 -0.03515625 2.046875 C-0.02355469 1.37140625 -0.01195313 0.6959375 0 0 Z " fill="#F56F2B" transform="translate(112,159)"/>
<path d="M0 0 C3.33727786 1.17255709 5.77437487 2.18868404 8 5 C8 5.66 8 6.32 8 7 C4.59679258 5.98823563 3.24274669 5.35156418 1.1875 2.375 C0.795625 1.59125 0.40375 0.8075 0 0 Z " fill="#5C8AD0" transform="translate(28,225)"/>
<path d="M0 0 C0.99 0 1.98 0 3 0 C3.33 3.96 3.66 7.92 4 12 C2.09681116 9.14521674 1.5380901 7.58058692 0.875 4.3125 C0.70742187 3.50425781 0.53984375 2.69601563 0.3671875 1.86328125 C0.24601562 1.24839844 0.12484375 0.63351563 0 0 Z " fill="#EE7435" transform="translate(74,120)"/>
<path d="M0 0 C0 2 0 4 0 6 C-3 8 -3 8 -6 8 C-4.55746343 4.63408134 -2.66735273 2.48952921 0 0 Z " fill="#5C8AD1" transform="translate(32,55)"/>
<path d="M0 0 C0.66 0 1.32 0 2 0 C2.33 0.99 2.66 1.98 3 3 C1.1875 4.5625 1.1875 4.5625 -1 6 C-1.99 5.67 -2.98 5.34 -4 5 C-2.71937515 3.2925002 -1.38232443 1.62626404 0 0 Z " fill="#4075C8" transform="translate(69,16)"/>
<path d="M0 0 C7.50769231 -0.36923077 7.50769231 -0.36923077 10 1.5 C10.495 2.2425 10.495 2.2425 11 3 C9.741875 2.87625 8.48375 2.7525 7.1875 2.625 C6.12595703 2.52058594 6.12595703 2.52058594 5.04296875 2.4140625 C3 2 3 2 0 0 Z " fill="#6CB1CE" transform="translate(158,290)"/>
<path d="M0 0 C7.50769231 -0.36923077 7.50769231 -0.36923077 10 1.5 C10.495 2.2425 10.495 2.2425 11 3 C9.741875 2.87625 8.48375 2.7525 7.1875 2.625 C6.12595703 2.52058594 6.12595703 2.52058594 5.04296875 2.4140625 C3 2 3 2 0 0 Z " fill="#6AB1CF" transform="translate(147,287)"/>
<path d="M0 0 C0.33 0.66 0.66 1.32 1 2 C-0.25 4.625 -0.25 4.625 -2 7 C-2.99 7 -3.98 7 -5 7 C-3.70700306 4.11562221 -2.34058637 2.12780579 0 0 Z " fill="#5988D0" transform="translate(76,9)"/>
<path d="M0 0 C7.50769231 -0.36923077 7.50769231 -0.36923077 10 1.5 C10.495 2.2425 10.495 2.2425 11 3 C6.94393835 2.53199289 3.53411321 2.12046792 0 0 Z " fill="#61ABCC" transform="translate(169,293)"/>
<path d="M0 0 C0.33 0.99 0.66 1.98 1 3 C-0.32 4.32 -1.64 5.64 -3 7 C-3.99 6.67 -4.98 6.34 -6 6 C-4.02 4.02 -2.04 2.04 0 0 Z " fill="#4476C6" transform="translate(61,25)"/>
<path d="M0 0 C1.98 0.66 3.96 1.32 6 2 C4.33333333 3.66666667 2.66666667 5.33333333 1 7 C0.67 4.69 0.34 2.38 0 0 Z " fill="#1292C3" transform="translate(245,62)"/>
<path d="M0 0 C1.258125 0.12375 2.51625 0.2475 3.8125 0.375 C4.87404297 0.47941406 4.87404297 0.47941406 5.95703125 0.5859375 C8 1 8 1 11 3 C9.741875 2.87625 8.48375 2.7525 7.1875 2.625 C6.12595703 2.52058594 6.12595703 2.52058594 5.04296875 2.4140625 C3 2 3 2 0 0 Z " fill="#5A90BC" transform="translate(98,276)"/>
<path d="M0 0 C1.258125 0.12375 2.51625 0.2475 3.8125 0.375 C4.87404297 0.47941406 4.87404297 0.47941406 5.95703125 0.5859375 C8 1 8 1 11 3 C9.741875 2.87625 8.48375 2.7525 7.1875 2.625 C6.12595703 2.52058594 6.12595703 2.52058594 5.04296875 2.4140625 C3 2 3 2 0 0 Z " fill="#5994B7" transform="translate(80,271)"/>
<path d="M0 0 C1.258125 0.12375 2.51625 0.2475 3.8125 0.375 C4.87404297 0.47941406 4.87404297 0.47941406 5.95703125 0.5859375 C8 1 8 1 11 3 C9.741875 2.87625 8.48375 2.7525 7.1875 2.625 C6.12595703 2.52058594 6.12595703 2.52058594 5.04296875 2.4140625 C3 2 3 2 0 0 Z " fill="#6379B1" transform="translate(210,27)"/>
<path d="M0 0 C1.258125 0.12375 2.51625 0.2475 3.8125 0.375 C4.87404297 0.47941406 4.87404297 0.47941406 5.95703125 0.5859375 C8 1 8 1 11 3 C9.741875 2.87625 8.48375 2.7525 7.1875 2.625 C6.12595703 2.52058594 6.12595703 2.52058594 5.04296875 2.4140625 C3 2 3 2 0 0 Z " fill="#6881B5" transform="translate(195,23)"/>
<path d="M0 0 C1.258125 0.12375 2.51625 0.2475 3.8125 0.375 C4.87404297 0.47941406 4.87404297 0.47941406 5.95703125 0.5859375 C8 1 8 1 11 3 C9.741875 2.87625 8.48375 2.7525 7.1875 2.625 C6.12595703 2.52058594 6.12595703 2.52058594 5.04296875 2.4140625 C3 2 3 2 0 0 Z " fill="#4C70AF" transform="translate(161,14)"/>
<path d="M0 0 C1.258125 0.12375 2.51625 0.2475 3.8125 0.375 C4.87404297 0.47941406 4.87404297 0.47941406 5.95703125 0.5859375 C8 1 8 1 11 3 C9.741875 2.87625 8.48375 2.7525 7.1875 2.625 C6.12595703 2.52058594 6.12595703 2.52058594 5.04296875 2.4140625 C3 2 3 2 0 0 Z " fill="#4880C4" transform="translate(150,11)"/>
<path d="M0 0 C1.258125 0.12375 2.51625 0.2475 3.8125 0.375 C4.87404297 0.47941406 4.87404297 0.47941406 5.95703125 0.5859375 C8 1 8 1 11 3 C9.741875 2.87625 8.48375 2.7525 7.1875 2.625 C6.12595703 2.52058594 6.12595703 2.52058594 5.04296875 2.4140625 C3 2 3 2 0 0 Z " fill="#3F62A8" transform="translate(135,7)"/>
<path d="M0 0 C1.258125 0.12375 2.51625 0.2475 3.8125 0.375 C4.87404297 0.47941406 4.87404297 0.47941406 5.95703125 0.5859375 C8 1 8 1 11 3 C9.741875 2.87625 8.48375 2.7525 7.1875 2.625 C6.12595703 2.52058594 6.12595703 2.52058594 5.04296875 2.4140625 C3 2 3 2 0 0 Z " fill="#4C64BA" transform="translate(120,3)"/>
<path d="M0 0 C0 0.99 0 1.98 0 3 C-2.5 5.1875 -2.5 5.1875 -5 7 C-3.70700306 4.11562221 -2.34058637 2.12780579 0 0 Z " fill="#5D65A8" transform="translate(18,67)"/>
<path d="M0 0 C0.66 0.33 1.32 0.66 2 1 C-0.97 3.475 -0.97 3.475 -4 6 C-2.84826645 3.53199953 -1.95216435 1.95216435 0 0 Z " fill="#6872BF" transform="translate(80,2)"/>
<path d="M0 0 C0 0.99 0 1.98 0 3 C-2 4.6875 -2 4.6875 -4 6 C-2.84826645 3.53199953 -1.95216435 1.95216435 0 0 Z " fill="#4D72AC" transform="translate(64,19)"/>
<path d="M0 0 C2.64 0.33 5.28 0.66 8 1 C8 1.33 8 1.66 8 2 C5.36 1.67 2.72 1.34 0 1 C0 0.67 0 0.34 0 0 Z " fill="#0071C6" transform="translate(171,296)"/>
<path d="M0 0 C0.33 0.66 0.66 1.32 1 2 C3.52733235 2.65555119 3.52733235 2.65555119 6 3 C2.25 4.125 2.25 4.125 0 3 C0 2.01 0 1.02 0 0 Z " fill="#708EBF" transform="translate(246,57)"/>
<path d="M0 0 C2.64 0.33 5.28 0.66 8 1 C5.39417629 1.93065133 4.35801776 2.14917407 1.75 1.0625 C1.1725 0.711875 0.595 0.36125 0 0 Z " fill="#3145C2" transform="translate(108,0)"/>
<path d="M0 0 C0 0.99 0 1.98 0 3 C-0.99 3.66 -1.98 4.32 -3 5 C-1.125 1.125 -1.125 1.125 0 0 Z " fill="#5F9ABC" transform="translate(218,289)"/>
<path d="M0 0 C2.31 0.33 4.62 0.66 7 1 C5.1875 1.625 5.1875 1.625 3 2 C2.01 1.34 1.02 0.68 0 0 Z " fill="#5A7AA7" transform="translate(138,287)"/>
<path d="M0 0 C2.31 0.33 4.62 0.66 7 1 C5.1875 1.625 5.1875 1.625 3 2 C2.01 1.34 1.02 0.68 0 0 Z " fill="#508CA8" transform="translate(127,284)"/>
<path d="M0 0 C2.31 0.33 4.62 0.66 7 1 C5.1875 1.625 5.1875 1.625 3 2 C2.01 1.34 1.02 0.68 0 0 Z " fill="#6CA2C5" transform="translate(116,281)"/>
<path d="M0 0 C2.31 0.33 4.62 0.66 7 1 C5.1875 1.625 5.1875 1.625 3 2 C2.01 1.34 1.02 0.68 0 0 Z " fill="#5E94C0" transform="translate(109,279)"/>
<path d="M0 0 C2.31 0.33 4.62 0.66 7 1 C5.1875 1.625 5.1875 1.625 3 2 C2.01 1.34 1.02 0.68 0 0 Z " fill="#6298B3" transform="translate(91,274)"/>
<path d="M0 0 C2.31 0.33 4.62 0.66 7 1 C5.1875 1.625 5.1875 1.625 3 2 C2.01 1.34 1.02 0.68 0 0 Z " fill="#589CC1" transform="translate(73,269)"/>
<path d="M0 0 C0 0.99 0 1.98 0 3 C-0.99 3.66 -1.98 4.32 -3 5 C-1.125 1.125 -1.125 1.125 0 0 Z " fill="#3FA4C1" transform="translate(264,238)"/>
<path d="M0 0 C2.31 0.33 4.62 0.66 7 1 C5.1875 1.625 5.1875 1.625 3 2 C2.01 1.34 1.02 0.68 0 0 Z " fill="#6A7CAA" transform="translate(37,235)"/>
<path d="M0 0 C2.31 0.33 4.62 0.66 7 1 C5.1875 1.625 5.1875 1.625 3 2 C2.01 1.34 1.02 0.68 0 0 Z " fill="#709BC8" transform="translate(255,62)"/>
<path d="M0 0 C0 0.99 0 1.98 0 3 C-0.99 3.495 -0.99 3.495 -2 4 C-1.34 2.68 -0.68 1.36 0 0 Z " fill="#5C86A3" transform="translate(226,280)"/>
<path d="M0 0 C0 0.99 0 1.98 0 3 C-0.99 3.495 -0.99 3.495 -2 4 C-1.34 2.68 -0.68 1.36 0 0 Z " fill="#719DC8" transform="translate(234,271)"/>
<path d="M0 0 C0 0.99 0 1.98 0 3 C-0.99 3.495 -0.99 3.495 -2 4 C-1.34 2.68 -0.68 1.36 0 0 Z " fill="#5F8AA4" transform="translate(243,261)"/>
<path d="M0 0 C0.66 0 1.32 0 2 0 C2 1.65 2 3.3 2 5 C0 1.125 0 1.125 0 0 Z " fill="#43668E" transform="translate(54,240)"/>
<path d="M0 0 C0 0.99 0 1.98 0 3 C-0.99 3.495 -0.99 3.495 -2 4 C-1.34 2.68 -0.68 1.36 0 0 Z " fill="#5C8DB1" transform="translate(274,227)"/>
<path d="M0 0 C0 0.99 0 1.98 0 3 C-0.99 3.495 -0.99 3.495 -2 4 C-1.34 2.68 -0.68 1.36 0 0 Z " fill="#6A87AC" transform="translate(291,208)"/>
<path d="M0 0 C0.33 0 0.66 0 1 0 C1 1.65 1 3.3 1 5 C0.67 5 0.34 5 0 5 C0 3.35 0 1.7 0 0 Z " fill="#588DA4" transform="translate(57,249)"/>
<path d="M0 0 C0.33 0 0.66 0 1 0 C1 1.65 1 3.3 1 5 C0.67 5 0.34 5 0 5 C0 3.35 0 1.7 0 0 Z " fill="#3373B2" transform="translate(21,205)"/>
<path d="M0 0 C0.33 0 0.66 0 1 0 C1 1.65 1 3.3 1 5 C0.67 5 0.34 5 0 5 C0 3.35 0 1.7 0 0 Z " fill="#5D94AE" transform="translate(19,196)"/>
<path d="M0 0 C0.33 0 0.66 0 1 0 C1 1.65 1 3.3 1 5 C0.67 5 0.34 5 0 5 C0 3.35 0 1.7 0 0 Z " fill="#6673B2" transform="translate(17,187)"/>
<path d="M0 0 C0.33 0 0.66 0 1 0 C1 1.65 1 3.3 1 5 C0.67 5 0.34 5 0 5 C0 3.35 0 1.7 0 0 Z " fill="#668CB2" transform="translate(15,178)"/>
<path d="M0 0 C0.33 0 0.66 0 1 0 C1 1.65 1 3.3 1 5 C0.67 5 0.34 5 0 5 C0 3.35 0 1.7 0 0 Z " fill="#668CB2" transform="translate(13,169)"/>
<path d="M0 0 C0.33 0 0.66 0 1 0 C1 1.65 1 3.3 1 5 C0.67 5 0.34 5 0 5 C0 3.35 0 1.7 0 0 Z " fill="#667FB2" transform="translate(11,160)"/>
<path d="M0 0 C0.33 0 0.66 0 1 0 C1 1.65 1 3.3 1 5 C0.67 5 0.34 5 0 5 C0 3.35 0 1.7 0 0 Z " fill="#458399" transform="translate(9,151)"/>
<path d="M0 0 C0.33 0 0.66 0 1 0 C1 1.65 1 3.3 1 5 C0.67 5 0.34 5 0 5 C0 3.35 0 1.7 0 0 Z " fill="#73B2B2" transform="translate(292,142)"/>
<path d="M0 0 C0.33 0 0.66 0 1 0 C1 1.65 1 3.3 1 5 C0.67 5 0.34 5 0 5 C0 3.35 0 1.7 0 0 Z " fill="#2A88A1" transform="translate(7,142)"/>
<path d="M0 0 C0.33 0 0.66 0 1 0 C1 1.65 1 3.3 1 5 C0.67 5 0.34 5 0 5 C0 3.35 0 1.7 0 0 Z " fill="#404CD4" transform="translate(3,124)"/>
<path d="M0 0 C0.33 0 0.66 0 1 0 C1 1.65 1 3.3 1 5 C0.67 5 0.34 5 0 5 C0 3.35 0 1.7 0 0 Z " fill="#6673B2" transform="translate(2,119)"/>
<path d="M0 0 C0.33 0 0.66 0 1 0 C1 1.65 1 3.3 1 5 C0.67 5 0.34 5 0 5 C0 3.35 0 1.7 0 0 Z " fill="#264C7F" transform="translate(0,110)"/>
<path d="M0 0 C0.33 0 0.66 0 1 0 C1 1.65 1 3.3 1 5 C0.67 5 0.34 5 0 5 C0 3.35 0 1.7 0 0 Z " fill="#6E94A1" transform="translate(281,95)"/>
<path d="M0 0 C0.33 0 0.66 0 1 0 C1 1.65 1 3.3 1 5 C0.67 5 0.34 5 0 5 C0 3.35 0 1.7 0 0 Z " fill="#66A5B2" transform="translate(277,78)"/>
<path d="M0 0 C0.33 0 0.66 0 1 0 C1 1.65 1 3.3 1 5 C0.67 5 0.34 5 0 5 C0 3.35 0 1.7 0 0 Z " fill="#2673B2" transform="translate(244,48)"/>
<path d="M0 0 C4 1 4 1 4 1 Z " fill="#007FBF" transform="translate(167,295)"/>
<path d="M0 0 C4 1 4 1 4 1 Z " fill="#7FBFFF" transform="translate(163,294)"/>
<path d="M0 0 C4 1 4 1 4 1 Z " fill="#5F7F9F" transform="translate(156,292)"/>
<path d="M0 0 C4 1 4 1 4 1 Z " fill="#5F7FFF" transform="translate(152,291)"/>
<path d="M0 0 C4 1 4 1 4 1 Z " fill="#559494" transform="translate(145,289)"/>
<path d="M0 0 C4 1 4 1 4 1 Z " fill="#4060BF" transform="translate(134,286)"/>
<path d="M0 0 C4 1 4 1 4 1 Z " fill="#4A8FC4" transform="translate(123,283)"/>
<path d="M0 0 C0.99 0.33 1.98 0.66 3 1 C2.01 1 1.02 1 0 1 C0 0.67 0 0.34 0 0 Z " fill="#507B97" transform="translate(64,264)"/>
<path d="M0 0 C0.99 0.495 0.99 0.495 2 1 C1.67 1.66 1.34 2.32 1 3 C0.67 2.01 0.34 1.02 0 0 Z " fill="#6A83BB" transform="translate(61,260)"/>
<path d="M0 0 C0 3 0 3 0 3 Z " fill="#7FACD0" transform="translate(251,252)"/>
<path d="M0 0 C1 4 1 4 1 4 Z " fill="#4280B2" transform="translate(56,245)"/>
<path d="M0 0 C4 1 4 1 4 1 Z " fill="#5F7FBF" transform="translate(50,239)"/>
<path d="M0 0 C0 3 0 3 0 3 Z " fill="#6A9AC2" transform="translate(282,218)"/>
<path d="M0 0 C1 4 1 4 1 4 Z " fill="#508F9F" transform="translate(23,214)"/>
<path d="M0 0 C1 4 1 4 1 4 Z " fill="#6E83C7" transform="translate(22,210)"/>
<path d="M0 0 C1 4 1 4 1 4 Z " fill="#6E83BD" transform="translate(20,201)"/>
<path d="M0 0 C1 4 1 4 1 4 Z " fill="#6464BD" transform="translate(18,192)"/>
<path d="M0 0 C1 4 1 4 1 4 Z " fill="#8383C7" transform="translate(16,183)"/>
<path d="M0 0 C1 4 1 4 1 4 Z " fill="#8390C7" transform="translate(14,174)"/>
<path d="M0 0 C1 4 1 4 1 4 Z " fill="#25BAC9" transform="translate(299,172)"/>
<path d="M0 0 C1 4 1 4 1 4 Z " fill="#659AC4" transform="translate(298,168)"/>
<path d="M0 0 C1 4 1 4 1 4 Z " fill="#7A8ACF" transform="translate(12,165)"/>
<path d="M0 0 C1 4 1 4 1 4 Z " fill="#42709B" transform="translate(297,164)"/>
<path d="M0 0 C1 4 1 4 1 4 Z " fill="#307F9F" transform="translate(296,160)"/>
<path d="M0 0 C1 4 1 4 1 4 Z " fill="#5A6AD9" transform="translate(10,156)"/>
<path d="M0 0 C1 4 1 4 1 4 Z " fill="#30CFDF" transform="translate(295,155)"/>
<path d="M0 0 C1 4 1 4 1 4 Z " fill="#5A7ABA" transform="translate(294,151)"/>
<path d="M0 0 C1 4 1 4 1 4 Z " fill="#6A6AA4" transform="translate(8,147)"/>
<path d="M0 0 C1 4 1 4 1 4 Z " fill="#507F9F" transform="translate(293,147)"/>
<path d="M0 0 C1 4 1 4 1 4 Z " fill="#7A8ACF" transform="translate(6,138)"/>
<path d="M0 0 C1 4 1 4 1 4 Z " fill="#8ABAC9" transform="translate(291,138)"/>
<path d="M0 0 C1 4 1 4 1 4 Z " fill="#40509F" transform="translate(5,133)"/>
<path d="M0 0 C1 4 1 4 1 4 Z " fill="#5A8FAF" transform="translate(290,134)"/>
<path d="M0 0 C1 4 1 4 1 4 Z " fill="#406F7F" transform="translate(289,130)"/>
<path d="M0 0 C1 4 1 4 1 4 Z " fill="#758ABA" transform="translate(4,129)"/>
<path d="M0 0 C1 4 1 4 1 4 Z " fill="#7FCFDF" transform="translate(288,125)"/>
<path d="M0 0 C1 4 1 4 1 4 Z " fill="#7A8AAF" transform="translate(287,121)"/>
<path d="M0 0 C1 4 1 4 1 4 Z " fill="#40609F" transform="translate(286,117)"/>
<path d="M0 0 C1 4 1 4 1 4 Z " fill="#658AC4" transform="translate(1,115)"/>
<path d="M0 0 C1 4 1 4 1 4 Z " fill="#408FDF" transform="translate(285,112)"/>
<path d="M0 0 C1 4 1 4 1 4 Z " fill="#7FBFCF" transform="translate(284,108)"/>
<path d="M0 0 C1 4 1 4 1 4 Z " fill="#8390DD" transform="translate(283,104)"/>
<path d="M0 0 C1 4 1 4 1 4 Z " fill="#4C95A2" transform="translate(282,100)"/>
<path d="M0 0 C1 4 1 4 1 4 Z " fill="#83A0D2" transform="translate(280,91)"/>
<path d="M0 0 C1 4 1 4 1 4 Z " fill="#83A5DD" transform="translate(279,87)"/>
<path d="M0 0 C1 4 1 4 1 4 Z " fill="#406F9F" transform="translate(278,83)"/>
<path d="M0 0 C0.99 0.495 0.99 0.495 2 1 C1.67 1.66 1.34 2.32 1 3 C0.67 2.01 0.34 1.02 0 0 Z " fill="#7F9FAA" transform="translate(273,71)"/>
<path d="M0 0 C0.99 0.33 1.98 0.66 3 1 C2.01 1 1.02 1 0 1 C0 0.67 0 0.34 0 0 Z " fill="#558DA6" transform="translate(267,66)"/>
<path d="M0 0 C1 4 1 4 1 4 Z " fill="#3C5996" transform="translate(245,53)"/>
<path d="M0 0 C4 1 4 1 4 1 Z " fill="#586AAD" transform="translate(225,31)"/>
<path d="M0 0 C4 1 4 1 4 1 Z " fill="#5871B5" transform="translate(221,30)"/>
<path d="M0 0 C4 1 4 1 4 1 Z " fill="#5764BC" transform="translate(206,26)"/>
<path d="M0 0 C4 1 4 1 4 1 Z " fill="#586CC4" transform="translate(172,17)"/>
<path d="M0 0 C4 1 4 1 4 1 Z " fill="#5077CB" transform="translate(146,10)"/>
<path d="M0 0 C4 1 4 1 4 1 Z " fill="#3E5BB7" transform="translate(131,6)"/>
<path d="M0 0 C4 1 4 1 4 1 Z " fill="#4C59CD" transform="translate(116,2)"/>
<path d="M0 0 C3 1 3 1 3 1 Z " fill="#71AAC6" transform="translate(184,299)"/>
<path d="M0 0 C3 1 3 1 3 1 Z " fill="#2A55AA" transform="translate(180,298)"/>
<path d="M0 0 C3 1 3 1 3 1 Z " fill="#557FD4" transform="translate(160,293)"/>
<path d="M0 0 C3 1 3 1 3 1 Z " fill="#478EB8" transform="translate(149,290)"/>
<path d="M0 0 C3 1 3 1 3 1 Z " fill="#5972BB" transform="translate(70,268)"/>
<path d="" fill="#7F94CD" transform="translate(0,0)"/>
<path d="M0 0 C3 1 3 1 3 1 Z " fill="#7F7FFF" transform="translate(47,238)"/>
<path d="M0 0 C3 1 3 1 3 1 Z " fill="#47478E" transform="translate(44,237)"/>
<path d="" fill="#2A7F94" transform="translate(0,0)"/>
<path d="" fill="#5595D4" transform="translate(0,0)"/>
<path d="M0 0 C3 1 3 1 3 1 Z " fill="#4A99BC" transform="translate(262,64)"/>
<path d="M0 0 C3 1 3 1 3 1 Z " fill="#4A83B8" transform="translate(252,61)"/>
<path d="" fill="#3B4CC3" transform="translate(0,0)"/>
<path d="" fill="#152ABF" transform="translate(0,0)"/>
<path d="M0 0 C3 1 3 1 3 1 Z " fill="#799ECE" transform="translate(229,32)"/>
<path d="M0 0 C2 1 2 1 2 1 Z " fill="#6ECCD9" transform="translate(68,267)"/>
<path d="" fill="#B2CCE5" transform="translate(0,0)"/>
<path d="M0 0 C2 1 2 1 2 1 Z " fill="#2A75B4" transform="translate(35,234)"/>
<path d="M0 0 C2 1 2 1 2 1 Z " fill="#4060DF" transform="translate(33,233)"/>
<path d="" fill="#7F7FBF" transform="translate(0,0)"/>
<path d="" fill="#555555" transform="translate(0,0)"/>
<path d="" fill="#40AAD4" transform="translate(0,0)"/>
<path d="" fill="#7F9FDF" transform="translate(0,0)"/>
<path d="" fill="#4040D4" transform="translate(0,0)"/>
<path d="" fill="#5DA1BB" transform="translate(0,0)"/>
<path d="" fill="#555555" transform="translate(0,0)"/>
<path d="M0 0 C2 1 2 1 2 1 Z " fill="#4095BA" transform="translate(265,65)"/>
<path d="" fill="#7F7FD4" transform="translate(0,0)"/>
<path d="M0 0 C2 1 2 1 2 1 Z " fill="#7F99E5" transform="translate(235,35)"/>
<path d="M0 0 C2 1 2 1 2 1 Z " fill="#6489ED" transform="translate(232,33)"/>
<path d="M0 0 C2 1 2 1 2 1 Z " fill="#4040D4" transform="translate(83,0)"/>
<path d="" fill="#55AAAA" transform="translate(0,0)"/>
<path d="" fill="#808080" transform="translate(0,0)"/>
<path d="" fill="#8080FF" transform="translate(0,0)"/>
<path d="" fill="#FFFFFF" transform="translate(0,0)"/>
<path d="" fill="#FFFFFF" transform="translate(0,0)"/>
<path d="" fill="#8080FF" transform="translate(0,0)"/>
<path d="" fill="#6699CC" transform="translate(0,0)"/>
<path d="" fill="#40BFBF" transform="translate(0,0)"/>
<path d="" fill="#6699CC" transform="translate(0,0)"/>
<path d="" fill="#80BFBF" transform="translate(0,0)"/>
<path d="" fill="#AAFFFF" transform="translate(0,0)"/>
<path d="" fill="#2492B6" transform="translate(0,0)"/>
<path d="" fill="#0080AA" transform="translate(0,0)"/>
<path d="" fill="#6DB6DB" transform="translate(0,0)"/>
<path d="" fill="#80AAD5" transform="translate(0,0)"/>
<path d="" fill="#99CCFF" transform="translate(0,0)"/>
<path d="" fill="#006DB6" transform="translate(0,0)"/>
<path d="" fill="#55AAC6" transform="translate(0,0)"/>
<path d="" fill="#71AAC6" transform="translate(0,0)"/>
<path d="" fill="#80BFBF" transform="translate(0,0)"/>
<path d="" fill="#80D5D5" transform="translate(0,0)"/>
<path d="" fill="#66B3CC" transform="translate(0,0)"/>
<path d="" fill="#99CCCC" transform="translate(0,0)"/>
<path d="" fill="#80BFBF" transform="translate(0,0)"/>
<path d="" fill="#00809F" transform="translate(0,0)"/>
<path d="" fill="#55AAC6" transform="translate(0,0)"/>
<path d="" fill="#80BFFF" transform="translate(0,0)"/>
<path d="" fill="#71AAC6" transform="translate(0,0)"/>
<path d="" fill="#80D5D5" transform="translate(0,0)"/>
<path d="" fill="#99CCCC" transform="translate(0,0)"/>
<path d="" fill="#AAFFFF" transform="translate(0,0)"/>
<path d="" fill="#0080AA" transform="translate(0,0)"/>
<path d="" fill="#55AAD5" transform="translate(0,0)"/>
<path d="" fill="#6699CC" transform="translate(0,0)"/>
<path d="" fill="#6699CC" transform="translate(0,0)"/>
<path d="" fill="#4080BF" transform="translate(0,0)"/>
<path d="" fill="#55AAAA" transform="translate(0,0)"/>
<path d="" fill="#80FFFF" transform="translate(0,0)"/>
<path d="" fill="#808080" transform="translate(0,0)"/>
<path d="" fill="#FFFFFF" transform="translate(0,0)"/>
<path d="" fill="#4080BF" transform="translate(0,0)"/>
<path d="" fill="#4080BF" transform="translate(0,0)"/>
<path d="" fill="#6699CC" transform="translate(0,0)"/>
<path d="" fill="#40BFBF" transform="translate(0,0)"/>
<path d="" fill="#80BFFF" transform="translate(0,0)"/>
<path d="" fill="#80BFBF" transform="translate(0,0)"/>
<path d="" fill="#8080BF" transform="translate(0,0)"/>
<path d="" fill="#AAFFFF" transform="translate(0,0)"/>
<path d="" fill="#336699" transform="translate(0,0)"/>
<path d="" fill="#5580AA" transform="translate(0,0)"/>
<path d="" fill="#3366CC" transform="translate(0,0)"/>
<path d="" fill="#8080FF" transform="translate(0,0)"/>
<path d="" fill="#2492B6" transform="translate(0,0)"/>
<path d="" fill="#0080D5" transform="translate(0,0)"/>
<path d="" fill="#6699CC" transform="translate(0,0)"/>
<path d="" fill="#6DB6DB" transform="translate(0,0)"/>
<path d="" fill="#6DB6DB" transform="translate(0,0)"/>
<path d="" fill="#80D5D5" transform="translate(0,0)"/>
<path d="" fill="#BFFFFF" transform="translate(0,0)"/>
<path d="" fill="#00609F" transform="translate(0,0)"/>
<path d="" fill="#55AAC6" transform="translate(0,0)"/>
<path d="" fill="#55AAC6" transform="translate(0,0)"/>
<path d="" fill="#80BFDF" transform="translate(0,0)"/>
<path d="" fill="#6DB6DB" transform="translate(0,0)"/>
<path d="" fill="#AAD5D5" transform="translate(0,0)"/>
<path d="" fill="#009FBF" transform="translate(0,0)"/>
<path d="" fill="#209FBF" transform="translate(0,0)"/>
<path d="" fill="#609FBF" transform="translate(0,0)"/>
<path d="" fill="#92B6DB" transform="translate(0,0)"/>
<path d="" fill="#6699CC" transform="translate(0,0)"/>
<path d="" fill="#3399CC" transform="translate(0,0)"/>
<path d="" fill="#6699CC" transform="translate(0,0)"/>
<path d="" fill="#80BFBF" transform="translate(0,0)"/>
<path d="" fill="#80AAD5" transform="translate(0,0)"/>
<path d="" fill="#6D92DB" transform="translate(0,0)"/>
<path d="" fill="#246DB6" transform="translate(0,0)"/>
<path d="" fill="#718EC6" transform="translate(0,0)"/>
<path d="" fill="#4D80CC" transform="translate(0,0)"/>
<path d="" fill="#0040BF" transform="translate(0,0)"/>
<path d="" fill="#3971C6" transform="translate(0,0)"/>
<path d="" fill="#4D66CC" transform="translate(0,0)"/>
<path d="" fill="#0000BF" transform="translate(0,0)"/>
<path d="" fill="#80AAD5" transform="translate(0,0)"/>
<path d="" fill="#71AAC6" transform="translate(0,0)"/>
<path d="" fill="#6DB6DB" transform="translate(0,0)"/>
<path d="" fill="#6699CC" transform="translate(0,0)"/>
<path d="" fill="#80AAD5" transform="translate(0,0)"/>
<path d="" fill="#80AAD5" transform="translate(0,0)"/>
<path d="" fill="#5580D5" transform="translate(0,0)"/>
<path d="" fill="#92B6DB" transform="translate(0,0)"/>
<path d="" fill="#8080BF" transform="translate(0,0)"/>
<path d="" fill="#4992B6" transform="translate(0,0)"/>
<path d="" fill="#0033CC" transform="translate(0,0)"/>
<path d="" fill="#496DB6" transform="translate(0,0)"/>
<path d="" fill="#6D92DB" transform="translate(0,0)"/>
<path d="" fill="#5580D5" transform="translate(0,0)"/>
<path d="" fill="#4080BF" transform="translate(0,0)"/>
<path d="" fill="#FFFFFF" transform="translate(0,0)"/>
<path d="" fill="#FFFFFF" transform="translate(0,0)"/>
<path d="" fill="#808080" transform="translate(0,0)"/>
<path d="" fill="#8080FF" transform="translate(0,0)"/>
<path d="" fill="#8080FF" transform="translate(0,0)"/>
<path d="" fill="#55AAAA" transform="translate(0,0)"/>
<path d="" fill="#AAAAFF" transform="translate(0,0)"/>
<path d="" fill="#80FFFF" transform="translate(0,0)"/>
<path d="" fill="#AAAAFF" transform="translate(0,0)"/>
<path d="" fill="#8080BF" transform="translate(0,0)"/>
<path d="" fill="#8080D5" transform="translate(0,0)"/>
<path d="" fill="#9999CC" transform="translate(0,0)"/>
<path d="" fill="#5580AA" transform="translate(0,0)"/>
<path d="" fill="#2B80AA" transform="translate(0,0)"/>
<path d="" fill="#809FBF" transform="translate(0,0)"/>
<path d="" fill="#4080BF" transform="translate(0,0)"/>
<path d="" fill="#0049B6" transform="translate(0,0)"/>
<path d="" fill="#6680B3" transform="translate(0,0)"/>
<path d="" fill="#3971C6" transform="translate(0,0)"/>
<path d="" fill="#00009F" transform="translate(0,0)"/>
<path d="" fill="#0020BF" transform="translate(0,0)"/>
<path d="" fill="#9999CC" transform="translate(0,0)"/>
<path d="" fill="#80AAD5" transform="translate(0,0)"/>
<path d="" fill="#80AAD5" transform="translate(0,0)"/>
<path d="" fill="#9292DB" transform="translate(0,0)"/>
<path d="" fill="#809FDF" transform="translate(0,0)"/>
<path d="" fill="#6080BF" transform="translate(0,0)"/>
<path d="" fill="#0049B6" transform="translate(0,0)"/>
<path d="" fill="#718EC6" transform="translate(0,0)"/>
<path d="" fill="#4080BF" transform="translate(0,0)"/>
<path d="" fill="#000099" transform="translate(0,0)"/>
<path d="" fill="#496DDB" transform="translate(0,0)"/>
<path d="" fill="#6666CC" transform="translate(0,0)"/>
</svg>
