<?xml version="1.0" encoding="UTF-8"?>
<svg version="1.1" xmlns="http://www.w3.org/2000/svg" width="1184" height="1223">
<path d="M0 0 C0.70962891 -0.020625 1.41925781 -0.04125 2.15039062 -0.0625 C17.80313613 -0.17224756 33.85030368 5.95156585 48.8125 10 C51.29189372 10.66809014 53.77138787 11.33580769 56.25097656 12.00317383 C60.10314468 13.0401429 63.95525558 14.07731829 67.80688477 15.11628723 C76.54280403 17.4726366 85.28188733 19.81696095 94.0234375 22.15234375 C118.03647395 28.56857814 142.03694276 35.02688921 166.01223755 41.58276367 C167.34035965 41.94591675 167.34035965 41.94591675 168.6953125 42.31640625 C169.57951874 42.55818604 170.46372498 42.79996582 171.37472534 43.04907227 C182.49013324 46.08677005 193.61367494 49.09440912 204.73681641 52.1036377 C217.12301785 55.45471299 229.50777999 58.81100331 241.88997459 62.17685127 C269.87410042 69.78375982 297.85942204 77.38455049 325.875 84.875 C370.10576532 96.70183051 414.31472567 108.61109056 458.47314453 120.70556641 C461.19040852 121.44962161 463.90770041 122.19357485 466.625 122.9375 C467.28980251 123.11956371 467.95460503 123.30162743 468.63955307 123.48920822 C477.01449101 125.78186575 485.39604571 128.04708917 493.78753662 130.27861023 C498.49144461 131.5304935 503.19244908 132.79307138 507.89318848 134.05679321 C510.04920927 134.63318744 512.20663948 135.20434152 514.36560059 135.7696228 C536.10418817 141.46383492 556.56964345 149.48851003 568.671875 169.84765625 C572.32886539 176.54208424 574.95166515 183.32357144 576.8046875 190.71484375 C577.0116777 191.52094589 577.21866791 192.32704803 577.43193054 193.15757751 C579.95313254 203.09353464 582.2403162 213.08645644 584.5144043 223.08129883 C585.26270144 226.36829275 586.01679522 229.65392151 586.77148438 232.93945312 C587.25033574 235.03377743 587.72886408 237.12817563 588.20703125 239.22265625 C588.43195755 240.20267105 588.65688385 241.18268585 588.8886261 242.19239807 C589.09271591 243.09191696 589.29680573 243.99143585 589.50708008 244.91821289 C589.77757927 246.10466148 589.77757927 246.10466148 590.05354309 247.31507874 C590.4375 249.25 590.4375 249.25 590.4375 251.25 C591.66927979 251.50362305 592.90105957 251.75724609 594.17016602 252.01855469 C600.11835632 253.34328898 605.89977178 255.14164575 611.71484375 256.953125 C612.88020157 257.31339783 614.04555939 257.67367065 615.24623108 258.04486084 C617.70675446 258.80636457 620.16674179 259.56960227 622.6262207 260.33447266 C626.33090858 261.4862916 630.03736003 262.63227983 633.74414062 263.77734375 C644.099944 266.98241633 654.45266508 270.20139895 664.7578125 273.56640625 C665.79668861 273.89883331 665.79668861 273.89883331 666.85655212 274.23797607 C683.41178321 279.72408527 696.55289764 292.258393 704.38168335 307.69577026 C705.77285683 311.06129465 706.80793624 314.50795243 707.82275391 318.00048828 C708.15090969 319.12538855 708.15090969 319.12538855 708.48569489 320.27301407 C710.72020127 328.05232795 712.56392052 335.90344436 714.34375 343.796875 C714.70460749 345.37872188 715.06592007 346.96046501 715.42764282 348.54211426 C716.400839 352.80383037 717.36733732 357.0670393 718.33249664 361.33058167 C719.15086509 364.94141741 719.97336715 368.55130631 720.79592323 372.16119003 C728.2972731 405.08214313 735.72815104 438.01933314 743.14257812 470.95996094 C747.25494438 489.2243018 751.39919749 507.48031287 755.62122154 525.71963882 C759.43177381 542.18338132 763.16687987 558.66354438 766.87462616 575.15071106 C767.38805663 577.43304004 767.90199106 579.71525502 768.41607666 581.99743652 C772.7833 601.38513462 777.11660546 620.77991603 781.40600586 640.18499756 C784.50368268 654.18594385 787.72113771 668.15648023 790.98770142 682.11889648 C794.30393774 696.29987609 797.55761995 710.49422865 800.7571106 724.70202637 C801.24823925 726.88233659 801.74030889 729.06243508 802.23336792 731.24230957 C802.92018433 734.2806902 803.6032513 737.31988881 804.28515625 740.359375 C804.4888382 741.25845581 804.69252014 742.15753662 804.90237427 743.0838623 C810.48450661 768.09014311 808.59508431 793.87280196 795.125 816.0625 C792.0404031 820.65210901 788.51932453 824.68981967 784.75 828.7265625 C782.40793524 831.28226154 780.23150896 833.92148526 778.0625 836.625 C774.38048465 841.17940923 770.50849643 845.48747565 766.52172852 849.77124023 C763.5506325 852.98263407 760.73803412 856.27609763 758 859.6875 C753.63609541 865.10908343 748.9532847 870.17842117 744.2109375 875.265625 C738.36236904 881.54004113 732.84439754 888.10458807 727.26611328 894.61816406 C718.83460936 904.4605692 710.39101667 914.27810499 701.63671875 923.8359375 C699.12151069 926.5968586 696.66471129 929.40386748 694.21484375 932.22265625 C692.14390513 934.58489173 690.04237152 936.91795853 687.9375 939.25 C684.67045665 942.87023723 681.44229224 946.51983565 678.2421875 950.19921875 C676.20791859 952.51088797 674.1352769 954.7853143 672.0625 957.0625 C668.86097567 960.60160002 665.80603937 964.22103106 662.8125 967.9375 C660.30776769 971.03591453 657.8035889 973.98296947 654.9375 976.75 C652.13224298 979.45896674 649.69120468 982.33335539 647.25 985.375 C643.7998864 989.66560124 640.19977908 993.73666491 636.4375 997.75 C632.78845166 1001.64559793 629.28050105 1005.58336101 625.9375 1009.75 C622.59448041 1013.9166621 619.08634863 1017.85419812 615.4375 1021.75 C610.97875556 1026.51088994 606.7995217 1031.4146782 602.71484375 1036.50390625 C599.77672549 1040.04678299 596.65518822 1043.40441772 593.52099609 1046.77197266 C590.55019934 1049.98316873 587.73781679 1053.27636841 585 1056.6875 C581.15639943 1061.46621628 577.06789836 1065.94157687 572.87915039 1070.41381836 C569.76196055 1073.76099327 566.80176202 1077.18005023 563.9375 1080.75 C559.59822656 1086.15436782 554.93353585 1091.19955123 550.2109375 1096.265625 C544.36309741 1102.53925973 538.84524953 1109.10263111 533.26831055 1115.6159668 C517.69860718 1133.79387872 517.69860718 1133.79387872 510.6875 1141.5 C507.67989392 1144.81439286 504.81320304 1148.20659083 502 1151.6875 C498.13691783 1156.46428509 494.05838565 1160.98946882 489.8984375 1165.5078125 C487.52710105 1168.15015883 485.28497003 1170.85694167 483.0625 1173.625 C479.1467499 1178.47803071 475.00356362 1183.05919545 470.74755859 1187.61132812 C467.98951483 1190.56150528 465.29887227 1193.5426268 462.6875 1196.625 C449.05132844 1212.26070633 429.98020497 1221.55812298 409.375 1223.125 C390.24449169 1224.02384309 371.93213314 1217.86727961 353.77636719 1212.57147217 C350.53149766 1211.62723692 347.2832571 1210.69476575 344.03515625 1209.76171875 C340.1809314 1208.65380812 336.32700414 1207.54489442 332.47457886 1206.43074036 C323.79827007 1203.92255937 315.11002508 1201.46176057 306.41046143 1199.03562927 C297.08350345 1196.43414552 287.76387686 1193.80713394 278.4453125 1191.17578125 C276.83453683 1190.72104295 275.223758 1190.26631585 273.61297607 1189.81159973 C270.3012722 1188.8766902 266.98958942 1187.94170599 263.67791748 1187.00668335 C229.75773535 1177.42745295 229.75773535 1177.42745295 195.8125 1167.9375 C179.50728 1163.40184843 163.22010953 1158.80363802 146.9375 1154.1875 C145.67220459 1153.82878815 144.40690918 1153.47007629 143.10327148 1153.10049438 C130.58494105 1149.55110807 118.06775143 1145.99770728 105.55146313 1142.44112682 C98.13874983 1140.33478454 90.72575084 1138.22944963 83.3125 1136.125 C82.6310429 1135.93153614 81.9495858 1135.73807228 81.24747849 1135.53874588 C59.14954293 1129.26577435 37.03810766 1123.04177038 14.91880608 1116.84457684 C8.79611112 1115.12899402 2.67423993 1113.41049531 -3.44726562 1111.69067383 C-6.87755565 1110.72720346 -10.30790142 1109.76393181 -13.73828125 1108.80078125 C-14.57830814 1108.56489603 -15.41833504 1108.32901081 -16.28381729 1108.08597755 C-26.58873597 1105.19322426 -36.89950526 1102.32311815 -47.21931458 1099.48394775 C-52.10308892 1098.13993777 -56.98386678 1096.78520791 -61.86373806 1095.42710114 C-65.04253429 1094.54317249 -68.22314285 1093.66701285 -71.40719604 1092.80218506 C-95.05142376 1086.37777263 -117.22312418 1078.57980718 -130.66113281 1056.43994141 C-131.77949421 1054.48156412 -132.8387739 1052.50298044 -133.875 1050.5 C-134.34522583 1049.60849243 -134.34522583 1049.60849243 -134.82495117 1048.69897461 C-142.14624949 1033.70215317 -144.02514253 1015.62554072 -147.25 999.4375 C-147.99540318 995.70663809 -148.742187 991.97607071 -149.49238586 988.24617004 C-149.95610167 985.93970373 -150.41696413 983.63266152 -150.87467957 981.32499695 C-151.08192154 980.29244278 -151.28916351 979.25988861 -151.50268555 978.19604492 C-151.77437813 976.83161507 -151.77437813 976.83161507 -152.05155945 975.43962097 C-152.47959892 973.22225011 -152.47959892 973.22225011 -153.5625 971.25 C-155.39179713 970.42782919 -155.39179713 970.42782919 -157.65380859 969.77294922 C-158.528508 969.49832352 -159.4032074 969.22369781 -160.30441284 968.94075012 C-161.26356598 968.64834946 -162.22271912 968.35594879 -163.2109375 968.0546875 C-164.2025589 967.74613327 -165.1941803 967.43757904 -166.21585083 967.11967468 C-168.34681824 966.45806769 -170.47893617 965.80015753 -172.61206055 965.14553833 C-175.937056 964.12513626 -179.25880642 963.09470711 -182.58007812 962.06225586 C-192.95165638 958.84684858 -203.33677062 955.70510449 -213.78393555 952.74487305 C-229.50197893 948.2749045 -243.02111994 943.32868825 -254.5625 931.25 C-255.18253906 930.64929688 -255.80257812 930.04859375 -256.44140625 929.4296875 C-269.20656949 916.23616308 -272.28881758 899.04644394 -276.01489258 881.77410889 C-276.81697711 878.07702842 -277.63722052 874.38401868 -278.45568848 870.6905365 C-284.86691601 841.7401764 -291.04298089 812.73786078 -297.24470711 783.74203777 C-301.54112308 763.65458433 -305.86480212 743.5732376 -310.21350098 723.49703979 C-324.992406 655.26607628 -339.61776869 587.00281435 -353.95257568 518.67712402 C-356.58009014 506.15510357 -359.2248672 493.63676691 -361.87597656 481.11972046 C-362.5464244 477.95097823 -363.21494308 474.78183541 -363.8828125 471.61254883 C-365.6897653 463.04427473 -367.5041608 454.47840197 -369.38458252 445.92590332 C-370.14880149 442.44622107 -370.90412022 438.96463447 -371.65869141 435.48284912 C-372.1602853 433.18706129 -372.67540991 430.89463484 -373.19140625 428.60205078 C-379.00779336 402.11628961 -376.7632866 375.78195481 -362.5625 352.25 C-358.11963571 346.03213977 -353.09923851 340.44054929 -347.8125 334.9375 C-346.39523327 333.44718501 -344.97856853 331.9562973 -343.5625 330.46484375 C-342.87800781 329.74538574 -342.19351563 329.02592773 -341.48828125 328.28466797 C-337.11604111 323.66521446 -332.85074272 318.94725544 -328.5625 314.25 C-321.31811084 306.34491842 -313.99942516 298.512171 -306.64599609 290.70849609 C-293.67730369 277.04879877 -293.67730369 277.04879877 -281.1328125 263.00390625 C-278.71573407 260.30423407 -276.11642636 257.79538799 -273.53515625 255.25390625 C-270.98912171 252.66753849 -268.64228443 249.9346472 -266.27734375 247.18359375 C-264.0620262 244.68568444 -261.6935183 242.36975011 -259.3125 240.03125 C-257.48007513 238.16610326 -255.76896865 236.23072254 -254.0625 234.25 C-251.8169206 231.64352391 -249.51698488 229.16065479 -247.0625 226.75 C-244.62860268 224.35946833 -242.34894441 221.89953738 -240.125 219.3125 C-237.15644444 215.86578784 -234.02170896 212.65889141 -230.75 209.5 C-228.2004713 206.87762763 -225.82526674 204.12921644 -223.42724609 201.36865234 C-220.48647895 198.02746653 -217.43197147 194.79708503 -214.375 191.5625 C-213.05169194 190.1566183 -211.72878028 188.75036339 -210.40625 187.34375 C-209.7565625 186.6528125 -209.106875 185.961875 -208.4375 185.25 C-204.26906477 180.80366909 -200.14560079 176.31575949 -196.01855469 171.83105469 C-194.02097858 169.66198982 -192.01952546 167.49651768 -190.01831055 165.33081055 C-185.68994961 160.64610281 -181.36993911 155.95395275 -177.0625 151.25 C-171.75045792 145.44896736 -166.41655666 139.66830883 -161.07861328 133.89111328 C-159.07203341 131.71909558 -157.06636308 129.54623927 -155.06079102 127.37329102 C-154.06005842 126.28906892 -153.05924431 125.20492206 -152.05834961 124.12084961 C-149.58188674 121.43851745 -147.10634728 118.75534524 -144.6328125 116.0703125 C-139.29539039 110.27864169 -133.94009673 104.50440384 -128.5625 98.75 C-120.40882287 90.02437018 -112.30572387 81.25364618 -104.25 72.4375 C-99.20190804 66.92049964 -94.08925328 61.46593731 -88.9519043 56.03198242 C-85.9429292 52.83806425 -82.98617522 49.61455863 -80.109375 46.30078125 C-76.36734055 41.99377298 -72.4804175 37.83433797 -68.5625 33.6875 C-67.88960938 32.97142578 -67.21671875 32.25535156 -66.5234375 31.51757812 C-64.54559402 29.41946038 -62.55672456 27.33254452 -60.5625 25.25 C-59.65226074 24.2894873 -59.65226074 24.2894873 -58.72363281 23.30957031 C-43.81195097 7.90439652 -21.12102916 0.14782873 0 0 Z " fill="#4CE0FD" transform="translate(376.5625,-0.25)"/>
<path d="M0 0 C7.48253542 0.55058227 14.13922305 2.34835226 21.27734375 4.60546875 C22.44270157 4.96715652 23.60805939 5.3288443 24.80873108 5.70149231 C28.52074351 6.85588216 32.22905354 8.02171224 35.9375 9.1875 C38.39365997 9.95187993 40.85003844 10.71555812 43.30664062 11.47851562 C50.21219036 13.62810569 57.10881981 15.80480543 64 18 C64.94563812 18.30058319 65.89127625 18.60116638 66.86557007 18.91085815 C69.35332047 19.70556771 71.83752075 20.51026349 74.3203125 21.3203125 C75.01289658 21.54168381 75.70548065 21.76305511 76.41905212 21.99113464 C92.9753974 27.46946175 106.11658232 40.01072905 113.94418335 55.44577026 C115.33535683 58.81129465 116.37043624 62.25795243 117.38525391 65.75048828 C117.71340969 66.87538855 117.71340969 66.87538855 118.04819489 68.02301407 C120.28270127 75.80232795 122.12642052 83.65344436 123.90625 91.546875 C124.26710749 93.12872188 124.62842007 94.71046501 124.99014282 96.29211426 C125.963339 100.55383037 126.92983732 104.8170393 127.89499664 109.08058167 C128.71336509 112.69141741 129.53586715 116.30130631 130.35842323 119.91119003 C137.8597731 152.83214313 145.29065104 185.76933314 152.70507812 218.70996094 C156.81744438 236.9743018 160.96169749 255.23031287 165.18372154 273.46963882 C168.99427381 289.93338132 172.72937987 306.41354438 176.43712616 322.90071106 C176.95055663 325.18304004 177.46449106 327.46525502 177.97857666 329.74743652 C182.3458 349.13513462 186.67910546 368.52991603 190.96850586 387.93499756 C194.06618268 401.93594385 197.28363771 415.90648023 200.55020142 429.86889648 C203.86643774 444.04987609 207.12011995 458.24422865 210.3196106 472.45202637 C210.81073925 474.63233659 211.30280889 476.81243508 211.79586792 478.99230957 C212.48268433 482.0306902 213.1657513 485.06988881 213.84765625 488.109375 C214.15317917 489.45799622 214.15317917 489.45799622 214.46487427 490.8338623 C220.04700661 515.84014311 218.15758431 541.62280196 204.6875 563.8125 C201.6029031 568.40210901 198.08182453 572.43981967 194.3125 576.4765625 C191.97043524 579.03226154 189.79400896 581.67148526 187.625 584.375 C183.94298465 588.92940923 180.07099643 593.23747565 176.08422852 597.52124023 C173.1131325 600.73263407 170.30053412 604.02609763 167.5625 607.4375 C163.19859541 612.85908343 158.5157847 617.92842117 153.7734375 623.015625 C147.92486904 629.29004113 142.40689754 635.85458807 136.82861328 642.36816406 C128.39710936 652.2105692 119.95351667 662.02810499 111.19921875 671.5859375 C108.68401069 674.3468586 106.22721129 677.15386748 103.77734375 679.97265625 C101.70640513 682.33489173 99.60487152 684.66795853 97.5 687 C94.23295665 690.62023723 91.00479224 694.26983565 87.8046875 697.94921875 C85.77041859 700.26088797 83.6977769 702.5353143 81.625 704.8125 C78.42347567 708.35160002 75.36853937 711.97103106 72.375 715.6875 C69.87026769 718.78591453 67.3660889 721.73296947 64.5 724.5 C61.69474298 727.20896674 59.25370468 730.08335539 56.8125 733.125 C53.3623864 737.41560124 49.76227908 741.48666491 46 745.5 C42.35095166 749.39559793 38.84300105 753.33336101 35.5 757.5 C32.15698041 761.6666621 28.64884863 765.60419812 25 769.5 C20.54125556 774.26088994 16.3620217 779.1646782 12.27734375 784.25390625 C9.33922549 787.79678299 6.21768822 791.15441772 3.08349609 794.52197266 C0.11269934 797.73316873 -2.69968321 801.02636841 -5.4375 804.4375 C-9.28110057 809.21621628 -13.36960164 813.69157687 -17.55834961 818.16381836 C-20.67553945 821.51099327 -23.63573798 824.93005023 -26.5 828.5 C-30.83927344 833.90436782 -35.50396415 838.94955123 -40.2265625 844.015625 C-46.07440259 850.28925973 -51.59225047 856.85263111 -57.16918945 863.3659668 C-72.73889282 881.54387872 -72.73889282 881.54387872 -79.75 889.25 C-82.75760608 892.56439286 -85.62429696 895.95659083 -88.4375 899.4375 C-92.30058217 904.21428509 -96.37911435 908.73946882 -100.5390625 913.2578125 C-102.91039895 915.90015883 -105.15252997 918.60694167 -107.375 921.375 C-111.2907501 926.22803071 -115.43393638 930.80919545 -119.68994141 935.36132812 C-122.44798517 938.31150528 -125.13862773 941.2926268 -127.75 944.375 C-141.38617156 960.01070633 -160.45729503 969.30812298 -181.0625 970.875 C-200.19300831 971.77384309 -218.50536686 965.61727961 -236.66113281 960.32147217 C-239.90600234 959.37723692 -243.1542429 958.44476575 -246.40234375 957.51171875 C-250.2565686 956.40380812 -254.11049586 955.29489442 -257.96292114 954.18074036 C-266.63922993 951.67255937 -275.32747492 949.21176057 -284.02703857 946.78562927 C-293.35399655 944.18414552 -302.67362314 941.55713394 -311.9921875 938.92578125 C-313.60296317 938.47104295 -315.213742 938.01631585 -316.82452393 937.56159973 C-320.1362278 936.6266902 -323.44791058 935.69170599 -326.75958252 934.75668335 C-360.67976465 925.17745295 -360.67976465 925.17745295 -394.625 915.6875 C-410.93022 911.15184843 -427.21739047 906.55363802 -443.5 901.9375 C-445.39794312 901.39943222 -445.39794312 901.39943222 -447.33422852 900.85049438 C-459.85255895 897.30110807 -472.36974857 893.74770728 -484.88603687 890.19112682 C-492.29875017 888.08478454 -499.71174916 885.97944963 -507.125 883.875 C-507.8064571 883.68153614 -508.4879142 883.48807228 -509.19002151 883.28874588 C-531.28795707 877.01577435 -553.39939234 870.79177038 -575.51869392 864.59457684 C-581.64138888 862.87899402 -587.76326007 861.16049531 -593.88476562 859.44067383 C-597.31505565 858.47720346 -600.74540142 857.51393181 -604.17578125 856.55078125 C-605.01580814 856.31489603 -605.85583504 856.07901081 -606.72131729 855.83597755 C-617.02623597 852.94322426 -627.33700526 850.07311815 -637.65681458 847.23394775 C-642.54058892 845.88993777 -647.42136678 844.53520791 -652.30123806 843.17710114 C-655.48003429 842.29317249 -658.66064285 841.41701285 -661.84469604 840.55218506 C-685.48892376 834.12777263 -707.66062418 826.32980718 -721.09863281 804.18994141 C-722.21699421 802.23156412 -723.2762739 800.25298044 -724.3125 798.25 C-724.62598389 797.65566162 -724.93946777 797.06132324 -725.26245117 796.44897461 C-731.36473513 783.9491612 -733.37704256 769.14073788 -736.14697266 755.61889648 C-736.75304009 752.67272173 -737.3743506 749.73001067 -737.99609375 746.78710938 C-738.38895419 744.88300483 -738.78091324 742.97871404 -739.171875 741.07421875 C-739.44834869 739.77855232 -739.44834869 739.77855232 -739.73040771 738.45671082 C-740.91317581 732.5756617 -741.21006977 726.99232501 -741 721 C-733.54803109 722.21033993 -726.53383574 723.92126124 -719.375 726.3125 C-717.43406992 726.9454724 -715.49265844 727.57697045 -713.55078125 728.20703125 C-712.60541504 728.51463379 -711.66004883 728.82223633 -710.68603516 729.13916016 C-706.99569644 730.32186642 -703.28485453 731.42304958 -699.5625 732.5 C-692.85755577 734.44432027 -686.17618312 736.4590858 -679.5 738.5 C-672.1028267 740.75944081 -664.69825396 742.98748797 -657.2746582 745.15844727 C-649.35375615 747.47646068 -641.45173007 749.85698399 -633.54833984 752.23388672 C-628.53252672 753.74180218 -623.51559906 755.24600774 -618.49853516 756.74975586 C-614.34280367 757.99566443 -610.18802414 759.24457684 -606.03515625 760.5 C-597.58406269 763.0509444 -589.1215827 765.54216572 -580.625 767.9375 C-572.34567305 770.27601831 -564.14818689 772.82652543 -555.95849609 775.46020508 C-546.27228692 778.57011522 -536.53818178 781.49632763 -526.72265625 784.171875 C-517.45877154 786.69745035 -508.3087277 789.462784 -499.17089844 792.41357422 C-493.49815478 794.23490681 -487.81236657 795.93988817 -482.0625 797.5 C-468.90464663 801.07232827 -455.87803134 805.10561153 -442.89697266 809.27148438 C-434.87333206 811.84429155 -426.81077456 814.19813423 -418.6875 816.4375 C-409.79816821 818.88842637 -401.00189981 821.53559166 -392.23022461 824.37695312 C-384.61467208 826.8336271 -376.94899412 829.08523008 -369.25952148 831.2980957 C-361.64190464 833.49835805 -354.06914365 835.82646258 -346.5 838.1875 C-337.06240424 841.12357888 -327.62748176 843.76369518 -318 846 C-317.36078613 846.17289551 -316.72157227 846.34579102 -316.06298828 846.52392578 C-300.63738447 850.08368051 -286.15456383 845.48521328 -273 837.625 C-268.07546293 834.27071203 -263.9798807 830.41732448 -260 826 C-259.46375 825.40832031 -258.9275 824.81664062 -258.375 824.20703125 C-256.55810036 822.15865161 -254.77687889 820.08323731 -253 818 C-251.04261822 815.70751906 -249.08407272 813.41603604 -247.125 811.125 C-246.60542725 810.51664307 -246.08585449 809.90828613 -245.55053711 809.28149414 C-242.52139597 805.74394582 -239.44863446 802.25620632 -236.3125 798.8125 C-233.3208184 795.52057795 -230.47475577 792.15408693 -227.6875 788.6875 C-223.79744069 783.87414563 -219.67128166 779.3523855 -215.44433594 774.83886719 C-211.52121407 770.62606859 -207.88103586 766.23604648 -204.27734375 761.74609375 C-201.33922549 758.20321701 -198.21768822 754.84558228 -195.08349609 751.47802734 C-192.11269934 748.26683127 -189.30031679 744.97363159 -186.5625 741.5625 C-182.71889943 736.78378372 -178.63039836 732.30842313 -174.44165039 727.83618164 C-171.32446055 724.48900673 -168.36426202 721.06994977 -165.5 717.5 C-161.16072656 712.09563218 -156.49603585 707.05044877 -151.7734375 701.984375 C-147.48018201 697.37851774 -143.37670578 692.6189993 -139.296875 687.82421875 C-133.46766312 680.98180944 -127.54467469 674.25882339 -121.4453125 667.65625 C-117.28495473 663.13701153 -113.27314465 658.49821391 -109.29296875 653.8203125 C-104.38874322 648.06321299 -99.46070413 642.35357185 -94.3125 636.8125 C-90.92475627 633.16586624 -87.68102204 629.44382599 -84.5625 625.5625 C-80.19859541 620.14091657 -75.5157847 615.07157883 -70.7734375 609.984375 C-66.48018201 605.37851774 -62.37670578 600.6189993 -58.296875 595.82421875 C-52.47186033 588.98673618 -46.5549513 582.2670408 -40.45703125 575.671875 C-37.8315096 572.81677674 -35.2733216 569.91234756 -32.734375 566.98046875 C-30.72735462 564.68866845 -28.67597149 562.44003248 -26.625 560.1875 C-23.57141133 556.81059018 -20.65570795 553.36782868 -17.8125 549.8125 C-13.50464496 544.47860593 -8.86140135 539.52484514 -4.15356445 534.5480957 C-0.78588086 530.96961956 2.43345406 527.34462476 5.5 523.5 C9.12711097 518.95257729 13.00601288 514.72203397 17 510.5 C21.80941948 505.41539255 26.34820983 500.22523546 30.71875 494.75390625 C34.3787719 490.33555789 38.31563258 486.17983851 42.2265625 481.984375 C46.53105514 477.36646239 50.64312405 472.59238393 54.73828125 467.7890625 C55.76294064 466.58847322 56.78768269 465.38795449 57.8125 464.1875 C58.3283667 463.58204346 58.8442334 462.97658691 59.37573242 462.3527832 C62.60998787 458.5724912 65.92355674 454.89208079 69.3125 451.25 C83.75632447 435.44049341 92.32240313 416.04920657 91.56640625 394.37890625 C90.02308458 374.02109552 90.02308458 374.02109552 83 356 C82.54821974 353.71057301 82.13974178 351.42512881 81.75 349.125 C80.6555569 342.9723988 79.2716342 336.96477856 77.625 330.9375 C75.77101595 324.11948922 74.14685321 317.28807777 72.6875 310.375 C70.67538328 300.8718052 68.43849452 291.43315968 66.125 282 C63.41413716 270.9393085 60.798534 259.86344748 58.3125 248.75 C55.83615007 237.68614425 53.2918792 226.64353762 50.63134766 215.62255859 C49.95129161 212.79766996 49.27792367 209.9712386 48.60546875 207.14453125 C46.25821563 197.29530375 43.87246061 187.4586024 41.38964844 177.64257812 C38.43854258 165.97421005 35.69328583 154.28299635 33.13110352 142.52319336 C31.53788921 135.26486127 29.76303951 128.08406293 27.8215332 120.91210938 C25.51670666 112.33789661 23.61242438 103.67766327 21.67675781 95.01416016 C20.44918782 89.54677953 19.1940106 84.08578952 17.9375 78.625 C17.70426025 77.60462646 17.47102051 76.58425293 17.23071289 75.53295898 C15.75748459 69.13124252 14.20043332 62.75330152 12.5973053 56.38310242 C11.27576306 51.12489789 9.98639827 45.85940584 8.7109375 40.58984375 C8.51913406 39.79803711 8.32733063 39.00623047 8.12971497 38.19042969 C7.34424125 34.94629185 6.55951557 31.70197541 5.77636719 28.45727539 C5.19332947 26.04282172 4.60850436 23.6288064 4.0234375 21.21484375 C3.84944427 20.49183578 3.67545105 19.76882782 3.4961853 19.02391052 C2.69437005 15.72023357 1.84235319 12.46468209 0.88134766 9.20141602 C-0.00575646 5.97909017 -0.16212048 3.32346985 0 0 Z " fill="#0488BA" transform="translate(967,252)"/>
<path d="M0 0 C0.70962891 -0.020625 1.41925781 -0.04125 2.15039062 -0.0625 C17.80313613 -0.17224756 33.85030368 5.95156585 48.8125 10 C51.29189372 10.66809014 53.77138787 11.33580769 56.25097656 12.00317383 C60.10314468 13.0401429 63.95525558 14.07731829 67.80688477 15.11628723 C76.54280403 17.4726366 85.28188733 19.81696095 94.0234375 22.15234375 C118.03647395 28.56857814 142.03694276 35.02688921 166.01223755 41.58276367 C167.34035965 41.94591675 167.34035965 41.94591675 168.6953125 42.31640625 C169.57951874 42.55818604 170.46372498 42.79996582 171.37472534 43.04907227 C182.49013324 46.08677005 193.61367494 49.09440912 204.73681641 52.1036377 C217.12301785 55.45471299 229.50777999 58.81100331 241.88997459 62.17685127 C269.87410042 69.78375982 297.85942204 77.38455049 325.875 84.875 C370.10576532 96.70183051 414.31472567 108.61109056 458.47314453 120.70556641 C461.19040852 121.44962161 463.90770041 122.19357485 466.625 122.9375 C467.28980251 123.11956371 467.95460503 123.30162743 468.63955307 123.48920822 C477.01449101 125.78186575 485.39604571 128.04708917 493.78753662 130.27861023 C498.49144461 131.5304935 503.19244908 132.79307138 507.89318848 134.05679321 C510.04920927 134.63318744 512.20663948 135.20434152 514.36560059 135.7696228 C536.10418817 141.46383492 556.56964345 149.48851003 568.671875 169.84765625 C572.37787195 176.63411164 574.99256026 183.49571874 576.8671875 190.98828125 C577.18045235 192.21041069 577.18045235 192.21041069 577.50004578 193.45722961 C579.68197313 202.05224356 581.70718206 210.68406898 583.65991211 219.33374023 C584.25883532 221.97648582 584.87059018 224.61607621 585.48242188 227.25585938 C585.87057472 228.96596829 586.25797327 230.67624862 586.64453125 232.38671875 C586.82570999 233.1607756 587.00688873 233.93483246 587.19355774 234.73234558 C588.2921874 239.6807484 588.60235761 244.180359 588.4375 249.25 C582.11166376 248.82112975 576.61216459 247.51026608 570.58984375 245.5625 C564.02671379 243.45154194 557.37867697 241.61075519 550.75170898 239.71240234 C549.25039429 239.27855225 549.25039429 239.27855225 547.71875 238.8359375 C546.82220703 238.5786084 545.92566406 238.3212793 545.00195312 238.05615234 C542.41903929 237.24419676 539.94592267 236.26585143 537.4375 235.25 C535.304234 234.73296066 533.16762509 234.32061531 531.01171875 233.91015625 C528.12797384 233.17062228 525.41226407 232.11544319 522.63549805 231.05053711 C518.81743578 229.65995328 514.91176145 228.59253834 511 227.5 C510.1032959 227.24613525 509.2065918 226.99227051 508.28271484 226.73071289 C503.20508333 225.29618409 498.12122163 223.88476699 493.03515625 222.48046875 C482.95240409 219.690474 472.9712048 216.83068652 463.078125 213.42578125 C458.07781276 211.81087354 453.01439379 210.50705149 447.92675781 209.19921875 C441.6962748 207.59458731 435.49929725 205.89053818 429.3125 204.125 C428.46026855 203.88338135 427.60803711 203.6417627 426.72998047 203.39282227 C422.74357689 202.2501054 418.79322527 201.05106969 414.8671875 199.71484375 C410.5209007 198.24484607 406.13301729 197.06536721 401.6875 195.9375 C389.06355062 192.67290199 376.5391262 189.06641547 364.03979492 185.35546875 C354.09583076 182.4038193 344.09459619 179.68088399 334.08300781 176.96875 C327.19172451 175.09647812 320.31281299 173.17998651 313.4375 171.25 C312.53451172 170.99686035 311.63152344 170.7437207 310.70117188 170.48291016 C307.84146962 169.67953017 304.9830636 168.87168849 302.125 168.0625 C301.23482178 167.81242188 300.34464355 167.56234375 299.42749023 167.3046875 C298.58903564 167.06621094 297.75058105 166.82773438 296.88671875 166.58203125 C296.14768311 166.37296143 295.40864746 166.1638916 294.6472168 165.94848633 C292.4375 165.25 292.4375 165.25 290.00146484 164.25439453 C287.34152811 163.21240446 284.74250692 162.51076077 281.96484375 161.84765625 C275.2841841 160.21969952 268.64107186 158.46943792 262 156.6875 C260.85595703 156.38392578 259.71191406 156.08035156 258.53320312 155.76757812 C257.43041016 155.47173828 256.32761719 155.17589844 255.19140625 154.87109375 C254.20470947 154.6073999 253.2180127 154.34370605 252.20141602 154.07202148 C249.53248861 153.27825074 247.0155918 152.29622096 244.4375 151.25 C242.02887162 150.61454389 239.61093362 150.01392399 237.1875 149.4375 C231.59779525 148.07941541 226.07020424 146.59646325 220.5625 144.9375 C212.12060805 142.40223851 203.61656292 140.11865669 195.10205078 137.84106445 C186.56840329 135.55799951 178.05230659 133.21888517 169.54541016 130.83837891 C167.38926716 130.23653682 165.23194372 129.63911281 163.07421875 129.04296875 C155.91253689 127.06325273 148.75706413 125.06450717 141.61474609 123.01586914 C139.82836512 122.50484624 138.04092076 121.99752629 136.25244141 121.49389648 C132.10014465 120.32161318 127.97479942 119.11504215 123.87890625 117.7578125 C108.6022444 112.83450402 91.31226885 111.21789278 76.4375 118.25 C74.95443359 118.88615234 74.95443359 118.88615234 73.44140625 119.53515625 C60.90223016 125.26963296 51.95010664 134.46683711 42.92822266 144.5859375 C40.98629211 146.75367393 39.01322917 148.89168311 37.0390625 151.0300293 C33.06361766 155.33836274 29.15194122 159.69487551 25.3125 164.125 C22.41898991 167.40431143 19.44661641 170.61106712 16.484375 173.828125 C13.93194857 176.60494057 11.40766712 179.39980717 8.9375 182.25 C5.57292128 186.12972953 2.10161092 189.90857509 -1.375 193.6875 C-4.29039956 196.85779789 -7.18633078 200.04394757 -10.0625 203.25 C-13.41135113 206.98294876 -16.79218043 210.68443525 -20.1875 214.375 C-23.18434414 217.6338633 -26.16164656 220.90499675 -29.0625 224.25 C-32.42707872 228.12972953 -35.89838908 231.90857509 -39.375 235.6875 C-42.29039956 238.85779789 -45.18633078 242.04394757 -48.0625 245.25 C-51.41135113 248.98294876 -54.79218043 252.68443525 -58.1875 256.375 C-61.74508341 260.24362895 -65.24539695 264.15334264 -68.6875 268.125 C-71.10800108 270.86823456 -73.5845241 273.55882906 -76.0625 276.25 C-79.68340134 280.18284841 -83.25208925 284.15214012 -86.75390625 288.19140625 C-89.84150965 291.7058058 -93.01122696 295.14575177 -96.1640625 298.6015625 C-98.11487143 300.75571307 -100.03643612 302.92718469 -101.9375 305.125 C-105.0727371 308.7357233 -108.31155447 312.2438829 -111.5625 315.75 C-115.39292822 319.88145343 -119.17512565 324.04109549 -122.86328125 328.30078125 C-126.37657411 332.33097237 -129.9806004 336.28086801 -133.5625 340.25 C-134.284375 341.054375 -135.00625 341.85875 -135.75 342.6875 C-139.86800498 347.27613413 -144.01369543 351.83720497 -148.1875 356.375 C-151.16468281 359.61217216 -154.12202856 362.86137729 -157 366.1875 C-160.62394644 370.37032011 -164.39505746 374.41271807 -168.15771484 378.47021484 C-171.41114787 381.98482029 -174.59658762 385.54608667 -177.73046875 389.16796875 C-180.56250723 392.38646877 -183.47277948 395.53293411 -186.37524414 398.68774414 C-189.29054404 401.85797718 -192.18640764 405.04403325 -195.0625 408.25 C-198.41135154 411.98294921 -201.79220522 415.68441205 -205.1875 419.375 C-208.76977806 423.2709648 -212.30652516 427.19819671 -215.7578125 431.2109375 C-217.11598299 432.74549377 -218.51371923 434.24516995 -219.9296875 435.7265625 C-236.27668959 452.96792945 -243.32585343 472.35303547 -242.828125 495.89453125 C-242.57655896 501.62022567 -241.47569598 507.14142794 -240.28515625 512.734375 C-239.7121697 515.52187713 -239.3015247 518.17238863 -239.0625 521 C-238.64274799 525.58229279 -237.41631439 529.90278365 -236.25 534.34375 C-235.6573601 536.84900049 -235.28493333 539.19201667 -235.0625 541.75 C-234.77463343 545.03647664 -234.14341212 548.0439627 -233.28125 551.2265625 C-230.93100428 560.43402871 -229.30178601 569.787351 -227.5625 579.125 C-226.87729512 582.78949627 -226.18974021 586.45354221 -225.5 590.1171875 C-225.33395264 591.000578 -225.16790527 591.88396851 -224.99682617 592.79412842 C-223.85826498 598.80738382 -222.62279345 604.78839288 -221.2734375 610.75830078 C-220.65747972 613.78351648 -220.1332359 616.80002706 -219.63696289 619.84643555 C-218.57584616 626.30964081 -217.30582729 632.71992154 -215.99609375 639.13671875 C-215.5057567 641.56313029 -215.01552546 643.98956322 -214.52539062 646.41601562 C-213.76101215 650.18821233 -212.99539046 653.9601484 -212.2277832 657.73168945 C-211.4804672 661.40768273 -210.73799739 665.08462988 -209.99609375 668.76171875 C-209.76691757 669.88068039 -209.53774139 670.99964203 -209.30162048 672.1525116 C-208.08745589 678.18494044 -207.1737831 684.12799974 -206.5625 690.25 C-206.13031897 692.19851905 -205.65620134 694.13861537 -205.125 696.0625 C-204.05801606 699.93380822 -203.28977716 703.77788838 -202.65234375 707.73828125 C-201.31626878 715.98473728 -199.52819072 724.1311917 -197.7734375 732.296875 C-196.24571032 739.53428963 -194.98681675 746.74278706 -194.03491211 754.07910156 C-193.39034533 758.40552707 -192.37005143 762.61048709 -191.34375 766.859375 C-190.34964109 771.17380768 -189.55365159 775.51525137 -188.76245117 779.87084961 C-187.61634988 786.11520264 -186.29700062 792.31873318 -184.92016602 798.51611328 C-183.92687857 803.09542056 -183.2312808 807.60853672 -182.80688477 812.27636719 C-182.42502992 815.36019795 -181.42181209 818.26768156 -180.5625 821.25 C-180.24763439 823.02533208 -179.95449114 824.80457141 -179.67578125 826.5859375 C-178.53031204 833.61753592 -177.11526721 840.58366455 -175.6875 847.5625 C-173.80445328 856.83271802 -172.01292835 866.10907396 -170.4375 875.4375 C-169.02836676 883.76354248 -167.40286383 892.01522482 -165.625 900.26953125 C-163.48194197 910.23757091 -161.53538189 920.24719438 -159.5625 930.25 C-159.33884766 931.38083008 -159.11519531 932.51166016 -158.88476562 933.67675781 C-154.00195223 958.43360107 -154.00195223 958.43360107 -152.5625 970.25 C-158.115278 969.62017528 -163.16725388 968.28326461 -168.484375 966.58984375 C-169.33405853 966.3243573 -170.18374207 966.05887085 -171.05917358 965.78533936 C-173.81188129 964.92440015 -176.5622403 964.05622449 -179.3125 963.1875 C-183.11628329 961.99189584 -186.92113524 960.79973561 -190.7265625 959.609375 C-191.66366058 959.31588669 -192.60075867 959.02239838 -193.56625366 958.72001648 C-198.95025791 957.04094872 -204.34464965 955.41861477 -209.7734375 953.890625 C-226.8506655 949.07938275 -241.98598504 944.4120138 -254.5625 931.25 C-255.18253906 930.64929688 -255.80257812 930.04859375 -256.44140625 929.4296875 C-269.20656949 916.23616308 -272.28881758 899.04644394 -276.01489258 881.77410889 C-276.81697711 878.07702842 -277.63722052 874.38401868 -278.45568848 870.6905365 C-284.86691601 841.7401764 -291.04298089 812.73786078 -297.24470711 783.74203777 C-301.54112308 763.65458433 -305.86480212 743.5732376 -310.21350098 723.49703979 C-324.992406 655.26607628 -339.61776869 587.00281435 -353.95257568 518.67712402 C-356.58009014 506.15510357 -359.2248672 493.63676691 -361.87597656 481.11972046 C-362.5464244 477.95097823 -363.21494308 474.78183541 -363.8828125 471.61254883 C-365.6897653 463.04427473 -367.5041608 454.47840197 -369.38458252 445.92590332 C-370.14880149 442.44622107 -370.90412022 438.96463447 -371.65869141 435.48284912 C-372.1602853 433.18706129 -372.67540991 430.89463484 -373.19140625 428.60205078 C-379.00779336 402.11628961 -376.7632866 375.78195481 -362.5625 352.25 C-358.11963571 346.03213977 -353.09923851 340.44054929 -347.8125 334.9375 C-346.39523327 333.44718501 -344.97856853 331.9562973 -343.5625 330.46484375 C-342.87800781 329.74538574 -342.19351563 329.02592773 -341.48828125 328.28466797 C-337.11604111 323.66521446 -332.85074272 318.94725544 -328.5625 314.25 C-321.31811084 306.34491842 -313.99942516 298.512171 -306.64599609 290.70849609 C-293.67730369 277.04879877 -293.67730369 277.04879877 -281.1328125 263.00390625 C-278.71573407 260.30423407 -276.11642636 257.79538799 -273.53515625 255.25390625 C-270.98912171 252.66753849 -268.64228443 249.9346472 -266.27734375 247.18359375 C-264.0620262 244.68568444 -261.6935183 242.36975011 -259.3125 240.03125 C-257.48007513 238.16610326 -255.76896865 236.23072254 -254.0625 234.25 C-251.8169206 231.64352391 -249.51698488 229.16065479 -247.0625 226.75 C-244.62860268 224.35946833 -242.34894441 221.89953738 -240.125 219.3125 C-237.15644444 215.86578784 -234.02170896 212.65889141 -230.75 209.5 C-228.2004713 206.87762763 -225.82526674 204.12921644 -223.42724609 201.36865234 C-220.48647895 198.02746653 -217.43197147 194.79708503 -214.375 191.5625 C-213.05169194 190.1566183 -211.72878028 188.75036339 -210.40625 187.34375 C-209.7565625 186.6528125 -209.106875 185.961875 -208.4375 185.25 C-204.26906477 180.80366909 -200.14560079 176.31575949 -196.01855469 171.83105469 C-194.02097858 169.66198982 -192.01952546 167.49651768 -190.01831055 165.33081055 C-185.68994961 160.64610281 -181.36993911 155.95395275 -177.0625 151.25 C-171.75045792 145.44896736 -166.41655666 139.66830883 -161.07861328 133.89111328 C-159.07203341 131.71909558 -157.06636308 129.54623927 -155.06079102 127.37329102 C-154.06005842 126.28906892 -153.05924431 125.20492206 -152.05834961 124.12084961 C-149.58188674 121.43851745 -147.10634728 118.75534524 -144.6328125 116.0703125 C-139.29539039 110.27864169 -133.94009673 104.50440384 -128.5625 98.75 C-120.40882287 90.02437018 -112.30572387 81.25364618 -104.25 72.4375 C-99.20190804 66.92049964 -94.08925328 61.46593731 -88.9519043 56.03198242 C-85.9429292 52.83806425 -82.98617522 49.61455863 -80.109375 46.30078125 C-76.36734055 41.99377298 -72.4804175 37.83433797 -68.5625 33.6875 C-67.88960938 32.97142578 -67.21671875 32.25535156 -66.5234375 31.51757812 C-64.54559402 29.41946038 -62.55672456 27.33254452 -60.5625 25.25 C-59.65226074 24.2894873 -59.65226074 24.2894873 -58.72363281 23.30957031 C-43.81195097 7.90439652 -21.12102916 0.14782873 0 0 Z " fill="#0253BB" transform="translate(376.5625,-0.25)"/>
<path d="M0 0 C0.86686935 -0.0065712 1.73373871 -0.0131424 2.62687683 -0.01991272 C5.50426312 -0.03967045 8.38159711 -0.05131517 11.2590332 -0.0612793 C12.24139261 -0.06535482 13.22375202 -0.06943035 14.2358799 -0.07362938 C19.43752458 -0.09450286 24.63914279 -0.1087978 29.84082031 -0.11816406 C35.20986453 -0.12921795 40.57849309 -0.16360252 45.94739056 -0.20333576 C50.07815817 -0.22950631 54.20882695 -0.23785641 58.33967018 -0.24144554 C60.31837578 -0.24631208 62.29707695 -0.25792796 64.27570152 -0.27648354 C67.05001894 -0.30087918 69.82326399 -0.29990892 72.59765625 -0.29296875 C73.4109137 -0.30577881 74.22417114 -0.31858887 75.06207275 -0.33178711 C81.52176292 -0.27307697 85.3392562 1.64731917 90.4777832 5.60668945 C98.99396025 14.84711617 99.89000262 30.6852418 102.34106445 42.5234375 C103.77026913 49.40002861 105.34745482 56.22368196 107.07348633 63.03100586 C108.27624918 67.77624572 109.43572202 72.52970537 110.55981445 77.29418945 C110.8058416 78.33690254 110.8058416 78.33690254 111.05683899 79.40068054 C111.39988772 80.85662102 111.7426387 82.31263169 112.08511353 83.76870728 C116.485072 102.47009302 120.96678048 121.15169826 125.46020508 139.83081055 C128.72555356 153.40904163 131.97948621 166.98924 135.0949707 180.6027832 C137.18032786 189.66655366 139.4198639 198.69362188 141.64013672 207.72509766 C144.28970386 218.51030231 146.79500675 229.31744772 149.17758179 240.16464233 C150.27137201 245.11390611 151.4174286 250.05128126 152.55981445 254.98950195 C152.81142334 256.08335205 153.06303223 257.17720215 153.32226562 258.30419922 C154.54123859 263.58590445 155.78145435 268.86036728 157.08325195 274.12231445 C161.40212864 291.62978915 161.40212864 291.62978915 161.62231445 300.17700195 C162.28231445 300.17700195 162.94231445 300.17700195 163.62231445 300.17700195 C163.72930664 299.0993457 163.83629883 298.02168945 163.9465332 296.91137695 C164.65526813 291.30514901 166.04452798 285.89738967 167.43481445 280.42700195 C167.73178223 279.24831543 168.02875 278.06962891 168.3347168 276.85522461 C175.14363467 250.12828473 182.65114407 223.57356121 190.0637207 197.0090332 C190.43751214 195.66921554 190.81121418 194.32937293 191.18481445 192.98950195 C191.49104736 191.89134155 191.49104736 191.89134155 191.8034668 190.77099609 C193.15818247 185.89560105 194.46286216 181.00880425 195.74731445 176.11450195 C196.76788786 172.25673448 197.81628536 168.44763433 199.12231445 164.67700195 C200.77928208 159.87267253 202.03327695 154.98190179 203.3215332 150.06762695 C205.03108045 143.58845692 206.83433069 137.13486046 208.62231445 130.67700195 C210.69581944 123.18521906 212.76819165 115.69434236 214.74731445 108.17700195 C216.23364295 102.5497233 217.82304322 96.95674196 219.43481445 91.36450195 C221.64315809 83.69808751 223.75413211 76.01065935 225.80981445 68.30200195 C226.88791123 64.28955048 227.9708475 60.27842536 229.05670166 56.26806641 C229.45661831 54.78957882 229.85575271 53.31087953 230.2543335 51.83203125 C231.66195453 46.611576 233.08487232 41.39561531 234.52407837 36.18377686 C235.00199649 34.44468647 235.47536974 32.70434001 235.94393921 30.96270752 C236.60830037 28.49672569 237.28924534 26.03585948 237.97387695 23.57543945 C238.16646591 22.84617249 238.35905487 22.11690552 238.55747986 21.36553955 C240.47284227 14.60412711 243.71233715 8.17974799 249.30981445 3.73950195 C250.18186523 3.02987305 250.18186523 3.02987305 251.0715332 2.3059082 C254.81515596 -0.41929829 258.52671048 0.00723649 262.98413086 -0.01586914 C264.28202545 -0.02813538 264.28202545 -0.02813538 265.60614014 -0.04064941 C268.47871201 -0.06552388 271.35123428 -0.08202763 274.22387695 -0.09643555 C275.20498821 -0.10175922 276.18609947 -0.1070829 277.19694138 -0.1125679 C282.3932492 -0.13931262 287.58953292 -0.15868041 292.78588867 -0.1730957 C298.14596258 -0.18971672 303.50541843 -0.23446947 308.86525917 -0.28546715 C312.99177733 -0.31918062 317.11814982 -0.33067784 321.24479294 -0.33632278 C323.2199003 -0.34302746 325.19499835 -0.35822907 327.16997147 -0.38221359 C329.94186376 -0.41394626 332.7121035 -0.41388944 335.48413086 -0.40649414 C336.29379303 -0.42289948 337.1034552 -0.43930481 337.93765259 -0.45620728 C345.11921313 -0.37815505 349.93188851 2.48657601 354.9543457 7.5090332 C357.02047427 10.81387116 358.20778133 14.1571809 359.30981445 17.86450195 C359.55183594 18.65107178 359.79385742 19.4376416 360.04321289 20.24804688 C363.15428978 30.59247319 365.83642399 41.06732398 368.55078125 51.52148438 C368.73910019 52.24496063 368.92741913 52.96843689 369.1214447 53.71383667 C369.6378073 55.70077613 370.15115477 57.68849845 370.66430664 59.67626953 C371.54393739 62.89059811 372.55237911 66.02210582 373.62231445 69.17700195 C374.12828167 70.88690083 374.62178344 72.60053749 375.1027832 74.31762695 C375.37646729 75.29352783 375.65015137 76.26942871 375.93212891 77.27490234 C376.22176514 78.31509521 376.51140137 79.35528809 376.80981445 80.42700195 C377.11298584 81.51295654 377.41615723 82.59891113 377.72851562 83.71777344 C380.00038053 91.88186764 382.22983363 100.05710699 384.43481445 108.23950195 C384.72445068 109.31425781 385.01408691 110.38901367 385.3125 111.49633789 C386.80128639 117.04477349 388.23912356 122.6013962 389.62231445 128.17700195 C390.59428087 131.8513721 391.61172613 135.51308174 392.62231445 139.17700195 C393.02210569 140.64052951 393.4218413 142.10407226 393.8215332 143.56762695 C396.29618173 152.78936471 396.29618173 152.78936471 399.24731445 161.86450195 C401.79241861 169.16531502 403.62231445 177.45980017 403.62231445 185.17700195 C404.28231445 185.17700195 404.94231445 185.17700195 405.62231445 185.17700195 C405.90204102 186.34231445 406.18176758 187.50762695 406.4699707 188.70825195 C408.74485923 198.05766612 411.19647992 207.32724231 413.93481445 216.55200195 C417.71455152 229.31365041 421.13830461 242.16113488 424.52807617 255.03100586 C425.70942209 259.51269238 426.90218731 263.99131733 428.0949707 268.4699707 C428.71474137 270.80001531 429.33427679 273.13012229 429.95367432 275.46026611 C430.35476596 276.96846924 430.75624925 278.47656827 431.15814209 279.98455811 C431.71930442 282.09128222 432.27847483 284.19852554 432.8371582 286.3059082 C433.1580542 287.5131958 433.4789502 288.7204834 433.80957031 289.96435547 C434.50001102 292.69355621 435.10340603 295.41090371 435.62231445 298.17700195 C437.03255334 295.54706734 437.96865382 293.18851639 438.55981445 290.2668457 C438.72690918 289.46561279 438.89400391 288.66437988 439.06616211 287.83886719 C439.24969238 286.93982666 439.43322266 286.04078613 439.62231445 285.11450195 C442.02347374 273.74758873 444.61167142 262.42895726 447.24731445 251.11450195 C447.45942566 250.20287292 447.67153687 249.2912439 447.89007568 248.35198975 C451.50537693 232.82654465 455.21874335 217.32538096 458.94815063 201.82702637 C462.420561 187.38143431 465.73022824 172.90753812 468.91577148 158.39624023 C470.95070997 149.13477135 473.08987413 139.90449442 475.33447266 130.69140625 C477.51642406 121.70582044 479.57388331 112.69372791 481.62231445 103.67700195 C483.91691651 93.57862315 486.24157046 83.49072231 488.68481445 73.42700195 C490.80086002 64.70825782 492.82039506 55.97018037 494.78808594 47.21697998 C495.24196389 45.20077016 495.69839052 43.18515314 496.15551758 41.16967773 C497.39246918 35.70326077 498.62258126 30.23884027 499.7434082 24.74731445 C501.66265128 15.52544358 503.56848311 7.58648524 511.70214844 2.09924316 C515.88306696 -0.23299731 519.48878874 -0.39025054 524.20043945 -0.34057617 C525.02902466 -0.34758545 525.85760986 -0.35459473 526.71130371 -0.36181641 C529.43198832 -0.37932533 532.1516205 -0.36779927 534.87231445 -0.35424805 C536.77368366 -0.35694501 538.67505151 -0.36082913 540.57641602 -0.36584473 C544.55408915 -0.37173015 548.53140207 -0.36320767 552.5090332 -0.34448242 C557.59666621 -0.32169347 562.68345506 -0.33482168 567.77105713 -0.35877228 C571.69513256 -0.37325612 575.61900927 -0.36861241 579.54309082 -0.35826111 C581.41849875 -0.35560097 583.29392497 -0.3588384 585.16931152 -0.36817932 C587.79475397 -0.37838768 590.418847 -0.36278482 593.04418945 -0.34057617 C593.81218872 -0.3486731 594.58018799 -0.35677002 595.37145996 -0.3651123 C600.87089776 -0.27933198 604.07802376 1.05228996 608.62231445 4.17700195 C613.95179088 10.33839665 613.46105563 16.9463851 612.90600586 24.65454102 C611.70372636 35.34468884 608.71143856 45.73435317 604.61254883 55.64355469 C602.94041559 59.92159378 601.72548409 64.31744143 600.49731445 68.73950195 C600.12026367 70.06111328 600.12026367 70.06111328 599.7355957 71.40942383 C598.58519545 75.49003207 597.51554482 79.55920553 596.6418457 83.70825195 C595.58080573 88.62855417 594.01966729 93.34187867 592.43481445 98.11450195 C589.01689308 108.61505067 586.10693046 119.21845396 583.2980957 129.89575195 C580.32450102 141.14747919 577.00141308 152.29172587 573.62231445 163.42700195 C569.24694379 177.92285991 565.07944323 192.47545363 560.93603516 207.0390625 C560.42913742 208.82072497 559.92222043 210.60238197 559.4152832 212.3840332 C559.04827049 213.67409523 559.04827049 213.67409523 558.67384338 214.99021912 C557.05357696 220.67952107 555.41384969 226.36275529 553.74853516 232.0390625 C553.28386841 233.62328003 553.28386841 233.62328003 552.80981445 235.23950195 C552.57508423 236.03959183 552.340354 236.8396817 552.09851074 237.66401672 C550.2277914 244.05908886 548.40522818 250.46614291 546.61450195 256.8840332 C546.17377098 258.46098465 546.17377098 258.46098465 545.72413635 260.0697937 C544.87917927 263.0937168 544.034818 266.11780569 543.19059372 269.14193344 C542.37802555 272.05182652 541.5646843 274.96150338 540.75140476 277.8711977 C538.41631595 286.22575055 536.08379758 294.58101732 533.75367069 302.93695545 C532.53346026 307.31251665 531.31251719 311.68787048 530.08984375 316.06274414 C528.64934962 321.21743334 527.21088715 326.37268521 525.7746582 331.52856445 C525.42873375 332.77032157 525.42873375 332.77032157 525.07582092 334.03716469 C522.10852772 344.70013737 519.22901694 355.38008415 516.47505188 366.10047913 C514.76801434 372.71535319 512.8458855 379.23764899 510.74731445 385.73950195 C508.496353 392.83172176 506.38151432 399.93221927 504.54418945 407.1418457 C504.37204926 407.81228409 504.19990906 408.48272247 504.02255249 409.17347717 C503.18911414 412.42863073 502.37473076 415.68579337 501.58764648 418.95263672 C499.32407032 427.8995277 496.61161343 436.80631654 488.62231445 442.17700195 C482.77963027 445.48785632 477.19353261 446.47415702 470.54077148 446.45166016 C469.35904358 446.45932655 469.35904358 446.45932655 468.15344238 446.46714783 C465.56225885 446.48098992 462.97134295 446.48009101 460.38012695 446.4777832 C458.56940615 446.48167333 456.75868625 446.48600865 454.94796753 446.49076843 C451.15693196 446.49821925 447.36598953 446.4979478 443.57495117 446.49267578 C438.73078862 446.48688522 433.88700892 446.50380768 429.04290962 446.52702045 C425.3041259 446.54179481 421.56543357 446.54262442 417.82662582 446.53951073 C416.04135251 446.54002216 414.25607385 446.54522634 412.47082901 446.55532265 C409.96785284 446.5677407 407.46561201 446.56086351 404.96264648 446.54931641 C404.2340744 446.55696014 403.50550232 446.56460388 402.75485229 446.57247925 C395.92964993 446.5033257 389.21927306 444.62769797 384.05981445 439.9309082 C377.85010885 432.35439239 375.19784883 422.43735028 372.62231445 413.17700195 C371.97243154 410.88489682 371.31903762 408.5938078 370.66552734 406.30273438 C370.16977962 404.5637249 369.6755252 402.82428916 369.18261719 401.08447266 C367.11627211 393.81893672 364.95213765 386.58494803 362.76712036 379.35430908 C358.83770885 366.34880336 355.07847396 353.30398488 351.46069336 340.20825195 C350.04534068 335.09089059 348.61554251 329.97758245 347.18481445 324.86450195 C346.89993164 323.84565918 346.61504883 322.82681641 346.3215332 321.77709961 C343.73845785 312.55615482 341.10550383 303.34968642 338.46679688 294.14453125 C336.6111281 287.66395098 334.78253301 281.17731071 332.99731445 274.67700195 C331.05614503 267.61872372 328.98244909 260.60431831 326.85229492 253.60083008 C323.95533103 244.0583639 321.26658197 234.45617135 318.55200195 224.8605957 C318.21297852 223.66499023 317.87395508 222.46938477 317.5246582 221.23754883 C316.82995378 218.78759312 316.13730059 216.33705499 315.4465332 213.88598633 C315.11008789 212.70198242 314.77364258 211.51797852 314.42700195 210.2980957 C314.12777832 209.24033936 313.82855469 208.18258301 313.52026367 207.09277344 C312.67826731 204.21547042 312.67826731 204.21547042 311.60864258 201.65185547 C310.53277623 198.95233637 309.77410103 196.26871739 309.03637695 193.45825195 C308.74722412 192.36689941 308.45807129 191.27554688 308.16015625 190.15112305 C307.85891846 189.00466309 307.55768066 187.85820313 307.24731445 186.67700195 C305.10836747 178.62117001 302.90908083 170.61748945 300.3996582 162.66918945 C298.79828581 157.53514129 297.28234283 152.61654798 297.62231445 147.17700195 C296.96231445 147.17700195 296.30231445 147.17700195 295.62231445 147.17700195 C295.54239258 148.35133789 295.4624707 149.52567383 295.38012695 150.7355957 C294.59329495 157.76362303 292.46119778 164.470748 290.49731445 171.23950195 C290.08666351 172.67455858 289.67659591 174.10978226 289.26708984 175.54516602 C288.06233469 179.75874363 286.84420222 183.96836532 285.62231445 188.17700195 C285.2989209 189.29252441 284.97552734 190.40804687 284.64233398 191.55737305 C283.22513076 196.43798797 281.7991176 201.3159565 280.3684082 206.19262695 C278.07370186 214.03101919 275.84364015 221.88782591 273.60693359 229.74291992 C271.43641593 237.35576488 269.2284813 244.95673813 266.99731445 252.55200195 C264.78325636 260.092086 262.6608875 267.65016446 260.62231445 275.23950195 C258.66087732 282.53791799 256.55051852 289.77214324 254.30981445 296.98950195 C250.9730035 307.75745075 247.99356077 318.61360768 245.08203125 329.50244141 C242.66107386 338.52898687 240.08415506 347.5034274 237.45205688 356.47062683 C235.12412842 364.41656863 232.8586447 372.37890263 230.61450195 380.34887695 C229.93106049 382.76819081 229.2474661 385.18746148 228.5637207 387.60668945 C227.52239392 391.29153602 226.48333011 394.97694882 225.45092773 398.66430664 C224.42899168 402.31114067 223.39757129 405.95518338 222.36450195 409.59887695 C222.06228729 410.68658386 221.76007263 411.77429077 221.44869995 412.8949585 C214.4896049 437.29928188 214.4896049 437.29928188 203.49731445 444.11450195 C198.24924256 446.05400678 193.31705598 446.32957298 187.76196289 446.33813477 C186.98565018 446.34309967 186.20933746 446.34806458 185.40950012 446.35317993 C182.85022075 446.36774202 180.29100339 446.374594 177.73168945 446.38012695 C175.94435628 446.3858838 174.15702311 446.39164146 172.36968994 446.3973999 C168.62397984 446.40789331 164.87829109 446.41374667 161.13256836 446.41723633 C156.35015445 446.42271412 151.56802623 446.44673387 146.78570175 446.47520828 C143.09321284 446.49390083 139.4007918 446.4990438 135.70825958 446.5005722 C133.94613332 446.5035849 132.18400787 446.51156633 130.42192841 446.52475739 C111.03535145 446.65951526 111.03535145 446.65951526 103.38793945 441.73950195 C95.37441697 433.47813857 92.69012202 422.71932561 90.05981445 411.80200195 C88.10161863 403.8420041 85.99995757 395.98624232 83.54394531 388.16430664 C82.30098355 384.13546422 81.22535874 380.07446557 80.18481445 375.98950195 C78.5105159 369.45550652 76.73551009 362.952222 74.92370605 356.45523071 C72.86336866 349.06048883 70.82601253 341.6594889 68.79169273 334.25755882 C68.18372425 332.04554173 67.57551698 329.83359043 66.96723938 327.62165833 C65.28350583 321.4987627 63.5998219 315.37585387 61.91796875 309.25244141 C57.42826627 292.90735654 52.93052511 276.56642768 48.22897339 260.28067017 C47.31230876 257.10201718 46.40501777 253.92072561 45.49731445 250.73950195 C45.18681152 249.6527417 44.87630859 248.56598145 44.55639648 247.44628906 C42.41430664 239.94897461 40.2722168 232.45166016 38.13012695 224.9543457 C37.90091553 224.152146 37.6717041 223.34994629 37.43554688 222.5234375 C36.9720822 220.90122893 36.50870499 219.27899537 36.04541016 217.65673828 C34.68227401 212.88418668 33.3175835 208.11208428 31.95106506 203.34049988 C31.11910106 200.43508747 30.28764802 197.529529 29.45632935 194.62393188 C29.0257038 193.11898859 28.59493826 191.61408535 28.16403198 190.10922241 C25.80213264 181.85877346 23.4552513 173.60462726 21.15356445 165.3371582 C20.95475174 164.6244426 20.75593903 163.91172699 20.55110168 163.17741394 C19.6140949 159.81807807 18.68053649 156.4579247 17.75390625 153.09570312 C16.01316092 146.84550379 14.15850672 140.66365982 12.07543945 134.52075195 C9.88178417 128.04204165 7.97085481 121.52795855 6.18481445 114.92700195 C3.88658845 106.56306943 1.43560736 98.27931463 -1.23974609 90.02905273 C-3.3168484 83.54905398 -5.07290326 77.00316642 -6.72973633 70.40405273 C-7.7125583 66.52245338 -8.81212022 62.8732952 -10.37768555 59.17700195 C-13.42111207 49.97635414 -15.85636571 40.53285762 -18.37768555 31.17700195 C-18.56089355 30.50636719 -18.74410156 29.83573242 -18.93286133 29.14477539 C-19.63528004 26.03747857 -19.58961439 22.9809437 -19.62768555 19.80200195 C-19.6534668 18.51551758 -19.67924805 17.2290332 -19.70581055 15.90356445 C-19.29598168 11.24907952 -18.05007044 7.96853895 -14.8425293 4.5324707 C-9.55891064 0.49205644 -6.53548898 0.02134292 0 0 Z " fill="#FC6719" transform="translate(297.377685546875,414.822998046875)"/>
<path d="M0 0 C0.66 0.99 1.32 1.98 2 3 C0.98679687 3.99580078 0.98679687 3.99580078 -0.046875 5.01171875 C-0.93890625 5.89472656 -1.8309375 6.77773437 -2.75 7.6875 C-3.63171875 8.55761719 -4.5134375 9.42773438 -5.421875 10.32421875 C-8.02751962 12.93295144 -8.02751962 12.93295144 -10.15625 15.78125 C-12 18 -12 18 -14.75 18.8125 C-15.4925 18.874375 -16.235 18.93625 -17 19 C-11.52509066 12.489297 -5.76776422 6.25012173 0 0 Z " fill="#3571C4" transform="translate(113,244)"/>
<path d="M0 0 C0.99 0.33 1.98 0.66 3 1 C3.81542969 2.70239258 3.81542969 2.70239258 4.421875 4.89453125 C4.64230469 5.68537109 4.86273438 6.47621094 5.08984375 7.29101562 C5.30769531 8.12310547 5.52554687 8.95519531 5.75 9.8125 C5.98332031 10.63298828 6.21664063 11.45347656 6.45703125 12.29882812 C8.27742018 19.01900643 8.27742018 19.01900643 7 23 C7 22.01 7 21.02 7 20 C6.34 20 5.68 20 5 20 C4.15960114 17.41877492 3.32749444 14.83536099 2.5 12.25 C2.26152344 11.52039063 2.02304687 10.79078125 1.77734375 10.0390625 C1.55175781 9.33007812 1.32617188 8.62109375 1.09375 7.890625 C0.88427734 7.24125977 0.67480469 6.59189453 0.45898438 5.92285156 C0 4 0 4 0 0 Z " fill="#4FD6DD" transform="translate(325,608)"/>
<path d="M0 0 C0.99 0.99 1.98 1.98 3 3 C2.46890625 3.45890625 1.9378125 3.9178125 1.390625 4.390625 C-2.18324699 7.49493717 -5.71854059 10.58181312 -9 14 C-9.33 13.01 -9.66 12.02 -10 11 C-8.52116808 9.35386588 -7.04192523 7.70810092 -5.5625 6.0625 C-4.73878906 5.14597656 -3.91507812 4.22945313 -3.06640625 3.28515625 C-1 1 -1 1 0 0 Z " fill="#2C6CC4" transform="translate(75,285)"/>
<path d="M0 0 C0.99 0 1.98 0 3 0 C2.28836912 2.37210295 1.57547006 4.74369946 0.85546875 7.11328125 C0.29046474 9.0198473 -0.24918706 10.934132 -0.76171875 12.85546875 C-1.00535156 13.74878906 -1.24898437 14.64210938 -1.5 15.5625 C-1.82484375 16.80193359 -1.82484375 16.80193359 -2.15625 18.06640625 C-2.4346875 18.70449219 -2.713125 19.34257813 -3 20 C-3.99 20.33 -4.98 20.66 -6 21 C-4.11380178 13.96354423 -2.13072305 6.96640656 0 0 Z " fill="#65D0D9" transform="translate(809,795)"/>
<path d="M0 0 C1.83163866 3.38148676 3.0244087 6.83857179 4.1875 10.5 C4.55230469 11.6240625 4.91710937 12.748125 5.29296875 13.90625 C5.96644123 16.85315722 6.06533987 18.23147346 5 21 C4.34 20.67 3.68 20.34 3 20 C2.5859375 17.05859375 2.5859375 17.05859375 2.375 13.4375 C2.30023438 12.23996094 2.22546875 11.04242187 2.1484375 9.80859375 C2.09945313 8.88175781 2.05046875 7.95492187 2 7 C1.34 7 0.68 7 0 7 C-1.125 2.25 -1.125 2.25 0 0 Z " fill="#54D7E2" transform="translate(380,800)"/>
<path d="M0 0 C0.33 0 0.66 0 1 0 C1.33801152 2.54112232 1.67053379 5.08276746 2 7.625 C2.09539062 8.33785156 2.19078125 9.05070312 2.2890625 9.78515625 C2.81606101 13.88821609 3.10466984 17.85245742 3 22 C1 21 1 21 -0.1484375 18.95703125 C-1.25523253 15.11371089 -0.97585906 11.61361283 -0.625 7.6875 C-0.56828125 6.94693359 -0.5115625 6.20636719 -0.453125 5.44335938 C-0.31258589 3.62806257 -0.15772905 1.81388403 0 0 Z " fill="#4BDAE9" transform="translate(277,430)"/>
<path d="M0 0 C0.99 0.33 1.98 0.66 3 1 C3.984375 3.546875 3.984375 3.546875 4.75 6.75 C5.01296875 7.79671875 5.2759375 8.8434375 5.546875 9.921875 C5.99727021 12.98145625 5.8108453 15.0415104 5 18 C4.67 18 4.34 18 4 18 C2.68 12.06 1.36 6.12 0 0 Z " fill="#51D9E5" transform="translate(433,600)"/>
<path d="M0 0 C1.23922223 3.71766668 0.57018942 5.43889537 -0.4375 9.1875 C-0.72496094 10.27417969 -1.01242187 11.36085938 -1.30859375 12.48046875 C-1.53675781 13.31191406 -1.76492188 14.14335938 -2 15 C-4 13 -4 13 -4.125 9.875 C-4.08375 8.92625 -4.0425 7.9775 -4 7 C-3.34 7 -2.68 7 -2 7 C-1.855625 6.030625 -1.71125 5.06125 -1.5625 4.0625 C-1 1 -1 1 0 0 Z " fill="#49D5E7" transform="translate(736,700)"/>
<path d="M0 0 C0.66 0.99 1.32 1.98 2 3 C-0.31 5.31 -2.62 7.62 -5 10 C-5.66 9.67 -6.32 9.34 -7 9 C-5.44499019 5.18315774 -2.96404505 2.80804268 0 0 Z " fill="#3F78C6" transform="translate(113,244)"/>
<path d="M0 0 C2.20665404 3.30998105 2.78262095 5.82021436 3.625 9.6875 C3.88539063 10.86699219 4.14578125 12.04648437 4.4140625 13.26171875 C4.60742188 14.16535156 4.80078125 15.06898438 5 16 C1.17374434 13.60476396 1.17374434 13.60476396 0.390625 10.87890625 C0.34421875 10.11449219 0.2978125 9.35007812 0.25 8.5625 C0.19328125 7.80066406 0.1365625 7.03882813 0.078125 6.25390625 C0.00590501 4.17035945 0 2.08479807 0 0 Z " fill="#6CCBCB" transform="translate(317,575)"/>
<path d="M0 0 C0.33 1.32 0.66 2.64 1 4 C-1.31 5.98 -3.62 7.96 -6 10 C-6 6 -6 6 -4.6875 4.296875 C-4.130625 3.78640625 -3.57375 3.2759375 -3 2.75 C-2.1646875 1.96882813 -2.1646875 1.96882813 -1.3125 1.171875 C-0.879375 0.78515625 -0.44625 0.3984375 0 0 Z " fill="#3E79C9" transform="translate(291,52)"/>
<path d="M0 0 C2 3 2 3 1.5390625 5.91796875 C1.23742187 6.99691406 0.93578125 8.07585938 0.625 9.1875 C0.32851563 10.27417969 0.03203125 11.36085938 -0.2734375 12.48046875 C-0.51320313 13.31191406 -0.75296875 14.14335938 -1 15 C-1.66 14.67 -2.32 14.34 -3 14 C-2.69024532 12.22868439 -2.37709575 10.45796222 -2.0625 8.6875 C-1.88847656 7.70136719 -1.71445312 6.71523438 -1.53515625 5.69921875 C-1 3 -1 3 0 0 Z " fill="#5FD4E4" transform="translate(800,826)"/>
<path d="M0 0 C0.66 0 1.32 0 2 0 C2.99 4.29 3.98 8.58 5 13 C0.01754386 8.01754386 0.01754386 8.01754386 -0.0625 3.375 C-0.041875 2.26125 -0.02125 1.1475 0 0 Z " fill="#4ADAE2" transform="translate(358,723)"/>
<path d="M0 0 C0.33 0.99 0.66 1.98 1 3 C0.67 3.66 0.34 4.32 0 5 C-0.66 5 -1.32 5 -2 5 C-2.33 10.61 -2.66 16.22 -3 22 C-3.33 22 -3.66 22 -4 22 C-4.0816082 19.62429457 -4.14077222 17.25144159 -4.1875 14.875 C-4.22520508 13.87726563 -4.22520508 13.87726563 -4.26367188 12.859375 C-4.33325581 8.1276675 -3.43536103 5.03644221 -1 1 C-0.67 0.67 -0.34 0.34 0 0 Z " fill="#CE864D" transform="translate(282,420)"/>
<path d="M0 0 C0.33 0 0.66 0 1 0 C0.85769192 1.41702513 0.71099254 2.8336096 0.5625 4.25 C0.48128906 5.03890625 0.40007812 5.8278125 0.31640625 6.640625 C0.02365007 8.82364639 -0.42064419 10.8773182 -1 13 C-1.99 13 -2.98 13 -4 13 C-3.40895235 8.15340923 -2.02055843 4.39251833 0 0 Z " fill="#40E3F5" transform="translate(476,648)"/>
<path d="M0 0 C2 3 2 3 1.609375 5.8828125 C1.32578125 6.95273437 1.0421875 8.02265625 0.75 9.125 C0.47671875 10.20007813 0.2034375 11.27515625 -0.078125 12.3828125 C-1 15 -1 15 -3 16 C-2.40984815 10.49191603 -1.43336231 5.35121931 0 0 Z " fill="#E3732E" transform="translate(759,605)"/>
<path d="M0 0 C0.99 0.495 0.99 0.495 2 1 C2 2.65 2 4.3 2 6 C2.66 6 3.32 6 4 6 C4 9.96 4 13.92 4 18 C3.67 18 3.34 18 3 18 C2.49645133 15.56318413 1.99703244 13.12564561 1.5 10.6875 C1.35691406 9.99720703 1.21382812 9.30691406 1.06640625 8.59570312 C0.47374956 5.67475227 0 2.98891878 0 0 Z " fill="#5F8BCC" transform="translate(25,527)"/>
<path d="M0 0 C2.20665404 3.30998105 2.78262095 5.82021436 3.625 9.6875 C3.88539063 10.86699219 4.14578125 12.04648437 4.4140625 13.26171875 C4.60742188 14.16535156 4.80078125 15.06898438 5 16 C1.17374434 13.60476396 1.17374434 13.60476396 0.390625 10.87890625 C0.34421875 10.11449219 0.2978125 9.35007812 0.25 8.5625 C0.19328125 7.80066406 0.1365625 7.03882813 0.078125 6.25390625 C0.00590501 4.17035945 0 2.08479807 0 0 Z " fill="#73C4C2" transform="translate(289,479)"/>
<path d="M0 0 C0.66 0.33 1.32 0.66 2 1 C1.86722656 1.59167969 1.73445312 2.18335938 1.59765625 2.79296875 C0.68994822 6.85446525 -0.2091113 10.91374171 -1 15 C-3 12 -3 12 -2.5390625 9.08203125 C-2.23742187 8.00308594 -1.93578125 6.92414063 -1.625 5.8125 C-1.32851563 4.72582031 -1.03203125 3.63914062 -0.7265625 2.51953125 C-0.48679687 1.68808594 -0.24703125 0.85664063 0 0 Z " fill="#45DCE5" transform="translate(522,480)"/>
<path d="M0 0 C0.14824219 0.6084375 0.29648437 1.216875 0.44921875 1.84375 C0.84946704 3.41067947 1.3126335 4.96194924 1.8125 6.5 C2 9 2 9 0.0625 11.3125 C-0.618125 11.869375 -1.29875 12.42625 -2 13 C-3.18414294 9.44757118 -2.69535532 8.30169438 -1.5625 4.8125 C-1.27503906 3.91144531 -0.98757813 3.01039063 -0.69140625 2.08203125 C-0.46324219 1.39496094 -0.23507812 0.70789063 0 0 Z " fill="#66CEDA" transform="translate(829,722)"/>
<path d="M0 0 C1.125 1.5 1.125 1.5 2 4 C1.57598348 6.7773082 0.81108065 9.29639783 0 12 C-0.66 12 -1.32 12 -2 12 C-2.33 12.66 -2.66 13.32 -3 14 C-2.69024532 12.22868439 -2.37709575 10.45796222 -2.0625 8.6875 C-1.88847656 7.70136719 -1.71445312 6.71523438 -1.53515625 5.69921875 C-1 3 -1 3 0 0 Z " fill="#F67123" transform="translate(848,646)"/>
<path d="M0 0 C0.99 0.33 1.98 0.66 3 1 C3.73046875 2.7421875 3.73046875 2.7421875 4.1875 4.875 C4.34605469 5.57367187 4.50460937 6.27234375 4.66796875 6.9921875 C5 9 5 9 5 12 C4.34 12 3.68 12 3 12 C2.49440092 10.56445975 1.9957251 9.1264798 1.5 7.6875 C1.2215625 6.88699219 0.943125 6.08648438 0.65625 5.26171875 C0 3 0 3 0 0 Z " fill="#EA7A39" transform="translate(428,588)"/>
<path d="M0 0 C0.66 0 1.32 0 2 0 C2.66 3.3 3.32 6.6 4 10 C3.01 10.495 3.01 10.495 2 11 C0.57741188 7.17679443 -0.24042276 4.08718695 0 0 Z " fill="#4CD8E2" transform="translate(640,727)"/>
<path d="M0 0 C0.99 1.32 1.98 2.64 3 4 C2.01 5.98 1.02 7.96 0 10 C-0.66 10 -1.32 10 -2 10 C-1.34 6.7 -0.68 3.4 0 0 Z " fill="#53D9E9" transform="translate(548,721)"/>
<path d="M0 0 C2.76223278 2.76223278 2.57856291 5.20706617 3 9 C2.01 9.33 1.02 9.66 0 10 C-1.125 3.375 -1.125 3.375 0 0 Z " fill="#59DBEC" transform="translate(707,610)"/>
<path d="M0 0 C2 3 2 3 1.625 6.1875 C1.41875 7.115625 1.2125 8.04375 1 9 C0.01 9 -0.98 9 -2 9 C-1.125 2.25 -1.125 2.25 0 0 Z " fill="#50DAEE" transform="translate(486,608)"/>
<path d="M0 0 C0.33 0.66 0.66 1.32 1 2 C1.99 2.33 2.98 2.66 4 3 C4.625 6.375 4.625 6.375 5 10 C4.34 10.66 3.68 11.32 3 12 C2.49166409 10.75336669 1.99368855 9.50250613 1.5 8.25 C1.2215625 7.55390625 0.943125 6.8578125 0.65625 6.140625 C0 4 0 4 0 0 Z " fill="#63CFDA" transform="translate(688,548)"/>
<path d="M0 0 C0.33 0 0.66 0 1 0 C0.88541307 1.43836751 0.75790884 2.87570966 0.625 4.3125 C0.55539062 5.11300781 0.48578125 5.91351562 0.4140625 6.73828125 C0 9 0 9 -2 12 C-2 10.68 -2 9.36 -2 8 C-2.66 7.67 -3.32 7.34 -4 7 C-3.67 6.34 -3.34 5.68 -3 5 C-2.34 5 -1.68 5 -1 5 C-0.67 3.35 -0.34 1.7 0 0 Z " fill="#54DBE9" transform="translate(510,526)"/>
<path d="M0 0 C0.99 0.99 1.98 1.98 3 3 C1.25 4.5625 1.25 4.5625 -1 6 C-3.25 5.6875 -3.25 5.6875 -5 5 C-3.35 3.35 -1.7 1.7 0 0 Z " fill="#3974C7" transform="translate(75,285)"/>
<path d="M0 0 C0.66 0.33 1.32 0.66 2 1 C-1.96 2.98 -5.92 4.96 -10 7 C-10.66 6.34 -11.32 5.68 -12 5 C-10.04578965 4.13644222 -8.08648653 3.28440066 -6.125 2.4375 C-5.03445313 1.96183594 -3.94390625 1.48617188 -2.8203125 0.99609375 C-1.88960938 0.66738281 -0.95890625 0.33867188 0 0 Z " fill="#5B8CCF" transform="translate(350,4)"/>
<path d="M0 0 C0.99 0 1.98 0 3 0 C2.01 3.3 1.02 6.6 0 10 C-0.66 10 -1.32 10 -2 10 C-1.125 2.25 -1.125 2.25 0 0 Z " fill="#61D7ED" transform="translate(809,795)"/>
<path d="M0 0 C1.90318884 2.85478326 2.4619099 4.41941308 3.125 7.6875 C3.29257812 8.49574219 3.46015625 9.30398438 3.6328125 10.13671875 C3.75398437 10.75160156 3.87515625 11.36648438 4 12 C3.01 11.67 2.02 11.34 1 11 C-0.28317892 7.15046324 -0.06643637 4.05261865 0 0 Z " fill="#60D0D0" transform="translate(633,699)"/>
<path d="M0 0 C1.88391785 3.26545761 2.49287967 6.28111761 3 10 C2.01 10.33 1.02 10.66 0 11 C-1.35015859 6.94952424 -0.62084998 4.2079832 0 0 Z " fill="#5FD2E3" transform="translate(612,626)"/>
<path d="M0 0 C0.66 0 1.32 0 2 0 C1.67 3.3 1.34 6.6 1 10 C0.01 8.68 -0.98 7.36 -2 6 C-1.1875 2.75 -1.1875 2.75 0 0 Z " fill="#F6721D" transform="translate(591,561)"/>
<path d="M0 0 C0.33 0.66 0.66 1.32 1 2 C1.66 2 2.32 2 3 2 C3 5.63 3 9.26 3 13 C1.26315467 9.52630934 0.69915888 7.92380063 0.375 4.25 C0.30023437 3.45078125 0.22546875 2.6515625 0.1484375 1.828125 C0.09945313 1.22484375 0.05046875 0.6215625 0 0 Z " fill="#5986CC" transform="translate(29,545)"/>
<path d="M0 0 C4.05606165 0.46800711 7.46588679 0.87953208 11 3 C8.36 3.33 5.72 3.66 3 4 C2.67 3.01 2.34 2.02 2 1 C1.34 0.67 0.68 0.34 0 0 Z " fill="#5889CF" transform="translate(804,113)"/>
<path d="M0 0 C0.66 0.66 1.32 1.32 2 2 C-2.75 6.875 -2.75 6.875 -5 8 C-5.66 7.34 -6.32 6.68 -7 6 C-6.21625 5.566875 -5.4325 5.13375 -4.625 4.6875 C-1.78301625 3.10779753 -1.78301625 3.10779753 0 0 Z " fill="#F1732A" transform="translate(790,849)"/>
<path d="M0 0 C0.99 0.33 1.98 0.66 3 1 C2.67 3.31 2.34 5.62 2 8 C1.01 7.67 0.02 7.34 -1 7 C-0.67 4.69 -0.34 2.38 0 0 Z " fill="#EF7632" transform="translate(517,819)"/>
<path d="M0 0 C0.99 0.33 1.98 0.66 3 1 C3 4.63 3 8.26 3 12 C0.8008587 7.60171741 0.48144941 4.81449408 0 0 Z " fill="#6490CC" transform="translate(42,607)"/>
<path d="M0 0 C2.78637633 4.1795645 1.79562512 6.14668677 1 11 C0.01 10.67 -0.98 10.34 -2 10 C-1.54177532 6.53058454 -1.10868317 3.32604951 0 0 Z " fill="#6DCACC" transform="translate(887,519)"/>
<path d="M0 0 C0.66 0.33 1.32 0.66 2 1 C0.35 2.98 -1.3 4.96 -3 7 C-3.99 6.34 -4.98 5.68 -6 5 C-4.02 3.35 -2.04 1.7 0 0 Z " fill="#E37D36" transform="translate(810,416)"/>
<path d="M0 0 C1.99097846 2.98646769 2.94124926 5.59687262 4 9 C3.01 9.495 3.01 9.495 2 10 C-1.07692308 4.58461538 -1.07692308 4.58461538 -0.6875 1.625 C-0.460625 1.08875 -0.23375 0.5525 0 0 Z " fill="#4DDAE5" transform="translate(391,840)"/>
<path d="M0 0 C0.33 0.99 0.66 1.98 1 3 C-0.4375 5.6875 -0.4375 5.6875 -2 8 C-3.32 7.67 -4.64 7.34 -6 7 C-4.02 4.69 -2.04 2.38 0 0 Z " fill="#3E76C6" transform="translate(82,277)"/>
<path d="M0 0 C0.99 0 1.98 0 3 0 C2.34 2.97 1.68 5.94 1 9 C0.34 7.68 -0.32 6.36 -1 5 C-0.67 4.67 -0.34 4.34 0 4 C-0.33 3.01 -0.66 2.02 -1 1 C-0.67 0.67 -0.34 0.34 0 0 Z " fill="#EB7733" transform="translate(549,708)"/>
<path d="M0 0 C2.2344598 4.03292745 2.54496743 7.44967434 3 12 C0.89366282 10.29171079 0.06198392 9.47851584 -0.29296875 6.73828125 C-0.25816406 5.93777344 -0.22335937 5.13726563 -0.1875 4.3125 C-0.16042969 3.50425781 -0.13335938 2.69601562 -0.10546875 1.86328125 C-0.07066406 1.24839844 -0.03585937 0.63351562 0 0 Z " fill="#5BADCC" transform="translate(1166,680)"/>
<path d="M0 0 C2.02350324 3.03525486 2.32124018 4.19426202 2.625 7.6875 C2.69976562 8.49574219 2.77453125 9.30398438 2.8515625 10.13671875 C2.90054687 10.75160156 2.94953125 11.36648438 3 12 C1 11 1 11 0.33203125 9.00390625 C0.16058594 8.19824219 -0.01085937 7.39257812 -0.1875 6.5625 C-0.36667969 5.75941406 -0.54585938 4.95632813 -0.73046875 4.12890625 C-1 2 -1 2 0 0 Z " fill="#3BE4F5" transform="translate(335,640)"/>
<path d="M0 0 C2.02350324 3.03525486 2.32124018 4.19426202 2.625 7.6875 C2.69976563 8.49574219 2.77453125 9.30398438 2.8515625 10.13671875 C2.90054688 10.75160156 2.94953125 11.36648438 3 12 C2.01 11.34 1.02 10.68 0 10 C-0.29296875 7.6171875 -0.29296875 7.6171875 -0.1875 4.875 C-0.16042969 3.96492187 -0.13335938 3.05484375 -0.10546875 2.1171875 C-0.07066406 1.41851563 -0.03585937 0.71984375 0 0 Z " fill="#78C9CA" transform="translate(668,820)"/>
<path d="M0 0 C0.99 0 1.98 0 3 0 C2.34 3.3 1.68 6.6 1 10 C0.34 8.68 -0.32 7.36 -1 6 C-0.34 6 0.32 6 1 6 C0.67 4.02 0.34 2.04 0 0 Z " fill="#E67F3D" transform="translate(525,792)"/>
<path d="M0 0 C2.12046792 3.53411321 2.53199289 6.94393835 3 11 C2.67 10.01 2.34 9.02 2 8 C1.34 8 0.68 8 0 8 C-0.79953138 4.71303767 -1.09658936 3.28976808 0 0 Z " fill="#6ACDD1" transform="translate(330,620)"/>
<path d="M0 0 C0.185625 0.9590625 0.185625 0.9590625 0.375 1.9375 C0.684375 2.9584375 0.684375 2.9584375 1 4 C1.66 4.33 2.32 4.66 3 5 C1.35 6.65 -0.3 8.3 -2 10 C-1.46274105 6.62294375 -0.88935377 3.303314 0 0 Z " fill="#69C8D2" transform="translate(860,613)"/>
<path d="M0 0 C3.00617269 3.00617269 2.59585316 5.82381598 3 10 C1.5 8.9375 1.5 8.9375 0 7 C-0.1875 3.3125 -0.1875 3.3125 0 0 Z " fill="#35E2F4" transform="translate(607,612)"/>
<path d="M0 0 C0.89674777 2.51089376 1.13172674 3.64535109 0.1875 6.1875 C-1 8 -1 8 -3 9 C-2.5020163 5.26512223 -2.12508244 3.18762365 0 0 Z " fill="#5ED4DE" transform="translate(872,576)"/>
<path d="M0 0 C0.99 0.33 1.98 0.66 3 1 C2.67 3.31 2.34 5.62 2 8 C1.67 7.01 1.34 6.02 1 5 C0.34 5 -0.32 5 -1 5 C-0.67 3.35 -0.34 1.7 0 0 Z " fill="#4FDBE8" transform="translate(497,567)"/>
<path d="M0 0 C3 2 3 2 3.8125 4.375 C4 7 4 7 2 11 C1.34 7.37 0.68 3.74 0 0 Z " fill="#5BD2E1" transform="translate(416,528)"/>
<path d="M0 0 C0.33 0.66 0.66 1.32 1 2 C1.99 2.33 2.98 2.66 4 3 C3.67 4.98 3.34 6.96 3 9 C0.87491756 5.81237635 0.4979837 3.73487777 0 0 Z " fill="#58D0DE" transform="translate(665,464)"/>
<path d="M0 0 C0.99 0.33 1.98 0.66 3 1 C3 2.65 3 4.3 3 6 C1.68 6 0.36 6 -1 6 C-0.67 4.02 -0.34 2.04 0 0 Z " fill="#61D7F0" transform="translate(528,791)"/>
<path d="M0 0 C0.33 0 0.66 0 1 0 C0.67 2.97 0.34 5.94 0 9 C-2 7 -2 7 -2.25 4.5 C-2 2 -2 2 0 0 Z " fill="#33DEF7" transform="translate(461,704)"/>
<path d="M0 0 C1.23666047 3.57257469 0.89093449 6.35526801 0 10 C-0.99 10.495 -0.99 10.495 -2 11 C-1.125 3.375 -1.125 3.375 0 0 Z " fill="#6CCBD7" transform="translate(836,697)"/>
<path d="M0 0 C0.66666667 2.66666667 1.33333333 5.33333333 2 8 C1.34 8 0.68 8 0 8 C-0.66 8.66 -1.32 9.32 -2 10 C-1.54177532 6.53058454 -1.10868317 3.32604951 0 0 Z " fill="#73C5CD" transform="translate(844,669)"/>
<path d="M0 0 C2 2 2 2 2 6 C0.35 6 -1.3 6 -3 6 C-3 5.34 -3 4.68 -3 4 C-2.34 3.67 -1.68 3.34 -1 3 C-0.67 2.01 -0.34 1.02 0 0 Z " fill="#0854AD" transform="translate(963,243)"/>
<path d="" fill="#EAEBEA" transform="translate(0,0)"/>
<path d="" fill="#E9E9EB" transform="translate(0,0)"/>
<path d="" fill="#E9E9EA" transform="translate(0,0)"/>
</svg>
