<?xml version="1.0" encoding="UTF-8"?>
<!-- Generator: visioncortex VTracer 0.6.12 -->
<svg version="1.1" xmlns="http://www.w3.org/2000/svg" width="1254" height="1254">
<path d="M0 0 C3.314 1.049 6.632 2.086 9.952 3.12 C13.497 4.225 17.043 5.331 20.587 6.44 C34.397 10.761 48.237 14.983 62.078 19.202 C64.595 19.97 67.113 20.738 69.63 21.507 C80.28 24.755 90.933 27.993 101.61 31.155 C102.024 31.277 102.024 31.277 104.118 31.898 C107.753 32.973 111.389 34.043 115.027 35.103 C123.587 37.61 132.077 40.306 140.563 43.053 C156.058 48.066 171.632 52.807 187.219 57.525 C193.334 59.377 199.447 61.235 205.56 63.091 C207.81 63.774 210.061 64.457 212.311 65.14 C223.534 68.548 234.747 71.988 245.953 75.452 C257.845 79.126 269.755 82.737 281.68 86.303 C284.224 87.064 286.768 87.827 289.311 88.591 C290.128 88.837 290.945 89.082 291.787 89.335 C293.407 89.822 295.028 90.308 296.648 90.795 C301.128 92.14 305.611 93.472 310.098 94.792 C312.102 95.384 314.104 95.983 316.105 96.584 C318.475 97.295 320.847 97.997 323.223 98.685 C341.298 104.168 354.702 113.865 364.043 130.366 C368.987 140.11 371.286 150.4 373.752 160.986 C374.53 164.263 375.359 167.524 376.2 170.786 C378.65 180.424 380.909 189.656 381.262 199.62 C382.096 214.57 382.096 214.57 386.895 220.366 C400.093 231.885 423.936 234.343 440.457 238.134 C447.415 239.785 454.245 241.855 461.078 243.952 C462.24 244.296 463.401 244.641 464.598 244.996 C485.482 251.308 501.661 261.983 512.391 281.577 C514.319 285.811 515.714 290.148 517.011 294.607 C517.228 295.351 517.445 296.095 517.669 296.861 C520.034 305.083 522.018 313.386 523.969 321.713 C524.366 323.392 524.763 325.07 525.161 326.748 C526.2 331.14 527.234 335.533 528.267 339.927 C529.288 344.266 530.314 348.604 531.34 352.942 C532.97 359.838 534.597 366.735 536.222 373.632 C538.592 383.69 540.973 393.745 543.356 403.799 C545.889 414.49 548.42 425.181 550.942 435.874 C556.051 457.534 561.182 479.19 566.391 500.827 C573.022 528.379 579.522 555.961 586.023 583.544 C588.869 595.617 591.717 607.689 594.567 619.76 C596.008 625.864 597.449 631.968 598.89 638.072 C600.064 643.043 601.237 648.015 602.411 652.986 C603.518 657.674 604.624 662.361 605.73 667.049 C606.137 668.774 606.545 670.499 606.952 672.224 C608.185 677.445 609.415 682.667 610.641 687.889 C610.791 688.526 610.791 688.526 611.549 691.751 C611.818 692.907 612.088 694.063 612.366 695.254 C612.482 695.75 612.482 695.75 613.068 698.258 C617.171 717.111 614.79 737.842 605.043 754.643 C601.648 759.709 597.777 764.023 593.34 768.198 C591.641 769.889 591.641 769.889 589.641 772.889 C588.981 772.889 588.321 772.889 587.641 772.889 C587.513 773.18 587.513 773.18 586.866 774.651 C585.518 777.114 584.032 778.732 582.037 780.705 C581.299 781.439 580.561 782.174 579.8 782.931 C579.001 783.716 578.202 784.502 577.379 785.311 C576.967 785.721 576.967 785.721 574.882 787.792 C572.244 790.413 569.599 793.026 566.953 795.639 C564.326 798.239 561.701 800.839 559.078 803.443 C557.447 805.062 555.813 806.679 554.176 808.292 C550.832 811.607 547.56 814.923 544.513 818.515 C539.307 824.562 533.547 830.092 527.892 835.714 C525.728 837.865 523.567 840.019 521.407 842.174 C516.044 847.523 510.676 852.867 505.309 858.211 C500.762 862.738 496.218 867.266 491.676 871.798 C489.559 873.909 487.438 876.017 485.317 878.125 C473.54 889.861 473.54 889.861 469.04 895.469 C467.641 896.889 467.641 896.889 465.527 897.901 C463.641 898.889 463.641 898.889 462.641 901.889 C461.981 901.889 461.321 901.889 460.641 901.889 C460.414 902.467 460.187 903.044 459.953 903.639 C458.294 906.485 456.22 907.826 453.641 909.889 C452.692 910.955 451.765 912.041 450.851 913.137 C445.073 919.814 438.712 925.94 432.46 932.168 C431.022 933.604 429.584 935.041 428.146 936.477 C425.063 939.557 421.979 942.635 418.893 945.713 C414.016 950.575 409.144 955.442 404.272 960.309 C393.94 970.63 383.603 980.948 373.266 991.264 C362.085 1002.423 350.905 1013.583 339.729 1024.748 C334.882 1029.59 330.032 1034.429 325.181 1039.267 C322.173 1042.268 319.166 1045.271 316.161 1048.275 C314.762 1049.671 313.363 1051.067 311.963 1052.462 C310.058 1054.359 308.157 1056.259 306.257 1058.16 C305.696 1058.717 305.136 1059.273 304.559 1059.847 C300.755 1063.661 300.755 1063.661 299.641 1065.889 C298.981 1065.889 298.321 1065.889 297.641 1065.889 C297.384 1066.471 297.127 1067.054 296.862 1067.654 C295.529 1070.094 294.068 1071.703 292.097 1073.66 C291.372 1074.385 290.648 1075.109 289.901 1075.855 C289.118 1076.628 288.335 1077.401 287.528 1078.198 C287.124 1078.6 287.124 1078.6 285.083 1080.633 C282.503 1083.203 279.916 1085.765 277.328 1088.327 C275.597 1090.048 273.866 1091.77 272.135 1093.493 C268.261 1097.347 264.383 1101.198 260.499 1105.042 C258.919 1106.612 257.356 1108.196 255.796 1109.786 C245.926 1119.421 231.096 1123.873 217.578 1124.327 C201.19 1123.425 185.81 1117.616 170.352 1112.533 C167.037 1111.445 163.718 1110.366 160.399 1109.288 C159.068 1108.855 157.738 1108.422 156.407 1107.99 C155.752 1107.777 155.097 1107.564 154.422 1107.345 C152.454 1106.704 150.486 1106.063 148.518 1105.421 C138.54 1102.17 128.538 1099.003 118.516 1095.889 C107.487 1092.454 96.516 1088.863 85.57 1085.17 C70.907 1080.232 56.15 1075.595 41.391 1070.952 C8.483 1060.596 8.483 1060.596 -7.547 1055.389 C-8.284 1055.15 -9.02 1054.911 -9.78 1054.664 C-20.986 1051.02 -32.161 1047.285 -43.333 1043.536 C-53.442 1040.16 -63.599 1036.953 -73.784 1033.815 C-83.463 1030.825 -93.104 1027.719 -102.742 1024.602 C-112.531 1021.436 -122.329 1018.302 -132.139 1015.201 C-134.262 1014.53 -136.386 1013.858 -138.509 1013.185 C-150.035 1009.537 -150.035 1009.537 -155.657 1007.765 C-199.724 993.872 -199.724 993.872 -209.359 985.889 C-210.211 985.198 -211.063 984.507 -211.941 983.796 C-217.829 978.782 -222.347 973.493 -226.359 966.889 C-226.821 966.144 -227.282 965.399 -227.758 964.631 C-230.527 959.681 -232.024 954.652 -233.258 949.143 C-233.428 948.401 -233.598 947.659 -233.773 946.894 C-234.307 944.56 -234.834 942.225 -235.359 939.889 C-235.689 938.438 -236.019 936.987 -236.35 935.535 C-237.177 931.892 -237.993 928.246 -238.804 924.599 C-239.29 922.417 -239.781 920.235 -240.271 918.053 C-243.179 905.041 -245.781 891.97 -248.359 878.889 C-249.172 878.639 -249.985 878.39 -250.822 878.132 C-258.533 875.761 -266.24 873.379 -273.944 870.986 C-277.904 869.756 -281.865 868.531 -285.828 867.314 C-289.663 866.137 -293.495 864.949 -297.324 863.754 C-298.776 863.303 -300.228 862.856 -301.682 862.413 C-321.097 856.484 -336.631 848.47 -347.109 830.389 C-351.422 821.998 -354.07 813.767 -355.777 804.499 C-355.881 803.957 -355.881 803.957 -356.407 801.216 C-356.846 798.925 -357.28 796.634 -357.711 794.341 C-358.338 791.002 -358.978 787.665 -359.623 784.329 C-360.986 777.268 -362.33 770.204 -363.672 763.139 C-363.926 761.804 -364.18 760.469 -364.434 759.134 C-368.669 736.879 -372.86 714.615 -377.044 692.35 C-382.959 660.876 -388.911 629.408 -394.922 597.952 C-395.099 597.024 -395.276 596.096 -395.459 595.14 C-399.207 575.516 -402.966 555.895 -406.763 536.281 C-413.345 502.281 -419.823 468.267 -426.055 434.202 C-426.538 431.56 -427.022 428.918 -427.506 426.276 C-430.324 410.885 -433.133 395.491 -435.754 380.065 C-435.914 379.135 -436.075 378.205 -436.24 377.246 C-439.415 358.209 -436.931 339.313 -426.359 322.889 C-421.381 316.381 -415.451 310.722 -409.187 305.463 C-407.314 303.851 -405.589 302.154 -403.859 300.389 C-400.821 297.296 -397.611 294.468 -394.328 291.639 C-392.429 289.951 -390.639 288.202 -388.859 286.389 C-385.821 283.296 -382.611 280.468 -379.328 277.639 C-377.429 275.951 -375.639 274.202 -373.859 272.389 C-371.601 270.096 -369.299 267.925 -366.859 265.827 C-362.161 261.775 -357.655 257.525 -353.128 253.283 C-349.248 249.648 -345.349 246.036 -341.422 242.452 C-336.72 238.155 -332.064 233.813 -327.422 229.452 C-319.927 222.411 -312.382 215.426 -304.812 208.467 C-296.722 201.03 -288.7 193.523 -280.707 185.983 C-277.847 183.287 -274.98 180.6 -272.105 177.921 C-266.104 172.325 -260.125 166.728 -254.359 160.889 C-250.784 157.271 -247.121 153.865 -243.254 150.565 C-240.49 148.12 -237.939 145.478 -235.351 142.85 C-233.456 140.984 -231.505 139.243 -229.484 137.514 C-226.292 134.773 -223.316 131.882 -220.359 128.889 C-216.838 125.325 -213.227 121.986 -209.422 118.733 C-206.069 115.736 -202.96 112.498 -199.801 109.299 C-197.087 106.621 -194.251 104.143 -191.355 101.667 C-189.098 99.657 -186.982 97.541 -184.859 95.389 C-182.151 92.644 -179.417 90.017 -176.484 87.514 C-173.114 84.627 -169.974 81.547 -166.859 78.389 C-163.148 74.627 -159.341 71.061 -155.32 67.631 C-152.267 64.919 -149.445 61.983 -146.578 59.077 C-143.951 56.487 -141.189 54.101 -138.39 51.702 C-135.4 49.033 -132.618 46.171 -129.828 43.296 C-127.134 40.67 -124.322 38.223 -121.483 35.759 C-118.008 32.699 -114.657 29.511 -111.297 26.327 C-110.563 25.637 -109.83 24.947 -109.075 24.237 C-105.483 20.857 -101.91 17.461 -98.379 14.018 C-68.191 -15.217 -37.616 -11.91 0 0 Z " fill="#01B2FD" transform="translate(571.3591003417969,79.11074829101563)"/>
<path d="M0 0 C3.504 2.841 6.784 5.837 10 9 C10.381 9.374 10.381 9.374 12.309 11.27 C28.431 28.118 35.428 49.354 35.301 72.487 C34.708 96.22 24.7 117.982 7.473 134.41 C-3.393 143.712 -15.36 149.899 -29 154 C-29.607 154.182 -29.607 154.182 -32.676 155.105 C-52.636 159.924 -75.155 155.492 -92.629 145.172 C-97.822 141.921 -102.48 138.127 -107 134 C-107.728 133.341 -108.457 132.683 -109.207 132.004 C-120.845 120.944 -129.258 105.594 -133 90 C-133 88.35 -133 86.7 -133 85 C-144.22 85.33 -155.44 85.66 -167 86 C-167.33 139.13 -167.66 192.26 -168 247 C-156.45 247 -144.9 247 -133 247 C-132.67 243.7 -132.34 240.4 -132 237 C-128.483 224.685 -122.144 213.784 -114 204 C-113.765 203.698 -113.765 203.698 -112.574 202.168 C-102.762 189.923 -87.853 181.508 -73 177 C-72.162 176.702 -71.324 176.404 -70.461 176.098 C-55.812 171.517 -38.189 172.368 -24 178 C-23.371 178.236 -22.742 178.472 -22.093 178.715 C-1.326 186.566 13.802 199.898 25 219 C25.494 219.797 25.987 220.593 26.496 221.414 C37.577 240.953 37.055 264.64 31.637 285.737 C26.031 305.646 11.982 323.832 -5.958 334.124 C-13.276 338.096 -20.869 342.041 -29 344 C-29.407 344.101 -29.407 344.101 -31.469 344.613 C-44.807 347.367 -60.14 347.736 -73 343 C-73.956 342.722 -74.913 342.443 -75.898 342.156 C-95.076 336.437 -112.945 322.241 -122.985 304.889 C-125 301.138 -126.743 297.279 -128.438 293.375 C-128.78 292.6 -129.122 291.825 -129.475 291.026 C-131.981 284.974 -132.308 280.921 -133 274 C-144.55 274 -156.1 274 -168 274 C-167.67 327.46 -167.34 380.92 -167 436 C-156.11 436 -145.22 436 -134 436 C-133.34 433.36 -133.34 433.36 -130 420 C-128.863 417.073 -127.83 414.531 -126.375 411.812 C-126.205 411.486 -126.205 411.486 -125.345 409.833 C-115.113 390.854 -97.974 374.847 -77.324 367.973 C-59.926 362.793 -44.518 362.843 -27 367 C-25.89 367.244 -24.78 367.487 -23.637 367.738 C-10.106 371.224 1.25 380.268 11 390 C11.683 390.672 12.366 391.343 13.07 392.035 C28.468 408.188 35.43 429.7 35.301 451.795 C34.699 474.573 25.134 497.642 8.504 513.419 C-11.025 530.968 -34.292 536.945 -60.003 536.17 C-80.397 535.011 -99.853 522.102 -113.621 507.781 C-123.789 495.894 -133.273 478.999 -133 463 C-133.625 463.016 -133.625 463.016 -136.789 463.095 C-141.466 463.205 -146.144 463.273 -150.822 463.33 C-152.84 463.36 -154.857 463.4 -156.874 463.453 C-177.077 463.962 -177.077 463.962 -184.249 458.751 C-187.457 455.544 -189.857 451.981 -192 448 C-192.174 447.719 -192.174 447.719 -193.057 446.299 C-194.351 443.143 -194.246 440.474 -194.241 437.065 C-194.241 436.716 -194.241 436.716 -194.246 434.951 C-194.249 432.614 -194.238 430.277 -194.227 427.94 C-194.226 426.265 -194.227 424.59 -194.228 422.914 C-194.229 418.365 -194.217 413.816 -194.203 409.266 C-194.19 404.513 -194.189 399.759 -194.187 395.005 C-194.181 386.002 -194.164 376.999 -194.144 367.997 C-194.122 357.748 -194.111 347.499 -194.101 337.25 C-194.08 316.167 -194.044 295.083 -194 274 C-202.25 274 -210.5 274 -219 274 C-218.989 276.547 -218.978 279.095 -218.966 281.72 C-218.864 305.746 -218.79 329.773 -218.741 353.8 C-218.715 366.152 -218.68 378.504 -218.623 390.856 C-218.573 401.626 -218.541 412.397 -218.53 423.168 C-218.523 428.867 -218.508 434.565 -218.471 440.264 C-218.437 445.637 -218.427 451.011 -218.434 456.385 C-218.433 458.347 -218.423 460.31 -218.404 462.273 C-218.234 480.429 -221.448 495.906 -234.25 509.75 C-246.456 521.162 -261.118 526.336 -277.581 526.261 C-278.491 526.265 -279.401 526.268 -280.339 526.272 C-283.359 526.283 -286.379 526.279 -289.4 526.275 C-291.577 526.279 -293.754 526.284 -295.932 526.29 C-301.827 526.304 -307.721 526.304 -313.616 526.302 C-318.546 526.301 -323.476 526.305 -328.407 526.31 C-340.043 526.321 -351.68 526.322 -363.316 526.316 C-375.299 526.31 -387.283 526.322 -399.266 526.343 C-409.574 526.361 -419.881 526.367 -430.189 526.364 C-436.337 526.362 -442.485 526.364 -448.632 526.378 C-454.417 526.391 -460.201 526.389 -465.985 526.376 C-468.1 526.374 -470.215 526.376 -472.33 526.385 C-493.203 526.46 -508.674 523.79 -524.453 508.809 C-530.945 501.65 -535.627 493.357 -538 484 C-538.089 483.665 -538.089 483.665 -538.538 481.969 C-540.422 473.891 -540.285 465.803 -540.267 457.561 C-540.271 455.897 -540.276 454.232 -540.281 452.568 C-540.293 448.013 -540.293 443.459 -540.291 438.904 C-540.29 433.984 -540.301 429.064 -540.311 424.145 C-540.327 414.513 -540.333 404.881 -540.334 395.25 C-540.335 387.418 -540.339 379.586 -540.346 371.754 C-540.363 349.532 -540.372 327.311 -540.371 305.09 C-540.371 303.893 -540.371 302.696 -540.371 301.462 C-540.371 300.264 -540.37 299.065 -540.37 297.83 C-540.37 278.409 -540.389 258.988 -540.417 239.567 C-540.446 219.609 -540.459 199.652 -540.458 179.694 C-540.457 168.496 -540.462 157.298 -540.484 146.099 C-540.502 136.565 -540.507 127.03 -540.493 117.495 C-540.487 112.634 -540.486 107.774 -540.504 102.913 C-540.52 98.455 -540.517 93.997 -540.499 89.539 C-540.496 87.935 -540.5 86.33 -540.511 84.726 C-540.633 66.079 -536.299 50.028 -523.164 36.031 C-511.702 25.273 -498.762 20.688 -483.249 20.719 C-482.309 20.713 -481.368 20.707 -480.399 20.701 C-477.27 20.684 -474.141 20.681 -471.011 20.678 C-468.758 20.668 -466.506 20.658 -464.253 20.648 C-458.147 20.621 -452.042 20.609 -445.936 20.6 C-442.116 20.594 -438.296 20.586 -434.476 20.577 C-423.878 20.552 -413.28 20.532 -402.682 20.525 C-402.005 20.524 -401.328 20.524 -400.631 20.524 C-399.952 20.523 -399.274 20.523 -398.575 20.522 C-397.2 20.521 -395.826 20.52 -394.451 20.52 C-393.769 20.519 -393.088 20.519 -392.385 20.518 C-381.348 20.51 -370.31 20.475 -359.273 20.429 C-347.913 20.381 -336.552 20.357 -325.192 20.354 C-318.825 20.352 -312.458 20.34 -306.091 20.304 C-300.097 20.271 -294.104 20.267 -288.111 20.285 C-285.921 20.286 -283.731 20.278 -281.541 20.258 C-263.031 20.1 -249.103 23.185 -235 36 C-224.942 46.364 -218.635 59.296 -218.759 73.833 C-218.759 74.206 -218.759 74.206 -218.754 76.094 C-218.751 78.571 -218.762 81.047 -218.773 83.523 C-218.774 85.308 -218.773 87.092 -218.772 88.877 C-218.771 93.705 -218.783 98.532 -218.797 103.36 C-218.81 108.412 -218.811 113.463 -218.813 118.515 C-218.819 128.073 -218.836 137.632 -218.856 147.19 C-218.878 158.076 -218.889 168.961 -218.899 179.846 C-218.92 202.231 -218.956 224.615 -219 247 C-210.75 247 -202.5 247 -194 247 C-194.009 244.915 -194.018 242.831 -194.027 240.683 C-194.109 221.039 -194.168 201.396 -194.207 181.753 C-194.228 171.654 -194.256 161.555 -194.302 151.456 C-194.342 142.652 -194.367 133.848 -194.376 125.044 C-194.382 120.384 -194.394 115.724 -194.423 111.064 C-194.45 106.674 -194.458 102.284 -194.452 97.893 C-194.454 96.286 -194.461 94.679 -194.477 93.072 C-194.571 82.748 -193.631 75.394 -187.812 66.75 C-181.279 60.362 -174.935 58.252 -165.934 58.293 C-165.014 58.278 -164.095 58.263 -163.147 58.247 C-160.244 58.205 -157.341 58.195 -154.438 58.188 C-152.455 58.164 -150.473 58.139 -148.49 58.111 C-143.66 58.049 -138.831 58.016 -134 58 C-133.887 57.299 -133.774 56.597 -133.657 55.875 C-132.662 50.028 -131.45 44.534 -129.312 39 C-129.052 38.319 -128.791 37.638 -128.523 36.937 C-126.072 30.778 -122.914 25.355 -119 20 C-118.394 19.161 -117.788 18.322 -117.164 17.457 C-107.156 4.283 -94.196 -6.108 -78.34 -11.211 C-76 -12 -76 -12 -74.016 -13.031 C-52.054 -23.586 -18.256 -13.643 0 0 Z " fill="#023578" transform="translate(909,371)"/>
<path d="M0 0 C7.465 0.588 14.237 2.75 21.352 5.008 C22.655 5.416 23.958 5.824 25.262 6.231 C28.691 7.304 32.118 8.385 35.544 9.468 C38.952 10.544 42.363 11.611 45.773 12.68 C52.313 14.73 58.849 16.792 65.383 18.859 C68.803 19.938 72.225 21.009 75.649 22.078 C77.624 22.698 79.599 23.317 81.574 23.938 C82.451 24.209 83.328 24.481 84.231 24.761 C102.249 30.442 115.671 42.108 124.75 58.688 C126.678 62.922 128.073 67.258 129.37 71.718 C129.587 72.462 129.804 73.205 130.028 73.972 C132.393 82.193 134.377 90.496 136.328 98.824 C136.725 100.503 137.122 102.181 137.52 103.859 C138.56 108.251 139.594 112.644 140.626 117.037 C141.647 121.377 142.673 125.715 143.699 130.053 C145.329 136.949 146.956 143.845 148.581 150.743 C150.951 160.8 153.332 170.856 155.715 180.91 C158.248 191.6 160.779 202.291 163.301 212.984 C168.41 234.645 173.541 256.3 178.75 277.938 C185.381 305.489 191.881 333.072 198.382 360.655 C201.228 372.728 204.076 384.799 206.926 396.871 C208.368 402.975 209.808 409.079 211.249 415.182 C212.423 420.154 213.596 425.125 214.77 430.097 C215.877 434.784 216.983 439.472 218.089 444.16 C218.497 445.885 218.904 447.61 219.311 449.335 C220.544 454.556 221.774 459.777 223 465 C223.3 466.274 223.599 467.549 223.908 468.861 C224.177 470.017 224.447 471.173 224.725 472.365 C224.841 472.86 224.841 472.86 225.427 475.369 C229.531 494.222 227.149 514.953 217.402 531.754 C214.007 536.82 210.136 541.134 205.699 545.309 C204 547 204 547 202 550 C201.34 550 200.68 550 200 550 C199.744 550.581 199.489 551.163 199.225 551.762 C197.877 554.225 196.391 555.843 194.396 557.815 C193.658 558.55 192.92 559.285 192.159 560.042 C191.36 560.827 190.561 561.613 189.738 562.422 C189.326 562.831 189.326 562.831 187.241 564.903 C184.603 567.524 181.958 570.137 179.312 572.75 C176.685 575.349 174.06 577.95 171.437 580.554 C169.806 582.173 168.172 583.789 166.535 585.403 C163.191 588.718 159.919 592.034 156.872 595.626 C151.666 601.672 145.906 607.203 140.251 612.824 C138.087 614.975 135.926 617.13 133.766 619.285 C128.404 624.634 123.036 629.978 117.668 635.322 C113.121 639.848 108.577 644.377 104.036 648.908 C101.918 651.02 99.797 653.128 97.676 655.236 C85.9 666.971 85.9 666.971 81.399 672.58 C80 674 80 674 77.886 675.012 C76 676 76 676 75 679 C74.34 679 73.68 679 73 679 C72.773 679.577 72.546 680.155 72.312 680.75 C70.653 683.595 68.579 684.937 66 687 C65.051 688.066 64.124 689.151 63.211 690.248 C57.432 696.925 51.071 703.051 44.819 709.279 C43.381 710.715 41.943 712.151 40.505 713.588 C37.422 716.668 34.338 719.746 31.252 722.823 C26.376 727.686 21.503 732.553 16.631 737.42 C6.299 747.741 -4.038 758.058 -14.375 768.375 C-25.556 779.534 -36.736 790.694 -47.912 801.858 C-52.759 806.701 -57.608 811.54 -62.46 816.378 C-65.468 819.379 -68.475 822.382 -71.48 825.386 C-72.879 826.782 -74.278 828.178 -75.678 829.572 C-77.582 831.47 -79.484 833.37 -81.384 835.271 C-81.664 835.549 -81.664 835.549 -83.082 836.958 C-86.886 840.772 -86.886 840.772 -88 843 C-88.66 843 -89.32 843 -90 843 C-90.257 843.582 -90.514 844.164 -90.778 844.764 C-92.112 847.205 -93.573 848.814 -95.544 850.771 C-96.269 851.496 -96.993 852.22 -97.74 852.966 C-98.523 853.739 -99.306 854.512 -100.113 855.309 C-100.517 855.71 -100.517 855.71 -102.557 857.744 C-105.138 860.313 -107.725 862.875 -110.312 865.438 C-112.044 867.159 -113.775 868.881 -115.506 870.604 C-119.38 874.458 -123.258 878.308 -127.142 882.152 C-128.721 883.723 -130.285 885.307 -131.845 886.896 C-141.715 896.532 -156.545 900.984 -170.062 901.438 C-186.451 900.536 -201.831 894.727 -217.289 889.644 C-220.604 888.556 -223.923 887.477 -227.242 886.398 C-228.572 885.966 -229.903 885.533 -231.234 885.101 C-231.889 884.888 -232.544 884.675 -233.219 884.455 C-235.187 883.815 -237.155 883.174 -239.123 882.532 C-249.101 879.28 -259.103 876.114 -269.125 873 C-280.154 869.565 -291.125 865.974 -302.071 862.281 C-316.734 857.343 -331.491 852.706 -346.25 848.062 C-379.158 837.707 -379.158 837.707 -395.188 832.5 C-395.924 832.261 -396.661 832.021 -397.421 831.775 C-408.627 828.131 -419.802 824.395 -430.974 820.646 C-441.083 817.27 -451.24 814.064 -461.425 810.925 C-471.104 807.935 -480.745 804.83 -490.383 801.712 C-500.172 798.547 -509.97 795.413 -519.78 792.312 C-521.903 791.64 -524.027 790.968 -526.15 790.296 C-537.675 786.647 -537.675 786.647 -543.298 784.875 C-587.365 770.983 -587.365 770.983 -597 763 C-597.852 762.309 -598.704 761.618 -599.582 760.906 C-605.47 755.892 -609.988 750.604 -614 744 C-614.461 743.255 -614.923 742.51 -615.398 741.742 C-618.161 736.804 -619.66 731.788 -620.891 726.293 C-621.06 725.553 -621.23 724.813 -621.405 724.05 C-621.942 721.701 -622.472 719.351 -623 717 C-623.341 715.495 -623.682 713.99 -624.023 712.485 C-624.875 708.712 -625.717 704.937 -626.555 701.161 C-627.064 698.868 -627.576 696.577 -628.088 694.285 C-629.685 687.118 -631.253 679.945 -632.734 672.754 C-632.975 671.592 -633.216 670.43 -633.464 669.233 C-634.2 664.794 -634.285 660.482 -634 656 C-622.923 658.426 -612.269 661.792 -601.55 665.474 C-595.033 667.701 -588.496 669.776 -581.895 671.734 C-569.499 675.413 -557.185 679.344 -544.863 683.263 C-538.879 685.165 -532.892 687.063 -526.906 688.961 C-526.237 689.173 -525.567 689.386 -524.877 689.605 C-506.114 695.556 -487.33 701.439 -468.545 707.321 C-462.21 709.305 -455.878 711.298 -449.547 713.297 C-447.935 713.805 -446.323 714.314 -444.711 714.822 C-441.832 715.73 -438.954 716.641 -436.076 717.553 C-430.039 719.46 -423.993 721.303 -417.898 723.016 C-411.002 724.964 -404.222 727.195 -397.438 729.5 C-386.345 733.255 -375.201 736.775 -363.966 740.078 C-354.474 742.876 -345.09 745.944 -335.714 749.108 C-329.352 751.246 -322.971 753.227 -316.518 755.064 C-309.158 757.188 -301.922 759.676 -294.666 762.125 C-288.289 764.266 -281.914 766.225 -275.426 768 C-271.974 769.008 -268.588 770.141 -265.188 771.31 C-245.672 778.008 -228.188 779.438 -209.109 770.672 C-198.133 764.428 -188.786 753.82 -181 744 C-179.345 742.322 -177.677 740.657 -176 739 C-175.213 738.218 -174.426 737.437 -173.616 736.632 C-172.807 735.829 -171.998 735.026 -171.164 734.199 C-169.318 732.362 -167.471 730.525 -165.625 728.688 C-164.705 727.775 -163.784 726.863 -162.836 725.924 C-158.255 721.359 -153.825 716.749 -149.618 711.838 C-146.933 708.787 -144.031 705.963 -141.125 703.125 C-135.133 697.266 -135.133 697.266 -134 695 C-133.34 695 -132.68 695 -132 695 C-131.782 694.455 -131.563 693.91 -131.339 693.349 C-129.557 690.222 -127.138 687.911 -124.582 685.422 C-124.047 684.892 -123.511 684.361 -122.959 683.815 C-121.248 682.122 -119.531 680.435 -117.812 678.75 C-115.566 676.54 -113.322 674.327 -111.082 672.109 C-110.538 671.571 -109.995 671.033 -109.434 670.479 C-106.06 667.117 -102.883 663.65 -99.796 660.021 C-95.303 654.966 -90.358 650.31 -85.543 645.563 C-76.28 636.419 -76.28 636.419 -72.594 632.094 C-67.075 625.642 -60.861 619.807 -54.825 613.845 C-49.294 608.376 -43.825 602.923 -38.775 596.998 C-34.041 591.67 -28.812 586.779 -23.738 581.777 C-19.883 577.955 -16.061 574.158 -12.531 570.031 C-7.549 564.214 -1.993 558.937 3.457 553.563 C8.577 548.509 13.586 543.427 18.266 537.957 C22.378 533.316 26.908 529.056 31.328 524.711 C35.527 520.555 39.532 516.32 43.383 511.84 C45.796 509.095 48.384 506.55 51 504 C54.901 500.151 58.608 496.236 62.16 492.059 C64.505 489.435 66.996 486.97 69.5 484.5 C73.271 480.774 76.902 476.988 80.324 472.938 C81.492 471.587 82.708 470.276 83.957 469 C96.52 455.932 100.56 439.928 100.312 422.188 C100.316 421.013 100.319 419.838 100.322 418.627 C100.285 412.683 99.927 407.666 98 402 C97.501 400.11 97.019 398.217 96.547 396.32 C96.406 395.756 96.406 395.756 95.691 392.903 C95.38 391.656 95.07 390.409 94.75 389.125 C94.586 388.468 94.422 387.812 94.253 387.135 C90.424 371.787 86.651 356.424 82.875 341.062 C82.58 339.862 82.285 338.662 81.98 337.425 C79.145 325.891 76.317 314.356 73.563 302.803 C71.349 293.512 69.075 284.261 66.5 275.062 C63.783 265.176 61.356 255.248 59.129 245.24 C57.92 239.837 56.613 234.479 55.168 229.133 C52.707 220.016 50.485 210.844 48.255 201.668 C44.786 187.398 41.297 173.134 37.723 158.891 C37.456 157.829 37.19 156.767 36.915 155.672 C35.647 150.619 34.374 145.567 33.098 140.516 C30.293 129.384 27.655 118.226 25.137 107.027 C23.644 100.395 22.051 93.79 20.438 87.188 C20.109 85.835 19.78 84.483 19.452 83.13 C17.569 75.383 15.666 67.641 13.752 59.902 C12.681 55.573 11.614 51.243 10.547 46.913 C10.024 44.797 9.5 42.681 8.974 40.566 C5.625 27.104 2.589 13.63 0 0 Z " fill="#0372A5" transform="translate(959,302)"/>
<path d="M0 0 C3.314 1.049 6.632 2.086 9.952 3.12 C13.497 4.225 17.043 5.331 20.587 6.44 C34.397 10.761 48.237 14.983 62.078 19.202 C64.595 19.97 67.113 20.738 69.63 21.507 C80.28 24.755 90.933 27.993 101.61 31.155 C102.024 31.277 102.024 31.277 104.118 31.898 C107.753 32.973 111.389 34.043 115.027 35.103 C123.587 37.61 132.077 40.306 140.563 43.053 C156.058 48.066 171.632 52.807 187.219 57.525 C193.334 59.377 199.447 61.235 205.56 63.091 C207.81 63.774 210.061 64.457 212.311 65.14 C223.534 68.548 234.747 71.988 245.953 75.452 C257.845 79.126 269.755 82.737 281.68 86.303 C284.224 87.064 286.768 87.827 289.311 88.591 C290.128 88.837 290.945 89.082 291.787 89.335 C293.407 89.822 295.028 90.308 296.648 90.795 C301.128 92.14 305.611 93.472 310.098 94.792 C312.102 95.384 314.104 95.983 316.105 96.584 C318.475 97.295 320.847 97.997 323.223 98.685 C341.304 104.169 354.676 113.862 364.038 130.35 C369.542 141.179 371.893 152.884 374.641 164.639 C375.166 166.845 375.692 169.051 376.22 171.256 C377.245 175.548 378.263 179.841 379.276 184.136 C380.402 188.903 381.562 193.661 382.75 198.413 C383.036 199.565 383.323 200.718 383.617 201.906 C384.113 203.896 384.612 205.885 385.117 207.873 C386.295 212.688 386.883 216.93 386.641 221.889 C377.332 219.872 368.392 217.603 359.457 214.249 C353.974 212.237 348.35 210.659 342.743 209.032 C338.359 207.75 334.088 206.338 329.825 204.697 C325.173 202.976 320.429 201.518 315.703 200.014 C314.585 199.657 313.467 199.3 312.315 198.931 C306.444 197.065 300.566 195.263 294.641 193.577 C285.302 190.916 276.127 187.739 266.926 184.644 C251.228 179.367 251.228 179.367 243.578 177.202 C236.861 175.295 230.257 173.122 223.641 170.889 C215.405 168.112 207.155 165.497 198.801 163.1 C195.128 162.038 191.476 160.921 187.828 159.776 C187.163 159.567 186.498 159.359 185.812 159.144 C183.421 158.393 181.031 157.641 178.641 156.889 C177.672 156.584 176.702 156.279 175.703 155.965 C166.482 153.065 157.261 150.16 148.04 147.255 C145.67 146.508 143.299 145.762 140.929 145.015 C138.631 144.291 136.333 143.567 134.035 142.843 C128.533 141.111 123.028 139.386 117.518 137.677 C111.616 135.845 105.758 133.946 99.953 131.827 C92.197 129.049 84.378 126.583 76.475 124.25 C65.93 121.136 55.457 117.877 45.037 114.366 C38.271 112.088 31.482 109.932 24.641 107.889 C23.383 107.497 22.125 107.106 20.828 106.702 C4.169 102.455 -12.056 104.723 -27.074 112.913 C-32.163 115.975 -36.205 119.687 -40.359 123.889 C-41.878 125.408 -43.398 126.926 -44.918 128.444 C-47.422 130.947 -49.923 133.452 -52.409 135.974 C-53.189 136.763 -53.969 137.553 -54.773 138.366 C-55.464 139.068 -56.154 139.77 -56.865 140.493 C-58.929 142.476 -61.027 144.352 -63.191 146.221 C-67.182 149.689 -70.928 153.345 -74.64 157.108 C-75.298 157.77 -75.956 158.431 -76.634 159.113 C-78.711 161.202 -80.786 163.295 -82.859 165.389 C-85.596 168.153 -88.336 170.913 -91.078 173.671 C-91.69 174.291 -92.301 174.91 -92.931 175.549 C-95.964 178.599 -99.047 181.526 -102.304 184.335 C-106.576 188.026 -110.549 191.969 -114.515 195.983 C-115.262 196.733 -116.008 197.484 -116.778 198.257 C-119.141 200.632 -121.5 203.01 -123.859 205.389 C-126.971 208.528 -130.086 211.663 -133.203 214.796 C-133.552 215.149 -133.552 215.149 -135.322 216.939 C-139.246 220.883 -143.281 224.616 -147.494 228.249 C-150.224 230.65 -152.78 233.203 -155.328 235.796 C-155.852 236.324 -156.377 236.852 -156.918 237.397 C-158.567 239.058 -160.214 240.723 -161.859 242.389 C-174.076 254.757 -174.076 254.757 -180.361 260.114 C-184.727 263.993 -188.761 268.232 -192.859 272.389 C-198.213 277.82 -203.56 283.145 -209.353 288.106 C-213.37 291.677 -217.09 295.56 -220.859 299.389 C-229.815 308.489 -229.815 308.489 -234.14 312.171 C-240.215 317.385 -245.735 323.199 -251.359 328.889 C-264.05 341.731 -264.05 341.731 -270.285 347.038 C-275.193 351.419 -279.739 356.209 -284.359 360.889 C-296.28 372.965 -296.28 372.965 -302.5 378.283 C-318.478 392.084 -330.822 406.591 -332.664 428.517 C-332.898 441.338 -330.481 453.319 -327.859 465.827 C-327.397 468.094 -326.937 470.362 -326.478 472.631 C-325.551 477.215 -324.618 481.798 -323.68 486.379 C-321.801 495.596 -320.043 504.835 -318.297 514.077 C-317.978 515.753 -317.66 517.43 -317.341 519.107 C-315.533 528.626 -313.747 538.15 -311.968 547.674 C-311.766 548.756 -311.564 549.837 -311.356 550.951 C-310.373 556.21 -309.392 561.47 -308.415 566.73 C-306.713 575.871 -304.955 584.984 -302.965 594.067 C-302.202 597.621 -301.578 601.178 -300.984 604.764 C-299.804 611.673 -298.428 618.531 -296.984 625.389 C-296.772 626.399 -296.559 627.409 -296.341 628.45 C-296.125 629.475 -295.909 630.501 -295.687 631.557 C-289.368 661.62 -289.368 661.62 -287.347 675.791 C-286.878 679.005 -286.325 682.006 -285.422 685.135 C-283.913 690.465 -283.017 695.877 -282.047 701.327 C-280.027 712.461 -277.82 723.543 -275.472 734.612 C-273.63 743.305 -271.942 752.02 -270.359 760.764 C-270.183 761.73 -270.007 762.696 -269.826 763.691 C-268.932 768.625 -268.076 773.561 -267.297 778.514 C-266.698 782.187 -265.925 785.756 -264.992 789.358 C-263.277 796.129 -261.765 802.936 -260.297 809.764 C-260.041 810.928 -259.785 812.092 -259.521 813.292 C-257.985 820.426 -256.764 827.536 -255.828 834.774 C-255.231 838.738 -254.241 842.537 -253.222 846.409 C-252.088 850.984 -251.117 855.584 -250.172 860.202 C-249.993 861.05 -249.814 861.898 -249.629 862.773 C-248.659 867.58 -248.167 871.986 -248.359 876.889 C-255.594 877.559 -261.919 875.131 -268.746 872.944 C-270.052 872.532 -271.359 872.12 -272.665 871.709 C-275.4 870.846 -278.132 869.976 -280.863 869.101 C-284.327 867.992 -287.796 866.9 -291.267 865.814 C-293.968 864.967 -296.665 864.11 -299.362 863.25 C-301.25 862.65 -303.141 862.058 -305.031 861.466 C-323.904 855.377 -338.892 846.376 -348.19 828.287 C-351.963 820.549 -354.221 812.949 -355.777 804.499 C-355.881 803.957 -355.881 803.957 -356.407 801.216 C-356.846 798.925 -357.28 796.634 -357.711 794.341 C-358.338 791.002 -358.978 787.665 -359.623 784.329 C-360.986 777.268 -362.33 770.204 -363.672 763.139 C-363.926 761.804 -364.18 760.469 -364.434 759.134 C-368.669 736.879 -372.86 714.615 -377.044 692.35 C-382.959 660.876 -388.911 629.408 -394.922 597.952 C-395.099 597.024 -395.276 596.096 -395.459 595.14 C-399.207 575.516 -402.966 555.895 -406.763 536.281 C-413.345 502.281 -419.823 468.267 -426.055 434.202 C-426.538 431.56 -427.022 428.918 -427.506 426.276 C-430.324 410.885 -433.133 395.491 -435.754 380.065 C-435.914 379.135 -436.075 378.205 -436.24 377.246 C-439.415 358.209 -436.931 339.313 -426.359 322.889 C-421.381 316.381 -415.451 310.722 -409.187 305.463 C-407.314 303.851 -405.589 302.154 -403.859 300.389 C-400.821 297.296 -397.611 294.468 -394.328 291.639 C-392.429 289.951 -390.639 288.202 -388.859 286.389 C-385.821 283.296 -382.611 280.468 -379.328 277.639 C-377.429 275.951 -375.639 274.202 -373.859 272.389 C-371.601 270.096 -369.299 267.925 -366.859 265.827 C-362.161 261.775 -357.655 257.525 -353.128 253.283 C-349.248 249.648 -345.349 246.036 -341.422 242.452 C-336.72 238.155 -332.064 233.813 -327.422 229.452 C-319.927 222.411 -312.382 215.426 -304.812 208.467 C-296.722 201.03 -288.7 193.523 -280.707 185.983 C-277.847 183.287 -274.98 180.6 -272.105 177.921 C-266.104 172.325 -260.125 166.728 -254.359 160.889 C-250.784 157.271 -247.121 153.865 -243.254 150.565 C-240.49 148.12 -237.939 145.478 -235.351 142.85 C-233.456 140.984 -231.505 139.243 -229.484 137.514 C-226.292 134.773 -223.316 131.882 -220.359 128.889 C-216.838 125.325 -213.227 121.986 -209.422 118.733 C-206.069 115.736 -202.96 112.498 -199.801 109.299 C-197.087 106.621 -194.251 104.143 -191.355 101.667 C-189.098 99.657 -186.982 97.541 -184.859 95.389 C-182.151 92.644 -179.417 90.017 -176.484 87.514 C-173.114 84.627 -169.974 81.547 -166.859 78.389 C-163.148 74.627 -159.341 71.061 -155.32 67.631 C-152.267 64.919 -149.445 61.983 -146.578 59.077 C-143.951 56.487 -141.189 54.101 -138.39 51.702 C-135.4 49.033 -132.618 46.171 -129.828 43.296 C-127.134 40.67 -124.322 38.223 -121.483 35.759 C-118.008 32.699 -114.657 29.511 -111.297 26.327 C-110.563 25.637 -109.83 24.947 -109.075 24.237 C-105.483 20.857 -101.91 17.461 -98.379 14.018 C-68.191 -15.217 -37.616 -11.91 0 0 Z " fill="#0356AD" transform="translate(571.3591003417969,79.11074829101563)"/>
<path d="M0 0 C2.181 -0.008 4.361 -0.019 6.542 -0.032 C12.445 -0.059 18.347 -0.049 24.25 -0.03 C30.439 -0.014 36.628 -0.028 42.817 -0.038 C53.21 -0.049 63.602 -0.034 73.995 -0.006 C85.994 0.027 97.993 0.016 109.992 -0.017 C120.31 -0.044 130.628 -0.048 140.946 -0.032 C147.102 -0.023 153.257 -0.022 159.413 -0.041 C165.202 -0.059 170.991 -0.047 176.78 -0.012 C178.899 -0.004 181.018 -0.006 183.137 -0.02 C204.295 -0.14 204.295 -0.14 212.569 6.776 C221.663 16.25 222.008 26.362 221.956 38.857 C221.96 40.506 221.966 42.156 221.973 43.806 C221.987 48.329 221.983 52.852 221.975 57.375 C221.971 62.258 221.983 67.14 221.993 72.022 C222.011 81.583 222.011 91.144 222.006 100.704 C222.002 108.476 222.004 116.247 222.009 124.019 C222.01 125.125 222.01 126.231 222.011 127.371 C222.013 129.618 222.014 131.865 222.016 134.112 C222.03 155.186 222.024 176.259 222.013 197.332 C222.003 216.608 222.016 235.884 222.04 255.16 C222.064 274.956 222.074 294.752 222.067 314.548 C222.063 325.66 222.066 336.773 222.083 347.885 C222.098 357.345 222.099 366.805 222.081 376.265 C222.073 381.091 222.071 385.916 222.086 390.742 C222.1 395.162 222.095 399.582 222.076 404.003 C222.072 405.599 222.075 407.195 222.085 408.791 C222.148 419.188 221.615 429.041 214.319 437.151 C213.798 437.757 213.277 438.363 212.74 438.987 C206.646 444.008 200.918 445.366 193.156 445.284 C192.699 445.287 192.699 445.287 190.381 445.303 C187.329 445.319 184.277 445.307 181.225 445.294 C179.03 445.299 176.835 445.306 174.64 445.315 C168.689 445.333 162.739 445.326 156.789 445.314 C150.557 445.304 144.326 445.313 138.094 445.319 C126.96 445.327 115.826 445.315 104.691 445.294 C94.606 445.276 84.521 445.279 74.436 445.298 C62.71 445.319 50.985 445.327 39.259 445.315 C33.057 445.309 26.856 445.308 20.654 445.322 C14.823 445.333 8.992 445.325 3.161 445.302 C1.023 445.297 -1.115 445.298 -3.253 445.307 C-6.176 445.318 -9.097 445.304 -12.019 445.284 C-12.441 445.289 -12.441 445.289 -14.573 445.311 C-21.471 445.22 -26.61 443.193 -31.857 438.698 C-32.48 437.982 -33.102 437.265 -33.744 436.526 C-34.379 435.82 -35.015 435.114 -35.67 434.386 C-41.324 426.011 -40.857 417.404 -40.812 407.689 C-40.816 406.039 -40.821 404.389 -40.827 402.738 C-40.839 398.213 -40.833 393.688 -40.824 389.163 C-40.817 384.278 -40.827 379.394 -40.836 374.51 C-40.849 364.945 -40.846 355.381 -40.837 345.817 C-40.83 338.043 -40.83 330.269 -40.833 322.495 C-40.833 321.389 -40.834 320.282 -40.834 319.142 C-40.835 316.894 -40.836 314.647 -40.837 312.399 C-40.846 291.321 -40.836 270.243 -40.82 249.165 C-40.806 231.081 -40.809 212.998 -40.823 194.914 C-40.839 173.913 -40.845 152.912 -40.836 131.911 C-40.835 129.671 -40.834 127.431 -40.833 125.192 C-40.832 124.09 -40.832 122.988 -40.831 121.852 C-40.829 114.089 -40.833 106.325 -40.84 98.562 C-40.849 89.099 -40.846 79.637 -40.83 70.174 C-40.823 65.346 -40.819 60.519 -40.829 55.692 C-40.838 51.271 -40.833 46.85 -40.817 42.429 C-40.814 40.832 -40.816 39.234 -40.823 37.637 C-40.874 25.635 -39.978 15.85 -31.431 6.776 C-22.609 -1.486 -11.256 -0.07 0 0 Z " fill="#FBFCFD" transform="translate(439.431396484375,421.2236328125)"/>
<path d="M0 0 C1.101 0.245 2.202 0.49 3.336 0.742 C24.229 6.048 44.133 18.334 55.371 37.055 C61.639 48.389 67.925 61.657 66 75 C64.193 80.421 60.653 83.847 56 87 C52.169 88.822 49.13 89.253 44.903 89.261 C44.29 89.264 44.29 89.264 41.19 89.282 C39.841 89.28 38.491 89.277 37.141 89.275 C35.713 89.279 34.286 89.284 32.858 89.29 C28.986 89.304 25.114 89.304 21.242 89.302 C18.006 89.301 14.771 89.305 11.535 89.31 C3.9 89.321 -3.735 89.322 -11.371 89.316 C-19.24 89.31 -27.109 89.322 -34.978 89.343 C-41.74 89.361 -48.503 89.367 -55.266 89.364 C-59.302 89.362 -63.338 89.364 -67.374 89.378 C-71.171 89.391 -74.968 89.389 -78.765 89.376 C-80.155 89.374 -81.546 89.376 -82.936 89.385 C-98.122 89.468 -98.122 89.468 -103.961 84.246 C-104.194 83.948 -104.194 83.948 -105.375 82.438 C-105.857 81.838 -106.339 81.239 -106.836 80.621 C-110.617 75.356 -109.446 67.264 -109 61 C-108.391 57.765 -107.327 55.001 -106 52 C-105.648 51.058 -105.296 50.115 -104.934 49.145 C-102.184 41.984 -98.76 36.005 -94 30 C-93.354 29.178 -92.708 28.355 -92.043 27.508 C-78.588 11.481 -60.127 3.109 -40 -1 C-39.532 -1.097 -39.532 -1.097 -37.164 -1.59 C-25.053 -3.16 -11.89 -2.673 0 0 Z " fill="#035DE2" transform="translate(552,602)"/>
<path d="M0 0 C0.784 -0.002 1.568 -0.003 2.376 -0.005 C10.763 0.155 17.63 2.262 25.062 6.062 C25.761 6.418 26.46 6.774 27.18 7.141 C42.326 15.05 54.009 27.579 59.309 44.055 C60.108 47.305 60.287 50.045 60.125 53.375 C60.785 53.375 61.445 53.375 62.125 53.375 C63.271 74.429 59.873 91.11 45.938 107.5 C37.928 116.032 29.112 121.479 18.125 125.375 C17.453 125.636 16.781 125.897 16.089 126.166 C10.479 128.237 5.58 128.809 -0.375 128.688 C-0.77 128.689 -0.77 128.689 -2.77 128.697 C-18.52 128.555 -33.503 121.468 -45 110.812 C-58.251 96.637 -63.657 81.032 -63.397 61.819 C-62.733 43.764 -56.094 28.858 -42.875 16.375 C-30.142 5.876 -16.614 0.032 0 0 Z " fill="#F9FAFC" transform="translate(859.875,376.625)"/>
<path d="M0 0 C16.225 0.292 30.841 8.048 42.53 18.965 C54.613 31.562 61.094 46.395 61.108 63.77 C61.12 64.587 61.132 65.403 61.145 66.245 C61.181 81.433 54.612 95.99 44.92 107.458 C44.327 108.174 43.734 108.891 43.123 109.629 C32.593 121.24 16.71 127.423 1.405 128.766 C-15.162 129.338 -30.88 124.304 -43.494 113.364 C-54.44 102.966 -63.752 88.808 -64.416 73.34 C-64.706 55.164 -63.136 40.362 -52.08 25.458 C-51.473 24.638 -50.866 23.818 -50.24 22.973 C-41.006 11.65 -28.033 4.53 -13.795 1.852 C-9.175 0.789 -5.103 0.04 0 0 Z " fill="#F9FAFC" transform="translate(861.079833984375,566.54248046875)"/>
<path d="M0 0 C7.729 5.791 14.036 12.694 19 21 C19.385 21.642 19.771 22.284 20.168 22.945 C21.25 24.926 22.141 26.913 23 29 C23.373 29.874 23.745 30.748 24.129 31.648 C29.871 47.215 28.365 64.031 21.881 79.095 C14.383 95.313 1.917 106.815 -14.727 112.957 C-29.55 117.68 -46.557 118.428 -61 112 C-61.937 111.587 -62.874 111.175 -63.84 110.75 C-79.026 103.253 -90.384 89.463 -96.303 73.716 C-101.278 58.075 -99.272 38.499 -92.492 23.711 C-84.152 8.388 -70.715 -3.134 -54.27 -8.969 C-35.674 -14.389 -15.9 -10.818 0 0 Z " fill="#F9FAFC" transform="translate(895,768)"/>
<path d="M0 0 C11.029 8.317 20.64 19.573 22.688 33.688 C24.232 49.47 21.937 63.737 12.285 76.746 C11.758 77.387 11.231 78.027 10.688 78.688 C10.419 79.023 10.419 79.023 9.059 80.723 C0.145 90.715 -13.749 96.724 -26.926 97.926 C-40.723 98.333 -53.306 93.341 -63.75 84.375 C-74.639 73.808 -81.275 60.917 -81.554 45.624 C-81.614 29.825 -76.765 17.59 -65.719 5.973 C-47.267 -11.551 -21.239 -13.967 0 0 Z " fill="#035DE2" transform="translate(559.3125,489.3125)"/>
<path d="M0 0 C0.665 -0.007 1.33 -0.014 2.015 -0.021 C4.231 -0.039 6.446 -0.037 8.661 -0.035 C10.255 -0.044 11.849 -0.054 13.443 -0.065 C17.763 -0.092 22.083 -0.099 26.404 -0.101 C29.105 -0.103 31.806 -0.109 34.508 -0.117 C43.938 -0.145 53.368 -0.157 62.798 -0.155 C71.579 -0.153 80.36 -0.185 89.141 -0.232 C96.688 -0.271 104.235 -0.287 111.783 -0.285 C116.287 -0.285 120.791 -0.293 125.295 -0.325 C129.532 -0.354 133.768 -0.354 138.006 -0.332 C139.557 -0.329 141.108 -0.336 142.659 -0.354 C156.762 -0.509 156.762 -0.509 162.754 4.724 C165.758 8.348 166.656 11.546 166.523 16.307 C165.847 20.046 163.916 22.855 161.144 25.401 C156.691 28.016 153.456 28.777 148.313 28.782 C147.982 28.784 147.982 28.784 146.306 28.796 C144.099 28.808 141.893 28.799 139.687 28.789 C138.1 28.793 136.513 28.799 134.926 28.805 C130.624 28.819 126.323 28.814 122.021 28.804 C117.515 28.797 113.01 28.804 108.504 28.808 C100.939 28.814 93.373 28.807 85.807 28.792 C77.065 28.776 68.323 28.781 59.581 28.798 C52.07 28.811 44.559 28.813 37.048 28.805 C32.564 28.801 28.081 28.8 23.597 28.81 C19.381 28.819 15.166 28.813 10.95 28.795 C9.405 28.791 7.859 28.793 6.313 28.799 C4.201 28.807 2.088 28.797 -0.025 28.782 C-1.206 28.781 -2.387 28.78 -3.604 28.779 C-8.077 28.259 -11.512 26.841 -14.606 23.526 C-17.339 18.879 -18.265 15.659 -17.391 10.327 C-16.217 6.101 -13.813 3.969 -10.14 1.789 C-6.49 0.246 -3.949 0.017 0 0 Z " fill="#045FE3" transform="translate(455.8558044433594,737.5988616943359)"/>
<path d="M0 0 C1.061 -0.008 2.122 -0.017 3.214 -0.026 C6.72 -0.049 10.225 -0.05 13.731 -0.049 C16.171 -0.056 18.611 -0.064 21.051 -0.072 C26.166 -0.085 31.281 -0.087 36.396 -0.081 C42.944 -0.075 49.49 -0.106 56.037 -0.146 C61.077 -0.172 66.117 -0.175 71.157 -0.171 C73.571 -0.173 75.984 -0.183 78.397 -0.2 C81.777 -0.223 85.155 -0.213 88.535 -0.195 C89.527 -0.209 90.519 -0.222 91.541 -0.236 C99.117 -0.144 104.113 2.011 109.434 7.428 C111.41 11.26 111.063 15.24 110.462 19.42 C107.848 24.553 104.922 27.6 99.462 29.42 C97.963 29.515 96.46 29.555 94.959 29.56 C94.497 29.563 94.497 29.563 92.163 29.578 C91.153 29.579 90.143 29.58 89.103 29.581 C88.57 29.584 88.57 29.584 85.875 29.596 C82.344 29.611 78.813 29.618 75.282 29.623 C72.832 29.629 70.382 29.635 67.932 29.64 C62.792 29.651 57.653 29.657 52.513 29.66 C45.923 29.666 39.333 29.69 32.744 29.718 C27.682 29.737 22.621 29.742 17.559 29.743 C15.13 29.747 12.7 29.755 10.27 29.768 C6.873 29.785 3.476 29.783 0.079 29.776 C-0.927 29.786 -1.932 29.795 -2.969 29.804 C-9.864 29.763 -13.141 28.551 -18.351 23.92 C-21.232 20.262 -21.242 16.569 -21.027 12.045 C-20.099 7.061 -17.398 4.923 -13.521 1.79 C-9.06 -0.259 -4.855 -0.014 0 0 Z " fill="#65B4FC" transform="translate(459.538330078125,791.580078125)"/>
<path d="M0 0 C9.113 5.057 16.085 11.677 19.25 21.809 C20.023 25.989 19.908 27.609 17.832 31.475 C15.832 33.783 14.702 34.342 11.668 34.938 C7.96 35.146 4.295 35.161 0.582 35.109 C-0.791 35.108 -2.165 35.109 -3.538 35.112 C-6.411 35.112 -9.282 35.091 -12.155 35.055 C-15.832 35.01 -19.509 35.009 -23.187 35.022 C-26.021 35.029 -28.854 35.016 -31.688 34.996 C-33.702 34.985 -35.716 34.987 -37.73 34.99 C-38.955 34.971 -40.18 34.952 -41.442 34.932 C-42.519 34.923 -43.597 34.914 -44.707 34.904 C-48.174 34.259 -49.36 33.127 -51.508 30.383 C-52.953 24.51 -51.88 19.271 -48.945 14.07 C-38.312 -1.595 -17.471 -7.594 0 0 Z " fill="#075FE0" transform="translate(875.5078125,829.6171875)"/>
<path d="M0 0 C8.335 5.418 13.68 11.538 17 21 C17.495 25.101 17.532 27.135 15.359 30.671 C12.361 33.631 10.985 33.627 6.826 33.631 C5.578 33.644 4.33 33.656 3.044 33.669 C1.686 33.657 0.327 33.643 -1.031 33.629 C-2.428 33.63 -3.826 33.632 -5.223 33.636 C-8.148 33.639 -11.073 33.624 -13.999 33.597 C-17.745 33.563 -21.49 33.569 -25.236 33.588 C-28.12 33.598 -31.004 33.589 -33.889 33.574 C-35.27 33.569 -36.651 33.569 -38.032 33.576 C-39.963 33.581 -41.895 33.558 -43.826 33.533 C-44.924 33.527 -46.023 33.521 -47.154 33.515 C-50.657 32.881 -51.835 31.772 -54 29 C-55.279 24.157 -54.712 19.651 -52.742 15.082 C-47.358 6.004 -40.159 -0.084 -30.082 -3.34 C-19.834 -5.535 -9.404 -4.709 0 0 Z " fill="#075EE0" transform="translate(878,451)"/>
<path d="M0 0 C6.843 5.788 11.29 12.97 12.562 21.875 C12.1 24.983 11.377 26.602 9.08 28.76 C4.377 31.292 -1.594 30.494 -6.785 30.441 C-8.158 30.442 -9.532 30.445 -10.905 30.449 C-13.778 30.452 -16.649 30.437 -19.522 30.409 C-23.2 30.375 -26.876 30.381 -30.554 30.4 C-33.388 30.411 -36.221 30.402 -39.055 30.387 C-41.069 30.379 -43.083 30.386 -45.097 30.394 C-46.322 30.378 -47.547 30.362 -48.809 30.346 C-49.886 30.34 -50.964 30.334 -52.074 30.327 C-55.544 29.69 -56.724 28.555 -58.875 25.812 C-60.476 19.752 -59.147 14.449 -56.062 9.125 C-50.278 0.99 -42.562 -4.651 -32.754 -6.785 C-20.838 -8.451 -9.956 -7.159 0 0 Z " fill="#075FE0" transform="translate(882.875,644.1875)"/>
<path d="M0 0 C5.28 3.003 9.49 7.788 11.75 13.438 C12.648 19.889 12.735 25.809 9.188 31.438 C5.556 36.118 1.435 39.543 -4.25 41.438 C-10.522 42.008 -15.745 41.761 -21.25 38.438 C-27.228 33.02 -29.919 28.078 -30.5 19.938 C-29.963 12.417 -27.823 7.441 -22.25 2.438 C-15.543 -2.456 -7.64 -3.368 0 0 Z " fill="#065DE0" transform="translate(868.25,398.5625)"/>
<path d="M0 0 C4.076 3.031 7.071 6.776 9.012 11.496 C9.912 18.826 9.591 25.497 5.012 31.496 C0.806 35.961 -3.403 38.987 -9.602 39.867 C-17.361 40.058 -21.912 38.375 -27.52 33.039 C-32.414 27.646 -33.477 22.079 -33.297 15.02 C-32.582 9.173 -29.899 5.056 -25.613 1.121 C-17.532 -5.179 -8.563 -5.275 0 0 Z " fill="#065EE0" transform="translate(870.98828125,590.50390625)"/>
<path d="M0 0 C6.894 3.028 11.012 7.458 14.355 14.145 C15.154 22.408 13.781 28.54 9.168 35.395 C4.442 40.015 0.024 42.337 -6.645 42.645 C-12.655 42.35 -17.238 40.706 -21.402 36.273 C-26.196 30.149 -28.257 24.812 -28.078 16.992 C-27.046 10.216 -22.702 5.617 -17.395 1.582 C-11.545 -1.926 -6.425 -2.079 0 0 Z " fill="#0760E1" transform="translate(865.64453125,777.85546875)"/>
<path d="M0 0 C52.8 0 105.6 0 160 0 C159.34 0.99 158.68 1.98 158 3 C155.38 3.369 155.38 3.369 151.989 3.361 C150.707 3.365 149.426 3.369 148.105 3.373 C146.677 3.363 145.248 3.352 143.82 3.341 C142.322 3.34 140.824 3.34 139.326 3.342 C135.252 3.343 131.178 3.325 127.104 3.304 C122.849 3.285 118.594 3.284 114.34 3.28 C106.279 3.271 98.218 3.246 90.158 3.216 C80.983 3.183 71.807 3.166 62.632 3.151 C43.755 3.12 24.877 3.067 6 3 C6 2.34 6 1.68 6 1 C4.02 1 2.04 1 0 1 C0 0.67 0 0.34 0 0 Z " fill="#EDF3FD" transform="translate(451,766)"/>
<path d="M0 0 C2.188 0.312 2.188 0.312 4 1 C2.468 2.614 0.924 4.215 -0.625 5.812 C-1.484 6.706 -2.342 7.599 -3.227 8.52 C-6.036 11.032 -8.637 12.354 -12 14 C-14.336 16.043 -14.336 16.043 -16.375 18.188 C-17.063 18.903 -17.752 19.618 -18.461 20.355 C-18.969 20.898 -19.477 21.441 -20 22 C-20.66 21.67 -21.32 21.34 -22 21 C-16.378 15.285 -10.777 9.625 -4.656 4.438 C-3 3 -3 3 -1.531 1.25 C-1.026 0.838 -0.521 0.425 0 0 Z " fill="#467FC1" transform="translate(484,83)"/>
</svg>
