<?xml version="1.0" encoding="UTF-8"?>
<!-- Generator: visioncortex VTracer 0.6.12 -->
<svg version="1.1" xmlns="http://www.w3.org/2000/svg" width="1254" height="1254">
<path d="M0 0 C0.735 0.178 1.469 0.355 2.226 0.538 C10.015 2.465 17.645 4.839 25.282 7.289 C26.788 7.767 28.295 8.244 29.802 8.721 C32.962 9.723 36.121 10.727 39.279 11.736 C44.207 13.309 49.139 14.873 54.07 16.436 C54.887 16.695 55.704 16.954 56.545 17.221 C58.184 17.74 59.822 18.259 61.461 18.778 C63.886 19.547 66.312 20.316 68.737 21.086 C80.521 24.824 92.324 28.496 104.149 32.102 C116.431 35.85 128.662 39.731 140.87 43.71 C149.698 46.574 158.564 49.279 167.461 51.914 C176.055 54.462 184.6 57.091 193.086 59.977 C209.876 65.666 226.841 70.809 243.776 76.046 C251.272 78.365 258.765 80.691 266.258 83.018 C271.714 84.711 277.169 86.404 282.625 88.097 C285.67 89.041 288.714 89.986 291.758 90.931 C295.403 92.063 299.048 93.193 302.693 94.323 C304.844 94.99 306.994 95.658 309.144 96.327 C316.429 98.588 323.724 100.799 331.045 102.939 C333.261 103.592 335.477 104.246 337.692 104.9 C339.735 105.498 341.781 106.082 343.828 106.665 C363.682 112.524 378.951 122.04 389.248 140.48 C393.753 149.634 395.646 159.395 397.836 169.289 C398.266 171.19 398.697 173.091 399.129 174.992 C400.006 178.861 400.878 182.731 401.744 186.602 C402.956 192.003 404.198 197.397 405.45 202.789 C406.006 205.192 406.563 207.596 407.119 210 C407.471 211.52 407.823 213.039 408.176 214.559 C408.663 216.656 409.145 218.754 409.625 220.852 C409.897 222.028 410.169 223.205 410.448 224.418 C411.024 227.289 411.024 227.289 411.024 230.289 C411.673 230.46 412.322 230.631 412.991 230.806 C420.235 232.743 427.371 234.933 434.504 237.238 C435.675 237.615 436.845 237.991 438.051 238.379 C440.522 239.173 442.992 239.969 445.461 240.766 C449.155 241.958 452.85 243.146 456.545 244.334 C462.548 246.265 468.545 248.211 474.541 250.163 C477.965 251.27 481.393 252.358 484.823 253.444 C486.949 254.127 489.074 254.812 491.2 255.496 C492.149 255.791 493.099 256.087 494.078 256.391 C505.237 260.023 513.698 266.132 522.024 274.289 C522.652 274.881 523.279 275.472 523.926 276.082 C532.962 285.364 537.106 297.4 539.907 309.754 C540.034 310.297 540.034 310.297 540.675 313.048 C541.468 316.46 542.247 319.874 543.024 323.289 C543.51 325.412 543.997 327.534 544.484 329.657 C545.949 336.073 547.393 342.493 548.836 348.914 C549.899 353.63 550.963 358.347 552.028 363.062 C552.288 364.217 552.549 365.372 552.818 366.561 C554.271 372.988 555.739 379.412 557.239 385.828 C557.408 386.552 557.577 387.275 557.751 388.021 C557.919 388.738 558.086 389.456 558.259 390.195 C563.08 410.825 567.591 431.521 572.103 452.221 C577.316 476.13 582.662 500.004 588.149 523.852 C593.247 546.014 598.249 568.193 603.086 590.414 C603.228 591.064 603.369 591.714 603.515 592.384 C604.66 597.642 605.803 602.9 606.946 608.158 C610.341 623.777 613.785 639.386 617.232 654.994 C618.021 658.568 618.81 662.142 619.599 665.716 C621.977 676.49 624.356 687.265 626.736 698.039 C628.051 703.989 629.364 709.939 630.676 715.89 C631.153 718.048 631.629 720.205 632.107 722.363 C632.755 725.294 633.401 728.225 634.047 731.156 C634.141 731.58 634.141 731.58 634.616 733.722 C639.389 755.428 638.678 776.819 627.024 796.289 C622.921 802.554 617.739 807.705 612.421 812.925 C609.731 815.565 607.141 818.214 604.711 821.102 C600.637 825.9 596.107 830.256 591.616 834.659 C588.49 837.743 585.481 840.864 582.618 844.195 C577.942 849.618 572.798 854.561 567.696 859.578 C564.224 863.014 560.825 866.451 557.649 870.164 C552.628 876.007 547.049 881.321 541.567 886.726 C532.304 895.87 532.304 895.87 528.618 900.195 C523.099 906.647 516.885 912.482 510.849 918.444 C505.307 923.923 499.827 929.386 494.768 935.322 C490.25 940.417 485.256 945.09 480.407 949.867 C475.99 954.243 471.746 958.671 467.7 963.391 C464.215 967.339 460.39 970.962 456.629 974.645 C453.494 977.741 450.472 980.873 447.598 984.215 C443.733 988.698 439.557 992.83 435.336 996.977 C427.54 1004.638 427.54 1004.638 424.629 1008.309 C424.364 1008.635 424.364 1008.635 423.024 1010.289 C422.364 1010.289 421.704 1010.289 421.024 1010.289 C420.894 1010.582 420.894 1010.582 420.24 1012.063 C418.932 1014.458 417.527 1016 415.575 1017.898 C414.891 1018.571 414.207 1019.244 413.502 1019.938 C412.788 1020.631 412.073 1021.325 411.336 1022.039 C407.305 1025.97 403.317 1029.877 399.653 1034.156 C395.261 1039.265 390.445 1043.938 385.649 1048.664 C383.847 1050.44 382.048 1052.219 380.25 1054 C379.856 1054.388 379.856 1054.388 377.862 1056.353 C376.024 1058.289 376.024 1058.289 375.024 1060.289 C374.364 1060.289 373.704 1060.289 373.024 1060.289 C372.774 1060.866 372.524 1061.442 372.267 1062.036 C370.85 1064.604 369.235 1066.289 367.137 1068.336 C366.363 1069.099 365.589 1069.862 364.792 1070.648 C363.981 1071.437 363.171 1072.226 362.336 1073.039 C357.295 1077.969 352.41 1082.919 347.818 1088.271 C343.679 1092.928 339.136 1097.212 334.696 1101.578 C331.183 1105.055 327.747 1108.539 324.524 1112.289 C319.886 1117.686 314.766 1122.593 309.696 1127.578 C305.516 1131.715 301.522 1135.925 297.686 1140.382 C285.073 1154.851 269.184 1168.968 249.137 1170.426 C246.911 1170.549 244.69 1170.616 242.461 1170.664 C241.772 1170.69 241.083 1170.716 240.373 1170.743 C235.281 1170.759 230.56 1169.807 225.646 1168.55 C224.944 1168.372 224.242 1168.194 223.519 1168.011 C216.236 1166.134 209.063 1163.928 201.895 1161.656 C200.49 1161.215 199.085 1160.774 197.68 1160.333 C194.01 1159.18 190.342 1158.022 186.674 1156.862 C183.765 1155.944 180.855 1155.03 177.945 1154.116 C158.273 1147.938 138.637 1141.651 119.024 1135.289 C118.036 1134.968 117.047 1134.648 116.029 1134.318 C110.941 1132.666 105.854 1131.011 100.768 1129.352 C98.124 1128.49 95.48 1127.629 92.836 1126.768 C84.457 1124.039 76.078 1121.308 67.702 1118.569 C48.642 1112.338 29.567 1106.167 10.429 1100.18 C-7.812 1094.472 -25.991 1088.578 -44.156 1082.633 C-64.85 1075.86 -85.548 1069.104 -106.289 1062.477 C-107.26 1062.166 -108.232 1061.855 -109.233 1061.535 C-119.257 1058.336 -129.29 1055.172 -139.359 1052.117 C-140.178 1051.868 -140.997 1051.62 -141.842 1051.363 C-145.613 1050.221 -149.386 1049.085 -153.163 1047.964 C-160.074 1045.897 -166.891 1043.669 -173.652 1041.148 C-174.309 1040.904 -174.967 1040.659 -175.644 1040.407 C-192.57 1033.967 -205.13 1021.554 -212.912 1005.338 C-216.37 997.311 -217.927 988.94 -219.613 980.414 C-219.94 978.796 -220.268 977.179 -220.597 975.561 C-221.455 971.335 -222.302 967.108 -223.146 962.879 C-224.504 956.083 -225.88 949.291 -227.254 942.499 C-227.732 940.129 -228.206 937.759 -228.678 935.389 C-228.969 933.946 -229.259 932.502 -229.549 931.059 C-229.801 929.796 -230.053 928.534 -230.313 927.234 C-230.976 924.289 -230.976 924.289 -231.976 922.289 C-234.057 921.426 -234.057 921.426 -236.863 920.547 C-237.928 920.209 -238.993 919.871 -240.091 919.523 C-241.27 919.157 -242.449 918.791 -243.664 918.414 C-244.275 918.22 -244.275 918.22 -247.367 917.239 C-254.003 915.134 -260.654 913.078 -267.313 911.045 C-270.684 910.014 -274.053 908.972 -277.421 907.93 C-279.062 907.426 -280.705 906.926 -282.349 906.433 C-302.222 900.466 -319.771 891.309 -330.684 872.782 C-336.07 862.391 -338.29 851.036 -340.332 839.625 C-340.632 837.993 -340.934 836.36 -341.237 834.728 C-342.055 830.305 -342.858 825.878 -343.658 821.451 C-344.519 816.705 -345.393 811.962 -346.265 807.218 C-348.523 794.912 -350.753 782.601 -352.976 770.289 C-353.163 769.255 -353.35 768.22 -353.542 767.154 C-356.955 748.259 -360.357 729.361 -363.745 710.462 C-368.755 682.513 -373.847 654.58 -379.039 626.664 C-379.196 625.819 -379.353 624.974 -379.515 624.103 C-379.829 622.412 -380.144 620.721 -380.458 619.03 C-381.214 614.964 -381.97 610.898 -382.726 606.832 C-382.87 606.056 -383.015 605.28 -383.163 604.48 C-385.847 590.037 -388.465 575.582 -391.049 561.12 C-394.428 542.216 -397.907 523.332 -401.395 504.447 C-405.926 479.911 -410.437 455.372 -414.871 430.817 C-415.222 428.876 -415.573 426.934 -415.925 424.993 C-416.574 421.406 -417.221 417.818 -417.867 414.23 C-418.053 413.205 -418.238 412.179 -418.43 411.122 C-422.79 386.819 -424.278 363.754 -409.988 342.305 C-408.077 339.855 -406.099 337.556 -403.976 335.289 C-403.682 334.973 -403.682 334.973 -402.195 333.375 C-398.659 329.727 -394.858 326.419 -391.011 323.105 C-388.917 321.237 -386.945 319.289 -384.976 317.289 C-382.416 314.689 -379.808 312.226 -377.039 309.852 C-374.048 307.282 -371.245 304.596 -368.476 301.789 C-365.115 298.382 -361.639 295.214 -358.007 292.102 C-354.936 289.361 -352.088 286.41 -349.199 283.48 C-346.549 280.868 -343.764 278.456 -340.941 276.035 C-338.162 273.565 -335.587 270.91 -332.98 268.262 C-330.394 265.716 -327.661 263.369 -324.91 261.004 C-323.021 259.329 -321.245 257.59 -319.476 255.789 C-317.126 253.396 -314.712 251.157 -312.164 248.977 C-308.953 246.213 -305.953 243.303 -302.976 240.289 C-299.391 236.66 -295.713 233.248 -291.839 229.934 C-289.393 227.775 -287.132 225.458 -284.848 223.13 C-283.051 221.363 -281.2 219.71 -279.289 218.066 C-274.917 214.265 -270.687 210.329 -266.476 206.352 C-265.768 205.687 -265.061 205.023 -264.332 204.338 C-260.084 200.335 -255.919 196.263 -251.824 192.104 C-249.289 189.614 -246.603 187.319 -243.91 185.004 C-242.021 183.329 -240.245 181.59 -238.476 179.789 C-236.106 177.376 -233.669 175.116 -231.101 172.914 C-228.091 170.323 -225.265 167.617 -222.476 164.789 C-219.072 161.339 -215.552 158.123 -211.875 154.969 C-209.385 152.766 -207.082 150.406 -204.753 148.035 C-202.91 146.224 -200.998 144.536 -199.039 142.852 C-196.23 140.433 -193.576 137.93 -190.976 135.289 C-188.436 132.71 -185.852 130.267 -183.101 127.914 C-179.072 124.454 -175.368 120.718 -171.664 116.914 C-168.884 114.199 -165.994 111.663 -163.06 109.119 C-159.727 106.193 -156.511 103.147 -153.289 100.102 C-148.191 95.3 -143.073 90.524 -137.914 85.789 C-134.041 82.233 -130.259 78.613 -126.578 74.859 C-124.793 73.11 -122.932 71.482 -121.039 69.852 C-118.23 67.433 -115.576 64.93 -112.976 62.289 C-110.436 59.71 -107.852 57.267 -105.101 54.914 C-100.992 51.385 -97.23 47.558 -93.425 43.707 C-90.666 40.983 -87.784 38.454 -84.839 35.934 C-82.972 34.285 -81.222 32.566 -79.476 30.789 C-76.464 27.729 -73.317 24.891 -70.054 22.102 C-68.66 20.885 -67.295 19.634 -65.96 18.352 C-48.453 1.752 -23.587 -5.825 0 0 Z " fill="#036EA0" transform="translate(548.97607421875,56.7109375)"/>
<path d="M0 0 C0.735 0.178 1.469 0.355 2.226 0.538 C10.015 2.465 17.645 4.839 25.282 7.289 C26.788 7.767 28.295 8.244 29.802 8.721 C32.962 9.723 36.121 10.727 39.279 11.736 C44.207 13.309 49.139 14.873 54.07 16.436 C54.887 16.695 55.704 16.954 56.545 17.221 C58.184 17.74 59.822 18.259 61.461 18.778 C63.886 19.547 66.312 20.316 68.737 21.086 C80.521 24.824 92.324 28.496 104.149 32.102 C116.431 35.85 128.662 39.731 140.87 43.71 C149.698 46.574 158.564 49.279 167.461 51.914 C176.055 54.462 184.6 57.091 193.086 59.977 C209.876 65.666 226.841 70.809 243.776 76.046 C251.272 78.365 258.765 80.691 266.258 83.018 C271.714 84.711 277.169 86.404 282.625 88.097 C285.67 89.041 288.714 89.986 291.758 90.931 C295.403 92.063 299.048 93.193 302.693 94.323 C304.844 94.99 306.994 95.658 309.144 96.327 C316.429 98.588 323.724 100.799 331.045 102.939 C333.261 103.592 335.477 104.246 337.692 104.9 C339.735 105.498 341.781 106.082 343.828 106.665 C363.682 112.524 378.951 122.04 389.248 140.48 C393.753 149.634 395.646 159.395 397.836 169.289 C398.266 171.19 398.697 173.091 399.129 174.992 C400.006 178.861 400.878 182.731 401.744 186.602 C402.956 192.003 404.198 197.397 405.45 202.789 C406.006 205.192 406.563 207.596 407.119 210 C407.471 211.52 407.823 213.039 408.176 214.559 C408.663 216.656 409.145 218.754 409.625 220.852 C409.897 222.028 410.169 223.205 410.448 224.418 C411.024 227.289 411.024 227.289 411.024 230.289 C413.664 230.949 416.304 231.609 419.024 232.289 C419.024 232.619 419.024 232.949 419.024 233.289 C417.044 233.619 415.064 233.949 413.024 234.289 C412.982 236.622 412.983 238.956 413.024 241.289 C413.354 241.619 413.684 241.949 414.024 242.289 C414.544 244.954 415.018 247.611 415.461 250.289 C417.9 264.548 417.9 264.548 419.926 271.293 C421.424 276.494 422.441 281.802 423.524 287.102 C423.737 288.131 423.949 289.16 424.168 290.221 C425.131 294.891 426.078 299.563 426.993 304.242 C428.196 310.27 429.613 316.245 431.024 322.227 C431.482 324.179 431.94 326.131 432.398 328.083 C432.728 329.495 433.06 330.907 433.391 332.318 C435.894 342.988 438.368 353.665 440.847 364.34 C441.26 366.117 441.673 367.893 442.086 369.67 C442.488 371.401 442.89 373.131 443.291 374.862 C444.216 378.844 445.149 382.824 446.108 386.798 C447.888 394.194 449.486 401.572 450.837 409.062 C452.299 417.022 454.197 424.881 456.066 432.754 C459.539 447.4 462.891 462.066 466.024 476.789 C468.871 490.16 471.899 503.481 475.024 516.789 C478.149 530.098 481.176 543.419 484.024 556.789 C487.047 570.978 490.279 585.111 493.594 599.234 C497.797 617.157 501.779 635.125 505.68 653.116 C505.829 653.799 505.977 654.482 506.129 655.186 C506.274 655.852 506.418 656.518 506.567 657.204 C507.226 660.212 507.907 663.214 508.589 666.217 C512.765 686.121 509.989 706.427 499.123 723.67 C496.207 727.967 492.653 731.6 489.024 735.289 C487.289 737.18 485.56 739.076 483.836 740.977 C478.955 746.309 474.014 751.586 469.074 756.864 C465.875 760.287 462.706 763.731 459.586 767.227 C455.637 771.649 451.587 775.971 447.524 780.289 C442.71 785.406 437.944 790.555 433.266 795.797 C430.021 799.404 426.718 802.958 423.418 806.515 C419.691 810.542 416.045 814.632 412.45 818.777 C411.979 819.276 411.509 819.775 411.024 820.289 C410.694 820.289 410.364 820.289 410.024 820.289 C410.023 819.369 410.022 818.448 410.021 817.5 C409.963 762.945 409.889 708.391 409.795 653.837 C409.784 647.287 409.773 640.737 409.761 634.187 C409.76 633.535 409.76 633.535 409.755 630.235 C409.719 609.12 409.695 588.004 409.674 566.889 C409.652 545.223 409.619 523.557 409.575 501.891 C409.549 488.522 409.531 475.153 409.525 461.783 C409.519 452.616 409.503 443.449 409.478 434.281 C409.464 428.992 409.455 423.703 409.459 418.413 C409.462 413.568 409.452 408.722 409.431 403.877 C409.425 402.127 409.425 400.377 409.431 398.627 C409.483 379.4 404.803 363.931 390.969 350.016 C379.704 339.288 365.165 333.123 349.632 333.158 C348.773 333.156 347.914 333.154 347.029 333.151 C344.132 333.146 341.235 333.147 338.338 333.149 C336.248 333.146 334.157 333.143 332.067 333.14 C326.307 333.132 320.548 333.13 314.788 333.129 C308.582 333.127 302.376 333.12 296.169 333.113 C281.883 333.099 267.596 333.093 253.309 333.088 C246.248 333.086 239.187 333.082 232.126 333.078 C207.955 333.066 183.784 333.055 159.612 333.051 C158.095 333.051 156.577 333.051 155.06 333.051 C153.538 333.051 152.017 333.05 150.496 333.05 C147.444 333.05 144.392 333.049 141.34 333.049 C140.584 333.049 139.827 333.049 139.047 333.048 C114.519 333.045 89.991 333.029 65.462 333.006 C39.528 332.981 13.594 332.967 -12.341 332.966 C-15.189 332.966 -18.037 332.966 -20.885 332.965 C-21.235 332.965 -21.235 332.965 -23.01 332.965 C-34.288 332.964 -45.566 332.953 -56.844 332.939 C-68.185 332.924 -79.526 332.921 -90.866 332.929 C-97.009 332.933 -103.151 332.932 -109.293 332.918 C-114.919 332.905 -120.544 332.906 -126.17 332.919 C-128.202 332.921 -130.235 332.917 -132.267 332.909 C-152.05 332.829 -169.09 335.706 -183.875 350.129 C-184.568 350.842 -185.262 351.555 -185.976 352.289 C-186.525 352.806 -187.074 353.323 -187.64 353.855 C-191.357 357.662 -193.73 362.231 -196.164 366.914 C-196.497 367.541 -196.83 368.167 -197.174 368.813 C-203.089 380.718 -203.413 393.107 -203.357 406.083 C-203.36 407.858 -203.365 409.632 -203.371 411.407 C-203.384 416.254 -203.378 421.1 -203.368 425.946 C-203.361 431.185 -203.372 436.424 -203.38 441.662 C-203.394 451.913 -203.391 462.163 -203.382 472.414 C-203.375 480.748 -203.374 489.082 -203.378 497.416 C-203.378 498.009 -203.378 498.009 -203.379 501.014 C-203.38 503.427 -203.381 505.84 -203.382 508.253 C-203.39 530.862 -203.381 553.471 -203.364 576.08 C-203.351 595.464 -203.353 614.847 -203.367 634.231 C-203.383 656.76 -203.39 679.288 -203.38 701.816 C-203.379 704.22 -203.378 706.625 -203.378 709.029 C-203.377 710.211 -203.377 711.394 -203.376 712.613 C-203.374 720.933 -203.378 729.252 -203.385 737.572 C-203.393 747.717 -203.391 757.862 -203.375 768.007 C-203.367 773.179 -203.364 778.351 -203.374 783.524 C-203.383 788.265 -203.378 793.007 -203.362 797.749 C-203.359 799.457 -203.36 801.165 -203.368 802.874 C-203.44 821.269 -200.399 838.265 -188.976 853.289 C-188.453 853.977 -187.929 854.666 -187.39 855.375 C-182.976 860.783 -177.879 864.608 -171.976 868.289 C-171.364 868.68 -170.751 869.07 -170.121 869.473 C-156.9 876.973 -141.538 876.862 -126.842 876.77 C-124.741 876.772 -122.64 876.775 -120.539 876.78 C-114.806 876.789 -109.073 876.773 -103.34 876.753 C-97.143 876.736 -90.945 876.742 -84.748 876.745 C-74.024 876.747 -63.299 876.735 -52.575 876.712 C-41.335 876.688 -30.094 876.673 -18.854 876.669 C-18.154 876.668 -17.453 876.668 -16.732 876.668 C-13.174 876.666 -9.617 876.665 -6.06 876.664 C19.099 876.656 44.258 876.629 69.417 876.591 C93.85 876.554 118.283 876.526 142.716 876.509 C143.47 876.508 144.224 876.508 145.001 876.507 C152.572 876.502 160.143 876.497 167.715 876.492 C183.136 876.482 198.558 876.47 213.98 876.458 C214.689 876.458 215.398 876.457 216.128 876.457 C263.427 876.42 310.725 876.357 358.024 876.289 C357.063 877.413 356.102 878.537 355.141 879.66 C354.605 880.286 354.07 880.912 353.519 881.557 C351.913 883.418 350.267 885.229 348.579 887.016 C348.281 887.332 348.281 887.332 346.774 888.931 C346.155 889.586 345.537 890.24 344.899 890.914 C343.561 892.334 342.224 893.755 340.887 895.176 C340.559 895.525 340.559 895.525 338.897 897.291 C336.276 900.087 333.68 902.905 331.086 905.727 C324.482 912.904 317.789 919.996 311.097 927.091 C284.242 955.565 284.242 955.565 273.586 967.227 C268.629 972.652 263.604 978.012 258.571 983.367 C254.862 987.317 251.178 991.287 247.524 995.289 C242.66 1000.614 237.741 1005.884 232.797 1011.134 C229.586 1014.546 226.392 1017.971 223.235 1021.434 C222.622 1022.102 222.008 1022.771 221.377 1023.46 C220.227 1024.715 219.081 1025.976 217.943 1027.241 C212.255 1033.428 206.116 1038.122 198.399 1041.539 C197.334 1042.019 196.269 1042.498 195.172 1042.992 C188.982 1045.542 184.105 1046.622 177.461 1046.539 C176.666 1046.532 175.87 1046.524 175.05 1046.516 C164.031 1046.318 154.318 1044.279 143.926 1040.629 C140.102 1039.293 136.231 1038.151 132.336 1037.039 C124.975 1034.916 117.686 1032.591 110.399 1030.227 C98.726 1026.44 87.01 1022.813 75.274 1019.227 C62.586 1015.347 49.955 1011.345 37.387 1007.09 C30.919 1004.903 24.409 1002.85 17.898 1000.796 C12.148 998.978 6.424 997.095 0.711 995.164 C-5.772 992.974 -12.296 990.998 -18.873 989.111 C-23.224 987.847 -27.474 986.426 -31.726 984.852 C-37.05 982.9 -42.395 981.292 -47.859 979.785 C-62.32 975.72 -76.602 971.074 -90.906 966.492 C-94.56 965.322 -98.215 964.155 -101.871 962.988 C-106.12 961.631 -110.37 960.274 -114.619 958.916 C-124.731 955.684 -134.849 952.472 -144.976 949.289 C-145.452 949.139 -145.452 949.139 -147.861 948.382 C-152.205 947.017 -156.55 945.652 -160.894 944.286 C-183.95 937.041 -206.998 929.778 -229.976 922.289 C-230.306 922.949 -230.636 923.609 -230.976 924.289 C-231.306 923.629 -231.636 922.969 -231.976 922.289 C-234.057 921.426 -234.057 921.426 -236.863 920.547 C-237.928 920.209 -238.993 919.871 -240.091 919.523 C-241.27 919.157 -242.449 918.791 -243.664 918.414 C-244.275 918.22 -244.275 918.22 -247.367 917.239 C-254.003 915.134 -260.654 913.078 -267.313 911.045 C-270.684 910.014 -274.053 908.972 -277.421 907.93 C-279.062 907.426 -280.705 906.926 -282.349 906.433 C-302.222 900.466 -319.771 891.309 -330.684 872.782 C-336.07 862.391 -338.29 851.036 -340.332 839.625 C-340.632 837.993 -340.934 836.36 -341.237 834.728 C-342.055 830.305 -342.858 825.878 -343.658 821.451 C-344.519 816.705 -345.393 811.962 -346.265 807.218 C-348.523 794.912 -350.753 782.601 -352.976 770.289 C-353.163 769.255 -353.35 768.22 -353.542 767.154 C-356.955 748.259 -360.357 729.361 -363.745 710.462 C-368.755 682.513 -373.847 654.58 -379.039 626.664 C-379.196 625.819 -379.353 624.974 -379.515 624.103 C-379.829 622.412 -380.144 620.721 -380.458 619.03 C-381.214 614.964 -381.97 610.898 -382.726 606.832 C-382.87 606.056 -383.015 605.28 -383.163 604.48 C-385.847 590.037 -388.465 575.582 -391.049 561.12 C-394.428 542.216 -397.907 523.332 -401.395 504.447 C-405.926 479.911 -410.437 455.372 -414.871 430.817 C-415.222 428.876 -415.573 426.934 -415.925 424.993 C-416.574 421.406 -417.221 417.818 -417.867 414.23 C-418.053 413.205 -418.238 412.179 -418.43 411.122 C-422.79 386.819 -424.278 363.754 -409.988 342.305 C-408.077 339.855 -406.099 337.556 -403.976 335.289 C-403.682 334.973 -403.682 334.973 -402.195 333.375 C-398.659 329.727 -394.858 326.419 -391.011 323.105 C-388.917 321.237 -386.945 319.289 -384.976 317.289 C-382.416 314.689 -379.808 312.226 -377.039 309.852 C-374.048 307.282 -371.245 304.596 -368.476 301.789 C-365.115 298.382 -361.639 295.214 -358.007 292.102 C-354.936 289.361 -352.088 286.41 -349.199 283.48 C-346.549 280.868 -343.764 278.456 -340.941 276.035 C-338.162 273.565 -335.587 270.91 -332.98 268.262 C-330.394 265.716 -327.661 263.369 -324.91 261.004 C-323.021 259.329 -321.245 257.59 -319.476 255.789 C-317.126 253.396 -314.712 251.157 -312.164 248.977 C-308.953 246.213 -305.953 243.303 -302.976 240.289 C-299.391 236.66 -295.713 233.248 -291.839 229.934 C-289.393 227.775 -287.132 225.458 -284.848 223.13 C-283.051 221.363 -281.2 219.71 -279.289 218.066 C-274.917 214.265 -270.687 210.329 -266.476 206.352 C-265.768 205.687 -265.061 205.023 -264.332 204.338 C-260.084 200.335 -255.919 196.263 -251.824 192.104 C-249.289 189.614 -246.603 187.319 -243.91 185.004 C-242.021 183.329 -240.245 181.59 -238.476 179.789 C-236.106 177.376 -233.669 175.116 -231.101 172.914 C-228.091 170.323 -225.265 167.617 -222.476 164.789 C-219.072 161.339 -215.552 158.123 -211.875 154.969 C-209.385 152.766 -207.082 150.406 -204.753 148.035 C-202.91 146.224 -200.998 144.536 -199.039 142.852 C-196.23 140.433 -193.576 137.93 -190.976 135.289 C-188.436 132.71 -185.852 130.267 -183.101 127.914 C-179.072 124.454 -175.368 120.718 -171.664 116.914 C-168.884 114.199 -165.994 111.663 -163.06 109.119 C-159.727 106.193 -156.511 103.147 -153.289 100.102 C-148.191 95.3 -143.073 90.524 -137.914 85.789 C-134.041 82.233 -130.259 78.613 -126.578 74.859 C-124.793 73.11 -122.932 71.482 -121.039 69.852 C-118.23 67.433 -115.576 64.93 -112.976 62.289 C-110.436 59.71 -107.852 57.267 -105.101 54.914 C-100.992 51.385 -97.23 47.558 -93.425 43.707 C-90.666 40.983 -87.784 38.454 -84.839 35.934 C-82.972 34.285 -81.222 32.566 -79.476 30.789 C-76.464 27.729 -73.317 24.891 -70.054 22.102 C-68.66 20.885 -67.295 19.634 -65.96 18.352 C-48.453 1.752 -23.587 -5.825 0 0 Z " fill="#03AFFB" transform="translate(548.97607421875,56.7109375)"/>
<path d="M0 0 C0.827 -0.005 1.654 -0.011 2.506 -0.016 C5.278 -0.03 8.048 -0.023 10.82 -0.015 C12.827 -0.021 14.834 -0.028 16.841 -0.036 C22.356 -0.054 27.872 -0.054 33.387 -0.05 C39.336 -0.05 45.284 -0.066 51.232 -0.08 C62.887 -0.105 74.541 -0.114 86.195 -0.115 C95.667 -0.117 105.14 -0.123 114.612 -0.132 C117.339 -0.135 120.067 -0.138 122.794 -0.14 C123.133 -0.141 123.133 -0.141 124.849 -0.142 C143.919 -0.161 162.989 -0.173 182.059 -0.171 C182.778 -0.171 183.497 -0.171 184.238 -0.171 C187.882 -0.171 191.525 -0.171 195.169 -0.17 C195.531 -0.17 195.531 -0.17 197.362 -0.17 C198.825 -0.17 200.289 -0.17 201.752 -0.17 C224.518 -0.168 247.284 -0.19 270.05 -0.232 C295.631 -0.278 321.213 -0.303 346.794 -0.301 C349.523 -0.3 352.251 -0.3 354.98 -0.3 C355.652 -0.3 356.324 -0.3 357.016 -0.3 C367.821 -0.3 378.626 -0.319 389.431 -0.345 C400.293 -0.37 411.154 -0.373 422.016 -0.354 C427.899 -0.344 433.782 -0.344 439.665 -0.37 C445.053 -0.393 450.44 -0.389 455.827 -0.363 C457.774 -0.358 459.721 -0.364 461.668 -0.38 C473.977 -0.479 482.532 0.415 492.282 8.694 C492.87 9.397 493.458 10.1 494.064 10.823 C494.672 11.523 495.281 12.223 495.907 12.944 C499.695 18.528 500.939 23.079 500.941 29.8 C500.943 30.158 500.943 30.158 500.954 31.971 C500.965 34.366 500.955 36.761 500.945 39.157 C500.948 40.894 500.953 42.63 500.959 44.367 C500.971 49.136 500.965 53.905 500.956 58.674 C500.949 63.818 500.96 68.963 500.968 74.107 C500.981 84.184 500.978 94.261 500.97 104.338 C500.963 112.528 500.962 120.718 500.965 128.907 C500.966 130.072 500.966 131.237 500.967 132.438 C500.968 134.805 500.969 137.172 500.969 139.539 C500.978 161.74 500.968 183.941 500.952 206.142 C500.939 225.194 500.941 244.245 500.955 263.296 C500.971 285.416 500.977 307.535 500.968 329.655 C500.967 332.014 500.966 334.372 500.965 336.731 C500.965 337.891 500.964 339.052 500.964 340.247 C500.961 348.427 500.966 356.607 500.973 364.787 C500.981 374.755 500.979 384.723 500.963 394.692 C500.955 399.778 500.952 404.865 500.962 409.951 C500.971 414.608 500.966 419.264 500.95 423.921 C500.946 425.605 500.948 427.289 500.955 428.974 C501 440.041 500.638 449.896 492.564 458.386 C485.041 464.386 485.041 464.386 480.564 464.386 C480.564 465.046 480.564 465.706 480.564 466.386 C476.884 467.612 473.495 467.528 469.664 467.52 C468.846 467.522 468.028 467.525 467.186 467.527 C464.423 467.534 461.659 467.533 458.896 467.533 C456.904 467.536 454.912 467.54 452.92 467.544 C447.428 467.554 441.936 467.558 436.443 467.561 C430.527 467.565 424.611 467.574 418.694 467.583 C405.072 467.602 391.451 467.612 377.829 467.62 C371.098 467.624 364.367 467.63 357.636 467.635 C334.597 467.653 311.557 467.668 288.518 467.675 C287.071 467.676 285.625 467.676 284.178 467.677 C283.461 467.677 282.743 467.677 282.004 467.677 C278.369 467.679 274.734 467.68 271.1 467.681 C270.739 467.681 270.739 467.681 268.914 467.682 C245.529 467.69 222.144 467.713 198.759 467.746 C174.037 467.78 149.316 467.8 124.595 467.803 C121.88 467.803 119.166 467.804 116.452 467.804 C116.118 467.804 116.118 467.804 114.427 467.805 C104.339 467.807 94.252 467.82 84.164 467.839 C72.687 467.861 61.211 467.869 49.734 467.859 C43.878 467.855 38.021 467.857 32.165 467.876 C26.803 467.894 21.441 467.893 16.078 467.877 C14.139 467.875 12.2 467.879 10.262 467.891 C-3.221 467.968 -13.294 467.243 -23.526 457.534 C-26.286 454.43 -28.012 451.267 -29.436 447.386 C-29.606 446.944 -29.606 446.944 -30.467 444.707 C-31.537 441.041 -31.689 438.013 -31.694 434.197 C-31.697 433.493 -31.701 432.789 -31.704 432.063 C-31.713 429.703 -31.709 427.343 -31.704 424.983 C-31.707 423.274 -31.712 421.565 -31.717 419.856 C-31.73 415.159 -31.729 410.462 -31.727 405.765 C-31.727 400.7 -31.738 395.634 -31.747 390.569 C-31.764 380.644 -31.769 370.719 -31.77 360.794 C-31.771 352.725 -31.775 344.657 -31.782 336.589 C-31.799 313.716 -31.809 290.842 -31.807 267.968 C-31.807 266.734 -31.807 265.501 -31.807 264.23 C-31.807 262.996 -31.807 261.761 -31.807 260.488 C-31.806 240.479 -31.825 220.47 -31.853 200.461 C-31.882 179.916 -31.896 159.371 -31.894 138.826 C-31.893 127.291 -31.899 115.756 -31.92 104.222 C-31.939 94.4 -31.943 84.579 -31.929 74.757 C-31.923 69.747 -31.923 64.737 -31.94 59.727 C-31.956 55.137 -31.953 50.547 -31.935 45.957 C-31.932 44.3 -31.936 42.644 -31.947 40.987 C-32.024 28.716 -31.048 18.282 -22.159 9.034 C-15.336 2.505 -9.421 -0.076 0 0 Z " fill="#FAFAFB" transform="translate(417.4362678527832,427.6140966415405)"/>
<path d="M0 0 C0.735 0.178 1.469 0.355 2.226 0.538 C10.015 2.465 17.645 4.839 25.282 7.289 C26.788 7.767 28.295 8.244 29.802 8.721 C32.962 9.723 36.121 10.727 39.279 11.736 C44.207 13.309 49.139 14.873 54.07 16.436 C54.887 16.695 55.704 16.954 56.545 17.221 C58.184 17.74 59.822 18.259 61.461 18.778 C63.886 19.547 66.312 20.316 68.737 21.086 C80.521 24.824 92.324 28.496 104.149 32.102 C116.431 35.85 128.662 39.731 140.87 43.71 C149.698 46.574 158.564 49.279 167.461 51.914 C176.055 54.462 184.6 57.091 193.086 59.977 C209.876 65.666 226.841 70.809 243.776 76.046 C251.272 78.365 258.765 80.691 266.258 83.018 C271.714 84.711 277.169 86.404 282.625 88.097 C285.67 89.041 288.714 89.986 291.758 90.931 C295.403 92.063 299.048 93.193 302.693 94.323 C304.844 94.99 306.994 95.658 309.144 96.327 C316.429 98.588 323.724 100.799 331.045 102.939 C333.261 103.592 335.477 104.246 337.692 104.9 C339.735 105.498 341.781 106.082 343.828 106.665 C363.695 112.528 378.91 122.039 389.243 140.463 C393.831 149.757 395.733 159.737 397.961 169.789 C398.397 171.716 398.833 173.643 399.27 175.57 C400.132 179.382 400.988 183.196 401.839 187.011 C402.865 191.602 403.927 196.183 405.004 200.762 C405.553 203.125 406.101 205.488 406.649 207.852 C406.896 208.888 407.144 209.924 407.399 210.992 C408.806 217.189 409.321 222.938 409.024 229.289 C402.408 228.766 396.761 227.441 390.524 225.227 C388.661 224.586 386.798 223.946 384.934 223.309 C383.966 222.976 382.998 222.642 382.001 222.299 C377.009 220.605 371.985 219.011 366.961 217.414 C364.846 216.74 362.73 216.065 360.614 215.391 C359.539 215.048 358.463 214.705 357.355 214.353 C351.575 212.507 345.8 210.648 340.024 208.789 C314.1 200.453 288.167 192.166 262.137 184.168 C251.922 181.029 241.718 177.876 231.586 174.477 C215.05 168.928 198.427 163.653 181.722 158.635 C176.841 157.166 171.993 155.63 167.163 154.001 C163.123 152.656 159.048 151.425 154.975 150.184 C151.667 149.162 148.412 148.077 145.18 146.832 C140.39 145.006 135.498 143.563 130.586 142.102 C122.014 139.525 113.479 136.852 104.961 134.102 C97.37 131.653 89.783 129.274 82.086 127.176 C78.024 126 74.031 124.64 70.024 123.289 C65.925 121.92 61.819 120.569 57.711 119.227 C56.66 118.875 55.609 118.524 54.526 118.162 C35.422 111.951 17.357 111.244 -0.851 120.477 C-11.162 126.025 -19.354 135.53 -27.515 143.766 C-28.49 144.745 -29.466 145.724 -30.441 146.703 C-33.498 149.771 -36.55 152.842 -39.601 155.914 C-43.151 159.488 -46.702 163.06 -50.258 166.627 C-51.663 168.038 -53.064 169.452 -54.465 170.866 C-58.195 174.61 -61.917 178.304 -65.931 181.744 C-70.68 185.822 -75.062 190.262 -79.467 194.705 C-81.013 196.264 -82.562 197.82 -84.113 199.375 C-87.403 202.677 -90.69 205.983 -93.976 209.289 C-97.789 213.126 -101.604 216.962 -105.424 220.793 C-106.937 222.312 -108.447 223.835 -109.957 225.357 C-113.842 229.263 -117.718 233.139 -121.908 236.721 C-126.999 241.085 -131.672 245.874 -136.393 250.631 C-138.107 252.358 -139.825 254.082 -141.543 255.805 C-145.19 259.463 -148.833 263.126 -152.476 266.789 C-156.702 271.039 -160.931 275.288 -165.163 279.532 C-166.842 281.217 -168.518 282.906 -170.194 284.595 C-175.003 289.427 -179.849 294.14 -185.034 298.572 C-189.016 302.093 -192.707 305.92 -196.445 309.695 C-197.325 310.579 -198.204 311.462 -199.111 312.373 C-201.902 315.176 -204.689 317.982 -207.476 320.789 C-211.15 324.49 -214.828 328.187 -218.507 331.883 C-219.338 332.722 -220.168 333.56 -221.024 334.424 C-224.48 337.895 -227.932 341.307 -231.659 344.486 C-238.258 350.164 -244.336 356.421 -250.511 362.551 C-251.201 363.235 -251.891 363.92 -252.602 364.626 C-256.251 368.248 -259.896 371.873 -263.539 375.502 C-266.534 378.483 -269.535 381.457 -272.544 384.425 C-276.202 388.033 -279.847 391.654 -283.484 395.283 C-284.861 396.654 -286.242 398.02 -287.628 399.382 C-297.339 408.933 -305.95 418.187 -309.351 431.789 C-309.648 432.934 -309.944 434.078 -310.25 435.258 C-310.489 436.258 -310.729 437.258 -310.976 438.289 C-311.152 438.923 -311.327 439.557 -311.508 440.211 C-314.62 454.031 -311.334 469.595 -308.664 483.227 C-308.308 485.118 -307.955 487.01 -307.604 488.902 C-306.833 493.055 -306.053 497.207 -305.269 501.358 C-303.183 512.469 -301.227 523.603 -299.258 534.735 C-298.425 539.442 -297.587 544.149 -296.746 548.855 C-294.746 560.079 -292.78 571.301 -291.046 582.569 C-289.753 590.888 -288.196 599.157 -286.647 607.431 C-282.405 630.126 -278.392 652.859 -274.414 675.602 C-273.296 681.99 -272.178 688.378 -271.058 694.766 C-270.923 695.535 -270.788 696.304 -270.65 697.097 C-268.347 710.232 -265.999 723.359 -263.601 736.477 C-263.446 737.328 -263.29 738.179 -263.13 739.056 C-262.38 743.156 -261.63 747.256 -260.879 751.355 C-259.412 759.364 -257.955 767.375 -256.507 775.387 C-256.201 777.082 -255.893 778.776 -255.584 780.471 C-252.943 794.948 -252.943 794.948 -252.472 800.059 C-252.142 803.54 -251.42 806.827 -250.601 810.227 C-248.433 819.279 -247.065 828.455 -245.601 837.642 C-244.209 846.335 -242.687 854.912 -240.624 863.478 C-239.732 867.349 -239.148 871.232 -238.601 875.164 C-237.358 883.571 -235.611 891.821 -233.753 900.111 C-232.189 907.142 -230.895 914.141 -229.976 921.289 C-236.496 920.704 -242.301 919.116 -248.511 917.086 C-249.009 916.926 -249.009 916.926 -251.53 916.117 C-254.702 915.098 -257.87 914.069 -261.039 913.039 C-263.139 912.363 -265.24 911.687 -267.341 911.012 C-272.336 909.404 -277.326 907.785 -282.313 906.158 C-284.004 905.606 -285.695 905.056 -287.387 904.507 C-289.462 903.834 -291.536 903.156 -293.609 902.477 C-294.718 902.114 -295.826 901.752 -296.969 901.379 C-311.858 895.983 -324.681 884.363 -331.976 870.289 C-336.137 860.314 -338.435 850.226 -340.332 839.625 C-340.632 837.993 -340.934 836.36 -341.237 834.728 C-342.055 830.305 -342.858 825.878 -343.658 821.451 C-344.519 816.705 -345.393 811.962 -346.265 807.218 C-348.523 794.912 -350.753 782.601 -352.976 770.289 C-353.163 769.255 -353.35 768.22 -353.542 767.154 C-356.955 748.259 -360.357 729.361 -363.745 710.462 C-368.755 682.513 -373.847 654.58 -379.039 626.664 C-379.196 625.819 -379.353 624.974 -379.515 624.103 C-379.829 622.412 -380.144 620.721 -380.458 619.03 C-381.214 614.964 -381.97 610.898 -382.726 606.832 C-382.87 606.056 -383.015 605.28 -383.163 604.48 C-385.847 590.037 -388.465 575.582 -391.049 561.12 C-394.428 542.216 -397.907 523.332 -401.395 504.447 C-405.926 479.911 -410.437 455.372 -414.871 430.817 C-415.222 428.876 -415.573 426.934 -415.925 424.993 C-416.574 421.406 -417.221 417.818 -417.867 414.23 C-418.053 413.205 -418.238 412.179 -418.43 411.122 C-422.79 386.819 -424.278 363.754 -409.988 342.305 C-408.077 339.855 -406.099 337.556 -403.976 335.289 C-403.682 334.973 -403.682 334.973 -402.195 333.375 C-398.659 329.727 -394.858 326.419 -391.011 323.105 C-388.917 321.237 -386.945 319.289 -384.976 317.289 C-382.416 314.689 -379.808 312.226 -377.039 309.852 C-374.048 307.282 -371.245 304.596 -368.476 301.789 C-365.115 298.382 -361.639 295.214 -358.007 292.102 C-354.936 289.361 -352.088 286.41 -349.199 283.48 C-346.549 280.868 -343.764 278.456 -340.941 276.035 C-338.162 273.565 -335.587 270.91 -332.98 268.262 C-330.394 265.716 -327.661 263.369 -324.91 261.004 C-323.021 259.329 -321.245 257.59 -319.476 255.789 C-317.126 253.396 -314.712 251.157 -312.164 248.977 C-308.953 246.213 -305.953 243.303 -302.976 240.289 C-299.391 236.66 -295.713 233.248 -291.839 229.934 C-289.393 227.775 -287.132 225.458 -284.848 223.13 C-283.051 221.363 -281.2 219.71 -279.289 218.066 C-274.917 214.265 -270.687 210.329 -266.476 206.352 C-265.768 205.687 -265.061 205.023 -264.332 204.338 C-260.084 200.335 -255.919 196.263 -251.824 192.104 C-249.289 189.614 -246.603 187.319 -243.91 185.004 C-242.021 183.329 -240.245 181.59 -238.476 179.789 C-236.106 177.376 -233.669 175.116 -231.101 172.914 C-228.091 170.323 -225.265 167.617 -222.476 164.789 C-219.072 161.339 -215.552 158.123 -211.875 154.969 C-209.385 152.766 -207.082 150.406 -204.753 148.035 C-202.91 146.224 -200.998 144.536 -199.039 142.852 C-196.23 140.433 -193.576 137.93 -190.976 135.289 C-188.436 132.71 -185.852 130.267 -183.101 127.914 C-179.072 124.454 -175.368 120.718 -171.664 116.914 C-168.884 114.199 -165.994 111.663 -163.06 109.119 C-159.727 106.193 -156.511 103.147 -153.289 100.102 C-148.191 95.3 -143.073 90.524 -137.914 85.789 C-134.041 82.233 -130.259 78.613 -126.578 74.859 C-124.793 73.11 -122.932 71.482 -121.039 69.852 C-118.23 67.433 -115.576 64.93 -112.976 62.289 C-110.436 59.71 -107.852 57.267 -105.101 54.914 C-100.992 51.385 -97.23 47.558 -93.425 43.707 C-90.666 40.983 -87.784 38.454 -84.839 35.934 C-82.972 34.285 -81.222 32.566 -79.476 30.789 C-76.464 27.729 -73.317 24.891 -70.054 22.102 C-68.66 20.885 -67.295 19.634 -65.96 18.352 C-48.453 1.752 -23.587 -5.825 0 0 Z " fill="#0350A3" transform="translate(548.97607421875,56.7109375)"/>
<path d="M0 0 C0.865 -0.004 1.731 -0.007 2.622 -0.011 C5.506 -0.02 8.389 -0.015 11.273 -0.01 C13.368 -0.014 15.462 -0.018 17.557 -0.024 C23.302 -0.036 29.046 -0.036 34.79 -0.033 C40.99 -0.033 47.19 -0.044 53.39 -0.054 C65.531 -0.07 77.673 -0.076 89.815 -0.077 C99.684 -0.078 109.554 -0.082 119.423 -0.088 C122.267 -0.09 125.11 -0.092 127.953 -0.094 C128.307 -0.094 128.307 -0.094 130.095 -0.095 C149.972 -0.107 169.848 -0.115 189.725 -0.114 C190.099 -0.114 190.099 -0.114 191.995 -0.114 C195.791 -0.114 199.587 -0.114 203.383 -0.114 C204.137 -0.114 204.891 -0.113 205.667 -0.113 C207.192 -0.113 208.716 -0.113 210.241 -0.113 C233.961 -0.112 257.68 -0.127 281.4 -0.154 C308.062 -0.185 334.725 -0.202 361.387 -0.2 C364.231 -0.2 367.075 -0.2 369.92 -0.2 C370.27 -0.2 370.27 -0.2 372.042 -0.2 C383.299 -0.2 394.556 -0.213 405.813 -0.23 C417.131 -0.247 428.448 -0.249 439.766 -0.236 C445.894 -0.229 452.022 -0.229 458.15 -0.246 C463.764 -0.262 469.378 -0.259 474.992 -0.242 C477.019 -0.239 479.046 -0.242 481.072 -0.254 C502.335 -0.363 518.65 4.754 534.497 19.507 C544.495 29.876 551.12 44.492 551.124 58.914 C551.127 59.657 551.13 60.399 551.133 61.164 C551.14 63.649 551.133 66.133 551.126 68.618 C551.128 70.419 551.132 72.219 551.136 74.02 C551.144 78.966 551.14 83.912 551.134 88.857 C551.129 94.192 551.136 99.527 551.142 104.861 C551.151 115.31 551.149 125.759 551.143 136.208 C551.138 144.698 551.138 153.188 551.14 161.678 C551.14 162.886 551.14 164.093 551.141 165.338 C551.141 167.791 551.142 170.244 551.143 172.697 C551.148 195.707 551.142 218.716 551.131 241.725 C551.122 261.479 551.124 281.232 551.133 300.985 C551.144 323.915 551.148 346.844 551.142 369.773 C551.141 372.217 551.14 374.66 551.14 377.104 C551.14 378.306 551.139 379.509 551.139 380.748 C551.137 389.231 551.14 397.714 551.145 406.197 C551.15 416.53 551.149 426.863 551.138 437.196 C551.133 442.471 551.131 447.745 551.138 453.02 C551.143 457.844 551.14 462.669 551.13 467.494 C551.127 469.243 551.129 470.991 551.133 472.74 C551.139 475.111 551.133 477.482 551.124 479.852 C551.124 481.171 551.123 482.49 551.123 483.849 C550.65 490.284 548.281 493.189 543.685 497.57 C539.752 501.375 536.035 505.267 532.482 509.429 C530.308 511.898 527.967 514.173 525.622 516.476 C523.79 518.341 522.079 520.277 520.372 522.257 C517.592 525.484 514.67 528.488 511.626 531.464 C509.177 533.968 506.958 536.651 504.743 539.363 C500.463 543.697 496.88 545.704 490.696 545.789 C489.908 545.78 489.12 545.77 488.307 545.761 C487.454 545.766 486.601 545.772 485.722 545.778 C482.856 545.793 479.991 545.779 477.125 545.765 C475.052 545.77 472.979 545.776 470.907 545.784 C465.205 545.801 459.503 545.793 453.801 545.78 C447.653 545.771 441.506 545.785 435.358 545.796 C424.007 545.813 412.655 545.811 401.304 545.8 C390.811 545.79 380.319 545.788 369.826 545.793 C369.13 545.793 368.434 545.793 367.717 545.793 C364.892 545.795 362.067 545.796 359.241 545.797 C332.726 545.81 306.21 545.798 279.695 545.777 C256.157 545.758 232.619 545.76 209.082 545.779 C182.63 545.8 156.178 545.809 129.726 545.796 C126.903 545.795 124.08 545.794 121.256 545.793 C120.561 545.792 119.866 545.792 119.15 545.792 C108.673 545.787 98.196 545.792 87.719 545.802 C75.793 545.814 63.867 545.811 51.942 545.789 C45.86 545.779 39.778 545.775 33.696 545.788 C28.121 545.8 22.545 545.793 16.97 545.772 C14.961 545.768 12.951 545.77 10.942 545.78 C-10.418 545.875 -28.685 542.26 -44.69 526.859 C-57.039 513.679 -63.242 496.662 -63.259 478.717 C-63.261 477.987 -63.263 477.256 -63.265 476.504 C-63.271 474.062 -63.27 471.62 -63.268 469.179 C-63.271 467.408 -63.274 465.638 -63.277 463.867 C-63.285 459.005 -63.287 454.144 -63.288 449.282 C-63.29 444.037 -63.297 438.792 -63.304 433.547 C-63.318 422.08 -63.324 410.613 -63.328 399.146 C-63.331 391.984 -63.335 384.823 -63.339 377.661 C-63.352 357.828 -63.362 337.994 -63.365 318.161 C-63.366 316.892 -63.366 315.623 -63.366 314.315 C-63.366 313.043 -63.366 311.771 -63.367 310.46 C-63.367 307.883 -63.368 305.305 -63.368 302.727 C-63.368 301.449 -63.368 300.17 -63.369 298.853 C-63.373 278.137 -63.39 257.421 -63.413 236.705 C-63.437 215.43 -63.45 194.155 -63.451 172.88 C-63.452 160.937 -63.457 148.995 -63.476 137.052 C-63.491 126.882 -63.496 116.713 -63.488 106.543 C-63.484 101.357 -63.485 96.171 -63.499 90.984 C-63.512 86.231 -63.51 81.477 -63.498 76.724 C-63.496 75.01 -63.499 73.296 -63.508 71.582 C-63.569 58.75 -62.568 46.663 -56.503 35.07 C-56.33 34.734 -56.33 34.734 -55.458 33.033 C-52.196 26.937 -48.122 22.038 -43.128 17.257 C-42.539 16.637 -41.95 16.017 -41.343 15.378 C-37.167 11.277 -32.417 8.6 -27.253 5.945 C-26.605 5.607 -25.957 5.269 -25.29 4.921 C-17.24 0.973 -8.879 -0.046 0 0 Z M-17.128 52.257 C-20.863 58.841 -22.251 64.654 -22.265 72.197 C-22.267 72.899 -22.27 73.601 -22.273 74.323 C-22.281 76.687 -22.281 79.05 -22.282 81.413 C-22.286 83.119 -22.29 84.826 -22.295 86.533 C-22.307 91.232 -22.313 95.932 -22.317 100.631 C-22.323 105.696 -22.335 110.761 -22.345 115.826 C-22.37 128.063 -22.385 140.3 -22.398 152.538 C-22.401 155.994 -22.405 159.45 -22.409 162.907 C-22.434 184.368 -22.457 205.83 -22.469 227.292 C-22.472 232.264 -22.475 237.235 -22.478 242.207 C-22.479 243.443 -22.479 244.678 -22.48 245.952 C-22.493 265.967 -22.526 285.982 -22.568 305.997 C-22.61 326.546 -22.634 347.094 -22.639 367.642 C-22.642 379.18 -22.654 390.717 -22.687 402.254 C-22.715 412.081 -22.726 421.907 -22.715 431.734 C-22.71 436.746 -22.712 441.758 -22.737 446.77 C-22.76 451.363 -22.759 455.956 -22.74 460.549 C-22.737 462.206 -22.743 463.863 -22.758 465.52 C-22.861 477.624 -21.395 488.704 -12.655 497.867 C-5.58 504.308 2.086 506.723 11.407 506.629 C12.233 506.633 13.058 506.637 13.909 506.641 C16.669 506.65 19.428 506.637 22.189 506.625 C24.19 506.627 26.191 506.63 28.192 506.635 C33.687 506.643 39.181 506.633 44.676 506.62 C50.603 506.609 56.53 506.616 62.457 506.62 C73.394 506.625 84.331 506.617 95.268 506.602 C105.369 506.589 115.47 506.582 125.571 506.581 C125.906 506.581 125.906 506.581 127.601 506.581 C130.321 506.58 133.04 506.58 135.76 506.58 C160.539 506.579 185.319 506.563 210.098 506.539 C233.498 506.515 256.898 506.501 280.298 506.498 C281.019 506.497 281.741 506.497 282.484 506.497 C285.391 506.497 288.299 506.496 291.207 506.496 C292.656 506.496 294.105 506.495 295.554 506.495 C296.999 506.495 298.444 506.495 299.89 506.495 C322.889 506.491 345.889 506.48 368.889 506.467 C375.625 506.463 382.361 506.46 389.098 506.457 C403.263 506.453 417.429 506.445 431.594 506.429 C437.454 506.423 443.313 506.418 449.173 506.417 C454.529 506.416 459.886 506.411 465.243 506.402 C467.188 506.399 469.132 506.398 471.077 506.399 C473.707 506.4 476.337 506.395 478.967 506.389 C479.35 506.39 479.35 506.39 481.289 506.394 C484.423 506.381 486.875 506.256 489.872 505.257 C489.872 504.597 489.872 503.937 489.872 503.257 C490.213 503.226 490.213 503.226 491.935 503.07 C498.03 501.384 502.117 497.447 505.732 492.394 C510.491 483.479 510.301 475.229 510.267 465.38 C510.272 463.643 510.278 461.907 510.285 460.171 C510.301 455.408 510.299 450.645 510.294 445.883 C510.291 440.743 510.306 435.603 510.318 430.463 C510.339 420.397 510.343 410.331 510.342 400.265 C510.34 392.083 510.344 383.901 510.352 375.719 C510.354 373.362 510.356 371.005 510.358 368.648 C510.359 367.475 510.36 366.302 510.361 365.094 C510.38 342.909 510.379 320.724 510.372 298.539 C510.366 278.244 510.387 257.95 510.42 237.656 C510.454 216.816 510.469 195.976 510.465 175.136 C510.462 163.436 510.468 151.737 510.493 140.038 C510.514 130.078 510.517 120.118 510.498 110.159 C510.489 105.078 510.488 99.997 510.509 94.917 C510.527 90.263 510.523 85.61 510.5 80.957 C510.496 79.276 510.5 77.595 510.514 75.914 C510.598 64.721 509.471 56.069 501.685 47.445 C491.483 38.283 481.258 38.541 468.249 38.622 C466.238 38.617 464.228 38.609 462.218 38.599 C456.707 38.578 451.197 38.588 445.686 38.604 C439.737 38.615 433.789 38.597 427.841 38.584 C416.866 38.563 405.892 38.565 394.917 38.578 C384.778 38.591 374.639 38.594 364.5 38.588 C364.164 38.588 364.164 38.588 362.461 38.587 C359.729 38.585 356.997 38.584 354.264 38.582 C328.645 38.567 303.025 38.581 277.405 38.608 C254.652 38.631 231.899 38.629 209.146 38.605 C183.573 38.579 157.999 38.568 132.425 38.583 C129.698 38.585 126.971 38.587 124.244 38.588 C123.909 38.588 123.909 38.588 122.21 38.589 C112.078 38.595 101.946 38.588 91.814 38.576 C80.292 38.561 68.77 38.566 57.247 38.592 C51.369 38.605 45.49 38.61 39.612 38.594 C34.229 38.579 28.847 38.587 23.464 38.614 C21.518 38.619 19.572 38.617 17.626 38.604 C3.153 38.521 -7.712 40.08 -17.128 52.257 Z " fill="#023C84" transform="translate(408.1277894973755,388.74273109436035)"/>
<path d="M0 0 C0.547 -0.004 0.547 -0.004 3.313 -0.026 C6.926 -0.049 10.538 -0.042 14.151 -0.033 C16.663 -0.038 19.175 -0.044 21.687 -0.052 C26.951 -0.062 32.216 -0.058 37.481 -0.043 C43.559 -0.026 49.636 -0.042 55.713 -0.074 C61.57 -0.104 67.427 -0.106 73.283 -0.097 C75.771 -0.096 78.258 -0.103 80.746 -0.117 C84.224 -0.135 87.701 -0.12 91.18 -0.098 C92.207 -0.109 93.234 -0.121 94.292 -0.133 C98.866 -0.072 102.12 -0 105.756 2.959 C110.116 7.638 110.471 11.044 110.49 17.334 C110.494 17.712 110.494 17.712 110.511 19.621 C110.521 21.215 110.525 22.81 110.525 24.404 C110.53 26.828 110.566 29.249 110.604 31.672 C110.61 33.226 110.614 34.78 110.615 36.334 C110.63 37.051 110.644 37.768 110.659 38.507 C110.609 44.075 109.396 47.146 106.155 51.533 C101.867 54.155 98.683 54.904 93.69 54.874 C92.429 54.874 91.168 54.874 89.869 54.873 C88.509 54.858 87.148 54.842 85.787 54.826 C84.383 54.821 82.98 54.817 81.576 54.814 C77.896 54.802 74.217 54.773 70.538 54.739 C66.778 54.709 63.017 54.695 59.256 54.68 C51.889 54.648 44.522 54.597 37.155 54.533 C37.262 63.513 37.374 72.492 37.494 81.471 C37.549 85.64 37.603 89.809 37.652 93.978 C37.699 97.998 37.752 102.018 37.807 106.038 C37.828 107.575 37.847 109.112 37.864 110.649 C37.888 112.795 37.918 114.94 37.949 117.086 C37.957 117.698 37.957 117.698 37.996 120.794 C38.155 123.533 38.155 123.533 39.155 124.533 C40.641 124.69 42.134 124.784 43.627 124.85 C44.526 124.892 45.425 124.934 46.352 124.977 C47.297 125.016 48.243 125.055 49.217 125.096 C49.692 125.118 49.692 125.118 52.094 125.227 C54.447 125.333 56.801 125.435 59.155 125.533 C59.097 124.725 59.039 123.917 58.979 123.084 C58.607 114.274 58.607 114.274 61.467 110.408 C67.379 106.284 67.379 106.284 71.309 106.266 C72.155 106.257 73 106.249 73.871 106.24 C74.795 106.241 75.719 106.242 76.671 106.243 C77.159 106.24 77.159 106.24 79.629 106.223 C82.863 106.204 86.096 106.2 89.33 106.198 C91.576 106.191 93.822 106.184 96.068 106.177 C100.78 106.165 105.491 106.162 110.203 106.163 C116.239 106.163 122.275 106.136 128.311 106.101 C132.951 106.079 137.591 106.075 142.232 106.076 C144.457 106.074 146.682 106.065 148.907 106.049 C152.022 106.03 155.135 106.036 158.25 106.048 C158.709 106.042 158.709 106.042 161.032 106.014 C166.573 106.068 169.764 106.824 174.155 110.533 C177.54 114.629 177.595 118.607 177.553 123.721 C177.554 124.111 177.554 124.111 177.562 126.085 C177.564 127.729 177.558 129.373 177.546 131.017 C177.53 133.526 177.546 136.033 177.565 138.541 C177.563 140.143 177.559 141.744 177.553 143.346 C177.559 144.092 177.565 144.838 177.571 145.606 C177.49 151.703 176.107 154.605 171.838 158.822 C166.663 161.973 160.048 161.016 154.225 160.924 C152.866 160.917 151.507 160.911 150.148 160.907 C146.587 160.892 143.026 160.852 139.465 160.808 C135.825 160.767 132.185 160.749 128.545 160.729 C121.415 160.686 114.285 160.618 107.155 160.533 C107.262 169.252 107.374 177.97 107.494 186.689 C107.549 190.737 107.603 194.785 107.652 198.833 C107.699 202.736 107.752 206.639 107.807 210.542 C107.828 212.035 107.847 213.527 107.864 215.02 C107.888 217.103 107.918 219.186 107.949 221.27 C107.957 221.864 107.957 221.864 107.996 224.87 C108.155 227.533 108.155 227.533 109.155 228.533 C111.847 228.77 114.52 228.955 117.217 229.096 C117.596 229.118 117.596 229.118 119.516 229.227 C121.395 229.333 123.275 229.434 125.155 229.533 C125.155 233.493 125.155 237.453 125.155 241.533 C122.467 241.588 119.78 241.627 117.092 241.658 C116.34 241.675 115.588 241.692 114.813 241.709 C109.862 241.752 105.815 241.256 101.155 239.533 C96.267 234.513 94.903 230.592 94.927 223.654 C94.927 222.97 94.927 222.287 94.927 221.583 C94.928 219.332 94.944 217.081 94.959 214.83 C94.963 213.267 94.966 211.703 94.968 210.139 C94.975 206.029 94.995 201.919 95.017 197.809 C95.038 193.613 95.047 189.417 95.057 185.221 C95.078 176.992 95.112 168.763 95.155 160.533 C94.348 160.57 93.542 160.607 92.711 160.645 C89.026 160.791 85.341 160.881 81.655 160.971 C81.02 161 81.02 161 77.811 161.149 C71.643 161.261 67.182 161.329 62.297 157.268 C59.735 154.728 58.716 152.949 58.373 149.35 C58.426 147.93 58.52 146.511 58.655 145.096 C58.691 144.364 58.727 143.633 58.764 142.879 C58.857 141.095 59.001 139.313 59.155 137.533 C58.469 137.565 57.784 137.596 57.078 137.629 C53.937 137.754 50.797 137.832 47.655 137.908 C46.577 137.959 45.499 138.009 44.389 138.061 C37.944 138.179 33.857 137.564 28.758 133.516 C24.722 128.526 23.78 123.6 23.814 117.313 C23.814 116.971 23.814 116.971 23.813 115.241 C23.815 113.006 23.838 110.772 23.862 108.537 C23.867 106.978 23.871 105.419 23.874 103.859 C23.886 99.774 23.915 95.689 23.949 91.603 C23.979 87.427 23.993 83.251 24.008 79.074 C24.04 70.894 24.091 62.714 24.155 54.533 C23.126 54.56 22.097 54.586 21.037 54.613 C17.202 54.704 13.367 54.761 9.531 54.808 C7.874 54.833 6.217 54.867 4.561 54.911 C2.172 54.972 -0.214 55 -2.603 55.022 C-2.971 55.035 -2.971 55.035 -4.829 55.1 C-8.761 55.102 -11.259 54.589 -14.276 52.148 C-18.972 47.37 -19.154 43.036 -19.146 36.565 C-19.151 35.807 -19.155 35.049 -19.159 34.268 C-19.165 32.671 -19.165 31.074 -19.161 29.477 C-19.158 27.041 -19.181 24.606 -19.207 22.17 C-19.209 20.614 -19.21 19.058 -19.209 17.502 C-19.218 16.778 -19.227 16.054 -19.237 15.308 C-19.184 9.516 -17.753 6.612 -13.911 2.426 C-9.362 -0.382 -5.249 -0.033 0 0 Z " fill="#073C82" transform="translate(681.845458984375,487.466552734375)"/>
<path d="M0 0 C8.817 5.038 13.515 9.655 18.062 18.75 C36.707 18.915 36.707 18.915 131.062 19.75 C131.393 18.1 131.722 16.45 132.062 14.75 C135.776 7.918 142.09 2.195 149.062 -1.25 C159.111 -2.763 167.7 -1.202 176.062 4.75 C179.88 8.246 183.038 11.95 185.062 16.75 C185.062 17.74 185.062 18.73 185.062 19.75 C221.362 19.75 257.663 19.75 295.062 19.75 C295.392 18.1 295.723 16.45 296.062 14.75 C299.984 7.707 305.927 2.499 313.312 -0.625 C323.071 -2.251 330.735 -1.965 339.062 3.75 C344.444 8.005 347.17 12.624 350.062 18.75 C350.552 18.755 350.552 18.755 353.028 18.778 C356.667 18.818 360.304 18.884 363.942 18.958 C365.515 18.986 367.088 19.007 368.662 19.021 C370.926 19.042 373.189 19.089 375.453 19.141 C376.154 19.142 376.856 19.143 377.578 19.144 C380.936 19.245 382.801 19.558 385.538 21.565 C387.062 23.75 387.062 23.75 387.062 27.312 C386.062 30.75 386.062 30.75 384.462 32.447 C381.106 34.27 378.477 34.088 374.672 34.043 C373.967 34.039 373.263 34.034 372.537 34.03 C370.295 34.013 368.054 33.976 365.812 33.938 C364.289 33.922 362.766 33.909 361.242 33.896 C357.515 33.863 353.789 33.812 350.062 33.75 C349.767 34.678 349.472 35.606 349.168 36.562 C346.58 44.024 341.598 49.242 334.773 53.016 C327.456 56.314 320.586 57.336 312.91 54.645 C306.46 51.671 301.987 48.687 298.062 42.75 C297.072 39.78 296.082 36.81 295.062 33.75 C258.763 33.75 222.462 33.75 185.062 33.75 C184.567 35.235 184.567 35.235 182.062 42.75 C177.993 49.695 171.698 53.58 164.062 55.75 C155.513 56.873 148.379 55.992 141.457 50.793 C136.474 46.572 132.841 43.101 131.062 36.75 C131.062 35.76 131.062 34.77 131.062 33.75 C93.442 33.75 55.822 33.75 17.062 33.75 C16.072 36.72 15.082 39.69 14.062 42.75 C10.063 48.423 6.364 51.058 0.062 53.75 C-0.56 54.107 -1.183 54.464 -1.824 54.832 C-6.857 57.018 -13.226 56.456 -18.441 55.098 C-26.514 51.826 -32.674 46.457 -36.344 38.547 C-36.938 36.75 -36.938 36.75 -36.938 33.75 C-38.255 33.766 -39.572 33.781 -40.929 33.798 C-45.81 33.852 -50.691 33.886 -55.572 33.915 C-57.685 33.93 -59.799 33.95 -61.912 33.976 C-64.948 34.013 -67.984 34.03 -71.02 34.043 C-71.493 34.051 -71.493 34.051 -73.889 34.09 C-74.329 34.09 -74.329 34.09 -76.558 34.091 C-77.333 34.097 -78.108 34.104 -78.906 34.111 C-81.509 33.649 -82.377 32.858 -83.938 30.75 C-84.41 27.037 -84.58 24.747 -82.522 21.552 C-78.561 18.791 -74.855 19.254 -70.141 19.359 C-69.192 19.365 -68.243 19.371 -67.266 19.377 C-64.239 19.399 -61.214 19.449 -58.188 19.5 C-56.134 19.52 -54.081 19.538 -52.027 19.555 C-46.997 19.599 -41.967 19.668 -36.938 19.75 C-36.805 18.984 -36.672 18.219 -36.535 17.43 C-34.981 10.461 -29.416 5.875 -23.938 1.75 C-17.155 -2.373 -7.443 -3.017 0 0 Z " fill="#0762EB" transform="translate(500.9375,804.25)"/>
<path d="M0 0 C0.845 -0.009 1.691 -0.017 2.561 -0.026 C3.486 -0.025 4.41 -0.024 5.362 -0.023 C6.338 -0.03 7.314 -0.037 8.319 -0.043 C11.553 -0.062 14.787 -0.066 18.021 -0.069 C20.267 -0.075 22.513 -0.082 24.758 -0.089 C29.47 -0.101 34.182 -0.104 38.894 -0.103 C44.93 -0.103 50.966 -0.13 57.002 -0.165 C61.642 -0.187 66.282 -0.191 70.922 -0.19 C73.148 -0.192 75.373 -0.201 77.598 -0.217 C80.712 -0.236 83.826 -0.23 86.94 -0.218 C87.858 -0.23 88.777 -0.241 89.722 -0.252 C95.264 -0.198 98.455 0.558 102.845 4.267 C106.23 8.363 106.285 12.341 106.244 17.455 C106.247 18.235 106.249 19.015 106.252 19.819 C106.254 21.463 106.249 23.107 106.236 24.751 C106.22 27.26 106.236 29.767 106.255 32.275 C106.253 33.877 106.25 35.478 106.244 37.08 C106.25 37.826 106.256 38.572 106.262 39.34 C106.18 45.437 104.798 48.339 100.528 52.556 C95.353 55.707 88.738 54.75 82.916 54.658 C81.557 54.651 80.197 54.645 78.838 54.641 C75.277 54.626 71.717 54.586 68.156 54.542 C64.516 54.501 60.876 54.483 57.236 54.463 C50.105 54.42 42.975 54.352 35.845 54.267 C35.953 62.986 36.065 71.704 36.185 80.423 C36.24 84.471 36.293 88.519 36.343 92.566 C36.39 96.47 36.443 100.373 36.498 104.276 C36.519 105.769 36.537 107.261 36.554 108.754 C36.578 110.837 36.608 112.92 36.64 115.004 C36.648 115.598 36.648 115.598 36.687 118.604 C36.845 121.267 36.845 121.267 37.845 122.267 C40.538 122.504 43.21 122.689 45.908 122.83 C46.287 122.852 46.287 122.852 48.207 122.961 C50.086 123.067 51.966 123.168 53.845 123.267 C53.845 127.227 53.845 131.187 53.845 135.267 C51.157 135.322 48.471 135.361 45.783 135.392 C45.031 135.409 44.278 135.426 43.503 135.443 C38.553 135.486 34.505 134.99 29.845 133.267 C24.957 128.247 23.593 124.326 23.618 117.388 C23.618 116.704 23.618 116.021 23.617 115.317 C23.619 113.066 23.634 110.815 23.65 108.564 C23.654 107.001 23.657 105.437 23.659 103.873 C23.666 99.763 23.686 95.653 23.708 91.543 C23.728 87.347 23.738 83.151 23.748 78.955 C23.769 70.726 23.803 62.497 23.845 54.267 C23.442 54.286 23.442 54.286 21.402 54.379 C17.717 54.525 14.032 54.615 10.345 54.705 C9.077 54.764 7.808 54.822 6.502 54.883 C0.538 54.991 -4.14 55.061 -9.001 51.319 C-12.887 47.181 -13.283 43.515 -13.112 38.01 C-13.112 37.144 -13.113 36.277 -13.113 35.385 C-13.106 33.565 -13.079 31.744 -13.033 29.924 C-12.967 27.142 -12.971 24.366 -12.985 21.584 C-12.969 19.809 -12.949 18.034 -12.924 16.26 C-12.925 15.432 -12.926 14.605 -12.926 13.753 C-12.787 9.485 -12.554 7.764 -9.794 4.33 C-4.279 0.02 -4.279 0.02 0 0 Z " fill="#0462EF" transform="translate(753.1547393798828,593.7325744628906)"/>
<path d="M0 0 C0.766 0.424 1.531 0.848 2.32 1.285 C12.483 7.469 19.62 16.466 22.75 27.875 C25.472 40.011 23.371 50.343 17.312 61.312 C11.295 70.626 1.886 77.873 -9 80.312 C-10.662 80.575 -12.329 80.806 -14 81 C-14.706 81.084 -15.413 81.168 -16.141 81.254 C-26.766 81.864 -37.996 77.923 -46 71 C-53.862 63.681 -59.66 54.311 -60.168 43.391 C-60.332 28.568 -57.816 18.364 -47.496 7.332 C-43.692 3.778 -39.641 1.313 -35 -1 C-34.701 -1.17 -34.701 -1.17 -33.188 -2.027 C-23.438 -6.75 -9.168 -5.236 0 0 Z " fill="#F6F7F9" transform="translate(477,482)"/>
<path d="M0 0 C1.176 0.577 2.351 1.155 3.562 1.75 C13.766 7.925 20.74 16.509 24 28 C26.142 41.706 24.043 53.679 16 65 C11.613 70.585 6.325 74.789 0 78 C-0.629 78.32 -1.258 78.639 -1.906 78.969 C-10.837 82.678 -22.86 82.424 -32 79.438 C-43.417 74.507 -51.617 65.475 -57.055 54.492 C-60.852 44.48 -60.467 31.272 -56.258 21.457 C-50.35 9.916 -42.064 2.121 -30 -2.75 C-19.85 -5.89 -9.313 -4.921 0 0 Z " fill="#F6F7F9" transform="translate(476,684)"/>
<path d="M0 0 C8.509 6.42 14.203 13.879 17.188 24.168 C17.622 28.066 17.573 31.877 17.438 35.793 C17.419 36.797 17.401 37.801 17.383 38.836 C17.336 41.281 17.271 43.724 17.188 46.168 C16.528 46.168 15.868 46.168 15.188 46.168 C15.146 47.137 15.105 48.107 15.062 49.105 C14.033 56.358 8.457 62.439 3.188 67.168 C2.827 67.498 2.827 67.498 1 69.168 C-9.708 76.782 -19.964 78.245 -32.812 77.168 C-44.512 74.831 -53.976 66.696 -60.812 57.168 C-62.466 53.917 -63.747 50.653 -64.812 47.168 C-65.003 46.578 -65.194 45.987 -65.391 45.379 C-67.511 34.264 -66.445 22.542 -60.387 12.898 C-45.941 -7.221 -21.413 -13.948 0 0 Z " fill="#F6F7F9" transform="translate(482.8125,586.83203125)"/>
<path d="M0 0 C0.381 -0.002 0.381 -0.002 2.311 -0.015 C4.841 -0.03 7.371 -0.036 9.901 -0.042 C11.657 -0.048 13.414 -0.054 15.17 -0.059 C18.856 -0.07 22.543 -0.076 26.229 -0.079 C30.95 -0.085 35.671 -0.109 40.392 -0.137 C44.022 -0.156 47.652 -0.161 51.281 -0.162 C53.022 -0.165 54.762 -0.173 56.502 -0.187 C58.939 -0.204 61.376 -0.202 63.812 -0.195 C64.53 -0.205 65.248 -0.214 65.987 -0.223 C71.396 -0.178 74.279 1.282 78.389 4.609 C80.631 7.481 80.025 11.309 79.999 14.81 C80.002 15.659 80.005 16.509 80.007 17.384 C80.01 19.181 80.004 20.978 79.991 22.775 C79.975 25.519 79.991 28.261 80.01 31.005 C80.009 32.752 80.005 34.5 79.999 36.247 C80.005 37.065 80.011 37.883 80.017 38.725 C79.961 43.332 79.68 46.491 76.6 50.161 C72.47 53.282 68.876 53.597 63.86 53.565 C63.097 53.572 62.334 53.579 61.547 53.586 C59.034 53.604 56.52 53.6 54.007 53.595 C52.255 53.599 50.502 53.605 48.75 53.611 C45.082 53.62 41.414 53.617 37.745 53.607 C33.048 53.596 28.351 53.616 23.653 53.645 C20.036 53.663 16.419 53.663 12.802 53.657 C11.07 53.657 9.339 53.663 7.607 53.676 C5.184 53.691 2.763 53.68 0.341 53.663 C-0.016 53.668 -0.016 53.668 -1.82 53.692 C-6.624 53.621 -9.027 52.557 -12.4 49.161 C-14.854 45.48 -14.628 42.718 -14.525 38.474 C-14.516 37.772 -14.507 37.07 -14.497 36.347 C-14.474 34.618 -14.438 32.89 -14.4 31.161 C-15.032 31.173 -15.032 31.173 -18.232 31.231 C-19.892 31.25 -21.552 31.268 -23.212 31.286 C-24.046 31.303 -24.879 31.32 -25.738 31.337 C-26.54 31.343 -27.342 31.35 -28.169 31.356 C-28.538 31.362 -28.538 31.362 -30.407 31.388 C-32.4 31.161 -32.4 31.161 -35.4 29.161 C-28.47 29.491 -21.54 29.821 -14.4 30.161 C-14.458 28.57 -14.516 26.98 -14.575 25.341 C-14.622 23.239 -14.668 21.138 -14.712 19.036 C-14.754 17.989 -14.796 16.943 -14.839 15.864 C-14.977 7.134 -14.977 7.134 -12.005 3.481 C-7.978 -0.105 -5.181 0.008 0 0 Z " fill="#6FB4F6" transform="translate(821.399658203125,698.8388671875)"/>
<path d="M0 0 C8.817 5.038 13.515 9.655 18.062 18.75 C36.707 18.915 36.707 18.915 131.062 19.75 C130.732 24.37 130.403 28.99 130.062 33.75 C92.773 33.75 55.483 33.75 17.062 33.75 C16.072 36.72 15.082 39.69 14.062 42.75 C10.063 48.423 6.364 51.058 0.062 53.75 C-0.56 54.107 -1.183 54.464 -1.824 54.832 C-6.857 57.018 -13.226 56.456 -18.441 55.098 C-26.514 51.826 -32.674 46.457 -36.344 38.547 C-36.938 36.75 -36.938 36.75 -36.938 33.75 C-38.255 33.766 -39.572 33.781 -40.929 33.798 C-45.81 33.852 -50.691 33.886 -55.572 33.915 C-57.685 33.93 -59.799 33.95 -61.912 33.976 C-64.948 34.013 -67.984 34.03 -71.02 34.043 C-71.493 34.051 -71.493 34.051 -73.889 34.09 C-74.329 34.09 -74.329 34.09 -76.558 34.091 C-77.333 34.097 -78.108 34.104 -78.906 34.111 C-81.509 33.649 -82.377 32.858 -83.938 30.75 C-84.41 27.037 -84.58 24.747 -82.522 21.552 C-78.561 18.791 -74.855 19.254 -70.141 19.359 C-69.192 19.365 -68.243 19.371 -67.266 19.377 C-64.239 19.399 -61.214 19.449 -58.188 19.5 C-56.134 19.52 -54.081 19.538 -52.027 19.555 C-46.997 19.599 -41.967 19.668 -36.938 19.75 C-36.805 18.984 -36.672 18.219 -36.535 17.43 C-34.981 10.461 -29.416 5.875 -23.938 1.75 C-17.155 -2.373 -7.443 -3.017 0 0 Z " fill="#083B80" transform="translate(500.9375,804.25)"/>
<path d="M0 0 C3.339 0.487 4.033 0.805 6 3.438 C6.376 5.73 6.376 5.73 6.378 8.483 C6.385 9.533 6.393 10.582 6.401 11.663 C6.398 12.241 6.398 12.241 6.381 15.167 C6.386 16.393 6.39 17.618 6.395 18.881 C6.405 22.289 6.401 25.697 6.392 29.105 C6.385 32.777 6.396 36.45 6.404 40.123 C6.417 47.321 6.415 54.518 6.406 61.716 C6.399 67.564 6.398 73.412 6.401 79.26 C6.402 79.676 6.402 79.676 6.403 81.779 C6.404 83.468 6.405 85.156 6.406 86.845 C6.414 102.691 6.404 118.538 6.388 134.384 C6.375 147.99 6.377 161.596 6.391 175.202 C6.407 190.991 6.413 206.779 6.404 222.567 C6.403 224.25 6.402 225.933 6.401 227.615 C6.401 228.443 6.401 229.271 6.4 230.124 C6.397 235.967 6.402 241.81 6.409 247.653 C6.417 254.771 6.415 261.889 6.399 269.006 C6.391 272.64 6.388 276.274 6.398 279.908 C6.409 283.841 6.396 287.774 6.381 291.708 C6.388 292.864 6.394 294.021 6.401 295.212 C6.393 296.261 6.386 297.311 6.378 298.392 C6.377 299.3 6.377 300.209 6.376 301.145 C5.922 303.912 5.248 304.8 3 306.438 C0 306.875 0 306.875 -3 306.438 C-5.876 303.488 -6.375 301.355 -6.378 297.303 C-6.385 296.259 -6.393 295.215 -6.401 294.14 C-6.395 292.995 -6.388 291.85 -6.381 290.67 C-6.386 289.453 -6.39 288.235 -6.395 286.981 C-6.405 283.6 -6.401 280.219 -6.392 276.838 C-6.385 273.192 -6.396 269.547 -6.404 265.901 C-6.417 258.759 -6.415 251.617 -6.406 244.474 C-6.399 238.671 -6.398 232.867 -6.401 227.064 C-6.402 226.238 -6.402 225.413 -6.403 224.562 C-6.404 222.886 -6.405 221.209 -6.406 219.533 C-6.414 203.804 -6.404 188.075 -6.388 172.346 C-6.375 158.843 -6.377 145.341 -6.391 131.839 C-6.407 116.167 -6.413 100.495 -6.404 84.823 C-6.403 83.152 -6.402 81.482 -6.401 79.811 C-6.401 78.99 -6.401 78.168 -6.4 77.321 C-6.397 71.523 -6.402 65.725 -6.409 59.927 C-6.417 52.863 -6.415 45.799 -6.399 38.735 C-6.391 35.129 -6.388 31.524 -6.398 27.918 C-6.409 24.014 -6.396 20.109 -6.381 16.205 C-6.388 15.06 -6.394 13.915 -6.401 12.735 C-6.393 11.691 -6.386 10.648 -6.378 9.572 C-6.377 8.671 -6.377 7.769 -6.376 6.84 C-5.714 2.61 -4.256 0.621 0 0 Z " fill="#0B3B7E" transform="translate(636,461.5625)"/>
<path d="M0 0 C5.381 4.255 8.107 8.874 11 15 C11.489 15.005 11.489 15.005 13.966 15.028 C17.604 15.068 21.242 15.134 24.879 15.208 C26.453 15.236 28.026 15.257 29.599 15.271 C31.864 15.292 34.127 15.339 36.391 15.391 C37.092 15.392 37.793 15.393 38.515 15.394 C41.873 15.495 43.739 15.808 46.476 17.815 C48 20 48 20 48 23.562 C47 27 47 27 45.399 28.697 C42.043 30.52 39.415 30.338 35.609 30.293 C34.905 30.289 34.2 30.284 33.474 30.28 C31.232 30.263 28.992 30.226 26.75 30.188 C25.227 30.172 23.703 30.159 22.18 30.146 C18.453 30.113 14.727 30.062 11 30 C10.705 30.928 10.41 31.856 10.105 32.812 C7.518 40.274 2.536 45.492 -4.289 49.266 C-11.607 52.564 -18.477 53.586 -26.152 50.895 C-32.602 47.921 -37.075 44.937 -41 39 C-41.99 36.03 -42.98 33.06 -44 30 C-80.3 30 -116.6 30 -154 30 C-154 29.67 -154 29.34 -154 29 C-118.03 29 -82.06 29 -45 29 C-45 26.03 -45 23.06 -45 20 C-44.297 12.036 -40.92 6.586 -35.074 1.238 C-24.549 -7.203 -11.09 -7.611 0 0 Z " fill="#72B3F3" transform="translate(840,808)"/>
<path d="M0 0 C1.176 0.577 2.351 1.155 3.562 1.75 C13.766 7.925 20.74 16.509 24 28 C26.142 41.706 24.043 53.679 16 65 C11.613 70.585 6.325 74.789 0 78 C-0.629 78.32 -1.258 78.639 -1.906 78.969 C-10.837 82.678 -22.86 82.424 -32 79.438 C-43.417 74.507 -51.617 65.475 -57.055 54.492 C-60.852 44.48 -60.467 31.272 -56.258 21.457 C-50.35 9.916 -42.064 2.121 -30 -2.75 C-19.85 -5.89 -9.313 -4.921 0 0 Z M-40 15 C-46.338 22.053 -49.573 28.903 -49.438 38.375 C-49.429 39.125 -49.421 39.874 -49.412 40.646 C-49.137 49.667 -46.046 55.623 -39.93 62.211 C-36.915 65.006 -33.662 67.147 -30 69 C-29.267 69.371 -28.533 69.743 -27.777 70.125 C-24.07 71.293 -20.529 71.214 -16.688 71.125 C-15.947 71.116 -15.206 71.107 -14.443 71.098 C-12.629 71.074 -10.814 71.038 -9 71 C-9 70.34 -9 69.68 -9 69 C-8.134 68.918 -7.267 68.835 -6.375 68.75 C0.888 67.136 5.873 61.956 10 56 C13.731 48.779 14.735 42.036 14 34 C13.965 33.571 13.965 33.571 13.785 31.402 C12.593 22.734 7.686 16.935 1 11.562 C-11.215 3.18 -29.356 5.017 -40 15 Z " fill="#0E3E80" transform="translate(476,684)"/>
<path d="M0 0 C0.766 0.424 1.531 0.848 2.32 1.285 C12.483 7.469 19.62 16.466 22.75 27.875 C25.472 40.011 23.371 50.343 17.312 61.312 C11.295 70.626 1.886 77.873 -9 80.312 C-10.662 80.575 -12.329 80.806 -14 81 C-14.706 81.084 -15.413 81.168 -16.141 81.254 C-26.766 81.864 -37.996 77.923 -46 71 C-53.862 63.681 -59.66 54.311 -60.168 43.391 C-60.332 28.568 -57.816 18.364 -47.496 7.332 C-43.692 3.778 -39.641 1.313 -35 -1 C-34.701 -1.17 -34.701 -1.17 -33.188 -2.027 C-23.438 -6.75 -9.168 -5.236 0 0 Z M-43 17 C-50.16 26.214 -51.027 34.578 -50 46 C-48.062 54.941 -42.544 61.86 -35 66.875 C-27.676 71.042 -19.851 72.308 -11.605 70.465 C-2.579 67.651 3.356 63.544 9 56 C9.438 55.428 9.877 54.855 10.328 54.266 C14.767 47.2 13.979 37.092 12.457 29.176 C9.493 19.53 2.78 12.284 -6.062 7.562 C-19.847 2.044 -33.347 6.616 -43 17 Z " fill="#0C3D7F" transform="translate(477,482)"/>
<path d="M0 0 C8.509 6.42 14.203 13.879 17.188 24.168 C17.622 28.066 17.573 31.877 17.438 35.793 C17.419 36.797 17.401 37.801 17.383 38.836 C17.336 41.281 17.271 43.724 17.188 46.168 C16.528 46.168 15.868 46.168 15.188 46.168 C15.146 47.137 15.105 48.107 15.062 49.105 C14.033 56.358 8.457 62.439 3.188 67.168 C2.827 67.498 2.827 67.498 1 69.168 C-9.708 76.782 -19.964 78.245 -32.812 77.168 C-44.512 74.831 -53.976 66.696 -60.812 57.168 C-62.466 53.917 -63.747 50.653 -64.812 47.168 C-65.003 46.578 -65.194 45.987 -65.391 45.379 C-67.511 34.264 -66.445 22.542 -60.387 12.898 C-45.941 -7.221 -21.413 -13.948 0 0 Z M-49.812 14.168 C-54.805 21.327 -57.938 29.337 -56.812 38.168 C-54.71 49.174 -50.255 56.678 -41.016 63.117 C-32.721 67.824 -25.087 68.572 -15.828 66.5 C-6.223 63.462 -0.406 57.628 5.059 49.379 C8.737 42.175 8.611 30.793 6.246 23.109 C5.047 20.64 3.749 18.423 2.188 16.168 C1.803 15.587 1.419 15.005 1.023 14.406 C-3.025 8.939 -9.401 5.215 -15.812 3.168 C-29.576 1.98 -40.159 3.439 -49.812 14.168 Z " fill="#0C3D7E" transform="translate(482.8125,586.83203125)"/>
<path d="M0 0 C0.715 -0.006 1.429 -0.011 2.165 -0.017 C4.512 -0.029 6.857 -0.004 9.203 0.021 C10.841 0.023 12.48 0.023 14.119 0.021 C17.546 0.023 20.972 0.042 24.399 0.073 C28.787 0.113 33.173 0.117 37.56 0.11 C40.941 0.107 44.322 0.119 47.703 0.136 C49.32 0.143 50.938 0.146 52.555 0.145 C54.817 0.147 57.078 0.168 59.34 0.195 C60.625 0.204 61.911 0.212 63.235 0.221 C66.862 0.645 68.725 1.411 71.605 3.615 C73.717 6.783 73.937 8.747 74.164 12.482 C73.261 15.928 71.323 17.388 68.605 19.615 C65.877 20.112 63.77 20.302 61.049 20.262 C60.305 20.271 59.561 20.28 58.795 20.289 C56.346 20.311 53.898 20.296 51.449 20.279 C49.742 20.283 48.035 20.288 46.327 20.294 C42.753 20.301 39.179 20.29 35.605 20.267 C31.028 20.239 26.452 20.255 21.875 20.285 C18.351 20.303 14.827 20.297 11.303 20.284 C9.616 20.281 7.928 20.285 6.241 20.297 C3.881 20.309 1.522 20.29 -0.838 20.262 C-1.185 20.267 -1.185 20.267 -2.942 20.293 C-6.779 20.209 -8.313 19.682 -11.323 17.217 C-13.45 14.546 -14.1 13.466 -14.082 10.115 C-14.107 9.383 -14.131 8.651 -14.156 7.896 C-11.957 1.308 -6.224 -0.01 0 0 Z " fill="#083C81" transform="translate(535.394775390625,611.384765625)"/>
<path d="M0 0 C0.744 -0.01 1.487 -0.021 2.254 -0.031 C4.703 -0.058 7.15 -0.049 9.6 -0.036 C11.307 -0.042 13.014 -0.05 14.721 -0.058 C18.296 -0.07 21.869 -0.063 25.444 -0.044 C30.021 -0.021 34.596 -0.048 39.173 -0.089 C42.697 -0.115 46.221 -0.112 49.746 -0.101 C51.433 -0.1 53.12 -0.107 54.807 -0.124 C57.168 -0.144 59.526 -0.126 61.887 -0.098 C62.234 -0.105 62.234 -0.105 63.99 -0.139 C66.745 -0.073 68.851 0.169 71.004 1.964 C72.97 4.234 74.333 6.107 74.924 9.077 C74.827 9.807 74.73 10.536 74.631 11.288 C74.563 12.023 74.494 12.757 74.424 13.514 C72.898 16.857 70.61 17.895 67.443 19.663 C63.946 20.178 63.946 20.178 60.049 20.196 C59.691 20.201 59.691 20.201 57.883 20.222 C55.537 20.245 53.192 20.238 50.846 20.229 C49.207 20.234 47.569 20.241 45.93 20.248 C42.503 20.258 39.076 20.254 35.649 20.239 C31.262 20.222 26.876 20.246 22.488 20.281 C19.107 20.303 15.727 20.301 12.346 20.293 C10.728 20.292 9.111 20.299 7.493 20.314 C5.231 20.331 2.971 20.317 0.709 20.294 C0.066 20.293 0.066 20.293 -3.186 20.291 C-7.401 19.505 -8.851 17.9 -11.557 14.663 C-11.887 14.333 -12.217 14.003 -12.557 13.663 C-13.267 6.558 -13.267 6.558 -10.496 3.067 C-6.937 0.156 -4.405 -0.054 0 0 Z " fill="#093C80" transform="translate(534.556640625,712.337158203125)"/>
<path d="M0 0 C0.744 -0.01 1.487 -0.021 2.254 -0.031 C4.703 -0.058 7.15 -0.049 9.6 -0.036 C11.307 -0.042 13.014 -0.05 14.721 -0.058 C18.296 -0.07 21.869 -0.063 25.444 -0.044 C30.021 -0.021 34.596 -0.048 39.173 -0.089 C42.697 -0.115 46.221 -0.112 49.746 -0.101 C51.433 -0.1 53.12 -0.107 54.807 -0.124 C57.168 -0.144 59.526 -0.126 61.887 -0.098 C62.234 -0.105 62.234 -0.105 63.99 -0.139 C66.745 -0.073 68.851 0.169 71.004 1.964 C72.97 4.234 74.333 6.107 74.924 9.077 C74.827 9.807 74.73 10.536 74.631 11.288 C74.563 12.023 74.494 12.757 74.424 13.514 C72.898 16.857 70.61 17.895 67.443 19.663 C63.946 20.178 63.946 20.178 60.049 20.196 C59.691 20.201 59.691 20.201 57.883 20.222 C55.537 20.245 53.192 20.238 50.846 20.229 C49.207 20.234 47.569 20.241 45.93 20.248 C42.503 20.258 39.076 20.254 35.649 20.239 C31.262 20.222 26.876 20.246 22.488 20.281 C19.107 20.303 15.727 20.301 12.346 20.293 C10.728 20.292 9.111 20.299 7.493 20.314 C5.231 20.331 2.971 20.317 0.709 20.294 C0.066 20.293 0.066 20.293 -3.186 20.291 C-7.401 19.505 -8.851 17.9 -11.557 14.663 C-11.887 14.333 -12.217 14.003 -12.557 13.663 C-13.267 6.558 -13.267 6.558 -10.496 3.067 C-6.937 0.156 -4.405 -0.054 0 0 Z " fill="#093D82" transform="translate(534.556640625,510.337158203125)"/>
<path d="M0 0 C35.64 0 71.28 0 108 0 C108 3.96 108 7.92 108 12 C72.36 12 36.72 12 0 12 C0 8.04 0 4.08 0 0 Z " fill="#04387D" transform="translate(687,825)"/>
<path d="M0 0 C3.96 0 7.92 0 12 0 C12.01 0.837 12.021 1.674 12.031 2.537 C12.129 10.41 12.232 18.283 12.339 26.155 C12.395 30.203 12.448 34.251 12.497 38.299 C12.545 42.202 12.597 46.106 12.653 50.009 C12.673 51.501 12.692 52.994 12.709 54.486 C12.733 56.57 12.763 58.653 12.795 60.736 C12.81 61.924 12.826 63.112 12.842 64.336 C13 67 13 67 14 68 C16.692 68.237 19.365 68.422 22.062 68.562 C22.442 68.584 22.442 68.584 24.361 68.693 C26.241 68.8 28.12 68.9 30 69 C30 72.96 30 76.92 30 81 C27.312 81.054 24.626 81.094 21.938 81.125 C21.185 81.142 20.433 81.159 19.658 81.176 C14.708 81.219 10.66 80.722 6 79 C1.112 73.98 -0.252 70.059 -0.227 63.12 C-0.227 62.437 -0.228 61.753 -0.228 61.049 C-0.227 58.798 -0.211 56.548 -0.195 54.297 C-0.192 52.733 -0.189 51.169 -0.187 49.606 C-0.179 45.496 -0.159 41.386 -0.137 37.276 C-0.117 33.08 -0.108 28.884 -0.098 24.688 C-0.076 16.458 -0.042 8.229 0 0 Z " fill="#073A7D" transform="translate(777,648)"/>
<path d="M0 0 C2.72 0.735 3.819 1.218 5.312 3.625 C5.216 8.198 3.066 10.274 -0.043 13.281 C-0.627 13.828 -1.211 14.374 -1.812 14.938 C-3.003 16.087 -4.192 17.238 -5.379 18.391 C-5.951 18.944 -6.524 19.498 -7.114 20.068 C-9.093 22.026 -10.937 24.076 -12.75 26.188 C-13.275 26.797 -13.799 27.407 -14.34 28.035 C-14.785 28.56 -15.229 29.084 -15.688 29.625 C-18.975 33.492 -18.975 33.492 -21.953 34.047 C-25.849 33.446 -27.743 31.149 -30.312 28.375 C-30.789 27.884 -31.266 27.393 -31.758 26.887 C-34.263 24.277 -36.713 21.663 -38.688 18.625 C-38.422 15.621 -37.854 14.792 -35.688 12.625 C-33.332 12.25 -33.332 12.25 -30.688 12.625 C-28.449 14.375 -28.449 14.375 -26.375 16.625 C-25.678 17.367 -24.98 18.11 -24.262 18.875 C-23.742 19.452 -23.223 20.03 -22.688 20.625 C-16.45 15.406 -10.607 10.086 -5.562 3.688 C-3.053 0.71 -3.053 0.71 0 0 Z " fill="#0F3E7E" transform="translate(474.6875,504.375)"/>
<path d="M0 0 C2.25 0.562 2.25 0.562 4.25 2.562 C4.723 5.32 4.723 5.32 4.25 8.562 C2.442 10.79 0.792 12.542 -1.312 14.438 C-2.421 15.486 -3.528 16.537 -4.633 17.59 C-5.171 18.096 -5.709 18.603 -6.263 19.125 C-8.189 20.987 -9.948 22.963 -11.688 25 C-12.22 25.617 -12.752 26.235 -13.301 26.871 C-13.779 27.429 -14.257 27.987 -14.75 28.562 C-18.969 33.384 -18.969 33.384 -21.973 34.07 C-26.31 33.277 -28.557 30.52 -31.562 27.438 C-32.16 26.868 -32.757 26.298 -33.373 25.711 C-36.225 22.842 -37.629 21.343 -38.262 17.258 C-37.75 14.562 -37.75 14.562 -35.75 12.562 C-31.577 12.832 -29.443 14.323 -26.438 17.125 C-25.74 17.766 -25.043 18.406 -24.324 19.066 C-23.805 19.56 -23.285 20.054 -22.75 20.562 C-16.513 15.344 -10.669 10.024 -5.625 3.625 C-3.12 0.638 -3.12 0.638 0 0 Z " fill="#0D3C7D" transform="translate(474.75,706.4375)"/>
<path d="M0 0 C2.625 0.5 2.625 0.5 3.625 1.5 C4.125 4.125 4.125 4.125 3.625 7.5 C2.105 9.43 0.421 11.005 -1.391 12.664 C-3.305 14.436 -4.991 16.271 -6.688 18.25 C-7.259 18.904 -7.83 19.557 -8.418 20.23 C-9.917 21.969 -11.395 23.725 -12.863 25.488 C-13.742 26.514 -14.621 27.538 -15.5 28.562 C-16.307 29.523 -17.114 30.483 -17.945 31.473 C-20.375 33.5 -20.375 33.5 -23.031 33.406 C-29.266 30.995 -33.164 25.447 -37.375 20.5 C-37.705 20.17 -38.035 19.84 -38.375 19.5 C-38.5 16.5 -38.5 16.5 -38.375 13.5 C-37.375 12.5 -37.375 12.5 -34.812 11.938 C-29.475 12.811 -26.844 16.556 -23.375 20.5 C-19.871 17.766 -16.838 14.998 -13.938 11.625 C-4.476 0.663 -4.476 0.663 0 0 Z " fill="#0C3D7E" transform="translate(475.375,606.5)"/>
<path d="M0 0 C4.626 -0.099 9.252 -0.172 13.879 -0.22 C15.453 -0.24 17.026 -0.267 18.599 -0.302 C20.863 -0.35 23.126 -0.373 25.391 -0.391 C26.092 -0.411 26.793 -0.432 27.515 -0.453 C30.895 -0.455 32.715 -0.206 35.483 1.798 C37 4 37 4 36.875 7.625 C36 11 36 11 34 13 C31.419 13.175 28.947 13.232 26.367 13.195 C25.991 13.194 25.991 13.194 24.089 13.187 C21.684 13.176 19.28 13.15 16.875 13.125 C15.246 13.115 13.617 13.106 11.988 13.098 C7.992 13.076 3.996 13.041 0 13 C0 8.71 0 4.42 0 0 Z " fill="#0C3D81" transform="translate(851,824)"/>
<path d="M0 0 C0.33 0 0.66 0 1 0 C1 111.87 1 223.74 1 339 C0.67 339 0.34 339 0 339 C-0.168 335.396 -0.334 331.792 -0.5 328.188 C-0.548 327.163 -0.595 326.139 -0.645 325.084 C-0.69 324.101 -0.735 323.118 -0.781 322.105 C-0.823 321.199 -0.865 320.294 -0.908 319.36 C-0.978 317.574 -1 315.787 -1 314 C-1.33 313.34 -1.66 312.68 -2 312 C-2.04 310 -2.043 308 -2 306 C-1.67 306 -1.34 306 -1 306 C-0.977 285.842 -0.959 265.685 -0.948 245.527 C-0.943 236.168 -0.936 226.809 -0.925 217.449 C-0.915 209.294 -0.908 201.138 -0.906 192.982 C-0.905 188.662 -0.902 184.342 -0.894 180.023 C-0.887 175.959 -0.885 171.895 -0.887 167.832 C-0.887 166.338 -0.885 164.844 -0.881 163.351 C-0.876 161.316 -0.878 159.28 -0.88 157.245 C-0.879 156.105 -0.878 154.965 -0.877 153.79 C-1 151 -1 151 -2 148 C-1.67 147.67 -1.34 147.34 -1 147 C-0.911 144.441 -0.885 141.91 -0.902 139.352 C-0.904 138.583 -0.905 137.815 -0.907 137.023 C-0.912 134.557 -0.925 132.091 -0.938 129.625 C-0.943 127.969 -0.947 126.313 -0.951 124.656 C-0.959 121.617 -0.97 118.577 -0.984 115.538 C-1.006 110.692 -1 105.846 -1 101 C-1.33 101 -1.66 101 -2 101 C-2 99.35 -2 97.7 -2 96 C-1.67 96 -1.34 96 -1 96 C-1 76.86 -1 57.72 -1 38 C-1.33 38 -1.66 38 -2 38 C-2 36.35 -2 34.7 -2 33 C-1.67 33 -1.34 33 -1 33 C-0.67 22.11 -0.34 11.22 0 0 Z " fill="#EEF4FD" transform="translate(917,532)"/>
<path d="M0 0 C0.33 0 0.66 0 1 0 C1.046 37.929 1.081 75.859 1.102 113.788 C1.105 118.262 1.107 122.736 1.11 127.209 C1.11 128.1 1.111 128.991 1.111 129.908 C1.12 144.347 1.136 158.785 1.154 173.224 C1.173 188.029 1.184 202.835 1.188 217.64 C1.191 226.782 1.2 235.924 1.216 245.067 C1.226 251.328 1.23 257.59 1.227 263.852 C1.226 267.469 1.228 271.086 1.238 274.704 C1.25 278.618 1.246 282.532 1.241 286.446 C1.246 287.6 1.252 288.754 1.258 289.942 C1.254 290.984 1.25 292.026 1.246 293.1 C1.247 294.004 1.248 294.909 1.248 295.841 C1 298 1 298 -1 300 C-3.625 300.125 -3.625 300.125 -6 300 C-5.835 299.34 -5.835 299.34 -5 296 C-3.68 296 -2.36 296 -1 296 C-0.67 198.32 -0.34 100.64 0 0 Z " fill="#00286B" transform="translate(641,467)"/>
<path d="M0 0 C0.33 0 0.66 0 1 0 C1.11 1.002 1.219 2.003 1.332 3.035 C2.863 16.155 2.863 16.155 6 22 C5.01 22 4.02 22 3 22 C3 21.34 3 20.68 3 20 C2.423 20.495 1.845 20.99 1.25 21.5 C-1 23 -1 23 -5 23 C-5.99 20.03 -6.98 17.06 -8 14 C-6.68 13.67 -5.36 13.34 -4 13 C-2.68 12.34 -1.36 11.68 0 11 C0 7.37 0 3.74 0 0 Z " fill="#17478B" transform="translate(426,517)"/>
<path d="M0 0 C0.66 0.33 1.32 0.66 2 1 C1.073 1.904 0.146 2.807 -0.809 3.738 C-2.018 4.929 -3.228 6.121 -4.438 7.312 C-5.049 7.907 -5.661 8.502 -6.291 9.115 C-6.874 9.692 -7.458 10.269 -8.059 10.863 C-8.598 11.392 -9.137 11.921 -9.693 12.466 C-11 14 -11 14 -12 17 C-13.707 18.684 -13.707 18.684 -15.812 20.438 C-18.041 22.321 -20.152 24.156 -22.188 26.25 C-24.297 28.287 -26.379 29.689 -29 31 C-29.66 30.67 -30.32 30.34 -31 30 C-18.252 17.077 -18.252 17.077 -11.988 11.766 C-7.801 8.047 -3.922 3.995 0 0 Z " fill="#4476B4" transform="translate(251,292)"/>
<path d="M0 0 C0.66 0.33 1.32 0.66 2 1 C-3.401 7.221 -9.036 13.191 -14.812 19.062 C-15.458 19.73 -16.104 20.397 -16.77 21.084 C-17.388 21.707 -18.007 22.331 -18.645 22.973 C-19.195 23.532 -19.745 24.092 -20.312 24.668 C-22.197 26.155 -23.654 26.593 -26 27 C-20.896 20.819 -15.317 15.202 -9.625 9.562 C-8.698 8.64 -7.771 7.718 -6.816 6.768 C-4.547 4.509 -2.274 2.254 0 0 Z " fill="#04A6F0" transform="translate(319,398)"/>
</svg>
