<?xml version="1.0" encoding="UTF-8"?>
<!-- Generator: visioncortex VTracer 0.6.12 -->
<svg version="1.1" xmlns="http://www.w3.org/2000/svg" width="1254" height="1254">
<path d="M0 0 C0.724 -0.037 1.449 -0.075 2.195 -0.113 C20.227 -0.384 39.5 8.415 56.445 13.748 C59.837 14.815 63.231 15.876 66.624 16.938 C70.719 18.219 74.814 19.501 78.908 20.784 C90.118 24.298 101.338 27.782 112.562 31.25 C114.246 31.77 115.929 32.291 117.613 32.812 C120.905 33.829 124.196 34.847 127.488 35.864 C133.285 37.656 139.081 39.451 144.877 41.245 C151.808 43.392 158.739 45.536 165.671 47.681 C170.812 49.272 175.953 50.864 181.094 52.457 C188.271 54.681 195.448 56.904 202.625 59.125 C203.219 59.309 203.219 59.309 206.227 60.24 C219.425 64.324 232.63 68.38 245.875 72.312 C256.61 75.501 267.271 78.893 277.918 82.361 C289.162 86.016 300.452 89.517 311.75 93 C326.029 97.404 340.301 101.822 354.51 106.451 C357.61 107.451 360.719 108.421 363.828 109.391 C384.195 115.828 384.195 115.828 392.375 122.375 C392.995 122.82 393.615 123.264 394.254 123.723 C406.844 133.384 413.139 148.199 417.129 163.043 C417.257 163.517 417.257 163.517 417.905 165.913 C421.259 178.478 424.176 191.148 427.125 203.812 C427.99 207.516 428.856 211.219 429.724 214.922 C430.258 217.201 430.79 219.481 431.32 221.761 C431.79 223.771 432.275 225.778 432.778 227.78 C433.375 230.375 433.375 230.375 433.59 232.536 C433.832 234.384 433.832 234.384 435.375 237.375 C439.038 239.283 442.906 240.184 446.898 241.176 C449.374 241.849 451.849 242.524 454.323 243.202 C455.65 243.556 456.976 243.909 458.303 244.263 C465.221 246.13 472.063 248.259 478.914 250.355 C480.326 250.786 481.738 251.216 483.151 251.645 C485.997 252.512 488.843 253.38 491.688 254.249 C494.593 255.135 497.5 256.016 500.408 256.892 C504.002 257.975 507.592 259.068 511.181 260.168 C512.523 260.578 513.866 260.984 515.211 261.387 C533.618 266.904 548.153 276.741 558.637 293.078 C565.262 305.645 568.085 318.737 571.25 332.5 C571.846 335.056 572.443 337.612 573.041 340.168 C574.213 345.18 575.38 350.194 576.544 355.208 C578.999 365.782 581.482 376.349 583.972 386.915 C594.652 432.231 605.222 477.57 615.668 522.94 C616.531 526.689 617.394 530.438 618.258 534.188 C618.364 534.649 618.364 534.649 618.902 536.983 C623.303 556.092 627.745 575.192 632.195 594.289 C639.233 624.503 646.247 654.722 653.212 684.952 C654.106 688.832 655.001 692.711 655.897 696.591 C656.943 701.114 657.985 705.639 659.025 710.163 C659.407 711.822 659.79 713.481 660.174 715.14 C660.7 717.412 661.222 719.685 661.743 721.959 C662.036 723.229 662.328 724.5 662.63 725.809 C667.031 746.875 665.242 768.738 654.27 787.504 C649.912 794.107 644.974 799.809 639.375 805.375 C639.144 805.605 639.144 805.605 637.975 806.768 C636.991 807.745 636.008 808.723 635.024 809.7 C632.772 811.939 630.523 814.18 628.274 816.421 C627.096 817.594 625.917 818.766 624.737 819.938 C623.012 821.65 621.291 823.366 619.57 825.082 C619.053 825.594 618.537 826.106 618.004 826.633 C615.209 829.428 612.549 832.293 609.966 835.286 C606.394 839.41 602.6 843.261 598.719 847.094 C598.013 847.796 597.307 848.498 596.579 849.222 C593.596 852.189 590.607 855.15 587.618 858.112 C585.42 860.291 583.226 862.474 581.031 864.656 C580.368 865.312 579.704 865.967 579.02 866.642 C575.878 869.768 572.848 872.934 569.957 876.293 C565.991 880.887 561.718 885.139 557.406 889.406 C556.567 890.242 555.728 891.077 554.863 891.938 C551.306 895.478 547.744 899.013 544.181 902.548 C541.567 905.145 538.955 907.744 536.344 910.344 C535.549 911.13 534.754 911.917 533.935 912.728 C530.485 916.163 527.116 919.612 523.943 923.307 C519.653 928.29 514.981 932.874 510.312 937.5 C509.352 938.456 508.393 939.411 507.433 940.368 C503.907 943.881 500.376 947.388 496.844 950.895 C493.848 953.872 490.854 956.85 487.863 959.831 C486.476 961.212 485.087 962.588 483.697 963.965 C479.303 968.342 475.08 972.78 471.04 977.485 C468.154 980.761 465.044 983.809 461.938 986.875 C461.254 987.555 460.57 988.235 459.865 988.936 C456.978 991.807 454.084 994.673 451.19 997.539 C449.062 999.649 446.937 1001.762 444.812 1003.875 C444.171 1004.509 443.529 1005.142 442.867 1005.795 C439.857 1008.789 436.959 1011.817 434.203 1015.047 C429.568 1020.411 424.505 1025.356 419.478 1030.347 C417.65 1032.162 415.825 1033.981 414.001 1035.8 C409.473 1040.314 404.94 1044.823 400.407 1049.333 C396.565 1053.154 392.726 1056.979 388.889 1060.805 C387.103 1062.584 385.315 1064.36 383.527 1066.136 C378.536 1071.105 373.643 1076.096 369.069 1081.456 C365.559 1085.433 361.736 1089.114 357.969 1092.844 C357.085 1093.723 356.202 1094.603 355.291 1095.51 C352.015 1098.772 348.735 1102.029 345.454 1105.286 C342.227 1108.49 339.004 1111.698 335.781 1114.906 C334.943 1115.737 334.104 1116.567 333.24 1117.423 C328.401 1122.241 323.825 1127.198 319.375 1132.375 C307.934 1144.936 296.427 1156.273 279.375 1160.375 C278.64 1160.555 277.905 1160.736 277.148 1160.922 C273.453 1161.526 269.798 1161.639 266.062 1161.688 C265.712 1161.702 265.712 1161.702 263.936 1161.775 C248.517 1161.95 232.766 1155.031 218.356 1150.24 C212.221 1148.201 206.079 1146.182 199.938 1144.16 C198.697 1143.751 197.456 1143.342 196.178 1142.921 C184.911 1139.211 173.618 1135.59 162.312 1132 C158.485 1130.783 154.659 1129.566 150.832 1128.348 C149.853 1128.036 148.875 1127.725 147.867 1127.404 C134.401 1123.114 120.95 1118.776 107.5 1114.438 C107.169 1114.331 107.169 1114.331 105.497 1113.791 C86.362 1107.619 67.242 1101.403 48.135 1095.146 C31.928 1089.84 15.694 1084.625 -0.552 1079.444 C-17.891 1073.914 -35.193 1068.28 -52.485 1062.605 C-66.164 1058.118 -79.858 1053.688 -93.588 1049.362 C-100.938 1047.045 -108.282 1044.712 -115.625 1042.375 C-116.454 1042.112 -117.283 1041.848 -118.138 1041.577 C-123.129 1039.99 -128.114 1038.387 -133.093 1036.762 C-134.622 1036.265 -136.153 1035.773 -137.686 1035.286 C-157.716 1028.914 -173.639 1018.58 -184.016 999.867 C-192.107 983.538 -194.001 963.931 -197.462 946.174 C-198.018 943.333 -198.578 940.493 -199.138 937.653 C-199.679 934.909 -200.217 932.164 -200.755 929.42 C-201.134 927.481 -201.516 925.543 -201.898 923.605 C-202.125 922.436 -202.353 921.266 -202.587 920.061 C-202.788 919.033 -202.989 918.004 -203.196 916.944 C-203.625 914.375 -203.625 914.375 -203.625 911.375 C-204.338 911.205 -205.051 911.035 -205.785 910.86 C-213.566 908.965 -221.204 906.749 -228.844 904.355 C-230.063 903.974 -231.283 903.593 -232.54 903.201 C-235.102 902.398 -237.663 901.594 -240.224 900.788 C-243.468 899.767 -246.716 898.758 -249.966 897.753 C-253.115 896.775 -256.26 895.783 -259.406 894.793 C-260.553 894.44 -261.701 894.086 -262.883 893.722 C-282.874 887.366 -296.645 877.283 -306.875 858.812 C-308.959 854.317 -310.366 849.918 -311.387 845.086 C-311.551 844.328 -311.715 843.571 -311.884 842.79 C-314.7 829.555 -317.191 816.249 -319.73 802.958 C-320.194 800.526 -320.66 798.094 -321.126 795.662 C-325.394 773.373 -329.53 751.065 -333.515 728.723 C-337.975 703.747 -342.629 678.809 -347.312 653.875 C-347.506 652.847 -347.699 651.819 -347.898 650.76 C-351.993 628.954 -356.101 607.15 -360.212 585.346 C-367.201 548.28 -374.168 511.21 -381.064 474.126 C-381.84 469.951 -382.618 465.777 -383.396 461.603 C-385.671 449.396 -387.927 437.187 -390.151 424.971 C-390.621 422.395 -391.095 419.819 -391.568 417.243 C-392.308 413.214 -393.034 409.183 -393.749 405.15 C-394.009 403.695 -394.273 402.241 -394.541 400.788 C-398.345 380.129 -397.428 358.961 -385.875 340.688 C-380.156 332.708 -373.324 325.924 -365.969 319.465 C-363.9 317.621 -361.939 315.728 -360 313.75 C-357.652 311.358 -355.229 309.124 -352.688 306.938 C-349.879 304.519 -347.225 302.016 -344.625 299.375 C-341.403 296.103 -338.039 293.082 -334.559 290.09 C-332.094 287.904 -329.807 285.57 -327.501 283.22 C-325.686 281.435 -323.816 279.765 -321.887 278.105 C-317.81 274.561 -313.863 270.897 -309.938 267.188 C-305.022 262.559 -300.095 257.945 -295.125 253.375 C-288.264 247.06 -281.466 240.678 -274.669 234.294 C-272.004 231.792 -269.336 229.293 -266.669 226.794 C-260.459 220.975 -254.257 215.148 -248.062 209.312 C-242.762 204.32 -237.451 199.34 -232.125 194.375 C-208.506 172.347 -208.506 172.347 -200.523 164.242 C-198.027 161.787 -195.381 159.532 -192.723 157.254 C-189.362 154.243 -186.24 150.998 -183.07 147.789 C-180.334 145.087 -177.475 142.584 -174.555 140.086 C-172.492 138.257 -170.559 136.339 -168.625 134.375 C-166.105 131.816 -163.544 129.393 -160.812 127.062 C-157.423 124.152 -154.26 121.053 -151.125 117.875 C-148.072 114.78 -145.002 111.756 -141.688 108.938 C-137.582 105.439 -133.841 101.618 -130.054 97.784 C-126.679 94.384 -123.2 91.187 -119.551 88.082 C-116.507 85.384 -113.699 82.457 -110.844 79.562 C-108.217 76.973 -105.455 74.587 -102.656 72.188 C-99.585 69.447 -96.737 66.496 -93.848 63.566 C-91.198 60.954 -88.413 58.542 -85.59 56.121 C-83.517 54.279 -81.571 52.351 -79.625 50.375 C-77.085 47.796 -74.5 45.353 -71.75 43 C-68.558 40.259 -65.582 37.368 -62.625 34.375 C-59.057 30.763 -55.404 27.366 -51.535 24.082 C-49.54 22.299 -47.759 20.396 -45.938 18.438 C-33.873 6.327 -16.871 0.307 0 0 Z " fill="#09B0FD" transform="translate(512.625,58.625)"/>
<path d="M0 0 C11.8 8.778 21.506 19.86 27.477 33.344 C27.973 34.429 28.469 35.515 28.98 36.633 C33.011 46.126 33.748 56.584 33.789 66.781 C33.792 67.189 33.792 67.189 33.805 69.253 C33.74 74.846 32.85 79.934 31.477 85.344 C31.277 86.277 31.077 87.21 30.871 88.172 C26.491 106.399 13.647 122.364 -1.766 132.703 C-14.609 140.344 -14.609 140.344 -21.523 140.344 C-21.523 141.004 -21.523 141.664 -21.523 142.344 C-20.41 142.292 -19.296 142.241 -18.148 142.188 C-13.015 142.197 -8.425 143.408 -3.523 144.844 C-2.605 145.111 -1.687 145.379 -0.74 145.655 C24.057 153.213 46.894 169.401 59.568 192.318 C63.005 198.893 65.527 204.926 66.477 212.344 C67.093 212.333 67.71 212.322 68.345 212.31 C74.802 212.199 81.259 212.124 87.717 212.069 C90.122 212.044 92.527 212.01 94.933 211.967 C98.403 211.905 101.873 211.877 105.344 211.855 C106.408 211.83 107.472 211.804 108.568 211.777 C119.292 211.773 126.882 215.987 134.477 223.344 C135.137 224.004 135.797 224.664 136.477 225.344 C137.095 224.477 137.714 223.611 138.352 222.719 C142.449 217.762 148.422 214.362 154.477 212.344 C156.149 212.256 157.824 212.226 159.499 212.23 C160.52 212.23 161.54 212.23 162.592 212.23 C163.692 212.236 164.792 212.241 165.926 212.246 C167.054 212.248 168.181 212.249 169.343 212.25 C172.95 212.256 176.557 212.269 180.164 212.281 C182.607 212.286 185.051 212.291 187.494 212.295 C193.488 212.306 199.482 212.323 205.477 212.344 C205.543 211.725 205.543 211.725 205.876 208.592 C206.252 205.601 206.72 203.097 208.078 200.379 C208.239 200.054 208.239 200.054 209.052 198.409 C209.399 197.748 209.745 197.087 210.102 196.406 C210.461 195.707 210.821 195.007 211.192 194.287 C214.085 188.801 217.368 183.999 221.477 179.344 C222.119 178.56 222.76 177.776 223.422 176.969 C238.733 158.889 261.077 146.248 284.477 142.344 C287.511 142.177 290.435 142.227 293.477 142.344 C293.477 141.684 293.477 141.024 293.477 140.344 C292.472 140.251 291.468 140.158 290.434 140.062 C286.282 139.462 282.817 137.845 279.164 135.844 C278.512 135.491 277.86 135.138 277.188 134.774 C271.187 131.4 266.334 127.21 261.477 122.344 C260.855 121.793 260.234 121.243 259.594 120.676 C251.713 113.519 246.83 103.983 243.102 94.156 C242.863 93.528 242.624 92.9 242.379 92.252 C234.957 71.499 237.26 49.912 245.93 30.008 C249.256 23.483 253.663 17.837 258.477 12.344 C258.773 12 258.773 12 260.273 10.258 C271.909 -2.322 290.774 -12.289 307.945 -12.992 C330.78 -13.339 350.458 -8.691 367.867 6.789 C381.672 20.304 392.166 39.473 392.645 59.102 C392.857 83.412 387.518 104.633 370.27 122.742 C361.759 130.669 352.126 135.899 341.477 140.344 C341.477 140.674 341.477 141.004 341.477 141.344 C342.518 141.563 343.56 141.782 344.633 142.008 C365.235 146.499 382.877 154.03 399.477 167.344 C400.183 167.884 400.889 168.424 401.617 168.98 C415.54 180.215 425.677 197.336 430.477 214.344 C430.815 215.372 431.154 216.4 431.503 217.459 C435.814 232.372 435.082 247.852 435.047 263.234 C435.042 266.551 435.049 269.868 435.056 273.186 C435.073 281.02 435.07 288.854 435.053 296.689 C435.036 304.725 435.052 312.761 435.084 320.797 C435.111 327.744 435.118 334.69 435.11 341.637 C435.105 345.765 435.107 349.893 435.127 354.022 C435.146 357.906 435.14 361.788 435.115 365.672 C435.11 367.083 435.114 368.494 435.126 369.904 C435.278 388.014 429.467 404.789 416.891 418.059 C403.74 430.507 388.961 434.669 371.253 434.587 C369.954 434.589 368.655 434.59 367.317 434.592 C363.778 434.597 360.238 434.59 356.699 434.579 C352.977 434.571 349.255 434.572 345.533 434.573 C339.281 434.572 333.03 434.563 326.779 434.55 C319.579 434.534 312.379 434.529 305.179 434.529 C297.479 434.53 289.779 434.523 282.078 434.514 C279.876 434.512 277.674 434.511 275.472 434.511 C271.344 434.509 267.216 434.5 263.089 434.489 C262.486 434.489 262.486 434.489 259.437 434.49 C242.774 434.428 230.084 432.582 216.477 422.344 C215.862 421.894 215.247 421.444 214.613 420.98 C205.135 413.52 198.749 402.085 196.477 390.344 C196.448 388.344 196.443 386.343 196.477 384.344 C195.872 384.359 195.872 384.359 192.812 384.439 C188.272 384.549 183.732 384.617 179.191 384.673 C177.236 384.703 175.281 384.744 173.326 384.796 C151.785 385.358 151.785 385.358 142.477 378.344 C140.137 376.114 138.376 373.982 136.477 371.344 C135.796 372.066 135.115 372.788 134.414 373.531 C127.246 380.639 119.54 384.686 109.319 384.684 C108.464 384.668 107.608 384.653 106.727 384.637 C106.277 384.635 106.277 384.635 104.003 384.624 C101.161 384.607 98.319 384.57 95.477 384.531 C93.538 384.516 91.599 384.503 89.66 384.49 C84.932 384.457 80.204 384.406 75.477 384.344 C75.434 384.984 75.392 385.625 75.348 386.285 C74.146 401.208 66.95 413.052 55.664 422.656 C50.638 426.49 45.346 429.055 39.477 431.344 C38.425 431.756 37.373 432.169 36.289 432.594 C28.223 434.745 20.018 434.486 11.733 434.473 C10.354 434.475 8.975 434.476 7.596 434.478 C3.873 434.483 0.151 434.481 -3.572 434.478 C-7.471 434.476 -11.37 434.478 -15.27 434.479 C-21.809 434.481 -28.347 434.479 -34.886 434.474 C-42.454 434.469 -50.022 434.47 -57.589 434.476 C-64.089 434.48 -70.59 434.481 -77.09 434.479 C-80.972 434.477 -84.853 434.477 -88.735 434.48 C-92.377 434.483 -96.019 434.481 -99.66 434.475 C-101.641 434.473 -103.622 434.476 -105.603 434.479 C-106.771 434.476 -107.939 434.474 -109.142 434.471 C-110.163 434.47 -111.184 434.47 -112.236 434.47 C-114.523 434.344 -114.523 434.344 -115.523 433.344 C-116.702 433.23 -117.88 433.117 -119.094 433 C-123.689 432.468 -127.312 430.95 -131.398 428.844 C-132.093 428.489 -132.788 428.135 -133.504 427.769 C-148.216 419.951 -157.45 407.637 -162.277 391.884 C-164.512 383.823 -164.951 376.324 -164.912 367.988 C-164.916 366.59 -164.921 365.193 -164.928 363.795 C-164.941 360.032 -164.936 356.269 -164.926 352.506 C-164.919 348.537 -164.926 344.568 -164.931 340.599 C-164.936 333.928 -164.929 327.257 -164.915 320.586 C-164.898 312.927 -164.903 305.268 -164.92 297.609 C-164.934 290.988 -164.936 284.368 -164.928 277.747 C-164.923 273.813 -164.922 269.879 -164.932 265.945 C-164.994 237.89 -164.994 237.89 -163.249 225.828 C-163.195 225.452 -163.195 225.452 -162.922 223.551 C-162.11 218.837 -160.556 214.777 -158.496 210.466 C-157.482 208.253 -156.683 206.022 -155.898 203.719 C-145.541 177.765 -121.473 159.511 -96.641 148.722 C-86.748 144.633 -76.304 141.574 -65.523 142.344 C-65.523 141.684 -65.523 141.024 -65.523 140.344 C-66.529 140.251 -67.534 140.158 -68.57 140.062 C-72.705 139.464 -76.141 137.848 -79.773 135.844 C-80.425 135.486 -81.077 135.129 -81.749 134.76 C-99.33 124.83 -111.772 108.869 -117.375 89.429 C-118.878 83.803 -120.274 78.173 -120.523 72.344 C-120.575 71.271 -120.627 70.199 -120.68 69.094 C-121.241 46.654 -114.337 27.212 -98.832 10.688 C-88.91 0.614 -78.178 -6.587 -64.523 -10.656 C-63.934 -10.835 -63.934 -10.835 -60.949 -11.738 C-40.045 -16.823 -17.676 -11.601 0 0 Z " fill="#F7FAFD" transform="translate(506.5234375,438.65625)"/>
<path d="M0 0 C6.465 0.543 12.19 1.748 18.352 3.738 C19.233 4.015 20.114 4.292 21.022 4.577 C23.892 5.481 26.758 6.397 29.625 7.312 C32.64 8.267 35.655 9.219 38.671 10.171 C40.726 10.82 42.78 11.469 44.834 12.12 C51.647 14.274 58.476 16.368 65.32 18.422 C67.098 18.958 68.876 19.494 70.654 20.03 C73.175 20.79 75.696 21.547 78.221 22.293 C97.714 28.058 113.057 37.242 124.262 54.703 C130.887 67.27 133.71 80.362 136.875 94.125 C137.471 96.681 138.068 99.237 138.666 101.793 C139.838 106.805 141.005 111.819 142.169 116.833 C144.624 127.407 147.107 137.974 149.597 148.54 C160.277 193.856 170.847 239.195 181.293 284.565 C182.156 288.314 183.019 292.063 183.883 295.812 C184.095 296.735 184.308 297.658 184.527 298.608 C188.928 317.717 193.37 336.817 197.82 355.914 C204.858 386.128 211.872 416.347 218.837 446.577 C219.731 450.457 220.626 454.336 221.522 458.216 C222.568 462.739 223.61 467.264 224.65 471.788 C225.032 473.447 225.415 475.106 225.799 476.765 C226.325 479.037 226.847 481.31 227.368 483.584 C227.661 484.854 227.953 486.125 228.255 487.434 C232.656 508.5 230.867 530.363 219.895 549.129 C215.537 555.732 210.599 561.434 205 567 C204.769 567.23 204.769 567.23 203.6 568.393 C202.616 569.37 201.633 570.348 200.649 571.325 C198.397 573.564 196.148 575.805 193.899 578.046 C192.721 579.219 191.542 580.391 190.362 581.563 C188.637 583.275 186.916 584.991 185.195 586.707 C184.678 587.219 184.162 587.731 183.629 588.258 C180.834 591.053 178.174 593.918 175.591 596.911 C172.019 601.035 168.225 604.886 164.344 608.719 C163.638 609.421 162.932 610.123 162.204 610.847 C159.221 613.814 156.232 616.775 153.243 619.737 C151.045 621.916 148.851 624.099 146.656 626.281 C145.993 626.937 145.329 627.592 144.645 628.267 C141.503 631.393 138.473 634.559 135.582 637.918 C131.616 642.512 127.343 646.764 123.031 651.031 C122.192 651.867 121.353 652.702 120.488 653.563 C116.931 657.103 113.369 660.638 109.806 664.173 C107.192 666.77 104.58 669.369 101.969 671.969 C101.174 672.755 100.379 673.542 99.56 674.353 C96.11 677.788 92.741 681.237 89.568 684.932 C85.278 689.915 80.606 694.499 75.938 699.125 C74.977 700.081 74.018 701.036 73.058 701.993 C69.532 705.506 66.001 709.013 62.469 712.52 C59.473 715.497 56.479 718.475 53.488 721.456 C52.101 722.837 50.712 724.213 49.322 725.59 C44.928 729.967 40.705 734.405 36.665 739.11 C33.779 742.386 30.669 745.434 27.562 748.5 C26.879 749.18 26.195 749.86 25.49 750.561 C22.603 753.432 19.709 756.298 16.815 759.164 C14.687 761.274 12.562 763.387 10.438 765.5 C9.796 766.134 9.154 766.767 8.492 767.42 C5.482 770.414 2.584 773.442 -0.172 776.672 C-4.807 782.036 -9.87 786.981 -14.897 791.972 C-16.725 793.787 -18.55 795.606 -20.374 797.425 C-24.902 801.939 -29.435 806.448 -33.968 810.958 C-37.81 814.779 -41.649 818.604 -45.486 822.43 C-47.272 824.209 -49.06 825.985 -50.848 827.761 C-55.839 832.73 -60.732 837.721 -65.306 843.081 C-68.816 847.058 -72.639 850.739 -76.406 854.469 C-77.29 855.348 -78.173 856.228 -79.084 857.135 C-82.36 860.397 -85.64 863.654 -88.921 866.911 C-92.148 870.115 -95.371 873.323 -98.594 876.531 C-99.432 877.362 -100.271 878.192 -101.135 879.048 C-105.974 883.866 -110.55 888.823 -115 894 C-126.441 906.561 -137.948 917.898 -155 922 C-155.735 922.18 -156.47 922.361 -157.227 922.547 C-160.922 923.151 -164.577 923.264 -168.312 923.312 C-169.014 923.342 -169.716 923.371 -170.439 923.4 C-185.858 923.575 -201.609 916.656 -216.019 911.865 C-222.154 909.826 -228.296 907.807 -234.438 905.785 C-235.058 905.581 -235.058 905.581 -238.197 904.546 C-249.464 900.836 -260.757 897.215 -272.062 893.625 C-275.89 892.408 -279.716 891.191 -283.543 889.973 C-284.522 889.661 -285.5 889.35 -286.508 889.029 C-299.974 884.739 -313.425 880.401 -326.875 876.062 C-327.206 875.956 -327.206 875.956 -328.878 875.416 C-348.013 869.244 -367.133 863.028 -386.24 856.771 C-402.447 851.465 -418.681 846.25 -434.927 841.069 C-452.266 835.539 -469.568 829.905 -486.86 824.23 C-500.539 819.743 -514.233 815.313 -527.963 810.987 C-535.313 808.67 -542.657 806.337 -550 804 C-550.415 803.868 -550.415 803.868 -552.513 803.202 C-557.504 801.615 -562.489 800.012 -567.468 798.387 C-568.997 797.89 -570.528 797.398 -572.061 796.911 C-592.091 790.539 -608.014 780.205 -618.391 761.492 C-625.038 748.078 -627.117 732.186 -630.037 717.611 C-630.622 714.7 -631.221 711.792 -631.82 708.885 C-634.24 696.957 -635.976 685.128 -637 673 C-632.622 674.072 -628.291 675.156 -624.004 676.551 C-623.126 676.834 -622.247 677.117 -621.342 677.409 C-620.425 677.707 -619.508 678.005 -618.562 678.312 C-611.462 680.596 -604.353 682.803 -597.187 684.872 C-587.297 687.755 -577.483 690.891 -567.654 693.975 C-567 694.181 -566.346 694.386 -565.672 694.598 C-565.017 694.803 -564.363 695.009 -563.689 695.22 C-558.569 696.826 -553.441 698.405 -548.312 699.979 C-535.16 704.032 -522.038 708.182 -508.907 712.302 C-505.61 713.337 -502.314 714.371 -499.017 715.405 C-488.446 718.722 -477.875 722.039 -467.305 725.357 C-462.688 726.807 -458.07 728.256 -453.453 729.705 C-451.257 730.395 -449.062 731.084 -446.866 731.773 C-426.519 738.163 -426.519 738.163 -416.555 741.217 C-413.158 742.258 -409.766 743.315 -406.375 744.375 C-405.722 744.579 -405.068 744.783 -404.395 744.994 C-399.031 746.673 -393.672 748.367 -388.312 750.062 C-381.96 752.072 -375.6 754.054 -369.23 756.008 C-359.108 759.117 -349.015 762.286 -338.988 765.691 C-333.359 767.567 -327.674 769.268 -322 771 C-308.282 775.191 -294.582 779.384 -281 784 C-277.876 785.045 -274.751 786.085 -271.625 787.125 C-269.475 787.841 -267.326 788.558 -265.176 789.275 C-263.641 789.786 -262.106 790.297 -260.57 790.807 C-260.172 790.939 -260.172 790.939 -258.156 791.609 C-257.435 791.849 -256.714 792.088 -255.971 792.335 C-254.265 792.911 -252.569 793.515 -250.875 794.125 C-238.167 797.993 -220.923 798.038 -209 792 C-200.385 787.249 -194.296 781.453 -188 774 C-186.156 771.969 -184.304 769.948 -182.438 767.938 C-181.939 767.398 -181.441 766.859 -180.927 766.303 C-175.35 760.277 -169.714 754.306 -164.082 748.332 C-153.596 737.209 -143.16 726.038 -132.734 714.859 C-129.823 711.739 -126.912 708.619 -124 705.5 C-122.833 704.25 -121.667 703 -120.5 701.75 C-113.5 694.25 -113.5 694.25 -111.749 692.374 C-110.585 691.127 -109.421 689.879 -108.257 688.632 C-105.304 685.468 -102.351 682.305 -99.395 679.145 C-94.112 673.495 -88.839 667.838 -83.625 662.125 C-77.173 655.068 -70.603 648.123 -64.042 641.167 C-60.814 637.742 -57.594 634.309 -54.375 630.875 C-54.066 630.546 -54.066 630.546 -52.505 628.88 C-48.331 624.425 -44.164 619.964 -40 615.5 C-29.357 604.09 -18.678 592.715 -7.981 581.356 C-2.863 575.92 2.245 570.475 7.349 565.026 C10.586 561.571 13.827 558.121 17.074 554.676 C18.445 553.221 19.816 551.767 21.188 550.312 C21.855 549.604 22.523 548.896 23.211 548.167 C27.858 543.23 32.46 538.255 37.044 533.26 C40.09 529.953 43.216 526.753 46.426 523.605 C48.82 521.164 51.018 518.559 53.25 515.969 C55.451 513.493 57.795 511.192 60.158 508.873 C61.925 507.077 63.574 505.227 65.215 503.316 C69.701 498.156 74.415 493.221 79.127 488.268 C94.346 472.2 102.688 455.591 102.545 433.041 C102.252 424.431 100.196 416.65 97.71 408.451 C96.453 404.112 95.457 399.712 94.438 395.312 C92.992 389.151 91.506 383.006 89.938 376.875 C88.489 371.15 87.238 365.411 86.062 359.625 C84.814 353.503 83.366 347.5 81.625 341.5 C79.074 332.691 77.116 323.775 75.161 314.817 C73.427 306.885 71.572 299.008 69.549 291.145 C65.165 274.03 61.014 256.857 56.887 239.679 C56.024 236.099 55.154 232.52 54.281 228.941 C51.045 215.649 47.91 202.339 44.875 189 C44.705 188.252 44.535 187.504 44.359 186.734 C44.191 185.994 44.022 185.253 43.849 184.491 C42.008 176.404 40.162 168.32 38.25 160.25 C38.163 159.879 38.163 159.879 37.722 158.004 C36.626 153.409 35.42 148.851 34.18 144.293 C31.744 135.272 29.667 126.169 27.568 117.065 C23.353 98.8 18.975 80.585 14.349 62.42 C12.212 54.005 10.186 45.58 8.366 37.089 C7.189 31.648 5.834 26.305 3.938 21.062 C3.154 18.503 2.738 16.323 2.438 13.688 C2 10 2 10 1 9 C0.543 6.014 0.296 3.006 0 0 Z " fill="#046CA0" transform="translate(947,297)"/>
<path d="M0 0 C0.724 -0.037 1.449 -0.075 2.195 -0.113 C20.227 -0.384 39.5 8.415 56.445 13.748 C59.837 14.815 63.231 15.876 66.624 16.938 C70.719 18.219 74.814 19.501 78.908 20.784 C90.118 24.298 101.338 27.782 112.562 31.25 C114.246 31.77 115.929 32.291 117.613 32.812 C120.905 33.829 124.196 34.847 127.488 35.864 C133.285 37.656 139.081 39.451 144.877 41.245 C151.808 43.392 158.739 45.536 165.671 47.681 C170.812 49.272 175.953 50.864 181.094 52.457 C188.271 54.681 195.448 56.904 202.625 59.125 C203.219 59.309 203.219 59.309 206.227 60.24 C219.425 64.324 232.63 68.38 245.875 72.312 C256.61 75.501 267.271 78.893 277.918 82.361 C289.162 86.016 300.452 89.517 311.75 93 C326.029 97.404 340.301 101.822 354.51 106.451 C357.61 107.451 360.719 108.421 363.828 109.391 C384.195 115.828 384.195 115.828 392.375 122.375 C392.995 122.82 393.615 123.264 394.254 123.723 C406.909 133.433 413.167 148.3 417.152 163.215 C417.409 164.167 417.666 165.12 417.93 166.102 C420.746 176.63 423.389 187.201 425.955 197.793 C426.49 199.994 427.031 202.193 427.578 204.391 C428.384 207.637 429.174 210.886 429.961 214.137 C430.205 215.105 430.448 216.073 430.699 217.07 C432.251 223.598 432.658 229.674 432.375 236.375 C425.837 235.794 420.031 234.185 413.812 232.125 C412.842 231.81 411.871 231.495 410.87 231.17 C405.423 229.398 399.991 227.579 394.562 225.75 C389.488 224.042 384.393 222.481 379.25 221 C371.959 218.899 364.777 216.532 357.591 214.1 C351.097 211.915 344.565 209.897 338 207.938 C329.035 205.257 320.207 202.275 311.387 199.151 C305.159 196.957 298.934 195.039 292.562 193.301 C288.034 191.985 283.632 190.367 279.215 188.719 C271.095 185.792 262.75 183.484 254.484 181.008 C228.596 173.252 228.596 173.252 217.914 169.345 C213.509 167.743 209.067 166.352 204.562 165.062 C193.312 161.84 182.202 158.174 171.07 154.569 C167.446 153.398 163.819 152.234 160.191 151.074 C148.091 147.202 136.003 143.302 123.978 139.201 C118.5 137.351 112.988 135.668 107.434 134.066 C101.056 132.224 94.766 130.189 88.484 128.043 C85.9 127.174 83.315 126.309 80.729 125.444 C78.997 124.857 77.268 124.261 75.542 123.655 C60.114 118.252 42.791 114.65 27.036 121.069 C16.752 126.117 9.01 132.079 1.125 140.375 C-0.729 142.296 -2.591 144.211 -4.453 146.125 C-5.257 146.965 -6.06 147.806 -6.888 148.672 C-8.954 150.712 -11.018 152.596 -13.22 154.479 C-18.277 158.859 -22.962 163.6 -27.671 168.346 C-29.318 170.006 -30.969 171.663 -32.62 173.319 C-36.124 176.835 -39.625 180.355 -43.125 183.875 C-47.186 187.96 -51.249 192.043 -55.316 196.122 C-56.929 197.741 -58.539 199.363 -60.148 200.986 C-64.872 205.733 -69.643 210.353 -74.735 214.71 C-78.319 217.868 -81.643 221.292 -85 224.688 C-85.769 225.46 -86.538 226.233 -87.33 227.029 C-89.764 229.475 -92.195 231.925 -94.625 234.375 C-97.83 237.607 -101.039 240.836 -104.25 244.062 C-104.611 244.427 -104.611 244.427 -106.435 246.273 C-110.366 250.222 -114.4 253.957 -118.62 257.594 C-122.233 260.803 -125.604 264.252 -129 267.688 C-129.384 268.074 -129.384 268.074 -131.33 270.029 C-133.764 272.475 -136.195 274.925 -138.625 277.375 C-141.83 280.607 -145.039 283.836 -148.25 287.062 C-148.611 287.427 -148.611 287.427 -150.435 289.273 C-153.736 292.589 -157.066 295.807 -160.611 298.861 C-165.028 302.669 -169.12 306.762 -173.219 310.906 C-174.01 311.701 -174.801 312.496 -175.616 313.315 C-178.121 315.832 -180.624 318.353 -183.125 320.875 C-186.424 324.201 -189.727 327.523 -193.031 330.844 C-193.403 331.219 -193.403 331.219 -195.283 333.12 C-198.524 336.377 -201.775 339.55 -205.277 342.527 C-211.081 347.53 -216.402 353.042 -221.8 358.475 C-223.829 360.516 -225.86 362.555 -227.893 364.592 C-232.202 368.913 -236.508 373.237 -240.812 377.562 C-245.815 382.588 -250.819 387.613 -255.827 392.633 C-257.824 394.636 -259.817 396.642 -261.811 398.648 C-263.038 399.879 -264.265 401.11 -265.493 402.341 C-266.042 402.895 -266.591 403.449 -267.157 404.02 C-269.49 406.354 -271.788 408.505 -274.377 410.563 C-282.986 417.504 -287.358 431.831 -289.375 442.25 C-289.48 443.623 -289.561 444.999 -289.625 446.375 C-289.662 446.824 -289.662 446.824 -289.852 449.098 C-290.366 460.23 -287.745 470.713 -285.43 481.534 C-284.055 488.096 -282.79 494.679 -281.519 501.262 C-281.061 503.634 -280.601 506.005 -280.14 508.377 C-278.49 516.874 -276.857 525.375 -275.249 533.881 C-274.125 539.802 -272.974 545.718 -271.816 551.633 C-271.649 552.489 -271.481 553.346 -271.309 554.229 C-270.472 558.504 -269.634 562.779 -268.793 567.053 C-266.722 577.612 -264.718 588.181 -262.742 598.758 C-259.898 613.979 -256.979 629.185 -254.024 644.385 C-253.616 646.485 -253.208 648.586 -252.8 650.687 C-247.743 676.737 -242.621 702.773 -237.471 728.805 C-234.879 741.905 -232.294 755.007 -229.744 768.115 C-229.371 770.032 -228.997 771.948 -228.622 773.865 C-226.716 783.691 -225.047 793.547 -223.484 803.434 C-222.762 807.825 -221.733 812.066 -220.625 816.375 C-220.287 818.245 -219.972 820.121 -219.688 822 C-219.008 826.219 -218.224 830.388 -217.312 834.562 C-215.215 844.174 -213.306 853.822 -211.399 863.473 C-210.84 866.288 -210.279 869.103 -209.714 871.918 C-208.901 875.97 -208.095 880.024 -207.293 884.078 C-206.975 885.682 -206.654 887.285 -206.331 888.888 C-205.875 891.156 -205.427 893.425 -204.98 895.695 C-204.843 896.367 -204.706 897.039 -204.565 897.732 C-203.737 902 -203.503 906.033 -203.625 910.375 C-212.323 909.169 -220.483 907.11 -228.844 904.453 C-230.063 904.071 -231.283 903.688 -232.54 903.294 C-235.103 902.488 -237.664 901.678 -240.224 900.863 C-243.467 899.831 -246.716 898.816 -249.966 897.805 C-253.115 896.822 -256.261 895.824 -259.406 894.828 C-260.553 894.472 -261.701 894.115 -262.883 893.748 C-282.863 887.337 -296.637 877.297 -306.875 858.812 C-308.959 854.317 -310.366 849.918 -311.387 845.086 C-311.551 844.328 -311.715 843.571 -311.884 842.79 C-314.7 829.555 -317.191 816.249 -319.73 802.958 C-320.194 800.526 -320.66 798.094 -321.126 795.662 C-325.394 773.373 -329.53 751.065 -333.515 728.723 C-337.975 703.747 -342.629 678.809 -347.312 653.875 C-347.506 652.847 -347.699 651.819 -347.898 650.76 C-351.993 628.954 -356.101 607.15 -360.212 585.346 C-367.201 548.28 -374.168 511.21 -381.064 474.126 C-381.84 469.951 -382.618 465.777 -383.396 461.603 C-385.671 449.396 -387.927 437.187 -390.151 424.971 C-390.621 422.395 -391.095 419.819 -391.568 417.243 C-392.308 413.214 -393.034 409.183 -393.749 405.15 C-394.009 403.695 -394.273 402.241 -394.541 400.788 C-398.345 380.129 -397.428 358.961 -385.875 340.688 C-380.156 332.708 -373.324 325.924 -365.969 319.465 C-363.9 317.621 -361.939 315.728 -360 313.75 C-357.652 311.358 -355.229 309.124 -352.688 306.938 C-349.879 304.519 -347.225 302.016 -344.625 299.375 C-341.403 296.103 -338.039 293.082 -334.559 290.09 C-332.094 287.904 -329.807 285.57 -327.501 283.22 C-325.686 281.435 -323.816 279.765 -321.887 278.105 C-317.81 274.561 -313.863 270.897 -309.938 267.188 C-305.022 262.559 -300.095 257.945 -295.125 253.375 C-288.264 247.06 -281.466 240.678 -274.669 234.294 C-272.004 231.792 -269.336 229.293 -266.669 226.794 C-260.459 220.975 -254.257 215.148 -248.062 209.312 C-242.762 204.32 -237.451 199.34 -232.125 194.375 C-208.506 172.347 -208.506 172.347 -200.523 164.242 C-198.027 161.787 -195.381 159.532 -192.723 157.254 C-189.362 154.243 -186.24 150.998 -183.07 147.789 C-180.334 145.087 -177.475 142.584 -174.555 140.086 C-172.492 138.257 -170.559 136.339 -168.625 134.375 C-166.105 131.816 -163.544 129.393 -160.812 127.062 C-157.423 124.152 -154.26 121.053 -151.125 117.875 C-148.072 114.78 -145.002 111.756 -141.688 108.938 C-137.582 105.439 -133.841 101.618 -130.054 97.784 C-126.679 94.384 -123.2 91.187 -119.551 88.082 C-116.507 85.384 -113.699 82.457 -110.844 79.562 C-108.217 76.973 -105.455 74.587 -102.656 72.188 C-99.585 69.447 -96.737 66.496 -93.848 63.566 C-91.198 60.954 -88.413 58.542 -85.59 56.121 C-83.517 54.279 -81.571 52.351 -79.625 50.375 C-77.085 47.796 -74.5 45.353 -71.75 43 C-68.558 40.259 -65.582 37.368 -62.625 34.375 C-59.057 30.763 -55.404 27.366 -51.535 24.082 C-49.54 22.299 -47.759 20.396 -45.938 18.438 C-33.873 6.327 -16.871 0.307 0 0 Z " fill="#034CA0" transform="translate(512.625,58.625)"/>
<path d="M0 0 C2.645 0.037 5.29 0.041 7.935 0.041 C21.2 0.094 34.452 0.612 47.074 5.099 C47.825 5.359 48.576 5.619 49.349 5.886 C59.991 9.704 69.314 15.098 77.949 22.412 C78.613 22.931 79.277 23.451 79.961 23.986 C89.264 31.535 96.789 42.171 100.949 53.412 C101.101 56.259 101.101 56.259 100.949 58.412 C100.441 58.557 100.441 58.557 97.871 59.294 C84.619 63.195 73.363 68.082 62.949 77.412 C62.103 78.163 61.258 78.915 60.386 79.689 C53.841 85.845 49.235 92.54 44.949 100.412 C44.707 100.853 44.707 100.853 43.484 103.087 C36.901 116.273 35.579 129.289 35.574 143.849 C35.572 145.129 35.571 146.409 35.569 147.727 C35.675 156.71 36.313 165.261 39.886 173.599 C40.063 174.014 40.063 174.014 40.957 176.115 C41.12 176.494 41.12 176.494 41.949 178.412 C42.382 179.546 42.815 180.68 43.261 181.849 C47.702 191.224 53.7 199.039 60.949 206.412 C61.636 207.112 62.323 207.812 63.031 208.533 C74.676 219.616 91.026 227.524 107.191 228.271 C108.949 228.412 108.949 228.412 109.949 229.412 C111.159 237.362 106.806 243.476 102.273 249.72 C95.855 257.525 86.97 262.789 76.949 264.412 C74.978 264.506 73.004 264.551 71.031 264.559 C69.845 264.566 68.659 264.573 67.438 264.58 C66.791 264.582 66.791 264.582 63.521 264.589 C62.139 264.595 60.757 264.602 59.375 264.609 C54.845 264.63 50.315 264.64 45.785 264.65 C44.221 264.654 42.657 264.658 41.093 264.662 C33.742 264.681 26.392 264.696 19.041 264.704 C10.577 264.714 2.114 264.74 -6.35 264.78 C-12.905 264.811 -19.461 264.825 -26.017 264.829 C-29.926 264.831 -33.834 264.84 -37.743 264.865 C-41.425 264.889 -45.107 264.893 -48.789 264.882 C-50.768 264.882 -52.747 264.901 -54.726 264.92 C-66.52 264.852 -75.755 261.675 -85.051 254.412 C-85.667 253.933 -86.283 253.455 -86.918 252.962 C-94.368 246.39 -100.46 234.266 -101.311 224.397 C-101.316 223.327 -101.32 222.257 -101.325 221.155 C-101.335 219.919 -101.345 218.683 -101.355 217.409 C-101.356 216.052 -101.357 214.695 -101.357 213.338 C-101.365 211.899 -101.373 210.459 -101.383 209.019 C-101.405 205.116 -101.413 201.212 -101.418 197.309 C-101.422 194.862 -101.428 192.415 -101.435 189.968 C-101.46 181.408 -101.473 172.848 -101.477 164.288 C-101.48 156.35 -101.51 148.413 -101.552 140.476 C-101.587 133.633 -101.602 126.79 -101.603 119.947 C-101.604 115.873 -101.612 111.799 -101.641 107.726 C-101.829 79.281 -98.243 56.291 -80.051 33.412 C-79.288 32.38 -78.525 31.349 -77.739 30.287 C-57.236 8.354 -29.213 -0.418 0 0 Z " fill="#04397D" transform="translate(457.051025390625,593.58837890625)"/>
<path d="M0 0 C3.056 0.021 6.11 0 9.167 -0.025 C36.631 -0.065 63.011 7.583 83.2 26.994 C107.274 52.076 107.949 79.743 107.993 112.468 C107.997 114.865 108.003 117.263 108.01 119.66 C108.035 128.053 108.048 136.447 108.051 144.84 C108.055 152.62 108.085 160.399 108.127 168.178 C108.162 174.901 108.177 181.624 108.178 188.348 C108.178 192.344 108.187 196.341 108.216 200.337 C108.242 204.094 108.244 207.851 108.228 211.608 C108.225 213.619 108.247 215.629 108.27 217.64 C108.158 231.764 103.841 243.232 93.903 253.26 C89.911 256.924 85.61 259.434 80.626 261.521 C79.54 262.028 78.454 262.534 77.336 263.055 C71.363 265.268 65.274 264.956 58.98 264.941 C57.611 264.949 56.242 264.957 54.873 264.967 C51.172 264.989 47.471 264.992 43.771 264.99 C40.67 264.99 37.569 264.999 34.468 265.007 C27.144 265.026 19.819 265.029 12.495 265.022 C4.968 265.016 -2.558 265.039 -10.085 265.076 C-16.571 265.107 -23.057 265.118 -29.543 265.114 C-33.406 265.112 -37.269 265.117 -41.132 265.142 C-44.771 265.164 -48.409 265.162 -52.048 265.142 C-53.998 265.137 -55.948 265.156 -57.898 265.177 C-71.112 265.053 -81.894 260.785 -91.374 251.521 C-97.358 245.051 -101.641 238.61 -101.374 229.521 C-100.872 229.406 -100.872 229.406 -98.331 228.822 C-74.858 223.289 -53.965 213.289 -40.374 192.521 C-31.488 176.917 -26.982 163.032 -27.062 144.959 C-27.064 144.292 -27.067 143.624 -27.069 142.937 C-27.209 118.797 -33.41 97.934 -50.312 80.146 C-61.868 69.297 -76.201 62.631 -91.374 58.521 C-92.117 47.943 -84.123 38.57 -77.538 30.939 C-76.824 30.142 -76.11 29.344 -75.374 28.521 C-74.846 27.899 -74.317 27.276 -73.773 26.635 C-55.082 6.075 -26.525 -0.221 0 0 Z " fill="#0266F1" transform="translate(818.374267578125,593.478515625)"/>
<path d="M0 0 C13.641 10.643 24.429 25.569 27 43 C28.806 62.319 25.426 80.569 12.859 95.848 C12.246 96.558 11.632 97.268 11 98 C10.714 98.34 10.714 98.34 9.266 100.059 C1.839 108.2 -8.585 113.652 -19 117 C-19.835 117.345 -20.671 117.691 -21.531 118.047 C-36.616 122.192 -53.844 119.172 -67.625 112.438 C-83.516 103.123 -94.505 88.057 -99.812 70.562 C-103.964 52.343 -101.05 33.595 -91.214 17.8 C-82.015 4.157 -67.493 -6.552 -51.43 -10.488 C-33.155 -13.215 -15.467 -10.558 0 0 Z " fill="#0367F1" transform="translate(859,450)"/>
<path d="M0 0 C13.783 10.372 23.698 24.373 27.633 41.371 C29.526 60.729 27.107 78.948 14.633 94.371 C13.919 95.264 13.205 96.158 12.469 97.078 C2.556 108.76 -12.191 118.262 -27.778 119.574 C-47.47 120.332 -64.703 116.743 -80.059 103.656 C-94.22 89.639 -100.57 73.002 -100.805 53.371 C-100.683 35.639 -94.051 20.456 -81.781 7.617 C-74.855 1.173 -67.112 -4.005 -58.367 -7.629 C-57.598 -7.949 -56.828 -8.268 -56.035 -8.598 C-37.746 -14.819 -15.673 -10.785 0 0 Z " fill="#05397E" transform="translate(499.3671875,449.62890625)"/>
<path d="M0 0 C1.022 -0.01 2.044 -0.019 3.098 -0.029 C4.209 -0.033 5.32 -0.038 6.465 -0.042 C7.61 -0.048 8.756 -0.053 9.935 -0.059 C12.368 -0.069 14.801 -0.075 17.234 -0.079 C20.923 -0.089 24.612 -0.12 28.301 -0.151 C30.668 -0.158 33.036 -0.163 35.403 -0.167 C35.948 -0.173 35.948 -0.173 38.709 -0.204 C56.406 -0.154 72.152 6.237 85.098 18.161 C98.083 31.486 102.634 47.072 102.473 65.224 C102.485 66.534 102.496 67.844 102.508 69.194 C102.486 76.432 101.99 82.501 99.098 89.161 C98.794 89.985 98.49 90.809 98.176 91.657 C95.583 97.737 92.064 102.893 88.098 108.161 C87.671 108.779 87.245 109.396 86.805 110.032 C78.852 120.629 63.833 127.665 51.098 130.161 C42.689 131.048 34.237 130.944 25.792 130.833 C21.88 130.786 17.97 130.792 14.057 130.806 C11.556 130.795 9.056 130.78 6.555 130.763 C5.393 130.765 4.23 130.766 3.032 130.768 C-3.231 130.658 -7.152 130.396 -11.902 126.161 C-15.479 122.351 -17.238 118.382 -17.527 113.161 C-17.238 107.94 -15.479 103.972 -11.902 100.161 C-6.388 95.331 -1.339 95.603 5.778 95.657 C6.341 95.653 6.341 95.653 9.192 95.629 C12.786 95.6 16.379 95.597 19.973 95.599 C23.56 95.595 27.146 95.585 30.733 95.558 C32.961 95.541 35.189 95.538 37.417 95.551 C46.047 95.493 52.953 94 59.493 88.044 C67.012 79.225 67.712 69.221 67.098 58.161 C65.738 50.174 61.408 43.895 55.223 38.786 C47.872 34.964 40.765 34.901 32.661 34.958 C30.444 34.947 28.228 34.936 26.012 34.923 C22.549 34.913 19.087 34.911 15.625 34.931 C12.261 34.946 8.899 34.923 5.536 34.896 C4.508 34.911 3.481 34.926 2.423 34.942 C-4.642 34.847 -8.904 33.237 -13.902 28.161 C-17.006 23.699 -17.637 19.493 -16.902 14.161 C-15.103 8.023 -11.956 4.791 -6.902 1.161 C-4.429 -0.075 -2.766 0.021 0 0 Z " fill="#0568F1" transform="translate(667.90185546875,670.8388671875)"/>
<path d="M0 0 C2.427 -0.017 4.853 -0.044 7.279 -0.082 C10.795 -0.137 14.309 -0.159 17.825 -0.173 C18.902 -0.196 19.979 -0.219 21.089 -0.242 C27.88 -0.223 32.589 0.786 37.77 5.35 C41.548 9.77 42.465 14.074 42.227 19.85 C41.283 25.013 38.463 28.807 34.645 32.288 C31.361 34.149 28.694 34.474 24.998 34.476 C24.514 34.478 24.514 34.478 22.063 34.488 C21.54 34.488 21.54 34.488 18.891 34.491 C16.668 34.509 14.444 34.529 12.221 34.549 C8.721 34.578 5.222 34.6 1.722 34.601 C-1.66 34.604 -5.04 34.639 -8.421 34.678 C-9.454 34.671 -10.487 34.664 -11.551 34.657 C-19.644 34.791 -26.282 36.778 -32.377 42.293 C-39.282 49.503 -40.732 56.41 -40.65 66.206 C-40.308 75.631 -37.718 83.452 -31.5 90.631 C-24.36 96.038 -17.443 96.907 -8.695 96.784 C-6.482 96.793 -4.269 96.803 -2.056 96.813 C1.396 96.804 4.847 96.788 8.299 96.765 C11.655 96.751 15.011 96.766 18.368 96.784 C19.392 96.767 20.416 96.751 21.471 96.734 C28.183 96.78 32.575 98.013 37.77 102.35 C41.221 105.974 42.07 108.85 42.333 113.725 C42.114 119.264 40.624 123.326 36.77 127.35 C31.351 132.022 26.676 131.909 19.704 131.811 C18.633 131.81 17.563 131.809 16.46 131.808 C14.196 131.802 11.933 131.786 9.669 131.762 C6.244 131.725 2.819 131.721 -0.607 131.721 C-20.969 131.657 -39.375 130.794 -55.23 116.35 C-55.579 116.041 -55.579 116.041 -57.343 114.479 C-62.469 109.682 -65.852 104.463 -69.23 98.35 C-69.622 97.731 -70.014 97.113 -70.417 96.475 C-72.916 92.507 -73.998 88.815 -74.835 84.268 C-75.23 82.35 -75.23 82.35 -76.23 80.35 C-76.514 76.287 -76.544 72.223 -76.58 68.151 C-76.604 66.149 -76.661 64.148 -76.718 62.147 C-76.862 46.099 -71.002 31.318 -59.965 19.548 C-42.93 2.234 -23.178 0.116 0 0 Z " fill="#073A7E" transform="translate(590.22998046875,670.64990234375)"/>
<path d="M0 0 C1.113 -0.007 2.226 -0.014 3.373 -0.022 C4.606 -0.024 5.838 -0.027 7.107 -0.03 C8.397 -0.036 9.686 -0.043 11.014 -0.05 C14.562 -0.067 18.11 -0.078 21.658 -0.086 C23.873 -0.091 26.089 -0.097 28.305 -0.103 C35.235 -0.123 42.164 -0.137 49.094 -0.145 C57.098 -0.155 65.102 -0.181 73.105 -0.222 C79.288 -0.252 85.47 -0.267 91.653 -0.27 C95.347 -0.272 99.041 -0.281 102.735 -0.306 C106.858 -0.334 110.98 -0.33 115.103 -0.323 C116.328 -0.336 117.552 -0.348 118.813 -0.362 C127.087 -0.311 127.087 -0.311 131.099 2.052 C133.916 5.396 134.143 7.731 134.087 12.112 C133.766 15.048 132.683 16.856 130.864 19.147 C127.51 21.383 126.408 21.403 122.488 21.421 C121.372 21.431 120.256 21.441 119.106 21.452 C117.881 21.452 116.656 21.453 115.394 21.454 C114.104 21.462 112.815 21.47 111.486 21.479 C107.947 21.501 104.407 21.51 100.868 21.515 C98.657 21.518 96.445 21.524 94.234 21.532 C86.519 21.556 78.804 21.569 71.089 21.573 C63.898 21.576 56.707 21.606 49.517 21.648 C43.342 21.683 37.168 21.698 30.994 21.699 C27.307 21.7 23.62 21.709 19.932 21.737 C15.819 21.768 11.707 21.759 7.593 21.747 C6.372 21.761 5.151 21.776 3.893 21.791 C-5.29 21.712 -5.29 21.712 -8.369 18.735 C-11.183 14.614 -12.021 11.118 -11.136 6.147 C-8.698 3.21 -8.698 3.21 -6.136 1.147 C-4.445 -0.544 -2.317 0.01 0 0 Z " fill="#11B4FD" transform="translate(581.1358032226563,725.8528289794922)"/>
<path d="M0 0 C0.66 0.33 1.32 0.66 2 1 C1.432 1.557 0.863 2.114 0.277 2.688 C-3.439 6.36 -7.099 10.031 -10.5 14 C-15.771 20.117 -20.977 25.927 -28 30 C-29.37 31.296 -30.715 32.62 -32 34 C-32.66 33.67 -33.32 33.34 -34 33 C-31.504 30.475 -29.003 27.956 -26.5 25.438 C-25.804 24.733 -25.108 24.029 -24.391 23.303 C-20.336 19.23 -16.184 15.355 -11.83 11.605 C-9.271 9.36 -6.891 6.986 -4.5 4.562 C-3.644 3.698 -2.788 2.833 -1.906 1.941 C-1.277 1.301 -0.648 0.66 0 0 Z " fill="#3F74B6" transform="translate(332,204)"/>
<path d="M0 0 C0.33 0 0.66 0 1 0 C0.997 0.42 0.997 0.42 0.984 2.548 C0.967 5.733 0.954 8.918 0.945 12.103 C0.94 13.469 0.933 14.836 0.925 16.202 C0.868 25.189 1.153 34.052 2 43 C1.67 43 1.34 43 1 43 C-1.795 28.328 -3.377 14.775 0 0 Z " fill="#5E85BB" transform="translate(118,421)"/>
</svg>
