<?xml version="1.0" encoding="UTF-8"?>
<!-- Generator: visioncortex VTracer 0.6.12 -->
<svg version="1.1" xmlns="http://www.w3.org/2000/svg" width="1254" height="1254">
<path d="M0 0 C0.654 -0.029 1.308 -0.058 1.982 -0.088 C16.003 -0.257 30.471 5.857 43.646 10.137 C46.801 11.162 49.958 12.18 53.115 13.197 C57.848 14.721 62.581 16.247 67.312 17.774 C81.312 22.291 95.324 26.769 109.336 31.248 C111.689 32.001 114.042 32.753 116.395 33.506 C136.157 39.824 155.938 46.072 175.769 52.168 C186.308 55.409 196.812 58.745 207.299 62.153 C221.113 66.633 234.963 71.002 248.812 75.375 C250.001 75.751 251.189 76.126 252.414 76.513 C265.375 80.609 278.344 84.68 291.328 88.703 C305.497 93.095 319.664 97.493 333.812 101.954 C337.457 103.103 341.103 104.247 344.752 105.382 C348.381 106.51 352.006 107.65 355.629 108.798 C356.981 109.224 358.334 109.646 359.688 110.064 C370.733 113.477 381.358 117.436 389.438 126 C389.937 126.518 390.437 127.037 390.951 127.571 C405.85 143.453 409.042 164.281 413.688 184.812 C414.248 187.261 414.809 189.709 415.371 192.156 C416.729 198.077 418.075 204.001 419.417 209.925 C420.176 213.26 420.94 216.593 421.707 219.926 C421.942 220.949 422.177 221.973 422.419 223.027 C422.858 224.94 423.298 226.853 423.741 228.765 C423.933 229.604 424.124 230.442 424.322 231.307 C424.49 232.036 424.658 232.766 424.832 233.518 C425.188 235.312 425.188 235.312 425.188 237.312 C426.421 237.564 427.655 237.815 428.926 238.074 C434.858 239.396 440.591 241.253 446.367 243.129 C447.533 243.504 448.7 243.88 449.901 244.266 C452.371 245.062 454.84 245.86 457.309 246.659 C460.987 247.851 464.667 249.036 468.348 250.221 C473.201 251.784 478.05 253.359 482.897 254.942 C487.804 256.544 492.719 258.114 497.642 259.664 C500.035 260.43 502.428 261.197 504.82 261.965 C505.903 262.299 506.986 262.633 508.102 262.977 C524.929 268.434 538.366 279.65 546.522 295.358 C551.73 305.765 554.729 316.136 557.184 327.507 C558.049 331.509 558.931 335.508 559.81 339.507 C559.905 339.939 559.905 339.939 560.383 342.123 C562.725 352.792 565.139 363.444 567.551 374.098 C568.03 376.216 568.509 378.334 568.989 380.453 C570.234 385.955 571.48 391.458 572.727 396.96 C573.511 400.426 574.296 403.891 575.081 407.357 C581.959 437.738 588.876 468.11 595.843 498.471 C601.419 522.772 606.959 547.078 612.336 571.423 C617.385 594.272 622.516 617.101 627.644 639.932 C628.361 643.123 629.077 646.314 629.794 649.506 C630.716 653.612 631.638 657.718 632.561 661.824 C633.46 665.827 634.358 669.83 635.257 673.833 C637.22 682.582 639.188 691.329 641.178 700.072 C642.022 703.78 642.863 707.488 643.704 711.196 C644.096 712.921 644.49 714.646 644.885 716.371 C645.427 718.738 645.965 721.105 646.501 723.473 C646.58 723.813 646.58 723.813 646.978 725.536 C651.778 746.853 650.124 770.218 638.441 789.141 C634.357 795.025 629.68 800.03 624.539 805 C622.571 806.936 620.774 808.89 619 811 C614.838 815.877 610.222 820.302 605.671 824.81 C601.878 828.58 598.24 832.404 594.789 836.492 C592.133 839.511 589.228 842.279 586.367 845.102 C584.425 847.071 582.607 849.084 580.812 851.188 C577.925 854.558 574.845 857.698 571.688 860.812 C568.593 863.866 565.568 866.936 562.75 870.25 C559.734 873.789 556.493 877.047 553.188 880.312 C549.924 883.536 546.719 886.748 543.75 890.25 C539.947 894.735 535.74 898.811 531.541 902.922 C527.29 907.108 527.29 907.108 526.188 909.312 C525.528 909.312 524.867 909.312 524.188 909.312 C523.956 909.871 523.724 910.429 523.485 911.005 C521.847 913.917 519.812 915.894 517.426 918.234 C517.191 918.466 517.191 918.466 516.005 919.639 C514.508 921.119 513.005 922.591 511.5 924.062 C509.534 925.991 507.572 927.923 505.613 929.859 C505.135 930.332 504.657 930.804 504.164 931.291 C500.927 934.514 497.907 937.862 494.942 941.333 C490.622 946.207 485.855 950.679 481.215 955.246 C476.932 959.487 472.837 963.793 468.912 968.365 C465.204 972.552 461.139 976.399 457.148 980.312 C453.891 983.532 450.736 986.776 447.75 990.25 C443.087 995.664 437.951 1000.595 432.859 1005.602 C428.67 1009.748 424.677 1013.972 420.836 1018.441 C418.255 1021.371 415.478 1024.086 412.688 1026.812 C409.278 1030.18 405.903 1033.52 402.812 1037.188 C398.726 1042.013 394.157 1046.367 389.668 1050.813 C385.897 1054.561 382.285 1058.361 378.855 1062.426 C375.926 1065.739 372.723 1068.784 369.578 1071.891 C367.602 1073.893 365.753 1075.917 363.938 1078.062 C359.989 1082.687 355.634 1086.892 351.315 1091.166 C347.63 1094.826 344.116 1098.558 340.758 1102.523 C338.356 1105.26 335.738 1107.77 333.145 1110.324 C331.3 1112.198 329.581 1114.126 327.875 1116.125 C324.523 1120.029 320.901 1123.629 317.242 1127.239 C313.951 1130.502 310.88 1133.885 307.871 1137.406 C305.375 1140.232 302.706 1142.868 300.016 1145.508 C298.578 1146.927 297.186 1148.393 295.812 1149.875 C284.577 1160.308 272.003 1165.451 256.812 1165.625 C256.41 1165.64 256.41 1165.64 254.371 1165.713 C240.043 1165.857 225.623 1159.593 212.203 1155.07 C210.377 1154.459 208.551 1153.848 206.725 1153.238 C201.927 1151.632 197.13 1150.022 192.334 1148.411 C183.855 1145.562 175.373 1142.722 166.891 1139.883 C165.945 1139.566 164.999 1139.249 164.024 1138.923 C150.614 1134.433 137.183 1130.016 123.73 1125.656 C106.242 1119.988 88.789 1114.213 71.348 1108.398 C70.697 1108.181 70.046 1107.965 69.376 1107.741 C61.364 1105.07 53.354 1102.396 45.344 1099.722 C38.562 1097.457 31.779 1095.195 24.996 1092.932 C13.96 1089.251 2.925 1085.569 -8.111 1081.886 C-8.708 1081.687 -8.708 1081.687 -11.728 1080.679 C-17.871 1078.628 -24.014 1076.577 -30.157 1074.525 C-47.414 1068.761 -64.683 1063.038 -81.982 1057.399 C-87.819 1055.495 -93.653 1053.583 -99.488 1051.672 C-106.759 1049.291 -114.032 1046.914 -121.309 1044.552 C-124.622 1043.474 -127.931 1042.389 -131.24 1041.302 C-132.715 1040.819 -134.191 1040.34 -135.668 1039.864 C-148.872 1035.607 -160.351 1030.585 -170.812 1021.312 C-171.426 1020.793 -172.04 1020.274 -172.672 1019.738 C-176.517 1016.237 -179.524 1012.163 -182.438 1007.875 C-183.152 1006.824 -183.866 1005.774 -184.602 1004.691 C-192.452 990.531 -194.353 972.832 -197.438 957.188 C-198.155 953.594 -198.874 950.001 -199.593 946.408 C-200.052 944.115 -200.509 941.822 -200.965 939.528 C-202.347 932.574 -203.789 925.64 -205.345 918.723 C-205.812 916.312 -205.812 916.312 -205.812 913.312 C-206.116 913.258 -206.116 913.258 -207.651 912.981 C-213.837 911.812 -219.757 910.228 -225.746 908.301 C-226.664 908.009 -227.581 907.718 -228.526 907.418 C-230.459 906.803 -232.391 906.185 -234.322 905.565 C-237.209 904.638 -240.099 903.722 -242.99 902.807 C-252.165 899.887 -261.293 896.863 -270.34 893.566 C-271.108 893.289 -271.876 893.012 -272.667 892.726 C-288.322 886.923 -299.359 876.194 -306.812 861.312 C-311.342 850.163 -313.501 838.676 -315.562 826.875 C-315.933 824.808 -316.304 822.74 -316.675 820.673 C-317.671 815.115 -318.655 809.555 -319.635 803.994 C-320.634 798.32 -321.638 792.646 -322.644 786.973 C-322.805 786.064 -322.966 785.156 -323.132 784.22 C-323.466 782.332 -323.801 780.444 -324.135 778.556 C-326.295 766.368 -328.453 754.18 -330.607 741.991 C-335.478 714.422 -340.389 686.861 -345.375 659.312 C-345.527 658.474 -345.678 657.636 -345.835 656.772 C-348.156 643.951 -350.483 631.132 -352.812 618.312 C-352.893 617.872 -352.893 617.872 -353.298 615.642 C-356.303 599.107 -359.309 582.572 -362.318 566.038 C-365.823 546.776 -369.322 527.512 -372.805 508.246 C-372.967 507.346 -373.13 506.445 -373.298 505.518 C-374.9 496.654 -376.501 487.79 -378.095 478.925 C-378.853 474.708 -379.612 470.491 -380.371 466.273 C-380.444 465.866 -380.444 465.866 -380.815 463.806 C-382.693 453.388 -384.617 442.979 -386.597 432.579 C-387.434 428.171 -388.261 423.762 -389.09 419.353 C-389.72 416.032 -390.37 412.715 -391.021 409.398 C-395.748 384.659 -395.686 361.181 -381.812 339.312 C-379.099 335.642 -376.07 332.503 -372.812 329.312 C-371.602 328.083 -370.394 326.851 -369.188 325.617 C-363.575 319.909 -357.955 314.276 -351.832 309.113 C-348.484 306.128 -345.38 302.9 -342.229 299.71 C-338.974 296.43 -335.623 293.362 -332.094 290.379 C-328.078 286.742 -324.326 282.826 -320.559 278.934 C-319.975 278.338 -319.391 277.743 -318.789 277.129 C-318.264 276.587 -317.739 276.045 -317.198 275.487 C-315.812 274.312 -315.812 274.312 -313.812 274.312 C-313.812 273.652 -313.812 272.993 -313.812 272.312 C-312.344 270.867 -312.344 270.867 -310.312 269.188 C-307.346 266.67 -304.537 264.091 -301.812 261.312 C-299.313 258.774 -296.775 256.371 -294.062 254.062 C-290.467 250.977 -287.139 247.681 -283.812 244.312 C-279.983 240.435 -276.092 236.75 -271.938 233.219 C-269.119 230.69 -266.473 228.006 -263.812 225.312 C-259.983 221.435 -256.092 217.75 -251.938 214.219 C-249.119 211.69 -246.473 209.006 -243.812 206.312 C-239.983 202.435 -236.092 198.75 -231.938 195.219 C-229.119 192.69 -226.473 190.006 -223.812 187.312 C-220.609 184.07 -217.421 180.883 -213.938 177.938 C-210.014 174.605 -206.43 170.968 -202.812 167.312 C-198.646 163.102 -194.46 159.04 -189.934 155.215 C-186.337 151.989 -182.99 148.509 -179.594 145.074 C-176.132 141.588 -172.584 138.296 -168.836 135.117 C-165.717 132.335 -162.817 129.337 -159.883 126.363 C-156.639 123.092 -153.276 120.043 -149.773 117.055 C-147.526 115.058 -145.424 112.952 -143.312 110.812 C-140.604 108.067 -137.871 105.44 -134.938 102.938 C-131.567 100.05 -128.427 96.97 -125.312 93.812 C-121.644 90.094 -117.881 86.576 -113.906 83.188 C-110.769 80.378 -107.842 77.363 -104.885 74.366 C-101.619 71.072 -98.234 67.998 -94.707 64.988 C-91.947 62.547 -89.4 59.91 -86.816 57.285 C-84.23 54.739 -81.497 52.392 -78.746 50.027 C-76.858 48.352 -75.081 46.613 -73.312 44.812 C-70.922 42.379 -68.462 40.099 -65.875 37.875 C-63.067 35.456 -60.413 32.954 -57.812 30.312 C-54.601 27.057 -51.278 24.005 -47.805 21.031 C-46.478 19.887 -45.17 18.72 -43.883 17.531 C-31.764 6.434 -16.486 0.229 0 0 Z " fill="#0471A4" transform="translate(534.8125,58.6875)"/>
<path d="M0 0 C1.359 -0.003 2.719 -0.008 4.078 -0.015 C7.775 -0.028 11.472 -0.01 15.169 0.013 C19.17 0.033 23.171 0.023 27.173 0.017 C34.993 0.011 42.812 0.03 50.632 0.059 C59.738 0.091 68.844 0.095 77.95 0.098 C94.188 0.104 110.426 0.133 126.664 0.176 C142.429 0.218 158.194 0.246 173.958 0.258 C174.931 0.259 175.904 0.259 176.906 0.26 C180.816 0.263 184.726 0.266 188.636 0.269 C205.47 0.282 222.305 0.305 239.139 0.331 C241.868 0.335 244.597 0.338 247.325 0.342 C256.866 0.355 266.406 0.371 275.947 0.397 C279.892 0.408 283.838 0.417 287.783 0.422 C291.389 0.426 294.994 0.435 298.599 0.448 C300.534 0.454 302.468 0.455 304.402 0.456 C305.535 0.461 306.668 0.466 307.836 0.471 C308.329 0.472 308.329 0.472 310.823 0.478 C313.029 0.608 313.029 0.608 314.029 1.608 C314.124 4.194 314.155 6.754 314.143 9.341 C314.143 10.15 314.143 10.96 314.143 11.794 C314.143 14.484 314.135 17.173 314.127 19.862 C314.125 21.721 314.124 23.581 314.123 25.44 C314.119 30.344 314.109 35.248 314.098 40.152 C314.088 45.153 314.083 50.153 314.078 55.153 C314.067 64.971 314.05 74.79 314.029 84.608 C314.689 84.608 315.349 84.608 316.029 84.608 C316.237 85.309 316.444 86.011 316.658 86.733 C320.148 97.481 326.039 104.297 336.029 109.608 C345.231 113.283 354.777 113.082 364.51 113.12 C366.176 113.137 367.841 113.155 369.507 113.174 C373.855 113.221 378.203 113.251 382.552 113.278 C387.788 113.313 393.025 113.37 398.261 113.423 C406.184 113.501 414.106 113.552 422.029 113.608 C422.029 136.708 422.029 159.808 422.029 183.608 C439.712 181.398 439.712 181.398 448.154 179.483 C458.784 177.241 471.091 174.947 481.029 180.608 C487.569 185.302 493.389 190.478 495.029 198.608 C495.649 206.484 495.443 214.103 493.596 221.815 C492.832 225.578 492.477 229.353 492.092 233.171 C491.398 239.921 490.388 246.538 489.135 253.205 C488.185 258.386 487.555 263.556 487.029 268.796 C484.072 297.45 484.072 297.45 475.529 305.171 C473.094 307.124 471.093 308.01 468.029 308.608 C468.656 309.477 469.282 310.346 469.928 311.241 C470.754 312.405 471.579 313.569 472.404 314.733 C472.817 315.303 473.229 315.873 473.654 316.46 C474.054 317.027 474.453 317.594 474.865 318.178 C475.232 318.692 475.598 319.205 475.976 319.733 C478.94 325.009 479.32 330.153 479.297 336.083 C479.301 336.922 479.306 337.761 479.31 338.626 C479.323 341.431 479.321 344.236 479.32 347.041 C479.326 349.055 479.333 351.069 479.34 353.083 C479.358 358.55 479.362 364.017 479.364 369.484 C479.365 372.902 479.369 376.32 479.375 379.737 C479.393 391.666 479.401 403.595 479.4 415.524 C479.399 426.634 479.42 437.743 479.451 448.853 C479.478 458.399 479.488 467.944 479.487 477.49 C479.486 483.188 479.492 488.886 479.513 494.584 C479.533 499.945 479.533 505.306 479.518 510.668 C479.516 512.631 479.521 514.594 479.533 516.557 C479.667 539.722 479.667 539.722 471.743 548.241 C463.839 554.547 455.716 556.49 445.835 556.289 C444.682 556.29 443.53 556.291 442.342 556.292 C438.576 556.288 434.811 556.241 431.045 556.194 C428.416 556.183 425.788 556.174 423.16 556.168 C416.976 556.15 410.793 556.101 404.61 556.04 C397.563 555.973 390.515 555.94 383.468 555.91 C368.988 555.847 354.509 555.742 340.029 555.608 C340.028 554.799 340.026 553.99 340.025 553.157 C339.988 533.477 339.929 513.797 339.845 494.117 C339.806 484.6 339.773 475.083 339.758 465.566 C339.745 457.27 339.718 448.975 339.675 440.68 C339.652 436.288 339.636 431.896 339.637 427.503 C339.638 423.368 339.62 419.233 339.588 415.098 C339.58 413.582 339.578 412.065 339.583 410.549 C339.59 408.474 339.572 406.402 339.548 404.328 C339.545 403.168 339.541 402.009 339.537 400.814 C338.709 395.587 336.167 392.521 332.111 389.266 C326.711 386.503 320.638 387.038 314.721 387.077 C313.44 387.073 312.159 387.069 310.84 387.065 C308.137 387.059 305.435 387.068 302.733 387.087 C299.289 387.109 295.846 387.096 292.402 387.072 C289.091 387.054 285.781 387.067 282.471 387.077 C281.243 387.069 280.016 387.061 278.752 387.052 C272.305 387.122 266.144 387.229 261.029 391.608 C258.152 395.576 257.65 398.382 257.631 403.246 C257.624 403.899 257.617 404.553 257.61 405.226 C257.592 407.408 257.594 409.589 257.597 411.771 C257.588 413.339 257.578 414.906 257.566 416.473 C257.538 420.723 257.529 424.972 257.523 429.222 C257.514 433.665 257.488 438.108 257.463 442.551 C257.419 450.962 257.391 459.373 257.368 467.784 C257.341 477.361 257.297 486.937 257.252 496.514 C257.159 516.212 257.089 535.91 257.029 555.608 C244.489 555.608 231.949 555.608 219.029 555.608 C219.022 553.897 219.022 553.897 218.985 545.238 C218.935 533.935 218.868 522.631 218.794 511.328 C218.749 504.474 218.709 497.62 218.683 490.767 C218.657 484.153 218.616 477.54 218.566 470.926 C218.549 468.402 218.538 465.879 218.532 463.355 C218.522 459.821 218.494 456.288 218.462 452.754 C218.462 452.232 218.462 452.232 218.466 449.589 C218.396 444.187 218.112 440.251 215.029 435.608 C210.257 431.08 206.683 430.49 200.27 430.447 C199.691 430.442 199.691 430.442 196.76 430.418 C195.512 430.414 194.264 430.409 192.978 430.405 C191.691 430.399 190.404 430.393 189.078 430.388 C186.353 430.377 183.629 430.371 180.904 430.368 C177.428 430.362 173.951 430.338 170.475 430.31 C167.143 430.287 163.811 430.285 160.478 430.28 C159.858 430.274 159.858 430.274 156.715 430.242 C150.401 430.259 145.541 430.39 140.029 433.608 C136.419 437.503 134.911 439.965 134.871 445.214 C134.861 446.185 134.851 447.155 134.841 448.155 C134.836 449.223 134.83 450.291 134.824 451.392 C134.814 452.514 134.804 453.636 134.794 454.792 C134.762 458.514 134.738 462.237 134.713 465.96 C134.692 468.535 134.671 471.111 134.65 473.686 C134.6 479.781 134.555 485.876 134.512 491.971 C134.462 498.909 134.408 505.848 134.352 512.786 C134.238 527.06 134.132 541.334 134.029 555.608 C121.489 555.608 108.949 555.608 96.029 555.608 C95.98 550.059 95.931 544.509 95.881 538.792 C95.845 535.269 95.809 531.746 95.771 528.223 C95.711 522.636 95.653 517.049 95.607 511.461 C95.57 506.955 95.524 502.449 95.471 497.942 C95.453 496.226 95.438 494.51 95.426 492.793 C95.409 490.383 95.38 487.973 95.348 485.563 C95.346 484.859 95.344 484.154 95.342 483.429 C95.265 478.86 94.58 474.908 93.029 470.608 C88.635 466.434 85.976 465.484 80.022 465.431 C78.761 465.418 77.499 465.405 76.199 465.392 C74.814 465.384 73.429 465.376 72.045 465.37 C71.696 465.368 71.696 465.368 69.933 465.357 C66.244 465.337 62.554 465.322 58.864 465.313 C55.06 465.302 51.256 465.267 47.452 465.228 C44.521 465.201 41.591 465.193 38.66 465.19 C37.258 465.185 35.857 465.173 34.455 465.155 C32.488 465.13 30.521 465.134 28.554 465.138 C27.436 465.132 26.318 465.126 25.167 465.12 C20.286 465.879 17.287 468.077 14.181 471.858 C12.673 475.458 12.589 478.771 12.597 482.611 C12.587 483.402 12.576 484.193 12.566 485.007 C12.536 487.61 12.527 490.212 12.518 492.815 C12.501 494.624 12.483 496.433 12.463 498.242 C12.416 502.994 12.386 507.747 12.36 512.5 C12.33 517.353 12.283 522.206 12.238 527.059 C12.152 536.575 12.085 546.092 12.029 555.608 C7.613 555.785 3.198 555.89 -1.221 555.983 C-1.838 556.008 -1.838 556.008 -4.963 556.135 C-15.166 556.296 -23.306 553.764 -31.19 547.116 C-44.53 533.181 -45.421 518.33 -45.358 499.802 C-45.363 497.796 -45.368 495.79 -45.375 493.785 C-45.389 488.296 -45.385 482.807 -45.378 477.318 C-45.373 471.389 -45.385 465.461 -45.396 459.532 C-45.412 448.597 -45.414 437.662 -45.409 426.727 C-45.405 416.623 -45.405 406.519 -45.411 396.415 C-45.412 395.058 -45.413 393.701 -45.413 392.344 C-45.415 390.299 -45.416 388.254 -45.417 386.209 C-45.428 367.205 -45.432 348.201 -45.424 329.196 C-45.424 328.481 -45.424 327.765 -45.424 327.027 C-45.421 321.214 -45.418 315.402 -45.416 309.589 C-45.406 286.916 -45.414 264.244 -45.437 241.571 C-45.463 216.078 -45.476 190.586 -45.469 165.093 C-45.468 162.374 -45.468 159.654 -45.467 156.935 C-45.467 156.265 -45.467 155.595 -45.467 154.906 C-45.464 144.811 -45.472 134.716 -45.485 124.621 C-45.5 113.138 -45.501 101.654 -45.483 90.171 C-45.475 84.314 -45.473 78.457 -45.488 72.601 C-45.502 67.235 -45.497 61.869 -45.478 56.503 C-45.474 54.567 -45.477 52.63 -45.487 50.693 C-45.557 36.727 -45.141 23.347 -34.971 12.608 C-34.407 11.993 -33.844 11.378 -33.264 10.745 C-24.068 1.704 -12.407 -0.14 0 0 Z " fill="#FBFBFB" transform="translate(449.97076416015625,394.3919982910156)"/>
<path d="M0 0 C3.208 1.137 6.431 2.156 9.688 3.14 C10.641 3.431 11.594 3.723 12.575 4.023 C15.033 4.757 17.494 5.48 19.958 6.195 C20.71 6.414 21.462 6.633 22.237 6.858 C23.692 7.28 25.148 7.7 26.604 8.115 C30.668 9.292 34.612 10.642 38.561 12.156 C42.627 13.679 46.755 15.023 50.876 16.39 C51.733 16.677 52.589 16.964 53.472 17.259 C58.272 18.857 63.087 20.389 67.927 21.863 C75.87 24.291 83.734 26.947 91.604 29.598 C93.507 30.238 95.41 30.877 97.313 31.515 C98.419 31.888 99.526 32.26 100.665 32.644 C104.015 33.75 107.385 34.785 110.758 35.818 C117.845 37.989 124.897 40.261 131.946 42.55 C133.29 42.986 134.633 43.421 135.976 43.856 C138.801 44.77 141.625 45.685 144.449 46.601 C164.275 53.026 184.1 59.449 204.001 65.637 C215.711 69.282 227.343 73.143 238.966 77.052 C247.915 80.061 256.871 82.97 265.943 85.584 C276 88.544 285.877 92.089 295.769 95.552 C305.66 99.001 315.618 102.075 325.688 104.953 C329.492 106.042 333.282 107.163 337.063 108.328 C337.513 108.454 337.513 108.454 339.79 109.093 C344.062 110.436 346.147 111.108 348.618 114.964 C349.023 116.28 349.375 117.612 349.688 118.953 C349.906 119.773 350.124 120.593 350.348 121.438 C351.102 124.411 351.776 127.395 352.438 130.39 C352.694 131.519 352.949 132.648 353.212 133.811 C355.38 143.441 357.471 153.089 359.568 162.735 C364.098 183.561 369.032 204.289 374.066 225 C376.479 234.979 378.749 244.987 380.991 255.006 C383.176 264.755 385.448 274.481 387.751 284.203 C390.18 294.458 392.552 304.721 394.813 315.015 C397.378 326.679 400.128 338.291 402.947 349.895 C404.163 354.912 405.362 359.932 406.563 364.953 C408.226 371.897 409.902 378.837 411.599 385.773 C412.275 388.541 412.951 391.309 413.626 394.078 C413.71 394.423 413.71 394.423 414.137 396.173 C416.98 407.848 419.674 419.553 422.255 431.289 C423.906 438.737 425.753 446.098 427.781 453.45 C428.723 457.086 429.477 460.703 430.188 464.39 C431.556 471.46 433.248 478.418 435.035 485.39 C436.729 492.03 438.396 498.677 440.035 505.33 C441.369 510.735 442.716 516.124 444.251 521.476 C450.338 543.333 450.589 567.166 439.345 587.367 C435.459 593.476 430.627 598.685 425.688 603.953 C423.926 605.838 422.165 607.724 420.403 609.61 C419.213 610.883 418.02 612.155 416.825 613.424 C413.891 616.548 411.012 619.706 408.2 622.941 C404.768 626.889 401.218 630.712 397.626 634.515 C396.309 635.915 394.993 637.314 393.677 638.714 C393.346 639.066 393.346 639.066 391.671 640.845 C377.187 656.243 377.187 656.243 371.313 662.828 C365.268 669.589 359.002 676.146 352.776 682.74 C349.471 686.244 346.172 689.753 342.876 693.265 C342.257 693.924 341.638 694.583 341 695.261 C338.16 698.29 335.335 701.329 332.552 704.41 C332.065 704.947 331.578 705.485 331.076 706.039 C329.797 707.457 328.524 708.88 327.251 710.304 C325.235 712.388 323.232 714.248 321.028 716.118 C320.402 716.651 319.775 717.184 319.13 717.733 C318.654 718.136 318.178 718.538 317.688 718.953 C317.687 718.033 317.686 717.114 317.684 716.167 C317.647 693.782 317.588 671.397 317.505 649.012 C317.465 638.186 317.432 627.361 317.417 616.536 C317.404 607.099 317.377 597.662 317.334 588.225 C317.311 583.23 317.296 578.235 317.297 573.239 C317.297 568.534 317.279 563.828 317.247 559.123 C317.239 557.4 317.237 555.676 317.243 553.953 C317.274 543.024 316.65 534.274 309.438 525.515 C306.688 522.146 306.688 522.146 306.688 519.953 C308.298 518.875 308.298 518.875 310.438 517.703 C317.311 513.533 319.824 507.493 321.688 499.953 C323.963 488.662 325.334 477.25 326.599 465.808 C327.229 460.225 328.068 454.776 329.227 449.279 C329.926 445.754 330.348 442.21 330.751 438.64 C331.578 431.467 331.578 431.467 332.224 428.453 C333.864 419.63 334 409.915 329.298 402.07 C324.381 395.602 318.787 391.275 310.688 389.953 C307.748 389.829 304.814 389.852 301.872 389.886 C301.084 389.891 300.296 389.896 299.484 389.901 C297.552 389.913 295.62 389.932 293.688 389.953 C293.683 389.05 293.677 388.147 293.671 387.217 C293.613 378.671 293.54 370.124 293.453 361.577 C293.408 357.184 293.369 352.792 293.342 348.399 C293.316 344.152 293.275 339.905 293.225 335.658 C293.209 334.045 293.197 332.433 293.191 330.82 C293.082 305.442 282.627 292.771 265.197 275.284 C264.294 274.375 263.392 273.466 262.463 272.53 C259.512 269.558 256.555 266.591 253.599 263.625 C252.572 262.594 251.545 261.563 250.519 260.532 C245.699 255.693 240.877 250.857 236.051 246.023 C230.512 240.474 224.982 234.917 219.458 229.353 C215.163 225.028 210.861 220.711 206.552 216.4 C203.99 213.834 201.43 211.266 198.879 208.69 C196.034 205.817 193.173 202.96 190.31 200.104 C189.481 199.262 188.652 198.421 187.798 197.553 C173.933 183.81 160.221 180.803 141.312 180.805 C139.944 180.802 138.576 180.798 137.208 180.794 C133.458 180.784 129.708 180.781 125.958 180.778 C121.909 180.774 117.861 180.764 113.812 180.756 C104.039 180.736 94.267 180.726 84.494 180.717 C79.886 180.713 75.279 180.707 70.671 180.702 C55.344 180.685 40.016 180.671 24.689 180.663 C20.715 180.661 16.741 180.659 12.766 180.657 C12.272 180.657 12.272 180.657 9.773 180.656 C-6.217 180.648 -22.207 180.622 -38.197 180.59 C-54.632 180.557 -71.068 180.539 -87.503 180.536 C-96.723 180.533 -105.943 180.525 -115.164 180.499 C-123.018 180.477 -130.872 180.469 -138.727 180.479 C-142.729 180.484 -146.73 180.482 -150.732 180.462 C-175.814 180.347 -198.188 181.356 -217.312 199.953 C-234.382 218.848 -237.788 239.618 -237.686 264.354 C-237.688 266.375 -237.693 268.397 -237.698 270.418 C-237.708 275.932 -237.7 281.446 -237.689 286.961 C-237.68 292.923 -237.689 298.886 -237.695 304.848 C-237.704 315.839 -237.699 326.83 -237.688 337.82 C-237.677 347.974 -237.673 358.128 -237.674 368.281 C-237.674 368.956 -237.674 369.631 -237.674 370.327 C-237.675 373.067 -237.675 375.807 -237.675 378.547 C-237.679 404.22 -237.667 429.892 -237.646 455.565 C-237.628 478.353 -237.622 501.14 -237.627 523.927 C-237.628 525.391 -237.628 526.855 -237.628 528.319 C-237.628 528.68 -237.628 528.68 -237.629 530.512 C-237.63 534.155 -237.63 537.798 -237.631 541.441 C-237.631 542.16 -237.632 542.878 -237.632 543.619 C-237.636 562.687 -237.63 581.755 -237.622 600.823 C-237.621 602.876 -237.62 604.928 -237.619 606.981 C-237.618 608.342 -237.618 609.704 -237.617 611.065 C-237.613 620.541 -237.612 630.016 -237.614 639.492 C-237.617 651.704 -237.612 663.915 -237.597 676.126 C-237.59 682.011 -237.586 687.897 -237.59 693.782 C-237.594 699.173 -237.589 704.565 -237.577 709.956 C-237.574 711.902 -237.574 713.848 -237.578 715.794 C-237.63 742.478 -237.63 742.478 -232.124 754.078 C-231.971 754.413 -231.971 754.413 -231.194 756.109 C-228.401 762.06 -225.17 767.624 -221.312 772.953 C-220.815 773.645 -220.319 774.337 -219.808 775.05 C-208.967 788.717 -192.146 796.167 -175.312 798.953 C-169.484 799.365 -163.681 799.37 -157.841 799.351 C-156.102 799.357 -154.362 799.364 -152.623 799.372 C-147.875 799.389 -143.127 799.389 -138.379 799.385 C-133.247 799.385 -128.115 799.401 -122.983 799.416 C-114.102 799.439 -105.221 799.451 -96.34 799.455 C-83.5 799.461 -70.659 799.484 -57.819 799.511 C-36.984 799.555 -16.15 799.585 4.685 799.606 C24.919 799.627 45.153 799.655 65.386 799.69 C66.635 799.692 67.883 799.695 69.169 799.697 C75.431 799.708 81.692 799.719 87.954 799.73 C139.866 799.824 191.777 799.895 243.688 799.953 C242.758 801.218 241.823 802.482 240.887 803.744 C240.368 804.447 239.848 805.151 239.312 805.876 C236.872 808.997 234.102 811.71 231.251 814.453 C227.099 818.52 223.124 822.628 219.36 827.062 C217.391 829.289 215.305 831.365 213.188 833.453 C209.901 836.702 206.823 840.038 203.813 843.542 C200.344 847.478 196.739 851.285 193.152 855.114 C189.334 859.19 185.533 863.28 181.751 867.39 C176.625 872.958 171.459 878.488 166.264 883.991 C163.279 887.159 160.325 890.341 157.454 893.613 C146.929 905.545 134.934 913.758 118.786 915.214 C100.786 915.86 83.099 907.978 66.229 902.44 C61.612 900.926 56.99 899.424 52.368 897.925 C31.856 891.268 11.362 884.554 -9.127 877.826 C-21.188 873.867 -33.25 869.909 -45.312 865.953 C-46.328 865.619 -47.345 865.285 -48.393 864.942 C-90.101 851.258 -131.932 837.951 -173.772 824.679 C-177.556 823.479 -181.34 822.278 -185.124 821.078 C-186.011 820.796 -186.897 820.515 -187.81 820.226 C-198.752 816.753 -209.657 813.193 -220.529 809.51 C-234.755 804.735 -249.111 800.358 -263.443 795.916 C-264.475 795.596 -265.506 795.275 -266.569 794.945 C-268.531 794.336 -270.493 793.729 -272.456 793.123 C-273.331 792.852 -274.205 792.58 -275.107 792.3 C-275.874 792.063 -276.64 791.826 -277.43 791.582 C-279.312 790.953 -279.312 790.953 -281.312 789.953 C-281.642 790.613 -281.972 791.273 -282.312 791.953 C-282.312 790.963 -282.312 789.973 -282.312 788.953 C-283.302 788.623 -284.292 788.293 -285.312 787.953 C-284.322 787.953 -283.332 787.953 -282.312 787.953 C-282.565 786.934 -282.819 785.916 -283.081 784.867 C-285.153 776.399 -286.88 767.961 -288.234 759.349 C-289.073 754.119 -290.215 749.043 -291.583 743.923 C-292.276 741.097 -292.79 738.309 -293.241 735.437 C-294.322 728.79 -295.582 722.186 -296.874 715.578 C-297.134 714.243 -297.393 712.909 -297.652 711.574 C-299.212 703.557 -300.783 695.542 -302.354 687.527 C-309.721 649.944 -317.012 612.347 -324.062 574.703 C-324.248 573.709 -324.434 572.716 -324.625 571.693 C-326.333 562.57 -328.037 553.446 -329.725 544.32 C-330.29 541.272 -330.856 538.224 -331.422 535.176 C-331.8 533.138 -332.175 531.1 -332.549 529.061 C-332.77 527.873 -332.99 526.685 -333.218 525.46 C-333.312 524.948 -333.312 524.948 -333.79 522.355 C-334.312 519.953 -334.312 519.953 -335.312 517.953 C-335.739 515.413 -336.128 512.876 -336.499 510.328 C-337.887 501.186 -339.539 492.1 -341.249 483.015 C-341.49 481.732 -341.73 480.45 -341.978 479.128 C-343.172 472.816 -344.396 466.511 -345.668 460.215 C-348.293 447.224 -350.727 434.2 -353.148 421.17 C-353.875 417.261 -354.604 413.352 -355.333 409.443 C-359.251 388.411 -359.251 388.411 -360.983 378.433 C-361.809 373.69 -362.702 368.975 -363.698 364.265 C-366.055 352.995 -367.781 342.053 -367.812 330.515 C-367.815 330.022 -367.815 330.022 -367.83 327.525 C-367.671 318.273 -365.836 309.151 -361.687 300.828 C-361.261 299.938 -360.836 299.049 -360.397 298.132 C-354.523 289.178 -346.238 281.732 -338.686 274.198 C-337.653 273.164 -336.621 272.129 -335.588 271.095 C-332.814 268.316 -330.036 265.54 -327.258 262.765 C-324.335 259.844 -321.414 256.921 -318.493 253.998 C-313.592 249.095 -308.688 244.194 -303.784 239.295 C-298.131 233.647 -292.481 227.995 -286.833 222.342 C-281.962 217.467 -277.09 212.594 -272.216 207.722 C-269.314 204.822 -266.413 201.921 -263.513 199.018 C-260.788 196.29 -258.06 193.564 -255.33 190.84 C-254.335 189.846 -253.34 188.85 -252.346 187.854 C-247.374 182.872 -242.359 178.02 -237.018 173.434 C-234.777 171.488 -232.674 169.427 -230.583 167.322 C-229.749 166.484 -228.914 165.646 -228.054 164.783 C-227.18 163.901 -226.306 163.018 -225.405 162.109 C-223.993 160.691 -222.581 159.273 -221.168 157.855 C-218.714 155.389 -216.263 152.921 -213.812 150.453 C-210.882 147.503 -207.952 144.554 -205.018 141.608 C-203.199 139.782 -201.383 137.953 -199.569 136.122 C-195.237 131.773 -190.838 127.598 -186.182 123.599 C-183.065 120.856 -180.163 117.908 -177.249 114.953 C-176.613 114.313 -175.978 113.674 -175.323 113.015 C-173.317 110.997 -171.314 108.975 -169.312 106.953 C-166.669 104.283 -164.022 101.617 -161.374 98.953 C-160.784 98.355 -160.194 97.756 -159.587 97.14 C-156.683 94.219 -153.73 91.42 -150.598 88.744 C-146.262 84.966 -142.218 80.951 -138.19 76.849 C-136.598 75.238 -135.006 73.626 -133.415 72.015 C-132.582 71.171 -131.75 70.326 -130.893 69.456 C-126.438 64.94 -121.967 60.439 -117.499 55.935 C-111.836 50.224 -106.178 44.51 -100.535 38.779 C-95.955 34.128 -91.36 29.492 -86.755 24.866 C-85.014 23.111 -83.278 21.351 -81.548 19.585 C-55.956 -6.52 -34.756 -12.423 0 0 Z " fill="#08B2FD" transform="translate(611.3115234375,183.04736328125)"/>
<path d="M0 0 C0.654 -0.029 1.308 -0.058 1.982 -0.088 C16.003 -0.257 30.471 5.857 43.646 10.137 C46.801 11.162 49.958 12.18 53.115 13.197 C57.848 14.721 62.581 16.247 67.312 17.774 C81.312 22.291 95.324 26.769 109.336 31.248 C111.689 32.001 114.042 32.753 116.395 33.506 C136.157 39.824 155.938 46.072 175.769 52.168 C186.308 55.409 196.812 58.745 207.299 62.153 C221.113 66.633 234.963 71.002 248.812 75.375 C250.001 75.751 251.189 76.126 252.414 76.513 C265.375 80.609 278.344 84.68 291.328 88.703 C305.497 93.095 319.664 97.493 333.812 101.954 C337.457 103.103 341.103 104.247 344.752 105.382 C348.381 106.51 352.006 107.65 355.629 108.798 C356.981 109.224 358.334 109.646 359.688 110.064 C370.733 113.477 381.358 117.436 389.438 126 C389.937 126.518 390.437 127.037 390.951 127.571 C405.905 143.511 409.084 164.458 413.75 185.062 C414.319 187.544 414.889 190.026 415.459 192.508 C416.809 198.389 418.143 204.274 419.472 210.161 C420.132 213.068 420.804 215.973 421.48 218.877 C421.85 220.486 422.22 222.094 422.59 223.703 C422.756 224.403 422.922 225.103 423.093 225.824 C423.981 229.725 424.346 233.314 424.188 237.312 C408.854 232.64 393.575 227.839 378.375 222.75 C377.681 222.518 376.987 222.285 376.272 222.046 C370.403 220.08 364.536 218.104 358.67 216.126 C338.744 209.41 338.744 209.41 329.875 206.875 C323.1 204.936 316.426 202.752 309.75 200.5 C296.874 196.164 283.943 192.006 271 187.875 C269.947 187.539 268.894 187.203 267.809 186.856 C263.405 185.45 259 184.044 254.596 182.638 C235.568 176.563 216.555 170.439 197.541 164.321 C191.874 162.497 186.206 160.676 180.536 158.86 C177.676 157.944 174.817 157.026 171.958 156.108 C170.169 155.534 168.379 154.963 166.589 154.391 C160.997 152.594 155.451 150.705 149.926 148.711 C144.823 146.872 139.724 145.203 134.5 143.75 C128.939 142.16 123.526 140.385 118.113 138.34 C114.406 137.038 110.651 135.958 106.875 134.875 C101.573 133.354 96.369 131.715 91.188 129.812 C85.329 127.667 79.429 125.827 73.429 124.128 C70.199 123.212 67.044 122.26 63.887 121.109 C51.999 116.82 36.909 115.94 25.188 121.312 C24.301 121.715 23.414 122.117 22.5 122.531 C9.24 129.161 -0.753 141.135 -11.069 151.524 C-13.604 154.077 -16.144 156.627 -18.684 159.176 C-25.899 166.415 -33.108 173.66 -40.313 180.909 C-44.736 185.358 -49.163 189.803 -53.594 194.245 C-55.28 195.937 -56.964 197.631 -58.647 199.328 C-60.985 201.685 -63.33 204.037 -65.676 206.387 C-66.373 207.093 -67.07 207.799 -67.788 208.526 C-68.424 209.161 -69.061 209.796 -69.716 210.45 C-70.269 211.006 -70.822 211.562 -71.392 212.135 C-72.812 213.312 -72.812 213.312 -74.812 213.312 C-75.142 214.303 -75.473 215.293 -75.812 216.312 C-77.133 217.609 -77.133 217.609 -78.938 219.062 C-83.127 222.618 -87.005 226.418 -90.875 230.312 C-91.515 230.955 -92.154 231.598 -92.813 232.261 C-94.815 234.276 -96.814 236.294 -98.812 238.312 C-101.455 240.982 -104.102 243.648 -106.75 246.312 C-107.34 246.911 -107.93 247.509 -108.537 248.125 C-111.478 251.083 -114.47 253.916 -117.635 256.635 C-122.57 260.902 -127.129 265.523 -131.719 270.156 C-133.131 271.574 -134.544 272.993 -135.956 274.411 C-138.41 276.876 -140.861 279.344 -143.312 281.812 C-146.242 284.762 -149.172 287.712 -152.106 290.657 C-153.925 292.483 -155.741 294.312 -157.555 296.143 C-158.39 296.981 -159.224 297.818 -160.084 298.682 C-160.806 299.409 -161.528 300.136 -162.272 300.885 C-164.29 302.813 -166.334 304.637 -168.449 306.454 C-173.641 310.968 -178.486 315.822 -183.356 320.679 C-184.392 321.708 -185.427 322.737 -186.463 323.766 C-189.836 327.118 -193.203 330.475 -196.57 333.832 C-197.737 334.994 -198.903 336.156 -200.069 337.319 C-205.547 342.777 -211.022 348.238 -216.494 353.702 C-222.787 359.985 -229.087 366.259 -235.395 372.527 C-240.289 377.39 -245.175 382.262 -250.056 387.139 C-252.963 390.044 -255.873 392.945 -258.792 395.838 C-261.537 398.56 -264.273 401.292 -267.002 404.031 C-267.999 405.028 -268.999 406.023 -270.003 407.013 C-277.648 414.559 -283.927 422.212 -287.125 432.625 C-287.431 433.591 -287.736 434.556 -288.051 435.551 C-293.551 455.492 -288.839 476.68 -284.59 496.409 C-283.756 500.598 -283.058 504.798 -282.366 509.012 C-281.378 514.903 -280.286 520.774 -279.203 526.648 C-278.951 528.017 -278.699 529.385 -278.448 530.753 C-277.921 533.616 -277.393 536.478 -276.864 539.341 C-276.335 542.206 -275.808 545.072 -275.282 547.938 C-271.854 566.622 -268.271 585.266 -264.502 603.885 C-263.314 609.794 -262.156 615.709 -261 621.625 C-260.785 622.723 -260.57 623.82 -260.348 624.951 C-259.519 629.207 -258.76 633.411 -258.363 637.73 C-257.89 642.47 -256.766 646.997 -255.66 651.624 C-253.999 658.852 -252.685 666.15 -251.312 673.438 C-250.97 675.244 -250.628 677.05 -250.285 678.856 C-246.994 696.242 -243.77 713.64 -240.534 731.037 C-235.55 757.824 -230.385 784.569 -225.015 811.282 C-222.937 821.635 -220.927 832.001 -218.93 842.37 C-217.507 849.753 -216.055 857.13 -214.562 864.5 C-213.337 870.561 -212.22 876.624 -211.238 882.73 C-209.977 890.378 -208.231 897.901 -206.398 905.43 C-205.812 908.312 -205.812 908.312 -205.812 912.312 C-212.101 912.73 -217.163 911.23 -223.109 909.277 C-224.098 908.961 -225.086 908.645 -226.104 908.319 C-228.197 907.647 -230.288 906.97 -232.377 906.288 C-235.507 905.268 -238.642 904.262 -241.777 903.26 C-251.388 900.17 -260.959 896.983 -270.445 893.527 C-271.207 893.252 -271.968 892.978 -272.753 892.694 C-288.368 886.905 -299.381 876.149 -306.812 861.312 C-311.342 850.163 -313.501 838.676 -315.562 826.875 C-315.933 824.808 -316.304 822.74 -316.675 820.673 C-317.671 815.115 -318.655 809.555 -319.635 803.994 C-320.634 798.32 -321.638 792.646 -322.644 786.973 C-322.805 786.064 -322.966 785.156 -323.132 784.22 C-323.466 782.332 -323.801 780.444 -324.135 778.556 C-326.295 766.368 -328.453 754.18 -330.607 741.991 C-335.478 714.422 -340.389 686.861 -345.375 659.312 C-345.527 658.474 -345.678 657.636 -345.835 656.772 C-348.156 643.951 -350.483 631.132 -352.812 618.312 C-352.893 617.872 -352.893 617.872 -353.298 615.642 C-356.303 599.107 -359.309 582.572 -362.318 566.038 C-365.823 546.776 -369.322 527.512 -372.805 508.246 C-372.967 507.346 -373.13 506.445 -373.298 505.518 C-374.9 496.654 -376.501 487.79 -378.095 478.925 C-378.853 474.708 -379.612 470.491 -380.371 466.273 C-380.444 465.866 -380.444 465.866 -380.815 463.806 C-382.693 453.388 -384.617 442.979 -386.597 432.579 C-387.434 428.171 -388.261 423.762 -389.09 419.353 C-389.72 416.032 -390.37 412.715 -391.021 409.398 C-395.748 384.659 -395.686 361.181 -381.812 339.312 C-379.099 335.642 -376.07 332.503 -372.812 329.312 C-371.602 328.083 -370.394 326.851 -369.188 325.617 C-363.575 319.909 -357.955 314.276 -351.832 309.113 C-348.484 306.128 -345.38 302.9 -342.229 299.71 C-338.974 296.43 -335.623 293.362 -332.094 290.379 C-328.078 286.742 -324.326 282.826 -320.559 278.934 C-319.975 278.338 -319.391 277.743 -318.789 277.129 C-318.264 276.587 -317.739 276.045 -317.198 275.487 C-315.812 274.312 -315.812 274.312 -313.812 274.312 C-313.812 273.652 -313.812 272.993 -313.812 272.312 C-312.344 270.867 -312.344 270.867 -310.312 269.188 C-307.346 266.67 -304.537 264.091 -301.812 261.312 C-299.313 258.774 -296.775 256.371 -294.062 254.062 C-290.467 250.977 -287.139 247.681 -283.812 244.312 C-279.983 240.435 -276.092 236.75 -271.938 233.219 C-269.119 230.69 -266.473 228.006 -263.812 225.312 C-259.983 221.435 -256.092 217.75 -251.938 214.219 C-249.119 211.69 -246.473 209.006 -243.812 206.312 C-239.983 202.435 -236.092 198.75 -231.938 195.219 C-229.119 192.69 -226.473 190.006 -223.812 187.312 C-220.609 184.07 -217.421 180.883 -213.938 177.938 C-210.014 174.605 -206.43 170.968 -202.812 167.312 C-198.646 163.102 -194.46 159.04 -189.934 155.215 C-186.337 151.989 -182.99 148.509 -179.594 145.074 C-176.132 141.588 -172.584 138.296 -168.836 135.117 C-165.717 132.335 -162.817 129.337 -159.883 126.363 C-156.639 123.092 -153.276 120.043 -149.773 117.055 C-147.526 115.058 -145.424 112.952 -143.312 110.812 C-140.604 108.067 -137.871 105.44 -134.938 102.938 C-131.567 100.05 -128.427 96.97 -125.312 93.812 C-121.644 90.094 -117.881 86.576 -113.906 83.188 C-110.769 80.378 -107.842 77.363 -104.885 74.366 C-101.619 71.072 -98.234 67.998 -94.707 64.988 C-91.947 62.547 -89.4 59.91 -86.816 57.285 C-84.23 54.739 -81.497 52.392 -78.746 50.027 C-76.858 48.352 -75.081 46.613 -73.312 44.812 C-70.922 42.379 -68.462 40.099 -65.875 37.875 C-63.067 35.456 -60.413 32.954 -57.812 30.312 C-54.601 27.057 -51.278 24.005 -47.805 21.031 C-46.478 19.887 -45.17 18.72 -43.883 17.531 C-31.764 6.434 -16.486 0.229 0 0 Z " fill="#0354A9" transform="translate(534.8125,58.6875)"/>
<path d="M0 0 C1.377 -0.003 2.754 -0.007 4.131 -0.012 C7.877 -0.023 11.623 -0.015 15.369 -0.003 C19.424 0.006 23.478 -0.003 27.533 -0.009 C35.46 -0.019 43.388 -0.012 51.315 0 C60.557 0.014 69.798 0.012 79.039 0.01 C95.532 0.007 112.025 0.018 128.518 0.038 C144.505 0.057 160.493 0.064 176.48 0.059 C193.912 0.052 211.343 0.053 228.775 0.064 C230.635 0.065 232.495 0.066 234.355 0.068 C235.27 0.068 236.185 0.069 237.128 0.069 C243.563 0.073 249.998 0.073 256.433 0.071 C264.278 0.069 272.123 0.074 279.968 0.089 C283.968 0.096 287.967 0.1 291.966 0.095 C295.633 0.091 299.299 0.097 302.966 0.109 C304.908 0.113 306.851 0.108 308.794 0.102 C318.146 0.149 327.447 0.652 335.931 4.937 C336.83 5.371 337.728 5.806 338.654 6.253 C347.205 11.895 354.383 19.734 361.614 26.942 C362.53 27.852 363.447 28.763 364.392 29.7 C367.392 32.679 370.386 35.663 373.38 38.648 C374.421 39.684 375.462 40.721 376.502 41.757 C381.389 46.625 386.273 51.494 391.154 56.367 C396.755 61.958 402.364 67.541 407.98 73.117 C412.347 77.453 416.706 81.797 421.059 86.147 C423.648 88.734 426.24 91.317 428.841 93.893 C431.742 96.767 434.628 99.656 437.512 102.548 C438.359 103.382 439.207 104.217 440.08 105.077 C453.02 118.13 458.141 130.527 458.095 148.676 C458.085 150.264 458.075 151.853 458.064 153.441 C458.06 155.087 458.057 156.733 458.055 158.379 C458.048 162.685 458.028 166.99 458.006 171.296 C457.986 175.7 457.976 180.105 457.966 184.509 C457.945 193.131 457.911 201.752 457.869 210.374 C452.365 211.966 447.02 213.124 441.369 213.999 C440.553 214.133 439.737 214.267 438.896 214.405 C438.093 214.532 437.29 214.658 436.462 214.788 C435.748 214.901 435.033 215.014 434.296 215.131 C431.169 215.444 428.012 215.374 424.869 215.374 C424.869 192.274 424.869 169.174 424.869 145.374 C422.237 145.397 422.237 145.397 408.92 145.515 C405.561 145.535 402.202 145.555 398.843 145.57 C393.526 145.593 388.21 145.621 382.893 145.676 C378.601 145.72 374.308 145.743 370.016 145.754 C368.388 145.761 366.76 145.775 365.133 145.797 C351.857 145.968 338.973 145.035 328.869 135.374 C324.263 130.806 320.895 126.573 318.869 120.374 C318.869 119.054 318.869 117.734 318.869 116.374 C318.209 116.374 317.549 116.374 316.869 116.374 C316.704 102.679 316.704 102.679 315.869 33.374 C274.432 33.264 232.996 33.172 191.559 33.119 C186.664 33.113 181.769 33.106 176.873 33.1 C175.899 33.098 174.924 33.097 173.92 33.096 C158.154 33.074 142.388 33.034 126.621 32.988 C110.436 32.942 94.251 32.914 78.066 32.904 C68.083 32.897 58.102 32.875 48.119 32.835 C41.269 32.808 34.418 32.8 27.567 32.807 C23.618 32.81 19.669 32.805 15.72 32.778 C12.097 32.754 8.474 32.753 4.851 32.77 C2.935 32.773 1.02 32.751 -0.895 32.729 C-13.072 32.833 -23.243 36.318 -32.038 44.913 C-39.129 53.248 -41.448 63.213 -41.386 73.915 C-41.389 74.741 -41.392 75.567 -41.395 76.419 C-41.404 79.181 -41.398 81.943 -41.392 84.706 C-41.395 86.709 -41.399 88.712 -41.404 90.715 C-41.414 96.215 -41.412 101.715 -41.407 107.215 C-41.405 113.148 -41.414 119.081 -41.421 125.015 C-41.434 136.638 -41.436 148.261 -41.434 159.883 C-41.432 169.331 -41.434 178.779 -41.438 188.226 C-41.438 189.584 -41.439 190.942 -41.44 192.3 C-41.441 194.346 -41.441 196.392 -41.442 198.439 C-41.451 217.462 -41.455 236.486 -41.451 255.509 C-41.451 256.226 -41.451 256.943 -41.45 257.682 C-41.45 261.316 -41.449 264.95 -41.448 268.584 C-41.448 268.945 -41.448 268.945 -41.447 270.771 C-41.447 272.231 -41.447 273.691 -41.446 275.15 C-41.441 297.856 -41.449 320.561 -41.467 343.267 C-41.488 368.785 -41.499 394.303 -41.495 419.821 C-41.494 422.543 -41.494 425.265 -41.494 427.987 C-41.494 428.657 -41.494 429.327 -41.493 430.018 C-41.492 440.127 -41.499 450.236 -41.51 460.345 C-41.521 471.845 -41.523 483.346 -41.511 494.847 C-41.505 500.714 -41.504 506.58 -41.516 512.447 C-41.527 517.821 -41.524 523.195 -41.51 528.569 C-41.507 530.51 -41.509 532.45 -41.517 534.391 C-41.578 550.251 -40.715 564.751 -29.131 576.749 C-26.305 579.417 -23.648 581.661 -20.131 583.374 C-19.224 583.88 -18.316 584.385 -17.381 584.905 C-11.509 587.41 -4.969 586.951 1.306 587.062 C2.61 587.096 3.914 587.13 5.257 587.165 C8.461 587.247 11.665 587.317 14.869 587.374 C14.855 586.377 14.842 585.38 14.828 584.353 C14.707 574.937 14.617 565.522 14.558 556.105 C14.527 551.265 14.484 546.425 14.416 541.585 C14.351 536.91 14.315 532.235 14.299 527.56 C14.288 525.78 14.267 524 14.234 522.221 C13.94 505.406 13.94 505.406 19.186 499.669 C23.155 496.615 26.093 496.118 31.103 496.084 C32.364 496.071 33.626 496.058 34.926 496.045 C36.3 496.042 37.674 496.04 39.048 496.038 C40.463 496.032 41.878 496.025 43.293 496.018 C46.257 496.006 49.221 496.002 52.185 496.004 C55.973 496.004 59.761 495.977 63.55 495.942 C66.472 495.92 69.393 495.916 72.316 495.917 C73.712 495.914 75.108 495.906 76.504 495.89 C78.461 495.87 80.419 495.879 82.376 495.888 C82.932 495.887 82.932 495.887 85.744 495.88 C89.605 496.491 91.782 498.031 94.869 500.374 C95.168 500.601 95.168 500.601 96.681 501.749 C113.533 524.809 99.503 558.815 99.869 587.374 C212.399 587.704 324.929 588.034 440.869 588.374 C440.869 607.63 440.869 607.63 436.404 613.202 C436.161 613.437 436.161 613.437 434.931 614.624 C434.448 615.104 433.964 615.583 433.466 616.077 C429.35 619.419 425.646 619.662 420.479 619.631 C419.728 619.635 418.978 619.639 418.205 619.642 C415.676 619.651 413.148 619.646 410.619 619.642 C408.794 619.645 406.968 619.65 405.142 619.655 C400.114 619.668 395.086 619.667 390.058 619.665 C384.639 619.665 379.22 619.676 373.802 619.685 C363.179 619.702 352.557 619.707 341.934 619.708 C333.298 619.709 324.662 619.713 316.027 619.72 C291.546 619.737 267.066 619.747 242.585 619.745 C241.925 619.745 241.265 619.745 240.585 619.745 C239.251 619.745 237.916 619.745 236.581 619.745 C214.499 619.743 192.416 619.762 170.334 619.791 C148.349 619.82 126.364 619.834 104.38 619.832 C92.036 619.831 79.692 619.837 67.348 619.858 C56.834 619.876 46.321 619.881 35.807 619.867 C30.444 619.861 25.082 619.861 19.719 619.878 C14.805 619.894 9.89 619.891 4.975 619.873 C3.203 619.87 1.43 619.874 -0.343 619.885 C-20.679 620.005 -37.775 614.037 -52.653 599.86 C-60.847 591.625 -65.688 581.923 -70.131 571.374 C-70.467 570.595 -70.804 569.816 -71.15 569.013 C-75.312 557.821 -74.417 545.109 -74.392 533.354 C-74.395 531.337 -74.399 529.321 -74.404 527.304 C-74.414 521.789 -74.412 516.274 -74.407 510.758 C-74.405 504.8 -74.414 498.841 -74.421 492.883 C-74.434 481.22 -74.436 469.557 -74.434 457.894 C-74.432 448.411 -74.434 438.929 -74.438 429.447 C-74.438 428.082 -74.439 426.718 -74.44 425.354 C-74.441 423.297 -74.441 421.241 -74.442 419.185 C-74.451 400.077 -74.455 380.97 -74.451 361.862 C-74.451 361.143 -74.451 360.423 -74.45 359.682 C-74.45 356.035 -74.449 352.387 -74.448 348.74 C-74.448 348.016 -74.448 347.292 -74.447 346.545 C-74.447 345.081 -74.447 343.616 -74.446 342.151 C-74.441 319.364 -74.449 296.577 -74.467 273.79 C-74.488 248.163 -74.499 222.536 -74.495 196.908 C-74.494 194.173 -74.494 191.438 -74.494 188.703 C-74.494 188.03 -74.494 187.356 -74.493 186.663 C-74.492 176.518 -74.499 166.374 -74.51 156.229 C-74.522 144.686 -74.523 133.143 -74.511 121.6 C-74.505 115.714 -74.504 109.829 -74.516 103.943 C-74.527 98.548 -74.524 93.152 -74.51 87.757 C-74.507 85.812 -74.509 83.868 -74.517 81.924 C-74.572 67.709 -74.462 52.702 -67.381 39.937 C-67.207 39.607 -67.207 39.607 -66.327 37.937 C-62.306 30.512 -57.329 24.119 -51.131 18.374 C-50.629 17.855 -50.126 17.335 -49.608 16.8 C-45.345 12.658 -40.691 9.825 -35.444 7.124 C-34.821 6.795 -34.199 6.466 -33.558 6.127 C-22.924 0.883 -11.685 -0.069 0 0 Z " fill="#023E86" transform="translate(447.1312561035156,362.6257781982422)"/>
<path d="M0 0 C2.965 3.251 3.142 5.317 3.084 9.686 C2.796 14.466 1.931 19.16 1.125 23.875 C0.754 26.111 0.385 28.346 0.016 30.582 C-0.168 31.688 -0.352 32.793 -0.541 33.932 C-1.282 38.469 -1.958 43.014 -2.625 47.562 C-3.68 54.73 -4.845 61.873 -6.078 69.012 C-6.752 72.987 -7.266 76.918 -7.562 80.938 C-7.89 84.669 -8.581 87.184 -11.062 90.125 C-13.61 92.127 -14.995 92.126 -18.266 92.074 C-23.338 90.806 -25.585 88.319 -29.062 84.562 C-29.671 83.928 -30.28 83.293 -30.907 82.639 C-32.644 80.817 -34.357 78.976 -36.062 77.125 C-36.863 76.266 -37.664 75.408 -38.488 74.523 C-42.882 69.665 -42.882 69.665 -44.062 66.125 C-49.599 70.559 -55.011 75.025 -60.188 79.875 C-76.213 94.582 -94.772 107.411 -113.062 119.125 C-113.874 119.648 -114.685 120.171 -115.521 120.709 C-129.412 129.635 -143.53 137.907 -158.145 145.588 C-160.957 147.07 -163.759 148.57 -166.559 150.074 C-192.225 163.778 -218.657 175.524 -245.72 186.17 C-249.699 187.747 -253.632 189.368 -257.523 191.152 C-262.46 193.373 -267.537 195.036 -272.688 196.688 C-282.241 199.765 -282.241 199.765 -286.406 201.59 C-291.789 203.85 -297.351 205.446 -302.938 207.125 C-315.901 211.048 -315.901 211.048 -320.453 212.586 C-350.721 222.801 -381.679 230.77 -412.875 237.562 C-413.641 237.73 -414.407 237.898 -415.197 238.071 C-447.272 245.057 -447.272 245.057 -454.25 241.5 C-458.415 237.982 -461.017 234.594 -462 229.188 C-462.317 224.807 -461.378 221.914 -459.062 218.125 C-453.29 211.959 -446.297 210.613 -438.246 209.139 C-434.548 208.46 -430.865 207.706 -427.18 206.965 C-426.42 206.814 -425.66 206.664 -424.877 206.508 C-417.122 204.964 -409.432 203.185 -401.75 201.312 C-401.079 201.149 -400.408 200.986 -399.716 200.817 C-367 192.814 -334.66 183.328 -302.887 172.16 C-297.153 170.146 -291.391 168.237 -285.602 166.391 C-281.453 164.907 -277.414 163.217 -273.354 161.507 C-267.734 159.147 -262.084 156.86 -256.438 154.562 C-255.288 154.094 -254.138 153.625 -252.953 153.143 C-252.387 152.912 -252.387 152.912 -249.523 151.746 C-248.418 151.296 -247.312 150.845 -246.173 150.381 C-243.48 149.294 -240.779 148.232 -238.074 147.176 C-231.77 144.659 -225.645 141.754 -219.5 138.875 C-218.257 138.295 -217.014 137.715 -215.771 137.135 C-212.2 135.469 -208.631 133.797 -205.062 132.125 C-204.121 131.684 -203.179 131.244 -202.208 130.79 C-199.867 129.695 -197.527 128.598 -195.188 127.5 C-194.536 127.194 -193.884 126.888 -193.213 126.573 C-185.815 123.087 -178.675 119.279 -171.562 115.25 C-170.557 114.681 -169.552 114.111 -168.516 113.525 C-138.305 96.356 -138.305 96.356 -125.062 87.125 C-123.505 86.055 -121.948 84.984 -120.391 83.914 C-110.343 76.978 -100.484 69.894 -91.062 62.125 C-90.446 61.617 -89.829 61.108 -89.194 60.584 C-87.288 59.003 -85.392 57.411 -83.5 55.812 C-82.928 55.333 -82.356 54.853 -81.766 54.359 C-78.105 51.221 -75.06 47.904 -72.062 44.125 C-73.478 43.123 -74.895 42.124 -76.312 41.125 C-77.216 40.488 -78.12 39.851 -79.051 39.195 C-83.129 36.392 -87.307 33.75 -91.496 31.117 C-94.248 28.981 -95.599 27.27 -97.062 24.125 C-97.062 20.054 -96.582 17.851 -94.207 14.531 C-89.671 11.06 -85.324 10.808 -79.75 10.125 C-77.477 9.806 -75.205 9.481 -72.934 9.152 C-71.782 8.987 -70.631 8.822 -69.445 8.652 C-64.356 7.859 -59.342 6.787 -54.312 5.688 C-45.134 3.717 -35.932 1.945 -26.688 0.312 C-26.084 0.203 -26.084 0.203 -23.032 -0.351 C-5.531 -3.386 -5.531 -3.386 0 0 Z " fill="#053F85" transform="translate(923.0625,592.875)"/>
<path d="M0 0 C1.386 -0.004 2.771 -0.01 4.157 -0.017 C7.052 -0.026 9.946 -0.013 12.841 0.015 C16.537 0.049 20.231 0.029 23.926 -0.007 C26.785 -0.029 29.643 -0.022 32.502 -0.006 C33.864 -0.002 35.226 -0.007 36.588 -0.021 C48.504 -0.117 48.504 -0.117 53.045 3.659 C57.506 8.27 58.071 11.963 58.042 18.204 C58.044 18.638 58.044 18.638 58.054 20.834 C58.064 23.755 58.06 26.675 58.056 29.595 C58.06 31.684 58.065 33.773 58.071 35.863 C58.085 41.547 58.085 47.23 58.083 52.914 C58.082 57.656 58.087 62.398 58.091 67.139 C58.103 78.325 58.103 89.511 58.097 100.697 C58.091 112.242 58.103 123.788 58.124 135.333 C58.142 145.239 58.148 155.145 58.145 165.05 C58.143 170.969 58.146 176.888 58.16 182.807 C58.172 188.375 58.17 193.942 58.157 199.51 C58.155 201.553 58.158 203.597 58.166 205.641 C58.176 208.431 58.168 211.22 58.155 214.009 C58.163 214.818 58.17 215.628 58.178 216.461 C58.131 221.316 57.351 224.532 54.781 228.797 C55.441 229.457 56.101 230.117 56.781 230.797 C30.051 230.797 3.321 230.797 -24.219 230.797 C-24.286 202.477 -24.342 174.157 -24.374 145.837 C-24.39 132.688 -24.411 119.538 -24.445 106.389 C-24.475 94.93 -24.494 83.47 -24.501 72.011 C-24.505 65.942 -24.514 59.873 -24.536 53.804 C-24.556 48.093 -24.563 42.382 -24.558 36.671 C-24.559 34.574 -24.565 32.477 -24.576 30.38 C-24.591 27.518 -24.588 24.657 -24.58 21.795 C-24.588 20.964 -24.597 20.133 -24.606 19.277 C-24.558 13.019 -22.997 7.988 -18.42 3.472 C-13.075 -0.803 -6.52 -0.067 0 0 Z " fill="#63B6FC" transform="translate(851.21875,719.203125)"/>
<path d="M0 0 C0.641 -0.002 0.641 -0.002 3.884 -0.012 C6.584 -0.017 9.285 -0.009 11.985 0.01 C15.431 0.033 18.875 0.019 22.32 -0.005 C25.63 -0.023 28.94 -0.01 32.25 0 C33.479 -0.008 34.709 -0.016 35.975 -0.025 C42.715 0.049 47.12 0.417 52.559 4.531 C56.742 9.155 57.684 11.597 57.679 17.77 C57.68 18.417 57.681 19.064 57.681 19.73 C57.683 21.908 57.678 24.085 57.672 26.262 C57.672 27.819 57.672 29.376 57.673 30.933 C57.673 35.168 57.667 39.404 57.66 43.639 C57.654 48.062 57.653 52.485 57.652 56.908 C57.649 65.287 57.641 73.666 57.631 82.046 C57.617 93.366 57.612 104.686 57.606 116.007 C57.597 133.848 57.577 151.69 57.559 169.531 C30.169 169.531 2.779 169.531 -25.441 169.531 C-25.603 129.9 -25.603 129.9 -25.637 113.305 C-25.66 101.842 -25.688 90.379 -25.743 78.916 C-25.783 70.568 -25.809 62.22 -25.818 53.872 C-25.823 49.452 -25.835 45.032 -25.864 40.612 C-25.892 36.45 -25.9 32.289 -25.894 28.128 C-25.895 26.602 -25.903 25.075 -25.918 23.549 C-25.938 21.462 -25.933 19.376 -25.922 17.289 C-25.926 16.122 -25.93 14.955 -25.934 13.753 C-25.247 9.262 -23.207 6.058 -19.773 3.089 C-13.384 -0.21 -7.069 -0.047 0 0 Z " fill="#25A9FD" transform="translate(732.44140625,780.46875)"/>
<path d="M0 0 C1.798 1.798 1.153 4.515 1.174 6.941 C1.187 8.212 1.201 9.484 1.214 10.794 C1.22 11.478 1.225 12.162 1.23 12.867 C1.246 15.001 1.269 17.136 1.295 19.271 C1.366 25.342 1.426 31.413 1.477 37.485 C1.509 41.195 1.55 44.905 1.597 48.615 C1.613 50.03 1.625 51.445 1.634 52.861 C1.646 54.841 1.671 56.821 1.697 58.8 C1.702 59.364 1.702 59.364 1.728 62.216 C2 65 2 65 4 68 C6.922 68.385 6.922 68.385 10.713 68.401 C11.058 68.404 11.058 68.404 12.803 68.422 C15.087 68.442 17.371 68.441 19.656 68.441 C21.24 68.453 22.825 68.467 24.409 68.481 C28.584 68.518 32.759 68.538 36.934 68.553 C43.617 68.578 50.3 68.617 56.983 68.675 C59.322 68.691 61.661 68.695 64 68.698 C65.429 68.708 66.858 68.718 68.287 68.729 C69.538 68.733 70.789 68.737 72.078 68.742 C75 69 75 69 77 71 C77.206 73.776 77.195 76.239 77 79 C76.943 79.846 76.887 80.691 76.828 81.562 C75.215 95.388 68.507 108.946 59 119 C58.348 119.753 57.695 120.506 57.023 121.281 C47.156 132.073 35.027 137.715 21 141 C19.893 141.353 18.785 141.706 17.645 142.07 C0.521 146.438 -18.161 141.582 -33.105 132.879 C-50.513 121.579 -62.711 105.357 -67.312 84.938 C-70.347 64.531 -67.078 45.156 -54.934 28.098 C-44.466 14.826 -30.134 3.293 -13.062 0.312 C-8.739 -0.108 -4.335 -0.323 0 0 Z " fill="#045ACB" transform="translate(518,463)"/>
<path d="M0 0 C1.158 -0.01 2.317 -0.019 3.51 -0.029 C4.758 -0.033 6.006 -0.038 7.292 -0.042 C8.579 -0.048 9.866 -0.053 11.193 -0.059 C13.917 -0.07 16.641 -0.076 19.366 -0.079 C22.842 -0.085 26.319 -0.109 29.795 -0.137 C33.127 -0.16 36.46 -0.162 39.792 -0.167 C41.034 -0.179 42.275 -0.192 43.555 -0.204 C50.591 -0.186 56.425 -0.124 61.983 4.661 C65.143 8.845 66.367 11.657 66.361 16.85 C66.362 17.331 66.362 17.331 66.365 19.769 C66.364 20.297 66.364 20.297 66.354 22.967 C66.355 24.079 66.355 25.191 66.355 26.337 C66.354 30.022 66.346 33.707 66.339 37.392 C66.337 39.943 66.335 42.495 66.334 45.046 C66.331 51.081 66.323 57.116 66.313 63.151 C66.301 70.695 66.295 78.24 66.29 85.784 C66.28 99.243 66.26 112.702 66.241 126.161 C38.191 126.161 10.141 126.161 -18.759 126.161 C-18.92 97.663 -18.92 97.663 -18.96 83.586 C-18.982 75.973 -19.01 68.36 -19.061 60.747 C-19.105 54.075 -19.128 47.403 -19.139 40.731 C-19.146 38.185 -19.16 35.639 -19.182 33.093 C-19.211 29.528 -19.215 25.964 -19.213 22.399 C-19.228 21.345 -19.242 20.291 -19.257 19.206 C-19.223 13.182 -18.761 9.754 -14.759 5.161 C-9.912 0.678 -6.463 0.043 0 0 Z " fill="#0169E7" transform="translate(602.759033203125,823.8388671875)"/>
<path d="M0 0 C0.469 -0.003 0.469 -0.003 2.844 -0.016 C5.991 -0.031 9.137 -0.023 12.284 -0.016 C14.539 -0.022 16.795 -0.029 19.05 -0.037 C25.178 -0.055 31.306 -0.054 37.434 -0.048 C42.549 -0.045 47.663 -0.051 52.777 -0.057 C65.533 -0.072 78.288 -0.068 91.044 -0.056 C102.116 -0.046 113.188 -0.059 124.26 -0.083 C135.634 -0.108 147.007 -0.117 158.381 -0.111 C164.765 -0.107 171.148 -0.11 177.532 -0.127 C183.535 -0.142 189.538 -0.138 195.542 -0.12 C197.745 -0.116 199.948 -0.119 202.151 -0.13 C205.159 -0.143 208.166 -0.131 211.174 -0.114 C212.045 -0.123 212.917 -0.133 213.814 -0.143 C219.589 -0.073 222.973 1.039 227.714 4.388 C230.618 8.415 231.359 12.259 231.202 17.138 C230.331 21.153 227.82 23.816 224.714 26.388 C221.912 28.009 219.889 28.638 216.66 28.642 C215.857 28.648 215.054 28.654 214.227 28.66 C213.352 28.656 212.476 28.652 211.573 28.648 C210.638 28.652 209.703 28.656 208.74 28.66 C205.599 28.67 202.459 28.666 199.318 28.662 C197.069 28.667 194.821 28.672 192.572 28.678 C186.459 28.691 180.345 28.692 174.231 28.689 C169.132 28.688 164.032 28.693 158.933 28.698 C146.216 28.71 133.5 28.709 120.783 28.702 C109.739 28.697 98.694 28.708 87.65 28.727 C76.31 28.747 64.97 28.755 53.63 28.751 C47.264 28.749 40.897 28.752 34.53 28.766 C28.544 28.779 22.558 28.777 16.572 28.764 C14.373 28.761 12.174 28.764 9.975 28.772 C6.977 28.783 3.98 28.775 0.982 28.762 C0.545 28.766 0.545 28.766 -1.665 28.784 C-8.112 28.727 -11.278 27.217 -16.098 22.825 C-18.831 19.357 -18.941 16.099 -18.708 11.79 C-17.913 7.262 -15.755 4.552 -12.222 1.752 C-8.103 -0.162 -4.49 -0.031 0 0 Z " fill="#073F84" transform="translate(468.2858581542969,635.6123199462891)"/>
<path d="M0 0 C1.186 -0.011 2.372 -0.023 3.594 -0.035 C4.248 -0.039 4.248 -0.039 7.558 -0.057 C8.944 -0.068 10.33 -0.08 11.717 -0.092 C16.277 -0.128 20.838 -0.154 25.399 -0.176 C26.175 -0.18 26.951 -0.184 27.751 -0.188 C35.073 -0.225 42.394 -0.256 49.716 -0.277 C59.077 -0.305 68.437 -0.356 77.798 -0.438 C84.381 -0.494 90.965 -0.523 97.548 -0.532 C101.479 -0.538 105.409 -0.556 109.34 -0.603 C113.042 -0.647 116.743 -0.657 120.445 -0.643 C122.443 -0.643 124.44 -0.678 126.438 -0.715 C132.507 -0.659 136.503 -0.44 141.229 3.593 C144.379 6.815 145.589 8.904 145.735 13.417 C145.668 18.085 144.57 20.605 141.422 24.167 C135.688 29.472 129.478 28.732 121.985 28.685 C120.615 28.69 119.244 28.697 117.874 28.706 C114.163 28.724 110.452 28.717 106.742 28.705 C102.853 28.695 98.964 28.704 95.075 28.71 C88.545 28.717 82.015 28.708 75.485 28.689 C67.942 28.667 60.4 28.674 52.858 28.696 C46.374 28.714 39.891 28.717 33.408 28.706 C29.539 28.7 25.67 28.699 21.801 28.713 C18.163 28.724 14.525 28.716 10.888 28.693 C8.921 28.685 6.954 28.697 4.987 28.709 C-5.764 28.606 -5.764 28.606 -10.578 24.167 C-13.975 20.302 -15.089 16.558 -15.07 11.37 C-14.104 7.049 -10.774 4.067 -7.578 1.167 C-4.941 -0.151 -2.954 0.023 0 0 Z " fill="#063F84" transform="translate(659.5775451660156,569.8326416015625)"/>
<path d="M0 0 C18.562 0.316 36.153 7.117 49.352 20.453 C61.024 33.182 69.285 49.682 69.199 67.172 C68.898 69.23 68.898 69.23 66.898 72.23 C64.052 72.605 64.052 72.605 60.369 72.603 C59.699 72.606 59.029 72.61 58.339 72.614 C56.119 72.622 53.9 72.608 51.68 72.594 C50.14 72.593 48.601 72.594 47.062 72.595 C43.833 72.595 40.606 72.585 37.377 72.567 C33.234 72.544 29.092 72.543 24.949 72.55 C21.769 72.554 18.59 72.547 15.411 72.537 C13.883 72.533 12.355 72.532 10.827 72.534 C8.694 72.534 6.561 72.521 4.428 72.505 C3.212 72.501 1.997 72.496 0.745 72.491 C-2.102 72.23 -2.102 72.23 -4.102 70.23 C-4.356 67.422 -4.356 67.422 -4.36 63.793 C-4.364 63.133 -4.367 62.472 -4.371 61.792 C-4.38 59.605 -4.374 57.418 -4.367 55.23 C-4.369 53.714 -4.37 52.197 -4.373 50.68 C-4.376 47.499 -4.372 44.318 -4.362 41.137 C-4.351 37.054 -4.357 32.972 -4.369 28.889 C-4.377 25.756 -4.374 22.624 -4.369 19.491 C-4.368 17.985 -4.37 16.48 -4.374 14.974 C-4.379 12.872 -4.372 10.77 -4.36 8.668 C-4.359 7.47 -4.357 6.273 -4.356 5.039 C-4.052 1.681 -3.488 0.382 0 0 Z " fill="#67B8FC" transform="translate(537.1015625,445.76953125)"/>
<path d="M0 0 C0.359 -0.006 0.359 -0.006 2.179 -0.035 C9.709 -0.145 17.239 -0.193 24.77 -0.235 C28.34 -0.258 31.909 -0.299 35.478 -0.358 C39.792 -0.43 44.106 -0.466 48.42 -0.478 C50.061 -0.489 51.701 -0.511 53.341 -0.546 C67.773 -0.837 67.773 -0.837 73.022 3.645 C76.912 7.828 77.474 10.976 77.433 16.611 C76.744 20.917 74.341 23.539 71.015 26.225 C67.377 28.561 64.203 28.484 59.939 28.499 C59.235 28.504 58.53 28.509 57.804 28.515 C55.48 28.529 53.156 28.528 50.832 28.525 C49.213 28.529 47.594 28.534 45.975 28.538 C42.583 28.546 39.191 28.546 35.799 28.54 C31.457 28.534 27.115 28.551 22.773 28.575 C19.429 28.589 16.086 28.59 12.743 28.587 C11.142 28.588 9.542 28.593 7.941 28.603 C5.7 28.615 3.461 28.609 1.22 28.597 C-0.053 28.598 -1.327 28.598 -2.639 28.599 C-7.514 28.054 -10 26.319 -13.235 22.725 C-15.753 19.127 -16.493 15.824 -16.477 11.428 C-15.512 7.106 -12.181 4.125 -8.985 1.225 C-6.017 -0.259 -3.312 0.048 0 0 Z " fill="#094084" transform="translate(660.98486328125,515.775390625)"/>
<path d="M0 0 C1.193 -0.006 2.386 -0.011 3.616 -0.017 C4.932 -0.018 6.248 -0.02 7.603 -0.021 C8.998 -0.025 10.392 -0.03 11.787 -0.036 C15.58 -0.049 19.373 -0.055 23.167 -0.06 C25.535 -0.063 27.903 -0.067 30.272 -0.071 C37.677 -0.085 45.082 -0.095 52.487 -0.098 C61.044 -0.103 69.601 -0.12 78.158 -0.149 C84.767 -0.171 91.376 -0.181 97.985 -0.182 C101.935 -0.184 105.885 -0.189 109.835 -0.207 C113.549 -0.224 117.263 -0.226 120.977 -0.217 C122.993 -0.216 125.01 -0.23 127.026 -0.244 C127.624 -0.241 127.624 -0.241 130.651 -0.227 C131.692 -0.229 132.734 -0.23 133.808 -0.231 C136.729 0.19 137.613 0.842 139.389 3.14 C120.665 3.187 101.942 3.222 83.218 3.244 C74.525 3.254 65.832 3.268 57.139 3.291 C49.563 3.311 41.987 3.324 34.412 3.329 C30.399 3.331 26.387 3.337 22.374 3.352 C18.599 3.365 14.825 3.37 11.05 3.367 C9.663 3.367 8.276 3.371 6.888 3.379 C4.998 3.389 3.107 3.385 1.216 3.381 C0.157 3.383 -0.902 3.385 -1.993 3.387 C-4.611 3.14 -4.611 3.14 -7.611 1.14 C-4.962 -0.184 -2.968 0.008 0 0 Z " fill="#1B4286" transform="translate(659.6111907958984,569.8595581054688)"/>
<path d="M0 0 C0.59 0 0.59 0 3.578 0 C4.211 0.006 4.211 0.006 7.411 0.032 C8.062 0.033 8.062 0.033 11.358 0.04 C14.809 0.048 18.259 0.068 21.71 0.09 C25.236 0.11 28.762 0.119 32.288 0.129 C39.197 0.151 46.107 0.185 53.016 0.227 C53.016 1.217 53.016 2.207 53.016 3.227 C44.967 3.404 36.918 3.57 28.869 3.722 C25.131 3.793 21.394 3.867 17.656 3.951 C14.052 4.031 10.447 4.101 6.841 4.165 C5.464 4.191 4.087 4.22 2.71 4.253 C0.785 4.299 -1.14 4.331 -3.065 4.362 C-4.162 4.385 -5.259 4.407 -6.389 4.43 C-8.984 4.227 -8.984 4.227 -10.984 2.227 C-7.167 0.457 -4.194 -0.018 0 0 Z " fill="#32AEFC" transform="translate(724.983642578125,780.77294921875)"/>
<path d="M0 0 C0.495 0.33 0.495 0.33 3 2 C3.367 4.246 3.367 4.246 3.356 7.076 C3.359 8.134 3.362 9.192 3.366 10.282 C3.353 11.427 3.341 12.573 3.328 13.754 C3.327 14.34 3.327 14.34 3.322 17.303 C3.316 19.782 3.302 22.261 3.281 24.74 C3.25 28.55 3.24 32.36 3.234 36.17 C3.225 38.573 3.215 40.976 3.203 43.379 C3.199 44.527 3.195 45.675 3.19 46.857 C3.185 47.385 3.185 47.385 3.161 50.053 C3.158 50.52 3.158 50.52 3.14 52.881 C3 55 3 55 2 56 C1.632 58.328 1.298 60.662 1 63 C0.67 63 0.34 63 0 63 C0 42.21 0 21.42 0 0 Z " fill="#F0F5FC" transform="translate(519,465)"/>
<path d="M0 0 C0.33 0.66 0.66 1.32 1 2 C1.99 2 2.98 2 4 2 C4 5.96 4 9.92 4 14 C4.66 14 5.32 14 6 14 C7.225 19.666 7.092 25.237 7 31 C7.66 31 8.32 31 9 31 C8.427 33.867 8.139 34.861 6 37 C5.141 32.374 4.287 27.748 3.437 23.121 C3.147 21.547 2.856 19.974 2.563 18.401 C2.143 16.138 1.727 13.874 1.312 11.609 C1.247 11.259 1.247 11.259 0.915 9.485 C0.324 6.236 0 3.32 0 0 Z " fill="#3F6FB4" transform="translate(142,452)"/>
<path d="M0 0 C2.125 0.375 2.125 0.375 4 1 C3.01 2.98 2.02 4.96 1 7 C0.67 7 0.34 7 0 7 C-0.33 27.79 -0.66 48.58 -1 70 C-1.33 70 -1.66 70 -2 70 C-2.046 61.168 -2.082 52.337 -2.104 43.505 C-2.114 39.405 -2.128 35.304 -2.151 31.204 C-2.173 27.248 -2.185 23.293 -2.19 19.338 C-2.193 17.827 -2.201 16.316 -2.211 14.805 C-2.226 12.693 -2.228 10.581 -2.227 8.469 C-2.231 7.266 -2.236 6.062 -2.241 4.822 C-2 2 -2 2 0 0 Z " fill="#76B9FB" transform="translate(535,446)"/>
<path d="M0 0 C0.33 0 0.66 0 1 0 C1.33 20.13 1.66 40.26 2 61 C2.66 61.33 3.32 61.66 4 62 C3.67 62.66 3.34 63.32 3 64 C2.01 64 1.02 64 0 64 C0 42.88 0 21.76 0 0 Z " fill="#0DC3F8" transform="translate(905,509)"/>
<path d="M0 0 C0.66 0.33 1.32 0.66 2 1 C2 4 2 4 0.566 5.508 C0.236 5.775 0.236 5.775 -1.438 7.125 C-5.519 10.513 -9.125 14.192 -12.727 18.082 C-15.358 20.302 -17.701 21.107 -21 22 C-15.448 15.215 -9.232 9.151 -3 3 C-1.999 2.001 -0.998 1.002 0 0 Z " fill="#346AB0" transform="translate(320,237)"/>
<path d="M0 0 C0.509 0.165 0.509 0.165 3.084 0.998 C5.579 1.806 8.071 2.619 10.562 3.438 C7.3 5.376 6.74 5.472 2.75 4.688 C1.351 4.282 -0.045 3.866 -1.438 3.438 C-2.005 3.283 -2.005 3.283 -4.875 2.5 C-16.457 -0.954 -16.457 -0.954 -21.438 -3.562 C-14.412 -5.904 -6.727 -2.21 0 0 Z " fill="#3E71B4" transform="translate(849.4375,154.5625)"/>
<path d="M0 0 C0.33 0 0.66 0 1 0 C4.028 15.301 4.078 29.9 0 45 C-0.33 45 -0.66 45 -1 45 C-1.027 43.188 -1.046 41.375 -1.062 39.562 C-1.074 38.553 -1.086 37.544 -1.098 36.504 C-1 34 -1 34 0 33 C0.088 30.552 0.115 28.132 0.098 25.684 C0.096 24.953 0.095 24.221 0.093 23.468 C0.088 21.125 0.075 18.781 0.062 16.438 C0.057 14.852 0.053 13.267 0.049 11.682 C0.038 7.788 0.021 3.894 0 0 Z " fill="#66A0BE" transform="translate(1181,785)"/>
<path d="M0 0 C0.33 0.66 0.66 1.32 1 2 C-8.776 13.314 -8.776 13.314 -12.285 15.281 C-15.41 17.259 -17.735 19.541 -20.312 22.188 C-21.196 23.089 -22.079 23.99 -22.988 24.918 C-23.652 25.605 -24.316 26.292 -25 27 C-25.66 26.67 -26.32 26.34 -27 26 C-24.338 23.308 -21.669 20.622 -19 17.938 C-18.256 17.185 -17.512 16.433 -16.746 15.658 C-12.509 11.403 -8.193 7.317 -3.629 3.412 C-2.374 2.325 -1.174 1.174 0 0 Z " fill="#4170B3" transform="translate(349,210)"/>
<path d="M0 0 C0.66 0.33 1.32 0.66 2 1 C1.287 1.701 0.574 2.403 -0.16 3.125 C-4.55 7.467 -8.896 11.771 -12.875 16.5 C-15.351 19.406 -17.659 21.115 -21 23 C-23.096 24.921 -25.034 26.942 -27 29 C-27.66 28.67 -28.32 28.34 -29 28 C-19.622 18.449 -19.622 18.449 -15.062 14.562 C-9.744 10.019 -4.902 4.983 0 0 Z " fill="#5884BD" transform="translate(434,129)"/>
</svg>
