<?xml version="1.0" encoding="UTF-8"?>
<!-- Generator: visioncortex VTracer 0.6.12 -->
<svg version="1.1" xmlns="http://www.w3.org/2000/svg" width="1254" height="1254">
<path d="M0 0 C2.412 0.79 4.828 1.569 7.245 2.345 C9.866 3.186 12.487 4.028 15.107 4.873 C24.433 7.88 33.787 10.793 43.143 13.704 C62.776 19.816 82.386 25.995 101.991 32.194 C121.296 38.297 140.608 44.376 159.924 50.442 C179.169 56.485 198.413 62.535 217.649 68.607 C218.454 68.861 219.259 69.115 220.089 69.377 C228.958 72.176 237.825 74.979 246.691 77.787 C249.829 78.78 252.967 79.774 256.106 80.767 C256.873 81.01 257.641 81.253 258.431 81.503 C268.708 84.754 278.996 87.966 289.296 91.141 C293.901 92.563 298.504 93.995 303.107 95.424 C305.534 96.175 307.962 96.92 310.392 97.659 C334.162 104.891 334.162 104.891 343.305 111.505 C343.903 111.937 344.502 112.368 345.118 112.812 C352.075 118.205 357.253 124.741 361.305 132.505 C361.675 133.197 362.045 133.889 362.426 134.602 C366.566 142.925 368.648 151.679 370.853 160.656 C371.571 163.508 372.341 166.341 373.123 169.175 C375.623 178.424 377.567 187.032 377.77 196.63 C378.162 205.183 378.634 213.774 384.231 220.673 C397.56 232.45 421.581 235.62 438.423 239.598 C447.057 241.64 455.523 243.98 463.938 246.81 C464.899 247.132 465.859 247.453 466.849 247.785 C484.345 253.821 497.85 264.911 506.305 281.505 C510.157 289.786 512.66 298.025 514.653 306.919 C515.108 308.888 515.564 310.857 516.02 312.826 C516.654 315.577 517.278 318.33 517.902 321.083 C519.106 326.383 520.33 331.678 521.551 336.974 C521.872 338.368 522.192 339.761 522.512 341.155 C525.594 354.569 528.799 367.953 532.024 381.333 C538.109 406.594 544.043 431.888 549.941 457.193 C551.038 461.897 552.136 466.602 553.234 471.306 C558.963 495.847 564.679 520.392 570.368 544.943 C575.005 564.95 579.672 584.95 584.368 604.943 C584.452 605.304 584.452 605.304 584.881 607.13 C590.02 629.006 595.263 650.854 600.676 672.663 C600.909 673.603 601.142 674.543 601.381 675.512 C601.805 677.221 602.23 678.929 602.657 680.637 C608.21 703.057 609.172 725.487 597.024 746.033 C593.862 750.581 590.118 754.504 586.305 758.505 C585.391 759.525 584.481 760.549 583.575 761.576 C583.123 762.085 582.672 762.594 582.206 763.119 C580.928 764.562 579.65 766.006 578.371 767.451 C576.305 769.505 576.305 769.505 574.305 769.505 C574.054 770.083 573.804 770.66 573.545 771.255 C572.14 773.805 570.544 775.478 568.461 777.509 C567.71 778.25 566.958 778.99 566.184 779.753 C565.791 780.135 565.791 780.135 563.805 782.068 C562.251 783.588 560.699 785.11 559.149 786.634 C558.46 787.305 557.771 787.976 557.061 788.668 C555.305 790.505 555.305 790.505 553.305 793.505 C552.645 793.505 551.985 793.505 551.305 793.505 C551.032 794.104 550.76 794.702 550.479 795.318 C549.335 797.45 548.239 798.809 546.527 800.495 C545.969 801.049 545.411 801.604 544.836 802.175 C544.234 802.763 543.632 803.352 543.012 803.958 C542.7 804.268 542.7 804.268 541.12 805.834 C539.124 807.813 537.121 809.784 535.118 811.755 C533.132 813.713 531.149 815.671 529.168 817.633 C527.938 818.852 526.705 820.068 525.468 821.28 C522.474 824.24 519.613 827.258 516.862 830.446 C513.239 834.639 509.378 838.543 505.438 842.435 C504.718 843.151 503.997 843.868 503.255 844.606 C500.983 846.867 498.707 849.124 496.43 851.38 C493.409 854.375 490.391 857.373 487.375 860.372 C486.681 861.059 485.986 861.745 485.27 862.453 C484.632 863.087 483.994 863.722 483.337 864.376 C482.774 864.934 482.211 865.491 481.631 866.066 C480.305 867.505 480.305 867.505 479.305 869.505 C478.645 869.505 477.985 869.505 477.305 869.505 C477.064 870.072 476.823 870.639 476.574 871.223 C475.048 873.967 473.226 875.816 470.995 878.027 C470.104 878.915 469.213 879.802 468.294 880.717 C467.32 881.678 466.346 882.638 465.371 883.599 C464.372 884.592 463.373 885.586 462.375 886.58 C459.748 889.193 457.116 891.801 454.482 894.407 C450.269 898.577 446.063 902.753 441.86 906.933 C440.394 908.389 438.924 909.842 437.455 911.294 C436.56 912.181 435.666 913.069 434.745 913.984 C433.958 914.762 433.171 915.541 432.361 916.343 C430.305 918.505 430.305 918.505 428.653 920.788 C428.208 921.355 427.763 921.921 427.305 922.505 C426.645 922.505 425.985 922.505 425.305 922.505 C424.645 923.825 423.985 925.145 423.305 926.505 C422.645 926.505 421.985 926.505 421.305 926.505 C421.103 927.033 420.9 927.561 420.692 928.105 C418.701 931.55 415.927 934.135 413.115 936.907 C412.48 937.54 411.846 938.173 411.192 938.825 C409.094 940.917 406.988 943.002 404.883 945.087 C403.42 946.544 401.958 948.001 400.496 949.459 C396.642 953.299 392.783 957.134 388.922 960.967 C382.756 967.09 376.597 973.22 370.44 979.353 C368.295 981.488 366.146 983.62 363.996 985.752 C362.668 987.073 361.341 988.394 360.013 989.716 C359.421 990.301 358.828 990.887 358.218 991.49 C354.788 994.911 351.614 998.436 348.577 1002.213 C348.367 1002.426 348.367 1002.426 347.305 1003.505 C346.645 1003.505 345.985 1003.505 345.305 1003.505 C345.178 1003.795 345.178 1003.795 344.536 1005.261 C343.164 1007.762 341.633 1009.412 339.606 1011.416 C338.848 1012.17 338.091 1012.924 337.31 1013.701 C336.902 1014.103 336.902 1014.103 334.832 1016.138 C333.994 1016.971 333.156 1017.804 332.292 1018.663 C329.614 1021.323 326.929 1023.977 324.243 1026.63 C321.554 1029.291 318.867 1031.954 316.182 1034.62 C314.511 1036.278 312.837 1037.934 311.161 1039.588 C310.406 1040.335 309.652 1041.083 308.875 1041.853 C308.208 1042.512 307.541 1043.171 306.854 1043.849 C305.305 1045.505 305.305 1045.505 304.305 1047.505 C303.645 1047.505 302.985 1047.505 302.305 1047.505 C302.052 1048.084 301.799 1048.662 301.538 1049.258 C300.159 1051.772 298.611 1053.44 296.577 1055.46 C295.813 1056.225 295.048 1056.989 294.261 1057.776 C293.847 1058.185 293.847 1058.185 291.754 1060.251 C291.329 1060.675 291.329 1060.675 289.176 1062.821 C286.453 1065.533 283.723 1068.238 280.993 1070.943 C279.165 1072.761 277.337 1074.579 275.51 1076.398 C271.426 1080.463 267.337 1084.523 263.243 1088.578 C261.616 1090.196 260.001 1091.824 258.389 1093.456 C249.501 1102.196 236.124 1106.585 223.868 1106.755 C222.776 1106.781 221.684 1106.807 220.559 1106.833 C208.535 1106.305 196.725 1101.928 185.368 1098.255 C183.717 1097.727 182.065 1097.2 180.414 1096.673 C176.884 1095.545 173.356 1094.414 169.828 1093.279 C164.23 1091.48 158.627 1089.692 153.024 1087.908 C145.159 1085.402 137.296 1082.893 129.434 1080.38 C121.276 1077.773 113.117 1075.169 104.957 1072.568 C101.889 1071.589 98.82 1070.611 95.751 1069.632 C93.848 1069.025 91.945 1068.419 90.042 1067.812 C75.092 1063.049 60.158 1058.237 45.227 1053.416 C38.404 1051.214 31.579 1049.018 24.754 1046.822 C19.834 1045.238 14.913 1043.653 9.993 1042.068 C9.666 1041.963 9.666 1041.963 8.017 1041.431 C-10.818 1035.364 -29.632 1029.241 -48.428 1023.058 C-69 1016.291 -89.603 1009.638 -110.257 1003.13 C-110.85 1002.943 -110.85 1002.943 -113.849 1001.998 C-124.893 998.516 -135.94 995.044 -147.002 991.618 C-150.795 990.442 -154.586 989.258 -158.377 988.074 C-160.904 987.288 -163.434 986.513 -165.965 985.738 C-186.906 979.245 -204.295 968.694 -215.072 948.891 C-221.386 935.72 -223.108 919.636 -226.069 905.46 C-226.614 902.852 -227.161 900.245 -227.712 897.638 C-228.516 893.835 -229.315 890.032 -230.113 886.228 C-230.358 885.07 -230.602 883.911 -230.855 882.717 C-232.047 876.988 -233.08 871.326 -233.695 865.505 C-234.41 865.335 -235.125 865.165 -235.862 864.99 C-243.587 863.112 -251.156 860.898 -258.73 858.486 C-259.33 858.295 -259.33 858.295 -262.366 857.331 C-264.885 856.529 -267.404 855.725 -269.922 854.918 C-272.479 854.1 -275.037 853.288 -277.599 852.484 C-281.334 851.308 -285.064 850.117 -288.793 848.923 C-289.923 848.57 -291.054 848.217 -292.218 847.853 C-310.735 841.857 -323.92 831.669 -332.827 814.298 C-336.462 806.801 -338.382 799.381 -340.054 791.244 C-340.35 789.846 -340.646 788.448 -340.943 787.05 C-344.417 770.522 -347.443 753.905 -350.471 737.291 C-351.284 732.833 -352.105 728.378 -352.925 723.922 C-354.081 717.637 -355.236 711.352 -356.388 705.066 C-359.025 690.686 -361.698 676.314 -364.382 661.943 C-364.829 659.55 -365.275 657.158 -365.722 654.766 C-368.611 639.283 -371.512 623.803 -374.416 608.322 C-375.142 604.457 -375.866 600.591 -376.591 596.726 C-376.716 596.06 -376.841 595.394 -376.969 594.708 C-377.633 591.168 -378.297 587.628 -378.961 584.088 C-380.42 576.306 -381.879 568.523 -383.34 560.741 C-392.446 512.227 -401.529 463.71 -410.357 415.144 C-410.88 412.271 -411.402 409.398 -411.925 406.525 C-412.736 402.064 -413.546 397.604 -414.354 393.143 C-414.647 391.524 -414.941 389.905 -415.235 388.286 C-415.634 386.085 -416.033 383.882 -416.43 381.68 C-416.652 380.455 -416.873 379.23 -417.102 377.968 C-420.609 357.493 -419.082 338.399 -407.695 320.505 C-404.809 316.725 -401.545 313.326 -398.174 309.978 C-396.633 308.443 -395.121 306.882 -393.613 305.314 C-388.225 299.772 -388.225 299.772 -385.695 297.505 C-385.035 297.505 -384.375 297.505 -383.695 297.505 C-383.695 296.845 -383.695 296.185 -383.695 295.505 C-382.261 294.095 -382.261 294.095 -380.257 292.443 C-377.087 289.754 -374.109 286.97 -371.195 284.005 C-368.527 281.301 -365.84 278.713 -362.945 276.255 C-359.168 273.022 -355.688 269.538 -352.195 266.005 C-348.122 261.886 -344.005 257.928 -339.586 254.177 C-336.55 251.493 -333.755 248.573 -330.91 245.689 C-328.918 243.726 -326.882 241.885 -324.757 240.068 C-320.746 236.631 -317.066 232.913 -313.382 229.13 C-310.607 226.42 -307.722 223.889 -304.792 221.349 C-301.368 218.339 -298.066 215.203 -294.757 212.068 C-293.259 210.652 -291.76 209.237 -290.261 207.822 C-289.504 207.105 -288.746 206.389 -287.965 205.65 C-284.38 202.263 -280.787 198.885 -277.195 195.505 C-275.793 194.185 -274.39 192.865 -272.988 191.544 C-270.014 188.745 -267.037 185.949 -264.058 183.154 C-263.296 182.438 -262.535 181.723 -261.75 180.986 C-260.301 179.626 -258.852 178.266 -257.402 176.908 C-254.315 174.007 -251.277 171.089 -248.332 168.044 C-245.695 165.505 -245.695 165.505 -243.695 165.505 C-243.365 164.515 -243.035 163.525 -242.695 162.505 C-241.129 160.962 -241.129 160.962 -239.132 159.318 C-236.185 156.822 -233.399 154.263 -230.695 151.505 C-228.155 148.926 -225.57 146.483 -222.82 144.13 C-219.628 141.389 -216.652 138.498 -213.695 135.505 C-210.174 131.941 -206.563 128.602 -202.757 125.349 C-199.485 122.424 -196.444 119.274 -193.382 116.13 C-190.62 113.432 -187.749 110.913 -184.832 108.384 C-181.207 105.197 -177.704 101.882 -174.195 98.568 C-173.487 97.903 -172.78 97.239 -172.05 96.554 C-167.79 92.539 -163.614 88.455 -159.506 84.283 C-157.734 82.544 -155.903 80.921 -154.007 79.318 C-150.212 76.061 -146.709 72.559 -143.195 69.005 C-139.122 64.886 -135.005 60.928 -130.586 57.177 C-127.553 54.495 -124.76 51.578 -121.918 48.697 C-119.268 46.084 -116.483 43.672 -113.66 41.251 C-110.881 38.782 -108.306 36.126 -105.699 33.478 C-103.113 30.932 -100.38 28.585 -97.629 26.22 C-95.74 24.545 -93.963 22.806 -92.195 21.005 C-89.162 17.924 -85.995 15.061 -82.707 12.255 C-81.407 11.124 -80.135 9.959 -78.902 8.755 C-56.589 -12.559 -26.8 -8.783 0 0 Z " fill="#03AEFD" transform="translate(563.6949768066406,74.49468994140625)"/>
<path d="M0 0 C0.402 -0.008 0.402 -0.008 2.438 -0.049 C15.998 -0.059 27.384 4.81 39.375 10.5 C40.91 11.217 42.446 11.932 43.982 12.646 C47.164 14.127 50.343 15.613 53.521 17.103 C60.187 20.224 66.886 23.274 73.585 26.326 C77.222 27.984 80.857 29.646 84.492 31.309 C85.95 31.975 87.408 32.642 88.866 33.308 C92.532 34.984 96.198 36.661 99.864 38.338 C115.132 45.323 130.403 52.301 145.688 59.25 C146.388 59.568 147.088 59.887 147.809 60.215 C154.753 63.371 161.7 66.521 168.663 69.635 C179.979 74.698 191.227 79.908 202.478 85.113 C211.535 89.303 220.597 93.483 229.688 97.602 C230.061 97.771 230.061 97.771 231.949 98.626 C235.445 100.21 238.943 101.79 242.442 103.366 C261.818 112.107 276.281 119.42 284.234 139.934 C286.512 147.51 286.397 155.157 286.39 163 C286.392 163.58 286.392 163.58 286.399 166.518 C286.407 169.722 286.409 172.926 286.41 176.131 C286.412 179.594 286.419 183.057 286.426 186.52 C286.44 194.084 286.446 201.648 286.45 209.212 C286.453 213.941 286.457 218.67 286.462 223.398 C286.474 236.506 286.484 249.614 286.488 262.722 C286.488 263.56 286.488 264.398 286.488 265.262 C286.488 266.102 286.489 266.941 286.489 267.807 C286.489 269.509 286.49 271.21 286.49 272.912 C286.49 273.756 286.491 274.6 286.491 275.47 C286.495 289.14 286.512 302.81 286.536 316.48 C286.559 330.535 286.572 344.591 286.573 358.646 C286.574 366.53 286.58 374.413 286.598 382.296 C286.613 389.01 286.618 395.724 286.61 402.438 C286.606 405.858 286.607 409.279 286.621 412.699 C286.693 433.709 285.818 450.784 273.25 468.312 C272.736 469.059 272.221 469.805 271.691 470.574 C271.216 471.148 270.74 471.721 270.25 472.312 C269.59 472.312 268.93 472.312 268.25 472.312 C268.25 472.973 268.25 473.632 268.25 474.312 C258.726 482.107 247.55 488.198 237.117 494.664 C232.332 497.631 227.574 500.64 222.827 503.669 C219.039 506.085 215.238 508.479 211.438 510.875 C200.689 517.658 189.969 524.484 179.25 531.312 C164.789 540.524 150.312 549.709 135.808 558.852 C127.377 564.166 118.953 569.488 110.579 574.891 C105.821 577.956 101.038 580.981 96.25 584 C89.137 588.486 82.033 592.986 74.938 597.5 C74.007 598.09 73.077 598.681 72.118 599.289 C68.091 601.849 64.072 604.417 60.098 607.059 C45.261 616.902 30.755 621.55 12.781 618.777 C0.673 616.189 -9.171 610.508 -19.75 604.312 C-23.458 602.145 -27.166 599.979 -30.875 597.812 C-31.384 597.515 -31.384 597.515 -33.957 596.01 C-41.861 591.396 -49.798 586.843 -57.75 582.312 C-66.816 577.146 -75.862 571.946 -84.875 566.688 C-85.828 566.132 -86.78 565.576 -87.762 565.004 C-93.784 561.483 -99.776 557.914 -105.75 554.312 C-104.5 550.564 -102.54 549.103 -99.75 546.312 C-94.315 540.082 -92.708 533.199 -90.75 525.312 C-88.056 524.243 -86.999 524.211 -84.271 525.325 C-83.353 525.854 -82.434 526.382 -81.488 526.926 C-80.461 527.509 -79.434 528.092 -78.375 528.693 C-77.828 529.012 -77.828 529.012 -75.062 530.625 C-73.932 531.271 -72.801 531.918 -71.637 532.584 C-64.815 536.496 -58.028 540.471 -51.269 544.49 C-44.093 548.743 -36.798 552.781 -29.505 556.829 C-23.954 559.92 -18.445 563.065 -12.988 566.32 C-12.444 566.644 -12.444 566.644 -9.69 568.282 C-7.605 569.527 -5.526 570.782 -3.453 572.046 C-2.515 572.606 -1.576 573.165 -0.609 573.742 C-0.199 573.991 -0.199 573.991 1.876 575.25 C4.576 576.459 6.323 576.673 9.25 576.312 C11.25 574.312 11.25 574.312 11.5 572.216 C11.499 571.778 11.499 571.778 11.499 569.564 C11.503 568.556 11.508 567.548 11.513 566.509 C11.508 565.393 11.503 564.277 11.497 563.127 C11.498 562.538 11.498 562.538 11.505 559.555 C11.509 556.272 11.505 552.989 11.497 549.706 C11.49 546.17 11.495 542.633 11.499 539.096 C11.504 532.164 11.498 525.231 11.489 518.298 C11.478 510.23 11.479 502.161 11.479 494.093 C11.479 479.697 11.47 465.302 11.456 450.907 C11.442 436.931 11.435 422.955 11.435 408.979 C11.435 408.548 11.435 408.548 11.435 406.371 C11.435 405.942 11.435 405.942 11.436 403.768 C11.436 387.871 11.43 371.974 11.421 356.078 C11.418 350.45 11.417 344.823 11.417 339.196 C11.416 332.339 11.412 325.482 11.403 318.624 C11.398 315.124 11.395 311.624 11.396 308.124 C11.397 304.333 11.391 300.542 11.384 296.752 C11.385 295.64 11.387 294.529 11.388 293.384 C11.385 292.37 11.382 291.357 11.379 290.313 C11.378 289.875 11.378 289.875 11.376 287.66 C11.254 285.381 11.01 283.465 10.25 281.312 C8.249 280.335 8.249 280.335 5.25 279.312 C3.874 278.675 2.508 278.018 1.148 277.348 C0.37 276.966 -0.407 276.584 -1.208 276.191 C-2.041 275.78 -2.873 275.369 -3.73 274.945 C-5.542 274.055 -7.353 273.166 -9.164 272.276 C-10.108 271.812 -11.052 271.348 -12.024 270.869 C-25.698 264.149 -39.378 257.438 -53.188 251 C-54.226 250.51 -55.265 250.019 -56.335 249.514 C-57.275 249.08 -58.215 248.646 -59.184 248.199 C-59.978 247.83 -60.773 247.461 -61.592 247.081 C-63.75 246.312 -63.75 246.312 -67.75 246.312 C-67.754 247.279 -67.757 248.245 -67.761 249.24 C-67.798 258.348 -67.856 267.456 -67.934 276.563 C-67.973 281.246 -68.006 285.928 -68.021 290.61 C-68.036 295.13 -68.071 299.649 -68.118 304.168 C-68.133 305.891 -68.141 307.615 -68.142 309.339 C-68.144 311.755 -68.171 314.169 -68.204 316.585 C-68.202 316.94 -68.202 316.94 -68.189 318.74 C-68.262 322.243 -68.698 324.229 -70.567 327.226 C-72.75 329.312 -72.75 329.312 -76.219 330.43 C-79.75 330.312 -79.75 330.312 -82.156 328.32 C-82.847 327.369 -83.538 326.418 -84.25 325.438 C-85.009 324.427 -85.769 323.416 -86.551 322.375 C-87.277 321.364 -88.002 320.354 -88.75 319.312 C-94.143 312.107 -98.922 306.925 -106.75 302.312 C-108.171 311.502 -108.852 319.778 -103.539 327.824 C-100.153 332.377 -96.488 336.685 -92.759 340.959 C-90.04 344.144 -87.627 347.494 -85.25 350.938 C-83.015 354.13 -80.762 357.296 -78.402 360.398 C-77.671 361.36 -76.941 362.322 -76.188 363.312 C-75.547 364.138 -74.906 364.962 -74.246 365.812 C-70.557 371.977 -71.015 379.86 -72.469 386.688 C-73.322 390.016 -74.21 393.329 -75.139 396.637 C-76.195 400.397 -77.213 404.168 -78.234 407.938 C-78.445 408.712 -78.656 409.486 -78.873 410.284 C-81.425 419.714 -83.68 429.214 -85.922 438.721 C-87.906 447.063 -90.104 455.319 -92.425 463.573 C-94.533 471.079 -96.536 478.613 -98.552 486.144 C-99.249 488.745 -99.947 491.346 -100.645 493.947 C-100.874 494.803 -101.103 495.659 -101.34 496.541 C-101.798 498.251 -102.257 499.962 -102.717 501.672 C-103.872 505.981 -105.005 510.294 -106.102 514.618 C-106.321 515.475 -106.54 516.333 -106.766 517.216 C-107.18 518.835 -107.587 520.454 -107.988 522.076 C-109.506 528 -111.007 533.825 -116.5 537.188 C-120.529 539.432 -123.086 540.077 -127.75 539.312 C-130.843 538.229 -133.868 537.025 -136.901 535.783 C-140.692 534.287 -144.563 533.149 -148.484 532.051 C-158.152 529.273 -167.63 525.999 -177.125 522.688 C-196.809 515.827 -196.809 515.827 -206.75 513.312 C-213.683 511.438 -219.973 509.004 -223.814 502.514 C-227.318 494.27 -223.811 484.7 -221.333 476.609 C-220.175 472.827 -219.07 469.029 -217.953 465.234 C-217.705 464.398 -217.458 463.561 -217.202 462.699 C-213.628 450.593 -210.302 438.416 -206.938 426.25 C-206.298 423.941 -205.658 421.632 -205.017 419.323 C-203.806 414.954 -202.595 410.585 -201.386 406.216 C-200.389 402.616 -199.39 399.017 -198.388 395.419 C-196.219 387.637 -194.076 379.848 -191.961 372.051 C-191.254 369.45 -190.546 366.85 -189.838 364.249 C-189.357 362.481 -188.879 360.711 -188.401 358.942 C-187.697 356.331 -186.986 353.722 -186.273 351.113 C-186.064 350.331 -185.855 349.549 -185.639 348.743 C-183.773 341.948 -181.774 335.471 -176.75 330.312 C-174.08 328.859 -174.08 328.859 -171.066 327.707 C-169.974 327.281 -168.881 326.855 -167.756 326.416 C-166.62 325.99 -165.483 325.564 -164.312 325.125 C-163.18 324.687 -162.048 324.25 -160.881 323.799 C-158.773 322.985 -156.662 322.178 -154.549 321.378 C-152.729 320.685 -150.923 319.952 -149.136 319.175 C-146.75 318.312 -146.75 318.312 -142.75 318.312 C-142.75 312.043 -142.75 305.773 -142.75 299.312 C-144.4 299.808 -144.4 299.808 -152.75 302.312 C-154.891 300.172 -153.936 295.263 -153.955 292.295 C-153.965 291.348 -153.975 290.402 -153.985 289.427 C-154.017 286.284 -154.042 283.14 -154.066 279.996 C-154.087 277.823 -154.108 275.649 -154.129 273.476 C-154.185 267.744 -154.234 262.011 -154.282 256.278 C-154.332 250.434 -154.388 244.589 -154.443 238.744 C-154.551 227.267 -154.652 215.79 -154.75 204.312 C-157.26 203.051 -159.77 201.791 -162.281 200.532 C-162.981 200.18 -163.681 199.828 -164.402 199.466 C-171.95 195.684 -179.611 192.164 -187.289 188.654 C-189.093 187.827 -190.896 186.998 -192.699 186.168 C-193.222 185.929 -193.222 185.929 -195.866 184.719 C-198.6 183.386 -201.156 181.896 -203.75 180.312 C-205.318 179.63 -206.902 178.983 -208.5 178.375 C-220.534 173.676 -220.534 173.676 -225.188 170.812 C-228.432 168.913 -231.817 167.648 -235.32 166.297 C-237.75 165.312 -237.75 165.312 -241.062 163.562 C-243.982 162.205 -245.59 161.629 -248.75 162.312 C-252.766 166.939 -252.166 172.141 -252.124 177.927 C-252.126 178.468 -252.126 178.468 -252.136 181.204 C-252.146 184.835 -252.134 188.465 -252.122 192.095 C-252.125 194.695 -252.128 197.296 -252.133 199.896 C-252.143 206.23 -252.136 212.563 -252.124 218.897 C-252.11 226.274 -252.112 233.652 -252.114 241.029 C-252.117 254.194 -252.106 267.36 -252.086 280.525 C-252.067 293.297 -252.06 306.068 -252.066 318.839 C-252.072 332.747 -252.072 346.655 -252.06 360.563 C-252.059 362.047 -252.058 363.531 -252.057 365.015 C-252.056 365.745 -252.055 366.475 -252.055 367.227 C-252.051 372.367 -252.051 377.508 -252.053 382.648 C-252.056 389.571 -252.047 396.493 -252.031 403.416 C-252.027 405.958 -252.026 408.499 -252.029 411.041 C-252.032 414.509 -252.023 417.976 -252.011 421.444 C-252.014 422.451 -252.018 423.459 -252.022 424.496 C-251.97 432.815 -250.889 440.216 -244.75 446.312 C-242.176 447.947 -239.586 449.394 -236.859 450.758 C-234.75 452.312 -234.75 452.312 -234.015 454.469 C-233.676 458.112 -234.427 460.839 -235.402 464.363 C-235.581 465.022 -235.76 465.681 -235.945 466.36 C-236.515 468.451 -237.101 470.538 -237.688 472.625 C-238.078 474.047 -238.468 475.47 -238.857 476.893 C-239.81 480.369 -240.776 483.842 -241.75 487.312 C-255.229 484.908 -268.123 475.246 -275.941 464.223 C-283.326 451.998 -286.059 440.415 -286.011 426.25 C-286.015 425.061 -286.018 423.872 -286.022 422.647 C-286.031 419.369 -286.03 416.091 -286.026 412.812 C-286.024 409.268 -286.033 405.724 -286.04 402.18 C-286.053 395.246 -286.055 388.312 -286.052 381.377 C-286.051 375.739 -286.052 370.101 -286.057 364.463 C-286.057 363.66 -286.058 362.856 -286.058 362.028 C-286.06 360.396 -286.061 358.763 -286.062 357.13 C-286.073 341.834 -286.071 326.537 -286.065 311.24 C-286.059 297.257 -286.071 283.274 -286.09 269.291 C-286.109 254.92 -286.117 240.548 -286.114 226.176 C-286.112 218.113 -286.114 210.05 -286.128 201.987 C-286.14 195.123 -286.142 188.26 -286.13 181.396 C-286.124 177.897 -286.123 174.399 -286.135 170.9 C-286.145 167.1 -286.137 163.301 -286.124 159.502 C-286.132 158.405 -286.139 157.308 -286.147 156.178 C-286.048 142.166 -280.829 129.664 -271.085 119.5 C-262.824 111.762 -252.018 107.434 -241.812 102.875 C-240.285 102.185 -238.757 101.494 -237.229 100.803 C-224.546 95.074 -211.827 89.423 -199.094 83.805 C-190.604 80.056 -182.168 76.206 -173.768 72.259 C-170.033 70.507 -166.29 68.772 -162.547 67.035 C-161.744 66.663 -160.941 66.29 -160.114 65.906 C-139.405 56.298 -118.669 46.75 -97.892 37.288 C-95.703 36.291 -93.513 35.293 -91.324 34.295 C-86.946 32.299 -82.567 30.305 -78.188 28.312 C-77.493 27.996 -76.798 27.68 -76.081 27.354 C-67.517 23.459 -58.937 19.603 -50.321 15.821 C-46.309 14.048 -42.395 12.141 -38.5 10.125 C-26.287 3.908 -13.717 -0.054 0 0 Z " fill="#023B85" transform="translate(630.75,339.6875)"/>
<path d="M0 0 C6.045 0.576 11.417 1.882 17.176 3.773 C18.047 4.053 18.918 4.333 19.815 4.621 C22.65 5.532 25.481 6.453 28.312 7.375 C32.275 8.656 36.239 9.933 40.203 11.211 C40.7 11.371 40.7 11.371 43.214 12.184 C49.559 14.23 55.919 16.221 62.297 18.164 C63.884 18.65 65.471 19.137 67.057 19.624 C69.277 20.304 71.498 20.981 73.723 21.645 C94.272 27.783 110.493 38.391 121 57.562 C126.962 69.331 129.158 82.837 132.018 95.628 C133.217 100.988 134.479 106.333 135.744 111.678 C136.389 114.407 137.032 117.137 137.671 119.868 C140.315 131.152 143.021 142.421 145.737 153.689 C152.153 180.328 158.416 207.002 164.636 233.688 C165.733 238.392 166.831 243.096 167.929 247.801 C173.658 272.342 179.374 296.887 185.062 321.438 C189.7 341.444 194.366 361.444 199.062 381.438 C199.232 382.159 199.402 382.881 199.576 383.625 C204.715 405.5 209.958 427.348 215.371 449.158 C215.604 450.098 215.837 451.038 216.076 452.007 C216.5 453.716 216.925 455.424 217.352 457.132 C222.905 479.552 223.867 501.981 211.719 522.527 C208.557 527.075 204.813 530.999 201 535 C200.086 536.02 199.176 537.043 198.27 538.07 C197.818 538.579 197.367 539.089 196.901 539.613 C195.623 541.057 194.345 542.501 193.066 543.945 C191 546 191 546 189 546 C188.749 546.577 188.499 547.155 188.24 547.75 C186.835 550.299 185.239 551.972 183.156 554.004 C182.405 554.744 181.653 555.485 180.879 556.248 C180.486 556.63 180.486 556.63 178.5 558.562 C176.946 560.082 175.394 561.604 173.844 563.129 C173.155 563.8 172.466 564.471 171.756 565.162 C170 567 170 567 168 570 C167.34 570 166.68 570 166 570 C165.727 570.598 165.455 571.197 165.174 571.813 C164.03 573.944 162.934 575.303 161.222 576.989 C160.664 577.544 160.106 578.098 159.531 578.669 C158.929 579.258 158.327 579.847 157.707 580.453 C157.395 580.763 157.395 580.763 155.815 582.329 C153.819 584.308 151.816 586.279 149.812 588.25 C147.827 590.207 145.844 592.166 143.863 594.128 C142.633 595.347 141.4 596.562 140.163 597.775 C137.169 600.735 134.308 603.752 131.557 606.941 C127.934 611.133 124.073 615.037 120.133 618.93 C119.413 619.646 118.692 620.363 117.95 621.101 C115.678 623.361 113.402 625.619 111.125 627.875 C108.104 630.87 105.086 633.867 102.07 636.867 C101.376 637.554 100.681 638.24 99.965 638.947 C99.327 639.582 98.689 640.217 98.032 640.871 C97.469 641.428 96.906 641.986 96.326 642.561 C95 644 95 644 94 646 C93.34 646 92.68 646 92 646 C91.759 646.567 91.518 647.133 91.269 647.717 C89.743 650.461 87.921 652.311 85.69 654.521 C84.799 655.409 83.907 656.297 82.989 657.212 C82.015 658.172 81.041 659.133 80.066 660.094 C79.067 661.087 78.068 662.08 77.07 663.075 C74.443 665.688 71.811 668.296 69.177 670.902 C64.964 675.072 60.758 679.248 56.555 683.428 C55.089 684.884 53.619 686.336 52.15 687.788 C51.255 688.676 50.361 689.564 49.44 690.479 C48.653 691.257 47.866 692.035 47.056 692.838 C45 695 45 695 43.348 697.283 C42.903 697.849 42.458 698.416 42 699 C41.34 699 40.68 699 40 699 C39.34 700.32 38.68 701.64 38 703 C37.34 703 36.68 703 36 703 C35.798 703.528 35.595 704.056 35.387 704.6 C33.396 708.045 30.622 710.63 27.81 713.402 C27.175 714.035 26.541 714.668 25.887 715.32 C23.789 717.412 21.683 719.497 19.578 721.582 C18.115 723.039 16.653 724.496 15.191 725.954 C11.337 729.794 7.478 733.629 3.617 737.462 C-2.549 743.585 -8.708 749.715 -14.865 755.848 C-17.01 757.983 -19.159 760.115 -21.309 762.247 C-22.637 763.568 -23.964 764.889 -25.292 766.21 C-25.884 766.796 -26.477 767.382 -27.087 767.985 C-30.517 771.406 -33.691 774.931 -36.728 778.707 C-36.938 778.921 -36.938 778.921 -38 780 C-38.66 780 -39.32 780 -40 780 C-40.127 780.29 -40.127 780.29 -40.769 781.756 C-42.141 784.257 -43.672 785.906 -45.699 787.911 C-46.457 788.665 -47.214 789.419 -47.995 790.196 C-48.404 790.598 -48.404 790.598 -50.473 792.633 C-50.892 793.049 -50.892 793.049 -53.013 795.157 C-55.691 797.818 -58.376 800.472 -61.062 803.125 C-63.751 805.786 -66.439 808.449 -69.123 811.114 C-70.794 812.773 -72.468 814.429 -74.144 816.082 C-74.899 816.83 -75.653 817.578 -76.43 818.348 C-77.097 819.007 -77.764 819.665 -78.451 820.344 C-80 822 -80 822 -81 824 C-81.66 824 -82.32 824 -83 824 C-83.253 824.578 -83.506 825.157 -83.767 825.753 C-85.146 828.267 -86.695 829.935 -88.728 831.955 C-89.492 832.719 -90.257 833.484 -91.045 834.271 C-91.458 834.679 -91.458 834.679 -93.551 836.746 C-93.976 837.17 -93.976 837.17 -96.129 839.316 C-98.852 842.028 -101.582 844.733 -104.312 847.438 C-106.14 849.255 -107.968 851.074 -109.795 852.893 C-113.879 856.957 -117.968 861.018 -122.062 865.073 C-123.689 866.691 -125.304 868.318 -126.916 869.951 C-135.805 878.691 -149.181 883.08 -161.438 883.25 C-162.529 883.276 -163.621 883.302 -164.746 883.328 C-176.77 882.8 -188.58 878.422 -199.938 874.75 C-201.588 874.222 -203.24 873.694 -204.891 873.167 C-208.421 872.04 -211.949 870.908 -215.477 869.774 C-221.075 867.974 -226.678 866.187 -232.281 864.402 C-240.146 861.897 -248.009 859.388 -255.871 856.875 C-264.029 854.268 -272.188 851.664 -280.348 849.062 C-283.416 848.084 -286.485 847.105 -289.554 846.127 C-291.457 845.52 -293.36 844.913 -295.263 844.307 C-310.213 839.543 -325.147 834.732 -340.078 829.911 C-346.901 827.709 -353.726 825.513 -360.551 823.316 C-365.472 821.732 -370.392 820.148 -375.312 818.562 C-375.639 818.457 -375.639 818.457 -377.288 817.926 C-396.123 811.859 -414.937 805.736 -433.734 799.552 C-454.305 792.786 -474.908 786.133 -495.562 779.625 C-496.155 779.438 -496.155 779.438 -499.154 778.492 C-510.198 775.011 -521.245 771.539 -532.307 768.113 C-536.1 766.937 -539.891 765.753 -543.682 764.569 C-546.209 763.782 -548.739 763.007 -551.27 762.233 C-572.223 755.736 -589.547 745.19 -600.371 725.414 C-605.808 714.02 -607.537 700.337 -610.092 688.046 C-610.69 685.173 -611.299 682.302 -611.908 679.432 C-612.297 677.573 -612.686 675.714 -613.074 673.855 C-613.253 673.014 -613.433 672.172 -613.617 671.304 C-615.214 663.552 -616.164 655.801 -616.062 647.875 C-616.053 646.944 -616.044 646.014 -616.035 645.055 C-616.024 644.377 -616.012 643.699 -616 643 C-616.66 642.67 -617.32 642.34 -618 642 C-614.076 642.417 -610.547 643.068 -606.812 644.352 C-606.022 644.621 -605.231 644.891 -604.416 645.168 C-604.018 645.305 -604.018 645.305 -602 646 C-588.273 650.66 -574.482 655.079 -560.633 659.36 C-554.074 661.391 -547.536 663.469 -541.027 665.656 C-536.02 667.337 -531.017 668.93 -525.938 670.375 C-519.538 672.217 -513.186 674.185 -506.844 676.215 C-506.366 676.367 -506.366 676.367 -503.949 677.139 C-500.966 678.091 -497.983 679.045 -495 680 C-494.089 680.292 -493.178 680.583 -492.239 680.883 C-487.656 682.35 -483.073 683.819 -478.491 685.288 C-456.713 692.268 -434.923 699.209 -413.125 706.125 C-412.453 706.338 -411.78 706.552 -411.087 706.772 C-405.082 708.677 -399.077 710.582 -393.072 712.487 C-381.776 716.071 -370.481 719.657 -359.188 723.25 C-358.759 723.386 -358.759 723.386 -356.589 724.077 C-339.543 729.5 -322.505 734.952 -305.469 740.409 C-299.647 742.274 -293.824 744.138 -288 746 C-287.498 746.161 -287.498 746.161 -284.959 746.973 C-281.97 747.928 -278.981 748.882 -275.992 749.836 C-275.097 750.122 -274.201 750.409 -273.279 750.704 C-267.282 752.615 -261.271 754.43 -255.199 756.09 C-253.018 756.711 -250.853 757.393 -248.707 758.129 C-235.752 762.408 -220.849 763.152 -208 758 C-207.582 757.836 -207.582 757.836 -205.469 757.004 C-198.507 753.899 -193.4 749.297 -188 744 C-187.507 743.52 -187.014 743.041 -186.505 742.547 C-181.742 737.908 -176.99 733.263 -172.688 728.188 C-168.574 723.343 -163.988 718.964 -159.476 714.496 C-155.75 710.792 -152.188 707.037 -148.801 703.02 C-145.816 699.672 -142.587 696.568 -139.397 693.417 C-136.695 690.734 -134.086 688.035 -131.625 685.125 C-128.293 681.202 -124.656 677.618 -121 674 C-116.79 669.834 -112.728 665.647 -108.902 661.121 C-105.675 657.523 -102.194 654.175 -98.758 650.777 C-95.894 647.933 -93.111 645.081 -90.5 642 C-86.836 637.677 -82.786 633.761 -78.76 629.78 C-75.296 626.34 -72.029 622.814 -68.871 619.09 C-65.859 615.726 -62.616 612.596 -59.404 609.424 C-56.049 606.094 -52.903 602.661 -49.84 599.059 C-46.672 595.514 -43.244 592.226 -39.844 588.906 C-37.683 586.752 -35.677 584.5 -33.688 582.188 C-29.169 576.969 -24.239 572.19 -19.316 567.355 C-15.952 564.027 -12.675 560.687 -9.594 557.094 C-4.53 551.209 1.09 545.866 6.617 540.422 C11.054 536.026 15.321 531.577 19.387 526.836 C21.953 523.916 24.721 521.215 27.5 518.5 C30.951 515.092 34.361 511.704 37.5 508 C41.163 503.678 45.211 499.764 49.236 495.784 C52.744 492.3 56.062 488.729 59.262 484.957 C62.214 481.634 65.425 478.568 68.586 475.445 C71.291 472.705 73.799 469.848 76.289 466.914 C78.092 464.897 80.02 463.093 82 461.25 C94.095 449.272 99.09 431.942 99.312 415.312 C99.258 404.009 96.65 393.243 93.73 382.391 C90.83 371.486 88.16 360.528 85.5 349.562 C82.789 338.406 80.076 327.251 77.305 316.109 C77.206 315.711 77.206 315.711 76.707 313.694 C75.45 308.659 74.076 303.669 72.625 298.688 C69.851 288.984 67.72 279.134 65.527 269.288 C60.325 245.931 60.325 245.931 57.957 238.906 C57.093 236.282 56.493 233.777 56 231.062 C55.484 228.229 54.864 225.527 54.064 222.756 C53.076 219.267 52.218 215.781 51.414 212.246 C51.123 210.978 50.831 209.711 50.531 208.404 C49.933 205.788 49.337 203.17 48.742 200.553 C46.998 192.976 45.044 185.506 42.866 178.043 C41.876 174.563 41.082 171.109 40.375 167.562 C39.721 164.306 39.036 161.124 38.109 157.933 C36.762 153.265 35.658 148.543 34.539 143.816 C34.423 143.33 34.423 143.33 33.837 140.867 C33.098 137.766 32.361 134.664 31.625 131.562 C28.487 118.356 25.326 105.16 22 92 C20.67 86.709 19.344 81.418 18.018 76.126 C17.63 74.578 17.241 73.03 16.852 71.483 C14.713 62.974 12.606 54.465 10.696 45.901 C10.188 43.785 9.622 41.683 9.021 39.592 C7.995 35.983 7.131 32.371 6.309 28.711 C6.158 28.045 6.008 27.378 5.854 26.692 C5.539 25.295 5.226 23.899 4.913 22.502 C4.437 20.373 3.958 18.245 3.479 16.117 C0.962 4.923 0.962 4.923 0 0 Z " fill="#036DA5" transform="translate(949,298)"/>
<path d="M0 0 C2.412 0.79 4.828 1.569 7.245 2.345 C9.866 3.186 12.487 4.028 15.107 4.873 C24.433 7.88 33.787 10.793 43.143 13.704 C62.776 19.816 82.386 25.995 101.991 32.194 C121.296 38.297 140.608 44.376 159.924 50.442 C179.169 56.485 198.413 62.535 217.649 68.607 C218.454 68.861 219.259 69.115 220.089 69.377 C228.958 72.176 237.825 74.979 246.691 77.787 C249.829 78.78 252.967 79.774 256.106 80.767 C256.873 81.01 257.641 81.253 258.431 81.503 C268.708 84.754 278.996 87.966 289.296 91.141 C293.901 92.563 298.504 93.995 303.107 95.424 C305.534 96.175 307.962 96.92 310.392 97.659 C334.162 104.891 334.162 104.891 343.305 111.505 C343.903 111.937 344.502 112.368 345.118 112.812 C352.075 118.205 357.253 124.741 361.305 132.505 C361.489 132.848 361.489 132.848 362.422 134.584 C367.062 143.887 369.212 153.905 371.68 163.943 C372.16 165.866 372.641 167.789 373.123 169.712 C374.078 173.53 375.028 177.35 375.974 181.171 C377.144 185.879 378.351 190.577 379.575 195.271 C379.903 196.544 380.232 197.817 380.571 199.129 C381.166 201.43 381.767 203.73 382.375 206.029 C383.82 211.697 384.62 216.654 384.305 222.505 C377.362 221.165 370.8 219.064 364.114 216.79 C357.169 214.431 350.141 212.332 343.102 210.275 C332.678 207.213 322.353 203.899 312.055 200.443 C311.401 200.223 310.747 200.004 310.073 199.778 C309.423 199.56 308.774 199.342 308.105 199.117 C295.052 194.738 281.924 190.678 268.733 186.737 C261.55 184.588 254.392 182.367 247.241 180.114 C244.6 179.283 241.957 178.458 239.314 177.633 C237.976 177.215 236.639 176.797 235.302 176.378 C231.984 175.339 228.665 174.307 225.34 173.29 C218.537 171.201 211.808 168.994 205.118 166.568 C199.013 164.364 192.873 162.482 186.618 160.755 C177.01 158.102 167.588 154.974 158.152 151.777 C149.953 149.004 141.753 146.408 133.383 144.199 C127.696 142.677 122.176 140.796 116.661 138.735 C111.198 136.719 105.638 135.147 100.034 133.57 C93.948 131.833 87.909 129.951 81.868 128.068 C81.233 127.87 80.598 127.673 79.944 127.47 C71.945 124.982 63.972 122.435 56.035 119.755 C47.493 116.893 38.921 114.138 30.305 111.505 C29.107 111.138 27.91 110.771 26.676 110.392 C10.982 106.163 -4.666 107.3 -18.882 115.255 C-28.202 121.173 -35.654 129.453 -43.393 137.229 C-46.455 140.305 -49.521 143.378 -52.586 146.452 C-54.196 148.066 -55.805 149.682 -57.413 151.298 C-59.75 153.648 -62.091 155.995 -64.433 158.341 C-65.142 159.055 -65.85 159.769 -66.581 160.504 C-69.847 163.771 -73.145 166.941 -76.647 169.955 C-81.23 173.909 -85.47 178.173 -89.726 182.474 C-90.562 183.313 -91.397 184.152 -92.258 185.017 C-94.906 187.677 -97.551 190.341 -100.195 193.005 C-103.682 196.519 -107.172 200.029 -110.664 203.537 C-111.45 204.332 -112.237 205.127 -113.048 205.946 C-117.196 210.112 -121.431 214.088 -125.887 217.922 C-128.452 220.168 -130.831 222.547 -133.226 224.974 C-133.706 225.458 -134.187 225.942 -134.681 226.441 C-136.188 227.96 -137.692 229.482 -139.195 231.005 C-141.181 233.019 -143.172 235.029 -145.164 237.037 C-146.034 237.919 -146.905 238.801 -147.802 239.71 C-149.986 241.869 -152.262 243.889 -154.586 245.896 C-158.559 249.342 -162.283 252.981 -165.976 256.724 C-166.634 257.386 -167.292 258.047 -167.97 258.729 C-170.047 260.819 -172.121 262.911 -174.195 265.005 C-176.932 267.769 -179.672 270.529 -182.414 273.287 C-183.025 273.907 -183.637 274.527 -184.267 275.165 C-187.282 278.197 -190.345 281.107 -193.586 283.896 C-198.187 287.873 -202.45 292.153 -206.726 296.474 C-207.562 297.313 -208.397 298.152 -209.258 299.017 C-211.906 301.677 -214.551 304.341 -217.195 307.005 C-220.682 310.519 -224.172 314.029 -227.664 317.537 C-228.45 318.332 -229.237 319.127 -230.048 319.946 C-234.157 324.073 -238.353 328.003 -242.766 331.802 C-246.053 334.705 -249.116 337.823 -252.195 340.943 C-252.875 341.627 -253.555 342.31 -254.256 343.015 C-256.404 345.176 -258.55 347.34 -260.695 349.505 C-263.525 352.362 -266.359 355.216 -269.195 358.068 C-269.829 358.71 -270.462 359.352 -271.115 360.013 C-274.9 363.819 -278.809 367.412 -282.871 370.92 C-286.996 374.506 -290.862 378.362 -294.757 382.193 C-295.617 383.015 -296.476 383.836 -297.361 384.683 C-308.32 395.491 -316.095 408.787 -316.302 424.444 C-316.287 425.496 -316.273 426.547 -316.257 427.63 C-316.249 428.758 -316.24 429.885 -316.231 431.047 C-315.97 442.09 -313.854 452.469 -311.409 463.202 C-309.871 470.316 -308.713 477.506 -307.483 484.679 C-306.315 491.379 -304.934 497.989 -303.369 504.607 C-302.561 508.083 -301.889 511.556 -301.257 515.068 C-300.151 521.122 -298.975 527.16 -297.757 533.193 C-292.107 561.294 -292.107 561.294 -290.191 574.318 C-288.998 581.981 -287.669 589.667 -285.761 597.184 C-284.651 601.588 -283.738 606.02 -282.855 610.474 C-282.688 611.313 -282.52 612.151 -282.347 613.015 C-281.994 614.783 -281.642 616.551 -281.291 618.32 C-280.764 620.971 -280.235 623.621 -279.705 626.271 C-277.869 635.467 -276.09 644.671 -274.376 653.891 C-273.369 659.232 -272.282 664.555 -271.195 669.88 C-269.751 677.01 -268.381 684.131 -267.257 691.318 C-265.829 700.394 -263.844 709.343 -261.893 718.319 C-259.677 728.524 -257.622 738.733 -255.957 749.044 C-255.703 750.615 -255.449 752.185 -255.195 753.755 C-255.133 754.139 -255.133 754.139 -254.819 756.078 C-253.962 761.245 -252.795 766.256 -251.445 771.318 C-250.495 775.354 -249.844 779.412 -249.195 783.505 C-248.241 789.502 -247.066 795.326 -245.511 801.201 C-243.249 810.359 -241.564 819.682 -239.879 828.962 C-239.753 829.651 -239.628 830.34 -239.499 831.05 C-239.439 831.383 -239.439 831.383 -239.132 833.068 C-238.314 837.532 -237.367 841.845 -236.07 846.193 C-234.315 852.222 -234.019 858.263 -233.695 864.505 C-242.343 863.309 -250.431 861.265 -258.73 858.583 C-259.93 858.201 -261.13 857.818 -262.366 857.424 C-265.525 856.414 -268.682 855.395 -271.837 854.374 C-273.756 853.756 -275.677 853.146 -277.599 852.539 C-281.334 851.357 -285.064 850.16 -288.793 848.958 C-289.358 848.78 -289.358 848.78 -292.218 847.878 C-310.725 841.83 -323.913 831.683 -332.827 814.298 C-336.462 806.801 -338.382 799.381 -340.054 791.244 C-340.35 789.846 -340.646 788.448 -340.943 787.05 C-344.417 770.522 -347.443 753.905 -350.471 737.291 C-351.284 732.833 -352.105 728.378 -352.925 723.922 C-354.081 717.637 -355.236 711.352 -356.388 705.066 C-359.025 690.686 -361.698 676.314 -364.382 661.943 C-364.829 659.55 -365.275 657.158 -365.722 654.766 C-368.611 639.283 -371.512 623.803 -374.416 608.322 C-375.142 604.457 -375.866 600.591 -376.591 596.726 C-376.716 596.06 -376.841 595.394 -376.969 594.708 C-377.633 591.168 -378.297 587.628 -378.961 584.088 C-380.42 576.306 -381.879 568.523 -383.34 560.741 C-392.446 512.227 -401.529 463.71 -410.357 415.144 C-410.88 412.271 -411.402 409.398 -411.925 406.525 C-412.736 402.064 -413.546 397.604 -414.354 393.143 C-414.647 391.524 -414.941 389.905 -415.235 388.286 C-415.634 386.085 -416.033 383.882 -416.43 381.68 C-416.652 380.455 -416.873 379.23 -417.102 377.968 C-420.609 357.493 -419.082 338.399 -407.695 320.505 C-404.809 316.725 -401.545 313.326 -398.174 309.978 C-396.633 308.443 -395.121 306.882 -393.613 305.314 C-388.225 299.772 -388.225 299.772 -385.695 297.505 C-385.035 297.505 -384.375 297.505 -383.695 297.505 C-383.695 296.845 -383.695 296.185 -383.695 295.505 C-382.261 294.095 -382.261 294.095 -380.257 292.443 C-377.087 289.754 -374.109 286.97 -371.195 284.005 C-368.527 281.301 -365.84 278.713 -362.945 276.255 C-359.168 273.022 -355.688 269.538 -352.195 266.005 C-348.122 261.886 -344.005 257.928 -339.586 254.177 C-336.55 251.493 -333.755 248.573 -330.91 245.689 C-328.918 243.726 -326.882 241.885 -324.757 240.068 C-320.746 236.631 -317.066 232.913 -313.382 229.13 C-310.607 226.42 -307.722 223.889 -304.792 221.349 C-301.368 218.339 -298.066 215.203 -294.757 212.068 C-293.259 210.652 -291.76 209.237 -290.261 207.822 C-289.504 207.105 -288.746 206.389 -287.965 205.65 C-284.38 202.263 -280.787 198.885 -277.195 195.505 C-275.793 194.185 -274.39 192.865 -272.988 191.544 C-270.014 188.745 -267.037 185.949 -264.058 183.154 C-263.296 182.438 -262.535 181.723 -261.75 180.986 C-260.301 179.626 -258.852 178.266 -257.402 176.908 C-254.315 174.007 -251.277 171.089 -248.332 168.044 C-245.695 165.505 -245.695 165.505 -243.695 165.505 C-243.365 164.515 -243.035 163.525 -242.695 162.505 C-241.129 160.962 -241.129 160.962 -239.132 159.318 C-236.185 156.822 -233.399 154.263 -230.695 151.505 C-228.155 148.926 -225.57 146.483 -222.82 144.13 C-219.628 141.389 -216.652 138.498 -213.695 135.505 C-210.174 131.941 -206.563 128.602 -202.757 125.349 C-199.485 122.424 -196.444 119.274 -193.382 116.13 C-190.62 113.432 -187.749 110.913 -184.832 108.384 C-181.207 105.197 -177.704 101.882 -174.195 98.568 C-173.487 97.903 -172.78 97.239 -172.05 96.554 C-167.79 92.539 -163.614 88.455 -159.506 84.283 C-157.734 82.544 -155.903 80.921 -154.007 79.318 C-150.212 76.061 -146.709 72.559 -143.195 69.005 C-139.122 64.886 -135.005 60.928 -130.586 57.177 C-127.553 54.495 -124.76 51.578 -121.918 48.697 C-119.268 46.084 -116.483 43.672 -113.66 41.251 C-110.881 38.782 -108.306 36.126 -105.699 33.478 C-103.113 30.932 -100.38 28.585 -97.629 26.22 C-95.74 24.545 -93.963 22.806 -92.195 21.005 C-89.162 17.924 -85.995 15.061 -82.707 12.255 C-81.407 11.124 -80.135 9.959 -78.902 8.755 C-56.589 -12.559 -26.8 -8.783 0 0 Z " fill="#0353AA" transform="translate(563.6949768066406,74.49468994140625)"/>
<path d="M0 0 C1.736 3.016 2.252 5.185 2.26 8.653 C2.267 9.588 2.274 10.524 2.281 11.489 C2.279 12.514 2.277 13.539 2.274 14.595 C2.279 15.686 2.285 16.778 2.29 17.902 C2.305 21.572 2.306 25.243 2.306 28.913 C2.314 31.539 2.322 34.166 2.332 36.792 C2.354 43.937 2.362 51.081 2.367 58.226 C2.371 62.689 2.377 67.151 2.384 71.614 C2.404 83.973 2.42 96.332 2.423 108.691 C2.424 109.482 2.424 110.273 2.424 111.088 C2.424 112.691 2.425 114.294 2.425 115.898 C2.425 116.693 2.425 117.489 2.426 118.309 C2.426 118.708 2.426 118.708 2.426 120.724 C2.43 133.631 2.457 146.539 2.494 159.446 C2.532 172.702 2.551 185.959 2.552 199.215 C2.552 206.656 2.561 214.097 2.59 221.538 C2.614 227.876 2.622 234.213 2.607 240.55 C2.599 243.782 2.603 247.013 2.623 250.244 C2.643 253.753 2.633 257.261 2.615 260.77 C2.628 261.784 2.641 262.798 2.655 263.843 C2.575 270.604 1.14 275.573 -3 281 C-5.508 283.307 -8.127 285.173 -11 287 C-11.341 287.224 -11.341 287.224 -13.067 288.359 C-15.237 289.766 -17.427 291.136 -19.625 292.5 C-21.309 293.554 -22.992 294.609 -24.676 295.664 C-25.548 296.21 -26.42 296.755 -27.319 297.317 C-31.83 300.149 -36.321 303.012 -40.812 305.875 C-42.673 307.06 -44.534 308.245 -46.395 309.43 C-47.321 310.02 -48.247 310.61 -49.202 311.218 C-53.8 314.147 -58.4 317.073 -63 320 C-64.833 321.167 -66.667 322.333 -68.5 323.5 C-79.5 330.5 -79.5 330.5 -82.251 332.251 C-84.081 333.415 -85.91 334.579 -87.739 335.743 C-92.383 338.699 -97.029 341.654 -101.676 344.605 C-110.033 349.915 -118.383 355.233 -126.688 360.625 C-140.067 369.306 -153.586 377.758 -167.154 386.14 C-173.036 389.776 -178.901 393.436 -184.75 397.125 C-185.522 397.61 -186.295 398.095 -187.091 398.595 C-191.011 401.067 -194.888 403.586 -198.719 406.195 C-199.481 406.708 -200.243 407.221 -201.028 407.75 C-202.464 408.719 -203.891 409.702 -205.308 410.7 C-209.684 413.641 -212.562 414.535 -218 414 C-219.221 411.557 -219.129 409.986 -219.134 407.254 C-219.139 406.247 -219.143 405.239 -219.148 404.201 C-219.148 403.086 -219.147 401.971 -219.147 400.822 C-219.151 399.643 -219.155 398.465 -219.158 397.251 C-219.167 393.97 -219.172 390.689 -219.175 387.408 C-219.179 383.874 -219.188 380.339 -219.197 376.805 C-219.217 368.264 -219.227 359.723 -219.236 351.183 C-219.24 347.163 -219.245 343.144 -219.251 339.124 C-219.268 325.767 -219.282 312.409 -219.289 299.052 C-219.291 295.585 -219.293 292.117 -219.295 288.65 C-219.296 287.788 -219.296 286.926 -219.297 286.038 C-219.305 272.071 -219.33 258.103 -219.363 244.136 C-219.396 229.804 -219.414 215.472 -219.417 201.14 C-219.419 193.089 -219.428 185.039 -219.453 176.989 C-219.475 170.135 -219.483 163.28 -219.474 156.425 C-219.469 152.927 -219.471 149.429 -219.49 145.931 C-219.508 142.14 -219.501 138.35 -219.488 134.559 C-219.499 133.451 -219.51 132.342 -219.521 131.2 C-219.458 123.76 -219.458 123.76 -217.12 119.879 C-214.823 117.843 -212.642 116.406 -209.922 114.984 C-208.934 114.46 -207.947 113.936 -206.929 113.396 C-205.88 112.853 -204.831 112.31 -203.75 111.75 C-201.561 110.591 -199.372 109.431 -197.184 108.27 C-196.119 107.708 -195.054 107.147 -193.957 106.569 C-190.21 104.581 -186.503 102.529 -182.812 100.438 C-182.189 100.085 -181.566 99.733 -180.924 99.371 C-177.378 97.362 -173.84 95.336 -170.305 93.309 C-160.303 87.574 -150.27 81.903 -140.188 76.312 C-139.603 75.988 -139.018 75.664 -138.416 75.33 C-135.593 73.765 -132.77 72.2 -129.946 70.635 C-117.826 63.91 -105.793 57.031 -93.762 50.147 C-86.314 45.886 -78.851 41.65 -71.375 37.438 C-62.126 32.225 -52.927 26.929 -43.737 21.612 C-35.287 16.728 -26.802 11.908 -18.295 7.123 C-17.851 6.873 -17.851 6.873 -15.605 5.609 C-14.834 5.176 -14.062 4.742 -13.266 4.296 C-11.625 3.357 -10.012 2.368 -8.419 1.349 C-5.444 -0.31 -3.354 -0.234 0 0 Z " fill="#067BF6" transform="translate(882,503)"/>
<path d="M0 0 C5.965 0.213 9.755 1.7 14.848 4.738 C17.784 6.459 20.855 7.708 24 9 C29.041 11.177 34.006 13.448 38.883 15.973 C40.545 16.779 42.238 17.52 43.941 18.234 C49.666 20.665 55.221 23.468 60.812 26.188 C69.73 30.516 78.675 34.75 87.794 38.639 C92.798 40.798 92.798 40.798 95 43 C95.218 46.072 95.311 49.057 95.319 52.131 C95.329 53.078 95.339 54.024 95.349 54.999 C95.38 58.137 95.397 61.276 95.414 64.414 C95.433 66.586 95.452 68.758 95.473 70.93 C95.524 76.654 95.564 82.378 95.601 88.103 C95.641 93.941 95.692 99.779 95.742 105.617 C95.839 117.078 95.923 128.539 96 140 C97.65 139.67 97.65 139.67 106 138 C106 144.27 106 150.54 106 157 C103.546 157.846 101.091 158.691 98.562 159.562 C92.231 161.792 85.931 164.098 79.688 166.562 C78.977 166.831 78.267 167.099 77.535 167.375 C73.053 169.183 70.455 170.821 68 175 C66.713 178.359 65.757 181.781 64.812 185.25 C64.666 185.769 64.666 185.769 63.926 188.395 C62.936 191.926 61.966 195.462 61 199 C60.639 200.317 60.277 201.634 59.916 202.951 C58.183 209.264 56.46 215.579 54.747 221.897 C52.522 230.104 50.251 238.297 47.945 246.482 C45.916 253.7 43.914 260.924 41.922 268.152 C41.645 269.156 41.368 270.16 41.083 271.195 C39.934 275.36 38.785 279.524 37.64 283.69 C32.251 303.295 32.251 303.295 29.605 311.98 C29.273 313.075 28.94 314.169 28.598 315.297 C28.022 317.165 27.434 319.03 26.828 320.889 C24.624 328.022 23.319 335.638 26.75 342.5 C31.296 347.551 35.578 348.972 41.98 350.754 C49.086 352.808 56.122 354.987 63.113 357.402 C63.945 357.69 64.777 357.977 65.635 358.273 C67.331 358.86 69.027 359.448 70.722 360.037 C83.927 364.625 97.127 369.145 110.554 373.047 C111.368 373.284 112.181 373.521 113.02 373.766 C113.701 373.959 114.383 374.153 115.085 374.353 C117 375 117 375 119.046 376.05 C122.754 377.853 126.155 377.533 130.055 376.406 C133.909 374.603 135.64 372.757 137.477 368.891 C139.834 362.036 141.499 355.033 143.245 348.003 C145.622 338.458 148.106 328.94 150.581 319.419 C151.434 316.138 152.284 312.856 153.135 309.574 C155.779 299.389 158.466 289.222 161.311 279.091 C163.148 272.53 164.815 265.931 166.438 259.312 C168.157 252.326 169.887 245.348 171.781 238.406 C172.06 237.376 172.34 236.346 172.627 235.284 C173.149 233.369 173.681 231.456 174.222 229.546 C176.432 221.406 177.38 212.978 174 205 C172.062 201.928 169.818 199.167 167.5 196.375 C166.223 194.788 164.948 193.2 163.676 191.609 C163.049 190.83 162.422 190.051 161.776 189.248 C158.869 185.568 156.151 181.763 153.503 177.895 C151.593 175.126 149.654 172.63 147.352 170.172 C142.205 164.503 140.521 160.594 140.747 153.034 C141.023 148.995 141.457 145.012 142 141 C151.114 143.563 157.088 152.231 162.5 159.438 C163.132 160.264 163.763 161.091 164.414 161.943 C165.95 163.957 167.479 165.975 169 168 C175.443 167.514 175.443 167.514 177.703 165.429 C179.475 162.111 179.44 159.057 179.432 155.386 C179.443 154.624 179.453 153.863 179.463 153.079 C179.493 150.568 179.503 148.058 179.512 145.547 C179.529 143.804 179.547 142.061 179.566 140.318 C179.614 135.734 179.643 131.151 179.67 126.568 C179.699 121.889 179.746 117.21 179.791 112.531 C179.877 103.354 179.944 94.177 180 85 C184.531 83.919 186.526 84.303 190.77 86.324 C191.894 86.852 193.018 87.381 194.176 87.925 C195.388 88.512 196.601 89.1 197.812 89.688 C199.069 90.285 200.326 90.882 201.584 91.478 C210.618 95.776 219.581 100.22 228.506 104.741 C233.166 107.1 237.835 109.413 242.574 111.609 C243.449 112.015 244.325 112.421 245.226 112.839 C246.852 113.587 248.482 114.328 250.115 115.06 C254.772 117.201 258.612 119.224 261 124 C261.096 125.581 261.129 127.167 261.131 128.751 C261.135 129.76 261.139 130.769 261.143 131.808 C261.142 132.925 261.141 134.041 261.14 135.192 C261.142 135.782 261.142 135.782 261.149 138.767 C261.157 142.052 261.159 145.336 261.16 148.621 C261.162 152.16 261.169 155.698 261.176 159.237 C261.19 166.978 261.196 174.72 261.2 182.462 C261.203 187.292 261.207 192.123 261.212 196.954 C261.224 210.32 261.234 223.686 261.238 237.052 C261.238 237.907 261.238 238.763 261.238 239.645 C261.238 240.503 261.239 241.361 261.239 242.245 C261.239 243.983 261.24 245.722 261.24 247.46 C261.24 248.323 261.241 249.185 261.241 250.073 C261.245 264.055 261.262 278.037 261.286 292.019 C261.309 306.362 261.322 320.705 261.323 335.049 C261.324 343.107 261.33 351.164 261.348 359.222 C261.363 366.082 261.368 372.942 261.36 379.802 C261.356 383.304 261.357 386.806 261.371 390.308 C261.386 394.099 261.378 397.89 261.367 401.681 C261.372 402.238 261.372 402.238 261.392 405.058 C261.385 406.069 261.379 407.081 261.372 408.123 C261.373 408.999 261.373 409.874 261.374 410.777 C261 413 261 413 259.678 414.808 C258 416 258 416 254.773 415.949 C250.54 414.884 247.27 413.117 243.625 410.812 C242.12 409.894 240.614 408.979 239.105 408.066 C238.29 407.572 237.474 407.077 236.634 406.567 C231.795 403.689 226.861 400.981 221.938 398.25 C213.529 393.569 205.176 388.806 196.875 383.938 C188.666 379.131 180.446 374.345 172.188 369.625 C171.208 369.059 170.229 368.493 169.22 367.91 C168.316 367.396 167.412 366.881 166.48 366.352 C165.685 365.896 164.89 365.441 164.071 364.971 C162 364 162 364 159 364 C158.804 364.883 158.608 365.766 158.406 366.676 C155.863 376.883 152.065 385.966 142.938 392.062 C134.598 396.898 123.971 397.664 114.699 395.451 C110.107 394.11 105.628 392.49 101.156 390.799 C97.471 389.433 93.733 388.226 90 387 C88.605 386.536 87.211 386.071 85.816 385.605 C85.127 385.376 84.438 385.146 83.728 384.909 C78.447 383.149 73.167 381.389 67.887 379.629 C67.21 379.404 66.534 379.179 65.837 378.947 C64.43 378.477 63.024 378.005 61.618 377.532 C57.248 376.064 52.867 374.635 48.472 373.243 C45.778 372.387 43.087 371.519 40.397 370.649 C39.065 370.221 37.731 369.799 36.396 369.383 C24.769 365.756 14.704 360.866 8.777 349.695 C4.497 340.338 4.225 332.584 7.004 322.738 C7.206 321.985 7.408 321.231 7.616 320.454 C8.473 317.263 9.352 314.077 10.23 310.891 C10.872 308.551 11.501 306.207 12.129 303.863 C12.331 303.149 12.533 302.434 12.741 301.698 C13.778 297.818 14.363 294.841 13 291 C10.926 289.48 10.926 289.48 8.312 288.188 C3.24 285.36 -0.383 282.254 -3 277 C-4.259 271.442 -4.145 265.918 -4.14 260.252 C-4.143 259.168 -4.146 258.084 -4.149 256.968 C-4.158 253.336 -4.16 249.704 -4.161 246.072 C-4.166 243.468 -4.171 240.865 -4.176 238.261 C-4.19 231.189 -4.196 224.117 -4.2 217.045 C-4.203 212.629 -4.207 208.213 -4.212 203.797 C-4.224 191.569 -4.234 179.34 -4.238 167.111 C-4.238 166.329 -4.238 165.547 -4.238 164.742 C-4.238 163.958 -4.239 163.174 -4.239 162.366 C-4.239 160.778 -4.24 159.19 -4.24 157.602 C-4.24 157.208 -4.24 157.208 -4.241 155.215 C-4.245 142.437 -4.262 129.66 -4.286 116.883 C-4.309 103.762 -4.322 90.641 -4.323 77.52 C-4.324 70.154 -4.33 62.788 -4.348 55.422 C-4.365 48.499 -4.366 41.576 -4.358 34.652 C-4.357 32.108 -4.361 29.564 -4.371 27.02 C-4.384 23.553 -4.378 20.088 -4.367 16.621 C-4.376 15.609 -4.384 14.596 -4.392 13.553 C-4.353 8.045 -4.1 4.1 0 0 Z " fill="#FBFBFC" transform="translate(382,501)"/>
<path d="M0 0 C0.33 0 0.66 0 1 0 C1.004 1.311 1.008 2.622 1.012 3.972 C1.034 8.874 1.089 13.775 1.153 18.677 C1.176 20.791 1.19 22.905 1.196 25.02 C1.205 28.074 1.246 31.126 1.293 34.18 C1.289 35.112 1.285 36.045 1.281 37.006 C1.457 45.049 3.968 51.558 9.312 57.625 C12.901 59.461 16.047 59.831 20 59 C24.069 57.05 25.977 55.024 28.188 51.125 C28.676 50.282 29.165 49.439 29.668 48.57 C32.11 43.859 33.256 40.164 33.414 34.824 C33.453 33.667 33.491 32.51 33.531 31.318 C33.562 30.12 33.593 28.922 33.625 27.688 C33.664 26.47 33.702 25.252 33.742 23.998 C33.836 20.999 33.922 18 34 15 C34.33 15 34.66 15 35 15 C35.012 16.111 35.023 17.222 35.035 18.367 C35.809 24.466 39.668 28.49 43.438 33.125 C44.907 34.988 46.374 36.853 47.84 38.719 C48.197 39.17 48.197 39.17 50.007 41.453 C53.026 45.312 55.86 49.288 58.673 53.297 C60.522 55.93 62.399 58.525 64.348 61.086 C65.079 62.048 65.809 63.009 66.562 64 C67.203 64.825 67.844 65.65 68.504 66.5 C72.193 72.664 71.735 80.547 70.281 87.375 C69.428 90.704 68.54 94.016 67.611 97.324 C66.555 101.085 65.537 104.855 64.516 108.625 C64.305 109.399 64.094 110.174 63.877 110.972 C61.325 120.401 59.07 129.901 56.828 139.408 C54.844 147.751 52.646 156.006 50.325 164.26 C48.217 171.766 46.214 179.3 44.198 186.831 C43.501 189.433 42.803 192.034 42.105 194.635 C41.876 195.491 41.647 196.346 41.41 197.228 C40.952 198.939 40.493 200.65 40.033 202.36 C38.878 206.669 37.745 210.981 36.648 215.305 C36.429 216.163 36.21 217.02 35.984 217.904 C35.57 219.522 35.163 221.142 34.762 222.763 C33.244 228.687 31.743 234.513 26.25 237.875 C22.221 240.119 19.664 240.765 15 240 C11.907 238.916 8.882 237.713 5.849 236.471 C2.058 234.975 -1.813 233.837 -5.734 232.738 C-15.402 229.961 -24.88 226.686 -34.375 223.375 C-54.059 216.514 -54.059 216.514 -64 214 C-70.933 212.125 -77.223 209.691 -81.064 203.202 C-84.568 194.957 -81.061 185.387 -78.583 177.297 C-77.425 173.514 -76.32 169.717 -75.203 165.922 C-75.079 165.504 -75.079 165.504 -74.452 163.387 C-70.878 151.28 -67.552 139.103 -64.188 126.938 C-63.548 124.628 -62.908 122.319 -62.267 120.01 C-61.056 115.642 -59.845 111.272 -58.636 106.903 C-57.639 103.304 -56.64 99.705 -55.638 96.107 C-53.469 88.324 -51.326 80.536 -49.211 72.738 C-48.504 70.138 -47.796 67.537 -47.088 64.937 C-46.607 63.168 -46.129 61.399 -45.651 59.629 C-44.947 57.018 -44.236 54.409 -43.523 51.801 C-43.314 51.018 -43.105 50.236 -42.889 49.43 C-41.023 42.636 -39.024 36.158 -34 31 C-31.33 29.546 -31.33 29.546 -28.316 28.395 C-27.77 28.182 -27.77 28.182 -25.006 27.104 C-23.87 26.677 -22.733 26.251 -21.562 25.812 C-20.43 25.375 -19.298 24.937 -18.131 24.486 C-16.023 23.673 -13.912 22.865 -11.799 22.066 C-9.979 21.373 -8.173 20.64 -6.386 19.862 C-4 19 -4 19 0 19 C0 12.73 0 6.46 0 0 Z " fill="#077CF6" transform="translate(488,639)"/>
<path d="M0 0 C0.726 0.308 1.453 0.617 2.201 0.934 C10.736 4.584 19.195 8.41 27.645 12.253 C30.348 13.483 33.052 14.707 35.758 15.932 C46.667 20.876 57.53 25.913 68.352 31.047 C68.352 32.367 68.352 33.687 68.352 35.047 C67.669 35.413 66.986 35.78 66.282 36.157 C63.055 37.89 59.828 39.625 56.602 41.359 C56.307 41.518 56.307 41.518 54.818 42.318 C47.094 46.471 39.395 50.667 31.727 54.922 C25.408 58.421 19.036 61.748 12.552 64.928 C5.921 68.207 -0.542 71.779 -7.023 75.344 C-13.687 79 -20.399 82.551 -27.148 86.047 C-34.575 89.895 -41.947 93.825 -49.273 97.859 C-58.443 102.905 -67.718 107.728 -77.025 112.511 C-85.973 117.113 -94.846 121.832 -103.659 126.686 C-111.255 130.86 -118.926 134.883 -126.625 138.864 C-132.281 141.793 -137.874 144.81 -143.427 147.932 C-145.648 149.047 -145.648 149.047 -147.648 149.047 C-147.648 149.707 -147.648 150.367 -147.648 151.047 C-154.179 151.654 -158.5 149.643 -164.273 146.734 C-164.69 146.532 -164.69 146.532 -166.797 145.51 C-170.084 143.9 -173.292 142.261 -176.43 140.375 C-178.74 138.992 -181.002 138.048 -183.523 137.109 C-186.552 135.935 -189.369 134.727 -192.148 133.047 C-194.744 131.491 -197.325 130.325 -200.148 129.234 C-206.399 126.809 -212.428 123.944 -218.481 121.074 C-220.814 119.968 -223.149 118.869 -225.484 117.77 C-229.514 115.871 -233.536 113.956 -237.556 112.037 C-239.377 111.175 -241.209 110.337 -243.043 109.504 C-243.944 109.085 -244.845 108.666 -245.773 108.234 C-246.519 107.898 -247.264 107.561 -248.031 107.215 C-249.648 106.047 -249.648 106.047 -250.391 103.91 C-250.476 103.295 -250.561 102.68 -250.648 102.047 C-245.771 99.176 -240.852 96.659 -235.695 94.332 C-235.325 94.163 -235.325 94.163 -233.45 93.309 C-231.101 92.239 -228.75 91.174 -226.398 90.109 C-224.837 89.399 -223.276 88.689 -221.715 87.979 C-218.006 86.291 -214.296 84.607 -210.585 82.925 C-207.109 81.349 -203.635 79.769 -200.161 78.188 C-198.418 77.396 -196.674 76.608 -194.929 75.822 C-189.404 73.328 -183.926 70.753 -178.473 68.104 C-164.139 61.143 -149.652 54.546 -135.133 47.982 C-127.254 44.419 -119.388 40.83 -111.523 37.234 C-110.81 36.908 -110.096 36.582 -109.361 36.246 C-98.185 31.137 -87.025 25.996 -75.871 20.843 C-70.216 18.231 -64.561 15.621 -58.906 13.012 C-56.261 11.791 -53.617 10.57 -50.973 9.348 C-47.95 7.951 -44.925 6.56 -41.898 5.172 C-41.091 4.798 -40.284 4.423 -39.452 4.038 C-25.897 -2.156 -14.305 -6.248 0 0 Z " fill="#FBFBFC" transform="translate(644.6484375,374.953125)"/>
<path d="M0 0 C1.444 0.707 2.88 1.43 4.309 2.168 C5.747 2.884 7.186 3.599 8.625 4.312 C9.323 4.663 10.02 5.013 10.739 5.374 C13.692 6.818 16.716 8.08 19.746 9.355 C28.153 13.009 36.444 16.918 44.75 20.795 C46.584 21.65 48.419 22.505 50.254 23.359 C51.333 23.863 52.412 24.366 53.524 24.885 C55.822 25.934 58.121 26.953 60.445 27.942 C63.76 29.361 66.966 30.916 70.184 32.543 C70.709 32.808 70.709 32.808 73.367 34.148 C74.152 34.547 74.937 34.945 75.746 35.355 C75.53 37.669 75.53 37.669 74.746 40.355 C72.798 41.954 72.798 41.954 70.199 43.344 C69.224 43.877 68.249 44.41 67.244 44.959 C66.172 45.523 65.1 46.087 63.996 46.668 C62.291 47.593 60.586 48.518 58.882 49.444 C57.073 50.424 55.261 51.395 53.447 52.366 C47.959 55.308 42.517 58.331 37.069 61.347 C35.236 62.361 33.402 63.372 31.567 64.383 C15.201 73.399 -1.101 82.528 -17.312 91.822 C-27.186 97.476 -37.122 103.02 -47.056 108.569 C-60.613 116.142 -74.164 123.728 -87.691 131.355 C-88.608 131.871 -89.525 132.387 -90.469 132.918 C-95.677 135.859 -100.831 138.875 -105.943 141.979 C-110.304 144.577 -114.778 146.963 -119.254 149.355 C-119.946 149.727 -120.638 150.098 -121.351 150.48 C-123.65 151.713 -125.952 152.941 -128.254 154.168 C-128.996 154.565 -129.739 154.963 -130.504 155.372 C-131.205 155.744 -131.906 156.117 -132.629 156.5 C-132.942 156.667 -132.942 156.667 -134.527 157.511 C-139.12 159.758 -143.499 160.25 -148.419 158.652 C-155.059 155.958 -161.436 152.862 -167.816 149.605 C-177.555 144.686 -187.351 139.934 -197.254 135.355 C-199.817 134.17 -202.38 132.983 -204.941 131.793 C-205.545 131.513 -206.148 131.233 -206.77 130.944 C-213.331 127.88 -219.796 124.629 -226.254 121.355 C-225.746 116.789 -225.746 116.789 -223.594 114.893 C-222.872 114.499 -222.15 114.105 -221.406 113.699 C-220.585 113.241 -219.764 112.782 -218.919 112.31 C-218.469 112.07 -218.469 112.07 -216.191 110.855 C-215.26 110.341 -214.328 109.827 -213.368 109.298 C-210.34 107.632 -207.298 105.993 -204.254 104.355 C-202.196 103.238 -200.139 102.119 -198.082 101 C-193.995 98.78 -189.903 96.569 -185.809 94.363 C-180.76 91.638 -175.751 88.849 -170.76 86.019 C-163.79 82.074 -156.77 78.219 -149.754 74.355 C-134.144 65.757 -134.144 65.757 -127.129 61.793 C-107.759 50.85 -88.258 40.137 -68.774 29.399 C-63.807 26.661 -58.842 23.92 -53.878 21.176 C-50.815 19.484 -47.751 17.794 -44.683 16.11 C-39.039 13.009 -33.412 9.885 -27.824 6.684 C-26.826 6.119 -25.829 5.555 -24.801 4.974 C-22.96 3.932 -21.127 2.878 -19.303 1.808 C-12.458 -2.036 -7.492 -3.216 0 0 Z " fill="#FBFBFC" transform="translate(801.25390625,445.64453125)"/>
<path d="M0 0 C3.134 0.073 4.786 0.499 7.812 1.688 C11.107 5.147 10.921 7.349 10.816 11.973 C10.312 14.312 10.312 14.312 8.838 15.606 C6.722 17.973 6.719 19.812 6.398 22.949 C6.278 24.075 6.157 25.201 6.033 26.36 C5.919 27.561 5.805 28.763 5.688 30 C5.562 31.236 5.436 32.472 5.307 33.745 C4.957 37.266 4.629 40.788 4.312 44.312 C4.243 45.084 4.173 45.855 4.102 46.649 C3.333 55.637 3.16 64.662 2.878 73.676 C2.813 75.734 2.747 77.792 2.68 79.85 C2.659 80.516 2.637 81.182 2.615 81.868 C2.552 83.826 2.488 85.783 2.424 87.74 C2.356 89.931 2.292 92.123 2.236 94.314 C2.174 96.711 2.091 99.105 2 101.5 C1.963 102.752 1.925 104.003 1.887 105.293 C1.201 108.896 0.213 110.126 -2.688 112.312 C-5.625 112.938 -5.625 112.938 -8.688 112.312 C-12.185 109.065 -13.958 106.884 -14.287 102.072 C-14.299 100.431 -14.284 98.789 -14.246 97.148 C-14.245 96.255 -14.243 95.362 -14.242 94.442 C-14.229 91.523 -14.178 88.606 -14.125 85.688 C-14.104 83.66 -14.084 81.633 -14.066 79.606 C-13.149 1.114 -13.149 1.114 0 0 Z " fill="#F3F5F8" transform="translate(511.6875,573.6875)"/>
<path d="M0 0 C2.543 1.13 4.203 2.191 6.25 4.125 C9.837 6.571 12.836 6.568 17 6 C20.5 5 20.5 5 23 4 C26.221 8.026 26.514 11.527 26.352 16.5 C25.627 21.652 23.233 24.885 19.375 28.375 C14.404 31.776 10.324 31.367 4.438 30.438 C0.036 28.597 -2.474 26.018 -5 22 C-6.513 17.488 -6.555 12.694 -6 8 C-4.265 4.761 -2.577 2.577 0 0 Z " fill="#F4F8FC" transform="translate(491,692)"/>
<path d="M0 0 C0.33 0 0.66 0 1 0 C1.33 5.28 1.66 10.56 2 16 C3.32 14.68 4.64 13.36 6 12 C6.33 12.66 6.66 13.32 7 14 C7.66 12.02 8.32 10.04 9 8 C9.33 8 9.66 8 10 8 C10 11.96 10 15.92 10 20 C9.34 20 8.68 20 8 20 C8.01 20.761 8.021 21.523 8.032 22.307 C8.073 25.767 8.099 29.227 8.125 32.688 C8.133 33.287 8.133 33.287 8.176 36.318 C8.182 37.475 8.189 38.632 8.195 39.824 C8.206 40.887 8.216 41.95 8.227 43.046 C7.994 46.081 7.282 48.256 6 51 C5.01 51 4.02 51 3 51 C3 49.02 3 47.04 3 45 C2.67 45 2.34 45 2 45 C1.67 43.02 1.34 41.04 1 39 C0.67 41.31 0.34 43.62 0 46 C-0.33 46 -0.66 46 -1 46 C-1.068 35.507 -0.87 25.048 -0.5 14.562 C-0.452 13.137 -0.403 11.712 -0.355 10.287 C-0.24 6.858 -0.121 3.429 0 0 Z " fill="#1A4F91" transform="translate(514,634)"/>
<path d="M0 0 C0.33 0 0.66 0 1 0 C1.33 29.7 1.66 59.4 2 90 C2.33 90 2.66 90 3 90 C3 91.98 3 93.96 3 96 C2.505 96.165 2.505 96.165 0 97 C0 64.99 0 32.98 0 0 Z " fill="#013179" transform="translate(478,545)"/>
<path d="M0 0 C0 0.33 0 0.66 0 1 C-5.656 1.808 -11.165 2.052 -16.875 2 C-33.408 1.88 -33.408 1.88 -38.551 4.102 C-41.249 5.091 -42.354 4.98 -45 4 C-42.648 3.18 -40.294 2.369 -37.938 1.562 C-37.609 1.447 -37.609 1.447 -35.947 0.865 C-23.905 -3.228 -12.31 -2.406 0 0 Z " fill="#5084C0" transform="translate(545,69)"/>
<path d="M0 0 C0.66 0.33 1.32 0.66 2 1 C1.215 1.773 0.43 2.547 -0.379 3.344 C-9.942 12.813 -9.942 12.813 -13.875 17.5 C-16.604 20.706 -19.485 22.657 -23 25 C-31.803 33.204 -31.803 33.204 -35 38 C-35.99 38 -36.98 38 -38 38 C-38 37.34 -38 36.68 -38 36 C-36.566 34.59 -36.566 34.59 -34.562 32.938 C-31.392 30.248 -28.414 27.465 -25.5 24.5 C-22.832 21.796 -20.145 19.207 -17.25 16.75 C-11.158 11.537 -5.627 5.704 0 0 Z " fill="#4F83C3" transform="translate(218,334)"/>
<path d="M0 0 C0.66 0.33 1.32 0.66 2 1 C1.68 1.315 1.68 1.315 0.059 2.906 C-4.014 6.936 -8.036 10.947 -11.75 15.312 C-14.612 18.633 -17.407 21.469 -21 24 C-21.99 23.67 -22.98 23.34 -24 23 C-20.493 19.395 -16.944 15.9 -13.125 12.625 C-8.512 8.654 -4.258 4.346 0 0 Z " fill="#4E85C2" transform="translate(444,121)"/>
</svg>
