<?xml version="1.0" encoding="UTF-8"?>
<!-- Generator: visioncortex VTracer 0.6.12 -->
<svg version="1.1" xmlns="http://www.w3.org/2000/svg" width="1254" height="1254">
<path d="M0 0 C0.764 -0.022 1.529 -0.045 2.317 -0.068 C20.437 0.003 38.668 7.824 55.769 13.25 C59.461 14.42 63.154 15.583 66.848 16.746 C76.006 19.633 85.16 22.534 94.312 25.438 C95.032 25.666 95.752 25.894 96.494 26.13 C108.717 30.006 120.938 33.887 133.157 37.774 C149.704 43.037 166.265 48.249 182.851 53.388 C198.856 58.347 214.837 63.383 230.812 68.438 C247.656 73.765 264.504 79.074 281.375 84.312 C283.131 84.858 284.887 85.403 286.643 85.949 C289.399 86.805 292.154 87.661 294.91 88.517 C307.19 92.331 319.469 96.146 331.745 99.973 C335.323 101.089 338.902 102.203 342.481 103.315 C345.861 104.364 349.241 105.417 352.619 106.472 C354.451 107.043 356.284 107.611 358.117 108.179 C379.453 114.849 398.586 121.993 410.312 142.438 C415.429 152.339 417.743 163.159 420.353 173.918 C421.138 177.116 421.956 180.304 422.781 183.491 C425.267 193.212 427.535 202.74 428.605 212.727 C430.575 229.488 430.575 229.488 435.312 236.438 C443.382 242.513 453.377 244.444 463.084 246.541 C473.327 248.771 483.196 252.089 493.144 255.361 C496.184 256.353 499.231 257.321 502.281 258.28 C526.099 265.768 546.667 273.148 559.317 296.444 C563.979 305.779 566.755 315.285 569.062 325.426 C569.4 326.872 569.738 328.318 570.077 329.764 C570.795 332.831 571.506 335.899 572.212 338.968 C573.327 343.819 574.457 348.667 575.589 353.514 C577.118 360.068 578.642 366.623 580.162 373.179 C582.853 384.783 585.588 396.375 588.333 407.966 C589.131 411.338 589.928 414.71 590.724 418.083 C594.304 433.23 597.935 448.365 601.582 463.496 C607.363 487.501 612.993 511.543 618.638 535.581 C623.58 556.629 628.544 577.672 633.625 598.688 C638.718 619.757 643.597 640.874 648.45 662 C649.234 665.409 650.017 668.818 650.801 672.227 C650.953 672.887 651.105 673.548 651.261 674.229 C653.221 682.751 655.205 691.267 657.23 699.773 C657.446 700.68 657.662 701.586 657.884 702.52 C658.846 706.554 659.814 710.587 660.788 714.618 C660.956 715.319 661.124 716.019 661.297 716.741 C661.733 718.556 662.172 720.371 662.611 722.186 C666.967 742.375 665.4 763.651 654.312 781.438 C649.218 788.571 643.306 794.696 637.074 800.836 C636.102 801.802 635.13 802.768 634.159 803.735 C631.628 806.254 629.091 808.766 626.552 811.277 C622.471 815.315 618.397 819.36 614.326 823.407 C612.909 824.814 611.488 826.217 610.068 827.62 C609.21 828.472 608.352 829.323 607.468 830.201 C606.711 830.949 605.955 831.696 605.176 832.467 C603.313 834.437 603.313 834.437 601.312 837.438 C600.653 837.438 599.992 837.438 599.312 837.438 C599.075 838.001 598.837 838.564 598.592 839.144 C597.025 841.954 595.128 843.865 592.847 846.137 C592.391 846.594 591.934 847.051 591.464 847.522 C589.937 849.051 588.402 850.572 586.868 852.094 C585.77 853.189 584.673 854.285 583.576 855.381 C581.214 857.74 578.849 860.096 576.481 862.45 C572.736 866.172 568.999 869.902 565.262 873.632 C559.349 879.534 553.431 885.431 547.512 891.326 C536.915 901.878 526.325 912.435 515.739 922.998 C512.025 926.704 508.308 930.407 504.588 934.108 C502.272 936.413 499.959 938.72 497.645 941.028 C496.574 942.096 495.502 943.163 494.428 944.229 C492.961 945.688 491.496 947.149 490.032 948.611 C489.212 949.427 488.393 950.243 487.548 951.084 C485.312 953.438 485.312 953.438 483.143 956.239 C482.841 956.602 482.841 956.602 481.312 958.438 C480.653 958.438 479.992 958.438 479.312 958.438 C479.186 958.727 479.186 958.727 478.543 960.193 C477.173 962.692 475.645 964.348 473.626 966.357 C473.243 966.741 473.243 966.741 471.303 968.685 C470.461 969.518 469.619 970.351 468.751 971.21 C467.865 972.095 466.978 972.98 466.065 973.892 C464.138 975.815 462.209 977.736 460.277 979.654 C457.216 982.693 454.162 985.738 451.109 988.785 C446.273 993.61 441.432 998.43 436.589 1003.248 C427.934 1011.859 419.285 1020.475 410.641 1029.096 C407.611 1032.118 404.579 1035.136 401.544 1038.152 C400.106 1039.582 398.67 1041.013 397.233 1042.444 C395.491 1044.181 393.746 1045.916 392 1047.648 C387.808 1051.832 383.8 1056.097 379.937 1060.585 C377.41 1063.466 374.716 1066.166 371.998 1068.866 C371.41 1069.454 370.822 1070.042 370.216 1070.648 C368.3 1072.563 366.38 1074.475 364.461 1076.387 C363.115 1077.731 361.769 1079.075 360.424 1080.419 C356.9 1083.939 353.373 1087.456 349.846 1090.973 C346.26 1094.548 342.677 1098.127 339.094 1101.705 C333.307 1107.483 327.519 1113.259 321.728 1119.033 C320.725 1120.033 319.723 1121.033 318.721 1122.033 C317.331 1123.419 315.937 1124.8 314.543 1126.181 C312.488 1128.26 310.701 1130.41 308.875 1132.688 C298.95 1143.904 284.47 1150.72 269.605 1151.676 C268.237 1151.706 266.869 1151.731 265.5 1151.75 C265.179 1151.765 265.179 1151.765 263.557 1151.838 C247.763 1152.031 231.481 1145.121 216.688 1140.312 C214.585 1139.634 212.481 1138.957 210.378 1138.28 C206.228 1136.942 202.079 1135.602 197.931 1134.257 C193.245 1132.739 188.557 1131.228 183.867 1129.723 C173.075 1126.256 162.292 1122.759 151.516 1119.242 C148.857 1118.375 146.197 1117.507 143.538 1116.639 C141.722 1116.047 139.905 1115.454 138.089 1114.861 C123.475 1110.094 108.837 1105.407 94.188 1100.75 C81.095 1096.587 68.021 1092.383 55 1088 C38.492 1082.445 21.9 1077.158 5.307 1071.865 C4.218 1071.518 3.129 1071.17 2.008 1070.812 C0.903 1070.46 -0.202 1070.108 -1.34 1069.745 C-14.631 1065.502 -27.909 1061.219 -41.188 1056.938 C-56.725 1051.928 -72.264 1046.927 -87.817 1041.966 C-96.067 1039.334 -104.314 1036.693 -112.559 1034.044 C-117.655 1032.407 -122.755 1030.781 -127.859 1029.17 C-130.656 1028.283 -133.449 1027.384 -136.241 1026.48 C-138.025 1025.907 -139.814 1025.35 -141.603 1024.793 C-159.854 1018.834 -174.927 1005.468 -183.688 988.438 C-186.932 980.203 -188.867 971.727 -190.598 963.07 C-190.724 962.452 -190.724 962.452 -191.366 959.321 C-192.033 956.063 -192.693 952.803 -193.35 949.543 C-194.274 944.969 -195.211 940.397 -196.145 935.825 C-196.638 933.403 -197.13 930.981 -197.621 928.559 C-199.252 920.505 -200.951 912.469 -202.688 904.438 C-203.366 904.225 -204.045 904.013 -204.744 903.795 C-211.215 901.77 -217.685 899.741 -224.154 897.708 C-227.478 896.663 -230.802 895.62 -234.127 894.581 C-290.646 876.912 -290.646 876.912 -304.375 851.75 C-310.987 837.524 -312.863 820.935 -315.762 805.656 C-316.245 803.128 -316.729 800.6 -317.213 798.072 C-321.959 773.222 -326.549 748.342 -331.118 723.458 C-333.509 710.443 -335.909 697.43 -338.312 684.418 C-338.549 683.14 -338.785 681.861 -339.028 680.544 C-342.93 659.429 -346.921 638.332 -351 617.25 C-362.326 558.676 -372.991 499.977 -383.618 441.273 C-384.185 438.141 -384.752 435.009 -385.319 431.877 C-386.206 426.978 -387.092 422.079 -387.976 417.179 C-388.3 415.382 -388.625 413.584 -388.951 411.786 C-389.396 409.325 -389.84 406.863 -390.283 404.401 C-390.412 403.692 -390.541 402.982 -390.673 402.251 C-394.498 380.947 -393.814 359.422 -381.125 341 C-379.99 339.471 -378.846 337.949 -377.688 336.438 C-377.048 335.551 -376.409 334.664 -375.75 333.75 C-373.424 331.142 -370.884 328.987 -368.227 326.723 C-364.313 323.201 -360.645 319.438 -356.963 315.676 C-353.988 312.657 -350.963 309.767 -347.75 307 C-343.517 303.346 -339.601 299.428 -335.688 295.438 C-331.136 290.798 -326.515 286.361 -321.589 282.121 C-318.122 279.052 -314.944 275.698 -311.738 272.361 C-310.424 271.018 -309.059 269.723 -307.688 268.438 C-307.028 268.438 -306.368 268.438 -305.688 268.438 C-305.688 267.777 -305.688 267.118 -305.688 266.438 C-304.219 264.972 -304.219 264.972 -302.188 263.277 C-297.904 259.634 -293.782 255.853 -289.688 252 C-288.987 251.343 -288.286 250.685 -287.564 250.008 C-283.431 246.117 -279.377 242.166 -275.398 238.117 C-273.598 236.35 -271.727 234.705 -269.812 233.062 C-266.621 230.321 -263.644 227.431 -260.688 224.438 C-257.873 221.589 -255.06 218.832 -252 216.25 C-247.167 212.125 -242.763 207.564 -238.318 203.031 C-235.272 199.943 -232.196 196.971 -228.898 194.152 C-223.06 189.121 -217.754 183.533 -212.371 178.025 C-210.984 176.608 -209.59 175.196 -208.195 173.785 C-207.786 173.368 -207.786 173.368 -205.715 171.254 C-203.688 169.438 -203.688 169.438 -201.688 169.438 C-201.028 168.118 -200.368 166.798 -199.688 165.438 C-199.028 165.438 -198.368 165.438 -197.688 165.438 C-197.357 164.447 -197.028 163.458 -196.688 162.438 C-195.262 161.035 -195.262 161.035 -193.375 159.5 C-189.729 156.407 -186.303 153.143 -182.938 149.75 C-182.431 149.24 -181.924 148.73 -181.402 148.205 C-179.829 146.618 -178.258 145.028 -176.688 143.438 C-165.116 131.716 -165.116 131.716 -160.781 128.031 C-154.559 122.722 -148.934 116.749 -143.188 110.938 C-129.964 97.563 -129.964 97.563 -123.775 92.303 C-118.69 87.759 -113.979 82.788 -109.188 77.938 C-96.875 65.472 -96.875 65.472 -90.605 60.128 C-86.726 56.709 -83.135 52.987 -79.5 49.312 C-78.719 48.527 -77.939 47.742 -77.135 46.934 C-74.065 43.846 -71 40.754 -67.941 37.656 C-65.628 35.379 -63.243 33.214 -60.812 31.062 C-57.895 28.466 -55.098 25.857 -52.438 23 C-38.376 8.807 -19.936 0.348 0 0 Z " fill="#02B3FD" transform="translate(506.6875,47.5625)"/>
<path d="M0 0 C0.913 -0.004 1.825 -0.008 2.765 -0.012 C3.764 -0.011 4.763 -0.01 5.792 -0.009 C6.857 -0.012 7.921 -0.015 9.017 -0.018 C12.595 -0.027 16.173 -0.028 19.751 -0.03 C22.312 -0.034 24.872 -0.039 27.433 -0.045 C34.401 -0.058 41.368 -0.064 48.335 -0.069 C52.689 -0.072 57.043 -0.076 61.397 -0.08 C73.461 -0.092 85.525 -0.103 97.589 -0.106 C98.361 -0.106 99.133 -0.107 99.929 -0.107 C100.316 -0.107 100.316 -0.107 102.274 -0.107 C103.842 -0.108 105.41 -0.108 106.978 -0.109 C107.756 -0.109 108.534 -0.109 109.336 -0.109 C121.923 -0.113 134.511 -0.131 147.099 -0.154 C160.034 -0.178 172.97 -0.19 185.905 -0.192 C193.163 -0.192 200.421 -0.198 207.679 -0.216 C214.512 -0.233 221.345 -0.235 228.178 -0.226 C230.68 -0.225 233.182 -0.23 235.684 -0.24 C271.236 -0.372 271.236 -0.372 285.765 12.12 C287.001 13.363 288.212 14.634 289.378 15.944 C291.156 17.819 292.947 19.437 294.911 21.108 C300.231 25.742 305.202 30.717 310.195 35.697 C311.252 36.748 312.309 37.798 313.367 38.849 C316.809 42.27 320.246 45.697 323.683 49.124 C324.873 50.309 326.062 51.495 327.252 52.681 C332.839 58.249 338.424 63.819 344.006 69.392 C350.428 75.805 356.858 82.209 363.296 88.606 C368.288 93.568 373.273 98.538 378.252 103.514 C381.219 106.478 384.189 109.44 387.167 112.393 C389.968 115.17 392.758 117.956 395.542 120.75 C396.56 121.769 397.582 122.785 398.607 123.796 C409.706 134.754 414.496 143.544 414.693 159.161 C414.707 162.425 414.694 165.688 414.679 168.952 C414.679 170.756 414.679 172.561 414.68 174.365 C414.681 179.242 414.669 184.12 414.655 188.997 C414.643 194.102 414.641 199.207 414.639 204.312 C414.633 213.969 414.617 223.627 414.596 233.285 C414.574 244.283 414.563 255.282 414.553 266.281 C414.532 288.898 414.497 311.515 414.452 334.131 C415.371 334.428 416.29 334.724 417.237 335.03 C431.794 340.018 444.118 349.839 455.277 360.143 C457.022 361.738 458.785 363.231 460.64 364.694 C472.456 374.935 481.635 389.217 488.452 403.131 C488.746 403.714 489.04 404.296 489.342 404.896 C507.664 441.295 508.463 481.651 496.452 520.131 C494.233 526.29 491.587 532.227 488.64 538.069 C488.467 538.412 488.467 538.412 487.593 540.146 C475.718 563.347 457.432 583.183 435.452 597.131 C434.801 597.548 434.15 597.965 433.479 598.394 C409.892 613.327 383.497 620.357 355.64 620.381 C355.246 620.382 355.246 620.382 353.256 620.384 C341.718 620.374 330.695 619.939 319.452 617.131 C318.214 616.83 316.975 616.528 315.698 616.217 C285.109 608.1 252.841 588.078 235.577 561.069 C233.341 557.854 232.278 556.388 228.507 555.217 C225.765 554.972 223.195 554.915 220.452 555.131 C220.246 556.41 220.04 557.689 219.827 559.006 C217.885 567.646 212.605 575.866 205.452 581.131 C191.074 589.248 191.074 589.248 183.856 589.268 C182.907 589.274 181.958 589.279 180.98 589.284 C180.458 589.284 180.458 589.284 177.815 589.285 C176.707 589.29 175.599 589.294 174.457 589.299 C170.724 589.312 166.991 589.318 163.258 589.324 C160.589 589.332 157.92 589.34 155.251 589.349 C147.225 589.374 139.199 589.388 131.174 589.401 C128.906 589.405 126.638 589.409 124.37 589.413 C110.278 589.438 96.187 589.46 82.095 589.473 C78.831 589.476 75.566 589.479 72.302 589.482 C71.896 589.482 71.896 589.482 69.843 589.484 C56.716 589.496 43.588 589.53 30.46 589.571 C16.973 589.614 3.486 589.637 -10 589.643 C-17.569 589.646 -25.138 589.658 -32.706 589.691 C-39.156 589.719 -45.605 589.73 -52.055 589.718 C-55.342 589.713 -58.628 589.719 -61.915 589.741 C-92.966 589.939 -92.966 589.939 -105.548 578.131 C-116.214 567.564 -119.72 557.542 -119.812 542.573 C-119.815 540.268 -119.808 537.963 -119.802 535.658 C-119.804 533.978 -119.807 532.298 -119.811 530.618 C-119.819 526.015 -119.815 521.413 -119.809 516.81 C-119.805 511.84 -119.812 506.871 -119.817 501.902 C-119.826 492.172 -119.824 482.443 -119.818 472.713 C-119.814 464.805 -119.813 456.898 -119.815 448.99 C-119.816 447.864 -119.816 446.738 -119.816 445.579 C-119.817 443.292 -119.817 441.005 -119.818 438.718 C-119.824 417.276 -119.817 395.834 -119.807 374.392 C-119.798 355.996 -119.799 337.601 -119.808 319.205 C-119.819 297.84 -119.823 276.474 -119.817 255.109 C-119.817 252.83 -119.816 250.552 -119.815 248.273 C-119.815 247.152 -119.815 246.031 -119.814 244.876 C-119.813 236.978 -119.816 229.08 -119.82 221.183 C-119.826 211.557 -119.824 201.932 -119.814 192.306 C-119.808 187.396 -119.806 182.485 -119.813 177.575 C-119.819 173.078 -119.816 168.582 -119.805 164.085 C-119.803 162.46 -119.804 160.835 -119.809 159.21 C-119.851 144.029 -118.195 130.635 -107.173 119.194 C-96.798 109.584 -86.168 105.938 -72.087 106.034 C-71.691 106.034 -71.691 106.034 -69.691 106.038 C-67.185 106.044 -64.679 106.056 -62.173 106.069 C-60.466 106.074 -58.759 106.079 -57.052 106.083 C-52.884 106.094 -48.716 106.111 -44.548 106.131 C-44.551 105.752 -44.551 105.752 -44.568 103.834 C-44.628 96.627 -44.674 89.421 -44.703 82.214 C-44.719 78.511 -44.74 74.807 -44.774 71.104 C-44.807 67.518 -44.825 63.933 -44.832 60.347 C-44.84 58.339 -44.864 56.331 -44.888 54.323 C-44.891 37.26 -41.455 24.73 -29.723 12.288 C-22.367 4.998 -10.467 0.017 0 0 Z " fill="#033474" transform="translate(449.5476293563843,329.8685722351074)"/>
<path d="M0 0 C3.937 0.186 6.982 0.903 10.725 2.107 C11.372 2.312 12.018 2.517 12.685 2.728 C14.808 3.404 16.927 4.094 19.046 4.784 C20.542 5.264 22.038 5.743 23.535 6.221 C26.672 7.225 29.807 8.236 32.94 9.253 C36.905 10.539 40.873 11.814 44.843 13.085 C48.683 14.314 52.521 15.549 56.358 16.784 C57.066 17.012 57.775 17.24 58.504 17.474 C63.3 19.018 68.087 20.587 72.866 22.183 C73.608 22.43 74.35 22.677 75.114 22.932 C77.389 23.695 79.66 24.471 81.929 25.251 C82.613 25.48 83.298 25.709 84.003 25.945 C100.445 31.67 113.125 43.683 120.866 59.183 C124.961 67.942 127.476 76.769 129.616 86.171 C129.954 87.617 130.292 89.064 130.631 90.51 C131.349 93.576 132.06 96.644 132.765 99.714 C133.881 104.565 135.01 109.412 136.142 114.259 C137.672 120.813 139.195 127.368 140.715 133.924 C143.406 145.528 146.142 157.121 148.886 168.711 C149.685 172.083 150.482 175.456 151.278 178.828 C154.858 193.975 158.489 209.11 162.136 224.241 C167.917 248.247 173.547 272.288 179.191 296.326 C184.134 317.374 189.097 338.417 194.179 359.433 C199.272 380.502 204.151 401.62 209.004 422.745 C209.787 426.154 210.571 429.563 211.354 432.972 C211.506 433.633 211.658 434.293 211.815 434.974 C213.775 443.496 215.759 452.012 217.784 460.519 C218 461.425 218.216 462.331 218.438 463.265 C219.4 467.299 220.367 471.332 221.342 475.363 C221.51 476.064 221.678 476.764 221.851 477.486 C222.286 479.302 222.725 481.117 223.165 482.931 C227.521 503.12 225.953 524.397 214.866 542.183 C209.772 549.316 203.859 555.441 197.628 561.581 C196.656 562.547 195.684 563.514 194.713 564.481 C192.181 566.999 189.644 569.512 187.105 572.023 C183.024 576.06 178.95 580.105 174.879 584.153 C173.463 585.559 172.042 586.962 170.622 588.365 C169.764 589.217 168.905 590.069 168.021 590.946 C167.265 591.694 166.509 592.442 165.73 593.212 C163.866 595.183 163.866 595.183 161.866 598.183 C161.206 598.183 160.546 598.183 159.866 598.183 C159.628 598.746 159.39 599.309 159.145 599.889 C157.578 602.699 155.681 604.61 153.401 606.882 C152.944 607.339 152.488 607.797 152.018 608.268 C150.491 609.796 148.956 611.317 147.421 612.839 C146.324 613.934 145.226 615.03 144.13 616.127 C141.768 618.486 139.403 620.841 137.035 623.195 C133.29 626.917 129.552 630.647 125.816 634.378 C119.903 640.279 113.985 646.176 108.065 652.071 C97.469 662.623 86.878 673.181 76.293 683.743 C72.578 687.449 68.861 691.153 65.142 694.853 C62.826 697.159 60.512 699.466 58.199 701.773 C57.128 702.841 56.055 703.908 54.982 704.975 C53.514 706.433 52.05 707.894 50.586 709.356 C49.766 710.173 48.946 710.989 48.102 711.83 C45.866 714.183 45.866 714.183 43.696 716.984 C43.394 717.347 43.394 717.347 41.866 719.183 C41.206 719.183 40.546 719.183 39.866 719.183 C39.739 719.472 39.739 719.472 39.097 720.938 C37.727 723.437 36.199 725.093 34.18 727.103 C33.797 727.487 33.797 727.487 31.857 729.43 C31.015 730.263 30.172 731.097 29.305 731.955 C28.419 732.84 27.532 733.725 26.619 734.637 C24.692 736.56 22.763 738.481 20.831 740.399 C17.77 743.438 14.716 746.484 11.663 749.53 C6.827 754.355 1.986 759.176 -2.857 763.994 C-11.512 772.604 -20.161 781.22 -28.806 789.842 C-31.835 792.863 -34.867 795.881 -37.902 798.897 C-39.34 800.327 -40.777 801.758 -42.213 803.189 C-43.956 804.926 -45.7 806.661 -47.447 808.393 C-51.638 812.577 -55.647 816.842 -59.509 821.331 C-62.036 824.212 -64.731 826.911 -67.449 829.611 C-68.037 830.199 -68.625 830.787 -69.23 831.393 C-71.146 833.309 -73.066 835.22 -74.985 837.132 C-76.331 838.476 -77.677 839.82 -79.022 841.165 C-82.546 844.685 -86.073 848.202 -89.6 851.718 C-93.186 855.294 -96.769 858.872 -100.353 862.45 C-106.139 868.228 -111.928 874.004 -117.718 879.778 C-118.721 880.778 -119.723 881.778 -120.725 882.778 C-122.115 884.164 -123.509 885.545 -124.903 886.926 C-126.958 889.005 -128.745 891.155 -130.571 893.433 C-140.496 904.65 -154.977 911.466 -169.841 912.421 C-171.209 912.451 -172.578 912.476 -173.946 912.495 C-174.588 912.524 -175.229 912.553 -175.89 912.583 C-191.683 912.776 -207.965 905.867 -222.759 901.058 C-224.862 900.38 -226.965 899.702 -229.068 899.025 C-233.219 897.688 -237.368 896.347 -241.516 895.003 C-246.201 893.484 -250.889 891.973 -255.579 890.468 C-266.372 887.001 -277.154 883.505 -287.931 879.987 C-290.59 879.12 -293.249 878.252 -295.908 877.385 C-297.724 876.792 -299.541 876.199 -301.357 875.606 C-315.971 870.839 -330.61 866.152 -345.259 861.495 C-358.352 857.333 -371.426 853.128 -384.446 848.745 C-400.955 843.191 -417.546 837.904 -434.14 832.61 C-435.228 832.263 -436.317 831.916 -437.439 831.558 C-438.543 831.205 -439.648 830.853 -440.786 830.49 C-454.077 826.247 -467.355 821.964 -480.634 817.683 C-496.171 812.673 -511.71 807.672 -527.263 802.711 C-535.513 800.079 -543.76 797.438 -552.005 794.789 C-557.102 793.152 -562.201 791.527 -567.306 789.915 C-570.103 789.028 -572.895 788.129 -575.687 787.226 C-577.471 786.653 -579.26 786.095 -581.049 785.538 C-599.302 779.579 -614.371 766.213 -623.134 749.183 C-626.423 740.85 -628.359 732.259 -630.114 723.499 C-630.373 722.241 -630.631 720.982 -630.897 719.685 C-631.576 716.379 -632.245 713.072 -632.913 709.764 C-633.595 706.392 -634.286 703.023 -634.976 699.653 C-636.371 692.832 -637.758 686.008 -639.134 679.183 C-639.227 678.737 -639.227 678.737 -639.7 676.48 C-640.41 672.723 -640.191 668.99 -640.134 665.183 C-633.341 666.579 -626.844 668.457 -620.259 670.62 C-613.714 672.76 -607.171 674.769 -600.509 676.517 C-597.761 677.287 -595.128 678.293 -592.47 679.327 C-588.89 680.638 -585.245 681.73 -581.603 682.852 C-573.194 685.454 -564.824 688.177 -556.451 690.892 C-548.638 693.426 -540.814 695.917 -532.959 698.318 C-529.491 699.38 -526.031 700.468 -522.571 701.558 C-518.299 702.902 -514.022 704.223 -509.724 705.484 C-499.847 708.383 -490.074 711.514 -480.321 714.808 C-466.556 719.453 -452.698 723.762 -438.797 727.984 C-430.285 730.573 -421.813 733.241 -413.385 736.094 C-406.653 738.349 -399.858 740.402 -393.036 742.366 C-385.064 744.666 -377.24 747.153 -369.442 750.003 C-365.243 751.5 -361 752.803 -356.731 754.089 C-352.437 755.395 -348.161 756.758 -343.884 758.12 C-336.924 760.333 -329.943 762.453 -322.916 764.446 C-319.639 765.389 -316.442 766.418 -313.259 767.644 C-308.687 769.396 -304.02 770.754 -299.321 772.12 C-293.044 773.97 -286.879 775.941 -280.755 778.253 C-276.472 779.772 -272.105 780.968 -267.724 782.167 C-265.386 782.828 -263.064 783.545 -260.763 784.323 C-245.323 789.393 -230.81 788.562 -216.271 781.464 C-207.526 776.71 -201.113 769.854 -194.259 762.745 C-192.982 761.446 -191.703 760.149 -190.423 758.853 C-185.036 753.376 -179.749 747.857 -174.758 742.015 C-170.682 737.418 -166.185 733.199 -161.806 728.894 C-158.313 725.437 -154.896 721.977 -151.696 718.245 C-146.646 712.369 -141.033 707.038 -135.517 701.605 C-131.121 697.249 -126.9 692.841 -122.872 688.144 C-118.958 683.728 -114.658 679.671 -110.45 675.538 C-104.75 669.899 -99.443 664.026 -94.384 657.808 C-91.179 654.069 -88.246 652.834 -83.696 651.308 C-69.546 645.952 -56.343 637.284 -45.134 627.183 C-44.3 626.467 -43.466 625.752 -42.606 625.015 C-22.802 607.774 -6.826 584.424 -0.224 558.835 C1.099 555.615 1.778 555.533 4.866 554.183 C6.87 552.345 8.783 550.5 10.679 548.558 C11.174 548.061 11.67 547.565 12.181 547.054 C14.973 544.229 17.63 541.325 20.222 538.316 C24.728 533.118 29.645 528.355 34.55 523.538 C38.625 519.507 42.493 515.385 46.231 511.04 C49.099 507.782 52.218 504.787 55.327 501.761 C58.098 499.034 60.712 496.239 63.245 493.288 C66.25 489.811 69.443 486.624 72.765 483.452 C87.304 469.496 96.4 453.857 97.263 433.229 C97.421 424.649 96.404 416.686 94.53 408.323 C94.271 407.141 94.012 405.959 93.745 404.741 C89.667 386.456 85.073 368.289 80.547 350.111 C79.552 346.109 78.562 342.107 77.571 338.105 C76.368 333.244 75.162 328.383 73.956 323.523 C73.735 322.63 73.514 321.738 73.286 320.818 C70.772 310.684 68.207 300.566 65.521 290.476 C63.876 284.283 62.394 278.061 60.991 271.808 C52.534 234.718 52.534 234.718 48.366 220.245 C44.665 207.363 41.861 194.243 38.866 181.183 C37.939 177.143 37.011 173.104 36.077 169.067 C35.498 166.564 34.923 164.061 34.351 161.557 C32.711 154.462 30.831 147.478 28.797 140.486 C27.476 135.796 26.403 131.067 25.366 126.308 C23.92 119.808 22.444 113.324 20.804 106.87 C19.109 100.2 17.529 93.511 15.991 86.804 C15.11 83.085 14.12 79.402 13.12 75.714 C10.422 65.713 8.02 55.639 5.602 45.568 C4.806 42.254 4.003 38.942 3.2 35.63 C-3.017 9.855 -3.017 9.855 -4.134 1.183 C-3.134 0.183 -3.134 0.183 0 0 Z " fill="#0371A5" transform="translate(946.1338195800781,286.8172302246094)"/>
<path d="M0 0 C0.764 -0.022 1.529 -0.045 2.317 -0.068 C20.437 0.003 38.668 7.824 55.769 13.25 C59.461 14.42 63.154 15.583 66.848 16.746 C76.006 19.633 85.16 22.534 94.312 25.438 C95.032 25.666 95.752 25.894 96.494 26.13 C108.717 30.006 120.938 33.887 133.157 37.774 C149.704 43.037 166.265 48.249 182.851 53.388 C198.856 58.347 214.837 63.383 230.812 68.438 C247.656 73.765 264.504 79.074 281.375 84.312 C283.131 84.858 284.887 85.403 286.643 85.949 C289.399 86.805 292.154 87.661 294.91 88.517 C307.19 92.331 319.469 96.146 331.745 99.973 C335.323 101.089 338.902 102.203 342.481 103.315 C345.861 104.364 349.241 105.417 352.619 106.472 C354.451 107.043 356.284 107.611 358.117 108.179 C379.46 114.852 398.575 121.995 410.312 142.438 C416.062 153.485 418.4 165.864 421.312 177.875 C421.825 179.955 422.338 182.035 422.852 184.115 C424.11 189.222 425.352 194.332 426.587 199.444 C427.309 202.424 428.04 205.401 428.772 208.378 C429.227 210.247 429.682 212.116 430.137 213.984 C430.241 214.405 430.241 214.405 430.769 216.534 C432.367 223.158 433.173 229.61 433.312 236.438 C424.064 234.83 415.53 232.246 406.724 229.065 C400.625 226.869 394.525 224.985 388.273 223.266 C385.024 222.357 381.843 221.312 378.652 220.219 C375.721 219.24 372.768 218.34 369.812 217.438 C363.538 215.515 357.307 213.529 351.141 211.281 C344.085 208.71 337.033 206.467 329.797 204.465 C326.324 203.441 322.958 202.256 319.562 201 C313.382 198.736 307.147 196.916 300.792 195.225 C295.557 193.825 290.44 192.189 285.312 190.438 C283.457 189.814 281.602 189.192 279.746 188.57 C278.775 188.245 277.804 187.919 276.804 187.584 C263.918 183.273 250.998 179.137 237.98 175.238 C237.65 175.139 237.65 175.139 235.977 174.638 C232.638 173.638 229.298 172.64 225.957 171.647 C219.37 169.682 212.813 167.672 206.312 165.438 C197.336 162.381 188.323 159.509 179.25 156.75 C168.795 153.569 158.429 150.161 148.077 146.663 C139.262 143.69 130.423 140.959 121.457 138.486 C115.358 136.788 109.424 134.78 103.477 132.616 C97.992 130.635 92.456 128.944 86.851 127.341 C80.433 125.499 74.077 123.48 67.731 121.404 C51.835 116.284 35.633 117.046 20.688 124.562 C8.778 130.845 -0.435 142.081 -9.812 151.562 C-12.25 154.026 -14.69 156.487 -17.133 158.945 C-17.403 159.219 -17.403 159.219 -18.769 160.606 C-21.558 163.413 -24.405 166.085 -27.41 168.66 C-32.226 172.828 -36.696 177.333 -41.178 181.853 C-42.724 183.412 -44.274 184.968 -45.824 186.523 C-49.115 189.825 -52.401 193.131 -55.688 196.438 C-59.501 200.275 -63.316 204.11 -67.135 207.941 C-68.648 209.461 -70.158 210.983 -71.668 212.506 C-72.612 213.453 -73.556 214.4 -74.5 215.348 C-75.311 216.164 -76.122 216.98 -76.957 217.821 C-78.975 219.754 -80.995 221.563 -83.12 223.37 C-89.723 229.108 -95.792 235.42 -101.963 241.615 C-103.399 243.053 -104.836 244.491 -106.272 245.929 C-109.354 249.014 -112.434 252.1 -115.513 255.187 C-120.385 260.074 -125.262 264.956 -130.139 269.838 C-140.492 280.202 -150.84 290.569 -161.188 300.938 C-172.36 312.132 -183.534 323.326 -194.712 334.516 C-199.556 339.365 -204.398 344.216 -209.237 349.069 C-212.252 352.092 -215.27 355.113 -218.288 358.133 C-219.682 359.529 -221.075 360.925 -222.467 362.323 C-235.221 375.126 -235.221 375.126 -241.084 380.068 C-246.373 384.585 -251.214 389.657 -256.151 394.551 C-257.547 395.93 -258.948 397.304 -260.354 398.672 C-270.539 408.583 -278.606 417.821 -283.562 431.375 C-283.757 431.895 -283.757 431.895 -284.742 434.527 C-290.912 453.523 -285.332 476.171 -280.336 494.84 C-279.4 498.589 -278.816 502.373 -278.215 506.188 C-277.28 511.95 -276.159 517.678 -275.07 523.413 C-274.71 525.32 -274.357 527.228 -274.004 529.137 C-272.891 535.155 -271.75 541.163 -270.527 547.16 C-268.155 558.811 -265.919 570.452 -264.119 582.207 C-263.407 586.719 -262.56 591.075 -261.289 595.465 C-258.991 603.556 -257.668 611.854 -256.188 620.125 C-255.89 621.77 -255.592 623.415 -255.293 625.061 C-254.85 627.5 -254.408 629.939 -253.967 632.379 C-251.837 644.17 -249.619 655.942 -247.25 667.688 C-247.038 668.746 -246.825 669.804 -246.606 670.895 C-245.774 675.043 -244.939 679.19 -244.104 683.337 C-239.692 705.246 -239.692 705.246 -237.973 715.816 C-237.843 716.608 -237.714 717.399 -237.58 718.214 C-237.326 719.774 -237.075 721.334 -236.828 722.895 C-236.133 727.171 -235.244 731.33 -234.156 735.523 C-233.415 738.55 -232.939 741.613 -232.438 744.688 C-231.113 752.533 -229.451 760.291 -227.75 768.062 C-225.611 777.853 -223.67 787.646 -222.069 797.54 C-221.314 802.131 -220.432 806.652 -219.359 811.18 C-217.018 821.106 -215.108 831.123 -213.125 841.125 C-212.722 843.149 -212.319 845.173 -211.916 847.197 C-211.174 850.924 -210.433 854.651 -209.693 858.378 C-209.61 858.794 -209.61 858.794 -209.192 860.899 C-208.841 862.663 -208.492 864.427 -208.143 866.191 C-207.967 867.079 -207.791 867.967 -207.61 868.882 C-207.452 869.678 -207.295 870.475 -207.132 871.296 C-206.555 874.076 -205.84 876.815 -205.125 879.562 C-203.333 887.139 -202.976 894.686 -202.688 902.438 C-207.527 902.607 -211.394 902.172 -215.999 900.697 C-216.602 900.506 -216.602 900.506 -219.651 899.542 C-220.95 899.12 -222.249 898.697 -223.547 898.273 C-224.9 897.839 -226.254 897.405 -227.608 896.971 C-230.441 896.062 -233.272 895.145 -236.101 894.222 C-239.694 893.051 -243.294 891.899 -246.895 890.753 C-249.693 889.86 -252.488 888.957 -255.281 888.05 C-256.605 887.622 -257.93 887.197 -259.256 886.776 C-279.308 880.386 -294.233 870.437 -304.5 851.625 C-310.933 837.352 -312.867 820.913 -315.762 805.656 C-316.245 803.128 -316.729 800.6 -317.213 798.072 C-321.959 773.222 -326.549 748.342 -331.118 723.458 C-333.509 710.443 -335.909 697.43 -338.312 684.418 C-338.549 683.14 -338.785 681.861 -339.028 680.544 C-342.93 659.429 -346.921 638.332 -351 617.25 C-362.326 558.676 -372.991 499.977 -383.618 441.273 C-384.185 438.141 -384.752 435.009 -385.319 431.877 C-386.206 426.978 -387.092 422.079 -387.976 417.179 C-388.3 415.382 -388.625 413.584 -388.951 411.786 C-389.396 409.325 -389.84 406.863 -390.283 404.401 C-390.412 403.692 -390.541 402.982 -390.673 402.251 C-394.498 380.947 -393.814 359.422 -381.125 341 C-379.99 339.471 -378.846 337.949 -377.688 336.438 C-377.048 335.551 -376.409 334.664 -375.75 333.75 C-373.424 331.142 -370.884 328.987 -368.227 326.723 C-364.313 323.201 -360.645 319.438 -356.963 315.676 C-353.988 312.657 -350.963 309.767 -347.75 307 C-343.517 303.346 -339.601 299.428 -335.688 295.438 C-331.136 290.798 -326.515 286.361 -321.589 282.121 C-318.122 279.052 -314.944 275.698 -311.738 272.361 C-310.424 271.018 -309.059 269.723 -307.688 268.438 C-307.028 268.438 -306.368 268.438 -305.688 268.438 C-305.688 267.777 -305.688 267.118 -305.688 266.438 C-304.219 264.972 -304.219 264.972 -302.188 263.277 C-297.904 259.634 -293.782 255.853 -289.688 252 C-288.987 251.343 -288.286 250.685 -287.564 250.008 C-283.431 246.117 -279.377 242.166 -275.398 238.117 C-273.598 236.35 -271.727 234.705 -269.812 233.062 C-266.621 230.321 -263.644 227.431 -260.688 224.438 C-257.873 221.589 -255.06 218.832 -252 216.25 C-247.167 212.125 -242.763 207.564 -238.318 203.031 C-235.272 199.943 -232.196 196.971 -228.898 194.152 C-223.06 189.121 -217.754 183.533 -212.371 178.025 C-210.984 176.608 -209.59 175.196 -208.195 173.785 C-207.786 173.368 -207.786 173.368 -205.715 171.254 C-203.688 169.438 -203.688 169.438 -201.688 169.438 C-201.028 168.118 -200.368 166.798 -199.688 165.438 C-199.028 165.438 -198.368 165.438 -197.688 165.438 C-197.357 164.447 -197.028 163.458 -196.688 162.438 C-195.262 161.035 -195.262 161.035 -193.375 159.5 C-189.729 156.407 -186.303 153.143 -182.938 149.75 C-182.431 149.24 -181.924 148.73 -181.402 148.205 C-179.829 146.618 -178.258 145.028 -176.688 143.438 C-165.116 131.716 -165.116 131.716 -160.781 128.031 C-154.559 122.722 -148.934 116.749 -143.188 110.938 C-129.964 97.563 -129.964 97.563 -123.775 92.303 C-118.69 87.759 -113.979 82.788 -109.188 77.938 C-96.875 65.472 -96.875 65.472 -90.605 60.128 C-86.726 56.709 -83.135 52.987 -79.5 49.312 C-78.719 48.527 -77.939 47.742 -77.135 46.934 C-74.065 43.846 -71 40.754 -67.941 37.656 C-65.628 35.379 -63.243 33.214 -60.812 31.062 C-57.895 28.466 -55.098 25.857 -52.438 23 C-38.376 8.807 -19.936 0.348 0 0 Z " fill="#0350A4" transform="translate(506.6875,47.5625)"/>
<path d="M0 0 C0.495 -0 0.495 -0 2.998 -0.003 C6.31 -0.004 9.621 0.001 12.933 0.007 C15.309 0.007 17.684 0.007 20.059 0.006 C25.838 0.006 31.616 0.01 37.394 0.017 C44.12 0.024 50.845 0.025 57.57 0.027 C69.563 0.029 81.555 0.035 93.548 0.045 C105.196 0.054 116.844 0.061 128.492 0.065 C129.211 0.066 129.929 0.066 130.669 0.066 C134.273 0.067 137.876 0.069 141.48 0.07 C171.363 0.08 201.246 0.099 231.129 0.12 C231.129 28.83 231.129 57.54 231.129 87.12 C231.789 87.12 232.449 87.12 233.129 87.12 C233.542 88.172 233.954 89.224 234.379 90.308 C236.732 95.749 239.698 99.534 245.129 102.12 C250.15 103.212 255.053 103.29 260.164 103.326 C261.067 103.336 261.969 103.346 262.899 103.356 C265.807 103.387 268.714 103.412 271.621 103.437 C273.422 103.455 275.223 103.474 277.024 103.493 C283.684 103.561 290.344 103.622 297.004 103.683 C311.895 103.827 326.787 103.972 342.129 104.12 C342.129 159.23 342.129 214.34 342.129 271.12 C336.189 270.46 330.249 269.8 324.129 269.12 C319.784 268.927 315.53 268.784 311.192 268.808 C310.09 268.812 308.988 268.816 307.853 268.82 C272.827 269.298 239.772 282.625 213.129 305.12 C212.295 305.819 211.461 306.518 210.602 307.237 C204.347 312.654 199.159 318.563 194.129 325.12 C193.461 325.972 192.794 326.824 192.106 327.702 C169.108 358.018 158.246 397.536 162.66 435.343 C164.496 448.596 168.108 461.095 173.176 473.476 C174.129 476.12 174.129 476.12 174.129 479.12 C150.311 479.19 126.493 479.243 102.675 479.276 C91.616 479.291 80.556 479.312 69.497 479.347 C59.855 479.377 50.214 479.396 40.572 479.403 C35.469 479.406 30.366 479.416 25.263 479.437 C20.454 479.458 15.646 479.464 10.838 479.46 C9.078 479.46 7.318 479.466 5.558 479.478 C-16.484 479.615 -16.484 479.615 -25.203 472.843 C-32.16 465.657 -34.993 458.672 -35.002 448.888 C-35.004 448.155 -35.006 447.422 -35.008 446.666 C-35.014 444.196 -35.013 441.725 -35.011 439.255 C-35.014 437.471 -35.017 435.687 -35.02 433.903 C-35.028 428.991 -35.03 424.079 -35.031 419.166 C-35.033 413.872 -35.04 408.578 -35.047 403.284 C-35.061 391.704 -35.067 380.123 -35.071 368.543 C-35.074 361.314 -35.078 354.086 -35.083 346.857 C-35.095 326.851 -35.105 306.844 -35.108 286.838 C-35.109 285.557 -35.109 284.276 -35.109 282.956 C-35.109 281.672 -35.109 280.389 -35.11 279.066 C-35.11 276.464 -35.111 273.862 -35.111 271.26 C-35.111 269.97 -35.111 268.679 -35.112 267.35 C-35.116 246.433 -35.133 225.516 -35.156 204.599 C-35.18 183.133 -35.193 161.667 -35.194 140.202 C-35.195 128.146 -35.2 116.09 -35.219 104.034 C-35.234 93.769 -35.239 83.504 -35.231 73.239 C-35.227 68 -35.228 62.762 -35.242 57.524 C-35.255 52.728 -35.253 47.933 -35.241 43.138 C-35.239 41.403 -35.242 39.668 -35.251 37.933 C-35.262 35.574 -35.255 33.215 -35.243 30.856 C-35.243 29.546 -35.244 28.235 -35.245 26.886 C-34.305 17.421 -29.676 11.539 -22.871 5.12 C-15.934 -0.219 -8.359 -0.026 0 0 Z " fill="#FCFDFD" transform="translate(492.8708190917969,382.87974548339844)"/>
<path d="M0 0 C0.692 0.07 1.383 0.14 2.095 0.212 C6.706 0.79 10.487 2.252 14.688 4.188 C16.117 4.69 17.554 5.173 19 5.625 C34.02 10.59 47.773 17.676 59.688 28.188 C60.505 28.885 61.322 29.582 62.164 30.301 C72.392 39.214 80.749 48.858 87.669 60.485 C88.596 62.035 89.558 63.564 90.523 65.09 C106.663 92.294 110.043 127.736 102.688 158.188 C102.357 158.518 102.028 158.847 101.688 159.188 C101.457 161.161 101.228 163.135 101.008 165.109 C100.614 167.662 99.781 169.855 98.688 172.188 C98.028 172.188 97.368 172.188 96.688 172.188 C96.647 172.598 96.647 172.598 96.441 174.676 C95.505 179.039 93.744 182.476 91.625 186.375 C91.423 186.75 91.423 186.75 90.4 188.649 C84.754 198.932 77.727 207.676 69.688 216.188 C69.002 216.938 68.316 217.688 67.609 218.461 C59.2 227.337 49.221 234.034 38.5 239.812 C37.864 240.155 37.229 240.498 36.574 240.852 C33.738 242.325 31.93 243.188 28.688 243.188 C28.688 243.847 28.688 244.507 28.688 245.188 C-1.887 256.355 -38.877 260.022 -69.312 246.188 C-70.024 245.925 -70.736 245.662 -71.469 245.391 C-100.098 234.794 -125.158 210.607 -138.312 183.188 C-150.803 155.069 -154.866 122.981 -146.312 93.188 C-146.131 92.529 -145.949 91.87 -145.761 91.192 C-136.498 58.336 -113.847 31.458 -84.844 14.07 C-78.303 10.45 -71.288 7.834 -64.312 5.188 C-63.493 4.859 -62.673 4.53 -61.828 4.191 C-42.512 -3.034 -20.165 -2.092 0 0 Z " fill="#FBFCFD" transform="translate(826.3125,673.8125)"/>
<path d="M0 0 C0.859 -0.004 1.717 -0.008 2.602 -0.012 C3.545 -0.011 4.489 -0.01 5.461 -0.009 C6.463 -0.012 7.466 -0.015 8.498 -0.018 C11.872 -0.027 15.246 -0.028 18.62 -0.03 C21.033 -0.034 23.445 -0.039 25.858 -0.045 C32.424 -0.058 38.991 -0.064 45.557 -0.069 C49.657 -0.072 53.757 -0.076 57.857 -0.08 C69.21 -0.092 80.563 -0.103 91.915 -0.106 C92.642 -0.106 93.369 -0.107 94.118 -0.107 C94.846 -0.107 95.574 -0.107 96.325 -0.107 C97.801 -0.108 99.277 -0.108 100.753 -0.109 C101.119 -0.109 101.119 -0.109 102.972 -0.109 C114.833 -0.113 126.694 -0.131 138.555 -0.154 C150.733 -0.178 162.912 -0.19 175.09 -0.192 C181.927 -0.192 188.765 -0.198 195.602 -0.216 C202.034 -0.233 208.465 -0.235 214.897 -0.226 C217.258 -0.225 219.619 -0.23 221.98 -0.24 C225.203 -0.252 228.425 -0.247 231.648 -0.236 C232.583 -0.244 233.517 -0.252 234.48 -0.26 C242.289 -0.201 247.982 1.629 253.809 7.131 C257.89 12.774 257.579 18.409 256.809 25.131 C255.059 28.694 255.059 28.694 252.809 31.131 C252.149 31.874 251.489 32.616 250.809 33.381 C247.492 36.283 244.814 37.381 240.413 37.389 C239.974 37.392 239.974 37.392 237.751 37.408 C236.79 37.405 235.829 37.402 234.839 37.399 C234.327 37.401 234.327 37.401 231.735 37.413 C228.293 37.425 224.851 37.424 221.409 37.422 C218.945 37.428 216.481 37.435 214.017 37.442 C208.013 37.458 202.01 37.464 196.006 37.466 C191.125 37.466 186.245 37.471 181.365 37.477 C167.529 37.495 153.694 37.504 139.858 37.502 C139.112 37.502 138.366 37.502 137.598 37.502 C137.224 37.502 137.224 37.502 135.335 37.502 C123.23 37.501 111.126 37.52 99.022 37.548 C86.594 37.577 74.166 37.591 61.738 37.589 C54.76 37.588 47.782 37.594 40.805 37.615 C34.243 37.636 27.682 37.635 21.121 37.62 C18.711 37.618 16.301 37.623 13.891 37.635 C10.604 37.651 7.319 37.641 4.032 37.626 C3.076 37.636 2.119 37.646 1.134 37.657 C-4.488 37.599 -7.742 36.905 -12.191 33.131 C-17.236 27.666 -18.685 22.964 -18.5 15.628 C-17.916 10.902 -16.035 7.745 -12.473 4.628 C-8.42 1.614 -5.133 0.009 0 0 Z " fill="#033473" transform="translate(527.191463470459,575.8685722351074)"/>
<path d="M0 0 C1.082 -0.01 2.164 -0.02 3.279 -0.03 C4.451 -0.036 5.623 -0.042 6.831 -0.048 C8.077 -0.058 9.323 -0.068 10.607 -0.078 C14.724 -0.108 18.841 -0.129 22.958 -0.148 C23.309 -0.15 23.309 -0.15 25.086 -0.158 C31.715 -0.189 38.343 -0.215 44.972 -0.232 C53.429 -0.254 61.886 -0.296 70.343 -0.366 C76.302 -0.413 82.261 -0.437 88.221 -0.445 C91.775 -0.45 95.328 -0.464 98.882 -0.504 C102.848 -0.548 106.814 -0.544 110.78 -0.536 C111.948 -0.556 113.116 -0.576 114.32 -0.597 C120.87 -0.539 124.852 0.248 129.886 4.561 C134.058 8.869 135.673 12.503 136.06 18.536 C135.833 24.648 133.505 28.697 129.435 33.161 C124.885 36.627 120.759 37.283 115.142 37.301 C114.069 37.307 112.997 37.312 111.892 37.318 C111.306 37.319 111.306 37.319 108.342 37.322 C107.104 37.327 105.866 37.332 104.591 37.337 C101.198 37.349 97.806 37.356 94.413 37.361 C92.292 37.364 90.17 37.368 88.049 37.372 C81.406 37.386 74.763 37.396 68.121 37.4 C60.462 37.404 52.804 37.422 45.146 37.451 C39.22 37.472 33.293 37.482 27.367 37.484 C23.831 37.485 20.294 37.49 16.758 37.508 C12.811 37.528 8.864 37.524 4.916 37.517 C3.751 37.526 2.585 37.536 1.385 37.545 C-5.35 37.51 -10.946 37.266 -16.272 32.696 C-21.477 25.762 -22.497 20.841 -21.565 12.161 C-19.254 7.271 -15.936 4.22 -11.565 1.161 C-7.688 0.307 -3.962 0.029 0 0 Z " fill="#0495E0" transform="translate(530.5650329589844,484.83937072753906)"/>
<path d="M0 0 C0.633 -0.003 0.633 -0.003 3.836 -0.016 C7.289 -0.03 10.741 -0.019 14.194 -0.003 C17.819 0.011 21.444 0.005 25.069 0.001 C31.155 -0.001 37.241 0.012 43.327 0.035 C50.348 0.062 57.368 0.064 64.39 0.052 C71.163 0.041 77.936 0.047 84.71 0.061 C87.584 0.067 90.458 0.067 93.331 0.062 C97.35 0.057 101.368 0.076 105.387 0.098 C106.57 0.093 107.754 0.089 108.973 0.084 C116.855 0.155 123.03 0.675 129.131 6.127 C131.691 10.317 132.484 13.615 132.193 18.502 C130.559 23.405 127.63 27.744 123.193 30.502 C118.846 31.389 114.563 31.291 110.139 31.23 C109.481 31.233 109.481 31.233 106.151 31.248 C102.551 31.262 98.953 31.239 95.353 31.209 C91.579 31.182 87.806 31.188 84.032 31.189 C77.694 31.186 71.357 31.16 65.02 31.119 C57.703 31.072 50.387 31.056 43.071 31.058 C35.268 31.06 27.465 31.04 19.663 31.012 C17.421 31.006 15.179 31.003 12.937 31.002 C8.75 30.999 4.564 30.97 0.377 30.938 C-0.86 30.939 -2.097 30.94 -3.372 30.942 C-9.596 30.872 -14.363 30.641 -19.807 27.502 C-23.21 23.919 -24.634 21.262 -25.119 16.314 C-24.745 11.755 -23.86 7.994 -20.807 4.502 C-13.873 0.121 -8.077 -0.066 0 0 Z " fill="#063674" transform="translate(533.806640625,655.498291015625)"/>
<path d="M0 0 C16.261 -0.556 26.6 1.596 38.971 13.027 C43.497 17.795 45.814 22.881 47.861 29.078 C48.026 29.573 48.026 29.573 48.861 32.078 C48.861 37.358 48.861 42.638 48.861 48.078 C19.161 48.078 -10.539 48.078 -41.139 48.078 C-41.139 23.38 -41.139 23.38 -32.139 13.078 C-21.857 3.4 -13.883 0.507 0 0 Z " fill="#0458D5" transform="translate(748.138671875,804.921875)"/>
<path d="M0 0 C3.141 1.68 3.141 1.68 5.812 3.375 C6.202 3.603 6.202 3.603 8.172 4.758 C15.243 9.41 20.196 16.544 22.75 24.562 C23.812 30.375 23.812 30.375 23.812 45.375 C-5.888 45.375 -35.587 45.375 -66.188 45.375 C-66.188 29.825 -65.19 19.63 -54.375 8.512 C-40.543 -4.511 -17.422 -7.301 0 0 Z " fill="#04B1FC" transform="translate(875.1875,807.625)"/>
<path d="M0 0 C5.758 3.672 11.94 9.37 14.129 15.938 C14.88 24.889 15.127 32.73 9.129 39.938 C2.852 46.692 -3.112 49.09 -12.246 49.5 C-19.403 49.338 -23.771 47.974 -28.871 42.938 C-35.448 35.763 -37.478 28.904 -37.312 19.195 C-36.298 11.711 -31.208 6.764 -25.582 2.129 C-18.654 -2.696 -7.894 -2.921 0 0 Z " fill="#0558D3" transform="translate(762.87109375,747.0625)"/>
<path d="M0 0 C5.224 5.369 8.303 12.013 8.562 19.5 C8.446 26.625 5.712 32.096 0.812 37.188 C-5.508 43.022 -10.712 44.577 -19.156 44.465 C-25.522 44.091 -30.81 42.501 -35.75 38.312 C-41.042 31.666 -44.284 25.293 -44.066 16.68 C-43.149 9.812 -39.502 4.178 -34.75 -0.688 C-23.743 -8.999 -11.146 -6.84 0 0 Z " fill="#06B1FC" transform="translate(871.75,751.6875)"/>
<path d="M0 0 C0 3 0 3 -1.207 4.43 C-1.472 4.668 -1.472 4.668 -2.812 5.875 C-4.755 7.63 -6.044 9.076 -7.371 11.355 C-9.316 14.514 -11.608 16.837 -14.25 19.438 C-14.735 19.916 -15.22 20.395 -15.72 20.888 C-19.345 24.436 -23.083 27.78 -27 31 C-27.66 30.67 -28.32 30.34 -29 30 C-28.567 29.608 -28.134 29.216 -27.688 28.812 C-26 27 -26 27 -24.879 24.848 C-22.223 20.822 -18.805 17.856 -15.25 14.625 C-13.858 13.348 -12.468 12.069 -11.078 10.789 C-10.74 10.478 -10.74 10.478 -9.029 8.903 C-5.944 6.01 -2.964 3.016 0 0 Z " fill="#316CB0" transform="translate(173,341)"/>
</svg>
