<?xml version="1.0" encoding="UTF-8"?>
<!-- Generator: visioncortex VTracer 0.6.12 -->
<svg version="1.1" xmlns="http://www.w3.org/2000/svg" width="1254" height="1254">
<path d="M0 0 C1.002 0.263 2.005 0.526 3.037 0.796 C13.864 3.682 24.508 7.085 35.16 10.551 C38.255 11.55 41.35 12.546 44.445 13.543 C46.506 14.206 48.567 14.871 50.627 15.536 C58.993 18.236 67.375 20.883 75.766 23.506 C86.725 26.931 97.672 30.394 108.598 33.926 C109.799 34.314 111.001 34.703 112.239 35.103 C114.967 35.985 117.696 36.868 120.424 37.75 C122.086 38.288 123.748 38.826 125.41 39.363 C125.908 39.524 125.908 39.524 128.427 40.339 C136.711 43.018 144.998 45.693 153.285 48.363 C154.517 48.76 155.749 49.157 157.019 49.566 C170.761 53.99 184.51 58.369 198.348 62.488 C213.98 67.142 229.463 72.238 244.958 77.327 C257.794 81.541 270.646 85.69 283.535 89.738 C286.6 90.702 289.665 91.665 292.73 92.629 C293.462 92.859 294.194 93.089 294.949 93.326 C306.188 96.862 317.401 100.477 328.603 104.128 C331.922 105.208 335.246 106.271 338.571 107.331 C341.303 108.205 344.031 109.091 346.759 109.978 C348.651 110.59 350.547 111.19 352.443 111.79 C364.518 115.744 373.366 121.497 382.41 130.363 C383.111 131.028 383.813 131.694 384.535 132.379 C392.924 140.964 397.842 152.049 400.699 163.582 C400.801 163.981 400.801 163.981 401.318 166.002 C402.025 168.787 402.719 171.575 403.41 174.363 C403.679 175.443 403.949 176.522 404.226 177.635 C406.053 184.971 407.861 192.312 409.659 199.655 C410.289 202.229 410.92 204.802 411.552 207.375 C412.479 211.144 413.404 214.914 414.328 218.684 C414.468 219.254 414.468 219.254 415.177 222.14 C415.929 225.213 416.672 228.287 417.41 231.363 C417.515 231.794 417.515 231.794 418.046 233.974 C418.956 237.846 419.669 241.353 419.41 245.363 C419.938 245.445 420.465 245.527 421.009 245.612 C428.842 246.994 436.279 249.458 443.808 251.957 C447.888 253.312 451.973 254.647 456.059 255.984 C456.904 256.262 457.75 256.539 458.622 256.825 C468.771 260.148 478.959 263.347 489.149 266.542 C497.004 269.004 504.856 271.477 512.68 274.035 C513.851 274.416 515.023 274.798 516.23 275.19 C533.408 281.525 547.418 296.188 555.498 312.3 C559.834 322.112 562.069 332.698 564.5 343.102 C564.884 344.727 565.269 346.353 565.654 347.979 C566.679 352.312 567.698 356.647 568.715 360.982 C569.781 365.519 570.853 370.054 571.924 374.59 C573.636 381.84 575.345 389.09 577.051 396.342 C579.059 404.876 581.074 413.41 583.094 421.941 C585.195 430.82 587.295 439.698 589.391 448.578 C591.41 457.134 593.434 465.688 595.461 474.242 C608.287 528.384 620.949 582.565 633.433 636.787 C635.748 646.836 638.076 656.881 640.41 666.926 C640.609 667.782 640.808 668.638 641.013 669.52 C643.483 680.148 645.975 690.769 648.488 701.387 C651.483 714.041 654.46 726.699 657.41 739.363 C657.598 740.168 657.786 740.973 657.98 741.802 C664.609 770.223 668.178 797.015 652.41 823.363 C645.015 833.628 635.702 842.268 626.723 851.113 C624.489 853.319 622.257 855.527 620.028 857.737 C618.651 859.101 617.273 860.463 615.89 861.821 C612.251 865.422 608.857 869.098 605.655 873.096 C605.244 873.514 604.833 873.932 604.41 874.363 C603.75 874.363 603.09 874.363 602.41 874.363 C602.145 874.953 601.881 875.543 601.608 876.15 C600.368 878.442 599.082 879.938 597.242 881.772 C596.916 882.099 596.916 882.099 595.267 883.755 C594.91 884.109 594.91 884.109 593.102 885.898 C592.349 886.652 591.596 887.405 590.82 888.181 C588.328 890.672 585.828 893.156 583.328 895.641 C581.594 897.371 579.86 899.102 578.126 900.834 C573.557 905.395 568.983 909.95 564.406 914.504 C559.76 919.13 555.12 923.762 550.479 928.393 C542.976 935.877 535.47 943.359 527.96 950.836 C526.674 952.116 525.388 953.397 524.102 954.679 C522.598 956.176 521.088 957.668 519.578 959.159 C517.41 961.363 517.41 961.363 515.035 964.301 C512.662 967.211 509.978 969.537 507.098 971.934 C504.726 973.943 502.58 976.139 500.41 978.363 C499.876 978.887 499.343 979.41 498.793 979.949 C495.062 983.614 491.586 987.42 488.172 991.379 C485.875 993.966 483.451 996.4 480.98 998.82 C479.658 1000.119 478.373 1001.456 477.098 1002.801 C475.41 1004.363 475.41 1004.363 473.41 1004.363 C473.202 1004.896 472.995 1005.429 472.781 1005.978 C470.859 1009.323 468.206 1011.832 465.484 1014.523 C464.871 1015.137 464.257 1015.752 463.625 1016.385 C461.566 1018.445 459.499 1020.498 457.433 1022.552 C455.956 1024.027 454.479 1025.502 453.003 1026.978 C449.821 1030.157 446.636 1033.333 443.448 1036.506 C438.404 1041.528 433.368 1046.556 428.332 1051.586 C420.362 1059.545 412.386 1067.499 404.409 1075.452 C390.138 1089.679 375.872 1103.911 361.611 1118.149 C356.608 1123.144 351.602 1128.136 346.594 1133.126 C343.472 1136.237 340.352 1139.351 337.232 1142.465 C335.789 1143.904 334.346 1145.342 332.901 1146.78 C319.651 1159.966 319.651 1159.966 314.771 1165.777 C312.103 1168.887 309.149 1171.726 306.234 1174.602 C305.583 1175.249 304.932 1175.896 304.261 1176.564 C302.209 1178.603 300.154 1180.64 298.098 1182.676 C295.37 1185.377 292.645 1188.082 289.922 1190.789 C289.298 1191.405 288.674 1192.02 288.031 1192.655 C287.453 1193.229 286.875 1193.804 286.28 1194.396 C285.773 1194.898 285.265 1195.4 284.742 1195.917 C283.41 1197.363 283.41 1197.363 281.41 1200.363 C279.547 1200.766 279.547 1200.766 277.236 1200.805 C276.36 1200.826 275.483 1200.848 274.58 1200.87 C274.098 1200.874 274.098 1200.874 271.657 1200.894 C270.641 1200.914 269.626 1200.934 268.58 1200.954 C265.193 1201.013 261.806 1201.048 258.418 1201.078 C257.835 1201.084 257.835 1201.084 254.882 1201.115 C248.668 1201.178 242.454 1201.221 236.24 1201.249 C231.163 1201.275 226.089 1201.337 221.013 1201.433 C191.822 1201.976 166.391 1201.33 139.285 1189.941 C133.089 1187.365 126.689 1185.416 120.297 1183.387 C117.931 1182.614 115.565 1181.839 113.201 1181.062 C110.833 1180.287 108.465 1179.513 106.098 1178.738 C104.195 1178.116 102.293 1177.493 100.391 1176.87 C86.235 1172.236 72.075 1167.62 57.893 1163.067 C50.362 1160.646 42.839 1158.2 35.32 1155.738 C34.822 1155.575 34.822 1155.575 32.297 1154.749 C30.223 1154.07 28.149 1153.391 26.075 1152.712 C8.333 1146.904 -9.426 1141.153 -27.215 1135.488 C-28.207 1135.172 -29.198 1134.857 -30.22 1134.531 C-34.082 1133.301 -37.943 1132.072 -41.805 1130.843 C-58.655 1125.479 -75.481 1120.04 -92.285 1114.535 C-93.338 1114.19 -94.391 1113.845 -95.477 1113.49 C-96.552 1113.138 -97.627 1112.785 -98.734 1112.423 C-99.83 1112.064 -100.925 1111.705 -102.054 1111.335 C-104.282 1110.605 -106.51 1109.875 -108.738 1109.145 C-121.298 1105.03 -133.866 1100.941 -146.457 1096.922 C-147.582 1096.563 -148.707 1096.204 -149.867 1095.833 C-155.229 1094.123 -160.593 1092.417 -165.958 1090.716 C-174.725 1087.932 -183.476 1085.118 -192.156 1082.074 C-192.831 1081.839 -193.507 1081.603 -194.202 1081.36 C-212.752 1074.761 -226.499 1062.181 -235.074 1044.512 C-238.446 1037.321 -240.442 1030.174 -242.022 1022.413 C-242.481 1020.159 -242.966 1017.912 -243.455 1015.664 C-245.2 1007.552 -246.782 999.416 -248.251 991.249 C-248.998 987.112 -249.768 982.979 -250.537 978.846 C-251.084 975.836 -251.589 972.82 -252.093 969.802 C-252.434 967.946 -252.777 966.09 -253.121 964.234 C-253.251 963.38 -253.381 962.525 -253.516 961.645 C-253.976 959.296 -254.418 957.452 -255.59 955.363 C-258.115 953.7 -260.665 953.036 -263.59 952.363 C-264.528 952.046 -265.467 951.729 -266.434 951.403 C-267.31 951.124 -268.187 950.846 -269.09 950.559 C-270.122 950.229 -271.155 949.9 -272.219 949.56 C-273.331 949.206 -274.444 948.853 -275.59 948.488 C-277.417 947.901 -279.244 947.314 -281.072 946.726 C-287.119 944.783 -293.174 942.864 -299.237 940.966 C-302.807 939.845 -306.374 938.712 -309.939 937.577 C-311.686 937.024 -313.435 936.476 -315.186 935.934 C-334.988 929.794 -351.714 920.847 -362.59 902.363 C-367.122 893.752 -369.844 885.481 -371.605 875.938 C-371.851 874.684 -372.096 873.43 -372.348 872.138 C-372.859 869.513 -373.364 866.888 -373.857 864.259 C-374.555 860.547 -375.27 856.839 -375.99 853.131 C-377.334 846.18 -378.646 839.223 -379.949 832.264 C-380.351 830.116 -380.755 827.968 -381.158 825.821 C-386.646 796.624 -392.005 767.405 -397.359 738.184 C-403.017 707.297 -408.732 676.421 -414.494 645.553 C-426.72 580.061 -438.78 514.539 -450.655 448.983 C-451.148 446.264 -451.641 443.544 -452.135 440.824 C-452.9 436.612 -453.662 432.4 -454.422 428.187 C-454.699 426.657 -454.976 425.128 -455.254 423.599 C-459.827 398.419 -459.965 375.287 -445.777 352.988 C-440.425 345.393 -433.839 339.385 -426.82 333.375 C-423.971 330.805 -421.286 328.092 -418.59 325.363 C-414.696 321.421 -410.738 317.663 -406.516 314.07 C-403.47 311.371 -400.661 308.443 -397.805 305.547 C-395.813 303.584 -393.777 301.742 -391.652 299.926 C-387.641 296.489 -383.961 292.771 -380.277 288.988 C-377.504 286.279 -374.62 283.75 -371.691 281.211 C-368.244 278.18 -364.921 275.021 -361.59 271.863 C-360.091 270.448 -358.593 269.032 -357.094 267.617 C-356.342 266.907 -355.591 266.197 -354.817 265.465 C-351.395 262.235 -347.962 259.018 -344.527 255.801 C-343.204 254.561 -341.882 253.322 -340.559 252.082 C-339.905 251.47 -339.251 250.857 -338.578 250.227 C-336.571 248.346 -334.565 246.464 -332.559 244.582 C-329.233 241.462 -325.906 238.344 -322.578 235.226 C-321.238 233.97 -319.898 232.714 -318.559 231.458 C-305.687 219.379 -305.687 219.379 -299.277 213.867 C-296.865 211.717 -294.627 209.41 -292.363 207.105 C-290.542 205.316 -288.653 203.65 -286.715 201.988 C-283.705 199.397 -280.879 196.691 -278.09 193.863 C-275.362 191.098 -272.605 188.45 -269.652 185.926 C-265.561 182.42 -261.82 178.609 -258.035 174.777 C-255.299 172.076 -252.44 169.572 -249.52 167.074 C-247.457 165.245 -245.524 163.327 -243.59 161.363 C-241.05 158.784 -238.465 156.341 -235.715 153.988 C-232.523 151.247 -229.547 148.356 -226.59 145.363 C-223.694 142.432 -220.787 139.599 -217.652 136.926 C-214.301 134.062 -211.184 131 -208.09 127.863 C-204.421 124.145 -200.658 120.627 -196.684 117.238 C-193.545 114.428 -190.618 111.412 -187.661 108.415 C-184.416 105.143 -181.054 102.094 -177.551 99.105 C-174.5 96.395 -171.681 93.463 -168.816 90.559 C-166.144 87.923 -163.336 85.486 -160.488 83.043 C-157.999 80.84 -155.695 78.48 -153.367 76.109 C-151.524 74.299 -149.612 72.61 -147.652 70.926 C-144.844 68.507 -142.19 66.004 -139.59 63.363 C-137.03 60.763 -134.422 58.301 -131.652 55.926 C-127.924 52.722 -124.48 49.297 -121.059 45.77 C-119.013 43.776 -116.934 41.9 -114.777 40.031 C-111.423 37.123 -108.204 34.109 -105.012 31.024 C-74.79 1.972 -41.668 -10.943 0 0 Z " fill="#0CB2FD" transform="translate(532.58984375,53.63671875)"/>
<path d="M0 0 C5.634 -0.22 10.188 0.349 15.539 2.203 C16.246 2.437 16.953 2.671 17.682 2.912 C20 3.681 22.312 4.465 24.625 5.25 C27.092 6.072 29.561 6.889 32.03 7.707 C33.74 8.273 35.45 8.841 37.16 9.41 C46.531 12.526 55.951 15.485 65.375 18.438 C74.018 21.146 82.66 23.857 91.27 26.672 C92.441 27.053 93.613 27.434 94.82 27.827 C111.998 34.162 126.008 48.825 134.088 64.936 C138.424 74.749 140.659 85.335 143.09 95.738 C143.474 97.364 143.859 98.99 144.244 100.615 C145.269 104.949 146.288 109.284 147.305 113.619 C148.371 118.156 149.443 122.691 150.514 127.226 C152.226 134.476 153.935 141.727 155.641 148.979 C157.649 157.513 159.664 166.046 161.684 174.578 C163.785 183.456 165.885 192.335 167.98 201.215 C170 209.77 172.024 218.325 174.051 226.879 C186.877 281.021 199.539 335.202 212.023 389.423 C214.338 399.472 216.665 409.518 219 419.562 C219.199 420.419 219.398 421.275 219.603 422.157 C222.072 432.784 224.565 443.406 227.078 454.023 C230.073 466.677 233.05 479.336 236 492 C236.188 492.805 236.376 493.609 236.57 494.438 C243.199 522.86 246.767 549.652 231 576 C223.605 586.264 214.291 594.905 205.312 603.75 C203.079 605.956 200.847 608.163 198.617 610.374 C197.241 611.738 195.862 613.099 194.48 614.458 C190.841 618.059 187.447 621.735 184.245 625.733 C183.834 626.151 183.423 626.569 183 627 C182.34 627 181.68 627 181 627 C180.735 627.59 180.471 628.179 180.198 628.787 C178.957 631.079 177.672 632.574 175.832 634.409 C175.506 634.736 175.506 634.736 173.857 636.392 C173.5 636.746 173.5 636.746 171.692 638.535 C170.939 639.288 170.186 640.042 169.41 640.818 C166.918 643.309 164.418 645.793 161.918 648.277 C160.184 650.008 158.45 651.739 156.716 653.471 C152.147 658.032 147.572 662.587 142.996 667.141 C138.35 671.767 133.709 676.398 129.068 681.029 C121.566 688.514 114.06 695.995 106.55 703.472 C105.264 704.753 103.978 706.034 102.692 707.316 C101.188 708.813 99.678 710.305 98.167 711.795 C96 714 96 714 93.625 716.938 C91.252 719.848 88.568 722.174 85.688 724.57 C83.316 726.58 81.17 728.776 79 731 C78.466 731.523 77.933 732.047 77.383 732.586 C73.652 736.251 70.176 740.056 66.762 744.016 C64.465 746.603 62.041 749.037 59.57 751.457 C58.248 752.756 56.963 754.093 55.688 755.438 C54 757 54 757 52 757 C51.792 757.533 51.584 758.066 51.37 758.615 C49.449 761.96 46.796 764.468 44.074 767.16 C43.461 767.774 42.847 768.389 42.215 769.022 C40.156 771.082 38.089 773.135 36.023 775.188 C34.546 776.663 33.069 778.139 31.593 779.614 C28.411 782.793 25.226 785.969 22.038 789.143 C16.994 794.164 11.958 799.193 6.922 804.222 C-1.049 812.182 -9.024 820.136 -17.001 828.089 C-31.272 842.316 -45.538 856.548 -59.799 870.786 C-64.802 875.781 -69.808 880.773 -74.816 885.762 C-77.938 888.874 -81.058 891.988 -84.178 895.102 C-85.621 896.541 -87.064 897.979 -88.509 899.417 C-101.759 912.603 -101.759 912.603 -106.639 918.414 C-109.307 921.524 -112.261 924.363 -115.176 927.238 C-115.827 927.886 -116.478 928.533 -117.149 929.2 C-119.201 931.24 -121.256 933.277 -123.312 935.312 C-126.041 938.014 -128.765 940.719 -131.488 943.426 C-132.112 944.041 -132.736 944.657 -133.379 945.291 C-133.957 945.866 -134.535 946.44 -135.13 947.032 C-135.638 947.535 -136.145 948.037 -136.668 948.554 C-138 950 -138 950 -140 953 C-141.863 953.403 -141.863 953.403 -144.174 953.442 C-144.612 953.452 -144.612 953.452 -146.83 953.507 C-147.795 953.515 -148.759 953.523 -149.753 953.531 C-150.769 953.551 -151.784 953.57 -152.83 953.591 C-156.218 953.65 -159.604 953.685 -162.992 953.715 C-163.576 953.721 -163.576 953.721 -166.528 953.752 C-172.742 953.815 -178.956 953.857 -185.17 953.885 C-190.247 953.912 -195.321 953.974 -200.397 954.07 C-229.588 954.613 -255.019 953.967 -282.125 942.577 C-288.321 940.002 -294.721 938.053 -301.113 936.023 C-303.479 935.251 -305.845 934.476 -308.209 933.698 C-310.577 932.924 -312.945 932.149 -315.312 931.375 C-317.215 930.752 -319.117 930.13 -321.019 929.507 C-335.175 924.873 -349.335 920.257 -363.517 915.703 C-371.048 913.283 -378.571 910.836 -386.09 908.375 C-386.589 908.212 -386.589 908.212 -389.113 907.385 C-391.187 906.706 -393.261 906.028 -395.335 905.349 C-413.077 899.541 -430.836 893.79 -448.625 888.125 C-449.617 887.809 -450.609 887.493 -451.631 887.168 C-455.492 885.938 -459.354 884.709 -463.215 883.48 C-480.065 878.116 -496.891 872.677 -513.695 867.172 C-514.748 866.827 -515.802 866.482 -516.887 866.127 C-517.962 865.774 -519.037 865.422 -520.145 865.059 C-520.692 864.88 -520.692 864.88 -523.464 863.972 C-525.692 863.242 -527.92 862.512 -530.148 861.782 C-542.708 857.666 -555.276 853.578 -567.867 849.559 C-568.992 849.199 -570.118 848.84 -571.277 848.47 C-576.639 846.76 -582.003 845.054 -587.368 843.353 C-596.135 840.568 -604.886 837.754 -613.566 834.711 C-613.904 834.593 -613.904 834.593 -615.613 833.997 C-634.155 827.401 -647.899 814.826 -656.48 797.168 C-660.225 789.188 -662.194 781.167 -663.938 772.562 C-664.263 771.022 -664.59 769.482 -664.918 767.943 C-665.787 763.836 -666.63 759.725 -667.467 755.612 C-668.017 752.917 -668.574 750.224 -669.133 747.532 C-670.268 742.065 -671.387 736.596 -672.5 731.125 C-672.678 730.256 -672.856 729.388 -673.039 728.493 C-673.543 726.02 -674.038 723.545 -674.531 721.07 C-674.681 720.341 -674.83 719.611 -674.985 718.859 C-675.773 714.847 -676.15 711.088 -676 707 C-670.068 708.22 -664.345 709.738 -658.602 711.652 C-658.211 711.78 -658.211 711.78 -656.237 712.428 C-654.565 712.977 -652.895 713.527 -651.225 714.079 C-646.768 715.551 -642.305 717.007 -637.844 718.465 C-636.937 718.761 -636.03 719.058 -635.096 719.363 C-626.122 722.295 -617.13 725.167 -608.125 728 C-607.396 728.23 -606.667 728.459 -605.916 728.696 C-596.491 731.657 -587.048 734.5 -577.488 737 C-574.295 737.915 -571.267 739.002 -568.172 740.192 C-564.019 741.737 -559.787 743.041 -555.562 744.375 C-554.591 744.683 -553.619 744.991 -552.618 745.309 C-546.993 747.084 -541.355 748.8 -535.688 750.438 C-523.242 754.038 -510.941 758.112 -498.614 762.094 C-495.285 763.169 -491.955 764.241 -488.625 765.312 C-488.124 765.475 -488.124 765.475 -485.586 766.298 C-479.895 768.129 -474.187 769.812 -468.406 771.339 C-465.423 772.158 -462.512 773.136 -459.586 774.137 C-456.385 775.205 -453.162 776.193 -449.938 777.188 C-443.257 779.255 -436.627 781.455 -430 783.688 C-420.248 786.967 -410.45 790.075 -400.625 793.125 C-383.598 798.413 -383.598 798.413 -376.125 800.938 C-367.605 803.816 -359.055 806.603 -350.5 809.375 C-350.129 809.495 -350.129 809.495 -348.252 810.104 C-337.817 813.482 -327.357 816.76 -316.858 819.93 C-310.752 821.791 -304.694 823.763 -298.656 825.832 C-297.934 826.078 -297.212 826.324 -296.467 826.578 C-292.941 827.781 -289.419 828.995 -285.904 830.232 C-265.388 837.331 -247.054 839.524 -226.777 830.578 C-219.282 826.743 -214.352 821.739 -208.938 815.438 C-205.486 811.423 -201.761 807.721 -198 804 C-193.768 799.812 -189.682 795.603 -185.836 791.055 C-182.838 787.7 -179.604 784.584 -176.404 781.424 C-173.049 778.094 -169.903 774.661 -166.84 771.059 C-163.672 767.514 -160.244 764.226 -156.844 760.906 C-154.673 758.741 -152.657 756.479 -150.656 754.156 C-146.345 749.177 -141.66 744.609 -136.961 740 C-132.979 736.064 -129.212 732.023 -125.559 727.781 C-122.995 724.851 -120.198 722.177 -117.406 719.469 C-115.473 717.485 -113.675 715.477 -111.875 713.375 C-106.502 707.182 -100.573 701.53 -94.738 695.777 C-90.057 691.136 -85.542 686.478 -81.357 681.381 C-80.909 680.925 -80.462 680.469 -80 680 C-79.34 680 -78.68 680 -78 680 C-77.879 679.716 -77.879 679.716 -77.268 678.278 C-75.752 675.555 -73.946 673.737 -71.719 671.559 C-70.877 670.728 -70.035 669.897 -69.168 669.041 C-68.288 668.182 -67.407 667.323 -66.5 666.438 C-64.758 664.73 -63.019 663.021 -61.281 661.309 C-60.508 660.554 -59.736 659.799 -58.939 659.021 C-57 657 -57 657 -55 654 C-61.005 654.529 -65.725 656.399 -71.188 658.875 C-81.065 663.239 -91.066 667.222 -101.141 671.105 C-107.386 673.525 -113.509 676.094 -119.587 678.906 C-122.696 680.316 -125.855 681.52 -129.062 682.688 C-130.434 683.193 -131.805 683.699 -133.176 684.207 C-133.931 684.486 -134.686 684.766 -135.463 685.053 C-149.027 690.116 -162.521 695.369 -175.951 700.774 C-184.214 704.096 -192.502 707.356 -200.79 710.615 C-210.278 714.346 -219.761 718.092 -229.238 721.852 C-231.38 722.701 -233.521 723.55 -235.663 724.399 C-238.83 725.655 -241.997 726.911 -245.163 728.169 C-255.951 732.456 -266.744 736.709 -277.629 740.744 C-281.077 742.029 -284.508 743.353 -287.938 744.688 C-288.991 745.088 -290.044 745.489 -291.129 745.902 C-292.853 746.562 -294.572 747.236 -296.277 747.941 C-303.302 750.649 -310.542 750.751 -318 751 C-318.495 751.021 -318.495 751.021 -321 751.125 C-335.121 751.439 -348.043 749.748 -361 744 C-369.42 740.533 -377.933 737.289 -386.421 733.991 C-388.797 733.068 -391.173 732.145 -393.549 731.221 C-401.434 728.155 -409.323 725.1 -417.228 722.083 C-420.111 720.957 -422.963 719.77 -425.812 718.562 C-431.229 716.281 -436.708 714.208 -442.216 712.16 C-448.531 709.812 -454.774 707.31 -461.016 704.776 C-468.402 701.798 -475.817 698.908 -483.266 696.09 C-483.712 695.921 -483.712 695.921 -485.973 695.065 C-489.664 693.669 -493.356 692.274 -497.05 690.884 C-515.074 684.094 -515.074 684.094 -523.642 680.057 C-527.722 678.228 -531.948 676.844 -536.188 675.438 C-541.701 673.608 -546.878 671.64 -552.032 668.957 C-555.406 667.316 -558.944 666.179 -562.5 665 C-567.558 663.323 -572.248 661.425 -576.982 658.977 C-580.399 657.323 -583.968 656.144 -587.562 654.938 C-592.815 653.155 -597.915 651.231 -603 649 C-605.703 647.862 -608.414 646.744 -611.125 645.625 C-611.495 645.472 -611.495 645.472 -613.365 644.696 C-617.894 642.827 -622.453 641.1 -627.062 639.438 C-637.173 635.555 -643.166 629.587 -648.561 620.317 C-650.204 616.531 -650.363 613.916 -650.341 609.801 C-650.341 609.455 -650.341 609.455 -650.342 607.7 C-650.34 605.427 -650.317 603.155 -650.293 600.883 C-650.287 599.3 -650.283 597.716 -650.28 596.133 C-650.269 591.98 -650.239 587.828 -650.206 583.675 C-650.175 579.432 -650.162 575.189 -650.146 570.945 C-650.114 562.63 -650.063 554.315 -650 546 C-646.808 547.255 -643.821 548.606 -640.812 550.25 C-635.308 553.047 -629.6 554.879 -623.742 556.769 C-618.388 558.505 -613.221 560.488 -608.051 562.719 C-603.747 564.526 -599.377 566.141 -595 567.765 C-590.735 569.348 -586.488 570.97 -582.25 572.625 C-577.263 574.554 -572.24 576.291 -567.145 577.91 C-562.699 579.451 -558.359 581.231 -554 583 C-552.404 583.644 -550.807 584.287 -549.211 584.93 C-548.817 585.088 -548.817 585.088 -546.823 585.891 C-533.661 591.181 -520.413 596.166 -507.047 600.914 C-498.602 603.924 -490.272 607.206 -482.004 610.672 C-474.616 613.761 -467.272 616.664 -459.637 619.102 C-456.365 620.216 -453.278 621.615 -450.145 623.066 C-447.958 624.018 -445.771 624.774 -443.5 625.5 C-440.561 626.441 -437.795 627.506 -435 628.812 C-427.881 632.072 -420.39 634.438 -413 637 C-407.457 638.928 -402.06 640.931 -396.75 643.438 C-391.758 645.769 -386.643 647.511 -381.409 649.195 C-377.242 650.548 -373.311 652.129 -369.344 653.973 C-365.233 655.775 -361.01 657.241 -356.766 658.695 C-354.297 659.55 -351.848 660.46 -349.422 661.43 C-332.428 667.722 -311.648 667.387 -294.938 660.25 C-289.452 657.957 -283.933 655.876 -278.312 653.938 C-272.562 651.941 -266.927 649.791 -261.324 647.406 C-249.388 642.357 -237.362 637.616 -225.062 633.522 C-220.912 632.118 -216.933 630.552 -212.961 628.699 C-206.238 625.581 -199.34 622.968 -192.413 620.343 C-190.2 619.505 -187.99 618.661 -185.779 617.816 C-179.084 615.265 -172.379 612.768 -165.613 610.406 C-160.611 608.637 -155.845 606.605 -151.044 604.358 C-145.081 601.698 -138.949 599.446 -132.847 597.127 C-128.531 595.487 -124.219 593.835 -119.906 592.184 C-119.011 591.841 -118.116 591.499 -117.194 591.146 C-108.271 587.729 -99.372 584.252 -90.475 580.768 C-46.925 563.717 -46.925 563.717 -29.312 557.562 C-19.614 554.173 -10.654 550.424 -1.688 545.391 C1 544 1 544 3 544 C3.33 559.84 3.66 575.68 4 592 C11.757 584.243 11.757 584.243 14.406 581.094 C18.888 575.902 23.793 571.158 28.684 566.355 C32.789 562.294 36.693 558.141 40.459 553.764 C43.015 550.838 45.808 548.172 48.594 545.469 C50.576 543.435 52.43 541.369 54.281 539.219 C58.617 534.221 63.319 529.63 68.039 525 C72.007 521.078 75.745 517.046 79.383 512.817 C81.587 510.34 84.004 508.124 86.438 505.875 C98.673 493.972 105.849 476.278 106.353 459.296 C106.523 446.073 104.052 434.139 100.812 421.375 C100.323 419.368 99.835 417.36 99.35 415.352 C97.192 406.487 94.921 397.655 92.57 388.84 C88.82 374.763 85.535 360.567 82.159 346.396 C78.758 332.131 75.234 317.928 71.315 303.796 C69.523 297.315 67.929 290.792 66.375 284.25 C66.081 283.023 65.786 281.795 65.483 280.531 C63.567 272.501 61.731 264.459 60.02 256.383 C59.059 252.082 57.896 247.838 56.748 243.584 C54.027 233.446 51.536 223.248 49 213.062 C48.474 210.954 47.948 208.845 47.422 206.736 C46.408 202.673 45.395 198.609 44.382 194.546 C39.966 176.824 39.966 176.824 37.805 168.254 C37.498 167.036 37.191 165.818 36.875 164.562 C36.563 163.326 36.251 162.09 35.93 160.816 C35.284 158.164 34.666 155.517 34.082 152.852 C32.754 146.816 31.274 140.817 29.812 134.812 C27.305 124.47 24.846 114.117 22.438 103.75 C20.182 94.059 17.923 84.369 15.625 74.688 C15.374 73.619 15.123 72.551 14.865 71.45 C14.634 70.48 14.402 69.511 14.164 68.512 C13.962 67.661 13.761 66.809 13.553 65.932 C13 64 13 64 12 63 C11.775 61.07 11.553 59.139 11.379 57.203 C11 55 11 55 10.059 52.73 C8.71 49.253 8.119 45.723 7.5 42.062 C6.677 37.218 5.584 32.657 4 28 C3.61 26.069 3.254 24.132 2.938 22.188 C2.108 17.108 2.108 17.108 1 16 C0.574 14.262 0.209 12.508 -0.125 10.75 C-0.219 10.273 -0.219 10.273 -0.695 7.859 C-1.004 4.959 -0.727 2.807 0 0 Z " fill="#046D9F" transform="translate(954,301)"/>
<path d="M0 0 C1.002 0.263 2.005 0.526 3.037 0.796 C13.864 3.682 24.508 7.085 35.16 10.551 C38.255 11.55 41.35 12.546 44.445 13.543 C46.506 14.206 48.567 14.871 50.627 15.536 C58.993 18.236 67.375 20.883 75.766 23.506 C86.725 26.931 97.672 30.394 108.598 33.926 C109.799 34.314 111.001 34.703 112.239 35.103 C114.967 35.985 117.696 36.868 120.424 37.75 C122.086 38.288 123.748 38.826 125.41 39.363 C125.908 39.524 125.908 39.524 128.427 40.339 C136.711 43.018 144.998 45.693 153.285 48.363 C154.517 48.76 155.749 49.157 157.019 49.566 C170.761 53.99 184.51 58.369 198.348 62.488 C213.98 67.142 229.463 72.238 244.958 77.327 C257.794 81.541 270.646 85.69 283.535 89.738 C286.6 90.702 289.665 91.665 292.73 92.629 C293.462 92.859 294.194 93.089 294.949 93.326 C306.188 96.862 317.401 100.477 328.603 104.128 C331.922 105.208 335.246 106.271 338.571 107.331 C341.303 108.205 344.031 109.091 346.759 109.978 C348.651 110.59 350.547 111.19 352.443 111.79 C364.518 115.744 373.366 121.497 382.41 130.363 C383.111 131.028 383.813 131.694 384.535 132.379 C392.968 141.009 397.863 152.133 400.727 163.723 C400.931 164.526 401.136 165.329 401.347 166.157 C401.798 167.93 402.245 169.704 402.689 171.479 C403.455 174.541 404.232 177.599 405.01 180.657 C406.454 186.342 407.875 192.033 409.287 197.727 C409.872 200.08 410.461 202.431 411.055 204.782 C411.928 208.242 412.788 211.704 413.645 215.168 C413.908 216.201 414.172 217.233 414.443 218.297 C416.015 224.73 416.837 230.943 417.191 237.558 C417.379 239.961 417.736 242.058 418.41 244.363 C408.752 243.265 400.055 240.38 390.933 237.221 C386.511 235.718 382.053 234.327 377.598 232.926 C370.239 230.603 362.91 228.204 355.598 225.738 C348.649 223.398 341.677 221.224 334.631 219.2 C328.959 217.558 323.373 215.705 317.781 213.807 C310.948 211.504 304.059 209.399 297.16 207.301 C290.416 205.249 283.708 203.189 277.098 200.738 C271.623 198.714 266.093 197.108 260.473 195.551 C251.757 193.134 243.253 190.287 234.732 187.261 C227.024 184.537 219.255 182.181 211.396 179.94 C208.031 178.963 204.689 177.915 201.348 176.863 C200.691 176.657 200.034 176.45 199.358 176.238 C198.036 175.822 196.715 175.405 195.394 174.988 C192.736 174.151 190.076 173.32 187.416 172.49 C186.07 172.069 184.725 171.649 183.379 171.227 C180.223 170.239 177.065 169.258 173.902 168.289 C164.861 165.506 155.883 162.547 146.91 159.551 C146.263 159.335 145.615 159.118 144.948 158.896 C138.207 156.644 131.469 154.384 124.734 152.113 C115.204 148.907 105.68 145.782 96.011 143.017 C91.35 141.674 86.83 140.1 82.297 138.382 C79.232 137.301 76.153 136.421 73.02 135.559 C64.726 133.215 56.585 130.453 48.439 127.642 C36.367 123.487 24.717 119.774 11.848 119.988 C11.395 119.994 11.395 119.994 9.102 120.021 C-8.174 120.431 -21.418 127.228 -33.59 139.363 C-34.106 139.878 -34.622 140.392 -35.153 140.922 C-39.655 145.415 -39.655 145.415 -41.773 147.583 C-44.5 150.356 -47.279 152.987 -50.238 155.512 C-55.989 160.482 -61.254 165.958 -66.59 171.363 C-78.161 183.085 -78.161 183.085 -82.496 186.77 C-88.718 192.079 -94.343 198.051 -100.09 203.863 C-113.31 217.234 -113.31 217.234 -119.507 222.499 C-122.294 224.993 -124.921 227.639 -127.551 230.297 C-128.073 230.824 -128.595 231.352 -129.132 231.895 C-131.3 234.091 -133.464 236.29 -135.625 238.494 C-137.221 240.12 -138.823 241.74 -140.426 243.359 C-140.915 243.862 -141.405 244.365 -141.909 244.884 C-143.099 246.082 -144.34 247.228 -145.59 248.363 C-146.25 248.363 -146.91 248.363 -147.59 248.363 C-147.59 249.023 -147.59 249.683 -147.59 250.363 C-148.865 251.615 -148.865 251.615 -150.746 253.145 C-154.686 256.495 -158.355 260.04 -161.996 263.707 C-162.569 264.283 -163.142 264.86 -163.733 265.454 C-165.52 267.255 -167.306 269.059 -169.09 270.863 C-171.451 273.252 -173.816 275.637 -176.184 278.02 C-176.446 278.286 -176.446 278.286 -177.772 279.633 C-180.591 282.47 -183.48 285.168 -186.508 287.781 C-190.63 291.35 -194.479 295.141 -198.309 299.02 C-199.011 299.725 -199.713 300.431 -200.436 301.159 C-202.657 303.391 -204.874 305.627 -207.09 307.863 C-210.014 310.814 -212.941 313.762 -215.871 316.707 C-216.527 317.371 -217.182 318.035 -217.857 318.718 C-221.653 322.533 -225.569 326.125 -229.642 329.64 C-232.779 332.416 -235.712 335.382 -238.652 338.363 C-239.288 339.003 -239.924 339.642 -240.578 340.301 C-242.585 342.319 -244.588 344.341 -246.59 346.363 C-261.381 361.304 -261.381 361.304 -267.43 366.426 C-273.233 371.631 -278.608 377.324 -284.09 382.863 C-298.461 397.386 -298.461 397.386 -304.47 402.488 C-309.275 406.739 -313.794 411.303 -318.344 415.823 C-319.547 417.014 -320.754 418.2 -321.966 419.382 C-331.325 428.514 -339.521 437.406 -343.465 450.176 C-343.659 450.787 -343.659 450.787 -344.645 453.883 C-349.125 470.377 -345.865 486.562 -342.59 502.926 C-342.174 505.062 -341.76 507.199 -341.347 509.336 C-340.308 514.693 -339.249 520.046 -338.182 525.397 C-337.637 528.126 -337.096 530.856 -336.556 533.585 C-335.131 540.784 -333.693 547.979 -332.242 555.172 C-329.587 568.332 -326.989 581.503 -324.402 594.676 C-324.173 595.844 -323.943 597.012 -323.707 598.216 C-319.708 618.585 -315.754 638.962 -311.808 659.342 C-307.075 683.779 -302.29 708.206 -297.464 732.625 C-294.008 750.117 -290.594 767.617 -287.215 785.124 C-279.071 827.309 -270.787 869.468 -262.367 911.6 C-261.966 913.606 -261.566 915.613 -261.165 917.619 C-260.42 921.352 -259.673 925.084 -258.926 928.816 C-258.703 929.93 -258.481 931.044 -258.252 932.192 C-258.047 933.214 -257.842 934.237 -257.63 935.29 C-257.453 936.178 -257.275 937.066 -257.092 937.981 C-256.77 939.51 -256.418 941.033 -256.031 942.547 C-255.244 945.789 -255.534 949.042 -255.59 952.363 C-262.899 952.882 -268.708 951.019 -275.59 948.676 C-277.417 948.068 -279.244 947.46 -281.072 946.853 C-282.395 946.413 -283.718 945.972 -285.04 945.529 C-290.64 943.659 -296.268 941.882 -301.902 940.117 C-304.582 939.271 -307.261 938.423 -309.939 937.574 C-311.687 937.023 -313.435 936.477 -315.186 935.935 C-334.988 929.794 -351.714 920.847 -362.59 902.363 C-367.122 893.752 -369.844 885.481 -371.605 875.938 C-371.851 874.684 -372.096 873.43 -372.348 872.138 C-372.859 869.513 -373.364 866.888 -373.857 864.259 C-374.555 860.547 -375.27 856.839 -375.99 853.131 C-377.334 846.18 -378.646 839.223 -379.949 832.264 C-380.351 830.116 -380.755 827.968 -381.158 825.821 C-386.646 796.624 -392.005 767.405 -397.359 738.184 C-403.017 707.297 -408.732 676.421 -414.494 645.553 C-426.72 580.061 -438.78 514.539 -450.655 448.983 C-451.148 446.264 -451.641 443.544 -452.135 440.824 C-452.9 436.612 -453.662 432.4 -454.422 428.187 C-454.699 426.657 -454.976 425.128 -455.254 423.599 C-459.827 398.419 -459.965 375.287 -445.777 352.988 C-440.425 345.393 -433.839 339.385 -426.82 333.375 C-423.971 330.805 -421.286 328.092 -418.59 325.363 C-414.696 321.421 -410.738 317.663 -406.516 314.07 C-403.47 311.371 -400.661 308.443 -397.805 305.547 C-395.813 303.584 -393.777 301.742 -391.652 299.926 C-387.641 296.489 -383.961 292.771 -380.277 288.988 C-377.504 286.279 -374.62 283.75 -371.691 281.211 C-368.244 278.18 -364.921 275.021 -361.59 271.863 C-360.091 270.448 -358.593 269.032 -357.094 267.617 C-356.342 266.907 -355.591 266.197 -354.817 265.465 C-351.395 262.235 -347.962 259.018 -344.527 255.801 C-343.204 254.561 -341.882 253.322 -340.559 252.082 C-339.905 251.47 -339.251 250.857 -338.578 250.227 C-336.571 248.346 -334.565 246.464 -332.559 244.582 C-329.233 241.462 -325.906 238.344 -322.578 235.226 C-321.238 233.97 -319.898 232.714 -318.559 231.458 C-305.687 219.379 -305.687 219.379 -299.277 213.867 C-296.865 211.717 -294.627 209.41 -292.363 207.105 C-290.542 205.316 -288.653 203.65 -286.715 201.988 C-283.705 199.397 -280.879 196.691 -278.09 193.863 C-275.362 191.098 -272.605 188.45 -269.652 185.926 C-265.561 182.42 -261.82 178.609 -258.035 174.777 C-255.299 172.076 -252.44 169.572 -249.52 167.074 C-247.457 165.245 -245.524 163.327 -243.59 161.363 C-241.05 158.784 -238.465 156.341 -235.715 153.988 C-232.523 151.247 -229.547 148.356 -226.59 145.363 C-223.694 142.432 -220.787 139.599 -217.652 136.926 C-214.301 134.062 -211.184 131 -208.09 127.863 C-204.421 124.145 -200.658 120.627 -196.684 117.238 C-193.545 114.428 -190.618 111.412 -187.661 108.415 C-184.416 105.143 -181.054 102.094 -177.551 99.105 C-174.5 96.395 -171.681 93.463 -168.816 90.559 C-166.144 87.923 -163.336 85.486 -160.488 83.043 C-157.999 80.84 -155.695 78.48 -153.367 76.109 C-151.524 74.299 -149.612 72.61 -147.652 70.926 C-144.844 68.507 -142.19 66.004 -139.59 63.363 C-137.03 60.763 -134.422 58.301 -131.652 55.926 C-127.924 52.722 -124.48 49.297 -121.059 45.77 C-119.013 43.776 -116.934 41.9 -114.777 40.031 C-111.423 37.123 -108.204 34.109 -105.012 31.024 C-74.79 1.972 -41.668 -10.943 0 0 Z " fill="#0354AA" transform="translate(532.58984375,53.63671875)"/>
<path d="M0 0 C0 23.76 0 47.52 0 72 C-0.66 72 -1.32 72 -2 72 C-2.021 72.804 -2.041 73.609 -2.062 74.438 C-3.832 81.162 -8.918 87.012 -14.723 90.816 C-21.585 94.383 -29.002 96.906 -36.25 99.562 C-40.277 101.039 -44.126 102.875 -47.996 104.719 C-50.37 105.731 -52.659 106.559 -55.109 107.344 C-60.829 109.209 -66.295 111.613 -71.812 114 C-82.595 118.621 -93.45 122.991 -104.396 127.207 C-110.552 129.591 -116.584 132.13 -122.576 134.901 C-125.689 136.312 -128.852 137.519 -132.062 138.688 C-133.434 139.193 -134.805 139.699 -136.176 140.207 C-136.553 140.347 -136.553 140.347 -138.463 141.053 C-152.027 146.116 -165.521 151.369 -178.951 156.774 C-187.214 160.096 -195.502 163.356 -203.79 166.615 C-213.278 170.346 -222.761 174.092 -232.238 177.852 C-234.38 178.701 -236.521 179.55 -238.663 180.399 C-241.83 181.655 -244.997 182.911 -248.163 184.169 C-258.951 188.456 -269.744 192.709 -280.629 196.744 C-284.077 198.029 -287.508 199.353 -290.938 200.688 C-291.991 201.088 -293.044 201.489 -294.129 201.902 C-295.853 202.562 -297.572 203.236 -299.277 203.941 C-306.302 206.649 -313.542 206.751 -321 207 C-321.99 207.041 -322.98 207.082 -324 207.125 C-338.121 207.439 -351.043 205.748 -364 200 C-372.42 196.533 -380.933 193.289 -389.421 189.991 C-391.797 189.068 -394.173 188.145 -396.549 187.221 C-404.434 184.155 -412.323 181.1 -420.228 178.083 C-423.111 176.957 -425.963 175.77 -428.812 174.562 C-434.229 172.281 -439.708 170.208 -445.216 168.16 C-451.531 165.812 -457.774 163.31 -464.016 160.776 C-471.402 157.798 -478.817 154.908 -486.266 152.09 C-487.159 151.752 -488.052 151.414 -488.973 151.065 C-492.664 149.669 -496.356 148.274 -500.05 146.884 C-518.074 140.094 -518.074 140.094 -526.642 136.057 C-530.722 134.228 -534.948 132.844 -539.188 131.438 C-544.701 129.608 -549.878 127.64 -555.032 124.957 C-558.406 123.316 -561.944 122.179 -565.5 121 C-570.558 119.323 -575.248 117.425 -579.982 114.977 C-583.399 113.323 -586.968 112.144 -590.562 110.938 C-595.815 109.155 -600.915 107.231 -606 105 C-608.703 103.862 -611.414 102.744 -614.125 101.625 C-614.864 101.318 -615.603 101.012 -616.365 100.696 C-620.894 98.827 -625.453 97.1 -630.062 95.438 C-640.173 91.555 -646.166 85.587 -651.561 76.317 C-653.204 72.531 -653.363 69.916 -653.341 65.801 C-653.341 65.108 -653.341 64.415 -653.342 63.7 C-653.34 61.427 -653.317 59.155 -653.293 56.883 C-653.287 55.3 -653.283 53.716 -653.28 52.133 C-653.269 47.98 -653.239 43.828 -653.206 39.675 C-653.175 35.432 -653.162 31.189 -653.146 26.945 C-653.114 18.63 -653.063 10.315 -653 2 C-649.808 3.255 -646.821 4.606 -643.812 6.25 C-638.308 9.047 -632.6 10.879 -626.742 12.769 C-621.388 14.505 -616.221 16.488 -611.051 18.719 C-606.747 20.526 -602.377 22.141 -598 23.765 C-593.735 25.348 -589.488 26.97 -585.25 28.625 C-580.263 30.554 -575.24 32.291 -570.145 33.91 C-565.699 35.451 -561.359 37.231 -557 39 C-555.404 39.644 -553.807 40.287 -552.211 40.93 C-551.423 41.247 -550.635 41.564 -549.823 41.891 C-536.661 47.181 -523.413 52.166 -510.047 56.914 C-501.602 59.924 -493.272 63.206 -485.004 66.672 C-477.616 69.761 -470.272 72.664 -462.637 75.102 C-459.365 76.216 -456.278 77.615 -453.145 79.066 C-450.958 80.018 -448.771 80.774 -446.5 81.5 C-443.561 82.441 -440.795 83.506 -438 84.812 C-430.881 88.072 -423.39 90.438 -416 93 C-410.457 94.928 -405.06 96.931 -399.75 99.438 C-394.758 101.769 -389.643 103.511 -384.409 105.195 C-380.242 106.548 -376.311 108.129 -372.344 109.973 C-368.233 111.775 -364.01 113.241 -359.766 114.695 C-357.297 115.55 -354.848 116.46 -352.422 117.43 C-335.428 123.722 -314.648 123.387 -297.938 116.25 C-292.452 113.957 -286.933 111.876 -281.312 109.938 C-275.562 107.941 -269.927 105.791 -264.324 103.406 C-252.388 98.357 -240.362 93.616 -228.062 89.522 C-223.912 88.118 -219.933 86.552 -215.961 84.699 C-209.238 81.581 -202.34 78.968 -195.413 76.343 C-193.2 75.505 -190.99 74.661 -188.779 73.816 C-182.084 71.265 -175.379 68.768 -168.613 66.406 C-163.611 64.637 -158.845 62.605 -154.044 60.358 C-148.081 57.698 -141.949 55.446 -135.847 53.127 C-131.531 51.487 -127.219 49.835 -122.906 48.184 C-122.011 47.841 -121.116 47.499 -120.194 47.146 C-111.271 43.729 -102.372 40.252 -93.475 36.768 C-49.925 19.717 -49.925 19.717 -32.312 13.562 C-22.614 10.173 -13.654 6.424 -4.688 1.391 C-2 0 -2 0 0 0 Z " fill="#013A83" transform="translate(957,845)"/>
<path d="M0 0 C0.33 0 0.66 0 1 0 C1.159 0.944 1.317 1.887 1.48 2.859 C4.366 18.739 9.455 32.037 23 41.938 C35.613 50.061 47.751 51.303 62.547 51.274 C63.994 51.279 65.44 51.284 66.887 51.29 C70.835 51.304 74.783 51.306 78.731 51.305 C83 51.307 87.269 51.32 91.538 51.332 C100.858 51.354 110.178 51.362 119.498 51.367 C125.324 51.371 131.15 51.377 136.975 51.384 C153.124 51.404 169.272 51.42 185.42 51.423 C185.936 51.423 185.936 51.423 188.548 51.424 C190.639 51.424 192.731 51.425 194.823 51.425 C195.342 51.425 195.342 51.425 197.969 51.426 C199.009 51.426 200.048 51.426 201.119 51.426 C217.964 51.43 234.808 51.457 251.652 51.494 C268.97 51.532 286.288 51.551 303.605 51.552 C313.319 51.552 323.033 51.561 332.746 51.59 C341.017 51.614 349.287 51.622 357.558 51.607 C361.772 51.599 365.987 51.6 370.201 51.623 C374.069 51.644 377.936 51.641 381.804 51.62 C383.846 51.615 385.887 51.634 387.928 51.655 C402.579 51.523 416.241 46.92 427.242 36.973 C437.351 26.425 440.375 13.9 443 0 C444.031 0.784 445.062 1.567 446.125 2.375 C455.041 9.05 464.118 15.47 473.406 21.616 C480.323 26.198 487.195 30.845 494.062 35.5 C494.675 35.915 495.288 36.33 495.919 36.758 C504.701 42.716 513.432 48.735 522 55 C522.062 58.25 522.062 58.25 521 62 C518.247 63.948 515.17 64.901 512 66 C510.397 66.653 508.796 67.313 507.199 67.98 C505.363 68.719 503.526 69.454 501.688 70.188 C500.66 70.598 499.633 71.009 498.574 71.432 C485.176 76.761 471.715 81.929 458.259 87.11 C457.327 87.469 456.396 87.827 455.437 88.197 C453.692 88.869 451.948 89.54 450.203 90.21 C444.449 92.426 438.72 94.698 433 97 C424.903 100.254 416.801 103.483 408.65 106.598 C405.488 107.812 402.332 109.038 399.177 110.269 C388.521 114.426 377.838 118.512 367.153 122.593 C349.667 129.274 332.207 136.013 314.799 142.896 C309.823 144.858 304.837 146.792 299.848 148.721 C296.381 150.065 292.924 151.429 289.474 152.816 C283.826 155.077 278.155 157.281 272.48 159.477 C271.419 159.888 270.357 160.299 269.264 160.723 C265.905 162.024 262.546 163.325 259.188 164.625 C255.811 165.933 252.434 167.24 249.058 168.548 C246.966 169.359 244.873 170.169 242.781 170.979 C241.832 171.346 240.884 171.714 239.907 172.092 C239.078 172.413 238.249 172.734 237.394 173.065 C235.731 173.715 234.079 174.393 232.437 175.094 C223.014 178.598 211.437 176.533 202.55 172.559 C201.325 171.994 200.103 171.425 198.883 170.851 C195.613 169.373 192.243 168.169 188.875 166.938 C187.534 166.438 186.192 165.938 184.852 165.438 C184.205 165.196 183.558 164.955 182.892 164.707 C175.958 162.115 169.059 159.468 162.25 156.562 C157.374 154.502 152.439 152.724 147.438 151 C141.661 149.008 136.138 146.776 130.613 144.152 C126.774 142.459 122.809 141.237 118.816 139.957 C116.389 139.132 114.13 138.21 111.812 137.125 C106.771 134.788 101.543 133.035 96.299 131.214 C91.635 129.589 87.032 127.872 82.461 126 C76.042 123.392 69.553 120.952 63.062 118.527 C59.236 117.095 55.429 115.615 51.625 114.125 C43.775 111.062 35.906 108.051 28.033 105.049 C10.655 98.421 -6.694 91.716 -24.027 84.971 C-33.275 81.374 -42.525 77.787 -51.812 74.293 C-53.946 73.485 -56.08 72.677 -58.214 71.868 C-60.12 71.15 -62.031 70.445 -63.942 69.74 C-75.129 65.497 -75.129 65.497 -79 61 C-79.426 58.078 -79.426 58.078 -79 55 C-77.079 52.977 -77.079 52.977 -74.391 51.195 C-73.415 50.534 -72.439 49.873 -71.433 49.191 C-70.383 48.509 -69.332 47.827 -68.25 47.125 C-67.717 46.768 -67.717 46.768 -65.022 44.959 C-62.026 42.954 -59.014 40.976 -56 39 C-53.978 37.647 -51.957 36.293 -49.938 34.938 C-49.494 34.645 -49.494 34.645 -47.25 33.164 C-39.737 28.161 -32.304 23.039 -24.853 17.946 C-22.059 16.04 -19.261 14.142 -16.461 12.246 C-15.593 11.657 -14.725 11.067 -13.83 10.46 C-12.189 9.345 -10.547 8.233 -8.902 7.124 C-8.167 6.624 -7.433 6.124 -6.676 5.609 C-6.356 5.393 -6.356 5.393 -4.736 4.296 C-2.988 2.991 -1.536 1.541 0 0 Z " fill="#FCFCFD" transform="translate(409,728)"/>
<path d="M0 0 C3.5 1.688 3.5 1.688 6 4 C6.763 4.701 7.526 5.403 8.312 6.125 C11.434 11.442 11.529 16.772 10.125 22.688 C5.55 29.819 -2.307 33.947 -9.27 38.527 C-14.008 41.652 -18.688 44.861 -23.375 48.062 C-24.313 48.703 -25.251 49.343 -26.217 50.002 C-29.145 52.001 -32.073 54 -35 56 C-37.928 58 -40.856 60 -43.785 61.998 C-45.659 63.278 -47.532 64.561 -49.402 65.846 C-53.241 68.476 -57.075 71.082 -61.047 73.508 C-62.145 74.186 -63.243 74.864 -64.375 75.562 C-65.29 76.1 -66.205 76.638 -67.148 77.191 C-69 79 -69 79 -69.602 81.965 C-68.786 86.081 -67.474 86.669 -64 89 C-60.845 90.492 -57.605 91.721 -54.34 92.949 C-53.379 93.319 -52.418 93.689 -51.428 94.07 C-48.267 95.284 -45.103 96.486 -41.938 97.688 C-39.727 98.534 -37.517 99.382 -35.307 100.231 C-30.765 101.974 -26.221 103.712 -21.676 105.447 C-12.648 108.896 -3.636 112.385 5.377 115.874 C8.116 116.934 10.855 117.992 13.595 119.049 C21.77 122.203 29.943 125.364 38.105 128.551 C40.193 129.364 42.28 130.178 44.367 130.991 C46.213 131.711 48.057 132.435 49.901 133.16 C57.083 135.958 64.309 138.481 71.645 140.841 C75.681 142.235 79.468 143.983 83.32 145.812 C87.161 147.515 91.117 148.759 95.113 150.043 C98.531 151.176 101.838 152.501 105.168 153.867 C108.776 155.31 112.418 156.651 116.062 158 C121.042 159.849 125.925 161.794 130.754 164.012 C134.602 165.705 138.543 167.154 142.473 168.645 C145.547 169.826 148.6 171.046 151.651 172.286 C157.802 174.785 163.985 177.031 170.305 179.07 C173.532 180.184 176.573 181.571 179.668 183.004 C182.342 184.146 185.046 185.044 187.812 185.938 C191.893 187.262 195.858 188.711 199.812 190.375 C200.806 190.789 201.8 191.203 202.824 191.629 C205.055 192.592 207.265 193.605 209.457 194.652 C222.143 200.543 234.17 201.084 247.334 196.385 C252.286 194.48 257.177 192.444 262.062 190.375 C265.035 189.15 268.012 187.935 270.988 186.719 C272.925 185.926 274.861 185.129 276.795 184.328 C283.245 181.666 289.745 179.267 296.346 177.008 C301.12 175.359 305.655 173.415 310.218 171.26 C315.384 168.92 320.713 166.979 326.018 164.981 C329.737 163.58 333.45 162.167 337.164 160.754 C337.95 160.455 338.736 160.156 339.546 159.848 C349.22 156.164 358.86 152.395 368.5 148.625 C369.345 148.295 370.189 147.965 371.059 147.624 C372.717 146.976 374.376 146.327 376.034 145.679 C379.225 144.431 382.417 143.183 385.608 141.936 C387.236 141.299 388.864 140.661 390.492 140.023 C392.933 139.066 395.375 138.111 397.816 137.156 C398.546 136.87 399.275 136.583 400.027 136.288 C404.127 134.687 408.243 133.216 412.438 131.875 C416.16 130.675 419.652 129.297 423.188 127.625 C428.514 125.112 433.966 123.175 439.548 121.319 C443.387 120.017 447.053 118.545 450.723 116.82 C458.668 113.145 466.869 110.11 475.041 106.983 C479.94 105.109 484.835 103.223 489.73 101.34 C490.697 100.968 491.663 100.597 492.659 100.214 C501.037 96.992 509.398 93.727 517.75 90.438 C518.914 89.979 520.078 89.521 521.277 89.048 C523.852 88.033 526.426 87.017 529 86 C529.33 83.69 529.66 81.38 530 79 C518.74 71.116 507.472 63.251 496.01 55.662 C489.307 51.22 482.65 46.71 476 42.188 C474.961 41.482 473.922 40.776 472.852 40.049 C470.856 38.691 468.862 37.329 466.871 35.965 C464.953 34.652 463.03 33.349 461.102 32.053 C460.205 31.443 459.307 30.832 458.383 30.203 C457.588 29.667 456.792 29.131 455.973 28.579 C452.317 25.653 451.359 22.668 450.734 18.027 C450.436 12.503 451.634 7.74 455.336 3.453 C459.728 -0.36 464.089 -0.587 469.742 -0.664 C477.384 0.894 483.845 6.122 490.062 10.625 C491.561 11.696 493.059 12.766 494.559 13.836 C494.932 14.103 494.932 14.103 496.82 15.452 C500.063 17.755 503.341 20.005 506.625 22.25 C515.225 28.142 523.788 34.087 532.336 40.055 C535.891 42.537 539.458 45.001 543.039 47.445 C544.547 48.484 546.055 49.523 547.562 50.562 C548.234 51.014 548.906 51.466 549.597 51.931 C556.394 56.646 561.428 61.978 564 70 C564.355 72.727 564.377 75.379 564.312 78.125 C564.316 78.815 564.319 79.504 564.322 80.215 C564.291 83.176 564.155 85.629 563.008 88.379 C561.174 93.148 561.601 98.369 561.521 103.432 C561.301 110.551 560.304 117.423 555 122.688 C545.419 131.189 530.767 134.606 518.938 139.062 C516.118 140.128 513.299 141.195 510.48 142.262 C508.739 142.921 506.997 143.579 505.254 144.236 C499.473 146.419 493.732 148.69 488 151 C486.334 151.667 484.667 152.334 483 153 C480.593 153.962 478.186 154.925 475.781 155.895 C465.352 160.091 454.899 164.275 444.312 168.062 C439.67 169.729 435.1 171.551 430.526 173.396 C424.748 175.718 418.94 177.959 413.125 180.188 C400.008 185.217 386.909 190.294 373.812 195.375 C373.28 195.581 373.28 195.581 370.587 196.626 C369.526 197.038 368.465 197.45 367.371 197.874 C365.253 198.696 363.134 199.518 361.016 200.34 C359.981 200.741 358.947 201.142 357.881 201.556 C351.688 203.959 345.493 206.358 339.297 208.754 C338.937 208.893 338.937 208.893 337.113 209.598 C333.879 210.849 330.646 212.098 327.411 213.347 C322.492 215.249 317.578 217.161 312.684 219.129 C308.479 220.818 304.249 222.427 300 224 C295.647 225.621 291.305 227.255 287 229 C279.401 232.078 271.694 234.889 264.007 237.739 C260.68 238.977 257.378 240.25 254.098 241.605 C231.633 250.594 211.795 244.484 190.27 235.32 C186.344 233.735 182.372 232.328 178.375 230.938 C171.199 228.44 164.143 225.767 157.152 222.785 C151.098 220.215 145.039 217.981 138.781 215.957 C136.372 215.128 134.118 214.202 131.812 213.125 C127.55 211.152 123.182 209.603 118.75 208.062 C112.674 205.949 106.647 203.754 100.652 201.418 C95.009 199.227 89.346 197.087 83.685 194.942 C79.393 193.311 75.115 191.654 70.855 189.941 C66.594 188.228 62.308 186.594 58 185 C53.719 183.416 49.46 181.792 45.227 180.086 C39.643 177.841 34.013 175.728 28.375 173.625 C27.851 173.429 27.851 173.429 25.201 172.437 C20.537 170.691 15.87 168.95 11.199 167.223 C10.845 167.091 10.845 167.091 9.051 166.425 C7.213 165.743 5.374 165.065 3.535 164.387 C0.86 163.337 -1.731 162.231 -4.344 161.043 C-8.995 158.952 -13.736 157.263 -18.562 155.625 C-24.962 153.417 -31.346 151.18 -37.688 148.812 C-38.888 148.365 -40.088 147.918 -41.324 147.457 C-44.05 146.377 -46.695 145.245 -49.359 144.031 C-54.002 141.944 -58.74 140.303 -63.562 138.688 C-92.851 128.577 -92.851 128.577 -98.035 119.109 C-99.873 115.041 -101.101 111.156 -101.316 106.711 C-101.359 105.86 -101.401 105.009 -101.444 104.132 C-101.483 103.222 -101.522 102.312 -101.562 101.375 C-101.583 100.907 -101.583 100.907 -101.687 98.54 C-102.972 67.186 -102.972 67.186 -96.438 59.188 C-90.504 53.066 -83.551 48.456 -76.516 43.708 C-72.89 41.246 -69.304 38.729 -65.713 36.216 C-50.667 25.695 -35.514 15.327 -20.25 5.125 C-19.636 4.714 -19.022 4.303 -18.389 3.879 C-12.111 -0.298 -7.543 -0.711 0 0 Z " fill="#033B82" transform="translate(400,704)"/>
<path d="M0 0 C0.631 -0.003 0.631 -0.003 3.826 -0.021 C7.275 -0.039 10.723 -0.038 14.172 -0.032 C17.059 -0.029 19.946 -0.035 22.834 -0.041 C29.651 -0.055 36.469 -0.053 43.287 -0.042 C50.299 -0.031 57.311 -0.045 64.324 -0.071 C70.362 -0.094 76.401 -0.1 82.439 -0.094 C86.038 -0.091 89.636 -0.093 93.235 -0.111 C97.253 -0.129 101.271 -0.115 105.289 -0.098 C106.467 -0.107 107.645 -0.117 108.859 -0.127 C120.249 -0.026 127.976 3.168 136.202 11.033 C142.05 17.523 143.452 24.38 143.479 32.994 C143.485 34.081 143.49 35.169 143.496 36.289 C143.497 36.879 143.497 36.879 143.5 39.86 C143.505 41.113 143.51 42.366 143.515 43.656 C143.527 47.082 143.534 50.508 143.539 53.934 C143.542 56.078 143.546 58.223 143.55 60.368 C143.564 67.09 143.574 73.812 143.578 80.534 C143.582 88.271 143.6 96.008 143.629 103.745 C143.65 109.741 143.66 115.737 143.662 121.733 C143.663 125.307 143.668 128.881 143.686 132.455 C143.706 136.447 143.702 140.438 143.695 144.43 C143.704 145.601 143.713 146.771 143.723 147.977 C143.671 158.17 141.991 166.487 135.37 174.427 C132.109 177.6 128.478 179.583 124.339 181.404 C123.583 181.748 122.828 182.093 122.049 182.448 C119.106 183.486 116.869 183.663 113.755 183.678 C112.644 183.688 111.532 183.698 110.387 183.708 C109.177 183.709 107.967 183.71 106.721 183.71 C106.08 183.715 106.08 183.715 102.836 183.736 C99.326 183.758 95.815 183.766 92.304 183.771 C90.107 183.775 87.91 183.781 85.713 183.788 C78.038 183.813 70.363 183.826 62.687 183.83 C55.551 183.833 48.415 183.863 41.279 183.905 C35.138 183.94 28.998 183.955 22.858 183.956 C19.196 183.957 15.535 183.965 11.874 183.994 C7.784 184.025 3.694 184.016 -0.396 184.003 C-1.596 184.018 -2.796 184.033 -4.032 184.048 C-13.55 183.966 -21.793 181.273 -28.661 174.404 C-35.698 165.149 -37.109 156.023 -37.05 144.607 C-37.055 143.354 -37.06 142.101 -37.065 140.81 C-37.076 137.396 -37.074 133.983 -37.064 130.57 C-37.057 126.982 -37.064 123.394 -37.069 119.806 C-37.074 113.781 -37.067 107.757 -37.052 101.732 C-37.036 94.789 -37.041 87.846 -37.058 80.903 C-37.072 74.92 -37.073 68.937 -37.066 62.953 C-37.061 59.389 -37.06 55.826 -37.07 52.262 C-37.081 48.284 -37.066 44.307 -37.05 40.33 C-37.056 39.165 -37.062 37.999 -37.068 36.798 C-36.986 26.167 -35.175 17.273 -27.661 9.404 C-18.913 1.563 -11.526 -0.044 0 0 Z " fill="#0058E5" transform="translate(467.661376953125,574.595947265625)"/>
<path d="M0 0 C0.612 -0.003 0.612 -0.003 3.71 -0.016 C7.035 -0.027 10.358 -0.019 13.683 -0.003 C17.181 0.011 20.68 0.005 24.179 0.001 C30.05 -0.001 35.921 0.012 41.792 0.035 C48.557 0.062 55.322 0.064 62.087 0.052 C68.626 0.041 75.165 0.047 81.704 0.061 C84.473 0.067 87.242 0.067 90.011 0.062 C93.885 0.057 97.759 0.076 101.633 0.098 C102.767 0.093 103.901 0.089 105.07 0.084 C115.493 0.181 124.631 1.975 132.252 9.502 C140.5 19.214 141.552 27.792 141.542 40.169 C141.549 41.42 141.556 42.672 141.563 43.961 C141.578 47.375 141.585 50.788 141.586 54.201 C141.588 56.34 141.592 58.478 141.597 60.616 C141.616 68.092 141.624 75.567 141.622 83.043 C141.621 89.986 141.642 96.928 141.674 103.87 C141.7 109.853 141.711 115.835 141.709 121.818 C141.709 125.381 141.714 128.944 141.736 132.508 C141.759 136.487 141.75 140.467 141.738 144.446 C141.749 145.61 141.76 146.773 141.772 147.972 C141.684 159.464 138.692 168.069 130.705 176.4 C127.192 179.41 123.599 181.04 119.252 182.502 C118.592 182.832 117.932 183.162 117.252 183.502 C115.551 183.601 113.847 183.637 112.143 183.642 C111.061 183.648 109.979 183.654 108.864 183.659 C107.671 183.661 106.479 183.662 105.25 183.663 C103.998 183.668 102.745 183.673 101.455 183.678 C98.013 183.69 94.57 183.697 91.127 183.702 C88.974 183.705 86.821 183.709 84.668 183.713 C77.924 183.727 71.18 183.737 64.437 183.741 C56.666 183.745 48.895 183.763 41.124 183.792 C35.111 183.813 29.098 183.823 23.086 183.825 C19.498 183.826 15.911 183.832 12.323 183.849 C8.312 183.869 4.3 183.865 0.289 183.858 C-0.888 183.867 -2.064 183.877 -3.276 183.886 C-13.462 183.835 -21.607 182.465 -29.069 175.244 C-29.346 174.956 -29.346 174.956 -30.748 173.502 C-31.491 172.759 -32.233 172.017 -32.998 171.252 C-38.422 162.729 -39.339 154.132 -39.298 144.234 C-39.308 142.955 -39.318 141.675 -39.329 140.357 C-39.355 136.879 -39.357 133.403 -39.351 129.925 C-39.349 127.008 -39.359 124.091 -39.369 121.173 C-39.391 114.285 -39.392 107.396 -39.38 100.507 C-39.368 93.431 -39.392 86.355 -39.435 79.279 C-39.47 73.174 -39.482 67.07 -39.476 60.965 C-39.472 57.331 -39.477 53.699 -39.505 50.065 C-39.535 46.009 -39.516 41.955 -39.493 37.898 C-39.501 37.307 -39.501 37.307 -39.539 34.313 C-39.408 23.817 -36.016 15.473 -28.561 8.002 C-20.596 0.838 -10.225 -0.087 0 0 Z " fill="#AFDBFD" transform="translate(689.748291015625,574.498291015625)"/>
<path d="M0 0 C1.119 -0.009 2.237 -0.017 3.39 -0.026 C4.001 -0.028 4.001 -0.028 7.095 -0.039 C8.387 -0.047 9.678 -0.055 11.009 -0.064 C15.289 -0.09 19.57 -0.105 23.851 -0.12 C25.328 -0.125 26.805 -0.13 28.282 -0.136 C34.429 -0.157 40.576 -0.176 46.724 -0.187 C55.515 -0.204 64.306 -0.237 73.097 -0.294 C79.288 -0.332 85.479 -0.352 91.67 -0.357 C95.363 -0.361 99.055 -0.373 102.748 -0.405 C106.874 -0.441 111 -0.437 115.127 -0.43 C116.337 -0.446 117.548 -0.462 118.796 -0.479 C126.546 -0.423 131.918 1.051 138.499 5.154 C138.953 5.432 138.953 5.432 141.249 6.841 C149.991 15.826 151.799 25.519 151.79 37.578 C151.796 38.828 151.803 40.077 151.81 41.365 C151.826 44.783 151.832 48.2 151.834 51.618 C151.835 53.758 151.839 55.899 151.845 58.04 C151.863 65.523 151.871 73.006 151.87 80.489 C151.869 87.439 151.89 94.388 151.921 101.337 C151.947 107.323 151.958 113.309 151.957 119.295 C151.956 122.861 151.962 126.427 151.983 129.993 C152.006 133.98 151.997 137.966 151.985 141.953 C151.996 143.116 152.007 144.279 152.019 145.478 C151.935 156.512 149.623 166.148 141.792 174.244 C135.915 179.139 128.972 182.266 121.315 182.301 C120.778 182.305 120.778 182.305 118.062 182.323 C116.883 182.325 115.705 182.328 114.491 182.331 C113.25 182.337 112.009 182.344 110.731 182.351 C106.612 182.371 102.493 182.382 98.374 182.392 C96.953 182.396 95.532 182.4 94.111 182.405 C87.43 182.424 80.749 182.438 74.068 182.446 C66.374 182.456 58.681 182.482 50.988 182.523 C45.031 182.553 39.074 182.568 33.117 182.571 C29.565 182.573 26.013 182.582 22.461 182.607 C18.488 182.635 14.515 182.631 10.542 182.624 C9.38 182.637 8.218 182.649 7.021 182.663 C-4.466 182.59 -13.083 179.599 -21.399 171.599 C-26.541 165.616 -28.617 158.59 -28.641 150.805 C-28.647 149.72 -28.653 148.635 -28.659 147.517 C-28.66 146.332 -28.661 145.146 -28.662 143.925 C-28.667 142.672 -28.672 141.42 -28.677 140.129 C-28.689 136.695 -28.697 133.261 -28.701 129.827 C-28.704 127.678 -28.708 125.529 -28.713 123.38 C-28.726 116.647 -28.736 109.914 -28.74 103.181 C-28.744 95.427 -28.762 87.674 -28.791 79.92 C-28.812 73.915 -28.822 67.911 -28.824 61.906 C-28.825 58.326 -28.831 54.745 -28.849 51.164 C-28.868 47.163 -28.864 43.161 -28.857 39.159 C-28.867 37.986 -28.876 36.813 -28.885 35.604 C-28.832 25.09 -27.134 15.835 -19.501 8.154 C-13.042 2.889 -8.371 0.048 0 0 Z " fill="#99D2FD" transform="translate(679.5008850097656,364.8460998535156)"/>
<path d="M0 0 C1.216 -0.005 2.432 -0.011 3.685 -0.016 C6.987 -0.027 10.288 -0.019 13.59 -0.003 C17.063 0.011 20.537 0.005 24.011 0.001 C29.839 -0.001 35.668 0.012 41.496 0.035 C48.214 0.062 54.932 0.064 61.651 0.052 C68.143 0.041 74.635 0.047 81.127 0.061 C83.877 0.067 86.627 0.067 89.378 0.062 C93.223 0.057 97.068 0.076 100.914 0.098 C102.043 0.093 103.171 0.089 104.334 0.084 C115.028 0.184 124.466 2.781 132.277 10.404 C140.192 19.58 140.779 30.706 140.716 42.364 C140.718 42.976 140.718 42.976 140.732 46.074 C140.743 49.394 140.74 52.714 140.731 56.034 C140.723 59.53 140.73 63.026 140.735 66.522 C140.74 72.387 140.733 78.253 140.719 84.118 C140.702 90.875 140.708 97.633 140.724 104.39 C140.738 110.221 140.74 116.051 140.732 121.882 C140.727 125.352 140.727 128.821 140.737 132.291 C140.747 136.161 140.732 140.029 140.716 143.899 C140.722 145.031 140.728 146.164 140.734 147.331 C140.649 158.017 138.616 166.507 131.328 174.502 C123.281 182.125 115.765 183.094 105.11 183.051 C103.8 183.061 102.49 183.071 101.14 183.082 C97.565 183.109 93.991 183.11 90.416 183.105 C87.422 183.103 84.428 183.113 81.434 183.122 C74.363 183.144 67.293 183.145 60.223 183.133 C52.953 183.121 45.684 183.146 38.414 183.188 C32.151 183.224 25.889 183.235 19.626 183.229 C15.895 183.225 12.164 183.23 8.433 183.258 C4.266 183.288 0.101 183.269 -4.066 183.246 C-5.286 183.262 -6.505 183.277 -7.762 183.293 C-16.862 183.181 -24.072 180.905 -30.756 174.508 C-38.511 165.333 -40.272 155.29 -40.19 143.586 C-40.197 142.344 -40.204 141.101 -40.211 139.822 C-40.226 136.447 -40.222 133.074 -40.21 129.7 C-40.199 126.148 -40.209 122.597 -40.215 119.045 C-40.222 113.084 -40.213 107.123 -40.194 101.161 C-40.172 94.295 -40.179 87.43 -40.201 80.564 C-40.219 74.641 -40.222 68.718 -40.211 62.795 C-40.205 59.269 -40.204 55.744 -40.218 52.219 C-40.231 48.285 -40.212 44.352 -40.19 40.418 C-40.198 39.268 -40.206 38.119 -40.214 36.935 C-40.11 26.861 -37.735 17.039 -30.672 9.502 C-22.141 1.508 -11.246 -0.097 0 0 Z " fill="#019DEC" transform="translate(470.67236328125,363.498291015625)"/>
<path d="M0 0 C0 0.33 0 0.66 0 1 C-0.37 1.013 -0.37 1.013 -2.244 1.076 C-5.642 1.193 -9.04 1.315 -12.438 1.438 C-13.602 1.477 -14.767 1.516 -15.967 1.557 C-22.36 1.791 -28.653 2.192 -35 3 C-35 3.66 -35 4.32 -35 5 C-36.895 5.481 -38.791 5.959 -40.688 6.438 C-41.215 6.571 -41.215 6.571 -43.887 7.246 C-47 8 -47 8 -49.832 8.473 C-50.547 8.647 -51.263 8.821 -52 9 C-52.33 9.66 -52.66 10.32 -53 11 C-53.66 10.34 -54.32 9.68 -55 9 C-36.827 0.693 -19.979 -2.475 0 0 Z " fill="#6390C4" transform="translate(517,50)"/>
<path d="M0 0 C0 6.3 -5.071 10.466 -9.25 14.688 C-9.798 15.268 -10.346 15.849 -10.91 16.447 C-14.739 20.326 -17.641 21.946 -23 23 C-17.052 15.891 -10.733 9.519 -3.699 3.48 C-2.423 2.368 -1.197 1.197 0 0 Z " fill="#2F6DB4" transform="translate(376,133)"/>
</svg>
