<?xml version="1.0" encoding="UTF-8"?>
<!-- Generator: visioncortex VTracer 0.6.12 -->
<svg version="1.1" xmlns="http://www.w3.org/2000/svg" width="1254" height="1254">
<path d="M0 0 C3.488 1.109 6.98 2.204 10.472 3.297 C14.347 4.509 18.22 5.722 22.093 6.939 C37.749 11.861 53.432 16.696 69.114 21.532 C73.459 22.872 77.804 24.213 82.148 25.554 C106.033 32.929 129.934 40.253 153.845 47.543 C182.386 56.245 210.892 65.054 239.391 73.89 C243.759 75.244 248.127 76.598 252.496 77.952 C253.339 78.213 254.183 78.475 255.052 78.744 C265.837 82.086 276.627 85.412 287.425 88.71 C288 88.885 288 88.885 290.908 89.773 C295.978 91.321 301.05 92.864 306.122 94.403 C314.358 96.905 322.574 99.458 330.75 102.151 C331.48 102.389 332.21 102.627 332.963 102.873 C350.437 108.698 363.48 119.999 371.75 136.44 C376.042 145.98 378.252 156.123 380.726 166.253 C381.246 168.342 381.767 170.432 382.29 172.521 C383.33 176.691 384.364 180.862 385.391 185.034 C386.707 190.372 388.05 195.702 389.406 201.03 C389.964 203.231 390.522 205.432 391.08 207.633 C391.425 208.996 391.771 210.359 392.118 211.722 C392.59 213.58 393.057 215.44 393.523 217.299 C393.782 218.325 394.041 219.351 394.307 220.408 C394.851 222.94 394.851 222.94 394.851 225.94 C395.577 226.113 396.304 226.287 397.052 226.465 C404.439 228.265 411.68 230.359 418.921 232.671 C420.041 233.025 421.161 233.379 422.315 233.744 C425.87 234.868 429.423 235.998 432.976 237.128 C436.464 238.234 439.953 239.339 443.441 240.444 C445.758 241.177 448.075 241.912 450.391 242.648 C456.298 244.519 462.212 246.361 468.143 248.154 C468.732 248.332 468.732 248.332 471.711 249.235 C473.942 249.909 476.175 250.579 478.409 251.242 C490.75 254.973 499.684 260.82 508.851 269.94 C509.55 270.604 510.248 271.268 510.968 271.952 C523.894 285.154 527.495 303.324 531.62 320.677 C532.446 324.133 533.294 327.583 534.139 331.034 C536.205 339.496 538.231 347.967 540.254 356.44 C541.071 359.86 541.89 363.279 542.71 366.698 C546.921 384.266 551.111 401.839 555.272 419.419 C563.244 453.099 571.352 486.745 579.472 520.389 C579.751 521.545 580.03 522.701 580.318 523.893 C582.876 534.491 585.433 545.089 587.994 555.686 C595.664 587.432 603.244 619.199 610.738 650.987 C612.788 659.682 614.855 668.372 616.929 677.061 C617.73 680.424 618.531 683.786 619.331 687.148 C619.865 689.386 620.4 691.623 620.936 693.859 C621.75 697.259 622.559 700.66 623.367 704.061 C623.605 705.05 623.844 706.04 624.089 707.059 C628.483 725.643 627.87 744.73 618.851 761.94 C618.506 762.634 618.161 763.328 617.805 764.043 C613.245 772.471 606.591 778.649 599.789 785.253 C598.605 786.416 597.422 787.581 596.24 788.747 C594.069 790.885 591.893 793.018 589.71 795.144 C585.026 799.724 580.595 804.336 576.402 809.366 C575.89 809.885 575.378 810.405 574.851 810.94 C574.191 810.94 573.531 810.94 572.851 810.94 C572.521 811.93 572.191 812.92 571.851 813.94 C571.191 813.94 570.531 813.94 569.851 813.94 C569.521 814.93 569.191 815.92 568.851 816.94 C566.414 819.628 566.414 819.628 563.851 821.94 C563.191 821.94 562.531 821.94 561.851 821.94 C561.727 822.227 561.727 822.227 561.099 823.676 C559.66 826.286 557.997 828.048 555.892 830.158 C555.078 830.978 554.264 831.799 553.425 832.644 C552.985 833.082 552.985 833.082 550.757 835.299 C550.306 835.752 550.306 835.752 548.023 838.04 C546.115 839.949 544.206 841.855 542.293 843.759 C539.838 846.202 537.392 848.655 534.949 851.11 C532.619 853.449 530.282 855.78 527.945 858.112 C527.065 858.996 526.184 859.881 525.277 860.792 C524.463 861.6 523.649 862.407 522.81 863.24 C522.451 863.598 522.451 863.598 520.635 865.41 C518.851 866.94 518.851 866.94 516.851 866.94 C516.521 867.93 516.191 868.92 515.851 869.94 C512.756 873.294 509.406 876.096 505.851 878.94 C504.173 880.595 502.508 882.264 500.851 883.94 C441.577 943.214 382.303 1002.488 323.029 1061.762 C322.487 1062.305 321.944 1062.847 321.385 1063.407 C319.952 1064.839 318.519 1066.272 317.085 1067.704 C314.547 1070.244 312.023 1072.798 309.501 1075.354 C304.306 1080.615 299.1 1085.865 293.888 1091.11 C290.746 1094.273 287.608 1097.44 284.478 1100.615 C281.433 1103.703 278.379 1106.781 275.318 1109.853 C274.162 1111.016 273.01 1112.182 271.862 1113.352 C263.316 1122.054 254.639 1129.598 242.976 1133.815 C241.927 1134.204 240.878 1134.594 239.796 1134.995 C234.357 1136.741 229.235 1137.179 223.539 1137.253 C223.188 1137.267 223.188 1137.267 221.412 1137.34 C207.06 1137.503 192.405 1131.353 178.914 1127.003 C177.102 1126.423 175.29 1125.843 173.479 1125.265 C169.746 1124.072 166.014 1122.876 162.282 1121.679 C154.909 1119.316 147.527 1116.979 140.144 1114.643 C135.954 1113.317 131.764 1111.988 127.574 1110.659 C126.679 1110.375 125.785 1110.091 124.863 1109.799 C117.445 1107.446 110.028 1105.091 102.611 1102.736 C100.591 1102.094 98.571 1101.453 96.55 1100.811 C95.186 1100.378 93.822 1099.945 92.457 1099.511 C92.117 1099.403 92.117 1099.403 90.394 1098.856 C86.924 1097.754 83.454 1096.652 79.984 1095.55 C53.319 1087.079 53.319 1087.079 42.863 1083.799 C28.071 1079.158 13.304 1074.449 -1.442 1069.663 C-2.177 1069.424 -2.913 1069.185 -3.671 1068.939 C-9.842 1066.936 -16.013 1064.932 -22.184 1062.927 C-43.295 1056.071 -64.425 1049.289 -85.616 1042.683 C-105.019 1036.635 -124.37 1030.434 -143.707 1024.18 C-163.23 1017.872 -163.23 1017.872 -172.598 1015.085 C-173.273 1014.884 -173.948 1014.683 -174.643 1014.476 C-175.285 1014.285 -175.927 1014.094 -176.589 1013.897 C-199.966 1006.913 -218.101 996.831 -230.063 974.788 C-234.079 966.657 -235.739 958.13 -237.586 949.315 C-237.967 947.557 -238.348 945.8 -238.731 944.043 C-239.702 939.56 -240.651 935.073 -241.593 930.585 C-242.137 927.998 -242.685 925.412 -243.236 922.826 C-244.237 918.116 -245.228 913.404 -246.211 908.69 C-246.363 907.964 -246.515 907.237 -246.672 906.489 C-247.097 904.448 -247.517 902.405 -247.934 900.362 C-248.17 899.213 -248.406 898.064 -248.649 896.881 C-249.149 893.94 -249.149 893.94 -249.149 889.94 C-249.851 889.773 -250.553 889.605 -251.276 889.433 C-259.377 887.459 -267.344 885.15 -275.313 882.702 C-275.962 882.502 -276.612 882.303 -277.281 882.098 C-280.711 881.044 -284.139 879.987 -287.567 878.926 C-291.071 877.842 -294.579 876.774 -298.089 875.709 C-300.824 874.877 -303.554 874.032 -306.284 873.184 C-308.195 872.594 -310.109 872.017 -312.023 871.44 C-329.999 865.808 -343.677 855.249 -352.836 838.69 C-355.601 832.802 -357.237 827.08 -358.605 820.733 C-358.818 819.769 -359.031 818.806 -359.251 817.813 C-361.381 808.077 -363.297 798.301 -365.161 788.51 C-365.529 786.588 -365.898 784.665 -366.268 782.743 C-367.256 777.593 -368.239 772.441 -369.221 767.29 C-369.845 764.022 -370.47 760.754 -371.095 757.487 C-377.52 723.919 -383.849 690.333 -390.124 656.736 C-394.487 633.38 -398.881 610.031 -403.348 586.694 C-403.568 585.544 -403.788 584.394 -404.015 583.21 C-405.133 577.372 -406.251 571.535 -407.369 565.698 C-414.554 528.195 -421.663 490.68 -428.586 453.128 C-428.761 452.182 -428.935 451.237 -429.115 450.263 C-431.032 439.864 -432.941 429.464 -434.841 419.062 C-435.711 414.305 -436.595 409.55 -437.489 404.797 C-438.058 401.771 -438.621 398.745 -439.184 395.719 C-439.444 394.33 -439.706 392.941 -439.971 391.554 C-444.262 369.082 -443.785 347.807 -431.149 327.94 C-425.914 321.036 -419.502 315.167 -413.004 309.475 C-409.361 306.241 -405.82 302.905 -402.274 299.565 C-395.614 293.302 -388.897 287.108 -382.149 280.94 C-374.113 273.574 -366.144 266.138 -358.236 258.635 C-354.269 254.883 -350.23 251.241 -346.107 247.662 C-342.885 244.829 -339.769 241.885 -336.649 238.94 C-335.25 237.625 -333.852 236.31 -332.454 234.995 C-331.019 233.643 -329.584 232.292 -328.149 230.94 C-312.696 216.393 -312.696 216.393 -304.903 209.444 C-301.105 205.991 -297.38 202.464 -293.649 198.94 C-288.422 194.002 -283.162 189.118 -277.793 184.335 C-273.533 180.477 -269.359 176.526 -265.172 172.588 C-261.189 168.845 -257.186 165.125 -253.149 161.44 C-248.445 157.145 -243.79 152.802 -239.149 148.44 C-234.508 144.078 -229.853 139.735 -225.149 135.44 C-219.767 130.526 -214.45 125.546 -209.139 120.555 C-205.016 116.683 -200.875 112.831 -196.711 109.003 C-190.896 103.655 -185.147 98.238 -179.402 92.816 C-174.203 87.915 -168.956 83.072 -163.665 78.272 C-161.875 76.613 -160.14 74.895 -158.446 73.139 C-156.149 70.94 -156.149 70.94 -154.149 70.94 C-154.149 70.28 -154.149 69.62 -154.149 68.94 C-152.75 67.53 -152.75 67.53 -150.774 65.878 C-150.033 65.246 -149.291 64.614 -148.528 63.964 C-147.743 63.296 -146.958 62.628 -146.149 61.94 C-139.076 55.724 -132.234 49.271 -125.389 42.806 C-120.94 38.608 -116.441 34.48 -111.872 30.413 C-108.061 26.952 -104.328 23.412 -100.586 19.878 C-98.402 17.822 -96.216 15.768 -94.03 13.714 C-92.505 12.276 -90.99 10.828 -89.477 9.378 C-63.075 -15.29 -31.32 -9.956 0 0 Z " fill="#02B1FA" transform="translate(556.1488952636719,68.05990600585938)"/>
<path d="M0 0 C0.408 -0.001 0.408 -0.001 2.47 -0.006 C5.219 -0.012 7.968 -0.01 10.717 -0.009 C12.7 -0.012 14.684 -0.015 16.668 -0.018 C22.133 -0.026 27.598 -0.028 33.064 -0.029 C38.953 -0.03 44.842 -0.038 50.731 -0.045 C64.287 -0.059 77.844 -0.065 91.4 -0.069 C98.1 -0.072 104.8 -0.075 111.499 -0.079 C134.434 -0.092 157.369 -0.103 180.305 -0.106 C181.744 -0.106 183.184 -0.107 184.624 -0.107 C186.068 -0.107 187.511 -0.107 188.954 -0.107 C191.85 -0.108 194.745 -0.108 197.641 -0.109 C198.359 -0.109 199.077 -0.109 199.817 -0.109 C223.091 -0.113 246.365 -0.129 269.639 -0.152 C294.248 -0.177 318.856 -0.19 343.465 -0.192 C346.167 -0.192 348.869 -0.192 351.571 -0.192 C352.237 -0.192 352.902 -0.192 353.588 -0.192 C363.627 -0.193 373.666 -0.203 383.706 -0.216 C395.129 -0.232 406.551 -0.237 417.974 -0.229 C423.802 -0.225 429.63 -0.226 435.459 -0.24 C440.796 -0.252 446.134 -0.251 451.472 -0.239 C453.4 -0.237 455.329 -0.24 457.258 -0.249 C476.582 -0.331 491.087 3.23 505.28 17.225 C518.742 31.553 520.767 48.425 520.632 67.159 C520.637 69.14 520.643 71.122 520.652 73.103 C520.669 78.505 520.655 83.906 520.635 89.309 C520.62 95.151 520.633 100.992 520.643 106.834 C520.658 118.261 520.645 129.687 520.624 141.114 C520.601 153.754 520.601 166.394 520.604 179.034 C520.609 204.183 520.586 229.332 520.55 254.481 C520.518 276.806 520.506 299.13 520.512 321.454 C520.512 322.888 520.513 324.322 520.513 325.757 C520.513 326.466 520.513 327.175 520.514 327.905 C520.515 331.474 520.516 335.044 520.516 338.613 C520.517 338.965 520.517 338.965 520.517 340.747 C520.521 359.427 520.511 378.107 520.497 396.786 C520.496 397.451 520.496 398.116 520.495 398.801 C520.495 399.132 520.495 399.132 520.493 400.811 C520.493 401.473 520.492 402.136 520.492 402.818 C520.49 404.816 520.489 406.815 520.487 408.813 C520.48 418.09 520.48 427.366 520.481 436.643 C520.482 447.948 520.473 459.252 520.449 470.557 C520.437 476.322 520.43 482.088 520.436 487.853 C520.441 493.135 520.432 498.416 520.413 503.697 C520.408 505.604 520.408 507.51 520.414 509.417 C520.467 528.645 517.232 544.485 503.386 558.917 C492.743 568.842 480.448 574.294 465.902 574.266 C465.494 574.267 465.494 574.267 463.429 574.273 C460.683 574.279 457.938 574.279 455.192 574.279 C453.208 574.282 451.224 574.286 449.24 574.29 C443.779 574.3 438.318 574.303 432.857 574.306 C426.97 574.31 421.084 574.32 415.198 574.328 C401.65 574.347 388.102 574.357 374.555 574.366 C367.858 574.37 361.162 574.375 354.466 574.38 C331.54 574.398 308.613 574.413 285.687 574.421 C284.248 574.421 282.809 574.422 281.37 574.422 C280.656 574.422 279.943 574.423 279.207 574.423 C275.592 574.424 271.976 574.425 268.36 574.427 C267.643 574.427 266.925 574.427 266.186 574.427 C242.925 574.435 219.665 574.459 196.404 574.491 C171.806 574.525 147.208 574.545 122.611 574.548 C119.909 574.549 117.208 574.549 114.507 574.55 C113.841 574.55 113.176 574.55 112.491 574.55 C102.458 574.552 92.425 574.566 82.391 574.585 C70.975 574.607 59.558 574.615 48.142 574.605 C42.317 574.6 36.493 574.602 30.669 574.622 C25.334 574.639 19.999 574.638 14.663 574.623 C12.737 574.62 10.81 574.625 8.883 574.637 C-8.055 574.734 -21.951 571.895 -34.739 559.819 C-50.36 543.002 -52.296 524.643 -52.256 502.743 C-52.26 500.783 -52.265 498.822 -52.27 496.862 C-52.282 491.498 -52.282 486.135 -52.28 480.771 C-52.279 474.978 -52.29 469.184 -52.3 463.391 C-52.317 452.05 -52.322 440.709 -52.323 429.369 C-52.324 420.15 -52.328 410.931 -52.335 401.713 C-52.336 399.055 -52.338 396.398 -52.34 393.74 C-52.34 393.08 -52.341 392.419 -52.341 391.738 C-52.354 373.166 -52.361 354.594 -52.361 336.022 C-52.361 335.323 -52.36 334.623 -52.36 333.903 C-52.36 330.357 -52.36 326.812 -52.36 323.267 C-52.36 322.563 -52.36 321.859 -52.36 321.133 C-52.36 319.71 -52.36 318.286 -52.36 316.862 C-52.358 294.706 -52.373 272.551 -52.401 250.395 C-52.431 225.482 -52.449 200.57 -52.447 175.657 C-52.446 162.474 -52.452 149.291 -52.473 136.107 C-52.491 124.885 -52.496 113.664 -52.482 102.442 C-52.476 96.719 -52.475 90.996 -52.493 85.273 C-52.509 80.029 -52.506 74.786 -52.488 69.542 C-52.485 67.65 -52.489 65.757 -52.5 63.865 C-52.603 45.106 -48.676 29.422 -35.403 15.417 C-25.449 5.994 -13.746 -0.032 0 0 Z " fill="#FBFCFD" transform="translate(401.9890375137329,380.8685722351074)"/>
<path d="M0 0 C0.33 0.99 0.66 1.98 1 3 C2.017 2.81 3.035 2.621 4.083 2.425 C14.186 1.328 24.761 5.692 34.25 8.875 C36.671 9.675 39.093 10.472 41.516 11.266 C41.841 11.372 41.841 11.372 43.485 11.911 C49.209 13.773 54.968 15.51 60.734 17.234 C62.614 17.801 64.494 18.367 66.374 18.934 C69.161 19.774 71.949 20.61 74.742 21.429 C90.276 25.989 102.31 31.37 114 43 C114.699 43.664 115.397 44.328 116.117 45.012 C129.043 58.214 132.644 76.384 136.769 93.737 C137.595 97.193 138.443 100.643 139.288 104.094 C141.354 112.556 143.38 121.027 145.403 129.5 C146.22 132.92 147.039 136.339 147.859 139.758 C152.07 157.326 156.26 174.899 160.421 192.479 C168.392 226.159 176.501 259.805 184.621 293.449 C184.761 294.027 184.761 294.027 185.467 296.952 C188.024 307.55 190.582 318.148 193.143 328.746 C200.813 360.492 208.393 392.259 215.887 424.047 C217.937 432.742 220.004 441.432 222.078 450.121 C222.879 453.483 223.68 456.846 224.48 460.208 C225.013 462.446 225.548 464.683 226.084 466.919 C226.899 470.319 227.708 473.72 228.516 477.121 C228.754 478.11 228.992 479.1 229.238 480.119 C233.632 498.703 233.019 517.79 224 535 C223.655 535.694 223.31 536.388 222.954 537.103 C218.394 545.531 211.74 551.709 204.938 558.312 C203.754 559.476 202.571 560.641 201.389 561.807 C199.218 563.945 197.042 566.078 194.859 568.204 C190.175 572.784 185.744 577.396 181.551 582.426 C181.039 582.945 180.527 583.465 180 584 C179.34 584 178.68 584 178 584 C177.67 584.99 177.34 585.98 177 587 C176.34 587 175.68 587 175 587 C174.67 587.99 174.34 588.98 174 590 C171.562 592.688 171.562 592.688 169 595 C168.34 595 167.68 595 167 595 C166.876 595.287 166.876 595.287 166.247 596.736 C164.809 599.346 163.146 601.108 161.041 603.218 C160.227 604.038 159.413 604.859 158.574 605.704 C158.133 606.142 158.133 606.142 155.906 608.359 C155.455 608.812 155.455 608.812 153.172 611.1 C151.264 613.009 149.355 614.915 147.442 616.819 C144.987 619.262 142.541 621.715 140.098 624.17 C137.768 626.509 135.431 628.84 133.094 631.172 C132.214 632.056 131.333 632.94 130.426 633.852 C129.612 634.659 128.798 635.467 127.959 636.3 C127.6 636.658 127.6 636.658 125.784 638.47 C124 640 124 640 122 640 C121.67 640.99 121.34 641.98 121 643 C117.905 646.353 114.555 649.156 111 652 C109.322 653.655 107.657 655.324 106 657 C46.726 716.274 -12.548 775.548 -71.822 834.822 C-72.365 835.365 -72.907 835.907 -73.466 836.467 C-74.899 837.899 -76.333 839.332 -77.766 840.764 C-80.304 843.304 -82.828 845.858 -85.35 848.414 C-90.546 853.675 -95.751 858.925 -100.963 864.17 C-104.105 867.333 -107.244 870.5 -110.374 873.675 C-113.418 876.763 -116.472 879.841 -119.533 882.913 C-120.689 884.076 -121.841 885.242 -122.989 886.412 C-131.535 895.114 -140.212 902.658 -151.875 906.875 C-152.924 907.264 -153.974 907.654 -155.055 908.055 C-160.494 909.8 -165.616 910.239 -171.312 910.312 C-172.014 910.342 -172.716 910.371 -173.439 910.4 C-187.791 910.563 -202.446 904.413 -215.938 900.062 C-217.749 899.483 -219.561 898.903 -221.373 898.324 C-225.105 897.132 -228.837 895.936 -232.569 894.739 C-239.942 892.376 -247.324 890.039 -254.707 887.703 C-258.897 886.376 -263.087 885.048 -267.277 883.719 C-268.172 883.435 -269.066 883.151 -269.988 882.859 C-277.406 880.506 -284.823 878.151 -292.24 875.796 C-294.26 875.154 -296.28 874.513 -298.301 873.871 C-299.665 873.438 -301.03 873.005 -302.394 872.571 C-303.075 872.355 -303.756 872.139 -304.457 871.916 C-307.927 870.814 -311.397 869.712 -314.867 868.61 C-341.532 860.139 -341.532 860.139 -351.988 856.859 C-366.78 852.218 -381.548 847.509 -396.293 842.723 C-397.028 842.484 -397.764 842.245 -398.522 841.999 C-404.693 839.996 -410.864 837.992 -417.035 835.987 C-438.146 829.131 -459.276 822.349 -480.467 815.743 C-499.87 809.694 -519.221 803.494 -538.558 797.24 C-558.081 790.932 -558.081 790.932 -567.449 788.145 C-568.124 787.944 -568.799 787.743 -569.494 787.536 C-570.136 787.345 -570.778 787.154 -571.44 786.957 C-594.815 779.974 -612.933 769.895 -624.91 747.867 C-628.974 739.644 -630.633 730.979 -632.5 722.062 C-632.883 720.288 -633.267 718.514 -633.652 716.74 C-634.421 713.184 -635.18 709.626 -635.929 706.066 C-636.755 702.146 -637.6 698.231 -638.458 694.318 C-639.169 691.068 -639.865 687.815 -640.562 684.562 C-640.688 683.987 -640.688 683.987 -641.324 681.073 C-642.611 674.908 -643.258 669.297 -643 663 C-626.349 667.653 -609.83 672.578 -593.382 677.91 C-587.056 679.949 -580.717 681.949 -574.375 683.938 C-573.705 684.148 -573.035 684.358 -572.345 684.575 C-561.556 687.953 -550.719 691.137 -539.851 694.249 C-529.16 697.315 -518.616 700.7 -508.094 704.295 C-504.206 705.604 -500.281 706.788 -496.355 707.977 C-492.123 709.267 -487.906 710.602 -483.688 711.938 C-472.911 715.347 -462.125 718.724 -451.328 722.066 C-437.427 726.371 -423.538 730.711 -409.677 735.144 C-386.081 742.69 -386.081 742.69 -375.32 745.977 C-370.278 747.531 -365.249 749.127 -360.218 750.719 C-354.5 752.528 -348.777 754.323 -343.051 756.107 C-339.526 757.207 -336.003 758.315 -332.484 759.434 C-330.906 759.935 -329.328 760.436 -327.75 760.938 C-326.963 761.187 -326.176 761.437 -325.365 761.695 C-319.429 763.571 -313.469 765.358 -307.5 767.125 C-302.399 768.636 -297.35 770.169 -292.375 772.062 C-287.01 774.094 -281.526 775.566 -275.995 777.066 C-269.992 778.7 -264.053 780.495 -258.126 782.388 C-243.22 787.143 -226.42 786.468 -212.312 779.375 C-206.524 775.973 -201.781 771.68 -197 767 C-196.215 766.242 -195.43 765.484 -194.621 764.703 C-191.238 761.383 -188 758.011 -184.918 754.41 C-179.773 748.492 -174.123 743.065 -168.543 737.563 C-163.443 732.529 -158.457 727.468 -153.797 722.02 C-149.253 716.912 -144.251 712.217 -139.383 707.422 C-134.906 702.986 -130.583 698.499 -126.479 693.715 C-124.625 691.565 -122.685 689.517 -120.688 687.5 C-120.031 686.83 -119.375 686.159 -118.699 685.469 C-117 684 -117 684 -115 684 C-115 683.34 -115 682.68 -115 682 C-115.933 682.002 -116.867 682.004 -117.829 682.006 C-173.176 682.118 -228.524 682.203 -283.872 682.255 C-290.521 682.262 -297.17 682.268 -303.818 682.275 C-304.149 682.275 -304.149 682.275 -305.823 682.277 C-327.911 682.299 -349.999 682.338 -372.087 682.386 C-394.073 682.433 -416.058 682.46 -438.044 682.47 C-451.605 682.477 -465.166 682.499 -478.728 682.54 C-488.033 682.566 -497.338 682.574 -506.643 682.568 C-512.008 682.564 -517.373 682.569 -522.738 682.596 C-527.659 682.621 -532.579 682.621 -537.5 682.604 C-539.271 682.602 -541.043 682.609 -542.814 682.624 C-565.556 682.815 -584.614 674.921 -601 659 C-618.446 641.142 -622.31 618.184 -622.267 594.321 C-622.271 592.317 -622.276 590.313 -622.281 588.308 C-622.293 582.819 -622.293 577.33 -622.291 571.841 C-622.29 565.913 -622.301 559.986 -622.311 554.059 C-622.327 542.454 -622.333 530.849 -622.334 519.244 C-622.335 509.809 -622.339 500.375 -622.346 490.941 C-622.347 488.222 -622.349 485.503 -622.351 482.784 C-622.351 482.108 -622.352 481.432 -622.352 480.736 C-622.365 461.731 -622.372 442.727 -622.372 423.722 C-622.371 423.006 -622.371 422.29 -622.371 421.553 C-622.371 417.924 -622.371 414.295 -622.371 410.667 C-622.371 410.306 -622.371 410.306 -622.371 408.483 C-622.371 407.026 -622.371 405.568 -622.37 404.111 C-622.369 381.439 -622.384 358.766 -622.412 336.094 C-622.442 310.602 -622.46 285.111 -622.458 259.62 C-622.458 256.9 -622.457 254.18 -622.457 251.46 C-622.457 250.791 -622.457 250.121 -622.457 249.431 C-622.457 239.337 -622.468 229.243 -622.484 219.149 C-622.502 207.665 -622.507 196.18 -622.493 184.696 C-622.487 178.839 -622.486 172.982 -622.504 167.125 C-622.519 161.758 -622.517 156.391 -622.499 151.024 C-622.496 149.088 -622.5 147.152 -622.511 145.216 C-622.587 131.096 -621.005 118.717 -614.438 105.938 C-614.1 105.276 -613.763 104.615 -613.415 103.933 C-603.69 85.729 -586.579 72.279 -567 66 C-561.046 64.415 -555.483 63.71 -549.333 63.746 C-548.506 63.742 -547.678 63.739 -546.825 63.736 C-544.064 63.728 -541.303 63.733 -538.541 63.739 C-536.537 63.736 -534.532 63.732 -532.528 63.728 C-527.028 63.717 -521.528 63.72 -516.029 63.724 C-510.094 63.726 -504.159 63.717 -498.225 63.71 C-486.602 63.697 -474.979 63.695 -463.355 63.698 C-453.908 63.699 -444.461 63.698 -435.014 63.693 C-433.656 63.693 -432.298 63.692 -430.94 63.692 C-428.893 63.691 -426.847 63.69 -424.801 63.689 C-405.777 63.68 -386.754 63.676 -367.731 63.68 C-367.014 63.68 -366.297 63.681 -365.559 63.681 C-361.925 63.682 -358.292 63.682 -354.659 63.683 C-353.937 63.683 -353.215 63.684 -352.472 63.684 C-351.013 63.684 -349.553 63.685 -348.094 63.685 C-325.389 63.69 -302.683 63.682 -279.977 63.664 C-254.458 63.643 -228.938 63.632 -203.419 63.636 C-200.697 63.637 -197.975 63.637 -195.254 63.637 C-194.584 63.638 -193.913 63.638 -193.223 63.638 C-183.113 63.639 -173.003 63.632 -162.893 63.622 C-151.394 63.61 -139.894 63.608 -128.394 63.62 C-122.528 63.626 -116.661 63.627 -110.795 63.615 C-105.422 63.605 -100.049 63.608 -94.677 63.622 C-92.735 63.624 -90.794 63.622 -88.853 63.614 C-79.155 63.577 -70.223 63.574 -61 67 C-59.895 67.388 -58.791 67.776 -57.652 68.176 C-46.494 72.848 -37.645 78.497 -29 87 C-28.299 87.688 -27.597 88.377 -26.875 89.086 C-9.925 106.897 -6.674 128.583 -6.759 152.154 C-6.759 153.967 -6.757 155.781 -6.754 157.595 C-6.75 162.548 -6.758 167.501 -6.768 172.454 C-6.777 177.807 -6.774 183.16 -6.772 188.513 C-6.771 197.777 -6.777 207.041 -6.789 216.305 C-6.805 229.699 -6.81 243.093 -6.813 256.488 C-6.817 278.221 -6.83 299.954 -6.849 321.687 C-6.867 342.794 -6.882 363.901 -6.89 385.008 C-6.89 385.659 -6.89 385.659 -6.892 388.953 C-6.894 395.484 -6.897 402.016 -6.899 408.547 C-6.92 462.698 -6.955 516.849 -7 571 C-6.34 571 -5.68 571 -5 571 C-4.764 570.437 -4.527 569.874 -4.284 569.294 C-2.702 566.467 -0.771 564.564 1.543 562.297 C2.452 561.398 3.362 560.5 4.299 559.574 C5.261 558.632 6.224 557.691 7.188 556.75 C12.708 551.332 18.138 545.94 23.165 540.06 C27.926 534.715 33.167 529.8 38.262 524.777 C42.781 520.297 47.14 515.776 51.279 510.943 C55.185 506.532 59.482 502.482 63.684 498.355 C67.77 494.314 71.645 490.179 75.392 485.822 C77.657 483.256 80.089 480.928 82.562 478.562 C87.115 474.093 90.848 469.555 94 464 C94.438 463.233 94.877 462.466 95.328 461.676 C96.675 459.157 97.862 456.619 99 454 C99.396 453.092 99.791 452.185 100.199 451.25 C106.895 433.207 102.593 413.983 98 396 C97.489 393.938 96.98 391.875 96.473 389.812 C95.465 385.736 94.441 381.664 93.406 377.594 C92.188 372.784 91.046 367.961 89.938 363.125 C88.834 358.332 87.631 353.586 86.28 348.857 C84.054 341.06 82.099 333.242 80.316 325.332 C77.021 310.895 73.442 296.533 69.828 282.173 C68.948 278.676 68.071 275.178 67.194 271.68 C65.79 266.078 64.384 260.477 62.977 254.876 C60.456 244.836 57.946 234.793 55.437 224.749 C54.174 219.693 52.91 214.637 51.645 209.581 C50.792 206.169 49.94 202.758 49.091 199.346 C46.409 188.578 43.672 177.824 40.937 167.07 C34.188 140.526 27.467 113.976 20.821 87.407 C20.321 85.409 19.821 83.412 19.321 81.415 C15.799 67.352 12.317 53.281 8.959 39.178 C7.597 33.462 6.199 27.757 4.75 22.062 C3.323 16.401 2.071 10.738 1 5 C0.668 3.333 0.336 1.666 0 0 Z M-589 106 C-599.16 121.1 -601.6 134.682 -601.494 152.515 C-601.498 154.477 -601.503 156.439 -601.509 158.401 C-601.522 163.765 -601.51 169.128 -601.494 174.491 C-601.48 180.286 -601.49 186.081 -601.497 191.875 C-601.507 203.216 -601.496 214.557 -601.478 225.898 C-601.458 238.441 -601.457 250.985 -601.458 263.528 C-601.46 288.485 -601.44 313.442 -601.409 338.399 C-601.382 360.555 -601.369 382.711 -601.371 404.867 C-601.371 406.29 -601.371 407.713 -601.371 409.135 C-601.371 409.839 -601.371 410.542 -601.371 411.267 C-601.371 414.808 -601.371 418.35 -601.372 421.891 C-601.372 422.59 -601.372 423.288 -601.372 424.008 C-601.372 442.542 -601.363 461.075 -601.351 479.609 C-601.35 480.927 -601.349 482.245 -601.348 483.603 C-601.346 486.249 -601.345 488.896 -601.343 491.543 C-601.337 500.749 -601.335 509.955 -601.334 519.161 C-601.332 530.381 -601.323 541.602 -601.305 552.822 C-601.296 558.545 -601.29 564.268 -601.292 569.991 C-601.294 575.234 -601.287 580.476 -601.273 585.718 C-601.269 587.611 -601.269 589.504 -601.272 591.397 C-601.308 613.267 -597.995 630.055 -582.75 646.75 C-569.475 659.33 -554.805 660.446 -537.586 660.388 C-535.599 660.392 -533.611 660.397 -531.624 660.404 C-526.176 660.418 -520.728 660.414 -515.28 660.407 C-509.399 660.402 -503.519 660.415 -497.638 660.425 C-486.122 660.442 -474.606 660.443 -463.09 660.438 C-453.728 660.434 -444.367 660.435 -435.006 660.44 C-433.66 660.441 -432.314 660.442 -430.967 660.443 C-428.939 660.444 -426.91 660.445 -424.882 660.446 C-406.027 660.457 -387.172 660.462 -368.317 660.454 C-367.607 660.453 -366.896 660.453 -366.164 660.453 C-360.395 660.45 -354.626 660.448 -348.857 660.445 C-326.36 660.435 -303.862 660.443 -281.364 660.467 C-256.073 660.493 -230.782 660.505 -205.49 660.498 C-202.792 660.498 -200.094 660.497 -197.396 660.496 C-196.731 660.496 -196.067 660.496 -195.383 660.496 C-185.366 660.494 -175.35 660.502 -165.333 660.515 C-153.938 660.529 -142.542 660.53 -131.147 660.513 C-125.334 660.504 -119.522 660.502 -113.71 660.517 C-108.385 660.531 -103.06 660.526 -97.734 660.507 C-95.813 660.503 -93.891 660.506 -91.969 660.517 C-74.071 660.607 -58.801 657.527 -45.188 644.812 C-34.69 633.612 -28.839 619.21 -28.863 603.949 C-28.862 603.544 -28.862 603.544 -28.855 601.495 C-28.847 598.771 -28.847 596.046 -28.846 593.322 C-28.842 591.353 -28.838 589.384 -28.833 587.416 C-28.821 581.996 -28.815 576.577 -28.811 571.158 C-28.805 565.317 -28.793 559.475 -28.782 553.634 C-28.758 539.521 -28.743 525.408 -28.73 511.295 C-28.727 507.308 -28.723 503.321 -28.719 499.335 C-28.693 474.575 -28.671 449.816 -28.659 425.057 C-28.656 419.321 -28.653 413.586 -28.65 407.851 C-28.65 407.138 -28.649 406.426 -28.649 405.692 C-28.637 382.605 -28.606 359.517 -28.564 336.43 C-28.521 312.684 -28.495 288.937 -28.489 265.191 C-28.489 261.833 -28.488 258.476 -28.487 255.119 C-28.486 254.458 -28.486 253.797 -28.486 253.116 C-28.483 243.16 -28.465 233.204 -28.441 223.248 C-28.413 211.913 -28.402 200.578 -28.413 189.243 C-28.418 183.463 -28.415 177.683 -28.391 171.903 C-28.368 166.603 -28.369 161.304 -28.388 156.004 C-28.391 154.095 -28.385 152.185 -28.37 150.276 C-28.233 131.746 -31.671 115.627 -44.875 101.688 C-55.942 91.24 -68.401 85.662 -83.599 85.74 C-84.419 85.736 -85.239 85.732 -86.084 85.728 C-88.821 85.718 -91.557 85.722 -94.293 85.726 C-96.28 85.721 -98.267 85.716 -100.253 85.71 C-105.704 85.696 -111.154 85.694 -116.604 85.695 C-122.485 85.693 -128.367 85.68 -134.248 85.668 C-146.435 85.647 -158.622 85.638 -170.808 85.633 C-171.47 85.633 -172.132 85.633 -172.814 85.633 C-173.478 85.632 -174.141 85.632 -174.824 85.632 C-182.183 85.629 -189.541 85.622 -196.899 85.616 C-219.133 85.596 -241.367 85.58 -263.601 85.577 C-263.956 85.577 -263.956 85.577 -265.754 85.576 C-268.634 85.576 -271.514 85.576 -274.395 85.575 C-276.562 85.575 -278.73 85.575 -280.897 85.574 C-281.614 85.574 -282.33 85.574 -283.068 85.574 C-305.572 85.571 -328.077 85.549 -350.581 85.513 C-375.877 85.472 -401.173 85.449 -426.469 85.448 C-429.168 85.448 -431.867 85.448 -434.565 85.448 C-435.23 85.448 -435.894 85.448 -436.579 85.448 C-446.598 85.447 -456.617 85.432 -466.636 85.41 C-478.035 85.386 -489.435 85.378 -500.834 85.393 C-506.648 85.401 -512.462 85.4 -518.277 85.377 C-523.604 85.356 -528.93 85.359 -534.258 85.38 C-536.18 85.383 -538.103 85.379 -540.025 85.364 C-559.07 85.232 -576.609 90.341 -589 106 Z " fill="#046EA1" transform="translate(951,295)"/>
<path d="M0 0 C3.488 1.109 6.98 2.204 10.472 3.297 C14.347 4.509 18.22 5.722 22.093 6.939 C37.749 11.861 53.432 16.696 69.114 21.532 C73.459 22.872 77.804 24.213 82.148 25.554 C106.033 32.929 129.934 40.253 153.845 47.543 C182.386 56.245 210.892 65.054 239.391 73.89 C243.759 75.244 248.127 76.598 252.496 77.952 C253.339 78.213 254.183 78.475 255.052 78.744 C265.837 82.086 276.627 85.412 287.425 88.71 C288 88.885 288 88.885 290.908 89.773 C295.978 91.321 301.05 92.864 306.122 94.403 C314.358 96.905 322.574 99.458 330.75 102.151 C331.48 102.389 332.21 102.627 332.963 102.873 C350.419 108.692 363.45 119.979 371.738 136.389 C376.15 146.187 378.377 156.661 380.914 167.065 C381.673 170.124 382.435 173.182 383.198 176.241 C383.696 178.245 384.192 180.25 384.684 182.256 C385.845 186.973 387.037 191.676 388.324 196.36 C388.44 196.786 388.44 196.786 389.028 198.939 C389.46 200.507 389.899 202.073 390.348 203.636 C392.307 210.767 392.346 217.585 391.851 224.94 C384.841 223.715 378.254 221.9 371.539 219.565 C369.677 218.931 367.815 218.298 365.953 217.667 C365.067 217.365 364.182 217.064 363.27 216.754 C359.332 215.429 355.359 214.226 351.382 213.022 C346.715 211.592 342.065 210.11 337.414 208.628 C336.475 208.329 335.536 208.03 334.569 207.722 C329.758 206.189 324.948 204.651 320.14 203.108 C311.092 200.209 302.037 197.369 292.914 194.715 C274.364 189.314 274.364 189.314 265.476 185.94 C259.91 183.857 254.219 182.311 248.482 180.778 C243.198 179.358 238.026 177.714 232.851 175.94 C220.423 171.711 208.008 167.606 195.359 164.087 C189.126 162.341 183.006 160.363 176.885 158.264 C169.474 155.753 161.966 153.599 154.436 151.475 C148.698 149.841 143.119 147.974 137.528 145.895 C133.298 144.386 128.992 143.194 124.664 142.003 C113.456 138.858 102.337 135.487 91.312 131.749 C87.881 130.621 84.427 129.568 80.976 128.503 C76.299 127.059 71.681 125.548 67.101 123.815 C62.352 122.037 57.558 120.829 52.628 119.655 C49.584 118.871 46.738 117.84 43.82 116.686 C39.906 115.203 35.87 114.1 31.851 112.94 C31.261 112.768 31.261 112.768 28.277 111.897 C8.626 106.209 -7.998 106.679 -26.243 116.495 C-31.485 119.57 -35.475 123.698 -39.563 128.139 C-41.639 130.388 -43.681 132.363 -46.024 134.315 C-50.57 138.176 -54.706 142.444 -58.875 146.703 C-61.829 149.702 -64.831 152.571 -68.024 155.315 C-72.634 159.295 -76.881 163.6 -81.149 167.94 C-89.574 176.509 -89.574 176.509 -93.899 180.19 C-99.982 185.418 -105.515 191.239 -111.149 196.94 C-123.985 209.928 -123.985 209.928 -130.231 215.245 C-134.226 218.777 -137.91 222.641 -141.649 226.44 C-146.668 231.54 -151.709 236.492 -157.139 241.153 C-160.982 244.57 -164.545 248.275 -168.149 251.94 C-176.572 260.507 -176.572 260.507 -181.024 264.315 C-186.352 268.894 -191.221 273.941 -196.149 278.94 C-201.657 284.527 -207.163 290.04 -213.129 295.143 C-217.325 298.876 -221.209 302.941 -225.149 306.94 C-230.341 312.211 -235.54 317.354 -241.157 322.171 C-244.995 325.58 -248.551 329.281 -252.149 332.94 C-260.571 341.506 -260.571 341.506 -265.086 345.378 C-270.038 349.633 -274.57 354.291 -279.149 358.94 C-284.361 364.231 -289.58 369.398 -295.219 374.233 C-298.691 377.304 -301.905 380.633 -305.149 383.94 C-309.126 387.994 -313.109 391.96 -317.415 395.667 C-327.418 404.296 -334.196 416.609 -335.422 429.898 C-335.514 433.042 -335.509 436.17 -335.461 439.315 C-335.463 439.838 -335.463 439.838 -335.471 442.487 C-335.421 449.825 -334.531 456.744 -333.149 463.94 C-332.93 465.134 -332.712 466.328 -332.487 467.559 C-331.761 471.521 -331.02 475.481 -330.274 479.44 C-330.141 480.146 -330.009 480.851 -329.872 481.578 C-327.89 492.114 -325.849 502.636 -323.716 513.142 C-322.63 518.501 -321.555 523.863 -320.481 529.224 C-320.102 531.112 -319.722 532.999 -319.342 534.886 C-318.074 541.212 -316.84 547.542 -315.661 553.885 C-314.32 561.094 -312.897 568.284 -311.446 575.471 C-308.479 590.179 -305.584 604.901 -302.711 619.628 C-299.844 634.325 -296.947 649.015 -293.995 663.696 C-291.584 675.696 -289.209 687.703 -286.852 699.714 C-275.83 755.862 -275.83 755.862 -270.354 781.68 C-266.938 797.802 -263.716 813.961 -260.509 830.125 C-258.25 841.504 -255.925 852.86 -253.435 864.19 C-252.75 867.314 -252.074 870.439 -251.399 873.565 C-251.166 874.613 -250.932 875.661 -250.692 876.741 C-250.477 877.748 -250.261 878.754 -250.04 879.792 C-249.942 880.239 -249.942 880.239 -249.447 882.505 C-249.14 885.011 -249.476 886.542 -250.149 888.94 C-258.754 887.626 -266.91 885.375 -275.215 882.799 C-276.543 882.391 -277.871 881.982 -279.199 881.573 C-281.965 880.72 -284.729 879.862 -287.491 879.001 C-291.003 877.908 -294.519 876.832 -298.037 875.761 C-300.776 874.924 -303.511 874.075 -306.245 873.223 C-308.16 872.629 -310.079 872.047 -311.998 871.465 C-329.979 865.798 -343.666 855.268 -352.836 838.69 C-355.601 832.802 -357.237 827.08 -358.605 820.733 C-358.818 819.769 -359.031 818.806 -359.251 817.813 C-361.381 808.077 -363.297 798.301 -365.161 788.51 C-365.529 786.588 -365.898 784.665 -366.268 782.743 C-367.256 777.593 -368.239 772.441 -369.221 767.29 C-369.845 764.022 -370.47 760.754 -371.095 757.487 C-377.52 723.919 -383.849 690.333 -390.124 656.736 C-394.487 633.38 -398.881 610.031 -403.348 586.694 C-403.568 585.544 -403.788 584.394 -404.015 583.21 C-405.133 577.372 -406.251 571.535 -407.369 565.698 C-414.554 528.195 -421.663 490.68 -428.586 453.128 C-428.761 452.182 -428.935 451.237 -429.115 450.263 C-431.032 439.864 -432.941 429.464 -434.841 419.062 C-435.711 414.305 -436.595 409.55 -437.489 404.797 C-438.058 401.771 -438.621 398.745 -439.184 395.719 C-439.444 394.33 -439.706 392.941 -439.971 391.554 C-444.262 369.082 -443.785 347.807 -431.149 327.94 C-425.914 321.036 -419.502 315.167 -413.004 309.475 C-409.361 306.241 -405.82 302.905 -402.274 299.565 C-395.614 293.302 -388.897 287.108 -382.149 280.94 C-374.113 273.574 -366.144 266.138 -358.236 258.635 C-354.269 254.883 -350.23 251.241 -346.107 247.662 C-342.885 244.829 -339.769 241.885 -336.649 238.94 C-335.25 237.625 -333.852 236.31 -332.454 234.995 C-331.019 233.643 -329.584 232.292 -328.149 230.94 C-312.696 216.393 -312.696 216.393 -304.903 209.444 C-301.105 205.991 -297.38 202.464 -293.649 198.94 C-288.422 194.002 -283.162 189.118 -277.793 184.335 C-273.533 180.477 -269.359 176.526 -265.172 172.588 C-261.189 168.845 -257.186 165.125 -253.149 161.44 C-248.445 157.145 -243.79 152.802 -239.149 148.44 C-234.508 144.078 -229.853 139.735 -225.149 135.44 C-219.767 130.526 -214.45 125.546 -209.139 120.555 C-205.016 116.683 -200.875 112.831 -196.711 109.003 C-190.896 103.655 -185.147 98.238 -179.402 92.816 C-174.203 87.915 -168.956 83.072 -163.665 78.272 C-161.875 76.613 -160.14 74.895 -158.446 73.139 C-156.149 70.94 -156.149 70.94 -154.149 70.94 C-154.149 70.28 -154.149 69.62 -154.149 68.94 C-152.75 67.53 -152.75 67.53 -150.774 65.878 C-150.033 65.246 -149.291 64.614 -148.528 63.964 C-147.743 63.296 -146.958 62.628 -146.149 61.94 C-139.076 55.724 -132.234 49.271 -125.389 42.806 C-120.94 38.608 -116.441 34.48 -111.872 30.413 C-108.061 26.952 -104.328 23.412 -100.586 19.878 C-98.402 17.822 -96.216 15.768 -94.03 13.714 C-92.505 12.276 -90.99 10.828 -89.477 9.378 C-63.075 -15.29 -31.32 -9.956 0 0 Z " fill="#0453A7" transform="translate(556.1488952636719,68.05990600585938)"/>
<path d="M0 0 C0.828 -0.003 1.655 -0.006 2.508 -0.01 C5.269 -0.018 8.031 -0.012 10.792 -0.006 C12.797 -0.009 14.801 -0.013 16.806 -0.018 C22.305 -0.028 27.805 -0.026 33.304 -0.022 C39.239 -0.019 45.174 -0.028 51.108 -0.036 C62.732 -0.048 74.355 -0.05 85.978 -0.048 C95.425 -0.046 104.872 -0.048 114.319 -0.052 C115.677 -0.053 117.035 -0.053 118.393 -0.054 C120.44 -0.055 122.486 -0.056 124.533 -0.057 C143.556 -0.065 162.579 -0.069 181.602 -0.065 C182.319 -0.065 183.036 -0.065 183.775 -0.065 C187.408 -0.064 191.041 -0.063 194.675 -0.062 C195.396 -0.062 196.118 -0.062 196.861 -0.062 C198.321 -0.061 199.78 -0.061 201.239 -0.061 C223.945 -0.055 246.65 -0.063 269.356 -0.082 C294.876 -0.102 320.395 -0.113 345.914 -0.109 C348.636 -0.109 351.358 -0.108 354.08 -0.108 C354.75 -0.108 355.42 -0.108 356.11 -0.108 C366.22 -0.107 376.33 -0.113 386.44 -0.124 C397.94 -0.136 409.439 -0.137 420.939 -0.125 C426.806 -0.119 432.672 -0.118 438.539 -0.13 C443.911 -0.141 449.284 -0.138 454.657 -0.124 C456.598 -0.121 458.539 -0.124 460.481 -0.132 C470.178 -0.169 479.11 -0.172 488.333 3.254 C488.886 3.448 488.886 3.448 491.681 4.43 C502.839 9.102 511.688 14.751 520.333 23.254 C521.035 23.943 521.736 24.631 522.458 25.34 C535.245 38.776 541.472 55.383 541.489 73.733 C541.493 74.553 541.498 75.372 541.503 76.217 C541.517 78.957 541.524 81.696 541.532 84.436 C541.541 86.423 541.55 88.41 541.56 90.397 C541.585 95.853 541.604 101.309 541.622 106.765 C541.638 111.446 541.658 116.127 541.678 120.808 C541.746 136.901 541.801 152.994 541.854 169.088 C541.863 171.765 541.872 174.442 541.881 177.119 C541.966 202.758 542.047 228.398 542.117 254.037 C542.133 259.819 542.149 265.6 542.166 271.382 C542.168 272.1 542.17 272.818 542.172 273.558 C542.236 296.819 542.323 320.079 542.423 343.34 C542.525 367.281 542.608 391.222 542.665 415.163 C542.673 418.552 542.681 421.94 542.689 425.328 C542.691 425.994 542.693 426.661 542.694 427.348 C542.719 437.376 542.762 447.404 542.813 457.432 C542.871 468.857 542.909 480.281 542.92 491.706 C542.926 497.528 542.942 503.349 542.985 509.171 C543.428 572.258 543.428 572.258 519.458 596.879 C513.742 602.414 507.311 606.447 500.333 610.254 C499.638 610.662 498.944 611.069 498.228 611.489 C485.523 618.532 472.322 618.835 458.231 618.769 C456.217 618.774 454.204 618.782 452.19 618.79 C446.689 618.809 441.187 618.803 435.686 618.792 C429.74 618.785 423.795 618.801 417.849 618.814 C406.885 618.834 395.921 618.836 384.958 618.829 C374.826 618.822 364.695 618.822 354.563 618.829 C353.202 618.83 351.84 618.83 350.479 618.831 C348.427 618.833 346.375 618.834 344.323 618.836 C325.259 618.849 306.195 618.854 287.131 618.842 C286.413 618.842 285.695 618.841 284.955 618.841 C279.126 618.837 273.297 618.833 267.468 618.829 C244.734 618.815 222.001 618.823 199.267 618.851 C173.697 618.883 148.127 618.898 122.557 618.888 C119.829 618.887 117.1 618.886 114.371 618.885 C113.699 618.884 113.027 618.884 112.335 618.884 C102.214 618.88 92.093 618.89 81.973 618.905 C70.457 618.923 58.941 618.923 47.425 618.9 C41.554 618.889 35.683 618.886 29.811 618.904 C24.429 618.921 19.046 618.915 13.664 618.89 C11.724 618.885 9.785 618.889 7.846 618.902 C-15.495 619.046 -34.765 611.676 -51.667 595.254 C-69.113 577.396 -72.976 554.438 -72.934 530.575 C-72.938 528.571 -72.943 526.567 -72.948 524.563 C-72.96 519.074 -72.96 513.584 -72.958 508.095 C-72.957 502.168 -72.968 496.241 -72.978 490.314 C-72.994 478.708 -73 467.103 -73.001 455.498 C-73.002 446.064 -73.006 436.63 -73.012 427.196 C-73.014 424.477 -73.016 421.758 -73.018 419.039 C-73.018 418.701 -73.018 418.701 -73.019 416.99 C-73.031 397.986 -73.039 378.981 -73.038 359.977 C-73.038 359.261 -73.038 358.545 -73.038 357.807 C-73.038 354.178 -73.038 350.55 -73.038 346.921 C-73.038 346.2 -73.038 345.48 -73.037 344.737 C-73.037 343.28 -73.037 341.823 -73.037 340.366 C-73.036 317.693 -73.051 295.021 -73.078 272.348 C-73.109 246.857 -73.126 221.366 -73.124 195.874 C-73.124 193.155 -73.124 190.435 -73.124 187.715 C-73.124 187.045 -73.124 186.376 -73.124 185.686 C-73.124 175.592 -73.135 165.498 -73.151 155.404 C-73.169 143.919 -73.173 132.435 -73.16 120.95 C-73.153 115.093 -73.153 109.237 -73.17 103.38 C-73.186 98.013 -73.183 92.646 -73.166 87.278 C-73.163 85.342 -73.166 83.406 -73.178 81.47 C-73.254 67.35 -71.671 54.972 -65.104 42.192 C-64.767 41.531 -64.43 40.869 -64.082 40.188 C-54.357 21.984 -37.246 8.533 -17.667 2.254 C-11.713 0.67 -6.15 -0.036 0 0 Z M-39.667 42.254 C-49.827 57.355 -52.266 70.937 -52.161 88.77 C-52.164 90.732 -52.169 92.694 -52.176 94.656 C-52.189 100.019 -52.177 105.382 -52.16 110.745 C-52.147 116.54 -52.157 122.335 -52.164 128.13 C-52.174 139.471 -52.163 150.812 -52.144 162.152 C-52.125 174.696 -52.124 187.239 -52.125 199.783 C-52.126 224.74 -52.107 249.697 -52.076 274.654 C-52.048 296.81 -52.036 318.965 -52.037 341.121 C-52.037 342.544 -52.038 343.967 -52.038 345.39 C-52.038 346.093 -52.038 346.797 -52.038 347.522 C-52.038 351.063 -52.038 354.604 -52.038 358.146 C-52.038 358.844 -52.038 359.543 -52.038 360.263 C-52.039 378.796 -52.03 397.33 -52.018 415.863 C-52.017 417.181 -52.016 418.499 -52.015 419.857 C-52.013 422.504 -52.011 425.151 -52.01 427.798 C-52.004 437.003 -52.001 446.209 -52 455.415 C-51.999 466.636 -51.99 477.856 -51.972 489.077 C-51.963 494.8 -51.956 500.523 -51.959 506.246 C-51.961 511.488 -51.954 516.73 -51.94 521.973 C-51.936 523.866 -51.936 525.758 -51.939 527.651 C-51.975 549.521 -48.662 566.309 -33.417 583.004 C-20.141 595.584 -5.472 596.701 11.747 596.642 C13.734 596.646 15.722 596.652 17.709 596.658 C23.157 596.673 28.605 596.669 34.053 596.661 C39.934 596.657 45.815 596.669 51.696 596.679 C63.212 596.697 74.728 596.697 86.244 596.692 C95.605 596.688 104.966 596.689 114.328 596.695 C115.674 596.696 117.02 596.696 118.366 596.697 C120.394 596.698 122.423 596.699 124.451 596.701 C143.306 596.711 162.161 596.716 181.016 596.708 C181.726 596.708 182.437 596.708 183.169 596.707 C188.938 596.705 194.707 596.702 200.476 596.7 C222.974 596.689 245.471 596.698 267.969 596.721 C293.26 596.747 318.552 596.76 343.843 596.753 C346.541 596.752 349.239 596.751 351.938 596.751 C352.602 596.751 353.266 596.75 353.951 596.75 C363.967 596.748 373.984 596.756 384 596.769 C395.396 596.784 406.791 596.784 418.187 596.767 C423.999 596.759 429.811 596.756 435.623 596.772 C440.949 596.786 446.273 596.781 451.599 596.761 C453.521 596.758 455.443 596.761 457.364 596.771 C475.262 596.861 490.533 593.782 504.146 581.067 C514.643 569.866 520.495 555.465 520.47 540.203 C520.472 539.798 520.472 539.798 520.478 537.75 C520.486 535.025 520.487 532.301 520.487 529.576 C520.491 527.607 520.496 525.639 520.5 523.67 C520.512 518.251 520.518 512.832 520.523 507.413 C520.529 501.571 520.54 495.73 520.551 489.888 C520.575 475.775 520.59 461.662 520.603 447.549 C520.607 443.562 520.611 439.576 520.615 435.589 C520.64 410.83 520.662 386.071 520.674 361.311 C520.677 355.576 520.68 349.841 520.683 344.105 C520.684 343.393 520.684 342.68 520.684 341.946 C520.697 318.859 520.728 295.772 520.769 272.685 C520.812 248.938 520.839 225.192 520.844 201.445 C520.845 198.088 520.846 194.73 520.847 191.373 C520.847 190.712 520.847 190.052 520.847 189.371 C520.85 179.415 520.868 169.458 520.892 159.502 C520.921 148.167 520.931 136.833 520.92 125.498 C520.915 119.717 520.918 113.937 520.943 108.157 C520.965 102.857 520.964 97.558 520.946 92.258 C520.943 90.349 520.948 88.44 520.963 86.531 C521.101 68.001 517.662 51.881 504.458 37.942 C493.391 27.494 480.932 21.916 465.735 21.994 C464.914 21.991 464.094 21.987 463.249 21.983 C460.512 21.973 457.776 21.976 455.04 21.98 C453.053 21.976 451.067 21.971 449.08 21.964 C443.63 21.95 438.18 21.949 432.73 21.949 C426.848 21.947 420.966 21.934 415.085 21.923 C402.898 21.901 390.712 21.893 378.525 21.888 C377.863 21.888 377.201 21.887 376.519 21.887 C375.856 21.887 375.192 21.887 374.509 21.886 C367.151 21.883 359.792 21.877 352.434 21.87 C330.2 21.85 307.966 21.834 285.733 21.831 C285.377 21.831 285.377 21.831 283.579 21.831 C280.699 21.83 277.819 21.83 274.939 21.83 C272.771 21.829 270.603 21.829 268.436 21.829 C267.72 21.829 267.003 21.829 266.265 21.829 C243.761 21.826 221.257 21.804 198.752 21.767 C173.456 21.727 148.16 21.703 122.864 21.703 C120.165 21.703 117.467 21.702 114.768 21.702 C114.103 21.702 113.439 21.702 112.754 21.702 C102.735 21.701 92.716 21.686 82.697 21.665 C71.298 21.64 59.899 21.633 48.499 21.648 C42.685 21.655 36.871 21.654 31.057 21.632 C25.729 21.611 20.403 21.614 15.076 21.634 C13.153 21.638 11.23 21.633 9.308 21.619 C-9.737 21.486 -27.276 26.595 -39.667 42.254 Z " fill="#074086" transform="translate(401.66674613952637,358.7455244064331)"/>
<path d="M0 0 C3.848 2.788 7.432 5.866 11 9 C12.227 9.982 13.455 10.962 14.688 11.938 C15.451 12.618 16.214 13.299 17 14 C17 14.66 17 15.32 17 16 C15.345 17.499 13.624 18.925 11.875 20.312 C10.876 21.112 9.877 21.911 8.848 22.734 C8.378 23.108 8.378 23.108 6 25 C4.767 26.016 3.537 27.036 2.312 28.062 C1.931 28.382 1.931 28.382 0 30 C-2.766 28.18 -5.511 26.35 -8.203 24.422 C-31.497 7.74 -58.389 0.047 -87.051 4.727 C-105.883 8.363 -122.814 17.174 -137 30 C-137.458 30.411 -137.458 30.411 -139.773 32.488 C-159.921 51.536 -170.449 77.664 -171.334 105.139 C-171.511 116.168 -169.901 126.382 -167 137 C-166.673 138.21 -166.345 139.421 -166.008 140.668 C-158.108 165.721 -138.911 185.868 -116 198 C-111.402 199.913 -106.74 201.48 -102 203 C-101.211 203.308 -100.422 203.616 -99.609 203.934 C-92.902 206.53 -86.125 206.791 -79 207 C-78.097 207.033 -77.193 207.065 -76.263 207.099 C-63.496 207.514 -52.114 207.445 -40 203 C-39.373 202.775 -38.746 202.55 -38.1 202.318 C-21.281 196.221 -6.066 187.407 6 174 C6.825 173.113 7.65 172.226 8.5 171.312 C8.747 170.931 8.747 170.931 10 169 C9.706 167.658 9.364 166.325 9 165 C8.499 158.171 8.26 151.96 12 146 C16.133 141.717 20.546 137.157 26.75 136.875 C27.493 136.916 28.235 136.957 29 137 C29.133 136.313 29.266 135.626 29.402 134.918 C29.579 134.017 29.756 133.116 29.938 132.188 C30.112 131.294 30.286 130.401 30.465 129.48 C31 127 31 127 32 124 C34.357 108.604 33.916 93.071 28.73 78.383 C27.391 74.014 26.716 69.507 26 65 C26.652 64.481 27.305 63.961 27.977 63.426 C28.851 62.728 29.725 62.031 30.625 61.312 C31.536 60.587 32.448 59.861 33.387 59.113 C35.446 57.448 37.449 55.747 39.438 54 C42 52 42 52 45 52 C49.492 63.23 49.492 63.23 50.281 65.215 C50.853 66.636 51.453 68.047 52.062 69.453 C56.443 81.354 57.373 93.924 57.375 106.5 C57.376 107.656 57.378 108.811 57.379 110.002 C57.251 120.067 56.471 130.46 52.207 139.723 C49.92 145.296 49.971 150.087 50.188 156 C50.375 162.576 50.1 167.115 45.703 172.375 C42.111 175.802 38.843 177.761 34.125 179.125 C28.344 181.14 25.485 186.24 22 191 C12.843 202.966 0.162 211.052 -13 218 C-14.008 218.556 -15.016 219.111 -16.055 219.684 C-23.446 223.615 -30.892 225.986 -39 228 C-39.571 228.144 -39.571 228.144 -42.461 228.875 C-71.994 236.035 -103.493 232.247 -130.375 217.875 C-131.097 217.49 -131.819 217.106 -132.562 216.709 C-139.634 212.829 -145.834 208.172 -152 203 C-152.82 202.332 -153.64 201.665 -154.484 200.977 C-171.48 186.618 -184.816 165.434 -190.465 143.938 C-190.972 142.103 -191.577 140.296 -192.188 138.492 C-196.476 124.704 -195.532 110.281 -195 96 C-194.967 95.083 -194.933 94.166 -194.899 93.221 C-193.444 62.259 -176.303 34.339 -154.875 12.871 C-152.971 11.162 -151.019 9.571 -149 8 C-148.144 7.308 -147.288 6.616 -146.406 5.902 C-104.347 -27.055 -44.551 -29.764 0 0 Z " fill="#67B0F3" transform="translate(680,505)"/>
<path d="M0 0 C2.553 3.83 2.284 6.937 2.267 11.375 C2.272 12.24 2.276 13.105 2.281 13.996 C2.294 16.905 2.292 19.813 2.291 22.722 C2.297 24.803 2.303 26.884 2.311 28.965 C2.329 34.626 2.333 40.287 2.335 45.948 C2.336 50.67 2.344 55.392 2.351 60.114 C2.367 71.252 2.372 82.39 2.371 93.528 C2.369 105.027 2.391 116.525 2.422 128.024 C2.448 137.888 2.459 147.752 2.458 157.617 C2.457 163.512 2.463 169.407 2.484 175.302 C2.503 180.845 2.504 186.389 2.489 191.932 C2.487 193.968 2.492 196.005 2.504 198.041 C2.519 200.818 2.51 203.594 2.494 206.371 C2.505 207.179 2.515 207.987 2.526 208.82 C2.479 212.591 2.148 214.768 0.094 217.977 C-3.324 221.279 -5.464 221.14 -10.13 221.193 C-11.419 221.209 -12.707 221.225 -14.034 221.242 C-15.447 221.253 -16.86 221.264 -18.273 221.273 C-18.984 221.279 -19.694 221.284 -20.426 221.29 C-24.185 221.316 -27.943 221.336 -31.702 221.35 C-35.585 221.367 -39.467 221.412 -43.35 221.462 C-46.336 221.496 -49.321 221.508 -52.307 221.513 C-53.738 221.52 -55.169 221.535 -56.6 221.559 C-58.604 221.591 -60.607 221.588 -62.611 221.583 C-63.751 221.592 -64.89 221.6 -66.065 221.608 C-69 221 -69 221 -71.143 218.946 C-73.423 215.328 -73.615 212.399 -73.643 208.249 C-73.663 207.475 -73.683 206.701 -73.704 205.904 C-73.767 203.315 -73.801 200.727 -73.835 198.137 C-73.873 196.279 -73.913 194.421 -73.954 192.563 C-74.079 186.461 -74.16 180.36 -74.234 174.258 C-74.248 173.218 -74.261 172.178 -74.274 171.107 C-74.397 161.29 -74.504 151.474 -74.572 141.657 C-74.66 129.123 -74.827 116.596 -75.106 104.065 C-75.295 95.241 -75.392 86.419 -75.421 77.593 C-75.441 72.327 -75.5 67.069 -75.66 61.806 C-76.584 29.875 -76.584 29.875 -70.655 21.81 C-65.063 16.745 -58.89 13.765 -51.868 11.158 C-47.77 9.503 -44.392 7.138 -40.875 4.5 C-35.812 0.944 -35.812 0.944 -31.82 1.219 C-29.865 1.76 -27.925 2.358 -26 3 C-18.897 3.512 -12.529 3.404 -5.902 0.656 C-4 0 -4 0 0 0 Z " fill="#0362CE" transform="translate(881,701)"/>
<path d="M0 0 C23.958 -0.867 49.457 2.297 71.541 12.094 C72.741 12.598 73.941 13.102 75.177 13.622 C95.775 22.326 113.629 33.665 130.728 48.094 C131.311 48.581 131.893 49.067 132.493 49.568 C136.611 53.082 140.128 56.896 143.541 61.094 C141.806 64.85 139.726 66.977 136.603 69.719 C135.728 70.495 134.852 71.271 133.951 72.071 C131.541 74.094 131.541 74.094 128.541 76.094 C123.953 75.598 121.474 72.382 118.353 69.282 C102.558 54.153 83.754 43.209 63.541 35.094 C62.659 34.715 61.777 34.336 60.869 33.946 C50.799 29.681 40.301 27.752 29.541 26.094 C28.667 25.925 27.793 25.756 26.892 25.582 C22.962 25.01 19.089 24.895 15.126 24.856 C14.323 24.846 13.519 24.837 12.691 24.827 C10.099 24.802 7.508 24.789 4.916 24.782 C4.035 24.779 3.155 24.776 2.248 24.773 C-10.785 24.763 -22.854 25.568 -35.459 29.094 C-37.668 29.595 -39.876 30.095 -42.084 30.594 C-47.425 31.993 -52.397 33.909 -57.459 36.094 C-58.63 36.565 -59.8 37.035 -61.006 37.52 C-81.654 45.967 -99.379 58.777 -115.459 74.094 C-116.217 74.788 -116.975 75.481 -117.756 76.196 C-144.415 101.395 -160.004 136.816 -167.084 172.219 C-166.189 176.336 -163.713 177.791 -160.502 180.36 C-156.959 183.368 -154.935 186.669 -153.459 191.094 C-152.761 201.659 -153.047 209.285 -159.959 217.469 C-162.071 219.793 -163.816 221.332 -166.459 223.094 C-167.326 230.602 -165.216 237.831 -163.459 245.094 C-163.304 245.739 -163.149 246.385 -162.989 247.049 C-161.119 254.73 -159.015 262.016 -155.459 269.094 C-154.894 270.274 -154.328 271.453 -153.745 272.668 C-141.627 297.72 -125.706 320.024 -103.459 337.094 C-101.581 338.569 -99.706 340.048 -97.834 341.532 C-97.017 342.17 -96.2 342.808 -95.358 343.465 C-93.235 345.287 -92.585 346.301 -92.151 349.047 C-91.811 355.101 -91.811 355.101 -93.694 357.985 C-97.162 361.521 -99.719 362.933 -104.784 363.403 C-109.183 363.033 -110.854 361.892 -114.272 359.157 C-114.529 358.954 -114.529 358.954 -115.828 357.926 C-120.9 353.865 -125.688 349.499 -130.459 345.094 C-132.188 343.573 -133.918 342.052 -135.647 340.532 C-163.09 315.734 -180.573 279.772 -188.959 244.282 C-189.215 243.203 -189.471 242.123 -189.734 241.011 C-191.093 234.895 -191.721 229.358 -191.459 223.094 C-191.82 222.981 -191.82 222.981 -193.647 222.407 C-199.752 219.558 -203.438 213.94 -206.459 208.094 C-208.835 200.61 -207.812 193.411 -204.659 186.352 C-202.377 182.056 -200.105 178.813 -195.51 176.805 C-191.101 173.911 -190.819 168.942 -189.8 164.091 C-189.673 163.439 -189.547 162.786 -189.416 162.114 C-188.749 158.695 -187.993 155.296 -187.241 151.895 C-187.093 151.22 -186.945 150.545 -186.792 149.849 C-184.813 140.967 -181.898 132.507 -178.459 124.094 C-178.17 123.386 -177.881 122.678 -177.583 121.949 C-170.815 105.8 -161.377 90.742 -150.459 77.094 C-149.793 76.219 -149.127 75.344 -148.44 74.442 C-119.858 38.014 -75.746 10.371 -29.772 2.969 C-28.712 2.797 -27.652 2.626 -26.559 2.449 C-17.664 1.051 -8.999 0.345 0 0 Z " fill="#094185" transform="translate(606.45947265625,412.90576171875)"/>
<path d="M0 0 C1.165 0.72 2.314 1.467 3.438 2.25 C4.304 2.766 5.17 3.281 6.062 3.812 C11.407 9.298 14.786 15.59 15.125 23.312 C14.644 31.568 11.515 37.702 5.375 43.188 C4.08 44.231 2.768 45.253 1.438 46.25 C0.85 46.803 0.262 47.356 -0.344 47.926 C-3.584 49.86 -6.263 49.574 -10 49.5 C-10.649 49.492 -10.649 49.492 -13.934 49.453 C-17.562 49.25 -17.562 49.25 -20.223 48.5 C-22.562 48.25 -22.562 48.25 -25 49.734 C-25.846 50.482 -26.691 51.23 -27.562 52 C-28.525 52.833 -29.488 53.665 -30.48 54.523 C-30.985 54.97 -31.489 55.417 -32.009 55.878 C-34.599 58.165 -37.238 60.393 -39.875 62.625 C-40.413 63.083 -40.951 63.542 -41.505 64.014 C-45.528 67.427 -49.646 70.701 -53.812 73.938 C-58.488 77.571 -62.985 81.318 -67.371 85.301 C-70.697 88.259 -74.164 91.037 -77.621 93.84 C-80.741 96.396 -83.809 99.005 -86.875 101.625 C-91.411 105.495 -96.038 109.221 -100.75 112.875 C-105.77 116.769 -110.534 120.844 -115.215 125.145 C-118.325 127.934 -121.587 130.504 -124.867 133.09 C-127.959 135.568 -130.983 138.119 -134 140.688 C-137.989 144.082 -141.999 147.444 -146.062 150.75 C-150.102 154.038 -154.093 157.378 -158.062 160.75 C-160.228 162.585 -162.394 164.418 -164.562 166.25 C-165.095 166.7 -165.628 167.151 -166.177 167.615 C-167.697 168.895 -169.223 170.166 -170.75 171.438 C-171.63 172.174 -172.511 172.91 -173.418 173.668 C-175.562 175.25 -175.562 175.25 -177.562 175.25 C-177.398 175.755 -177.398 175.755 -176.562 178.312 C-173.262 191.824 -175.819 204.299 -182.812 216.062 C-189.686 226.149 -200.469 233.686 -212.562 236.25 C-226.707 237.388 -238.236 235.841 -249.497 226.401 C-255.029 221.451 -259.455 216.03 -262.562 209.25 C-262.828 208.679 -263.094 208.109 -263.367 207.521 C-265.696 202.045 -265.987 197.151 -265.875 191.25 C-265.878 190.399 -265.881 189.548 -265.885 188.672 C-265.762 174.143 -259.735 164.317 -249.562 154.25 C-241.278 146.668 -229.808 143.896 -218.848 144.043 C-207.614 144.751 -197.335 148.891 -189.562 157.25 C-186.354 155.822 -184.072 154.067 -181.5 151.688 C-177.284 147.864 -172.934 144.254 -168.516 140.668 C-165.334 138.063 -162.195 135.413 -159.062 132.75 C-154.213 128.629 -149.311 124.58 -144.375 120.562 C-140.682 117.526 -137.04 114.43 -133.396 111.334 C-130.003 108.455 -126.58 105.618 -123.125 102.812 C-118.879 99.357 -114.71 95.823 -110.562 92.25 C-105.549 87.931 -100.477 83.699 -95.34 79.527 C-92.219 76.968 -89.138 74.364 -86.062 71.75 C-79.412 66.101 -72.661 60.582 -65.891 55.078 C-61.989 51.898 -58.095 48.712 -54.262 45.449 C-53.702 44.974 -53.143 44.498 -52.567 44.008 C-51.446 43.05 -50.329 42.088 -49.217 41.121 C-46.197 38.521 -43.176 36.391 -39.75 34.375 C-37.875 33.031 -37.875 33.031 -36.562 31.25 C-36.14 27.905 -36.255 24.797 -36.453 21.434 C-36.673 15.043 -34.303 10.887 -30.375 6 C-22.473 -2.328 -10.793 -5.161 0 0 Z " fill="#084185" transform="translate(832.5625,421.75)"/>
<path d="M0 0 C4.172 0.734 8.427 0.392 12.646 0.215 C15.662 0.153 17.947 0.167 20.641 1.598 C23.093 4.092 22.946 5.532 22.956 8.996 C22.969 10.154 22.982 11.312 22.995 12.505 C22.988 13.777 22.982 15.049 22.975 16.359 C22.982 17.711 22.991 19.063 23.001 20.415 C23.023 24.088 23.021 27.762 23.012 31.435 C23.007 34.502 23.014 37.569 23.021 40.635 C23.038 47.871 23.035 55.106 23.018 62.341 C23.001 69.805 23.017 77.268 23.049 84.732 C23.076 91.139 23.083 97.547 23.075 103.955 C23.07 107.782 23.072 111.609 23.092 115.436 C23.111 119.036 23.105 122.635 23.08 126.236 C23.073 128.185 23.09 130.134 23.108 132.083 C23.016 140.536 23.016 140.536 20.329 144.714 C16.817 146.8 14.681 147.058 10.603 147.061 C10.27 147.064 10.27 147.064 8.581 147.082 C6.387 147.099 4.194 147.08 2 147.059 C0.47 147.059 -1.061 147.062 -2.591 147.066 C-5.793 147.069 -8.994 147.054 -12.196 147.027 C-16.298 146.992 -20.398 146.999 -24.5 147.017 C-27.658 147.028 -30.815 147.019 -33.973 147.004 C-35.485 146.999 -36.998 146.999 -38.51 147.005 C-40.624 147.011 -42.736 146.99 -44.85 146.963 C-46.052 146.957 -47.253 146.951 -48.492 146.944 C-52.242 146.315 -53.202 145.353 -55.559 142.43 C-56.065 140.059 -56.065 140.059 -56.073 137.382 C-56.086 136.364 -56.099 135.346 -56.112 134.298 C-56.109 133.742 -56.109 133.742 -56.092 130.932 C-56.101 129.757 -56.109 128.583 -56.118 127.373 C-56.137 124.156 -56.138 120.94 -56.129 117.722 C-56.124 115.036 -56.131 112.35 -56.138 109.663 C-56.155 103.326 -56.152 96.988 -56.135 90.651 C-56.118 84.114 -56.134 77.577 -56.166 71.04 C-56.193 65.425 -56.2 59.811 -56.192 54.196 C-56.187 50.844 -56.189 47.492 -56.21 44.139 C-56.227 40.401 -56.212 36.665 -56.19 32.928 C-56.201 31.817 -56.213 30.706 -56.225 29.562 C-56.132 22.076 -56.132 22.076 -53.269 18.849 C-52.375 18.381 -51.48 17.912 -50.559 17.43 C-50.225 17.23 -50.225 17.23 -48.537 16.221 C-47.883 15.889 -47.228 15.557 -46.554 15.216 C-45.802 14.832 -45.051 14.449 -44.277 14.054 C-43.877 13.855 -43.877 13.855 -41.855 12.848 C-41.018 12.429 -40.181 12.011 -39.318 11.58 C-37.552 10.701 -35.783 9.827 -34.013 8.955 C-31.321 7.623 -28.645 6.262 -25.969 4.9 C-24.244 4.048 -22.519 3.197 -20.793 2.348 C-20.002 1.939 -19.211 1.531 -18.396 1.111 C-11.78 -2.072 -6.998 -1.56 0 0 Z " fill="#035DBE" transform="translate(732.55859375,775.5703125)"/>
<path d="M0 0 C0.656 -0.007 1.312 -0.014 1.988 -0.022 C4.145 -0.039 6.3 -0.019 8.457 0.002 C9.962 0.001 11.468 -0.001 12.973 -0.005 C16.124 -0.008 19.274 0.007 22.425 0.034 C26.457 0.068 30.488 0.062 34.52 0.044 C37.627 0.033 40.734 0.042 43.841 0.057 C45.328 0.062 46.814 0.062 48.3 0.055 C50.381 0.05 52.459 0.07 54.539 0.098 C55.721 0.104 56.903 0.11 58.12 0.116 C61.896 0.734 63.559 1.984 66.27 4.631 C67.806 7.705 67.426 10.933 67.431 14.306 C67.433 14.702 67.433 14.702 67.446 16.706 C67.46 19.334 67.467 21.961 67.473 24.588 C67.478 26.412 67.484 28.235 67.49 30.059 C67.5 33.887 67.506 37.714 67.51 41.542 C67.515 46.444 67.539 51.347 67.568 56.25 C67.586 60.018 67.592 63.787 67.593 67.556 C67.596 69.363 67.604 71.17 67.617 72.978 C67.634 75.508 67.632 78.038 67.626 80.568 C67.635 81.314 67.644 82.059 67.654 82.827 C67.618 87.265 67.014 90.106 64.27 93.631 C61.392 95.07 58.896 94.782 55.68 94.808 C55.342 94.811 55.342 94.811 53.63 94.828 C51.387 94.848 49.145 94.859 46.902 94.869 C46.52 94.871 46.52 94.871 44.583 94.882 C40.532 94.903 36.482 94.917 32.431 94.926 C28.246 94.937 24.06 94.972 19.875 95.011 C16.658 95.038 13.441 95.046 10.224 95.05 C8.681 95.054 7.138 95.066 5.595 95.085 C3.435 95.109 1.277 95.108 -0.882 95.101 C-2.111 95.107 -3.34 95.113 -4.605 95.119 C-7.73 94.631 -7.73 94.631 -10.125 93.113 C-12.373 89.638 -12.298 86.461 -12.264 82.454 C-12.273 81.632 -12.281 80.81 -12.29 79.964 C-12.313 77.25 -12.306 74.537 -12.297 71.823 C-12.302 69.934 -12.308 68.046 -12.316 66.158 C-12.326 62.202 -12.321 58.245 -12.307 54.288 C-12.29 49.219 -12.313 44.151 -12.348 39.082 C-12.37 35.183 -12.369 31.284 -12.361 27.385 C-12.36 25.517 -12.367 23.648 -12.381 21.779 C-12.399 19.165 -12.384 16.552 -12.362 13.938 C-12.373 13.167 -12.385 12.397 -12.397 11.603 C-12.329 7.782 -11.844 5.791 -9.612 2.651 C-6.114 0.199 -4.245 0.003 0 0 Z " fill="#3196EA" transform="translate(557.73046875,827.368896484375)"/>
<path d="M0 0 C2.541 1.843 3.929 3.99 5.621 6.624 C6.247 7.569 6.872 8.514 7.516 9.487 C9.046 12.829 9.014 13.89 7.809 17.312 C5.642 19.142 5.642 19.142 2.762 20.843 C2.231 21.162 2.231 21.162 -0.456 22.779 C-1.618 23.457 -2.779 24.134 -3.941 24.812 C-5.132 25.522 -6.322 26.234 -7.51 26.948 C-9.921 28.393 -12.335 29.831 -14.753 31.263 C-19.545 34.108 -24.274 37.052 -29.004 39.999 C-30.684 41.041 -32.365 42.083 -34.047 43.124 C-34.879 43.64 -35.71 44.155 -36.568 44.687 C-39.396 46.438 -42.225 48.188 -45.054 49.937 C-46.018 50.532 -46.982 51.128 -47.975 51.742 C-49.827 52.887 -51.678 54.032 -53.53 55.176 C-53.945 55.432 -53.945 55.432 -56.043 56.729 C-56.773 57.181 -57.504 57.632 -58.256 58.097 C-59.919 59.141 -61.558 60.223 -63.191 61.312 C-63.492 63.124 -63.492 63.124 -63.504 65.312 C-64.072 72.096 -67.308 77.624 -72.261 82.241 C-79.968 88.185 -87.805 88.045 -97.191 87.312 C-99.891 86.265 -101.77 84.943 -104.191 83.312 C-108.396 83.648 -111.634 84.796 -115.359 86.718 C-116.325 87.21 -117.291 87.702 -118.286 88.208 C-119.307 88.737 -120.327 89.266 -121.379 89.812 C-123.542 90.915 -125.706 92.016 -127.871 93.116 C-128.942 93.661 -130.013 94.206 -131.116 94.768 C-135.375 96.906 -139.683 98.928 -144.004 100.937 C-152.847 105.066 -161.472 109.576 -170.067 114.196 C-170.768 114.564 -171.469 114.932 -172.191 115.312 C-173.05 115.845 -173.909 116.379 -174.794 116.928 C-179.475 118.834 -183.617 118.686 -188.621 118.604 C-189.611 118.6 -190.602 118.596 -191.622 118.592 C-194.77 118.575 -197.918 118.537 -201.066 118.499 C-203.207 118.484 -205.347 118.47 -207.488 118.458 C-212.723 118.425 -217.957 118.375 -223.191 118.312 C-223.185 117.841 -223.185 117.841 -223.156 115.46 C-223.147 114.215 -223.138 112.969 -223.129 111.687 C-223.117 110.457 -223.105 109.227 -223.094 107.96 C-223.183 104.634 -223.554 101.571 -224.191 98.312 C-223.376 98.256 -222.56 98.201 -221.719 98.144 C-218.633 97.934 -215.547 97.723 -212.46 97.512 C-210.492 97.377 -208.523 97.244 -206.554 97.11 C-203.992 96.935 -201.43 96.753 -198.868 96.566 C-196.531 96.404 -194.192 96.266 -191.853 96.158 C-185.327 95.798 -180.552 94.67 -174.879 91.437 C-173.571 90.729 -172.262 90.023 -170.953 89.319 C-170.326 88.977 -169.698 88.634 -169.052 88.281 C-166.175 86.782 -163.18 85.57 -160.191 84.312 C-158.183 83.328 -156.183 82.328 -154.191 81.312 C-150.618 79.487 -147.033 77.82 -143.338 76.262 C-140.573 75.038 -137.862 73.717 -135.144 72.394 C-134.052 71.862 -132.961 71.33 -131.836 70.782 C-129.555 69.668 -127.277 68.551 -125 67.431 C-123.913 66.903 -122.826 66.375 -121.707 65.831 C-120.72 65.347 -119.733 64.864 -118.716 64.365 C-116.191 63.312 -116.191 63.312 -113.191 63.312 C-113.165 62.659 -113.14 62.007 -113.113 61.335 C-112.587 53.229 -110.239 49.062 -104.254 43.562 C-98.83 39.053 -94.839 37.92 -87.824 38.046 C-84.394 38.392 -81.409 39.332 -78.199 40.558 C-72.822 42.577 -72.822 42.577 -70.19 41.47 C-69.484 41.015 -68.778 40.561 -68.051 40.093 C-67.24 39.581 -66.43 39.068 -65.594 38.541 C-64.719 37.97 -63.843 37.399 -62.941 36.812 C-62.017 36.224 -61.092 35.637 -60.139 35.032 C-58.161 33.775 -56.187 32.514 -54.215 31.248 C-46.315 26.189 -38.343 21.243 -30.375 16.293 C-28.166 14.918 -25.96 13.539 -23.758 12.154 C-20.33 10 -16.886 7.874 -13.441 5.749 C-12.908 5.412 -12.908 5.412 -10.212 3.707 C-9.716 3.404 -9.716 3.404 -7.207 1.87 C-6.77 1.598 -6.77 1.598 -4.559 0.223 C-2.191 -0.688 -2.191 -0.688 0 0 Z " fill="#0A4286" transform="translate(829.191162109375,677.6884765625)"/>
<path d="M0 0 C3.371 1.227 6.105 2.9 9 5 C9.928 5.619 10.856 6.237 11.812 6.875 C16.644 11.568 19.02 17.317 19.438 24 C19.332 31.122 15.956 37.956 11.031 43.027 C3.681 48.809 -3.793 50.015 -13 49 C-16.604 47.764 -19.639 45.877 -22.826 43.823 C-25 43 -25 43 -27.153 43.576 C-27.93 43.965 -28.707 44.354 -29.508 44.754 C-30.399 45.19 -31.289 45.625 -32.207 46.074 C-33.17 46.565 -34.133 47.056 -35.125 47.562 C-36.137 48.063 -37.149 48.563 -38.191 49.078 C-41.469 50.703 -44.735 52.35 -48 54 C-50.164 55.083 -52.328 56.165 -54.492 57.246 C-57.752 58.875 -61.012 60.506 -64.268 62.143 C-72.552 66.302 -80.889 70.341 -89.266 74.311 C-89.701 74.517 -89.701 74.517 -91.906 75.562 C-92.326 75.76 -92.326 75.76 -94.453 76.758 C-96.235 77.627 -97.994 78.543 -99.734 79.492 C-100.616 79.969 -101.498 80.446 -102.406 80.938 C-103.193 81.38 -103.98 81.822 -104.791 82.277 C-107 83 -107 83 -109.197 82.267 C-111.605 80.575 -112.43 78.834 -113.688 76.188 C-114.104 75.335 -114.52 74.483 -114.949 73.605 C-115.974 71.063 -116.559 68.699 -117 66 C-104.755 58.947 -92.234 52.558 -79.457 46.527 C-73.658 43.78 -67.902 40.964 -62.176 38.07 C-61.508 37.733 -60.84 37.396 -60.152 37.049 C-56.861 35.387 -53.573 33.718 -50.29 32.039 C-43.973 28.83 -37.81 26 -31 24 C-30.959 22.866 -30.918 21.731 -30.875 20.562 C-30.034 14.142 -26.684 9.153 -21.672 5.133 C-14.29 0.156 -9.002 -0.93 0 0 Z " fill="#0A4186" transform="translate(579,762)"/>
<path d="M0 0 C2.283 3.828 2.984 8.006 3.875 12.312 C8.985 36.018 8.985 36.018 14 46 C14.566 47.179 15.132 48.359 15.715 49.574 C27.833 74.626 43.753 96.93 66 114 C67.879 115.475 69.754 116.954 71.625 118.438 C72.442 119.076 73.26 119.714 74.102 120.371 C76.225 122.193 76.875 123.207 77.309 125.953 C77.648 132.007 77.648 132.007 75.766 134.891 C72.298 138.427 69.74 139.838 64.676 140.309 C60.276 139.939 58.606 138.798 55.188 136.062 C54.674 135.656 54.16 135.25 53.631 134.832 C48.559 130.771 43.771 126.405 39 122 C37.271 120.479 35.542 118.958 33.812 117.438 C4.66 91.096 -19.775 45.982 -22.152 6.468 C-22.156 4.644 -22.088 2.821 -22 1 C-21.405 1.005 -20.809 1.01 -20.196 1.016 C-17.506 1.037 -14.815 1.05 -12.125 1.062 C-11.188 1.071 -10.251 1.079 -9.285 1.088 C-8.389 1.091 -7.493 1.094 -6.57 1.098 C-5.743 1.103 -4.915 1.108 -4.063 1.114 C-2 1 -2 1 0 0 Z " fill="#093F83" transform="translate(437,636)"/>
<path d="M0 0 C3 1 3 1 4.465 3.371 C4.708 3.877 4.708 3.877 5.938 6.438 C6.179 6.932 6.179 6.932 7.402 9.434 C13.72 23.535 18.953 38.345 22.312 53.438 C22.459 54.097 22.606 54.756 22.758 55.436 C23.214 57.618 23.614 59.804 24 62 C24.177 62.966 24.355 63.931 24.537 64.926 C26.278 75.47 26.355 85.899 26.312 96.562 C26.311 97.492 26.31 98.422 26.308 99.38 C26.258 116.56 25.482 132.906 19.898 149.301 C19.104 151.687 18.538 153.973 18.062 156.438 C14.162 174.169 14.162 174.169 6.812 179.312 C2.282 182.009 -0.62 183.538 -6 183 C-8.438 181.438 -8.438 181.438 -10 179 C-9.641 173.444 -7.937 168.929 -5.812 163.875 C-3.059 157.054 -0.715 150.196 1.312 143.125 C1.554 142.295 1.796 141.464 2.046 140.609 C5.536 128.133 6.373 116.139 6.371 103.249 C6.375 100.533 6.411 97.818 6.449 95.102 C6.529 82.634 4.953 71.101 2 59 C1.877 58.485 1.877 58.485 1.254 55.881 C0.662 53.566 0.014 51.284 -0.688 49 C-0.809 48.599 -0.809 48.599 -1.421 46.57 C-3.967 38.505 -7.434 30.892 -11.047 23.258 C-12.627 19.903 -13.925 16.556 -15 13 C-13.252 11.394 -11.502 9.79 -9.75 8.188 C-9.259 7.736 -8.768 7.284 -8.262 6.818 C-2.39 1.455 -2.39 1.455 0 0 Z " fill="#0873DB" transform="translate(776,512)"/>
<path d="M0 0 C4.492 11.23 4.492 11.23 5.281 13.215 C5.853 14.636 6.453 16.047 7.062 17.453 C11.443 29.354 12.373 41.924 12.375 54.5 C12.376 55.656 12.378 56.811 12.379 58.002 C12.251 68.067 11.471 78.46 7.207 87.723 C4.92 93.296 4.971 98.087 5.188 104 C5.375 110.572 5.093 115.097 0.723 120.367 C-5.326 126.1 -10.756 127.361 -18.984 127.281 C-24.449 126.772 -27.518 124.606 -31.25 120.562 C-31.539 120.14 -31.539 120.14 -33 118 C-33.523 117.243 -34.047 116.487 -34.586 115.707 C-37.559 110.015 -36.583 103.223 -35 97.188 C-31.705 91.935 -26.862 87.28 -21 85 C-18.25 84.875 -18.25 84.875 -16 85 C-15.867 84.313 -15.734 83.626 -15.598 82.918 C-15.421 82.017 -15.244 81.116 -15.062 80.188 C-14.888 79.294 -14.714 78.401 -14.535 77.48 C-14 75 -14 75 -13 72 C-10.643 56.604 -11.084 41.071 -16.27 26.383 C-17.609 22.014 -18.284 17.507 -19 13 C-18.348 12.481 -17.695 11.961 -17.023 11.426 C-16.149 10.728 -15.275 10.031 -14.375 9.312 C-13.464 8.587 -12.552 7.861 -11.613 7.113 C-9.554 5.448 -7.551 3.747 -5.562 2 C-3 0 -3 0 0 0 Z " fill="#67B0F2" transform="translate(725,557)"/>
<path d="M0 0 C0.937 -0.015 1.874 -0.03 2.84 -0.045 C9.564 0.036 9.564 0.036 13.265 2.612 C16.407 6.936 16.222 10.367 16.164 15.59 C16.169 16.545 16.174 17.5 16.179 18.485 C16.182 20.501 16.173 22.518 16.152 24.534 C16.125 27.612 16.152 30.686 16.184 33.764 C16.18 35.727 16.174 37.689 16.164 39.652 C16.169 40.11 16.169 40.11 16.195 42.427 C16.112 46.981 15.896 51.233 12.487 54.653 C7.504 57.247 1.415 56.515 -4.066 56.449 C-5.507 56.451 -6.948 56.454 -8.388 56.459 C-11.402 56.464 -14.415 56.447 -17.428 56.415 C-21.288 56.375 -25.146 56.384 -29.006 56.409 C-31.978 56.423 -34.951 56.413 -37.923 56.396 C-39.346 56.39 -40.769 56.391 -42.192 56.4 C-44.181 56.408 -46.17 56.38 -48.158 56.35 C-48.724 56.347 -48.724 56.347 -51.585 56.329 C-54.5 55.688 -54.5 55.688 -56.867 53.37 C-58.981 49.898 -59.025 46.957 -58.926 43.016 C-58.924 42.654 -58.924 42.654 -58.916 40.825 C-58.905 39.305 -58.886 37.785 -58.857 36.266 C-58.812 33.931 -58.795 31.597 -58.783 29.262 C-58.77 27.784 -58.755 26.306 -58.738 24.828 C-58.731 24.127 -58.724 23.426 -58.716 22.704 C-58.618 17.806 -58.618 17.806 -57.5 16.688 C-55.165 17.008 -52.832 17.345 -50.5 17.688 C-38.645 18.579 -28.673 18.235 -19.188 10.312 C-16.811 8.137 -15.205 6.234 -13.426 3.504 C-9.872 -0.806 -5.198 -0.154 0 0 Z " fill="#A0D0F8" transform="translate(478.5,866.3125)"/>
<path d="M0 0 C0.66 0.66 1.32 1.32 2 2 C2.66 1.67 3.32 1.34 4 1 C8.002 0.791 11.996 0.894 16 1 C16.395 1.008 16.395 1.008 18.395 1.051 C21.906 1.286 23.805 1.843 26.562 4.062 C27.367 5.032 28.171 6.001 29 7 C29.59 7.638 30.181 8.276 30.789 8.934 C37.282 16.002 38.423 20.938 38.242 30.559 C37.648 38.997 34.016 44.176 28 50 C27.01 50.66 26.02 51.32 25 52 C23.812 54.125 23.812 54.125 23 56 C22.67 55.01 22.34 54.02 22 53 C21.67 53.165 21.67 53.165 20 54 C10.359 54.74 0.947 55.36 -7 49 C-12.786 43.202 -16.042 36.3 -16.438 28.125 C-16.158 19.854 -12.797 12.797 -7 7 C-5.006 5.658 -3.007 4.323 -1 3 C-0.67 2.01 -0.34 1.02 0 0 Z " fill="#056FD8" transform="translate(415,584)"/>
<path d="M0 0 C4.921 3.108 9.149 7.932 11.227 13.406 C12.031 21.53 12.385 29.656 7.227 36.406 C4.254 39.836 1.295 42.372 -2.773 44.406 C-3.763 44.406 -4.753 44.406 -5.773 44.406 C-5.773 45.066 -5.773 45.726 -5.773 46.406 C-15.437 47.158 -22.142 46.701 -29.773 40.406 C-32.148 38.031 -32.148 38.031 -33.773 35.406 C-34.142 34.856 -34.511 34.305 -34.891 33.738 C-38.396 27.876 -38.649 22.095 -37.773 15.406 C-35.65 8.004 -30.186 2.925 -24.148 -1.531 C-16.165 -4.045 -7.605 -3.468 0 0 Z " fill="#094085" transform="translate(874.7734375,647.59375)"/>
<path d="M0 0 C6.665 3.706 10.519 8.182 13.301 15.203 C15.005 24.342 14.351 31.069 8.988 38.891 C4.531 43.92 -0.795 47.306 -7.547 48.242 C-15.498 48.667 -21.873 46.566 -27.863 41.246 C-33.729 34.846 -35.593 28.426 -35.367 19.828 C-34.848 15.536 -33.397 12.448 -31.012 8.891 C-30.733 8.447 -30.733 8.447 -29.324 6.203 C-21.362 -1.759 -10.732 -3.953 0 0 Z " fill="#094083" transform="translate(447.01171875,827.109375)"/>
<path d="M0 0 C6.282 2.916 10.459 6.029 13.461 12.418 C15.366 18.036 15.593 24.232 13.234 29.73 C9.646 35.405 5.797 38.947 -0.633 41.09 C-8.087 41.755 -13.608 41.734 -19.633 37.09 C-21.883 34.652 -21.883 34.652 -23.633 32.09 C-24.156 31.333 -24.68 30.576 -25.219 29.797 C-28.192 24.105 -27.216 17.312 -25.633 11.277 C-19.821 2.015 -10.879 -3.761 0 0 Z " fill="#1F8FE8" transform="translate(715.6328125,642.91015625)"/>
<path d="M0 0 C0.66 0.33 1.32 0.66 2 1 C1.42 1.568 0.84 2.137 0.242 2.723 C-3.938 6.855 -7.975 10.968 -11.613 15.59 C-13 17 -13 17 -14.828 17.82 C-18.578 19.857 -21.087 23.373 -23.846 26.568 C-26.625 29.712 -29.169 32.219 -33 34 C-33.66 33.67 -34.32 33.34 -35 33 C-34.004 31.976 -33.003 30.956 -32 29.938 C-31.443 29.369 -30.886 28.801 -30.312 28.215 C-28.339 26.324 -26.328 24.526 -24.266 22.734 C-19.999 19.025 -15.865 15.189 -11.75 11.312 C-11.056 10.662 -10.363 10.012 -9.648 9.342 C-6.384 6.274 -3.14 3.197 0 0 Z " fill="#4980BD" transform="translate(342,193)"/>
</svg>
