<?xml version="1.0" encoding="UTF-8"?>
<!-- Generator: visioncortex VTracer 0.6.12 -->
<svg version="1.1" xmlns="http://www.w3.org/2000/svg" width="1254" height="1254">
<path d="M0 0 C1.164 -0.026 2.328 -0.052 3.527 -0.078 C14.849 0.363 26.198 3.981 36.918 7.355 C38.21 7.756 39.501 8.156 40.793 8.555 C43.528 9.401 46.26 10.252 48.992 11.106 C53.344 12.468 57.699 13.819 62.055 15.169 C67.968 17.002 73.88 18.839 79.792 20.679 C89.992 23.853 100.201 26.996 110.413 30.133 C113.472 31.073 116.531 32.014 119.59 32.956 C138.15 38.667 156.715 44.362 175.281 50.055 C177.753 50.813 180.225 51.572 182.697 52.33 C213.348 61.73 213.348 61.73 227.691 66.105 C257.591 75.228 287.447 84.489 317.3 93.761 C319.141 94.333 320.983 94.904 322.824 95.476 C327.285 96.861 331.745 98.248 336.205 99.639 C343.354 101.868 350.503 104.094 357.679 106.238 C359.71 106.844 361.74 107.456 363.77 108.068 C366.156 108.786 368.544 109.495 370.936 110.191 C382.965 113.828 392.181 119.399 401.062 128.25 C401.382 128.557 401.382 128.557 402.996 130.113 C410.953 138.389 414.943 148.899 417.891 159.785 C418.147 160.724 418.404 161.662 418.669 162.629 C420.663 170.176 422.174 177.773 423.604 185.444 C424.366 189.454 425.193 193.452 426.023 197.448 C426.726 200.864 427.381 204.277 427.947 207.718 C431.639 229.877 431.639 229.877 438.734 235.287 C445.348 238.63 452.328 240.157 459.568 241.538 C464.786 242.601 469.757 244.274 474.805 245.945 C476.67 246.527 478.538 247.104 480.406 247.676 C481.319 247.956 482.232 248.237 483.172 248.526 C484.085 248.806 484.997 249.086 485.938 249.375 C497.137 252.817 508.329 256.284 519.469 259.914 C520.321 260.186 521.173 260.457 522.051 260.737 C539.092 266.357 552.789 278.608 561.176 294.437 C566.362 305.04 568.702 317.265 571.406 328.688 C571.812 330.377 572.217 332.067 572.624 333.756 C573.716 338.303 574.8 342.852 575.883 347.401 C577.036 352.237 578.197 357.072 579.356 361.906 C580.805 367.945 582.252 373.984 583.697 380.023 C586.95 393.623 590.224 407.218 593.516 420.809 C593.961 422.646 594.405 424.483 594.85 426.321 C595.07 427.227 595.289 428.133 595.515 429.066 C595.734 429.969 595.952 430.872 596.178 431.803 C596.396 432.703 596.614 433.603 596.838 434.53 C604.543 466.355 612.155 498.201 619.654 530.075 C620.511 533.719 621.369 537.364 622.227 541.008 C622.392 541.711 622.558 542.415 622.728 543.139 C625.914 556.668 629.167 570.179 632.438 583.688 C638.063 606.934 643.541 630.214 649 653.5 C649.205 654.374 649.41 655.249 649.621 656.149 C651.93 665.997 654.235 675.845 656.532 685.695 C657.657 690.52 658.79 695.343 659.926 700.166 C660.473 702.501 661.02 704.837 661.566 707.172 C661.809 708.196 662.053 709.221 662.303 710.276 C666.981 730.355 666.564 750.795 656.918 769.379 C651.687 777.474 645.302 784.296 638.485 791.068 C637.529 792.025 636.574 792.982 635.619 793.939 C633.015 796.548 630.405 799.15 627.794 801.751 C624.971 804.565 622.154 807.385 619.336 810.205 C614.459 815.083 609.578 819.957 604.695 824.829 C597.629 831.878 590.569 838.933 583.511 845.989 C572.049 857.446 560.584 868.899 549.115 880.348 C537.991 891.454 526.869 902.562 515.749 913.673 C515.406 914.016 515.406 914.016 513.672 915.749 C510.233 919.185 506.794 922.621 503.355 926.058 C479.664 949.732 455.967 973.403 432.266 997.068 C432.014 997.321 432.014 997.321 430.735 998.598 C428.397 1000.932 426.059 1003.266 423.721 1005.601 C419.834 1009.482 415.947 1013.365 412.062 1017.25 C411.028 1018.281 409.992 1019.311 408.956 1020.34 C405.913 1023.366 402.872 1026.395 399.832 1029.425 C398.523 1030.73 397.213 1032.033 395.902 1033.335 C394.001 1035.224 392.104 1037.116 390.207 1039.008 C389.621 1039.589 389.034 1040.17 388.43 1040.769 C386.03 1043.168 383.951 1045.417 382.062 1048.25 C381.403 1048.25 380.742 1048.25 380.062 1048.25 C379.836 1048.828 379.609 1049.405 379.375 1050 C377.715 1052.846 375.671 1054.248 373.062 1056.25 C370.374 1058.804 367.937 1061.4 365.562 1064.25 C363.189 1067.098 360.792 1069.741 358.062 1072.25 C357.403 1072.25 356.742 1072.25 356.062 1072.25 C355.856 1072.781 355.65 1073.312 355.438 1073.859 C353.483 1077.258 350.841 1079.761 348.062 1082.5 C347.516 1083.054 346.969 1083.609 346.406 1084.18 C342.316 1088.25 342.316 1088.25 340.062 1088.25 C339.794 1088.889 339.526 1089.529 339.25 1090.188 C338.062 1092.25 338.062 1092.25 335.062 1093.25 C334.364 1094.567 333.702 1095.903 333.062 1097.25 C331.406 1099.172 331.406 1099.172 329.562 1101 C328.954 1101.614 328.346 1102.227 327.719 1102.859 C326.063 1104.25 326.063 1104.25 324.062 1104.25 C323.825 1104.812 323.588 1105.374 323.344 1105.953 C321.773 1108.769 319.848 1110.73 317.562 1113 C316.768 1113.799 315.974 1114.598 315.156 1115.422 C313.062 1117.25 313.062 1117.25 311.062 1117.25 C310.818 1117.822 310.573 1118.395 310.32 1118.984 C306.183 1126.437 298.343 1130.975 290.938 1134.688 C290.281 1135.017 289.625 1135.347 288.949 1135.687 C281.238 1139.369 274.075 1140.612 265.562 1140.625 C264.779 1140.649 263.995 1140.674 263.188 1140.699 C245.463 1140.783 227.502 1132.71 210.8 1127.345 C207.451 1126.271 204.102 1125.201 200.752 1124.131 C200.091 1123.92 199.431 1123.709 198.75 1123.491 C197.408 1123.063 196.067 1122.634 194.726 1122.206 C192.683 1121.553 190.64 1120.9 188.598 1120.247 C175.01 1115.903 161.4 1111.632 147.789 1107.362 C139.45 1104.745 131.113 1102.118 122.777 1099.488 C122.017 1099.248 121.256 1099.008 120.472 1098.761 C79.25 1085.758 38.039 1072.728 -3.066 1059.359 C-4.678 1058.835 -6.29 1058.311 -7.901 1057.787 C-8.303 1057.657 -8.303 1057.657 -10.337 1056.995 C-13.614 1055.93 -16.89 1054.864 -20.167 1053.799 C-21.802 1053.268 -23.437 1052.736 -25.072 1052.204 C-45.928 1045.423 -66.8 1038.726 -87.784 1032.351 C-88.479 1032.14 -89.174 1031.929 -89.891 1031.711 C-90.564 1031.506 -91.238 1031.302 -91.932 1031.091 C-103.149 1027.674 -114.296 1024.035 -125.439 1020.386 C-128.876 1019.27 -132.319 1018.181 -135.766 1017.098 C-156.823 1010.413 -174.019 1001.192 -184.979 981.215 C-189.568 971.804 -191.541 961.675 -193.609 951.496 C-193.939 949.902 -194.27 948.308 -194.601 946.715 C-195.288 943.4 -195.97 940.085 -196.648 936.768 C-197.517 932.513 -198.396 928.26 -199.277 924.007 C-200.12 919.942 -200.959 915.875 -201.797 911.809 C-201.957 911.033 -202.117 910.258 -202.282 909.459 C-202.731 907.277 -203.178 905.095 -203.624 902.912 C-203.751 902.291 -203.751 902.291 -204.395 899.15 C-204.938 896.25 -204.938 896.25 -204.938 894.25 C-205.51 894.15 -206.082 894.051 -206.672 893.948 C-213.894 892.606 -220.815 890.591 -227.82 888.398 C-229.033 888.021 -230.246 887.643 -231.496 887.254 C-234.054 886.455 -236.61 885.653 -239.166 884.848 C-241.75 884.035 -244.337 883.23 -246.927 882.434 C-271.568 874.854 -293.269 868.057 -306.559 844.359 C-309.532 838.456 -311.466 832.738 -312.828 826.277 C-312.996 825.503 -313.163 824.728 -313.336 823.931 C-315.544 813.592 -317.516 803.205 -319.496 792.82 C-319.932 790.542 -320.368 788.264 -320.805 785.987 C-325.46 761.638 -330.008 737.269 -334.551 712.899 C-336.93 700.132 -339.316 687.366 -341.701 674.599 C-342.081 672.566 -342.461 670.533 -342.841 668.499 C-347.599 643.036 -352.38 617.578 -357.188 592.125 C-357.362 591.198 -357.537 590.271 -357.718 589.316 C-364.37 554.079 -364.37 554.079 -367.793 536.543 C-368.011 535.424 -368.23 534.305 -368.455 533.152 C-368.562 532.603 -368.562 532.603 -369.105 529.822 C-369.528 527.652 -369.952 525.482 -370.375 523.312 C-370.578 522.272 -370.781 521.232 -370.99 520.16 C-376.057 494.128 -380.761 468.03 -385.5 441.938 C-385.703 440.821 -385.906 439.704 -386.115 438.554 C-387.292 432.072 -388.468 425.59 -389.642 419.107 C-390.004 417.111 -390.365 415.115 -390.727 413.119 C-400.297 360.307 -400.297 360.307 -386.188 337.41 C-379.913 328.39 -372.089 320.955 -363.758 313.855 C-361.935 312.248 -360.25 310.561 -358.562 308.812 C-355.938 306.25 -355.938 306.25 -353.938 306.25 C-353.805 305.95 -353.805 305.95 -353.137 304.43 C-351.874 302.135 -350.765 301.021 -348.75 299.375 C-344.677 295.927 -340.767 292.337 -336.875 288.688 C-336.23 288.084 -335.585 287.48 -334.921 286.858 C-333.589 285.61 -332.257 284.362 -330.925 283.113 C-327.767 280.153 -324.602 277.202 -321.438 274.25 C-317.651 270.717 -313.865 267.182 -310.082 263.645 C-303.426 257.422 -296.744 251.231 -290.02 245.082 C-283.95 239.517 -277.951 233.875 -271.938 228.25 C-245.957 203.961 -245.957 203.961 -239.562 198.438 C-236.496 195.788 -233.647 192.983 -230.81 190.092 C-229.008 188.319 -227.151 186.663 -225.234 185.016 C-220.945 181.286 -216.809 177.412 -212.688 173.5 C-207.802 168.881 -202.906 164.279 -197.938 159.75 C-192.337 154.641 -186.82 149.446 -181.307 144.242 C-176.837 140.026 -172.34 135.842 -167.812 131.688 C-163.961 128.153 -160.204 124.552 -156.539 120.824 C-153.476 117.813 -150.195 115.047 -146.938 112.25 C-142.452 108.379 -138.078 104.494 -133.938 100.25 C-132.67 98.955 -131.399 97.664 -130.125 96.375 C-129.52 95.759 -128.916 95.143 -128.293 94.508 C-126.29 92.588 -124.25 90.761 -122.156 88.941 C-118.094 85.411 -114.161 81.759 -110.25 78.062 C-108.844 76.739 -107.438 75.416 -106.031 74.094 C-105.34 73.444 -104.649 72.794 -103.938 72.125 C-101.055 69.423 -98.156 66.74 -95.25 64.062 C-94.724 63.578 -94.199 63.094 -93.657 62.594 C-92.084 61.146 -90.511 59.698 -88.938 58.25 C-82.084 51.938 -75.245 45.612 -68.438 39.25 C-56.437 28.04 -56.437 28.04 -50.781 22.863 C-49.119 21.336 -47.468 19.797 -45.844 18.23 C-33.45 6.598 -16.926 0.221 0 0 Z " fill="#04B2FB" transform="translate(512.9375,61.75)"/>
<path d="M0 0 C1.164 -0.026 2.328 -0.052 3.527 -0.078 C14.849 0.363 26.198 3.981 36.918 7.355 C38.21 7.756 39.501 8.156 40.793 8.555 C43.528 9.401 46.26 10.252 48.992 11.106 C53.344 12.468 57.699 13.819 62.055 15.169 C67.968 17.002 73.88 18.839 79.792 20.679 C89.992 23.853 100.201 26.996 110.413 30.133 C113.472 31.073 116.531 32.014 119.59 32.956 C138.15 38.667 156.715 44.362 175.281 50.055 C177.753 50.813 180.225 51.572 182.697 52.33 C213.348 61.73 213.348 61.73 227.691 66.105 C257.591 75.228 287.447 84.489 317.3 93.761 C319.141 94.333 320.983 94.904 322.824 95.476 C327.285 96.861 331.745 98.248 336.205 99.639 C343.354 101.868 350.503 104.094 357.679 106.238 C359.71 106.844 361.74 107.456 363.77 108.068 C366.156 108.786 368.544 109.495 370.936 110.191 C382.965 113.828 392.181 119.399 401.062 128.25 C401.382 128.557 401.382 128.557 402.996 130.113 C411.123 138.566 414.995 149.185 417.914 160.301 C418.169 161.255 418.424 162.209 418.687 163.192 C421.27 172.912 423.754 182.657 426.16 192.422 C426.641 194.366 427.127 196.31 427.617 198.252 C432.576 217.899 432.576 217.899 432.928 227.885 C433.062 230.25 433.062 230.25 434.062 233.25 C427.418 232.587 421.29 230.623 414.938 228.625 C413.792 228.269 412.646 227.913 411.466 227.546 C403.339 225.005 395.259 222.34 387.193 219.615 C381.443 217.681 375.663 215.954 369.816 214.332 C361.171 211.84 352.628 209.001 344.062 206.25 C340.48 205.102 336.897 203.956 333.312 202.812 C332.412 202.525 331.512 202.238 330.585 201.942 C324.613 200.042 318.627 198.195 312.633 196.368 C301.143 192.866 289.734 189.17 278.352 185.333 C271.659 183.087 264.97 181.002 258.16 179.137 C254.01 177.949 249.938 176.555 245.852 175.168 C241.348 173.651 236.815 172.26 232.25 170.938 C215.311 166.017 198.486 160.779 181.78 155.119 C174.277 152.599 166.714 150.382 159.09 148.26 C153.883 146.801 148.83 145.144 143.773 143.223 C140.531 142.059 137.246 141.082 133.938 140.125 C125.687 137.738 117.457 135.283 109.235 132.799 C107.757 132.353 106.279 131.909 104.8 131.465 C97.467 129.264 90.205 127.02 83.062 124.25 C70.023 119.587 57.926 117.089 44.062 117.25 C43.496 117.251 43.496 117.251 40.629 117.254 C25.479 117.865 13.474 126.502 2.938 136.688 C2.212 137.378 1.487 138.069 0.74 138.781 C-4.851 144.134 -10.347 149.584 -15.764 155.113 C-18.643 158.036 -21.566 160.828 -24.684 163.496 C-30.047 168.127 -34.966 173.208 -39.938 178.25 C-45.426 183.817 -50.911 189.306 -56.855 194.391 C-61.416 198.464 -65.646 202.897 -69.938 207.25 C-75.466 212.858 -80.992 218.393 -86.98 223.516 C-90.81 226.91 -94.351 230.603 -97.938 234.25 C-106.36 242.817 -106.36 242.817 -110.844 246.656 C-115.984 251.074 -120.682 255.926 -125.438 260.75 C-135.455 270.911 -135.455 270.911 -139.906 274.719 C-145.208 279.259 -150.041 284.283 -154.938 289.25 C-165.443 299.906 -165.443 299.906 -169.906 303.719 C-175.388 308.408 -180.375 313.618 -185.438 318.75 C-191.12 324.51 -196.779 330.211 -202.936 335.471 C-207.127 339.196 -211.004 343.257 -214.938 347.25 C-224.423 356.88 -224.423 356.88 -228.875 360.688 C-234.185 365.241 -239.03 370.273 -243.938 375.25 C-249.488 380.88 -255.031 386.452 -261.039 391.6 C-275.345 404.031 -287.199 416.84 -289.938 436.25 C-290.829 449.851 -289.26 462.693 -286.625 476 C-286.265 477.888 -285.907 479.777 -285.55 481.666 C-284.577 486.785 -283.58 491.898 -282.574 497.011 C-281.926 500.308 -281.283 503.606 -280.64 506.904 C-278.36 518.605 -276.06 530.302 -273.746 541.996 C-270.992 555.926 -268.3 569.867 -265.625 583.812 C-265.202 586.016 -264.779 588.22 -264.356 590.423 C-262.931 597.85 -261.507 605.277 -260.084 612.704 C-259.371 616.428 -258.655 620.152 -257.938 623.875 C-257.717 625.02 -257.496 626.166 -257.269 627.346 C-255.713 635.37 -254.109 643.383 -252.492 651.395 C-252.047 653.605 -251.602 655.816 -251.156 658.027 C-250.289 662.333 -249.416 666.638 -248.539 670.942 C-246.245 682.275 -244.174 693.617 -242.325 705.032 C-241.317 711.177 -240.139 717.233 -238.657 723.284 C-237.243 729.114 -236.084 735 -234.875 740.875 C-234.619 742.107 -234.363 743.34 -234.1 744.609 C-232.796 750.921 -231.556 757.237 -230.423 763.582 C-229.55 768.379 -228.585 773.157 -227.625 777.938 C-227.411 779.007 -227.196 780.076 -226.975 781.178 C-225.427 788.874 -223.849 796.564 -222.25 804.25 C-222.048 805.222 -221.846 806.193 -221.637 807.194 C-220.584 812.232 -219.498 817.258 -218.33 822.271 C-217.93 824.29 -217.719 826.262 -217.562 828.312 C-217.147 832.59 -216.142 836.663 -215.062 840.812 C-212.962 848.899 -211.397 857.027 -209.938 865.25 C-208.443 873.638 -206.931 881.935 -204.488 890.113 C-203.938 892.25 -203.938 892.25 -203.938 895.25 C-203.391 895.291 -203.391 895.291 -200.625 895.5 C-197.217 895.926 -194.292 896.767 -191.09 898 C-184.755 900.359 -178.326 902.374 -171.869 904.366 C-168.292 905.469 -164.718 906.58 -161.145 907.691 C-160.788 907.802 -160.788 907.802 -158.981 908.363 C-153.14 910.18 -147.319 912.052 -141.5 913.938 C-127.84 918.349 -114.098 922.495 -100.368 926.68 C-86.842 930.805 -73.333 934.963 -59.897 939.373 C-54.286 941.208 -48.653 942.934 -42.984 944.582 C-32.998 947.489 -23.095 950.649 -13.188 953.812 C-9.651 954.94 -6.115 956.066 -2.578 957.191 C-2.152 957.327 -2.152 957.327 0.004 958.013 C5.525 959.769 11.058 961.485 16.599 963.179 C25.51 965.934 34.39 968.787 43.279 971.614 C53.527 974.872 63.78 978.104 74.062 981.25 C76.668 982.058 79.272 982.872 81.875 983.688 C82.21 983.792 82.21 983.792 83.902 984.321 C87.201 985.352 90.498 986.388 93.793 987.434 C103.006 990.346 112.264 993.083 121.551 995.751 C127.439 997.451 133.265 999.265 139.062 1001.25 C149.675 1004.823 160.32 1008.271 171.01 1011.604 C172.724 1012.144 174.433 1012.701 176.141 1013.262 C181.783 1015.081 187.141 1015.966 193.062 1016.25 C194.085 1016.303 195.107 1016.356 196.16 1016.41 C209.602 1016.779 222.638 1013.305 233.375 1004.875 C235.366 1002.93 237.106 1001.046 238.887 998.93 C244.997 991.907 251.768 985.491 258.383 978.95 C270.176 967.278 270.176 967.278 275.385 961.15 C279.67 956.296 284.422 951.856 289.035 947.316 C292.624 943.762 296.155 940.217 299.438 936.375 C304.629 930.327 310.422 924.835 316.092 919.241 C321.319 914.078 326.445 908.905 331.221 903.314 C335.738 898.252 340.689 893.576 345.52 888.813 C350.609 883.789 355.583 878.738 360.234 873.301 C364.994 867.961 370.232 863.047 375.324 858.027 C379.813 853.577 384.137 849.087 388.248 844.287 C392.8 839.176 397.806 834.473 402.68 829.672 C406.386 825.999 410.049 822.346 413.438 818.375 C418.8 812.121 424.806 806.452 430.665 800.668 C436.07 795.326 441.396 789.988 446.332 784.203 C450.643 779.337 455.404 774.875 460.035 770.316 C464.348 766.045 468.478 761.709 472.432 757.104 C475.497 753.619 478.848 750.423 482.168 747.184 C485.01 744.383 487.716 741.531 490.312 738.5 C495.634 732.341 501.532 726.738 507.324 721.027 C512.46 715.936 517.383 710.762 522.062 705.25 C522.667 704.563 523.272 703.875 523.896 703.167 C534.878 690.537 539.089 673.683 538.062 657.25 C536.994 649.325 535.325 641.53 533.5 633.75 C533.246 632.658 532.992 631.567 532.73 630.442 C529.35 616.041 525.715 601.703 522.098 587.36 C520.488 580.973 518.894 574.581 517.299 568.189 C516.092 563.356 514.88 558.524 513.661 553.694 C512.814 550.338 511.969 546.982 511.125 543.625 C510.957 542.956 510.788 542.287 510.615 541.597 C507.713 530.035 504.967 518.441 502.321 506.818 C502.052 505.648 501.784 504.479 501.508 503.273 C501.276 502.252 501.044 501.23 500.805 500.177 C500.035 497.141 499.06 494.219 498.062 491.25 C497.525 489.265 497.009 487.273 496.512 485.277 C496.228 484.141 495.944 483.004 495.652 481.833 C495.503 481.232 495.503 481.232 494.75 478.188 C494.44 476.941 494.13 475.695 493.811 474.411 C490.782 462.187 487.83 449.945 485.008 437.672 C483.194 429.809 481.196 422.053 478.93 414.305 C478.029 411.133 477.291 407.963 476.613 404.738 C475.895 401.494 475.069 398.282 474.25 395.062 C472.59 388.525 471.09 381.959 469.625 375.375 C468.109 368.591 466.472 361.872 464.562 355.188 C461.211 343.451 458.466 331.572 455.812 319.66 C453.789 310.59 451.673 301.604 449.087 292.677 C446.501 283.571 444.472 274.32 442.385 265.09 C442.242 264.461 442.242 264.461 441.516 261.277 C441.388 260.709 441.388 260.709 440.739 257.832 C440.062 255.25 440.062 255.25 439.062 254.25 C437.654 247.989 436.784 241.622 436.062 235.25 C442.398 235.838 448.065 237.302 454.113 239.242 C455.073 239.544 456.033 239.846 457.022 240.157 C460.142 241.139 463.259 242.132 466.375 243.125 C468.533 243.809 470.692 244.493 472.851 245.176 C476.117 246.209 479.383 247.244 482.649 248.28 C489.282 250.384 495.928 252.437 502.59 254.445 C504.933 255.158 507.276 255.872 509.618 256.586 C511.057 257.021 512.497 257.452 513.938 257.876 C527.819 261.972 538.774 267.997 549.062 278.25 C549.773 278.937 550.483 279.624 551.215 280.332 C560.319 289.751 564.176 300.871 567.426 313.27 C567.73 314.416 568.034 315.562 568.347 316.743 C571.059 327.052 573.54 337.408 575.944 347.792 C577.312 353.694 578.698 359.591 580.086 365.488 C580.162 365.81 580.162 365.81 580.546 367.441 C584.574 384.537 588.771 401.592 592.955 418.65 C600.745 450.416 608.414 482.207 615.894 514.047 C616.583 516.979 617.272 519.911 617.961 522.844 C618.13 523.565 618.3 524.286 618.474 525.029 C621.031 535.911 623.617 546.786 626.227 557.656 C626.4 558.378 626.573 559.099 626.751 559.843 C627.629 563.497 628.507 567.152 629.385 570.806 C636.089 598.706 642.701 626.626 649.25 654.562 C649.452 655.422 649.653 656.282 649.861 657.168 C652.105 666.741 654.346 676.314 656.578 685.89 C657.682 690.625 658.794 695.359 659.909 700.091 C660.456 702.429 661.004 704.767 661.551 707.105 C661.673 707.62 661.673 707.62 662.29 710.223 C666.974 730.323 666.575 750.772 656.918 769.379 C651.687 777.474 645.302 784.296 638.485 791.068 C637.529 792.025 636.574 792.982 635.619 793.939 C633.015 796.548 630.405 799.15 627.794 801.751 C624.971 804.565 622.154 807.385 619.336 810.205 C614.459 815.083 609.578 819.957 604.695 824.829 C597.629 831.878 590.569 838.933 583.511 845.989 C572.049 857.446 560.584 868.899 549.115 880.348 C537.991 891.454 526.869 902.562 515.749 913.673 C515.406 914.016 515.406 914.016 513.672 915.749 C510.233 919.185 506.794 922.621 503.355 926.058 C479.664 949.732 455.967 973.403 432.266 997.068 C432.014 997.321 432.014 997.321 430.735 998.598 C428.397 1000.932 426.059 1003.266 423.721 1005.601 C419.834 1009.482 415.947 1013.365 412.062 1017.25 C411.028 1018.281 409.992 1019.311 408.956 1020.34 C405.913 1023.366 402.872 1026.395 399.832 1029.425 C398.523 1030.73 397.213 1032.033 395.902 1033.335 C394.001 1035.224 392.104 1037.116 390.207 1039.008 C389.621 1039.589 389.034 1040.17 388.43 1040.769 C386.03 1043.168 383.951 1045.417 382.062 1048.25 C381.403 1048.25 380.742 1048.25 380.062 1048.25 C379.836 1048.828 379.609 1049.405 379.375 1050 C377.715 1052.846 375.671 1054.248 373.062 1056.25 C370.374 1058.804 367.937 1061.4 365.562 1064.25 C363.189 1067.098 360.792 1069.741 358.062 1072.25 C357.403 1072.25 356.742 1072.25 356.062 1072.25 C355.856 1072.781 355.65 1073.312 355.438 1073.859 C353.483 1077.258 350.841 1079.761 348.062 1082.5 C347.516 1083.054 346.969 1083.609 346.406 1084.18 C342.316 1088.25 342.316 1088.25 340.062 1088.25 C339.794 1088.889 339.526 1089.529 339.25 1090.188 C338.062 1092.25 338.062 1092.25 335.062 1093.25 C334.364 1094.567 333.702 1095.903 333.062 1097.25 C331.406 1099.172 331.406 1099.172 329.562 1101 C328.954 1101.614 328.346 1102.227 327.719 1102.859 C326.063 1104.25 326.063 1104.25 324.062 1104.25 C323.825 1104.812 323.588 1105.374 323.344 1105.953 C321.773 1108.769 319.848 1110.73 317.562 1113 C316.768 1113.799 315.974 1114.598 315.156 1115.422 C313.062 1117.25 313.062 1117.25 311.062 1117.25 C310.818 1117.822 310.573 1118.395 310.32 1118.984 C306.183 1126.437 298.343 1130.975 290.938 1134.688 C290.281 1135.017 289.625 1135.347 288.949 1135.687 C281.238 1139.369 274.075 1140.612 265.562 1140.625 C264.779 1140.649 263.995 1140.674 263.188 1140.699 C245.463 1140.783 227.502 1132.71 210.8 1127.345 C207.451 1126.271 204.102 1125.201 200.752 1124.131 C200.091 1123.92 199.431 1123.709 198.75 1123.491 C197.408 1123.063 196.067 1122.634 194.726 1122.206 C192.683 1121.553 190.64 1120.9 188.598 1120.247 C175.01 1115.903 161.4 1111.632 147.789 1107.362 C139.45 1104.745 131.113 1102.118 122.777 1099.488 C122.017 1099.248 121.256 1099.008 120.472 1098.761 C79.25 1085.758 38.039 1072.728 -3.066 1059.359 C-4.678 1058.835 -6.29 1058.311 -7.901 1057.787 C-8.303 1057.657 -8.303 1057.657 -10.337 1056.995 C-13.614 1055.93 -16.89 1054.864 -20.167 1053.799 C-21.802 1053.268 -23.437 1052.736 -25.072 1052.204 C-45.928 1045.423 -66.8 1038.726 -87.784 1032.351 C-88.479 1032.14 -89.174 1031.929 -89.891 1031.711 C-90.564 1031.506 -91.238 1031.302 -91.932 1031.091 C-103.149 1027.674 -114.296 1024.035 -125.439 1020.386 C-128.876 1019.27 -132.319 1018.181 -135.766 1017.098 C-156.823 1010.413 -174.019 1001.192 -184.979 981.215 C-189.568 971.804 -191.541 961.675 -193.609 951.496 C-193.939 949.902 -194.27 948.308 -194.601 946.715 C-195.288 943.4 -195.97 940.085 -196.648 936.768 C-197.517 932.513 -198.396 928.26 -199.277 924.007 C-200.12 919.942 -200.959 915.875 -201.797 911.809 C-201.957 911.033 -202.117 910.258 -202.282 909.459 C-202.731 907.277 -203.178 905.095 -203.624 902.912 C-203.751 902.291 -203.751 902.291 -204.395 899.15 C-204.938 896.25 -204.938 896.25 -204.938 894.25 C-205.51 894.15 -206.082 894.051 -206.672 893.948 C-213.894 892.606 -220.815 890.591 -227.82 888.398 C-229.033 888.021 -230.246 887.643 -231.496 887.254 C-234.054 886.455 -236.61 885.653 -239.166 884.848 C-241.75 884.035 -244.337 883.23 -246.927 882.434 C-271.568 874.854 -293.269 868.057 -306.559 844.359 C-309.532 838.456 -311.466 832.738 -312.828 826.277 C-312.996 825.503 -313.163 824.728 -313.336 823.931 C-315.544 813.592 -317.516 803.205 -319.496 792.82 C-319.932 790.542 -320.368 788.264 -320.805 785.987 C-325.46 761.638 -330.008 737.269 -334.551 712.899 C-336.93 700.132 -339.316 687.366 -341.701 674.599 C-342.081 672.566 -342.461 670.533 -342.841 668.499 C-347.599 643.036 -352.38 617.578 -357.188 592.125 C-357.362 591.198 -357.537 590.271 -357.718 589.316 C-364.37 554.079 -364.37 554.079 -367.793 536.543 C-368.011 535.424 -368.23 534.305 -368.455 533.152 C-368.562 532.603 -368.562 532.603 -369.105 529.822 C-369.528 527.652 -369.952 525.482 -370.375 523.312 C-370.578 522.272 -370.781 521.232 -370.99 520.16 C-376.057 494.128 -380.761 468.03 -385.5 441.938 C-385.703 440.821 -385.906 439.704 -386.115 438.554 C-387.292 432.072 -388.468 425.59 -389.642 419.107 C-390.004 417.111 -390.365 415.115 -390.727 413.119 C-400.297 360.307 -400.297 360.307 -386.188 337.41 C-379.913 328.39 -372.089 320.955 -363.758 313.855 C-361.935 312.248 -360.25 310.561 -358.562 308.812 C-355.938 306.25 -355.938 306.25 -353.938 306.25 C-353.805 305.95 -353.805 305.95 -353.137 304.43 C-351.874 302.135 -350.765 301.021 -348.75 299.375 C-344.677 295.927 -340.767 292.337 -336.875 288.688 C-336.23 288.084 -335.585 287.48 -334.921 286.858 C-333.589 285.61 -332.257 284.362 -330.925 283.113 C-327.767 280.153 -324.602 277.202 -321.438 274.25 C-317.651 270.717 -313.865 267.182 -310.082 263.645 C-303.426 257.422 -296.744 251.231 -290.02 245.082 C-283.95 239.517 -277.951 233.875 -271.938 228.25 C-245.957 203.961 -245.957 203.961 -239.562 198.438 C-236.496 195.788 -233.647 192.983 -230.81 190.092 C-229.008 188.319 -227.151 186.663 -225.234 185.016 C-220.945 181.286 -216.809 177.412 -212.688 173.5 C-207.802 168.881 -202.906 164.279 -197.938 159.75 C-192.337 154.641 -186.82 149.446 -181.307 144.242 C-176.837 140.026 -172.34 135.842 -167.812 131.688 C-163.961 128.153 -160.204 124.552 -156.539 120.824 C-153.476 117.813 -150.195 115.047 -146.938 112.25 C-142.452 108.379 -138.078 104.494 -133.938 100.25 C-132.67 98.955 -131.399 97.664 -130.125 96.375 C-129.52 95.759 -128.916 95.143 -128.293 94.508 C-126.29 92.588 -124.25 90.761 -122.156 88.941 C-118.094 85.411 -114.161 81.759 -110.25 78.062 C-108.844 76.739 -107.438 75.416 -106.031 74.094 C-105.34 73.444 -104.649 72.794 -103.938 72.125 C-101.055 69.423 -98.156 66.74 -95.25 64.062 C-94.724 63.578 -94.199 63.094 -93.657 62.594 C-92.084 61.146 -90.511 59.698 -88.938 58.25 C-82.084 51.938 -75.245 45.612 -68.438 39.25 C-56.437 28.04 -56.437 28.04 -50.781 22.863 C-49.119 21.336 -47.468 19.797 -45.844 18.23 C-33.45 6.598 -16.926 0.221 0 0 Z " fill="#04709F" transform="translate(512.9375,61.75)"/>
<path d="M0 0 C0.605 -0.002 0.605 -0.002 3.666 -0.009 C7.008 -0.016 10.349 -0.014 13.69 -0.007 C17.301 -0.003 20.911 -0.01 24.521 -0.015 C31.586 -0.024 38.652 -0.022 45.718 -0.017 C51.461 -0.012 57.204 -0.011 62.948 -0.014 C63.357 -0.014 63.357 -0.014 65.427 -0.015 C67.089 -0.015 68.751 -0.016 70.413 -0.017 C85.991 -0.022 101.568 -0.016 117.146 -0.005 C130.506 0.004 143.866 0.002 157.226 -0.007 C172.748 -0.017 188.271 -0.022 203.793 -0.016 C205.449 -0.015 207.105 -0.014 208.761 -0.014 C209.576 -0.013 210.39 -0.013 211.23 -0.013 C216.965 -0.011 222.7 -0.014 228.435 -0.019 C235.426 -0.024 242.418 -0.023 249.409 -0.012 C252.974 -0.007 256.54 -0.005 260.105 -0.011 C263.973 -0.018 267.841 -0.01 271.709 0 C272.832 -0.004 273.955 -0.009 275.112 -0.014 C287.179 0.047 298.874 3.116 307.854 11.691 C317.873 22.877 318.302 36.413 318.235 50.777 C318.239 52.426 318.244 54.075 318.25 55.724 C318.262 60.227 318.256 64.73 318.247 69.233 C318.24 74.1 318.25 78.967 318.259 83.834 C318.272 93.357 318.269 102.88 318.26 112.403 C318.254 120.143 318.253 127.883 318.256 135.624 C318.256 136.727 318.257 137.829 318.257 138.966 C318.258 141.206 318.259 143.447 318.26 145.688 C318.269 166.681 318.259 187.675 318.243 208.669 C318.229 226.675 318.232 244.681 318.246 262.688 C318.262 283.611 318.268 304.534 318.259 325.457 C318.258 327.689 318.257 329.92 318.256 332.152 C318.255 333.25 318.255 334.348 318.255 335.479 C318.252 343.209 318.256 350.94 318.263 358.67 C318.272 368.092 318.27 377.513 318.254 386.935 C318.246 391.74 318.243 396.545 318.252 401.351 C318.261 405.752 318.256 410.154 318.241 414.555 C318.237 416.145 318.239 417.734 318.246 419.323 C318.305 433.107 316.413 444.563 307.108 455.262 C296.932 465.036 284.426 466.405 271.001 466.394 C270.4 466.396 270.4 466.396 267.356 466.403 C264.026 466.411 260.695 466.413 257.365 466.414 C253.769 466.416 250.174 466.423 246.579 466.43 C238.721 466.444 230.864 466.45 223.006 466.454 C218.098 466.457 213.189 466.461 208.281 466.466 C194.684 466.478 181.087 466.488 167.49 466.492 C166.62 466.492 165.751 466.492 164.855 466.492 C163.983 466.492 163.111 466.493 162.213 466.493 C160.446 466.493 158.68 466.494 156.914 466.494 C156.037 466.494 155.161 466.495 154.258 466.495 C140.062 466.499 125.865 466.516 111.669 466.54 C97.084 466.563 82.5 466.576 67.916 466.577 C59.731 466.578 51.546 466.584 43.361 466.602 C36.392 466.617 29.422 466.622 22.452 466.614 C18.899 466.61 15.345 466.611 11.792 466.625 C7.933 466.64 4.075 466.632 0.216 466.621 C-0.341 466.625 -0.341 466.625 -3.162 466.646 C-14.936 466.572 -25.889 463.499 -34.411 454.992 C-43.472 444.303 -44.735 434.256 -44.653 420.629 C-44.658 418.945 -44.664 417.261 -44.672 415.576 C-44.689 410.966 -44.681 406.356 -44.668 401.746 C-44.659 396.767 -44.673 391.789 -44.684 386.81 C-44.702 377.063 -44.698 367.317 -44.687 357.571 C-44.678 349.648 -44.676 341.726 -44.681 333.804 C-44.681 332.676 -44.682 331.548 -44.683 330.386 C-44.684 328.094 -44.685 325.802 -44.687 323.51 C-44.698 302.027 -44.685 280.544 -44.663 259.06 C-44.645 240.632 -44.649 222.204 -44.667 203.775 C-44.688 182.368 -44.697 160.961 -44.685 139.554 C-44.683 137.27 -44.682 134.987 -44.681 132.704 C-44.68 131.58 -44.68 130.457 -44.679 129.299 C-44.675 121.388 -44.681 113.477 -44.691 105.566 C-44.702 95.923 -44.699 86.28 -44.678 76.637 C-44.667 71.718 -44.663 66.799 -44.676 61.881 C-44.688 57.375 -44.681 52.87 -44.66 48.365 C-44.656 46.738 -44.658 45.111 -44.668 43.484 C-44.737 30.872 -43.022 20.721 -34.146 11.254 C-23.782 2.113 -13.46 -0.053 0 0 Z " fill="#FBFCFD" transform="translate(569.1455078125,411.74603271484375)"/>
<path d="M0 0 C1.164 -0.026 2.328 -0.052 3.527 -0.078 C14.849 0.363 26.198 3.981 36.918 7.355 C38.21 7.756 39.501 8.156 40.793 8.555 C43.528 9.401 46.26 10.252 48.992 11.106 C53.344 12.468 57.699 13.819 62.055 15.169 C67.968 17.002 73.88 18.839 79.792 20.679 C89.992 23.853 100.201 26.996 110.413 30.133 C113.472 31.073 116.531 32.014 119.59 32.956 C138.15 38.667 156.715 44.362 175.281 50.055 C177.753 50.813 180.225 51.572 182.697 52.33 C213.348 61.73 213.348 61.73 227.691 66.105 C257.591 75.228 287.447 84.489 317.3 93.761 C319.141 94.333 320.983 94.904 322.824 95.476 C327.285 96.861 331.745 98.248 336.205 99.639 C343.354 101.868 350.503 104.094 357.679 106.238 C359.71 106.844 361.74 107.456 363.77 108.068 C366.156 108.786 368.544 109.495 370.936 110.191 C382.965 113.828 392.181 119.399 401.062 128.25 C401.382 128.557 401.382 128.557 402.996 130.113 C411.123 138.566 414.995 149.185 417.914 160.301 C418.169 161.255 418.424 162.209 418.687 163.192 C421.27 172.912 423.754 182.657 426.16 192.422 C426.641 194.366 427.127 196.31 427.617 198.252 C432.576 217.899 432.576 217.899 432.928 227.885 C433.062 230.25 433.062 230.25 434.062 233.25 C427.418 232.587 421.29 230.623 414.938 228.625 C413.792 228.269 412.646 227.913 411.466 227.546 C403.339 225.005 395.259 222.34 387.193 219.615 C381.443 217.681 375.663 215.954 369.816 214.332 C361.171 211.84 352.628 209.001 344.062 206.25 C340.48 205.102 336.897 203.956 333.312 202.812 C332.412 202.525 331.512 202.238 330.585 201.942 C324.613 200.042 318.627 198.195 312.633 196.368 C301.143 192.866 289.734 189.17 278.352 185.333 C271.659 183.087 264.97 181.002 258.16 179.137 C254.01 177.949 249.938 176.555 245.852 175.168 C241.348 173.651 236.815 172.26 232.25 170.938 C215.311 166.017 198.486 160.779 181.78 155.119 C174.277 152.599 166.714 150.382 159.09 148.26 C153.883 146.801 148.83 145.144 143.773 143.223 C140.531 142.059 137.246 141.082 133.938 140.125 C125.687 137.738 117.457 135.283 109.235 132.799 C107.757 132.353 106.279 131.909 104.8 131.465 C97.467 129.264 90.205 127.02 83.062 124.25 C70.023 119.587 57.926 117.089 44.062 117.25 C43.496 117.251 43.496 117.251 40.629 117.254 C25.479 117.865 13.474 126.502 2.938 136.688 C2.212 137.378 1.487 138.069 0.74 138.781 C-4.851 144.134 -10.347 149.584 -15.764 155.113 C-18.643 158.036 -21.566 160.828 -24.684 163.496 C-30.047 168.127 -34.966 173.208 -39.938 178.25 C-45.426 183.817 -50.911 189.306 -56.855 194.391 C-61.416 198.464 -65.646 202.897 -69.938 207.25 C-75.466 212.858 -80.992 218.393 -86.98 223.516 C-90.81 226.91 -94.351 230.603 -97.938 234.25 C-106.36 242.817 -106.36 242.817 -110.844 246.656 C-115.984 251.074 -120.682 255.926 -125.438 260.75 C-135.455 270.911 -135.455 270.911 -139.906 274.719 C-145.208 279.259 -150.041 284.283 -154.938 289.25 C-165.443 299.906 -165.443 299.906 -169.906 303.719 C-175.388 308.408 -180.375 313.618 -185.438 318.75 C-191.12 324.51 -196.779 330.211 -202.936 335.471 C-207.127 339.196 -211.004 343.257 -214.938 347.25 C-224.423 356.88 -224.423 356.88 -228.875 360.688 C-234.185 365.241 -239.03 370.273 -243.938 375.25 C-249.488 380.88 -255.031 386.452 -261.039 391.6 C-275.345 404.031 -287.199 416.84 -289.938 436.25 C-290.829 449.851 -289.26 462.693 -286.625 476 C-286.265 477.888 -285.907 479.777 -285.55 481.666 C-284.577 486.785 -283.58 491.898 -282.574 497.011 C-281.926 500.308 -281.283 503.606 -280.64 506.904 C-278.36 518.605 -276.06 530.302 -273.746 541.996 C-270.992 555.926 -268.3 569.867 -265.625 583.812 C-265.202 586.016 -264.779 588.22 -264.356 590.423 C-262.931 597.85 -261.507 605.277 -260.084 612.704 C-259.371 616.428 -258.655 620.152 -257.938 623.875 C-257.717 625.02 -257.496 626.166 -257.269 627.346 C-255.713 635.37 -254.109 643.383 -252.492 651.395 C-252.047 653.605 -251.602 655.816 -251.156 658.027 C-250.289 662.333 -249.416 666.638 -248.539 670.942 C-246.245 682.275 -244.174 693.617 -242.325 705.032 C-241.317 711.177 -240.139 717.233 -238.657 723.284 C-237.243 729.114 -236.084 735 -234.875 740.875 C-234.619 742.107 -234.363 743.34 -234.1 744.609 C-232.796 750.921 -231.556 757.237 -230.423 763.582 C-229.55 768.379 -228.585 773.157 -227.625 777.938 C-227.411 779.007 -227.196 780.076 -226.975 781.178 C-225.427 788.874 -223.849 796.564 -222.25 804.25 C-222.048 805.222 -221.846 806.193 -221.637 807.194 C-220.584 812.232 -219.498 817.258 -218.33 822.271 C-217.93 824.29 -217.719 826.262 -217.562 828.312 C-217.147 832.59 -216.142 836.663 -215.062 840.812 C-213.148 848.199 -211.62 855.602 -210.31 863.12 C-210.05 864.606 -209.786 866.091 -209.519 867.575 C-209.088 869.965 -208.668 872.357 -208.25 874.75 C-208.118 875.479 -207.987 876.209 -207.851 876.96 C-207.03 881.788 -206.822 886.352 -206.938 891.25 C-214.854 893.769 -224.395 889.338 -231.992 886.949 C-233.015 886.631 -234.038 886.313 -235.092 885.985 C-237.242 885.314 -239.392 884.641 -241.541 883.965 C-244.794 882.943 -248.051 881.933 -251.309 880.924 C-274.406 873.723 -294.126 866.489 -306.566 844.352 C-309.532 838.449 -311.467 832.734 -312.828 826.277 C-312.996 825.503 -313.163 824.728 -313.336 823.931 C-315.544 813.592 -317.516 803.205 -319.496 792.82 C-319.932 790.542 -320.368 788.264 -320.805 785.987 C-325.46 761.638 -330.008 737.269 -334.551 712.899 C-336.93 700.132 -339.316 687.366 -341.701 674.599 C-342.081 672.566 -342.461 670.533 -342.841 668.499 C-347.599 643.036 -352.38 617.578 -357.188 592.125 C-357.362 591.198 -357.537 590.271 -357.718 589.316 C-364.37 554.079 -364.37 554.079 -367.793 536.543 C-368.011 535.424 -368.23 534.305 -368.455 533.152 C-368.562 532.603 -368.562 532.603 -369.105 529.822 C-369.528 527.652 -369.952 525.482 -370.375 523.312 C-370.578 522.272 -370.781 521.232 -370.99 520.16 C-376.057 494.128 -380.761 468.03 -385.5 441.938 C-385.703 440.821 -385.906 439.704 -386.115 438.554 C-387.292 432.072 -388.468 425.59 -389.642 419.107 C-390.004 417.111 -390.365 415.115 -390.727 413.119 C-400.297 360.307 -400.297 360.307 -386.188 337.41 C-379.913 328.39 -372.089 320.955 -363.758 313.855 C-361.935 312.248 -360.25 310.561 -358.562 308.812 C-355.938 306.25 -355.938 306.25 -353.938 306.25 C-353.805 305.95 -353.805 305.95 -353.137 304.43 C-351.874 302.135 -350.765 301.021 -348.75 299.375 C-344.677 295.927 -340.767 292.337 -336.875 288.688 C-336.23 288.084 -335.585 287.48 -334.921 286.858 C-333.589 285.61 -332.257 284.362 -330.925 283.113 C-327.767 280.153 -324.602 277.202 -321.438 274.25 C-317.651 270.717 -313.865 267.182 -310.082 263.645 C-303.426 257.422 -296.744 251.231 -290.02 245.082 C-283.95 239.517 -277.951 233.875 -271.938 228.25 C-245.957 203.961 -245.957 203.961 -239.562 198.438 C-236.496 195.788 -233.647 192.983 -230.81 190.092 C-229.008 188.319 -227.151 186.663 -225.234 185.016 C-220.945 181.286 -216.809 177.412 -212.688 173.5 C-207.802 168.881 -202.906 164.279 -197.938 159.75 C-192.337 154.641 -186.82 149.446 -181.307 144.242 C-176.837 140.026 -172.34 135.842 -167.812 131.688 C-163.961 128.153 -160.204 124.552 -156.539 120.824 C-153.476 117.813 -150.195 115.047 -146.938 112.25 C-142.452 108.379 -138.078 104.494 -133.938 100.25 C-132.67 98.955 -131.399 97.664 -130.125 96.375 C-129.52 95.759 -128.916 95.143 -128.293 94.508 C-126.29 92.588 -124.25 90.761 -122.156 88.941 C-118.094 85.411 -114.161 81.759 -110.25 78.062 C-108.844 76.739 -107.438 75.416 -106.031 74.094 C-105.34 73.444 -104.649 72.794 -103.938 72.125 C-101.055 69.423 -98.156 66.74 -95.25 64.062 C-94.724 63.578 -94.199 63.094 -93.657 62.594 C-92.084 61.146 -90.511 59.698 -88.938 58.25 C-82.084 51.938 -75.245 45.612 -68.438 39.25 C-56.437 28.04 -56.437 28.04 -50.781 22.863 C-49.119 21.336 -47.468 19.797 -45.844 18.23 C-33.45 6.598 -16.926 0.221 0 0 Z " fill="#0352A2" transform="translate(512.9375,61.75)"/>
<path d="M0 0 C1.845 0.005 3.69 0.008 5.535 0.011 C9.599 0.019 13.664 0.036 17.728 0.061 C24.505 0.102 31.283 0.122 38.06 0.139 C45.724 0.16 53.388 0.183 61.053 0.213 C82.42 0.296 103.788 0.327 125.156 0.341 C133.331 0.346 141.507 0.352 149.682 0.359 C150.601 0.359 151.519 0.36 152.466 0.361 C177.206 0.381 201.945 0.429 226.685 0.48 C231.547 0.49 236.409 0.5 241.271 0.509 C241.754 0.51 241.754 0.51 244.198 0.515 C260.088 0.547 275.979 0.563 291.87 0.575 C308.418 0.587 324.965 0.615 341.513 0.656 C351.612 0.681 361.711 0.695 371.81 0.693 C378.67 0.693 385.53 0.708 392.39 0.734 C396.33 0.748 400.27 0.757 404.21 0.748 C407.822 0.739 411.434 0.75 415.047 0.774 C416.948 0.782 418.85 0.771 420.751 0.759 C438.541 0.934 454.693 6.995 467.627 19.438 C477.96 30.931 484.305 44.643 484.341 60.26 C484.344 60.951 484.347 61.643 484.35 62.355 C484.359 64.678 484.361 67 484.362 69.323 C484.367 71.003 484.372 72.682 484.378 74.362 C484.392 78.984 484.399 83.605 484.406 88.226 C484.412 92.188 484.422 96.151 484.432 100.114 C484.466 113.17 484.487 126.227 484.505 139.283 C484.51 142.684 484.515 146.085 484.52 149.486 C484.551 170.612 484.578 191.738 484.595 212.864 C484.599 217.757 484.603 222.651 484.607 227.544 C484.608 228.76 484.609 229.976 484.61 231.229 C484.627 250.918 484.668 270.607 484.719 290.296 C484.771 310.519 484.8 330.742 484.807 350.965 C484.812 362.316 484.826 373.667 484.867 385.018 C484.901 394.687 484.915 404.357 484.902 414.027 C484.896 418.956 484.9 423.886 484.93 428.815 C484.958 433.338 484.957 437.86 484.935 442.383 C484.932 444.009 484.938 445.636 484.957 447.262 C485.143 464.964 479.36 481.87 467.077 495.052 C451.949 509.157 435.307 513.075 415.357 512.923 C413.492 512.928 411.628 512.934 409.763 512.943 C404.678 512.959 399.593 512.945 394.508 512.926 C389.009 512.911 383.51 512.924 378.011 512.934 C367.254 512.948 356.498 512.936 345.742 512.915 C333.208 512.891 320.674 512.892 308.14 512.895 C285.098 512.899 262.057 512.876 239.016 512.841 C218.001 512.809 196.986 512.797 175.971 512.803 C174.621 512.803 173.271 512.804 171.921 512.804 C171.254 512.804 170.586 512.804 169.899 512.804 C166.539 512.805 163.179 512.806 159.819 512.807 C159.156 512.807 158.494 512.808 157.811 512.808 C140.225 512.812 122.64 512.802 105.055 512.787 C103.804 512.786 102.554 512.785 101.265 512.784 C98.754 512.782 96.242 512.78 93.731 512.778 C84.999 512.771 76.267 512.77 67.535 512.772 C56.893 512.773 46.251 512.763 35.608 512.74 C30.181 512.728 24.754 512.721 19.327 512.727 C14.354 512.732 9.382 512.723 4.41 512.703 C2.616 512.699 0.821 512.699 -0.973 512.705 C-20.752 512.763 -37.211 508.62 -51.798 494.302 C-70.164 472.355 -69.543 448.679 -69.437 421.543 C-69.424 416.685 -69.439 411.827 -69.451 406.968 C-69.469 397.475 -69.461 387.982 -69.443 378.489 C-69.429 370.768 -69.425 363.048 -69.428 355.327 C-69.429 354.225 -69.429 353.122 -69.43 351.987 C-69.431 349.747 -69.432 347.507 -69.433 345.267 C-69.442 325.497 -69.425 305.728 -69.395 285.959 C-69.366 266.811 -69.359 247.663 -69.375 228.514 C-69.392 207.622 -69.396 186.729 -69.378 165.836 C-69.376 163.605 -69.374 161.374 -69.373 159.143 C-69.372 158.045 -69.371 156.948 -69.37 155.817 C-69.364 148.112 -69.367 140.407 -69.374 132.703 C-69.382 123.304 -69.375 113.905 -69.35 104.506 C-69.337 99.718 -69.331 94.93 -69.342 90.142 C-69.353 85.747 -69.344 81.352 -69.321 76.957 C-69.316 75.379 -69.317 73.801 -69.326 72.224 C-69.438 51.15 -64.983 31.821 -49.798 16.302 C-34.616 3.295 -19.474 -0.173 0 0 Z M107.327 37.177 C101.508 44.341 99.081 50.953 99.067 60.138 C99.065 60.828 99.063 61.519 99.06 62.23 C99.054 64.555 99.054 66.88 99.054 69.205 C99.051 70.884 99.047 72.563 99.043 74.242 C99.033 78.866 99.03 83.489 99.027 88.113 C99.023 93.096 99.013 98.079 99.005 103.062 C98.985 115.101 98.975 127.139 98.966 139.178 C98.962 144.846 98.956 150.514 98.951 156.182 C98.934 175.022 98.92 193.862 98.912 212.702 C98.91 217.591 98.908 222.481 98.906 227.371 C98.906 228.586 98.906 229.801 98.905 231.053 C98.897 250.743 98.871 270.433 98.839 290.123 C98.806 310.335 98.788 330.547 98.785 350.758 C98.782 362.108 98.774 373.457 98.748 384.807 C98.726 394.472 98.718 404.137 98.728 413.802 C98.733 418.733 98.731 423.664 98.711 428.594 C98.694 433.111 98.695 437.627 98.71 442.144 C98.713 443.776 98.708 445.407 98.696 447.038 C98.609 459.884 100.497 469.085 108.936 479.04 C117.448 487.537 128.396 490.615 140.158 490.703 C140.713 490.7 140.713 490.7 143.523 490.683 C144.728 490.687 145.932 490.692 147.173 490.697 C150.491 490.707 153.809 490.703 157.127 490.694 C160.715 490.687 164.303 490.698 167.892 490.706 C174.912 490.719 181.931 490.716 188.951 490.708 C194.66 490.701 200.368 490.7 206.077 490.703 C206.891 490.704 207.705 490.704 208.543 490.705 C210.197 490.706 211.851 490.707 213.504 490.708 C228.997 490.716 244.489 490.706 259.981 490.69 C273.257 490.677 286.532 490.679 299.808 490.693 C315.244 490.709 330.679 490.715 346.115 490.706 C347.763 490.705 349.411 490.704 351.059 490.703 C351.87 490.703 352.68 490.702 353.516 490.702 C359.212 490.699 364.909 490.704 370.606 490.711 C377.555 490.719 384.505 490.717 391.455 490.701 C394.997 490.693 398.538 490.69 402.08 490.7 C405.929 490.71 409.778 490.698 413.627 490.683 C414.733 490.689 415.839 490.696 416.978 490.703 C429.431 490.61 440.725 487.961 450.202 479.521 C457.946 471.375 461.322 461.566 461.333 450.489 C461.335 449.813 461.337 449.137 461.339 448.441 C461.345 446.172 461.344 443.903 461.342 441.634 C461.345 439.992 461.348 438.351 461.351 436.709 C461.359 432.194 461.361 427.679 461.362 423.165 C461.364 418.297 461.371 413.429 461.378 408.561 C461.391 397.914 461.397 387.267 461.402 376.62 C461.405 369.972 461.409 363.323 461.413 356.674 C461.426 338.264 461.436 319.854 461.439 301.443 C461.439 300.265 461.44 299.087 461.44 297.873 C461.44 296.691 461.44 295.51 461.441 294.293 C461.441 291.9 461.441 289.506 461.442 287.113 C461.442 285.925 461.442 284.738 461.443 283.515 C461.447 264.282 461.464 245.049 461.487 225.817 C461.511 206.068 461.523 186.32 461.525 166.572 C461.526 155.485 461.531 144.398 461.549 133.311 C461.565 123.869 461.57 114.427 461.562 104.984 C461.558 100.169 461.559 95.353 461.573 90.538 C461.585 86.124 461.584 81.71 461.572 77.297 C461.57 75.705 461.573 74.113 461.582 72.522 C461.655 58.256 460.39 46.191 450.42 35.368 C440.198 25.628 428.826 24.151 415.31 24.161 C414.103 24.158 412.897 24.155 411.653 24.152 C408.311 24.145 404.969 24.142 401.627 24.142 C398.02 24.14 394.412 24.132 390.805 24.126 C382.92 24.112 375.036 24.106 367.152 24.102 C362.226 24.099 357.301 24.095 352.376 24.09 C338.733 24.078 325.089 24.068 311.446 24.064 C310.573 24.064 309.701 24.064 308.802 24.064 C308.364 24.063 308.364 24.063 306.151 24.063 C304.378 24.062 302.606 24.062 300.833 24.062 C299.954 24.061 299.075 24.061 298.169 24.061 C283.924 24.057 269.679 24.039 255.434 24.016 C240.8 23.992 226.166 23.98 211.532 23.979 C203.319 23.978 195.106 23.972 186.894 23.954 C179.9 23.939 172.907 23.933 165.913 23.942 C162.348 23.946 158.782 23.945 155.216 23.931 C151.344 23.916 147.473 23.924 143.601 23.934 C142.483 23.926 141.364 23.918 140.212 23.91 C127.573 23.989 116.078 27.679 107.327 37.177 Z " fill="#023477" transform="translate(425.79833984375,387.6982421875)"/>
<path d="M0 0 C1.919 -0 3.837 -0.002 5.756 -0.004 C9.764 -0.006 13.772 0.007 17.781 0.03 C22.904 0.058 28.027 0.055 33.15 0.042 C37.108 0.035 41.065 0.043 45.023 0.056 C46.911 0.06 48.8 0.061 50.688 0.057 C53.332 0.054 55.975 0.07 58.619 0.092 C59.005 0.09 59.005 0.09 60.955 0.078 C69.08 0.189 75.518 2.643 81.371 8.496 C85.801 14.794 86.522 20.06 86.548 27.594 C86.555 28.408 86.561 29.221 86.568 30.06 C86.588 32.749 86.599 35.439 86.609 38.129 C86.613 39.051 86.618 39.972 86.622 40.922 C86.643 45.803 86.657 50.683 86.666 55.564 C86.677 60.588 86.712 65.611 86.751 70.634 C86.778 74.512 86.786 78.39 86.79 82.268 C86.794 84.118 86.806 85.969 86.825 87.819 C87.026 109.212 87.026 109.212 80.709 116.383 C74.441 122.504 66.85 123.947 58.42 123.916 C57.564 123.924 56.707 123.933 55.825 123.942 C53.017 123.965 50.21 123.966 47.402 123.965 C45.438 123.972 43.473 123.98 41.508 123.988 C37.399 124.001 33.291 124.003 29.182 123.997 C23.93 123.991 18.678 124.022 13.426 124.062 C9.372 124.088 5.317 124.091 1.263 124.087 C-0.673 124.089 -2.609 124.099 -4.545 124.116 C-7.257 124.139 -9.966 124.129 -12.678 124.111 C-13.469 124.125 -14.26 124.138 -15.074 124.152 C-22.501 124.04 -27.279 120.846 -32.441 115.684 C-36.779 109.363 -38.078 103.49 -38.017 95.912 C-38.022 95.095 -38.028 94.277 -38.033 93.435 C-38.046 90.757 -38.038 88.08 -38.027 85.402 C-38.029 83.527 -38.032 81.652 -38.036 79.777 C-38.04 75.857 -38.034 71.936 -38.02 68.016 C-38.003 63.006 -38.013 57.997 -38.031 52.987 C-38.042 49.117 -38.038 45.248 -38.03 41.379 C-38.028 39.532 -38.031 37.686 -38.038 35.839 C-38.045 33.252 -38.034 30.667 -38.017 28.08 C-38.023 27.327 -38.029 26.573 -38.035 25.797 C-37.947 18.318 -35.769 11.595 -30.451 6.158 C-22.03 -1.524 -10.628 -0.07 0 0 Z " fill="#045EE0" transform="translate(600.62890625,615.50390625)"/>
<path d="M0 0 C1.914 -0.005 3.827 -0.012 5.741 -0.019 C9.741 -0.029 13.741 -0.025 17.741 -0.01 C22.847 0.007 27.951 -0.016 33.056 -0.051 C37.005 -0.074 40.954 -0.072 44.903 -0.064 C46.785 -0.063 48.666 -0.07 50.547 -0.085 C71.229 -0.222 71.229 -0.222 79.357 7.351 C84.927 13.161 85.741 19.42 85.748 27.167 C85.756 28.01 85.764 28.853 85.773 29.722 C85.797 32.498 85.806 35.274 85.812 38.051 C85.821 39.991 85.831 41.932 85.84 43.872 C85.856 47.937 85.864 52.002 85.867 56.067 C85.872 61.257 85.91 66.445 85.956 71.635 C85.986 75.643 85.993 79.651 85.994 83.659 C85.998 85.571 86.01 87.483 86.031 89.395 C86.232 109.312 86.232 109.312 80.441 116.566 C77.381 119.492 74.834 121.566 70.441 121.566 C70.441 122.226 70.441 122.886 70.441 123.566 C58.862 123.659 47.283 123.73 35.704 123.774 C30.327 123.794 24.95 123.823 19.573 123.868 C14.379 123.912 9.185 123.936 3.992 123.946 C2.015 123.953 0.038 123.968 -1.939 123.989 C-4.718 124.019 -7.496 124.022 -10.275 124.021 C-11.084 124.035 -11.894 124.049 -12.727 124.064 C-19.917 124.013 -25.752 121.812 -31.371 117.316 C-36.279 111.147 -38.16 105.727 -38.044 97.891 C-38.048 97.064 -38.052 96.236 -38.056 95.384 C-38.063 92.674 -38.042 89.964 -38.02 87.254 C-38.017 85.356 -38.016 83.459 -38.017 81.561 C-38.014 77.594 -37.997 73.627 -37.97 69.659 C-37.936 64.589 -37.929 59.519 -37.93 54.448 C-37.93 50.532 -37.919 46.617 -37.904 42.702 C-37.898 40.833 -37.894 38.964 -37.892 37.095 C-37.888 34.477 -37.87 31.86 -37.849 29.242 C-37.85 28.479 -37.851 27.717 -37.852 26.931 C-37.773 20.248 -37.104 13.502 -32.496 8.316 C-31.969 7.692 -31.442 7.069 -30.898 6.426 C-21.617 -0.949 -11.285 -0.038 0 0 Z " fill="#A6D5FC" transform="translate(762.55859375,615.43359375)"/>
<path d="M0 0 C0.428 -0.003 0.428 -0.003 2.595 -0.02 C5.403 -0.039 8.21 -0.043 11.018 -0.045 C12.982 -0.052 14.947 -0.059 16.912 -0.066 C21.021 -0.078 25.129 -0.081 29.238 -0.08 C34.49 -0.08 39.742 -0.107 44.994 -0.142 C49.048 -0.164 53.103 -0.168 57.157 -0.167 C59.093 -0.169 61.029 -0.178 62.965 -0.194 C65.676 -0.213 68.386 -0.207 71.098 -0.195 C71.889 -0.207 72.679 -0.218 73.494 -0.229 C80.167 -0.155 85.473 1.821 90.326 6.474 C90.6 6.846 90.6 6.846 91.986 8.728 C92.552 9.469 93.118 10.21 93.701 10.974 C96.513 15.807 96.202 21.082 96.21 26.534 C96.212 26.942 96.212 26.942 96.225 29.009 C96.24 31.703 96.246 34.397 96.252 37.091 C96.258 38.971 96.263 40.85 96.269 42.73 C96.28 46.668 96.286 50.606 96.289 54.544 C96.295 59.578 96.319 64.611 96.347 69.645 C96.366 73.527 96.371 77.409 96.372 81.291 C96.375 83.146 96.383 85.001 96.397 86.856 C96.414 89.457 96.412 92.058 96.405 94.659 C96.414 95.417 96.424 96.175 96.433 96.956 C96.384 103.352 94.765 108.453 91.424 113.978 C85.316 119.925 79.012 122.04 70.633 121.953 C70.186 121.959 70.186 121.959 67.924 121.985 C64.996 122.012 62.07 122.002 59.143 121.99 C57.092 121.996 55.041 122.003 52.991 122.011 C48.704 122.023 44.417 122.017 40.13 121.997 C34.653 121.974 29.176 122.001 23.699 122.042 C19.467 122.068 15.237 122.065 11.005 122.054 C8.986 122.053 6.967 122.061 4.949 122.078 C-14.066 122.213 -14.066 122.213 -20.479 116.869 C-26.615 110.288 -28.252 103.776 -28.242 94.965 C-28.248 94.151 -28.255 93.338 -28.262 92.499 C-28.281 89.82 -28.285 87.141 -28.287 84.462 C-28.294 82.589 -28.3 80.716 -28.307 78.843 C-28.319 74.919 -28.323 70.995 -28.322 67.071 C-28.322 62.064 -28.349 57.056 -28.383 52.049 C-28.406 48.18 -28.41 44.31 -28.409 40.441 C-28.411 38.596 -28.42 36.751 -28.435 34.906 C-28.598 13.648 -28.598 13.648 -22.289 6.374 C-16.212 0.313 -8.147 -0.009 0 0 Z " fill="#06B1FB" transform="translate(590.951171875,462.70947265625)"/>
<path d="M0 0 C0.896 -0.007 1.793 -0.013 2.716 -0.02 C5.685 -0.04 8.655 -0.051 11.624 -0.061 C12.639 -0.065 13.653 -0.069 14.698 -0.074 C20.069 -0.094 25.439 -0.109 30.809 -0.118 C36.352 -0.129 41.894 -0.164 47.437 -0.203 C51.702 -0.229 55.968 -0.238 60.233 -0.241 C62.276 -0.246 64.319 -0.258 66.362 -0.276 C69.225 -0.301 72.086 -0.3 74.949 -0.293 C75.369 -0.299 75.369 -0.299 77.494 -0.332 C84.042 -0.274 88.188 1.471 93.159 5.888 C93.617 6.437 94.074 6.986 94.546 7.552 C95.016 8.096 95.487 8.64 95.972 9.2 C99.34 14.477 99.531 19.765 99.524 25.809 C99.531 26.656 99.537 27.502 99.544 28.374 C99.563 31.16 99.567 33.946 99.569 36.732 C99.576 38.677 99.582 40.622 99.59 42.567 C99.601 46.641 99.605 50.714 99.604 54.788 C99.604 59.995 99.631 65.202 99.666 70.409 C99.688 74.426 99.692 78.443 99.691 82.46 C99.693 84.379 99.702 86.298 99.717 88.217 C99.737 90.907 99.731 93.596 99.719 96.286 C99.73 97.071 99.742 97.855 99.753 98.664 C99.678 105.299 97.636 110.489 93.198 115.454 C92.864 115.728 92.864 115.728 91.171 117.115 C90.499 117.68 89.828 118.246 89.136 118.829 C84.925 121.812 80.405 121.338 75.467 121.354 C74.571 121.361 73.674 121.367 72.751 121.374 C69.781 121.394 66.812 121.405 63.843 121.415 C63.336 121.417 63.336 121.417 60.768 121.428 C55.398 121.448 50.028 121.463 44.658 121.472 C39.115 121.483 33.573 121.518 28.03 121.557 C23.765 121.584 19.499 121.592 15.234 121.595 C13.191 121.6 11.148 121.612 9.105 121.63 C6.242 121.655 3.38 121.654 0.518 121.647 C-0.322 121.66 -1.162 121.673 -2.027 121.686 C-8.566 121.628 -12.802 119.919 -17.692 115.396 C-17.921 115.112 -17.921 115.112 -19.079 113.677 C-19.314 113.393 -19.314 113.393 -20.505 111.958 C-23.854 107.23 -24.068 103.214 -24.073 97.496 C-24.081 96.621 -24.09 95.746 -24.098 94.844 C-24.122 91.95 -24.131 89.056 -24.138 86.161 C-24.147 84.146 -24.156 82.131 -24.165 80.115 C-24.182 75.889 -24.189 71.662 -24.192 67.435 C-24.198 62.03 -24.235 56.626 -24.281 51.222 C-24.311 47.057 -24.318 42.893 -24.319 38.729 C-24.323 36.737 -24.335 34.745 -24.356 32.753 C-24.383 29.96 -24.378 27.169 -24.366 24.375 C-24.381 23.559 -24.396 22.744 -24.411 21.903 C-24.322 14.884 -21.577 10.199 -16.853 5.118 C-16.288 4.663 -15.723 4.208 -15.142 3.74 C-14.857 3.503 -14.857 3.503 -13.415 2.306 C-9.316 -0.501 -4.753 0.015 0 0 Z " fill="#7BC2FC" transform="translate(748.7666015625,462.822998046875)"/>
<path d="M0 0 C2.75 2.438 2.75 2.438 5 5 C5.257 5.267 5.257 5.267 6.559 6.621 C7.096 7.2 7.634 7.779 8.188 8.375 C8.676 8.898 9.165 9.422 9.668 9.961 C11.517 12.792 12.18 15.743 13 19 C14.085 18.965 15.171 18.93 16.289 18.895 C17.734 18.866 19.18 18.839 20.625 18.812 C21.338 18.787 22.051 18.762 22.785 18.736 C29.096 18.649 33.068 20.24 37.812 24.562 C40.905 28.576 41.266 33.055 41 38 C38.948 44.398 34.427 47.382 29 51 C26.999 51.051 24.997 51.095 22.996 51.073 C13.18 51.029 13.18 51.029 9.793 53.816 C8.359 56.152 7.19 58.533 6 61 C-0.278 69.063 -9.084 73.155 -19 75 C-30.997 76.289 -41.687 75.057 -51.688 67.875 C-56.459 63.896 -60.642 59.233 -64 54 C-64 53.01 -64 52.02 -64 51 C-64.85 51.004 -65.7 51.007 -66.576 51.011 C-87.257 51.1 -107.939 51.166 -128.62 51.207 C-138.622 51.228 -148.623 51.256 -158.625 51.302 C-167.342 51.342 -176.059 51.367 -184.776 51.376 C-189.392 51.382 -194.007 51.394 -198.623 51.423 C-202.968 51.45 -207.313 51.458 -211.659 51.452 C-213.253 51.454 -214.847 51.461 -216.44 51.477 C-218.62 51.497 -220.797 51.492 -222.976 51.481 C-223.586 51.483 -223.586 51.483 -226.669 51.492 C-233.352 50.505 -237.167 46.148 -241 41 C-242.554 36.337 -242.544 32.512 -240.875 27.875 C-238.307 23.937 -235.258 21.129 -231 19 C-228.834 18.894 -226.664 18.853 -224.495 18.842 C-224.158 18.839 -224.158 18.839 -222.448 18.827 C-220.174 18.811 -217.901 18.803 -215.626 18.795 C-214.001 18.785 -212.375 18.775 -210.749 18.765 C-206.326 18.738 -201.902 18.717 -197.479 18.697 C-192.86 18.675 -188.241 18.647 -183.621 18.621 C-174.87 18.571 -166.119 18.526 -157.368 18.483 C-147.407 18.433 -137.445 18.378 -127.484 18.323 C-106.99 18.209 -86.495 18.102 -66 18 C-65.537 16.89 -65.074 15.78 -64.596 14.637 C-62.491 9.841 -59.632 6.705 -56 3 C-55.379 2.366 -54.757 1.732 -54.117 1.078 C-38.754 -13.476 -16.38 -11.516 0 0 Z " fill="#033577" transform="translate(806,774)"/>
<path d="M0 0 C0.336 -0 0.336 -0 2.035 -0.003 C4.295 -0.004 6.555 0.001 8.815 0.007 C10.431 0.007 12.047 0.007 13.663 0.006 C18.06 0.006 22.456 0.012 26.853 0.019 C31.444 0.025 36.035 0.026 40.626 0.027 C49.324 0.03 58.022 0.038 66.72 0.048 C76.621 0.059 86.522 0.065 96.422 0.07 C116.793 0.08 137.163 0.098 157.533 0.12 C157.528 0.488 157.528 0.488 157.502 2.352 C157.46 5.691 157.434 9.031 157.408 12.37 C157.4 12.95 157.4 12.95 157.358 15.882 C157.354 16.439 157.354 16.439 157.338 19.261 C157.333 19.774 157.333 19.774 157.306 22.371 C157.538 25.178 158.212 26.684 159.533 29.12 C159.533 30.11 159.533 31.1 159.533 32.12 C138.124 32.214 116.714 32.284 95.304 32.328 C85.363 32.348 75.423 32.376 65.482 32.422 C56.817 32.462 48.153 32.488 39.488 32.497 C34.901 32.502 30.313 32.514 25.725 32.543 C21.406 32.57 17.087 32.579 12.768 32.573 C11.184 32.574 9.6 32.582 8.016 32.597 C5.85 32.617 3.685 32.612 1.519 32.601 C0.913 32.603 0.913 32.603 -2.151 32.612 C-8.823 31.622 -12.639 27.26 -16.467 22.12 C-18.021 17.458 -18.011 13.633 -16.342 8.995 C-12.121 2.523 -7.65 -0.006 0 0 Z " fill="#055FE0" transform="translate(581.4665832519531,792.8797454833984)"/>
<path d="M0 0 C0.644 -0.007 1.289 -0.013 1.952 -0.02 C4.082 -0.04 6.212 -0.051 8.343 -0.061 C8.707 -0.063 8.707 -0.063 10.551 -0.074 C14.41 -0.094 18.268 -0.109 22.126 -0.118 C26.104 -0.129 30.082 -0.164 34.06 -0.203 C37.125 -0.23 40.19 -0.238 43.256 -0.241 C44.722 -0.246 46.188 -0.258 47.653 -0.276 C49.71 -0.301 51.764 -0.3 53.82 -0.293 C54.988 -0.299 56.156 -0.305 57.359 -0.311 C62.477 0.459 65.555 2.986 68.917 6.802 C71.794 10.851 72.369 14.274 71.604 19.177 C69.364 24.409 66.727 27.61 61.604 30.177 C58.399 30.585 58.399 30.585 54.738 30.629 C54.067 30.64 53.397 30.652 52.706 30.664 C50.498 30.698 48.292 30.708 46.085 30.716 C44.542 30.728 42.999 30.741 41.455 30.754 C38.223 30.776 34.991 30.786 31.759 30.788 C27.633 30.793 23.509 30.844 19.383 30.907 C16.196 30.948 13.009 30.957 9.821 30.958 C8.301 30.963 6.781 30.98 5.261 31.009 C-8.075 31.24 -8.075 31.24 -13.297 26.784 C-16.947 22.932 -18.195 20.017 -18.771 14.74 C-18.2 9.314 -15.81 6.453 -11.833 2.865 C-7.851 0.107 -4.734 0.04 0 0 Z " fill="#03AFF9" transform="translate(416.395751953125,546.822998046875)"/>
<path d="M0 0 C1.282 -0.01 2.563 -0.019 3.884 -0.029 C5.28 -0.034 6.676 -0.038 8.073 -0.042 C9.51 -0.048 10.947 -0.054 12.384 -0.059 C15.395 -0.07 18.406 -0.076 21.417 -0.079 C25.266 -0.085 29.115 -0.109 32.964 -0.137 C35.932 -0.156 38.901 -0.161 41.869 -0.162 C43.287 -0.165 44.706 -0.173 46.124 -0.187 C48.113 -0.204 50.101 -0.2 52.09 -0.195 C53.219 -0.199 54.349 -0.203 55.512 -0.206 C59.783 0.29 63.162 1.749 66.319 4.696 C70.113 9.658 71.472 12.859 70.674 19.161 C69.074 23.954 66.586 26.812 62.113 29.297 C56.549 31.268 50.351 30.684 44.51 30.622 C43.03 30.62 41.55 30.619 40.07 30.619 C36.978 30.616 33.887 30.6 30.795 30.573 C26.84 30.539 22.885 30.531 18.929 30.533 C15.877 30.532 12.825 30.521 9.772 30.507 C8.314 30.5 6.856 30.496 5.397 30.495 C3.358 30.491 1.32 30.471 -0.719 30.452 C-1.877 30.444 -3.035 30.436 -4.228 30.429 C-8.205 30.085 -11.13 29.259 -14.091 26.54 C-14.581 25.941 -15.071 25.341 -15.576 24.724 C-15.826 24.425 -15.826 24.425 -17.091 22.915 C-19.728 19.169 -19.702 15.598 -19.326 11.161 C-16.89 6.559 -13.678 2.295 -8.565 0.566 C-5.684 0.045 -2.929 0.018 0 0 Z " fill="#04B1F9" transform="translate(417.32568359375,616.8388671875)"/>
<path d="M0 0 C0.661 -0.008 1.322 -0.017 2.003 -0.026 C4.177 -0.049 6.351 -0.05 8.526 -0.049 C10.047 -0.056 11.567 -0.064 13.088 -0.072 C16.273 -0.085 19.458 -0.087 22.643 -0.081 C26.708 -0.075 30.773 -0.106 34.838 -0.146 C37.979 -0.172 41.119 -0.175 44.26 -0.171 C45.758 -0.173 47.256 -0.183 48.754 -0.2 C62.831 -0.35 62.831 -0.35 68.832 4.054 C72.301 7.455 72.571 10.059 72.663 14.732 C72.534 21.964 72.534 21.964 70.163 25.045 C62.463 31.27 55.098 30.866 45.534 30.818 C44.101 30.82 42.668 30.823 41.235 30.827 C38.242 30.831 35.249 30.825 32.256 30.811 C28.43 30.794 24.606 30.804 20.78 30.822 C17.825 30.833 14.869 30.829 11.914 30.821 C10.504 30.819 9.094 30.822 7.684 30.829 C5.71 30.836 3.736 30.823 1.762 30.808 C1.202 30.807 1.202 30.807 -1.633 30.801 C-6.436 30.219 -9.71 28.544 -13.025 25.045 C-16.027 20.542 -17.524 16.879 -16.775 11.42 C-13.15 3.542 -8.886 0.063 0 0 Z " fill="#03AFF8" transform="translate(414.774658203125,477.580078125)"/>
<path d="M0 0 C2.376 -0.082 4.749 -0.141 7.125 -0.188 C7.79 -0.213 8.455 -0.238 9.141 -0.264 C15.428 -0.356 19.219 1.378 23.812 5.562 C26.905 9.576 27.266 14.055 27 19 C24.948 25.398 20.427 28.382 15 32 C13.099 32.227 13.099 32.227 10.988 32.195 C10.231 32.189 9.474 32.182 8.693 32.176 C7.908 32.159 7.122 32.142 6.312 32.125 C5.515 32.116 4.718 32.107 3.896 32.098 C1.931 32.074 -0.035 32.038 -2 32 C-1.783 31.285 -1.567 30.569 -1.344 29.832 C1.501 19.652 1.62 10.412 0 0 Z " fill="#0661E1" transform="translate(820,793)"/>
<path d="M0 0 C0.661 0.002 1.322 0.003 2.003 0.005 C4.215 0.013 6.428 0.044 8.64 0.074 C10.227 0.085 11.814 0.094 13.401 0.102 C17.708 0.128 22.015 0.173 26.323 0.221 C30.825 0.267 35.326 0.297 39.828 0.329 C48.353 0.391 56.877 0.469 65.401 0.552 C75.106 0.646 84.811 0.723 94.516 0.799 C114.48 0.954 134.443 1.131 154.407 1.323 C154.407 1.653 154.407 1.983 154.407 2.323 C99.957 2.653 45.507 2.983 -10.593 3.323 C-6.182 0.015 -5.259 -0.045 0 0 Z " fill="#0F69E6" transform="translate(581.5932006835938,792.6772003173828)"/>
</svg>
