<?xml version="1.0" encoding="UTF-8"?>
<!-- Generator: visioncortex VTracer 0.6.12 -->
<svg version="1.1" xmlns="http://www.w3.org/2000/svg" width="1254" height="1254">
<path d="M0 0 C1.347 0.397 2.694 0.793 4.04 1.189 C17.866 5.266 31.64 9.513 45.408 13.779 C51.058 15.528 56.711 17.27 62.363 19.013 C63.802 19.457 65.241 19.901 66.68 20.345 C81.606 24.949 96.548 29.5 111.496 34.031 C112.661 34.384 113.826 34.738 115.026 35.102 C125.019 38.131 135.013 41.156 145.009 44.178 C147.92 45.058 150.832 45.939 153.743 46.82 C155.518 47.356 157.293 47.891 159.068 48.426 C170.528 51.89 181.956 55.457 193.389 59.009 C201.052 61.39 208.717 63.766 216.383 66.141 C217.836 66.591 219.29 67.041 220.743 67.492 C223.705 68.41 226.667 69.327 229.63 70.245 C232.715 71.201 235.8 72.157 238.885 73.113 C271.413 83.193 271.413 83.193 286.132 87.743 C290.372 89.054 294.612 90.366 298.851 91.683 C300.42 92.17 301.989 92.657 303.559 93.145 C304.305 93.376 305.052 93.608 305.821 93.847 C310.359 95.253 314.904 96.638 319.453 98.008 C322.422 98.903 325.388 99.807 328.355 100.713 C329.703 101.122 331.053 101.527 332.405 101.927 C345.636 105.844 355.695 111.155 365.496 120.906 C366.208 121.583 366.919 122.26 367.652 122.957 C376.862 132.362 380.491 144.177 383.746 156.598 C384.045 157.723 384.344 158.849 384.652 160.009 C387.873 172.208 390.956 184.441 394.006 196.684 C394.954 200.488 395.907 204.291 396.861 208.094 C397.468 210.521 398.074 212.948 398.68 215.375 C398.822 215.942 398.822 215.942 399.541 218.808 C399.799 219.846 400.057 220.883 400.322 221.951 C400.436 222.407 400.436 222.407 401.012 224.715 C401.496 226.906 401.496 226.906 401.496 228.906 C402.079 229.01 402.663 229.114 403.264 229.221 C410.141 230.512 416.748 232.355 423.434 234.406 C425.341 234.989 427.249 235.572 429.157 236.154 C430.623 236.602 432.088 237.05 433.554 237.498 C439.768 239.396 445.998 241.239 452.231 243.073 C456.842 244.431 461.449 245.804 466.055 247.181 C469.37 248.171 472.687 249.154 476.008 250.122 C500.339 257.221 519.866 265.385 532.973 288.512 C538.19 299.078 540.581 310.239 543.246 321.656 C543.771 323.859 544.297 326.061 544.825 328.262 C545.89 332.715 546.949 337.169 548.003 341.624 C549.311 347.144 550.647 352.656 552.004 358.164 C552.2 358.961 552.396 359.758 552.598 360.579 C552.992 362.175 553.385 363.772 553.778 365.368 C561.567 397.06 568.998 428.84 576.492 460.602 C587.035 505.286 597.637 549.955 608.371 594.594 C608.635 595.694 608.9 596.793 609.172 597.926 C614.38 619.588 619.593 641.247 624.877 662.89 C625.449 665.231 626.02 667.573 626.591 669.915 C626.955 671.41 627.32 672.905 627.684 674.4 C627.772 674.759 627.772 674.759 628.215 676.578 C629.044 679.976 629.876 683.374 630.713 686.771 C633.813 699.357 636.807 711.948 639.387 724.652 C639.595 725.669 639.804 726.686 640.019 727.734 C643.463 745.173 641.366 761.87 633.496 777.906 C633.124 778.699 632.751 779.492 632.367 780.309 C627.91 788.706 620.878 795.222 614.331 801.995 C611.819 804.612 609.375 807.285 606.934 809.969 C602.228 815.122 597.472 820.227 592.703 825.323 C588.96 829.325 585.249 833.355 581.559 837.406 C578.158 841.131 574.693 844.746 571.094 848.277 C569.375 850.03 567.78 851.855 566.184 853.719 C563.42 856.93 560.51 859.929 557.496 862.906 C554.544 865.823 551.692 868.752 548.996 871.906 C545.513 875.981 541.718 879.699 537.906 883.465 C535.228 886.178 532.75 889.014 530.273 891.91 C527.545 894.974 524.599 897.811 521.68 900.691 C519.716 902.683 517.875 904.719 516.059 906.844 C512.554 910.934 508.744 914.673 504.914 918.457 C502.19 921.217 499.661 924.098 497.141 927.043 C494.952 929.523 492.601 931.812 490.242 934.129 C488.431 935.972 486.743 937.884 485.059 939.844 C482.64 942.652 480.137 945.306 477.496 947.906 C474.329 951.031 471.38 954.269 468.477 957.637 C462.58 964.393 456.503 970.989 450.102 977.27 C448.34 979.066 446.7 980.937 445.059 982.844 C442.64 985.652 440.137 988.306 437.496 990.906 C434.896 993.466 432.433 996.074 430.059 998.844 C427.489 1001.834 424.803 1004.637 421.996 1007.406 C419.23 1010.135 416.583 1012.891 414.059 1015.844 C410.551 1019.937 406.739 1023.678 402.906 1027.465 C400.228 1030.178 397.75 1033.014 395.273 1035.91 C392.619 1038.891 389.766 1041.659 386.902 1044.438 C384.276 1047.132 381.826 1049.943 379.361 1052.783 C376.335 1056.228 373.2 1059.567 370.059 1062.906 C369.401 1063.607 368.744 1064.307 368.066 1065.029 C364.175 1069.164 360.222 1073.219 356.172 1077.199 C354.426 1078.978 352.804 1080.825 351.184 1082.719 C348.274 1086.108 345.175 1089.271 341.996 1092.406 C338.234 1096.118 334.668 1099.925 331.238 1103.945 C328.527 1106.997 325.593 1109.818 322.688 1112.684 C320.075 1115.333 317.663 1118.118 315.242 1120.941 C313.4 1123.014 311.472 1124.961 309.496 1126.906 C306.917 1129.446 304.474 1132.031 302.121 1134.781 C290.128 1148.527 276.947 1158.899 258.309 1161.656 C257.68 1161.697 257.68 1161.697 254.496 1161.906 C253.861 1161.958 253.225 1162.009 252.57 1162.062 C235.534 1162.832 218.401 1155.706 202.444 1150.627 C199.627 1149.732 196.807 1148.844 193.988 1147.956 C165.767 1139.063 137.609 1129.968 109.463 1120.84 C97.722 1117.034 85.978 1113.239 74.234 1109.443 C71.45 1108.544 68.667 1107.644 65.884 1106.744 C52.772 1102.503 39.659 1098.264 26.523 1094.094 C25.6 1093.801 24.676 1093.507 23.725 1093.205 C21.891 1092.623 20.056 1092.041 18.222 1091.459 C-3.638 1084.521 -25.422 1077.362 -47.203 1070.182 C-73.61 1061.477 -100.054 1052.903 -126.552 1044.481 C-136.537 1041.307 -146.515 1038.111 -156.482 1034.88 C-159.669 1033.853 -162.862 1032.845 -166.055 1031.836 C-185.378 1025.669 -203.524 1018.065 -214.504 999.906 C-215.138 998.883 -215.772 997.859 -216.426 996.805 C-223.171 985.147 -225.475 972.518 -228.009 959.44 C-228.796 955.41 -229.603 951.385 -230.406 947.358 C-232.469 937.013 -234.513 926.664 -236.527 916.309 C-236.727 915.289 -236.927 914.269 -237.132 913.219 C-237.314 912.284 -237.495 911.349 -237.681 910.386 C-237.841 909.566 -238 908.746 -238.165 907.901 C-238.504 905.906 -238.504 905.906 -238.504 903.906 C-239.14 903.739 -239.777 903.571 -240.432 903.399 C-248.056 901.361 -255.578 899.059 -263.098 896.668 C-263.725 896.469 -264.352 896.269 -264.998 896.064 C-268.312 895.009 -271.625 893.952 -274.937 892.892 C-277.646 892.025 -280.358 891.166 -283.071 890.312 C-286.387 889.268 -289.7 888.213 -293.01 887.15 C-294.852 886.561 -296.698 885.984 -298.544 885.406 C-317.445 879.294 -331.778 868.995 -341.316 851.281 C-349.125 834.295 -350.914 814.498 -354.248 796.208 C-354.699 793.738 -355.152 791.269 -355.605 788.799 C-361.011 759.328 -366.294 729.835 -371.553 700.338 C-377.364 667.744 -383.265 635.168 -389.204 602.598 C-398.354 552.411 -407.374 502.204 -416.147 451.95 C-416.494 449.964 -416.841 447.979 -417.188 445.993 C-421.652 420.437 -421.652 420.437 -423.278 410.971 C-424.023 406.642 -424.79 402.319 -425.576 397.998 C-425.759 396.982 -425.942 395.966 -426.13 394.919 C-426.481 392.963 -426.838 391.008 -427.201 389.055 C-429.551 375.898 -429.723 362.985 -426.504 349.969 C-426.333 349.261 -426.162 348.553 -425.987 347.823 C-421.99 333.802 -413.255 323.786 -403.004 313.969 C-401.902 312.889 -400.802 311.807 -399.703 310.725 C-394.657 305.776 -389.522 300.959 -384.158 296.353 C-381.826 294.313 -379.665 292.126 -377.504 289.906 C-373.94 286.299 -370.285 282.911 -366.434 279.617 C-364.371 277.788 -362.438 275.87 -360.504 273.906 C-358.025 271.389 -355.51 269.005 -352.816 266.719 C-349.021 263.462 -345.518 259.96 -342.004 256.406 C-337.973 252.33 -333.902 248.421 -329.527 244.711 C-326.408 241.928 -323.507 238.929 -320.572 235.955 C-317.35 232.706 -314.01 229.682 -310.531 226.715 C-307.188 223.732 -304.093 220.503 -300.945 217.316 C-298.24 214.646 -295.416 212.174 -292.523 209.711 C-289.316 206.845 -286.362 203.733 -283.387 200.629 C-281.504 198.906 -281.504 198.906 -279.504 198.906 C-279.504 198.246 -279.504 197.586 -279.504 196.906 C-278.176 195.602 -278.176 195.602 -276.254 194.031 C-272.474 190.827 -268.977 187.433 -265.504 183.906 C-261.675 180.028 -257.783 176.344 -253.629 172.812 C-250.257 169.788 -247.115 166.537 -243.932 163.315 C-240.558 159.915 -237.079 156.719 -233.43 153.613 C-230.383 150.913 -227.573 147.983 -224.715 145.086 C-222.745 143.144 -220.732 141.326 -218.629 139.531 C-215.258 136.644 -212.119 133.564 -209.004 130.406 C-205.971 127.332 -202.925 124.326 -199.629 121.531 C-195.272 117.819 -191.309 113.738 -187.288 109.671 C-183.804 106.162 -180.233 102.845 -176.461 99.645 C-173.139 96.694 -170.075 93.484 -166.953 90.324 C-164.193 87.6 -161.312 85.071 -158.367 82.551 C-156.499 80.902 -154.749 79.183 -153.004 77.406 C-150.694 75.055 -148.326 72.856 -145.816 70.719 C-142.203 67.61 -138.851 64.295 -135.504 60.906 C-131.653 57.007 -127.74 53.298 -123.562 49.746 C-120.434 46.95 -117.52 43.943 -114.574 40.957 C-111.33 37.686 -107.968 34.637 -104.465 31.648 C-102.218 29.652 -100.115 27.546 -98.004 25.406 C-94.628 21.99 -91.169 18.76 -87.512 15.648 C-86.142 14.46 -84.804 13.233 -83.496 11.977 C-59.284 -10.985 -29.898 -8.908 0 0 Z " fill="#02B1FC" transform="translate(544.50390625,68.09375)"/>
<path d="M0 0 C0.719 -0.001 1.438 -0.002 2.179 -0.003 C4.651 -0.004 7.122 0.003 9.594 0.011 C10.044 0.012 10.044 0.012 12.318 0.016 C44.288 0.07 76.257 0.524 108.224 0.902 C114.946 0.982 121.667 1.06 128.389 1.138 C181.948 1.759 235.507 2.408 289.066 3.097 C293.92 3.159 298.774 3.221 303.628 3.282 C307.526 3.331 311.424 3.381 315.321 3.431 C316.076 3.44 316.83 3.45 317.607 3.46 C325.573 3.561 333.539 3.668 341.505 3.792 C342.183 3.803 342.86 3.813 343.558 3.824 C346.872 3.876 350.186 3.927 353.499 3.98 C360.631 4.087 367.76 4.149 374.892 4.157 C378.976 4.165 383.059 4.197 387.142 4.234 C388.951 4.244 390.76 4.242 392.569 4.227 C408.483 4.092 421.688 8.1 433.665 19.128 C434.263 19.636 434.861 20.144 435.477 20.667 C447.889 31.916 452.297 47.921 456.29 63.566 C456.439 64.135 456.439 64.135 457.196 67.013 C458.83 73.35 460.172 79.615 461.053 86.101 C461.558 88.6 462.193 90.796 463.02 93.194 C465.007 98.974 466.464 104.868 467.95 110.792 C468.251 111.984 468.553 113.175 468.864 114.403 C469.822 118.186 470.775 121.969 471.727 125.753 C472.684 129.544 473.642 133.335 474.601 137.125 C475.195 139.477 475.789 141.828 476.38 144.181 C478.616 153.037 478.616 153.037 479.836 157.197 C480.729 160.356 481.069 163.294 481.29 166.566 C481.364 167.617 481.439 168.667 481.516 169.75 C481.565 170.535 481.614 171.32 481.665 172.128 C482.325 172.128 482.985 172.128 483.665 172.128 C485.229 178.357 486.791 184.586 488.352 190.816 C488.582 191.735 488.813 192.654 489.05 193.601 C494.673 216.051 494.673 216.051 496.954 226.108 C497.933 230.34 499.047 234.521 500.23 238.701 C503.716 251.04 506.833 263.47 509.954 275.906 C510.544 278.253 511.135 280.6 511.727 282.946 C513.269 289.072 514.81 295.198 516.349 301.324 C518.819 311.151 521.292 320.977 523.766 330.802 C524.624 334.211 525.48 337.621 526.336 341.03 C526.866 343.134 527.395 345.239 527.925 347.343 C528.159 348.276 528.392 349.208 528.633 350.169 C530.031 355.718 531.503 361.241 533.04 366.753 C537.149 382.377 535.592 399.266 529.665 414.128 C529.418 414.753 529.172 415.378 528.918 416.022 C524.881 425.877 518.994 432.69 511.665 440.128 C510.485 441.45 509.317 442.782 508.165 444.128 C505.226 447.519 502.203 450.828 499.165 454.128 C495.518 458.09 491.921 462.086 488.391 466.152 C483.041 472.276 477.543 478.268 472.04 484.253 C468.461 488.145 464.936 492.075 461.473 496.07 C458.387 499.583 455.218 503.021 452.067 506.476 C450.095 508.653 448.151 510.847 446.227 513.066 C443.266 516.475 440.223 519.806 437.165 523.128 C433.52 527.087 429.925 531.08 426.399 535.144 C422.87 539.182 419.258 543.147 415.665 547.128 C414.943 547.933 414.221 548.737 413.477 549.566 C409.359 554.155 405.213 558.716 401.04 563.253 C397.441 567.168 393.891 571.119 390.407 575.136 C388.35 577.489 386.259 579.809 384.165 582.128 C381.475 585.109 378.801 588.101 376.165 591.128 C372.77 595.026 369.308 598.862 365.844 602.699 C363.973 604.784 362.125 606.887 360.29 609.003 C356.837 612.97 353.284 616.844 349.708 620.699 C347.123 623.495 344.671 626.348 342.29 629.316 C333.461 639.406 319.943 646.594 306.665 648.128 C299.774 648.483 293.365 647.759 286.602 646.503 C275.275 644.514 263.919 642.786 252.54 641.128 C251.656 640.999 250.773 640.87 249.863 640.738 C237.125 638.881 224.377 637.127 211.613 635.461 C203.523 634.399 195.471 633.2 187.426 631.839 C183.317 631.185 179.189 630.721 175.055 630.253 C164.24 629.019 153.489 627.377 142.727 625.753 C140.624 625.438 138.521 625.124 136.418 624.809 C126.73 623.358 117.046 621.884 107.369 620.363 C97.462 618.805 87.557 617.483 77.594 616.338 C68.801 615.308 60.046 614.058 51.29 612.753 C50.574 612.647 49.858 612.54 49.12 612.43 C46.186 611.993 43.251 611.556 40.316 611.117 C32.332 609.926 24.343 608.771 16.352 607.628 C15.637 607.526 14.922 607.424 14.186 607.318 C2.561 605.658 -9.073 604.068 -20.71 602.503 C-42.12 599.624 -42.12 599.624 -50.523 598.441 C-51.299 598.334 -52.075 598.227 -52.874 598.116 C-68.575 595.881 -79.937 591.666 -91.335 580.128 C-91.654 579.821 -91.654 579.821 -93.265 578.265 C-103.952 567.175 -106.902 553.172 -109.829 538.59 C-110.457 535.539 -111.204 532.524 -111.96 529.503 C-113.453 523.128 -114.365 516.676 -115.246 510.192 C-115.922 505.341 -116.982 500.845 -118.335 496.128 C-118.94 492.87 -119.422 489.596 -119.898 486.316 C-120.146 484.621 -120.397 482.927 -120.652 481.234 C-120.76 480.493 -120.867 479.752 -120.978 478.989 C-121.335 477.128 -121.335 477.128 -122.335 475.128 C-122.637 473.175 -122.901 471.215 -123.148 469.253 C-124.334 460.6 -126.079 452.081 -127.842 443.53 C-128.691 439.4 -129.513 435.264 -130.335 431.128 C-130.46 430.502 -130.585 429.876 -130.714 429.23 C-134.653 409.461 -138.481 389.683 -141.898 369.816 C-144.174 356.584 -146.593 343.393 -149.2 330.222 C-152.233 314.886 -155.018 299.508 -157.759 284.118 C-158.084 282.306 -158.409 280.495 -158.734 278.683 C-158.881 277.845 -159.029 277.008 -159.181 276.144 C-160.223 270.354 -160.223 270.354 -161.335 268.128 C-161.655 266.464 -161.934 264.791 -162.195 263.117 C-163.4 255.641 -164.762 248.198 -166.136 240.752 C-166.595 238.262 -167.052 235.771 -167.508 233.281 C-168.98 225.265 -170.491 217.261 -172.128 209.277 C-172.409 207.894 -172.689 206.511 -172.969 205.128 C-173.483 202.595 -174.014 200.068 -174.557 197.541 C-178.549 177.898 -176.599 157.935 -166.148 140.628 C-159.425 130.56 -150.557 122.198 -142.019 113.679 C-140.952 112.612 -139.886 111.544 -138.819 110.477 C-136.601 108.257 -134.382 106.04 -132.161 103.823 C-129.335 101.003 -126.513 98.178 -123.693 95.352 C-121.497 93.153 -119.299 90.956 -117.101 88.76 C-116.06 87.72 -115.02 86.679 -113.981 85.637 C-104.915 76.556 -104.915 76.556 -100.404 72.713 C-95.228 68.272 -90.527 63.348 -85.762 58.478 C-82.789 55.443 -79.8 52.424 -76.814 49.402 C-73.043 45.583 -69.277 41.76 -65.526 37.921 C-62.47 34.794 -59.398 31.682 -56.317 28.58 C-55.16 27.409 -54.008 26.233 -52.863 25.052 C-38.161 9.901 -21.628 0.006 0 0 Z " fill="#FCFCFD" transform="translate(467.33544921875,357.87158203125)"/>
<path d="M0 0 C16.579 2.604 32.354 7.606 48.318 12.625 C54.665 14.61 61.041 16.482 67.43 18.328 C70.322 19.172 73.214 20.018 76.106 20.865 C77.968 21.406 79.832 21.941 81.698 22.468 C103.158 28.547 120.119 38.565 131.477 58.605 C136.694 69.171 139.084 80.333 141.75 91.75 C142.275 93.952 142.801 96.154 143.329 98.356 C144.394 102.808 145.453 107.262 146.507 111.718 C147.815 117.238 149.151 122.75 150.508 128.258 C150.704 129.055 150.9 129.851 151.102 130.672 C151.496 132.269 151.889 133.866 152.282 135.462 C160.071 167.154 167.502 198.933 174.996 230.696 C185.538 275.38 196.141 320.049 206.875 364.688 C207.139 365.787 207.404 366.887 207.676 368.02 C212.884 389.681 218.097 411.341 223.381 432.983 C223.953 435.325 224.524 437.667 225.095 440.009 C225.459 441.504 225.823 442.999 226.188 444.493 C226.363 445.212 226.539 445.931 226.719 446.672 C227.548 450.07 228.38 453.468 229.217 456.865 C232.317 469.451 235.311 482.041 237.891 494.746 C238.099 495.763 238.308 496.78 238.523 497.827 C241.967 515.267 239.87 531.964 232 548 C231.627 548.793 231.255 549.586 230.871 550.402 C226.414 558.799 219.382 565.316 212.835 572.088 C210.322 574.706 207.879 577.378 205.438 580.062 C200.731 585.216 195.975 590.321 191.207 595.416 C187.464 599.419 183.753 603.449 180.062 607.5 C176.662 611.225 173.197 614.84 169.598 618.371 C167.879 620.123 166.284 621.949 164.688 623.812 C161.924 627.023 159.014 630.023 156 633 C153.048 635.916 150.196 638.846 147.5 642 C144.017 646.075 140.222 649.793 136.41 653.559 C133.731 656.272 131.254 659.108 128.777 662.004 C126.049 665.068 123.103 667.905 120.184 670.785 C118.22 672.777 116.379 674.813 114.562 676.938 C111.058 681.028 107.248 684.767 103.418 688.551 C100.694 691.31 98.165 694.192 95.645 697.137 C93.456 699.616 91.105 701.906 88.746 704.223 C86.935 706.066 85.247 707.978 83.562 709.938 C81.144 712.746 78.641 715.4 76 718 C72.833 721.124 69.884 724.362 66.98 727.73 C61.084 734.487 55.007 741.083 48.605 747.363 C46.844 749.159 45.204 751.031 43.562 752.938 C41.144 755.746 38.641 758.4 36 761 C33.4 763.56 30.937 766.168 28.562 768.938 C25.993 771.928 23.307 774.731 20.5 777.5 C17.734 780.228 15.087 782.985 12.562 785.938 C9.055 790.031 5.243 793.772 1.41 797.559 C-1.269 800.272 -3.746 803.108 -6.223 806.004 C-8.877 808.985 -11.73 811.753 -14.594 814.531 C-17.22 817.225 -19.67 820.036 -22.135 822.877 C-25.161 826.322 -28.296 829.661 -31.438 833 C-32.095 833.701 -32.752 834.401 -33.43 835.123 C-37.321 839.258 -41.274 843.313 -45.324 847.293 C-47.07 849.071 -48.692 850.919 -50.312 852.812 C-53.223 856.202 -56.322 859.365 -59.5 862.5 C-63.262 866.211 -66.828 870.019 -70.258 874.039 C-72.969 877.091 -75.903 879.911 -78.809 882.777 C-81.421 885.427 -83.833 888.212 -86.254 891.035 C-88.096 893.108 -90.024 895.054 -92 897 C-94.579 899.54 -97.022 902.125 -99.375 904.875 C-111.369 918.62 -124.55 928.993 -143.188 931.75 C-143.817 931.791 -143.817 931.791 -147 932 C-147.636 932.052 -148.271 932.103 -148.926 932.156 C-165.962 932.926 -183.095 925.8 -199.052 920.721 C-201.869 919.826 -204.689 918.938 -207.508 918.05 C-235.729 909.157 -263.887 900.061 -292.033 890.934 C-303.774 887.127 -315.518 883.332 -327.262 879.537 C-330.046 878.637 -332.829 877.738 -335.612 876.838 C-348.724 872.597 -361.837 868.357 -374.973 864.188 C-375.896 863.894 -376.82 863.601 -377.771 863.299 C-379.606 862.717 -381.44 862.135 -383.274 861.553 C-405.134 854.615 -426.918 847.456 -448.699 840.276 C-475.106 831.571 -501.55 822.997 -528.048 814.575 C-538.033 811.401 -548.011 808.204 -557.978 804.974 C-561.165 803.947 -564.358 802.938 -567.551 801.93 C-586.874 795.762 -605.021 788.158 -616 770 C-616.634 768.976 -617.268 767.953 -617.922 766.898 C-624.324 755.829 -626.701 743.977 -629.114 731.54 C-629.967 727.146 -630.855 722.759 -631.744 718.371 C-632.798 713.166 -633.836 707.958 -634.875 702.75 C-635.08 701.726 -635.286 700.702 -635.497 699.647 C-636.086 696.698 -636.666 693.748 -637.242 690.797 C-637.42 689.912 -637.598 689.028 -637.781 688.117 C-638.708 683.315 -639.186 678.891 -639 674 C-633.041 674.964 -627.734 676.401 -622.187 678.761 C-618.275 680.282 -614.308 681.525 -610.301 682.766 C-603.909 684.764 -597.528 686.789 -591.164 688.875 C-590.414 689.121 -589.663 689.367 -588.89 689.62 C-587.305 690.139 -585.72 690.659 -584.134 691.178 C-561.286 698.662 -538.379 705.96 -515.467 713.245 C-511.945 714.365 -508.424 715.485 -504.902 716.605 C-504.212 716.825 -503.522 717.045 -502.811 717.271 C-490.362 721.233 -477.929 725.246 -465.505 729.287 C-458.334 731.617 -451.148 733.892 -443.937 736.096 C-439.756 737.383 -435.595 738.732 -431.438 740.094 C-430.599 740.367 -429.76 740.641 -428.896 740.922 C-425.382 742.068 -421.869 743.216 -418.356 744.364 C-409.342 747.308 -400.326 750.231 -391.254 752.994 C-383.74 755.317 -376.271 757.784 -368.793 760.218 C-360.763 762.83 -352.726 765.407 -344.65 767.874 C-337.155 770.186 -329.684 772.575 -322.209 774.954 C-319.336 775.868 -316.462 776.78 -313.588 777.691 C-304.845 780.47 -296.115 783.276 -287.418 786.195 C-275.29 790.264 -263.038 793.907 -250.768 797.519 C-248.475 798.195 -246.183 798.874 -243.891 799.553 C-242.417 799.987 -240.943 800.421 -239.469 800.855 C-238.792 801.056 -238.115 801.258 -237.417 801.465 C-220.972 806.288 -205.09 804.788 -189.906 796.816 C-184.106 793.192 -178.806 788.708 -175 783 C-174.34 783 -173.68 783 -173 783 C-172.756 782.428 -172.513 781.855 -172.262 781.266 C-170.775 778.596 -169.019 776.862 -166.812 774.75 C-163.893 771.901 -161.09 769.036 -158.438 765.938 C-156.063 763.168 -153.6 760.56 -151 758 C-148.441 755.48 -146.018 752.919 -143.688 750.188 C-140.336 746.284 -136.714 742.684 -133.054 739.074 C-129.76 735.807 -126.685 732.421 -123.676 728.895 C-121.232 726.132 -118.592 723.583 -115.965 720.996 C-114.078 719.079 -112.313 717.104 -110.562 715.062 C-107.289 711.252 -103.766 707.749 -100.191 704.223 C-97.579 701.573 -95.167 698.788 -92.746 695.965 C-90.274 693.183 -87.616 690.606 -84.965 687.996 C-83.078 686.079 -81.313 684.104 -79.562 682.062 C-76.993 679.072 -74.307 676.269 -71.5 673.5 C-68.734 670.772 -66.087 668.015 -63.562 665.062 C-60.055 660.969 -56.243 657.228 -52.41 653.441 C-49.731 650.728 -47.254 647.892 -44.777 644.996 C-42.053 641.936 -39.111 639.103 -36.195 636.227 C-33.56 633.554 -31.122 630.746 -28.68 627.898 C-27.018 626.02 -25.289 624.257 -23.5 622.5 C-21.107 620.15 -18.868 617.736 -16.688 615.188 C-13.135 611.061 -9.29 607.274 -5.418 603.449 C-2.694 600.69 -0.165 597.808 2.355 594.863 C4.544 592.384 6.895 590.094 9.254 587.777 C11.065 585.934 12.753 584.022 14.438 582.062 C16.856 579.254 19.359 576.6 22 574 C24.579 571.46 27.022 568.875 29.375 566.125 C32.905 562.015 36.734 558.251 40.586 554.445 C43.288 551.709 45.791 548.85 48.289 545.93 C50.673 543.241 53.228 540.745 55.812 538.25 C57.712 536.297 59.5 534.302 61.285 532.246 C64.901 528.085 68.646 524.063 72.438 520.062 C73.121 519.339 73.804 518.615 74.507 517.87 C77.403 514.802 80.302 511.738 83.201 508.674 C85.343 506.409 87.484 504.142 89.625 501.875 C90.275 501.189 90.926 500.504 91.595 499.797 C93.409 497.876 95.21 495.944 97 494 C97.549 493.405 98.097 492.809 98.662 492.196 C110.437 478.993 113.765 461.086 113.348 443.852 C112.257 431.77 108.525 420.036 105.285 408.393 C103.524 402.042 101.93 395.669 100.438 389.25 C98.608 381.409 96.572 373.656 94.379 365.91 C92.719 360.038 91.143 354.144 89.562 348.25 C87.323 339.914 85.08 331.579 82.812 323.25 C82.689 322.796 82.689 322.796 82.063 320.496 C80.711 315.546 79.315 310.613 77.875 305.688 C76.218 299.95 74.835 294.175 73.491 288.359 C71.35 279.128 68.844 270.002 66.285 260.879 C62.206 246.29 58.366 231.667 54.732 216.962 C52.482 207.86 50.182 198.785 47.603 189.77 C46.041 184.274 44.725 178.739 43.446 173.172 C42.118 167.415 40.612 161.715 39.066 156.012 C37.608 150.583 36.269 145.125 34.926 139.667 C33.533 134.036 32.057 128.431 30.556 122.828 C28.751 116.082 26.992 109.325 25.25 102.562 C25.071 101.87 24.893 101.178 24.709 100.464 C21.93 89.682 19.216 78.885 16.528 68.08 C15.995 65.936 15.461 63.791 14.927 61.647 C13.315 55.173 11.705 48.699 10.104 42.223 C9.425 39.48 8.743 36.738 8.06 33.996 C7.592 32.11 7.127 30.223 6.663 28.336 C4.936 21.41 2.997 14.615 0.749 7.838 C0.022 5.084 -0.148 2.832 0 0 Z " fill="#0573A5" transform="translate(946,298)"/>
<path d="M0 0 C1.347 0.397 2.694 0.793 4.04 1.189 C17.866 5.266 31.64 9.513 45.408 13.779 C51.058 15.528 56.711 17.27 62.363 19.013 C63.802 19.457 65.241 19.901 66.68 20.345 C81.606 24.949 96.548 29.5 111.496 34.031 C112.661 34.384 113.826 34.738 115.026 35.102 C125.019 38.131 135.013 41.156 145.009 44.178 C147.92 45.058 150.832 45.939 153.743 46.82 C155.518 47.356 157.293 47.891 159.068 48.426 C170.528 51.89 181.956 55.457 193.389 59.009 C201.052 61.39 208.717 63.766 216.383 66.141 C217.836 66.591 219.29 67.041 220.743 67.492 C223.705 68.41 226.667 69.327 229.63 70.245 C232.715 71.201 235.8 72.157 238.885 73.113 C271.413 83.193 271.413 83.193 286.132 87.743 C290.372 89.054 294.612 90.366 298.851 91.683 C300.42 92.17 301.989 92.657 303.559 93.145 C304.305 93.376 305.052 93.608 305.821 93.847 C310.359 95.253 314.904 96.638 319.453 98.008 C322.422 98.903 325.388 99.807 328.355 100.713 C329.703 101.122 331.053 101.527 332.405 101.927 C345.636 105.844 355.695 111.155 365.496 120.906 C366.208 121.583 366.919 122.26 367.652 122.957 C379.115 134.662 382.468 150.782 386.306 166.16 C387.498 170.929 388.718 175.692 389.937 180.454 C391.14 185.162 392.335 189.872 393.528 194.583 C394.13 196.96 394.734 199.336 395.34 201.712 C396.2 205.093 397.051 208.476 397.898 211.859 C398.161 212.883 398.423 213.907 398.693 214.963 C399.871 219.704 400.843 223.977 400.496 228.906 C399.182 228.642 397.87 228.369 396.559 228.094 C395.828 227.943 395.097 227.792 394.344 227.637 C390.321 226.605 386.425 225.245 382.496 223.906 C381.067 223.429 379.637 222.952 378.207 222.477 C360.312 216.512 360.312 216.512 358.343 215.855 C356.473 215.232 354.601 214.61 352.73 213.988 C350.883 213.37 349.038 212.747 347.199 212.105 C342.128 210.346 336.986 208.936 331.809 207.531 C325.025 205.687 318.447 203.525 311.848 201.09 C307.325 199.493 302.736 198.217 298.117 196.93 C287.935 194.052 277.884 190.803 267.958 187.137 C263.677 185.583 259.363 184.285 254.977 183.059 C247.744 181.022 240.649 178.668 233.539 176.247 C222.848 172.613 212.158 169.116 201.269 166.116 C186.46 162.002 171.868 157.071 157.309 152.156 C152.486 150.532 147.636 149.058 142.746 147.656 C135.169 145.484 127.712 142.994 120.246 140.469 C111.175 137.405 102.087 134.568 92.863 132.004 C83.581 129.409 74.479 126.319 65.372 123.172 C10.704 104.307 10.704 104.307 -16.27 116.117 C-22.999 119.699 -28.024 125.131 -33.23 130.59 C-35.454 132.898 -37.758 135.026 -40.195 137.106 C-44.558 140.901 -48.648 144.923 -52.721 149.025 C-53.499 149.805 -54.277 150.585 -55.079 151.388 C-56.756 153.069 -58.432 154.751 -60.106 156.433 C-62.761 159.101 -65.42 161.766 -68.079 164.43 C-73.723 170.086 -79.364 175.746 -85.004 181.406 C-91.543 187.969 -98.084 194.531 -104.63 201.088 C-107.24 203.704 -109.846 206.324 -112.453 208.943 C-114.064 210.558 -115.676 212.173 -117.287 213.787 C-118.003 214.508 -118.719 215.23 -119.457 215.973 C-122.698 219.214 -125.973 222.357 -129.447 225.349 C-134.062 229.333 -138.343 233.62 -142.639 237.943 C-143.515 238.821 -144.39 239.698 -145.293 240.602 C-147.182 242.495 -149.071 244.389 -150.958 246.285 C-153.949 249.29 -156.944 252.29 -159.939 255.29 C-166.297 261.659 -172.651 268.033 -179.004 274.406 C-185.865 281.29 -192.727 288.172 -199.595 295.05 C-202.565 298.026 -205.533 301.004 -208.499 303.984 C-210.787 306.281 -213.078 308.575 -215.369 310.869 C-216.179 311.684 -216.988 312.499 -217.822 313.338 C-221.97 317.487 -226.204 321.45 -230.649 325.277 C-233.516 327.795 -236.201 330.479 -238.885 333.189 C-239.468 333.774 -240.051 334.359 -240.652 334.961 C-241.903 336.216 -243.153 337.472 -244.402 338.729 C-246.385 340.725 -248.372 342.718 -250.359 344.71 C-254.577 348.939 -258.791 353.172 -263.004 357.406 C-267.891 362.317 -272.78 367.227 -277.673 372.132 C-279.618 374.083 -281.56 376.038 -283.502 377.992 C-289.333 383.847 -295.176 389.582 -301.504 394.906 C-314.091 406.312 -321.618 420.592 -322.76 437.752 C-323.163 451.679 -320.704 464.793 -318.004 478.406 C-317.546 480.782 -317.091 483.158 -316.636 485.534 C-315.716 490.341 -314.787 495.147 -313.851 499.951 C-312.035 509.292 -310.3 518.649 -308.569 528.007 C-308.084 530.626 -307.595 533.245 -307.105 535.863 C-305.704 543.363 -304.328 550.866 -303.02 558.383 C-301.532 566.905 -299.877 575.392 -298.202 583.879 C-294.916 600.546 -291.73 617.229 -288.619 633.93 C-287.176 641.674 -285.717 649.416 -284.254 657.156 C-284.184 657.529 -284.184 657.529 -283.827 659.412 C-279.847 680.456 -275.786 701.484 -271.735 722.513 C-270.421 729.338 -269.106 736.163 -267.793 742.988 C-267.586 744.063 -267.379 745.139 -267.165 746.247 C-265.86 753.034 -264.577 759.826 -263.312 766.621 C-262.673 770.033 -262.014 773.44 -261.352 776.848 C-257.623 796.044 -257.623 796.044 -256.012 805.537 C-254.569 814.039 -253.006 822.494 -251.211 830.93 C-248.651 843.097 -246.218 855.287 -243.854 867.494 C-243.407 869.798 -242.956 872.102 -242.502 874.404 C-241.832 877.799 -241.173 881.196 -240.516 884.594 C-240.313 885.615 -240.11 886.635 -239.9 887.687 C-238.846 893.203 -238.29 898.291 -238.504 903.906 C-246.78 901.729 -254.943 899.261 -263.098 896.668 C-263.725 896.469 -264.352 896.269 -264.998 896.064 C-268.312 895.009 -271.625 893.952 -274.937 892.892 C-277.646 892.025 -280.358 891.166 -283.071 890.312 C-286.387 889.268 -289.7 888.213 -293.01 887.15 C-294.852 886.561 -296.698 885.984 -298.544 885.406 C-317.445 879.294 -331.778 868.995 -341.316 851.281 C-349.125 834.295 -350.914 814.498 -354.248 796.208 C-354.699 793.738 -355.152 791.269 -355.605 788.799 C-361.011 759.328 -366.294 729.835 -371.553 700.338 C-377.364 667.744 -383.265 635.168 -389.204 602.598 C-398.354 552.411 -407.374 502.204 -416.147 451.95 C-416.494 449.964 -416.841 447.979 -417.188 445.993 C-421.652 420.437 -421.652 420.437 -423.278 410.971 C-424.023 406.642 -424.79 402.319 -425.576 397.998 C-425.759 396.982 -425.942 395.966 -426.13 394.919 C-426.481 392.963 -426.838 391.008 -427.201 389.055 C-429.551 375.898 -429.723 362.985 -426.504 349.969 C-426.333 349.261 -426.162 348.553 -425.987 347.823 C-421.99 333.802 -413.255 323.786 -403.004 313.969 C-401.902 312.889 -400.802 311.807 -399.703 310.725 C-394.657 305.776 -389.522 300.959 -384.158 296.353 C-381.826 294.313 -379.665 292.126 -377.504 289.906 C-373.94 286.299 -370.285 282.911 -366.434 279.617 C-364.371 277.788 -362.438 275.87 -360.504 273.906 C-358.025 271.389 -355.51 269.005 -352.816 266.719 C-349.021 263.462 -345.518 259.96 -342.004 256.406 C-337.973 252.33 -333.902 248.421 -329.527 244.711 C-326.408 241.928 -323.507 238.929 -320.572 235.955 C-317.35 232.706 -314.01 229.682 -310.531 226.715 C-307.188 223.732 -304.093 220.503 -300.945 217.316 C-298.24 214.646 -295.416 212.174 -292.523 209.711 C-289.316 206.845 -286.362 203.733 -283.387 200.629 C-281.504 198.906 -281.504 198.906 -279.504 198.906 C-279.504 198.246 -279.504 197.586 -279.504 196.906 C-278.176 195.602 -278.176 195.602 -276.254 194.031 C-272.474 190.827 -268.977 187.433 -265.504 183.906 C-261.675 180.028 -257.783 176.344 -253.629 172.812 C-250.257 169.788 -247.115 166.537 -243.932 163.315 C-240.558 159.915 -237.079 156.719 -233.43 153.613 C-230.383 150.913 -227.573 147.983 -224.715 145.086 C-222.745 143.144 -220.732 141.326 -218.629 139.531 C-215.258 136.644 -212.119 133.564 -209.004 130.406 C-205.971 127.332 -202.925 124.326 -199.629 121.531 C-195.272 117.819 -191.309 113.738 -187.288 109.671 C-183.804 106.162 -180.233 102.845 -176.461 99.645 C-173.139 96.694 -170.075 93.484 -166.953 90.324 C-164.193 87.6 -161.312 85.071 -158.367 82.551 C-156.499 80.902 -154.749 79.183 -153.004 77.406 C-150.694 75.055 -148.326 72.856 -145.816 70.719 C-142.203 67.61 -138.851 64.295 -135.504 60.906 C-131.653 57.007 -127.74 53.298 -123.562 49.746 C-120.434 46.95 -117.52 43.943 -114.574 40.957 C-111.33 37.686 -107.968 34.637 -104.465 31.648 C-102.218 29.652 -100.115 27.546 -98.004 25.406 C-94.628 21.99 -91.169 18.76 -87.512 15.648 C-86.142 14.46 -84.804 13.233 -83.496 11.977 C-59.284 -10.985 -29.898 -8.908 0 0 Z " fill="#0353AD" transform="translate(544.50390625,68.09375)"/>
<path d="M0 0 C0.946 -0.034 1.892 -0.067 2.867 -0.102 C14.024 2.387 22.585 13.63 30.336 21.402 C31.795 22.857 33.255 24.311 34.715 25.766 C37.761 28.802 40.801 31.845 43.837 34.891 C47.723 38.788 51.623 42.669 55.529 46.545 C58.542 49.54 61.546 52.544 64.547 55.55 C65.981 56.985 67.419 58.417 68.86 59.845 C70.873 61.843 72.872 63.853 74.869 65.867 C75.165 66.158 75.165 66.158 76.663 67.632 C81.583 72.641 84.525 77.773 84.688 85 C84.709 85.427 84.709 85.427 84.816 87.586 C82.517 97.692 73.162 104.594 65.854 111.266 C62.28 114.551 58.77 117.904 55.252 121.248 C50.804 125.475 46.342 129.677 41.787 133.789 C14.102 158.852 14.102 158.852 12.921 173.536 C12.697 179.438 13.382 185.237 14.04 191.097 C14.344 203.731 6.762 216.094 -1.625 225 C-6.612 229.694 -11.69 232.768 -17.875 235.625 C-18.739 236.065 -19.602 236.506 -20.492 236.96 C-32.593 242.268 -45.448 241.322 -58.407 241.246 C-62.013 241.23 -65.619 241.244 -69.225 241.254 C-75.46 241.268 -81.694 241.263 -87.929 241.247 C-96.951 241.224 -105.974 241.231 -114.996 241.247 C-129.65 241.271 -144.303 241.275 -158.957 241.265 C-159.832 241.264 -160.707 241.263 -161.609 241.263 C-163.38 241.261 -165.151 241.26 -166.923 241.259 C-167.801 241.258 -168.679 241.258 -169.584 241.257 C-170.463 241.256 -171.343 241.256 -172.248 241.255 C-182.024 241.248 -191.8 241.246 -201.576 241.246 C-202.014 241.246 -202.014 241.246 -204.23 241.246 C-218.839 241.246 -233.449 241.258 -248.058 241.277 C-257.058 241.288 -266.059 241.287 -275.059 241.271 C-281.221 241.261 -287.384 241.26 -293.546 241.268 C-297.1 241.272 -300.653 241.271 -304.207 241.257 C-308.061 241.242 -311.915 241.25 -315.77 241.26 C-316.889 241.252 -318.008 241.243 -319.16 241.235 C-328.253 241.291 -336.1 243.213 -342.875 249.625 C-348.535 256.872 -350.165 263.932 -350.289 272.961 C-350.308 273.84 -350.328 274.72 -350.348 275.626 C-350.407 278.417 -350.454 281.208 -350.5 284 C-350.538 285.9 -350.577 287.799 -350.617 289.699 C-350.713 294.341 -350.797 298.983 -350.875 303.625 C-349.874 303.621 -348.872 303.616 -347.84 303.612 C-338.394 303.571 -328.949 303.541 -319.503 303.521 C-314.647 303.511 -309.791 303.497 -304.935 303.474 C-300.247 303.452 -295.559 303.44 -290.871 303.435 C-289.084 303.432 -287.297 303.424 -285.51 303.414 C-283.004 303.399 -280.498 303.397 -277.992 303.398 C-277.256 303.391 -276.52 303.384 -275.762 303.376 C-271.422 303.393 -267.91 304.029 -263.875 305.625 C-263.875 306.285 -263.875 306.945 -263.875 307.625 C-263.174 307.852 -262.472 308.079 -261.75 308.312 C-254.556 311.597 -251.046 316.563 -247.875 323.625 C-247.024 326.491 -246.746 329.054 -246.735 332.038 C-246.729 332.916 -246.723 333.793 -246.717 334.697 C-246.717 335.175 -246.717 335.175 -246.714 337.591 C-246.709 338.603 -246.704 339.615 -246.699 340.657 C-246.684 344.006 -246.677 347.354 -246.672 350.703 C-246.666 353.032 -246.66 355.362 -246.655 357.691 C-246.644 362.577 -246.638 367.462 -246.635 372.348 C-246.629 378.6 -246.605 384.852 -246.577 391.104 C-246.558 395.917 -246.553 400.73 -246.551 405.543 C-246.548 407.847 -246.54 410.151 -246.527 412.456 C-246.51 415.685 -246.512 418.913 -246.519 422.142 C-246.509 423.088 -246.5 424.035 -246.491 425.011 C-246.558 435.723 -250.614 443.364 -258.125 450.875 C-265.675 455.679 -272.764 457.217 -281.614 457.127 C-282.125 457.129 -282.125 457.129 -284.712 457.143 C-288.061 457.155 -291.409 457.139 -294.758 457.121 C-297.101 457.121 -299.444 457.123 -301.787 457.126 C-306.684 457.127 -311.581 457.114 -316.478 457.092 C-322.744 457.063 -329.009 457.066 -335.274 457.079 C-340.107 457.086 -344.941 457.078 -349.774 457.065 C-352.084 457.061 -354.394 457.061 -356.704 457.064 C-359.935 457.067 -363.165 457.051 -366.395 457.029 C-367.342 457.034 -368.288 457.038 -369.264 457.043 C-378.538 456.939 -385 454.334 -391.824 447.945 C-398.95 439.883 -400.022 431.271 -400.052 420.96 C-400.059 419.992 -400.065 419.024 -400.072 418.027 C-400.092 414.828 -400.103 411.629 -400.113 408.43 C-400.117 407.334 -400.121 406.238 -400.126 405.109 C-400.146 399.306 -400.161 393.503 -400.17 387.7 C-400.181 381.725 -400.216 375.751 -400.255 369.776 C-400.282 365.165 -400.29 360.555 -400.293 355.944 C-400.298 353.743 -400.31 351.541 -400.328 349.34 C-400.444 334.808 -400.539 321.769 -389.875 310.625 C-386.771 307.977 -383.782 305.927 -379.875 304.625 C-379.866 303.36 -379.856 302.095 -379.847 300.792 C-379.806 296.041 -379.741 291.291 -379.667 286.54 C-379.639 284.495 -379.618 282.45 -379.604 280.405 C-379.445 258.786 -375.732 243.323 -359.875 227.625 C-351.521 219.855 -340.396 213.504 -328.772 213.498 C-328.254 213.496 -328.254 213.496 -325.632 213.488 C-325.063 213.489 -325.063 213.489 -322.186 213.494 C-320.977 213.492 -319.768 213.489 -318.522 213.487 C-315.865 213.483 -313.209 213.481 -310.552 213.482 C-306.23 213.484 -301.907 213.479 -297.585 213.473 C-291.308 213.465 -285.031 213.46 -278.755 213.456 C-268.83 213.451 -258.905 213.434 -248.98 213.415 C-245.584 213.409 -242.187 213.402 -238.791 213.396 C-237.942 213.394 -237.094 213.393 -236.219 213.391 C-226.556 213.373 -216.893 213.357 -207.23 213.342 C-206.347 213.341 -205.464 213.339 -204.554 213.338 C-190.247 213.316 -175.94 213.305 -161.634 213.298 C-146.941 213.29 -132.249 213.266 -117.556 213.23 C-108.496 213.208 -99.437 213.198 -90.377 213.204 C-84.165 213.207 -77.952 213.196 -71.74 213.173 C-68.158 213.161 -64.576 213.154 -60.994 213.166 C-57.104 213.178 -53.215 213.159 -49.326 213.137 C-48.202 213.146 -47.078 213.154 -45.921 213.163 C-36.658 213.067 -28.283 210.926 -21.39 204.422 C-14.118 195.797 -12.036 184.225 -12.437 173.228 C-14.062 154.733 -33.007 141.444 -45.759 129.798 C-49.822 126.058 -53.806 122.235 -57.795 118.416 C-62.278 114.128 -66.766 109.85 -71.32 105.637 C-72.007 104.999 -72.694 104.361 -73.402 103.703 C-74.68 102.519 -75.962 101.34 -77.25 100.166 C-81.085 96.604 -84.43 93.344 -85.309 87.977 C-85.31 87.077 -85.311 86.177 -85.312 85.25 C-85.322 84.803 -85.322 84.803 -85.371 82.539 C-84.159 75.418 -79.23 70.543 -74.29 65.652 C-73.637 64.994 -72.985 64.336 -72.312 63.658 C-70.167 61.5 -68.012 59.353 -65.855 57.207 C-64.353 55.702 -62.851 54.197 -61.349 52.692 C-58.206 49.544 -55.057 46.402 -51.905 43.264 C-47.873 39.249 -43.855 35.221 -39.841 31.189 C-36.743 28.081 -33.639 24.979 -30.532 21.88 C-29.048 20.398 -27.566 18.914 -26.086 17.427 C-24.014 15.348 -21.933 13.278 -19.848 11.21 C-19.244 10.6 -18.64 9.989 -18.017 9.36 C-12.826 4.245 -7.614 0.062 0 0 Z " fill="#025DDE" transform="translate(805.875,436.375)"/>
<path d="M0 0 C1.038 0.374 2.075 0.748 3.145 1.133 C22.64 8.691 36.499 22.388 45.488 41.098 C50.251 51.986 52.529 61.98 52.375 73.875 C52.369 74.45 52.369 74.45 52.34 77.359 C51.93 98.592 43.326 116.106 28.875 131.625 C19.661 140.459 9.002 145.889 -3 150 C-3.782 150.352 -4.565 150.704 -5.371 151.066 C-21.454 156.778 -41.355 153.18 -56.28 146.213 C-63.123 142.862 -69.344 139.154 -75 134 C-75.403 133.642 -75.403 133.642 -77.445 131.832 C-86.382 123.456 -94.028 112.676 -98 101 C-98.148 100.584 -98.148 100.584 -98.898 98.477 C-104.885 77.989 -101.936 55.023 -92.031 36.41 C-80.5 17.051 -63.683 3.988 -42 -2.309 C-27.807 -5.58 -13.663 -5.043 0 0 Z " fill="#0353B4" transform="translate(508,442)"/>
<path d="M0 0 C1.008 0.289 2.016 0.577 3.055 0.875 C10.415 3.21 16.047 7.153 22 12 C22.857 12.692 23.714 13.384 24.598 14.098 C39.585 26.861 49.578 44.425 51.176 64.172 C52.512 86.617 46.729 107.147 31.78 124.184 C26.509 129.853 20.647 134.051 14 138 C13.193 138.489 12.386 138.977 11.555 139.48 C-5.631 148.947 -26.128 150.989 -45.125 146.438 C-57.368 142.521 -67.519 136.637 -77 128 C-77.718 127.375 -78.436 126.75 -79.176 126.105 C-85.132 120.612 -89.082 114.041 -93 107 C-93.413 106.261 -93.825 105.523 -94.25 104.762 C-99.636 93.927 -101.354 81.832 -101.375 69.875 C-101.376 69.437 -101.376 69.437 -101.38 67.22 C-101.292 62.149 -100.631 57.846 -99 53 C-98.667 51.915 -98.335 50.829 -97.992 49.711 C-91.828 31.305 -80.996 17.887 -65 7 C-64.642 6.753 -64.642 6.753 -62.832 5.504 C-44.111 -6.12 -20.388 -6.341 0 0 Z " fill="#03B1FC" transform="translate(825,745)"/>
<path d="M0 0 C0.946 -0.034 1.892 -0.067 2.867 -0.102 C14.024 2.387 22.585 13.63 30.336 21.402 C31.795 22.857 33.255 24.311 34.715 25.766 C37.761 28.802 40.801 31.845 43.837 34.891 C47.723 38.788 51.623 42.669 55.529 46.545 C58.542 49.54 61.546 52.544 64.547 55.55 C65.981 56.985 67.419 58.417 68.86 59.845 C70.873 61.843 72.872 63.853 74.869 65.867 C75.461 66.449 76.053 67.032 76.663 67.632 C81.583 72.641 84.525 77.773 84.688 85 C84.709 85.427 84.709 85.427 84.816 87.586 C82.517 97.692 73.162 104.594 65.854 111.266 C62.28 114.551 58.77 117.904 55.252 121.248 C50.804 125.475 46.342 129.677 41.787 133.789 C14.121 158.833 14.121 158.833 12.752 174.086 C12.419 180.989 12.988 187.811 14.125 194.625 C13.795 194.625 13.465 194.625 13.125 194.625 C12.795 184.725 12.465 174.825 12.125 164.625 C10.805 165.285 10.805 165.285 4.125 168.625 C1.656 169.156 1.656 169.156 -0.375 169.125 C-1.045 169.135 -1.716 169.146 -2.406 169.156 C-9.761 167.574 -14.929 163.151 -20.07 157.916 C-20.739 157.251 -21.408 156.585 -22.098 155.899 C-24.29 153.715 -26.467 151.516 -28.645 149.316 C-30.172 147.786 -31.701 146.257 -33.23 144.729 C-36.424 141.531 -39.611 138.327 -42.794 135.118 C-46.87 131.008 -50.959 126.91 -55.054 122.818 C-58.207 119.664 -61.355 116.505 -64.501 113.344 C-66.008 111.832 -67.515 110.32 -69.024 108.81 C-71.13 106.699 -73.23 104.582 -75.327 102.463 C-75.638 102.153 -75.638 102.153 -77.212 100.581 C-81.802 95.923 -85.303 92.09 -85.312 85.25 C-85.322 84.803 -85.322 84.803 -85.371 82.539 C-84.159 75.418 -79.23 70.543 -74.29 65.652 C-73.637 64.994 -72.985 64.336 -72.312 63.658 C-70.167 61.5 -68.012 59.353 -65.855 57.207 C-64.353 55.702 -62.851 54.197 -61.349 52.692 C-58.206 49.544 -55.057 46.402 -51.905 43.264 C-47.873 39.249 -43.855 35.221 -39.841 31.189 C-36.743 28.081 -33.639 24.979 -30.532 21.88 C-29.048 20.398 -27.566 18.914 -26.086 17.427 C-24.014 15.348 -21.933 13.278 -19.848 11.21 C-19.244 10.6 -18.64 9.989 -18.017 9.36 C-12.826 4.245 -7.614 0.062 0 0 Z " fill="#025DDF" transform="translate(805.875,436.375)"/>
<path d="M0 0 C0.597 0.283 1.195 0.566 1.811 0.857 C2.605 1.224 3.4 1.591 4.219 1.969 C5.002 2.334 5.785 2.7 6.592 3.076 C11.322 4.891 15.678 4.891 20.408 3.076 C21.191 2.711 21.974 2.345 22.781 1.969 C23.576 1.602 24.371 1.235 25.189 0.857 C25.488 0.716 25.488 0.716 27 0 C27.125 4.746 27.215 9.492 27.275 14.24 C27.3 15.848 27.333 17.457 27.377 19.066 C27.838 36.478 23.233 49.287 11.25 62.25 C6.673 66.607 1.677 69.315 -4 72 C-4.868 72.444 -5.736 72.889 -6.63 73.347 C-18.726 78.643 -31.581 77.697 -44.532 77.621 C-48.138 77.605 -51.744 77.619 -55.35 77.629 C-61.585 77.643 -67.819 77.638 -74.054 77.622 C-83.076 77.599 -92.099 77.606 -101.121 77.622 C-115.775 77.646 -130.428 77.65 -145.082 77.64 C-145.957 77.639 -146.832 77.638 -147.734 77.638 C-149.505 77.636 -151.276 77.635 -153.048 77.634 C-153.926 77.633 -154.804 77.633 -155.709 77.632 C-156.149 77.632 -156.149 77.632 -158.373 77.63 C-168.149 77.623 -177.925 77.621 -187.701 77.621 C-188.139 77.621 -188.139 77.621 -190.355 77.621 C-204.964 77.621 -219.574 77.633 -234.183 77.652 C-243.183 77.663 -252.184 77.662 -261.184 77.646 C-267.346 77.636 -273.509 77.635 -279.671 77.643 C-283.225 77.647 -286.778 77.646 -290.332 77.632 C-294.186 77.617 -298.04 77.625 -301.895 77.635 C-303.014 77.627 -304.133 77.618 -305.285 77.61 C-314.378 77.666 -322.225 79.588 -329 86 C-334.66 93.247 -336.29 100.307 -336.414 109.336 C-336.433 110.215 -336.453 111.095 -336.473 112.001 C-336.532 114.792 -336.579 117.583 -336.625 120.375 C-336.663 122.275 -336.702 124.174 -336.742 126.074 C-336.839 130.716 -336.919 135.358 -337 140 C-346.24 140.33 -355.48 140.66 -365 141 C-365.092 134.971 -365.172 128.944 -365.22 122.915 C-365.24 120.87 -365.267 118.825 -365.302 116.78 C-365.64 96.432 -362.741 81.629 -348.34 66.316 C-339.436 57.502 -327.8 49.88 -314.897 49.873 C-314.379 49.871 -314.379 49.871 -311.757 49.863 C-311.188 49.864 -311.188 49.864 -308.311 49.869 C-307.102 49.867 -305.893 49.864 -304.647 49.862 C-301.99 49.858 -299.334 49.856 -296.677 49.857 C-292.355 49.859 -288.032 49.854 -283.71 49.848 C-277.433 49.84 -271.156 49.835 -264.88 49.831 C-254.955 49.826 -245.03 49.809 -235.105 49.79 C-231.709 49.784 -228.312 49.777 -224.916 49.771 C-224.067 49.769 -223.219 49.768 -222.344 49.766 C-212.681 49.748 -203.018 49.732 -193.355 49.717 C-192.472 49.716 -191.589 49.714 -190.679 49.713 C-176.372 49.691 -162.065 49.68 -147.759 49.673 C-133.066 49.665 -118.374 49.641 -103.681 49.605 C-94.621 49.583 -85.562 49.573 -76.502 49.579 C-70.29 49.582 -64.077 49.571 -57.865 49.548 C-54.283 49.536 -50.701 49.529 -47.119 49.541 C-43.229 49.553 -39.34 49.534 -35.451 49.512 C-34.327 49.521 -33.203 49.529 -32.046 49.538 C-22.8 49.443 -14.383 47.316 -7.521 40.79 C-0.649 32.703 -0.233 24.12 -0.188 13.875 C-0.164 12.523 -0.139 11.172 -0.111 9.82 C-0.053 6.547 -0.016 3.274 0 0 Z " fill="#033D95" transform="translate(792,600)"/>
<path d="M0 0 C4.083 1.361 6.349 3.248 9.039 6.48 C14.37 12.687 20.296 18.305 26.145 24.018 C27.012 24.874 27.88 25.731 28.773 26.613 C29.562 27.385 30.35 28.156 31.162 28.95 C33.486 31.542 33.935 33.679 34.625 37.062 C33.925 41.475 33.106 42.377 30.145 45.555 C29.328 46.433 28.511 47.311 27.669 48.216 C23.189 52.889 18.649 57.495 14.062 62.062 C13.109 63.02 12.155 63.978 11.201 64.936 C10.301 65.835 9.4 66.734 8.473 67.66 C7.661 68.471 6.849 69.282 6.012 70.117 C2.589 73.321 -0.125 73.413 -4.672 73.332 C-8.886 72.731 -10.292 71.318 -13 68 C-14.308 64.826 -14.542 62.386 -14 59 C-12.438 56.567 -12.438 56.567 -10.48 54.203 C-10.157 53.807 -10.157 53.807 -8.52 51.802 C-8.019 51.207 -7.517 50.613 -7 50 C-7.876 50.009 -8.752 50.018 -9.655 50.027 C-17.924 50.107 -26.192 50.168 -34.461 50.207 C-38.712 50.228 -42.962 50.256 -47.213 50.302 C-51.317 50.345 -55.421 50.369 -59.526 50.38 C-61.089 50.387 -62.653 50.401 -64.217 50.423 C-66.412 50.452 -68.606 50.456 -70.801 50.454 C-72.049 50.463 -73.297 50.472 -74.583 50.481 C-79.58 49.778 -82.726 47.572 -85.875 43.688 C-87.807 39.071 -87.544 35.46 -85.812 30.812 C-83.48 27.192 -80.845 24.922 -77 23 C-74.815 22.879 -72.627 22.823 -70.439 22.795 C-69.766 22.785 -69.092 22.775 -68.399 22.765 C-66.169 22.733 -63.94 22.708 -61.711 22.684 C-60.167 22.663 -58.623 22.642 -57.079 22.621 C-53.011 22.565 -48.944 22.516 -44.877 22.468 C-40.728 22.418 -36.579 22.362 -32.43 22.307 C-24.287 22.199 -16.143 22.098 -8 22 C-8.804 21.051 -9.609 20.102 -10.438 19.125 C-12.698 16.459 -13.907 14.815 -14.312 11.25 C-13.92 7.167 -12.531 5.182 -10 2 C-6.258 -0.495 -4.438 -0.376 0 0 Z " fill="#064096" transform="translate(667,779)"/>
<path d="M0 0 C6.957 4.762 12.861 11.707 18.802 17.672 C20.455 19.33 22.113 20.983 23.771 22.635 C24.826 23.69 25.88 24.745 26.934 25.801 C27.428 26.293 27.923 26.786 28.433 27.294 C31.467 30.349 32.885 31.83 33.312 36.188 C32.706 43.591 28.082 48.362 22.992 53.336 C22.425 53.901 21.859 54.466 21.275 55.048 C20.087 56.229 18.895 57.407 17.7 58.582 C15.866 60.384 14.044 62.197 12.223 64.012 C11.063 65.162 9.903 66.312 8.742 67.461 C8.196 68.003 7.65 68.544 7.088 69.102 C2.673 73.434 0.345 74.399 -5.738 74.359 C-9.325 73.789 -10.868 71.798 -13 69 C-14.789 65.423 -14.727 61.885 -14 58 C-12.42 55.774 -12.42 55.774 -10.469 53.695 C-10.146 53.346 -10.146 53.346 -8.514 51.579 C-8.014 51.058 -7.515 50.537 -7 50 C-7.899 50.013 -8.798 50.027 -9.724 50.04 C-18.213 50.161 -26.702 50.252 -35.191 50.311 C-39.556 50.342 -43.919 50.385 -48.283 50.453 C-52.498 50.518 -56.711 50.554 -60.927 50.569 C-62.531 50.58 -64.136 50.602 -65.741 50.634 C-79.887 50.909 -79.887 50.909 -84.487 47.165 C-86.614 44.929 -87.031 43.883 -87.859 40.781 C-87.528 30.831 -87.528 30.831 -84.625 27.25 C-80.539 23.748 -78.418 23.877 -73.072 23.886 C-72.716 23.886 -72.716 23.886 -70.913 23.886 C-68.554 23.887 -66.195 23.895 -63.836 23.902 C-62.202 23.904 -60.568 23.906 -58.934 23.907 C-54.631 23.91 -50.327 23.92 -46.023 23.931 C-41.632 23.942 -37.242 23.946 -32.852 23.951 C-24.234 23.962 -15.617 23.979 -7 24 C-7.497 23.477 -7.995 22.954 -8.507 22.415 C-9.151 21.715 -9.794 21.014 -10.457 20.293 C-11.099 19.605 -11.74 18.917 -12.402 18.208 C-14.617 15.148 -14.806 12.74 -14.5 9.047 C-12.737 1.832 -6.898 -1.018 0 0 Z " fill="#043E94" transform="translate(668,481)"/>
<path d="M0 0 C-0.66 1.32 -1.32 2.64 -2 4 C-2.66 3.67 -3.32 3.34 -4 3 C-5.909 2.88 -7.822 2.823 -9.735 2.795 C-10.936 2.775 -12.137 2.755 -13.375 2.734 C-14.677 2.718 -15.979 2.701 -17.32 2.684 C-18.663 2.663 -20.005 2.642 -21.347 2.621 C-24.882 2.565 -28.416 2.516 -31.951 2.468 C-35.557 2.418 -39.163 2.362 -42.77 2.307 C-49.846 2.199 -56.923 2.098 -64 2 C-64 1.67 -64 1.34 -64 1 C-55.951 0.869 -47.901 0.739 -39.852 0.609 C-36.115 0.548 -32.378 0.488 -28.64 0.427 C-25.035 0.369 -21.43 0.31 -17.825 0.252 C-16.448 0.23 -15.071 0.208 -13.694 0.185 C-11.769 0.154 -9.844 0.123 -7.918 0.092 C-7.37 0.083 -7.37 0.083 -4.594 0.038 C-3.063 0.016 -1.531 0 0 0 Z " fill="#EFF2F7" transform="translate(660,532)"/>
</svg>
