<?xml version="1.0" encoding="UTF-8"?>
<svg version="1.1" xmlns="http://www.w3.org/2000/svg" width="596" height="624">
<path d="M0 0 C10.02841731 0.22205194 19.16810099 3.16707894 28.65625 6.09765625 C30.43025319 6.6367372 32.20456481 7.17480404 33.97915649 7.71194458 C37.80585492 8.87230028 41.63050054 10.03911297 45.45367432 11.21102905 C51.61019878 13.0979202 57.7711778 14.96995138 63.93310547 16.83911133 C66.07285057 17.48831019 68.21259051 18.13752606 70.35232544 18.78675842 C71.4270322 19.1128264 72.50173897 19.43889439 73.6090126 19.77484322 C76.93285249 20.78388511 80.25625811 21.79434601 83.57955933 22.80516052 C106.1523005 29.66870837 128.75720352 36.42351145 151.36520386 43.16983032 C162.56122042 46.51106342 173.75517487 49.85919632 184.94921875 53.20703125 C186.03955225 53.53310301 187.12988575 53.85917477 188.25325966 54.19512749 C209.98580535 60.69458264 231.71738762 67.19721944 253.44158936 73.72451782 C257.0780119 74.81699176 260.71494577 75.9077368 264.35235596 76.99691772 C268.53931726 78.25072627 272.72523273 79.50796281 276.91031456 80.76803017 C278.42697477 81.22404738 279.94400613 81.67883235 281.46143532 82.13228416 C283.51691213 82.74674995 285.57098504 83.36570003 287.62475586 83.98583984 C289.33906044 84.50058365 289.33906044 84.50058365 291.08799744 85.02572632 C295.9718596 86.65972844 295.9718596 86.65972844 298 88 C298.88825625 90.91459082 299.49644626 93.57673604 300 96.5625 C300.15952148 97.42842773 300.31904297 98.29435547 300.48339844 99.18652344 C301.01394907 102.12058219 301.51124263 105.05869503 302 108 C302.18626953 109.11938965 302.37253906 110.2387793 302.56445312 111.39208984 C303.75093386 118.58839716 304.89285243 125.79108094 306 133 C307.27431885 133.27021973 308.5486377 133.54043945 309.86157227 133.81884766 C317.99888643 135.63022758 325.95611999 138.10308132 333.94067383 140.48535156 C335.94910979 141.08158298 337.95956927 141.67103744 339.97192383 142.25390625 C342.89088968 143.09961231 345.80321235 143.96536219 348.71484375 144.8359375 C349.6168602 145.09337738 350.51887665 145.35081726 351.44822693 145.61605835 C352.27991898 145.86957062 353.11161102 146.12308289 353.96850586 146.38427734 C354.70080917 146.60030609 355.43311249 146.81633484 356.18760681 147.03890991 C358.67548478 148.35820137 358.94565127 149.36470492 360 152 C360.61567184 154.84476951 361.15658201 157.66147509 361.64276123 160.52835083 C361.8717369 161.83281514 361.8717369 161.83281514 362.10533834 163.16363227 C362.61628216 166.08349709 363.11816153 169.00484718 363.62011719 171.92626953 C363.98451237 174.01954468 364.34946553 176.11272275 364.7149353 178.20581055 C365.70844152 183.90505145 366.69413242 189.60561993 367.67850399 195.30644464 C368.71478521 201.29980912 369.75831341 207.29191143 370.80108643 213.28414917 C372.78219613 224.67491653 374.75692742 236.06677994 376.72932553 247.45905864 C379.16842732 261.54523939 381.61534634 275.63006 384.0625 289.71484375 C386.56987816 304.14715929 389.07662982 318.57958054 391.57781982 333.01296997 C392.15300318 336.33141232 392.72822963 339.64984719 393.30349779 342.96827483 C393.6732107 345.10105774 394.04285936 347.23385179 394.41244078 349.3666575 C396.20185995 359.69098959 397.99657763 370.01424875 399.82653809 380.33148193 C399.96744566 381.12641819 400.10835324 381.92135445 400.25353074 382.74037969 C400.89261224 386.34333107 401.53383127 389.94587777 402.17924118 393.54770088 C406.86363107 419.85970828 406.86363107 419.85970828 403.015625 426.34375 C400.79347513 429.02629588 398.27783612 431.28616007 395.63330078 433.54345703 C392.78043484 436.08758233 390.29779524 438.96879781 387.75 441.8125 C384.11547668 445.77213242 380.40766836 449.63523345 376.5703125 453.3984375 C374.82086777 455.18269706 373.19284418 457.04396124 371.5625 458.9375 C369.14382221 461.74576347 366.64100317 464.39970593 364 467 C361.40017817 469.55990134 358.93731602 472.1677954 356.5625 474.9375 C353.99334729 477.92801716 351.30682744 480.73116684 348.5 483.5 C345.71378859 486.2485599 343.04691608 489.02859791 340.5 492 C337.24835372 495.79358733 333.74286906 499.27392647 330.1875 502.78125 C328.20279658 504.79430632 326.33903084 506.85446403 324.5 509 C321.24835372 512.79358733 317.74286906 516.27392647 314.1875 519.78125 C312.20279658 521.79430632 310.33903084 523.85446403 308.5 526 C305.24955349 529.79218759 301.74550431 533.27135531 298.19140625 536.77734375 C295.57898932 539.4270144 293.16697379 542.21172803 290.74609375 545.03515625 C288.27396582 547.81699148 285.61569453 550.39375951 282.96484375 553.00390625 C281.07769256 554.92107177 279.31314625 556.89575322 277.5625 558.9375 C274.99334729 561.92801716 272.30682744 564.73116684 269.5 567.5 C266.71378859 570.2485599 264.04691608 573.02859791 261.5 576 C258.24835372 579.79358733 254.74286906 583.27392647 251.1875 586.78125 C249.20279658 588.79430632 247.33903084 590.85446403 245.5 593 C242.24888432 596.79296829 238.74533996 600.27359258 235.1875 603.77734375 C233.19058612 605.80635089 231.33706542 607.88948975 229.5 610.0625 C228.33779702 611.37895418 227.1709357 612.69130716 226 614 C225.33613281 614.77472656 224.67226563 615.54945313 223.98828125 616.34765625 C218.67001111 621.91417598 218.67001111 621.91417598 214.68258667 622.11909485 C203.87758152 620.02296366 193.40481247 616.7313857 182.8828125 613.54296875 C180.69451838 612.8857363 178.50602699 612.22916037 176.31735229 611.57319641 C170.46571332 609.81749555 164.61678198 608.05293164 158.76831055 606.28671265 C152.6375365 604.43701461 146.50420449 602.59583849 140.37109375 600.75390625 C130.63057764 597.82757355 120.89135498 594.8969818 111.15332031 591.96240234 C99.08762068 588.32645573 87.01914251 584.69988183 74.94784546 581.08256531 C73.59299541 580.67655028 72.23814716 580.27052924 70.88330078 579.86450195 C70.22609983 579.66756461 69.56889889 579.47062727 68.89178276 579.26772213 C64.96732504 578.09125046 61.04394882 576.91124925 57.12143517 575.72831249 C41.79665805 571.10685311 26.4573939 566.53845889 11.09784698 562.03371429 C1.19784162 559.13006288 -8.69826072 556.21334435 -18.59229279 553.28940582 C-25.9795995 551.10753665 -33.37182628 548.94346328 -40.76800156 546.79186249 C-45.3783929 545.4460188 -49.98367202 544.08331251 -54.58771515 542.71592712 C-56.75721018 542.07540391 -58.92881714 541.44198822 -61.10253143 540.81593323 C-64.09469876 539.9530827 -67.07849405 539.06571973 -70.06152344 538.171875 C-70.945065 537.92356682 -71.82860657 537.67525864 -72.73892212 537.41942596 C-78.6182916 535.61742939 -78.6182916 535.61742939 -80.50430298 532.56672668 C-80.667883 531.71970688 -80.83146301 530.87268707 -81 530 C-81.16706451 529.300457 -81.33412903 528.600914 -81.5062561 527.88017273 C-81.62616913 527.18068008 -81.74608215 526.48118744 -81.86962891 525.76049805 C-82.00962311 524.96004562 -82.14961731 524.1595932 -82.29385376 523.33488464 C-82.43664764 522.4857399 -82.57944153 521.63659515 -82.7265625 520.76171875 C-82.87910492 519.88095169 -83.03164734 519.00018463 -83.18881226 518.09272766 C-83.67269247 515.29184329 -84.14894648 512.48972414 -84.625 509.6875 C-84.95262194 507.78311651 -85.28074139 505.87881854 -85.609375 503.97460938 C-86.41201676 499.31737724 -87.20782358 494.65902318 -88 490 C-91.60234057 488.82764901 -95.20715961 487.66309067 -98.8125 486.5 C-99.91859619 486.14123779 -101.02469238 485.78247559 -102.16430664 485.4128418 C-108.28148991 483.44665024 -114.4092938 481.57964254 -120.6015625 479.86328125 C-122.44077271 479.34701172 -122.44077271 479.34701172 -124.31713867 478.8203125 C-126.70323474 478.15608669 -129.09404014 477.50851969 -131.48950195 476.87890625 C-132.57448975 476.5746875 -133.65947754 476.27046875 -134.77734375 475.95703125 C-136.21968384 475.56994995 -136.21968384 475.56994995 -137.69116211 475.17504883 C-140.81380966 473.58582363 -140.92128153 472.30592182 -142 469 C-142.54397385 466.45756363 -143.02959808 463.93999862 -143.46398926 461.3793335 C-143.59748323 460.61898591 -143.7309772 459.85863833 -143.86851645 459.07524991 C-144.31403569 456.52988562 -144.75172045 453.98323744 -145.18945312 451.43652344 C-145.50802259 449.60702945 -145.82707597 447.77761968 -146.14657593 445.94828796 C-147.01563104 440.96435168 -147.87791288 435.9792642 -148.73906136 430.99395657 C-149.65127172 425.72015044 -150.5698091 420.4474465 -151.4876709 415.17462158 C-153.23667779 405.12156209 -154.98016801 395.0675541 -156.72162771 385.01318479 C-159.04432662 371.60452719 -161.37461911 358.19719006 -163.70504761 344.78987408 C-165.76463989 332.94059877 -167.82247261 321.09102694 -169.87402344 309.24035645 C-174.33578679 283.47216363 -174.33578679 283.47216363 -178.91055775 257.72386122 C-179.28196256 255.6586207 -179.65207654 253.59315344 -180.02169037 251.52759171 C-181.08474001 245.58885842 -182.15527334 239.65184884 -183.24768066 233.71844482 C-184.86112978 224.82928935 -186.32328486 215.95162539 -187.04492188 206.94042969 C-187.15375072 205.86620695 -187.15375072 205.86620695 -187.26477814 204.77028275 C-187.60125842 199.07077445 -185.87340428 196.71582358 -182.25 192.625 C-180.60131836 190.97192383 -180.60131836 190.97192383 -179.15234375 189.76953125 C-176.12235694 187.15042134 -173.47635871 184.30883423 -170.8125 181.3125 C-164.32156661 174.19664478 -157.69085121 167.21021917 -151.08056641 160.20556641 C-147.71715246 156.64007924 -144.35877427 153.06985717 -141 149.5 C-139.66669207 148.08330943 -138.3333587 146.66664279 -137 145.25 C-136.34 144.54875 -135.68 143.8475 -135 143.125 C-112.99999999 119.74999999 -112.99999999 119.74999999 -110.99975586 117.62475586 C-109.66721602 116.20892211 -108.33469647 114.79306926 -107.00219727 113.37719727 C-103.65689013 109.82262962 -100.31122451 106.26840069 -96.96484375 102.71484375 C-90.46940261 95.81658455 -83.97840136 88.91426752 -77.5 82 C-70.35038437 74.36935898 -63.18490897 66.75373284 -56.01611328 59.14111328 C-52.67674389 55.59470137 -49.33842243 52.04730331 -46 48.5 C-44.66667174 47.08332855 -43.33333841 45.66666189 -42 44.25 C-41.34 43.54875 -40.68 42.8475 -40 42.125 C-37 38.9375 -37 38.9375 -34 35.75 C-33.33911377 35.04770264 -32.67822754 34.34540527 -31.99731445 33.62182617 C-30.67335992 32.21533689 -29.34898321 30.80924488 -28.02416992 29.40356445 C-24.54364753 25.70944993 -21.0722648 22.00726733 -17.61328125 18.29296875 C-16.53336914 17.13667969 -16.53336914 17.13667969 -15.43164062 15.95703125 C-14.05651447 14.4843155 -12.68395988 13.00919278 -11.31445312 11.53125 C-8.04968169 8.04027413 -4.77572306 4.94912692 -1 2 C-0.67 1.34 -0.34 0.68 0 0 Z " fill="#68EAF1" transform="translate(189,1)"/>
<path d="M0 0 C10.02841731 0.22205194 19.16810099 3.16707894 28.65625 6.09765625 C30.43025319 6.6367372 32.20456481 7.17480404 33.97915649 7.71194458 C37.80585492 8.87230028 41.63050054 10.03911297 45.45367432 11.21102905 C51.61019878 13.0979202 57.7711778 14.96995138 63.93310547 16.83911133 C66.07285057 17.48831019 68.21259051 18.13752606 70.35232544 18.78675842 C71.4270322 19.1128264 72.50173897 19.43889439 73.6090126 19.77484322 C76.93285249 20.78388511 80.25625811 21.79434601 83.57955933 22.80516052 C106.1523005 29.66870837 128.75720352 36.42351145 151.36520386 43.16983032 C162.56122042 46.51106342 173.75517487 49.85919632 184.94921875 53.20703125 C186.03955225 53.53310301 187.12988575 53.85917477 188.25325966 54.19512749 C209.98580535 60.69458264 231.71738762 67.19721944 253.44158936 73.72451782 C257.0780119 74.81699176 260.71494577 75.9077368 264.35235596 76.99691772 C268.53931726 78.25072627 272.72523273 79.50796281 276.91031456 80.76803017 C278.42697477 81.22404738 279.94400613 81.67883235 281.46143532 82.13228416 C283.51691213 82.74674995 285.57098504 83.36570003 287.62475586 83.98583984 C289.33906044 84.50058365 289.33906044 84.50058365 291.08799744 85.02572632 C295.9718596 86.65972844 295.9718596 86.65972844 298 88 C298.88825625 90.91459082 299.49644626 93.57673604 300 96.5625 C300.15952148 97.42842773 300.31904297 98.29435547 300.48339844 99.18652344 C301.01394907 102.12058219 301.51124263 105.05869503 302 108 C302.18626953 109.11938965 302.37253906 110.2387793 302.56445312 111.39208984 C303.75093386 118.58839716 304.89285243 125.79108094 306 133 C307.27431885 133.27021973 308.5486377 133.54043945 309.86157227 133.81884766 C317.99888643 135.63022758 325.95611999 138.10308132 333.94067383 140.48535156 C335.94910979 141.08158298 337.95956927 141.67103744 339.97192383 142.25390625 C342.89088968 143.09961231 345.80321235 143.96536219 348.71484375 144.8359375 C349.6168602 145.09337738 350.51887665 145.35081726 351.44822693 145.61605835 C352.27991898 145.86957062 353.11161102 146.12308289 353.96850586 146.38427734 C354.70080917 146.60030609 355.43311249 146.81633484 356.18760681 147.03890991 C358.67548478 148.35820137 358.94565127 149.36470492 360 152 C360.61567184 154.84476951 361.15658201 157.66147509 361.64276123 160.52835083 C361.8717369 161.83281514 361.8717369 161.83281514 362.10533834 163.16363227 C362.61628216 166.08349709 363.11816153 169.00484718 363.62011719 171.92626953 C363.98451237 174.01954468 364.34946553 176.11272275 364.7149353 178.20581055 C365.70844152 183.90505145 366.69413242 189.60561993 367.67850399 195.30644464 C368.71478521 201.29980912 369.75831341 207.29191143 370.80108643 213.28414917 C372.78219613 224.67491653 374.75692742 236.06677994 376.72932553 247.45905864 C379.16842732 261.54523939 381.61534634 275.63006 384.0625 289.71484375 C386.56987816 304.14715929 389.07662982 318.57958054 391.57781982 333.01296997 C392.15300318 336.33141232 392.72822963 339.64984719 393.30349779 342.96827483 C393.6732107 345.10105774 394.04285936 347.23385179 394.41244078 349.3666575 C396.20185995 359.69098959 397.99657763 370.01424875 399.82653809 380.33148193 C399.96744566 381.12641819 400.10835324 381.92135445 400.25353074 382.74037969 C400.89261224 386.34333107 401.53383127 389.94587777 402.17924118 393.54770088 C406.86363107 419.85970828 406.86363107 419.85970828 403.015625 426.34375 C400.79347513 429.02629588 398.27783612 431.28616007 395.63330078 433.54345703 C392.78043484 436.08758233 390.29779524 438.96879781 387.75 441.8125 C384.11547668 445.77213242 380.40766836 449.63523345 376.5703125 453.3984375 C374.82086777 455.18269706 373.19284418 457.04396124 371.5625 458.9375 C369.14382221 461.74576347 366.64100317 464.39970593 364 467 C361.40017817 469.55990134 358.93731602 472.1677954 356.5625 474.9375 C353.99334729 477.92801716 351.30682744 480.73116684 348.5 483.5 C345.71378859 486.2485599 343.04691608 489.02859791 340.5 492 C337.24835372 495.79358733 333.74286906 499.27392647 330.1875 502.78125 C328.20279658 504.79430632 326.33903084 506.85446403 324.5 509 C321.24835372 512.79358733 317.74286906 516.27392647 314.1875 519.78125 C312.20279658 521.79430632 310.33903084 523.85446403 308.5 526 C305.24955349 529.79218759 301.74550431 533.27135531 298.19140625 536.77734375 C295.57898932 539.4270144 293.16697379 542.21172803 290.74609375 545.03515625 C288.27396582 547.81699148 285.61569453 550.39375951 282.96484375 553.00390625 C281.07769256 554.92107177 279.31314625 556.89575322 277.5625 558.9375 C274.99334729 561.92801716 272.30682744 564.73116684 269.5 567.5 C266.71378859 570.2485599 264.04691608 573.02859791 261.5 576 C258.24835372 579.79358733 254.74286906 583.27392647 251.1875 586.78125 C249.20279658 588.79430632 247.33903084 590.85446403 245.5 593 C242.24888432 596.79296829 238.74533996 600.27359258 235.1875 603.77734375 C233.19058612 605.80635089 231.33706542 607.88948975 229.5 610.0625 C228.33779702 611.37895418 227.1709357 612.69130716 226 614 C225.33613281 614.77472656 224.67226563 615.54945313 223.98828125 616.34765625 C218.67001111 621.91417598 218.67001111 621.91417598 214.68258667 622.11909485 C203.87758152 620.02296366 193.40481247 616.7313857 182.8828125 613.54296875 C180.69451838 612.8857363 178.50602699 612.22916037 176.31735229 611.57319641 C170.46571332 609.81749555 164.61678198 608.05293164 158.76831055 606.28671265 C152.6375365 604.43701461 146.50420449 602.59583849 140.37109375 600.75390625 C130.63057764 597.82757355 120.89135498 594.8969818 111.15332031 591.96240234 C99.08762068 588.32645573 87.01914251 584.69988183 74.94784546 581.08256531 C73.59299541 580.67655028 72.23814716 580.27052924 70.88330078 579.86450195 C70.22609983 579.66756461 69.56889889 579.47062727 68.89178276 579.26772213 C64.96732504 578.09125046 61.04394882 576.91124925 57.12143517 575.72831249 C41.79665805 571.10685311 26.4573939 566.53845889 11.09784698 562.03371429 C1.19784162 559.13006288 -8.69826072 556.21334435 -18.59229279 553.28940582 C-25.9795995 551.10753665 -33.37182628 548.94346328 -40.76800156 546.79186249 C-45.3783929 545.4460188 -49.98367202 544.08331251 -54.58771515 542.71592712 C-56.75721018 542.07540391 -58.92881714 541.44198822 -61.10253143 540.81593323 C-64.09469876 539.9530827 -67.07849405 539.06571973 -70.06152344 538.171875 C-70.945065 537.92356682 -71.82860657 537.67525864 -72.73892212 537.41942596 C-78.6182916 535.61742939 -78.6182916 535.61742939 -80.50430298 532.56672668 C-80.667883 531.71970688 -80.83146301 530.87268707 -81 530 C-81.16706451 529.300457 -81.33412903 528.600914 -81.5062561 527.88017273 C-81.62616913 527.18068008 -81.74608215 526.48118744 -81.86962891 525.76049805 C-82.00962311 524.96004562 -82.14961731 524.1595932 -82.29385376 523.33488464 C-82.43664764 522.4857399 -82.57944153 521.63659515 -82.7265625 520.76171875 C-82.87910492 519.88095169 -83.03164734 519.00018463 -83.18881226 518.09272766 C-83.67269247 515.29184329 -84.14894648 512.48972414 -84.625 509.6875 C-84.95262194 507.78311651 -85.28074139 505.87881854 -85.609375 503.97460938 C-86.41201676 499.31737724 -87.20782358 494.65902318 -88 490 C-91.60234057 488.82764901 -95.20715961 487.66309067 -98.8125 486.5 C-99.91859619 486.14123779 -101.02469238 485.78247559 -102.16430664 485.4128418 C-108.28148991 483.44665024 -114.4092938 481.57964254 -120.6015625 479.86328125 C-122.44077271 479.34701172 -122.44077271 479.34701172 -124.31713867 478.8203125 C-126.70323474 478.15608669 -129.09404014 477.50851969 -131.48950195 476.87890625 C-132.57448975 476.5746875 -133.65947754 476.27046875 -134.77734375 475.95703125 C-136.21968384 475.56994995 -136.21968384 475.56994995 -137.69116211 475.17504883 C-140.81380966 473.58582363 -140.92128153 472.30592182 -142 469 C-142.54397385 466.45756363 -143.02959808 463.93999862 -143.46398926 461.3793335 C-143.59748323 460.61898591 -143.7309772 459.85863833 -143.86851645 459.07524991 C-144.31403569 456.52988562 -144.75172045 453.98323744 -145.18945312 451.43652344 C-145.50802259 449.60702945 -145.82707597 447.77761968 -146.14657593 445.94828796 C-147.01563104 440.96435168 -147.87791288 435.9792642 -148.73906136 430.99395657 C-149.65127172 425.72015044 -150.5698091 420.4474465 -151.4876709 415.17462158 C-153.23667779 405.12156209 -154.98016801 395.0675541 -156.72162771 385.01318479 C-159.04432662 371.60452719 -161.37461911 358.19719006 -163.70504761 344.78987408 C-165.76463989 332.94059877 -167.82247261 321.09102694 -169.87402344 309.24035645 C-174.33578679 283.47216363 -174.33578679 283.47216363 -178.91055775 257.72386122 C-179.28196256 255.6586207 -179.65207654 253.59315344 -180.02169037 251.52759171 C-181.08474001 245.58885842 -182.15527334 239.65184884 -183.24768066 233.71844482 C-184.86112978 224.82928935 -186.32328486 215.95162539 -187.04492188 206.94042969 C-187.15375072 205.86620695 -187.15375072 205.86620695 -187.26477814 204.77028275 C-187.60125842 199.07077445 -185.87340428 196.71582358 -182.25 192.625 C-180.60131836 190.97192383 -180.60131836 190.97192383 -179.15234375 189.76953125 C-176.12235694 187.15042134 -173.47635871 184.30883423 -170.8125 181.3125 C-164.32156661 174.19664478 -157.69085121 167.21021917 -151.08056641 160.20556641 C-147.71715246 156.64007924 -144.35877427 153.06985717 -141 149.5 C-139.66669207 148.08330943 -138.3333587 146.66664279 -137 145.25 C-136.34 144.54875 -135.68 143.8475 -135 143.125 C-112.99999999 119.74999999 -112.99999999 119.74999999 -110.99975586 117.62475586 C-109.66721602 116.20892211 -108.33469647 114.79306926 -107.00219727 113.37719727 C-103.65689013 109.82262962 -100.31122451 106.26840069 -96.96484375 102.71484375 C-90.46940261 95.81658455 -83.97840136 88.91426752 -77.5 82 C-70.35038437 74.36935898 -63.18490897 66.75373284 -56.01611328 59.14111328 C-52.67674389 55.59470137 -49.33842243 52.04730331 -46 48.5 C-44.66667174 47.08332855 -43.33333841 45.66666189 -42 44.25 C-41.34 43.54875 -40.68 42.8475 -40 42.125 C-37 38.9375 -37 38.9375 -34 35.75 C-33.33911377 35.04770264 -32.67822754 34.34540527 -31.99731445 33.62182617 C-30.67335992 32.21533689 -29.34898321 30.80924488 -28.02416992 29.40356445 C-24.54364753 25.70944993 -21.0722648 22.00726733 -17.61328125 18.29296875 C-16.53336914 17.13667969 -16.53336914 17.13667969 -15.43164062 15.95703125 C-14.05651447 14.4843155 -12.68395988 13.00919278 -11.31445312 11.53125 C-8.04968169 8.04027413 -4.77572306 4.94912692 -1 2 C-0.67 1.34 -0.34 0.68 0 0 Z M59.328125 64.59765625 C58.29430898 65.74565043 57.26868753 66.90106041 56.25 68.0625 C55.16908758 69.26663028 54.08706413 70.46976419 53.00390625 71.671875 C52.4845752 72.25130859 51.96524414 72.83074219 51.43017578 73.42773438 C49.74074105 75.28501667 47.98505829 77.05998303 46.1875 78.8125 C43.87825144 81.07723293 41.73283834 83.42145697 39.625 85.875 C37.03365795 88.8846753 34.32745217 91.71088616 31.5 94.5 C28.0711721 97.88241399 24.87951482 101.38070442 21.74609375 105.03515625 C19.27396582 107.81699148 16.61569453 110.39375951 13.96484375 113.00390625 C12.07769256 114.92107177 10.31314625 116.89575322 8.5625 118.9375 C5.99334729 121.92801716 3.30682744 124.73116684 0.5 127.5 C-2.28621141 130.2485599 -4.95308392 133.02859791 -7.5 136 C-10.75164628 139.79358733 -14.25713094 143.27392647 -17.8125 146.78125 C-19.79720342 148.79430632 -21.66096916 150.85446403 -23.5 153 C-26.75164628 156.79358733 -30.25713094 160.27392647 -33.8125 163.78125 C-35.79720342 165.79430632 -37.66096916 167.85446403 -39.5 170 C-42.75044651 173.79218759 -46.25449569 177.27135531 -49.80859375 180.77734375 C-52.42101068 183.4270144 -54.83302621 186.21172803 -57.25390625 189.03515625 C-59.72603418 191.81699148 -62.38430547 194.39375951 -65.03515625 197.00390625 C-66.92230744 198.92107177 -68.68685375 200.89575322 -70.4375 202.9375 C-73.00665271 205.92801716 -75.69317256 208.73116684 -78.5 211.5 C-81.28621141 214.2485599 -83.95308392 217.02859791 -86.5 220 C-89.75164628 223.79358733 -93.25713094 227.27392647 -96.8125 230.78125 C-98.79720342 232.79430632 -100.66096916 234.85446403 -102.5 237 C-105.74564737 240.7865886 -109.24395347 244.26107165 -112.79296875 247.76171875 C-115.45631958 250.46278074 -117.94018915 253.28511166 -120.39453125 256.17578125 C-122 258 -122 258 -124.12195492 259.7954731 C-126.23046777 261.82393706 -126.23046777 261.82393706 -126.14946079 264.40473747 C-125.98602145 265.29306833 -125.82258211 266.18139919 -125.65419006 267.09664917 C-125.48123885 268.09955553 -125.30828764 269.10246189 -125.13009548 270.13575935 C-124.92095548 271.21099295 -124.71181547 272.28622654 -124.49633789 273.39404297 C-124.29690362 274.5148419 -124.09746935 275.63564083 -123.89199162 276.79040337 C-123.28154134 280.19765537 -122.64206926 283.59858611 -122 287 C-121.67050508 288.82623138 -121.3433185 290.65288154 -121.01901245 292.4800415 C-120.39278828 295.99237599 -119.75521945 299.50233339 -119.10719299 303.01071167 C-115.16684347 324.3444751 -111.52253912 345.71829562 -108.00808036 367.12535024 C-107.05716334 372.9133758 -106.09728086 378.6998595 -105.13143921 384.4854126 C-104.99376526 385.31016138 -104.85609132 386.13491016 -104.71424544 386.98465133 C-104.01378209 391.17884192 -103.31220451 395.3728447 -102.60996437 399.56673813 C-101.17259905 408.16011054 -99.75339725 416.75592989 -98.3684082 425.35791016 C-97.13595224 433.01186156 -95.87184718 440.65980305 -94.56970876 448.30221951 C-93.88859625 452.30674972 -93.22343635 456.3124277 -92.59730721 460.32595444 C-92.01467325 464.05862316 -91.39030407 467.78182133 -90.73287392 471.50202179 C-90.50023578 472.8619814 -90.28303903 474.22468865 -90.08269119 475.5897789 C-89.1960806 482.98124946 -89.1960806 482.98124946 -84.88616657 488.61071777 C-82.27162776 489.6990674 -79.76200054 490.38458252 -77 491 C-75.48182414 491.4832993 -73.96675959 491.97650648 -72.45533752 492.48052979 C-70.88512804 492.95299515 -69.3134311 493.42053805 -67.74047852 493.88378906 C-66.86508706 494.14573468 -65.98969561 494.4076803 -65.08777714 494.67756367 C-62.18611132 495.5446471 -59.28252892 496.40511946 -56.37890625 497.265625 C-54.28555046 497.88979533 -52.19232259 498.5143948 -50.09921265 499.13938904 C-44.43540624 500.8293732 -38.76994353 502.51374057 -33.10416794 504.19710922 C-27.15708376 505.96509826 -21.21151821 507.73817828 -15.26586914 509.51098633 C-7.82892945 511.72816905 -0.39186313 513.94492209 7.04585266 516.15950012 C24.78814376 521.44265205 42.52456468 526.7451658 60.2578125 532.05859375 C62.71473957 532.79457067 65.17167413 533.53052259 67.62861633 534.26644897 C86.93737697 540.05018273 86.93737697 540.05018273 96.01290894 542.7713623 C101.51577324 544.42122531 107.01916593 546.06931475 112.52293015 547.71617317 C114.52826397 548.31655224 116.53341267 548.91755007 118.53834915 549.51925468 C130.65487103 553.15525882 142.7966201 556.6665013 155 560 C165.52173952 549.71372698 165.52173952 549.71372698 175.3984375 538.8203125 C178.05188877 535.80443862 180.95399875 533.03862286 183.8125 530.21875 C185.79720342 528.20569368 187.66096916 526.14553597 189.5 524 C192.75044651 520.20781241 196.25449569 516.72864469 199.80859375 513.22265625 C202.42101068 510.5729856 204.83302621 507.78827197 207.25390625 504.96484375 C209.72603418 502.18300852 212.38430547 499.60624049 215.03515625 496.99609375 C216.92230744 495.07892823 218.68685375 493.10424678 220.4375 491.0625 C223.00665271 488.07198284 225.69317256 485.26883316 228.5 482.5 C231.28621141 479.7514401 233.95308392 476.97140209 236.5 474 C239.75164628 470.20641267 243.25713094 466.72607353 246.8125 463.21875 C248.79720342 461.20569368 250.66096916 459.14553597 252.5 457 C255.75164628 453.20641267 259.25713094 449.72607353 262.8125 446.21875 C264.79720342 444.20569368 266.66096916 442.14553597 268.5 440 C271.75044651 436.20781241 275.25449569 432.72864469 278.80859375 429.22265625 C281.42101068 426.5729856 283.83302621 423.78827197 286.25390625 420.96484375 C288.72603418 418.18300852 291.38430547 415.60624049 294.03515625 412.99609375 C295.92230744 411.07892823 297.68685375 409.10424678 299.4375 407.0625 C302.00665271 404.07198284 304.69317256 401.26883316 307.5 398.5 C310.28621141 395.7514401 312.95308392 392.97140209 315.5 390 C318.75044651 386.20781241 322.25449569 382.72864469 325.80859375 379.22265625 C328.42043663 376.57356784 330.83916792 373.80379654 333.22265625 370.94921875 C335 369 335 369 337.24609375 367.14453125 C341.51541799 363.66694324 341.51541799 363.66694324 343.24210262 358.67142868 C342.07184381 348.6386665 340.35941365 338.70866766 338.61352539 328.76269531 C338.26150399 326.73459946 337.90993869 324.70642439 337.55879211 322.67817688 C336.60903418 317.20040332 335.65272026 311.72379328 334.69502187 306.24740314 C333.69154413 300.50356821 332.69361639 294.75876886 331.69493103 289.01409912 C330.01809698 279.37351177 328.33714677 269.73364931 326.65356445 260.09423828 C324.70879796 248.95920122 322.76981362 237.82316958 320.8340798 226.68655896 C318.96868116 215.95502115 317.09991444 205.22407278 315.22936821 194.49343109 C314.4345917 189.9339934 313.64085997 185.37437566 312.84794807 180.81461334 C311.91418458 175.44607097 310.97742723 170.07805922 310.03837395 164.71043968 C309.69471819 162.74342279 309.35205444 160.77623228 309.01046753 158.80885506 C308.54320556 156.11868627 308.07229873 153.42917976 307.60047913 150.73980713 C307.46691279 149.965869 307.33334645 149.19193087 307.19573265 148.39454007 C306.81868364 146.25819955 306.41754724 144.12877232 306 142 C305.78891031 140.88453621 305.78891031 140.88453621 305.57355618 139.7465378 C305.08923068 137.31474269 305.08923068 137.31474269 304 134 C301.20921434 132.45184235 299.28464984 131.69138064 296.27197266 130.92138672 C295.47338144 130.6871443 294.67479023 130.45290188 293.85199928 130.2115612 C292.12966686 129.70851295 290.40314466 129.21963582 288.67316437 128.74355316 C286.03278727 128.00911993 283.41383456 127.22394813 280.7946167 126.4175415 C275.08978162 124.66167846 269.36979458 122.95893137 263.6484375 121.2578125 C261.49272406 120.61448137 259.33709161 119.97087879 257.18153381 119.32702637 C252.61384576 117.96323807 248.04565102 116.60116647 243.47702026 115.24053955 C236.2977434 113.10239602 229.1195792 110.96053523 221.94165039 108.81787109 C219.51503071 108.09353369 217.08841022 107.36919898 214.66178894 106.64486694 C213.45934225 106.28593731 212.25689556 105.92700768 211.01801109 105.55720139 C207.36746508 104.46766699 203.71680456 103.37851701 200.06611633 102.28945923 C185.1561309 97.84111756 170.24963059 93.3813551 155.34765625 88.90625 C154.43961243 88.63359188 153.5315686 88.36093376 152.5960083 88.08001328 C144.94657572 85.78299538 137.29741148 83.48508559 129.64886475 81.18511963 C120.17277011 78.33575996 110.69512023 75.49170373 101.21346283 72.66090393 C99.69112511 72.2063587 98.16885621 71.75158296 96.64664459 71.2966156 C91.85304536 69.86414308 87.05808861 68.43637053 82.2611866 67.01499557 C80.748803 66.56623758 79.23682508 66.11610985 77.72527885 65.66453934 C75.64619004 65.04378748 73.56563882 64.42820734 71.48461914 63.81396484 C70.30146622 63.46264496 69.11831329 63.11132507 67.89930725 62.74935913 C63.10537563 61.4937241 63.10537563 61.4937241 59.328125 64.59765625 Z " fill="#09AAB9" transform="translate(189,1)"/>
<path d="M0 0 C4.95 0 9.9 0 15 0 C15 7.59 15 15.18 15 23 C18.1865625 23.12375 18.1865625 23.12375 21.4375 23.25 C50.03311822 24.89962519 77.0989605 38.51426253 97.78125 57.95703125 C99.99002644 60.04991548 99.99002644 60.04991548 102.50390625 61.93359375 C107.01471325 65.6678925 110.38866217 70.4183561 114 75 C114.53882813 75.66128906 115.07765625 76.32257813 115.6328125 77.00390625 C131.44459498 97.0062431 142 124.4915473 142 150 C149.59 150 157.18 150 165 150 C165 154.95 165 159.9 165 165 C157.41 165 149.82 165 142 165 C141.9175 167.124375 141.835 169.24875 141.75 171.4375 C140.56907194 191.90843377 132.84760666 210.27859892 123 228 C122.34 228 121.68 228 121 228 C120.93425781 229.00160156 120.93425781 229.00160156 120.8671875 230.0234375 C119.60546224 234.3542242 116.9954801 237.20487943 114.125 240.625 C113.24207275 241.68787231 113.24207275 241.68787231 112.34130859 242.7722168 C90.40933973 268.86634916 59.31491229 288.07065596 24.828125 291.4609375 C21.55617746 291.704034 18.27806133 291.86197637 15 292 C15 299.59 15 307.18 15 315 C10.05 315 5.1 315 0 315 C0 307.41 0 299.82 0 292 C-2.124375 291.9175 -4.24875 291.835 -6.4375 291.75 C-40.87836587 289.73281465 -70.87037371 271.19995755 -94.125 246.75 C-113.4061394 224.88161506 -127 194.45489147 -127 165 C-134.59 165 -142.18 165 -150 165 C-150 160.05 -150 155.1 -150 150 C-142.41 150 -134.82 150 -127 150 C-126.87625 146.8134375 -126.87625 146.8134375 -126.75 143.5625 C-125.26298236 117.78562122 -113.94444578 95.51034737 -99 75 C-98.46246094 74.22527344 -97.92492187 73.45054687 -97.37109375 72.65234375 C-77.8938214 45.75515812 -44.30424637 29.27125167 -12.26611328 23.86230469 C-8.03030022 23.19472927 -4.37654289 23 0 23 C0 15.41 0 7.82 0 0 Z " fill="#E77234" transform="translate(290,153)"/>
<path d="M0 0 C10.02841731 0.22205194 19.16810099 3.16707894 28.65625 6.09765625 C30.43025319 6.6367372 32.20456481 7.17480404 33.97915649 7.71194458 C37.80585492 8.87230028 41.63050054 10.03911297 45.45367432 11.21102905 C51.61019878 13.0979202 57.7711778 14.96995138 63.93310547 16.83911133 C66.07285057 17.48831019 68.21259051 18.13752606 70.35232544 18.78675842 C71.4270322 19.1128264 72.50173897 19.43889439 73.6090126 19.77484322 C76.93285249 20.78388511 80.25625811 21.79434601 83.57955933 22.80516052 C106.1523005 29.66870837 128.75720352 36.42351145 151.36520386 43.16983032 C162.56122042 46.51106342 173.75517487 49.85919632 184.94921875 53.20703125 C186.03955225 53.53310301 187.12988575 53.85917477 188.25325966 54.19512749 C209.98580535 60.69458264 231.71738762 67.19721944 253.44158936 73.72451782 C257.0780119 74.81699176 260.71494577 75.9077368 264.35235596 76.99691772 C268.53931726 78.25072627 272.72523273 79.50796281 276.91031456 80.76803017 C278.42697477 81.22404738 279.94400613 81.67883235 281.46143532 82.13228416 C283.51691213 82.74674995 285.57098504 83.36570003 287.62475586 83.98583984 C289.33906044 84.50058365 289.33906044 84.50058365 291.08799744 85.02572632 C295.9718596 86.65972844 295.9718596 86.65972844 298 88 C298.88825625 90.91459082 299.49644626 93.57673604 300 96.5625 C300.15952148 97.42842773 300.31904297 98.29435547 300.48339844 99.18652344 C301.01394907 102.12058219 301.51124263 105.05869503 302 108 C302.18626953 109.11938965 302.37253906 110.2387793 302.56445312 111.39208984 C303.75093386 118.58839716 304.89285243 125.79108094 306 133 C306.90383423 133.19698486 306.90383423 133.19698486 307.82592773 133.39794922 C308.62458252 133.57342285 309.4232373 133.74889648 310.24609375 133.9296875 C311.0342749 134.10226074 311.82245605 134.27483398 312.63452148 134.45263672 C315.79623585 135.18424613 318.89021027 136.07367966 322 137 C321.67 137.66 321.34 138.32 321 139 C309.10466235 136.21335312 297.45634364 132.79120521 285.79117393 129.16835403 C280.37636782 127.48742503 274.95675468 125.82211142 269.53759766 124.15527344 C268.41639747 123.81010744 267.29519728 123.46494144 266.14002132 123.10931587 C254.36399507 119.48824691 242.56551808 115.94337176 230.76171875 112.4140625 C229.71050528 112.09960363 228.6592918 111.78514477 227.57622337 111.46115685 C219.94752107 109.17951391 212.31765507 106.90177917 204.6875 104.625 C202.38751932 103.93857835 200.08754174 103.25214634 197.78756714 102.56570435 C195.45009431 101.86810062 193.11262075 101.17049931 190.77514648 100.47290039 C189.6127863 100.12599938 188.45042612 99.77909838 187.2528429 99.42168522 C181.38235959 97.66970098 175.51179123 95.91800285 169.6410675 94.16682434 C156.31133481 90.1896313 142.98685617 86.19545966 129.66783142 82.18255615 C122.74422836 80.09661522 115.81867936 78.01717478 108.89252567 75.93972015 C104.28916184 74.55851251 99.68695529 73.17368098 95.08724976 71.78033447 C90.8422489 70.49445209 86.59461656 69.21769372 82.34469986 67.94815636 C80.80305318 67.48577792 79.26244733 67.01991263 77.72298813 66.55030251 C75.64032124 65.91545195 73.55434247 65.29299518 71.46704102 64.67358398 C70.3064064 64.32375961 69.14577179 63.97393524 67.94996643 63.61351013 C65.07496397 63.0155904 63.6711621 62.87029175 61 64 C58.83060256 66.02535616 58.83060256 66.02535616 56.75 68.5625 C53.8835991 71.86590956 51.00108834 75.06581238 47.875 78.125 C45.31671251 80.64292003 42.89980342 83.21333257 40.5625 85.9375 C37.28869347 89.74824063 33.76636029 93.25078165 30.19140625 96.77734375 C27.57898932 99.4270144 25.16697379 102.21172803 22.74609375 105.03515625 C20.27396582 107.81699148 17.61569453 110.39375951 14.96484375 113.00390625 C13.07769256 114.92107177 11.31314625 116.89575322 9.5625 118.9375 C6.99334729 121.92801716 4.30682744 124.73116684 1.5 127.5 C-1.28621141 130.2485599 -3.95308392 133.02859791 -6.5 136 C-9.75164628 139.79358733 -13.25713094 143.27392647 -16.8125 146.78125 C-18.79720342 148.79430632 -20.66096916 150.85446403 -22.5 153 C-25.75164628 156.79358733 -29.25713094 160.27392647 -32.8125 163.78125 C-34.79720342 165.79430632 -36.66096916 167.85446403 -38.5 170 C-41.75044651 173.79218759 -45.25449569 177.27135531 -48.80859375 180.77734375 C-51.42101068 183.4270144 -53.83302621 186.21172803 -56.25390625 189.03515625 C-58.72603418 191.81699148 -61.38430547 194.39375951 -64.03515625 197.00390625 C-65.92230744 198.92107177 -67.68685375 200.89575322 -69.4375 202.9375 C-72.00665271 205.92801716 -74.69317256 208.73116684 -77.5 211.5 C-80.28621141 214.2485599 -82.95308392 217.02859791 -85.5 220 C-88.75164628 223.79358733 -92.25713094 227.27392647 -95.8125 230.78125 C-97.79720342 232.79430632 -99.66096916 234.85446403 -101.5 237 C-104.74564737 240.7865886 -108.24395347 244.26107165 -111.79296875 247.76171875 C-114.45631958 250.46278074 -116.94018915 253.28511166 -119.39453125 256.17578125 C-121 258 -121 258 -123.122015 259.79556751 C-125.23047225 261.8238595 -125.23047225 261.8238595 -125.14902687 264.4040556 C-124.98541349 265.29211297 -124.82180012 266.18017035 -124.65322876 267.09513855 C-124.48013876 268.09782681 -124.30704876 269.10051508 -124.12871361 270.13358784 C-123.91946566 271.2086518 -123.7102177 272.28371576 -123.49462891 273.39135742 C-123.29510431 274.51201442 -123.09557972 275.63267141 -122.89000893 276.78728771 C-122.27947894 280.19540869 -121.64040053 283.59738609 -121 287 C-120.67243131 288.82985233 -120.34756377 290.66019136 -120.02606201 292.49111938 C-119.24175612 296.94165794 -118.43341871 301.38743255 -117.6181221 305.83238792 C-113.45093311 328.58653497 -109.47991792 351.37381779 -105.5390625 374.16796875 C-105.25571425 375.80618586 -104.97235598 377.44440124 -104.68898773 379.0826149 C-102.36760384 392.50460162 -100.05056147 405.92733744 -97.73400879 419.35015869 C-96.12789093 428.65611803 -94.52080578 437.96190845 -92.9110893 447.26724607 C-92.09314114 451.99620442 -91.27701827 456.72547261 -90.46241307 461.45500791 C-89.95656688 464.38950125 -89.44905621 467.32370504 -88.94112015 470.2578373 C-88.6005043 472.22830178 -88.26184321 474.19910387 -87.92327881 476.16992188 C-87.06012307 481.14804967 -86.19130001 486.12029048 -85.17243576 491.06914711 C-85.03370777 491.7438704 -84.89497977 492.4185937 -84.7520479 493.11376315 C-84.36183066 494.99246682 -83.96385574 496.86955435 -83.56538963 498.74652576 C-83.07116695 501.59047741 -82.88377142 504.12527133 -83 507 C-83.66 507 -84.32 507 -85 507 C-85.99 501.39 -86.98 495.78 -88 490 C-91.60285177 488.82915102 -95.20714331 487.66309593 -98.8125 486.5 C-99.91859619 486.14123779 -101.02469238 485.78247559 -102.16430664 485.4128418 C-108.28148991 483.44665024 -114.4092938 481.57964254 -120.6015625 479.86328125 C-122.44077271 479.34701172 -122.44077271 479.34701172 -124.31713867 478.8203125 C-126.70323474 478.15608669 -129.09404014 477.50851969 -131.48950195 476.87890625 C-132.57448975 476.5746875 -133.65947754 476.27046875 -134.77734375 475.95703125 C-136.21968384 475.56994995 -136.21968384 475.56994995 -137.69116211 475.17504883 C-140.81380966 473.58582363 -140.92128153 472.30592182 -142 469 C-142.54397385 466.45756363 -143.02959808 463.93999862 -143.46398926 461.3793335 C-143.59748323 460.61898591 -143.7309772 459.85863833 -143.86851645 459.07524991 C-144.31403569 456.52988562 -144.75172045 453.98323744 -145.18945312 451.43652344 C-145.50802259 449.60702945 -145.82707597 447.77761968 -146.14657593 445.94828796 C-147.01563104 440.96435168 -147.87791288 435.9792642 -148.73906136 430.99395657 C-149.65127172 425.72015044 -150.5698091 420.4474465 -151.4876709 415.17462158 C-153.23667779 405.12156209 -154.98016801 395.0675541 -156.72162771 385.01318479 C-159.04432662 371.60452719 -161.37461911 358.19719006 -163.70504761 344.78987408 C-165.76463989 332.94059877 -167.82247261 321.09102694 -169.87402344 309.24035645 C-174.33578679 283.47216363 -174.33578679 283.47216363 -178.91055775 257.72386122 C-179.28196256 255.6586207 -179.65207654 253.59315344 -180.02169037 251.52759171 C-181.08474001 245.58885842 -182.15527334 239.65184884 -183.24768066 233.71844482 C-184.86112978 224.82928935 -186.32328486 215.95162539 -187.04492188 206.94042969 C-187.15375072 205.86620695 -187.15375072 205.86620695 -187.26477814 204.77028275 C-187.60125842 199.07077445 -185.87340428 196.71582358 -182.25 192.625 C-180.60131836 190.97192383 -180.60131836 190.97192383 -179.15234375 189.76953125 C-176.12235694 187.15042134 -173.47635871 184.30883423 -170.8125 181.3125 C-164.32156661 174.19664478 -157.69085121 167.21021917 -151.08056641 160.20556641 C-147.71715246 156.64007924 -144.35877427 153.06985717 -141 149.5 C-139.66669207 148.08330943 -138.3333587 146.66664279 -137 145.25 C-136.34 144.54875 -135.68 143.8475 -135 143.125 C-112.99999999 119.74999999 -112.99999999 119.74999999 -110.99975586 117.62475586 C-109.66721602 116.20892211 -108.33469647 114.79306926 -107.00219727 113.37719727 C-103.65689013 109.82262962 -100.31122451 106.26840069 -96.96484375 102.71484375 C-90.46940261 95.81658455 -83.97840136 88.91426752 -77.5 82 C-70.35038437 74.36935898 -63.18490897 66.75373284 -56.01611328 59.14111328 C-52.67674389 55.59470137 -49.33842243 52.04730331 -46 48.5 C-44.66667174 47.08332855 -43.33333841 45.66666189 -42 44.25 C-41.34 43.54875 -40.68 42.8475 -40 42.125 C-37 38.9375 -37 38.9375 -34 35.75 C-33.33911377 35.04770264 -32.67822754 34.34540527 -31.99731445 33.62182617 C-30.67335992 32.21533689 -29.34898321 30.80924488 -28.02416992 29.40356445 C-24.54364753 25.70944993 -21.0722648 22.00726733 -17.61328125 18.29296875 C-16.53336914 17.13667969 -16.53336914 17.13667969 -15.43164062 15.95703125 C-14.05651447 14.4843155 -12.68395988 13.00919278 -11.31445312 11.53125 C-8.04968169 8.04027413 -4.77572306 4.94912692 -1 2 C-0.67 1.34 -0.34 0.68 0 0 Z " fill="#49B9C9" transform="translate(189,1)"/>
<path d="M0 0 C0 10.23 0 20.46 0 31 C4.95 31 9.9 31 15 31 C15 20.77 15 10.54 15 0 C36.75754616 2.71969327 54.52218442 12.38832728 69 29 C77.66439446 40.62946388 85 55.2086476 85 70 C74.77 70 64.54 70 54 70 C54 74.95 54 79.9 54 85 C64.23 85 74.46 85 85 85 C82.28306594 106.73547248 72.62346914 124.55533507 56 139 C52.45998365 141.57974799 48.80228077 143.82959939 45 146 C44.23300781 146.46277344 43.46601563 146.92554688 42.67578125 147.40234375 C34.74363394 151.83303385 24.12823146 155 15 155 C15 144.77 15 134.54 15 124 C10.05 124 5.1 124 0 124 C0 134.23 0 144.46 0 155 C-17.12811458 152.85898568 -32.18014349 146.78888903 -45 135 C-45.77859375 134.30132812 -46.5571875 133.60265625 -47.359375 132.8828125 C-53.03221769 127.53358835 -57.14450236 121.75436805 -61 115 C-61.46277344 114.23300781 -61.92554688 113.46601563 -62.40234375 112.67578125 C-66.83303385 104.74363394 -70 94.12823146 -70 85 C-59.77 85 -49.54 85 -39 85 C-39 80.05 -39 75.1 -39 70 C-49.23 70 -59.46 70 -70 70 C-67.85898568 52.87188542 -61.78888903 37.81985651 -50 25 C-49.30132812 24.22140625 -48.60265625 23.4428125 -47.8828125 22.640625 C-35.99139858 10.02980169 -17.66442924 0 0 0 Z " fill="#69E9F0" transform="translate(290,233)"/>
<path d="M0 0 C0 0.66 0 1.32 0 2 C0.721875 2.226875 1.44375 2.45375 2.1875 2.6875 C5.59474093 4.27754577 7.48059012 6.22218911 10 9 C10.70125 9.763125 11.4025 10.52625 12.125 11.3125 C17.51919203 19.04417524 17.82321135 26.78430932 17 36 C15.98046875 39.4296875 15.98046875 39.4296875 15 42 C14.34 42 13.68 42 13 42 C12.979375 42.680625 12.95875 43.36125 12.9375 44.0625 C11.18302603 49.55985177 7.23529331 52.68064788 2.359375 55.55859375 C-6.00618237 59.50651053 -14.56162335 60.64096556 -23.60546875 58.3359375 C-32.48898658 54.81922648 -38.162698 48.80753385 -42.08984375 40.234375 C-43.80672476 36.01954264 -44.16329208 32.73374673 -44.1875 28.1875 C-44.20167969 26.98480469 -44.21585937 25.78210938 -44.23046875 24.54296875 C-44.00124672 21.01916575 -43.27030979 18.27870472 -42 15 C-41.34 15 -40.68 15 -40 15 C-39.76539063 14.09636719 -39.53078125 13.19273437 -39.2890625 12.26171875 C-36.81903956 6.01181222 -30.27231838 1.75045277 -24.25 -1 C-16.49551246 -3.45295014 -7.50307976 -2.86211705 0 0 Z " fill="#E67335" transform="translate(311,282)"/>
<path d="M0 0 C0 6.27 0 12.54 0 19 C-2.475 19.37125 -4.95 19.7425 -7.5 20.125 C-27.6690692 23.52717629 -44.66554883 32.50242563 -59 47 C-59.81339844 47.80308594 -60.62679687 48.60617188 -61.46484375 49.43359375 C-75.7000339 64.2527917 -82.76623848 83.89614631 -85 104 C-91.27 104 -97.54 104 -104 104 C-102.3489345 74.69358741 -88.80062884 48.54990456 -67.703125 28.38671875 C-49.65013643 12.44686902 -24.5429825 0 0 0 Z " fill="#69E9EF" transform="translate(290,199)"/>
<path d="M0 0 C6.27 0 12.54 0 19 0 C19.37125 2.475 19.7425 4.95 20.125 7.5 C23.13792202 25.36145914 30.54204791 42.0800624 43.3125 55.109375 C45 57 45 57 45 59 C45.88558594 59.39832031 45.88558594 59.39832031 46.7890625 59.8046875 C49.05716052 61.03090304 50.53352098 62.33351588 52.375 64.125 C66.56027632 76.78100861 85.46094022 82.94010447 104 85 C104 91.27 104 97.54 104 104 C74.69358741 102.3489345 48.54990456 88.80062884 28.38671875 67.703125 C12.36174483 49.55372737 0 24.64443245 0 0 Z " fill="#69E9EF" transform="translate(186,318)"/>
<path d="M0 0 C29.02629336 1.26201275 55.76902918 15.5330836 75.61328125 36.296875 C92.22920599 55.11556554 102.60455871 78.88205672 104 104 C97.73 104 91.46 104 85 104 C84.62875 101.525 84.2575 99.05 83.875 96.5 C80.68417348 77.5838724 72.55720448 60.68857274 59 47 C57.7934375 45.700625 57.7934375 45.700625 56.5625 44.375 C50.00355151 38.29597457 43.32559943 33.39241328 35.4375 29.1875 C34.74172852 28.81463867 34.04595703 28.44177734 33.32910156 28.05761719 C22.65980969 22.54039781 11.87378275 20.31930919 0 19 C0 12.73 0 6.46 0 0 Z " fill="#69E9EF" transform="translate(305,199)"/>
<path d="M0 0 C6.27 0 12.54 0 19 0 C17.73798725 29.02629336 3.4669164 55.76902918 -17.296875 75.61328125 C-35.4372632 91.63030031 -60.32137763 104 -85 104 C-85 97.73 -85 91.46 -85 85 C-82.525 84.62875 -80.05 84.2575 -77.5 83.875 C-58.5838724 80.68417348 -41.68857274 72.55720448 -28 59 C-27.13375 58.195625 -26.2675 57.39125 -25.375 56.5625 C-19.29597457 50.00355151 -14.39241328 43.32559943 -10.1875 35.4375 C-9.81463867 34.74172852 -9.44177734 34.04595703 -9.05761719 33.32910156 C-3.54039781 22.65980969 -1.31930919 11.87378275 0 0 Z " fill="#69E9EF" transform="translate(390,318)"/>
<path d="M0 0 C5.27892619 2.74806354 9.15434181 6.23231817 11 12 C11.77013492 17.30537387 11.43282488 19.92956943 8.3125 24.3125 C5.25012816 27.93749364 2.7826783 30.48092347 -2.03125 31.37890625 C-6.67765702 31.75284654 -9.5662626 31.03402875 -13.375 28.3125 C-17.75892902 24.55734168 -20.09101647 21.54593371 -20.5625 15.6875 C-20.3699026 10.19388855 -17.84728942 6.75904883 -14 3 C-9.67380954 -0.0095238 -5.19697842 -1.19481934 0 0 Z " fill="#6AE8ED" transform="translate(302,295)"/>
<path d="M0 0 C0 3.86632186 -1.01887905 4.46381978 -3.625 7.25 C-4.45128906 8.14074219 -5.27757812 9.03148437 -6.12890625 9.94921875 C-6.5892627 10.43825684 -7.04961914 10.92729492 -7.52392578 11.43115234 C-9.07416222 13.07882342 -10.61397346 14.73577894 -12.15234375 16.39453125 C-19.05529326 23.82669682 -26.01201213 31.20864996 -32.96704102 38.59204102 C-37.48492813 43.38825302 -41.99524822 48.19145042 -46.5 53 C-53.64955244 60.63070003 -60.81509121 68.24626736 -67.98388672 75.85888672 C-70.65792405 78.69871566 -73.33132906 81.53913908 -76.00439453 84.37988281 C-77.32910226 85.78724297 -78.65429352 87.19414814 -79.97998047 88.60058594 C-83.4366609 92.26900398 -86.88352757 95.94600749 -90.31640625 99.63671875 C-91.02732422 100.39855469 -91.73824219 101.16039062 -92.47070312 101.9453125 C-93.82008689 103.39171078 -95.16665731 104.8407413 -96.50976562 106.29296875 C-100.45332054 110.51261372 -104.54946391 114.31699523 -109 118 C-109 115 -109 115 -107.82592773 113.5012207 C-107.01297241 112.72137817 -107.01297241 112.72137817 -106.18359375 111.92578125 C-105.58764404 111.34465576 -104.99169434 110.76353027 -104.37768555 110.16479492 C-103.73742432 109.5535376 -103.09716309 108.94228027 -102.4375 108.3125 C-101.13877459 107.0461658 -99.84187832 105.7779528 -98.546875 104.5078125 C-97.92619141 103.89969727 -97.30550781 103.29158203 -96.66601562 102.66503906 C-94.17850436 100.17898589 -91.9071089 97.53761732 -89.63671875 94.85546875 C-86.96827135 91.83037922 -84.05802725 89.05048634 -81.1875 86.21875 C-79.20279658 84.20569368 -77.33903084 82.14553597 -75.5 80 C-72.24955349 76.20781241 -68.74550431 72.72864469 -65.19140625 69.22265625 C-62.57898932 66.5729856 -60.16697379 63.78827197 -57.74609375 60.96484375 C-55.27396582 58.18300852 -52.61569453 55.60624049 -49.96484375 52.99609375 C-48.07769256 51.07892823 -46.31314625 49.10424678 -44.5625 47.0625 C-41.99334729 44.07198284 -39.30682744 41.26883316 -36.5 38.5 C-33.71378859 35.7514401 -31.04691608 32.97140209 -28.5 30 C-25.24835372 26.20641267 -21.74286906 22.72607353 -18.1875 19.21875 C-15.60774723 16.60214362 -13.22950093 13.85137049 -10.83984375 11.0625 C-7.40050466 7.20693516 -3.68956865 3.61427133 0 0 Z " fill="#98B4C9" transform="translate(593,422)"/>
<path d="M0 0 C0.66 0 1.32 0 2 0 C2.67138621 3.26988299 3.33629263 6.54105049 4 9.8125 C4.28617187 11.2056543 4.28617187 11.2056543 4.578125 12.62695312 C4.75859375 13.51962891 4.9390625 14.41230469 5.125 15.33203125 C5.29257813 16.15421143 5.46015625 16.9763916 5.6328125 17.82348633 C6 20 6 20 6 23 C6.9705986 23.23386917 7.9411972 23.46773834 8.94120789 23.70869446 C18.69206825 26.08573088 28.29932899 28.79303501 37.89453125 31.73046875 C39.34411196 32.17109315 40.79379581 32.61137837 42.24357605 33.05134583 C46.00307533 34.19327131 49.76111632 35.33992216 53.51885986 36.48760986 C57.36383654 37.66088078 61.21033922 38.8291278 65.05664062 39.99804688 C70.65672498 41.70101098 76.25646137 43.40510976 81.85473633 45.11401367 C82.97229813 45.45502609 84.08985992 45.79603851 85.24128723 46.14738464 C87.16783264 46.74280807 89.08701917 47.36233972 91 48 C91 48.66 91 49.32 91 50 C76.62657189 47.10423927 62.58383734 42.44685883 48.53295898 38.29711914 C44.8765414 37.21849804 41.21704981 36.15140547 37.55444336 35.09399414 C33.116697 33.81270794 28.68513477 32.51188562 24.25732231 31.19669533 C22.57241402 30.69981351 20.88544208 30.20987482 19.19645882 29.72702599 C16.84247662 29.05251757 14.49730538 28.35315083 12.15258789 27.6472168 C11.45391098 27.45326828 10.75523407 27.25931976 10.03538513 27.05949402 C6.78327132 26.05214259 5.27732274 25.49668795 3.58436584 22.46458435 C3.39152512 21.65127151 3.19868439 20.83795868 3 20 C2.83419434 19.31341309 2.66838867 18.62682617 2.49755859 17.91943359 C2.38234863 17.25250488 2.26713867 16.58557617 2.1484375 15.8984375 C1.95507812 14.79242187 1.95507812 14.79242187 1.7578125 13.6640625 C1.63148437 12.90867187 1.50515625 12.15328125 1.375 11.375 C1.2409375 10.611875 1.106875 9.84875 0.96875 9.0625 C0.44329777 6.00629825 0 3.10671836 0 0 Z " fill="#91B4C6" transform="translate(105,511)"/>
<path d="M0 0 C-1.61029093 4.09892237 -4.57816083 6.76205641 -7.6875 9.75 C-11.73568198 13.71170546 -15.59374785 17.72578646 -19.265625 22.04296875 C-22.65887367 25.87183718 -26.34670295 29.42126003 -30 33 C-30.66 32.34 -31.32 31.68 -32 31 C-31.07058594 30.0821875 -30.14117187 29.164375 -29.18359375 28.21875 C-20.67184304 19.78595787 -20.67184304 19.78595787 -12.65625 10.88671875 C-3.09937888 0 -3.09937888 0 0 0 Z " fill="#9BB9C7" transform="translate(484,540)"/>
<path d="M0 0 C0.33 0.99 0.66 1.98 1 3 C0.03900391 3.94359375 0.03900391 3.94359375 -0.94140625 4.90625 C-5.54329413 9.46013011 -9.9893686 14.05230561 -14.1953125 18.97265625 C-17.61943288 22.81923304 -21.3225033 26.39755425 -25 30 C-25.66 29.34 -26.32 28.68 -27 28 C-26.58226318 27.5875 -26.16452637 27.175 -25.73413086 26.75 C-15.74538864 16.95367217 -15.74538864 16.95367217 -6.36328125 6.5859375 C-4.36346237 4.25950063 -2.20151176 2.13479928 0 0 Z " fill="#90B3C5" transform="translate(510,510)"/>
<path d="M0 0 C0.66 0 1.32 0 2 0 C2.67138621 3.26988299 3.33629263 6.54105049 4 9.8125 C4.28617187 11.2056543 4.28617187 11.2056543 4.578125 12.62695312 C4.75859375 13.51962891 4.9390625 14.41230469 5.125 15.33203125 C5.29257813 16.15421143 5.46015625 16.9763916 5.6328125 17.82348633 C6 20 6 20 6 23 C7.32 23.33 8.64 23.66 10 24 C10 24.66 10 25.32 10 26 C8.02 25.34 6.04 24.68 4 24 C3.32882733 20.56336386 2.66383929 17.12555959 2 13.6875 C1.80921875 12.71103516 1.6184375 11.73457031 1.421875 10.72851562 C1.24140625 9.79072266 1.0609375 8.85292969 0.875 7.88671875 C0.70742187 7.02264404 0.53984375 6.15856934 0.3671875 5.26831055 C0 3 0 3 0 0 Z " fill="#97B7C8" transform="translate(105,511)"/>
<path d="M0 0 C-1.32120828 2.93230193 -2.74638197 4.98664899 -5.0390625 7.234375 C-5.90917969 8.09482422 -5.90917969 8.09482422 -6.796875 8.97265625 C-7.40015625 9.55917969 -8.0034375 10.14570312 -8.625 10.75 C-9.23601562 11.35199219 -9.84703125 11.95398438 -10.4765625 12.57421875 C-11.97988624 14.05405305 -13.48934856 15.52764676 -15 17 C-15.66 16.34 -16.32 15.68 -17 15 C-14.54976242 12.49195282 -12.08852402 9.9949924 -9.625 7.5 C-8.57699219 6.42685547 -8.57699219 6.42685547 -7.5078125 5.33203125 C-6.8375 4.65527344 -6.1671875 3.97851562 -5.4765625 3.28125 C-4.85861816 2.65283203 -4.24067383 2.02441406 -3.60400391 1.37695312 C-2 0 -2 0 0 0 Z " fill="#9BB3C5" transform="translate(437,590)"/>
<path d="M0 0 C-1.32120828 2.93230193 -2.74638197 4.98664899 -5.0390625 7.234375 C-5.90917969 8.09482422 -5.90917969 8.09482422 -6.796875 8.97265625 C-7.40015625 9.55917969 -8.0034375 10.14570312 -8.625 10.75 C-9.23601562 11.35199219 -9.84703125 11.95398438 -10.4765625 12.57421875 C-11.97988624 14.05405305 -13.48934856 15.52764676 -15 17 C-15.66 16.34 -16.32 15.68 -17 15 C-14.54976242 12.49195282 -12.08852402 9.9949924 -9.625 7.5 C-8.57699219 6.42685547 -8.57699219 6.42685547 -7.5078125 5.33203125 C-6.8375 4.65527344 -6.1671875 3.97851562 -5.4765625 3.28125 C-4.85861816 2.65283203 -4.24067383 2.02441406 -3.60400391 1.37695312 C-2 0 -2 0 0 0 Z " fill="#99B2C4" transform="translate(453,573)"/>
<path d="M0 0 C-1.65863505 4.32504836 -4.871041 7.09418825 -8.125 10.25 C-8.68832031 10.80429687 -9.25164062 11.35859375 -9.83203125 11.9296875 C-11.21686028 13.29104485 -12.60783204 14.64614859 -14 16 C-14.99 15.67 -15.98 15.34 -17 15 C-14.54976242 12.49195282 -12.08852402 9.9949924 -9.625 7.5 C-8.57699219 6.42685547 -8.57699219 6.42685547 -7.5078125 5.33203125 C-6.8375 4.65527344 -6.1671875 3.97851562 -5.4765625 3.28125 C-4.85861816 2.65283203 -4.24067383 2.02441406 -3.60400391 1.37695312 C-2 0 -2 0 0 0 Z " fill="#85A1BE" transform="translate(484,540)"/>
<path d="M0 0 C-2.91236921 6.69098157 -9.26959649 11.70219737 -15 16 C-15.66 15.67 -16.32 15.34 -17 15 C-14.54976242 12.49195282 -12.08852402 9.9949924 -9.625 7.5 C-8.57699219 6.42685547 -8.57699219 6.42685547 -7.5078125 5.33203125 C-6.8375 4.65527344 -6.1671875 3.97851562 -5.4765625 3.28125 C-4.85861816 2.65283203 -4.24067383 2.02441406 -3.60400391 1.37695312 C-2 0 -2 0 0 0 Z " fill="#95B3CE" transform="translate(421,607)"/>
<path d="M0 0 C0.99 0 1.98 0 3 0 C3.50604924 2.39469729 4.00499517 4.79051717 4.5 7.1875 C4.64308594 7.86103516 4.78617187 8.53457031 4.93359375 9.22851562 C5.68069842 12.87509793 6.17352282 16.27648957 6 20 C5.34 20 4.68 20 4 20 C3.80664062 18.79601562 3.61328125 17.59203125 3.4140625 16.3515625 C3.15146395 14.77597123 2.88841999 13.20045415 2.625 11.625 C2.43550781 10.43390625 2.43550781 10.43390625 2.2421875 9.21875 C2.11328125 8.45820313 1.984375 7.69765625 1.8515625 6.9140625 C1.73635254 6.2123291 1.62114258 5.5105957 1.50244141 4.78759766 C1.0912785 2.7650146 1.0912785 2.7650146 -1 1 C-0.67 0.67 -0.34 0.34 0 0 Z " fill="#93B8CC" transform="translate(100,488)"/>
<path d="M0 0 C-1.58561638 3.85593074 -4.06509954 6.33216291 -7 9.25 C-7.886875 10.14203125 -8.77375 11.0340625 -9.6875 11.953125 C-12 14 -12 14 -14 14 C-12.41438362 10.14406926 -9.93490046 7.66783709 -7 4.75 C-6.113125 3.85796875 -5.22625 2.9659375 -4.3125 2.046875 C-2 0 -2 0 0 0 Z " fill="#99BEDF" transform="translate(45,156)"/>
<path d="M0 0 C-1.58561638 3.85593074 -4.06509954 6.33216291 -7 9.25 C-7.886875 10.14203125 -8.77375 11.0340625 -9.6875 11.953125 C-12 14 -12 14 -14 14 C-12.41438362 10.14406926 -9.93490046 7.66783709 -7 4.75 C-6.113125 3.85796875 -5.22625 2.9659375 -4.3125 2.046875 C-2 0 -2 0 0 0 Z " fill="#9AC4E5" transform="translate(61,139)"/>
<path d="M0 0 C-1.58561638 3.85593074 -4.06509954 6.33216291 -7 9.25 C-7.886875 10.14203125 -8.77375 11.0340625 -9.6875 11.953125 C-12 14 -12 14 -14 14 C-12.41438362 10.14406926 -9.93490046 7.66783709 -7 4.75 C-6.113125 3.85796875 -5.22625 2.9659375 -4.3125 2.046875 C-2 0 -2 0 0 0 Z " fill="#9EC0E0" transform="translate(124,72)"/>
<path d="M0 0 C0.66 0.66 1.32 1.32 2 2 C0.04761147 4.00612399 -1.91137822 6.00492433 -3.875 8 C-4.43058594 8.57234375 -4.98617187 9.1446875 -5.55859375 9.734375 C-7.00134404 11.19450782 -8.4974374 12.60149298 -10 14 C-10.66 14 -11.32 14 -12 14 C-10.41332422 10.09714233 -7.86649519 7.66479018 -4.875 4.75 C-3.96492187 3.85796875 -3.05484375 2.9659375 -2.1171875 2.046875 C-1.41851562 1.37140625 -0.71984375 0.6959375 0 0 Z " fill="#9AC5E2" transform="translate(138,55)"/>
<path d="M0 0 C0.66 0 1.32 0 2 0 C2 0.66 2 1.32 2 2 C2.85271484 2.18175781 2.85271484 2.18175781 3.72265625 2.3671875 C8.54245464 3.41322054 13.2732934 4.59204484 18 6 C17.67 6.66 17.34 7.32 17 8 C11.72 6.68 6.44 5.36 1 4 C0.67 2.68 0.34 1.36 0 0 Z " fill="#91B7C9" transform="translate(493,132)"/>
<path d="M0 0 C-1.53218685 3.63061667 -3.7183144 5.9863773 -6.5 8.75 C-7.69109375 9.94882813 -7.69109375 9.94882813 -8.90625 11.171875 C-11 13 -11 13 -13 13 C-11.46781315 9.36938333 -9.2816856 7.0136227 -6.5 4.25 C-5.7059375 3.45078125 -4.911875 2.6515625 -4.09375 1.828125 C-2 0 -2 0 0 0 Z " fill="#9EBFDC" transform="translate(76,123)"/>
<path d="M0 0 C-1.53218685 3.63061667 -3.7183144 5.9863773 -6.5 8.75 C-7.69109375 9.94882813 -7.69109375 9.94882813 -8.90625 11.171875 C-11 13 -11 13 -13 13 C-11.46781315 9.36938333 -9.2816856 7.0136227 -6.5 4.25 C-5.7059375 3.45078125 -4.911875 2.6515625 -4.09375 1.828125 C-2 0 -2 0 0 0 Z " fill="#9BC6E5" transform="translate(92,106)"/>
<path d="M0 0 C-1.53218685 3.63061667 -3.7183144 5.9863773 -6.5 8.75 C-7.69109375 9.94882813 -7.69109375 9.94882813 -8.90625 11.171875 C-11 13 -11 13 -13 13 C-11.46781315 9.36938333 -9.2816856 7.0136227 -6.5 4.25 C-5.7059375 3.45078125 -4.911875 2.6515625 -4.09375 1.828125 C-2 0 -2 0 0 0 Z " fill="#99C5E3" transform="translate(108,89)"/>
<path d="M0 0 C-1.55603771 3.81936528 -3.95604931 6.26044438 -7 9 C-7.66 9 -8.32 9 -9 9 C-9.66 10.32 -10.32 11.64 -11 13 C-11.66 13 -12.32 13 -13 13 C-11.46781315 9.36938333 -9.2816856 7.0136227 -6.5 4.25 C-5.7059375 3.45078125 -4.911875 2.6515625 -4.09375 1.828125 C-2 0 -2 0 0 0 Z " fill="#9CC7DF" transform="translate(29,173)"/>
<path d="M0 0 C0.66 0.66 1.32 1.32 2 2 C0.21427748 3.83947337 -1.57802449 5.67157741 -3.375 7.5 C-3.88289062 8.02464844 -4.39078125 8.54929687 -4.9140625 9.08984375 C-6.23832604 10.43153181 -7.61605865 11.71995815 -9 13 C-9.66 13 -10.32 13 -11 13 C-9.46356148 9.31930113 -7.21849055 7.01224796 -4.375 4.25 C-3.55773437 3.45078125 -2.74046875 2.6515625 -1.8984375 1.828125 C-0.95871094 0.92320313 -0.95871094 0.92320313 0 0 Z " fill="#A1C1E4" transform="translate(153,39)"/>
<path d="M0 0 C0.33 0.99 0.66 1.98 1 3 C-0.61886415 4.67262717 -2.2452729 6.33795537 -3.875 8 C-5.23238281 9.3921875 -5.23238281 9.3921875 -6.6171875 10.8125 C-9 13 -9 13 -11 13 C-9.46356148 9.31930113 -7.21849055 7.01224796 -4.375 4.25 C-3.55773437 3.45078125 -2.74046875 2.6515625 -1.8984375 1.828125 C-0.95871094 0.92320312 -0.95871094 0.92320312 0 0 Z " fill="#81A8BA" transform="translate(510,510)"/>
<path d="M0 0 C0.33 0.99 0.66 1.98 1 3 C-0.61886415 4.67262717 -2.2452729 6.33795537 -3.875 8 C-5.23238281 9.3921875 -5.23238281 9.3921875 -6.6171875 10.8125 C-9 13 -9 13 -11 13 C-9.46356148 9.31930113 -7.21849055 7.01224796 -4.375 4.25 C-3.55773437 3.45078125 -2.74046875 2.6515625 -1.8984375 1.828125 C-0.95871094 0.92320313 -0.95871094 0.92320313 0 0 Z " fill="#A1BEDB" transform="translate(169,22)"/>
<path d="M0 0 C-1.38188453 3.21043882 -2.92421903 5.04936365 -5.625 7.25 C-6.57246094 8.03117187 -6.57246094 8.03117187 -7.5390625 8.828125 C-8.02117188 9.21484375 -8.50328125 9.6015625 -9 10 C-8.42110619 6.71245489 -7.45171589 5.06327505 -5.0625 2.75 C-4.53785156 2.22921875 -4.01320313 1.7084375 -3.47265625 1.171875 C-2 0 -2 0 0 0 Z " fill="#A6BEC9" transform="translate(563,456)"/>
<path d="M0 0 C-1.55603771 3.81936528 -3.95604931 6.26044438 -7 9 C-7.66 9 -8.32 9 -9 9 C-7.45665977 5.21180126 -4.44676575 0 0 0 Z " fill="#87A2B2" transform="translate(571,447)"/>
<path d="M0 0 C-1.5830577 4.2742558 -4.50568404 6.26531794 -8 9 C-8 6 -8 6 -6.7578125 4.39453125 C-5.94957031 3.61142578 -5.94957031 3.61142578 -5.125 2.8125 C-4.59132813 2.28269531 -4.05765625 1.75289063 -3.5078125 1.20703125 C-2 0 -2 0 0 0 Z " fill="#B1CAD4" transform="translate(579,439)"/>
<path d="M0 0 C-1.49097658 3.7952131 -3.75700849 5.61042731 -7 8 C-7 5 -7 5 -4.625 2.3125 C-2 0 -2 0 0 0 Z " fill="#A5BFD7" transform="translate(484,540)"/>
<path d="M0 0 C0.33 0.99 0.66 1.98 1 3 C-0.65 4.65 -2.3 6.3 -4 8 C-4.99 7.67 -5.98 7.34 -7 7 C-4.69 4.69 -2.38 2.38 0 0 Z " fill="#7BA0B8" transform="translate(553,464)"/>
</svg>
